0
SECTION
2
HEADER
9
$INSUNITS
70
1
9
$ACADVER
1
AC1014
9
$HANDSEED
5
FFFF
0
ENDSEC
0
SECTION
2
TABLES
0
TABLE
2
VPORT
5
8
100
AcDbSymbolTable
0
ENDTAB
0
TABLE
2
LTYPE
5
5
100
AcDbSymbolTable
0
LTYPE
5
14
100
AcDbSymbolTableRecord
100
AcDbLinetypeTableRecord
2
BYBLOCK
70
0
0
LTYPE
5
15
100
AcDbSymbolTableRecord
100
AcDbLinetypeTableRecord
2
BYLAYER
70
0
0
ENDTAB
0
TABLE
2
LAYER
5
2
100
AcDbSymbolTable
70
2
0
LAYER
5
50
100
AcDbSymbolTableRecord
100
AcDbLayerTableRecord
2
0
70
0
6
CONTINUOUS
0
ENDTAB
0
TABLE
2
STYLE
5
3
100
AcDbSymbolTable
70
1
0
STYLE
5
11
100
AcDbSymbolTableRecord
100
AcDbTextStyleTableRecord
2
STANDARD
70
0
0
ENDTAB
0
TABLE
2
VIEW
5
6
100
AcDbSymbolTable
70
0
0
ENDTAB
0
TABLE
2
UCS
5
7
100
AcDbSymbolTable
70
0
0
ENDTAB
0
TABLE
2
APPID
5
9
100
AcDbSymbolTable
70
2
0
APPID
5
12
100
AcDbSymbolTableRecord
100
AcDbRegAppTableRecord
2
ACAD
70
0
0
ENDTAB
0
TABLE
2
DIMSTYLE
5
A
100
AcDbSymbolTable
70
1
0
ENDTAB
0
TABLE
2
BLOCK_RECORD
5
1
100
AcDbSymbolTable
70
1
0
BLOCK_RECORD
5
1F
100
AcDbSymbolTableRecord
100
AcDbBlockTableRecord
2
*MODEL_SPACE
0
BLOCK_RECORD
5
1B
100
AcDbSymbolTableRecord
100
AcDbBlockTableRecord
2
*PAPER_SPACE
0
ENDTAB
0
ENDSEC
0
SECTION
2
BLOCKS
0
BLOCK
5
20
100
AcDbEntity
100
AcDbBlockBegin
2
*MODEL_SPACE
0
ENDBLK
5
21
100
AcDbEntity
100
AcDbBlockEnd
0
BLOCK
5
1C
100
AcDbEntity
100
AcDbBlockBegin
2
*PAPER_SPACE
0
ENDBLK
5
1D
100
AcDbEntity
100
AcDbBlockEnd
0
ENDSEC
0
SECTION
2
ENTITIES
0
CIRCLE
5
100
100
AcDbEntity
8
0
100
AcDbCircle
10
4.6911337427399973
20
-0.075677607567746941
30
0
40
0.11811023622047272
210
7.2534673068892965e-69
220
5.9695521574216234e-121
230
1
0
CIRCLE
5
101
100
AcDbEntity
8
0
100
AcDbCircle
10
4.6911337427399973
20
-0.32567760756774694
30
0
40
0.062992125984252023
210
7.253467306890222e-69
220
5.9695521574223852e-121
230
1
0
CIRCLE
5
102
100
AcDbEntity
8
0
100
AcDbCircle
10
4.6911337427399973
20
0.17432239243225309
30
0
40
0.062992125984252023
210
7.253467306890222e-69
220
5.9695521574223852e-121
230
1
0
CIRCLE
5
103
100
AcDbEntity
8
0
100
AcDbCircle
10
5.1999999999999993
20
-0.8674999999994496
30
0
40
0.098000000000000004
210
-3.8298307380384333e-66
220
-1.2325951644078309e-32
230
1
0
CIRCLE
5
104
100
AcDbEntity
8
0
100
AcDbCircle
10
4.1822674854799953
20
-0.8674999999994496
30
0
40
0.098000000000000004
210
-3.8298307380384333e-66
220
-1.2325951644078309e-32
230
1
0
CIRCLE
5
105
100
AcDbEntity
8
0
100
AcDbCircle
10
-1.5000000000000107
20
0.7575000000005393
30
0
40
0.098000000000000004
210
-3.8298307380384333e-66
220
-1.2325951644078309e-32
230
1
0
CIRCLE
5
106
100
AcDbEntity
8
0
100
AcDbCircle
10
0.86624999999999908
20
-4.1224999999994516
30
0
40
0.098000000000000004
210
-3.8298307380384333e-66
220
-1.2325951644078309e-32
230
1
0
CIRCLE
5
107
100
AcDbEntity
8
0
100
AcDbCircle
10
2.5387499999999994
20
-4.1224999999994463
30
0
40
0.098000000000000004
210
-3.8298307380384333e-66
220
-1.2325951644078309e-32
230
1
0
CIRCLE
5
108
100
AcDbEntity
8
0
100
AcDbCircle
10
5.1999999999999993
20
0.53250000000054998
30
0
40
0.098000000000000004
210
-3.8298307380384333e-66
220
-1.2325951644078309e-32
230
1
0
CIRCLE
5
109
100
AcDbEntity
8
0
100
AcDbCircle
10
4.1822674854799953
20
0.53250000000054998
30
0
40
0.098000000000000004
210
-3.8298307380384333e-66
220
-1.2325951644078309e-32
230
1
0
CIRCLE
5
110
100
AcDbEntity
8
0
100
AcDbCircle
10
-0.25000000000000339
20
-3.5674999999994461
30
0
40
0.098000000000000004
210
-3.8298307380384333e-66
220
-1.2325951644078309e-32
230
1
0
CIRCLE
5
111
100
AcDbEntity
8
0
100
AcDbCircle
10
-0.25000000000000061
20
0.53250000000055153
30
0
40
0.098000000000000004
210
-3.8298307380384333e-66
220
-1.2325951644078309e-32
230
1
0
CIRCLE
5
112
100
AcDbEntity
8
0
100
AcDbCircle
10
7
20
-3.5674999999994483
30
0
40
0.09799999999999931
210
-3.8298307380384328e-66
220
1.6642156286552025e-115
230
1
0
CIRCLE
5
113
100
AcDbEntity
8
0
100
AcDbCircle
10
8.250000000000016
20
0.75750000000053186
30
0
40
0.09799999999999931
210
-3.8298307380384328e-66
220
1.6642156286552025e-115
230
1
0
CIRCLE
5
114
100
AcDbEntity
8
0
100
AcDbCircle
10
7
20
0.53250000000054976
30
0
40
0.09799999999999931
210
-3.8298307380384328e-66
220
1.6642156286552025e-115
230
1
0
CIRCLE
5
115
100
AcDbEntity
8
0
100
AcDbCircle
10
5.8837499999999983
20
-4.1224999999994525
30
0
40
0.098000000000000004
210
-3.8298307380384333e-66
220
-1.2325951644078309e-32
230
1
0
CIRCLE
5
116
100
AcDbEntity
8
0
100
AcDbCircle
10
4.2112499999999979
20
-4.1224999999994472
30
0
40
0.098000000000000004
210
-3.8298307380384333e-66
220
-1.2325951644078309e-32
230
1
0
LWPOLYLINE
5
117
100
AcDbEntity
8
0
100
AcDbPolyline
90
25
70
1
43
0.0
10
4.2264227339610327
20
0.78250000000055364
42
0.41421356237309537
10
3.9803127339610334
20
0.53639000000055359
10
3.9803127339610334
20
-1.0763599999995288
42
-0.41421356237310419
10
3.734202733961026
20
-1.3224699999995289
10
0.41337946222151334
20
-1.3224699999994272
42
-0.41062979088229057
10
0.301773131411403
20
-1.2122226780217606
10
0.28346837618988624
20
0.28181633314439203
42
-0.0030628210684884773
10
0.28345999999999999
20
0.28318371816672649
10
0.28345999999999999
20
0.4355567608789418
42
0.39251263934293379
10
-0.066799776611628781
20
0.81299249658429418
42
-0.025865056660473496
10
-1.189603020609227
20
0.95564625962781147
10
-1.4557117504211967
20
1.0035458309939638
42
0.99999999999999989
10
-1.5442882495788248
20
0.51145416900711493
10
-1.5255224466697033
20
0.50807632448347317
42
-0.36296265454568866
10
-0.49999999999998807
20
-0.7185211940181857
10
-0.49999999999998801
20
-4.1476023923964851
10
-0.192789999999988
20
-4.4548123923964855
10
6.9427900000000005
20
-4.4548123923964935
10
7.2499999999999991
20
-4.1476023923964931
10
7.2499999999999973
20
-0.71852119401819192
42
-0.36296265454568993
10
8.2755224466697204
20
0.50807632448346784
10
8.2942882495788286
20
0.51145416900710761
42
0.99999999999999989
10
8.2057117504211998
20
1.003545830993956
10
7.9396030206092041
20
0.9556462596278027
42
-0.044552677646840511
10
6.0002967473422855
20
0.78250000000055475
0
ENDSEC
0
SECTION
2
OBJECTS
0
DICTIONARY
5
C
100
AcDbDictionary
3
ACAD_GROUP
350
D
3
ACAD_MLINESTYLE
350
17
0
DICTIONARY
5
D
100
AcDbDictionary
0
DICTIONARY
5
1A
330
C
100
AcDbDictionary
0
DICTIONARY
5
17
100
AcDbDictionary
0
ENDSEC
0
EOF
