0
SECTION
2
HEADER
9
$INSUNITS
70
1
9
$ACADVER
1
AC1014
9
$HANDSEED
5
FFFF
0
ENDSEC
0
SECTION
2
TABLES
0
TABLE
2
VPORT
5
8
100
AcDbSymbolTable
0
ENDTAB
0
TABLE
2
LTYPE
5
5
100
AcDbSymbolTable
0
LTYPE
5
14
100
AcDbSymbolTableRecord
100
AcDbLinetypeTableRecord
2
BYBLOCK
70
0
0
LTYPE
5
15
100
AcDbSymbolTableRecord
100
AcDbLinetypeTableRecord
2
BYLAYER
70
0
0
ENDTAB
0
TABLE
2
LAYER
5
2
100
AcDbSymbolTable
70
2
0
LAYER
5
50
100
AcDbSymbolTableRecord
100
AcDbLayerTableRecord
2
0
70
0
6
CONTINUOUS
0
ENDTAB
0
TABLE
2
STYLE
5
3
100
AcDbSymbolTable
70
1
0
STYLE
5
11
100
AcDbSymbolTableRecord
100
AcDbTextStyleTableRecord
2
STANDARD
70
0
0
ENDTAB
0
TABLE
2
VIEW
5
6
100
AcDbSymbolTable
70
0
0
ENDTAB
0
TABLE
2
UCS
5
7
100
AcDbSymbolTable
70
0
0
ENDTAB
0
TABLE
2
APPID
5
9
100
AcDbSymbolTable
70
2
0
APPID
5
12
100
AcDbSymbolTableRecord
100
AcDbRegAppTableRecord
2
ACAD
70
0
0
ENDTAB
0
TABLE
2
DIMSTYLE
5
A
100
AcDbSymbolTable
70
1
0
ENDTAB
0
TABLE
2
BLOCK_RECORD
5
1
100
AcDbSymbolTable
70
1
0
BLOCK_RECORD
5
1F
100
AcDbSymbolTableRecord
100
AcDbBlockTableRecord
2
*MODEL_SPACE
0
BLOCK_RECORD
5
1B
100
AcDbSymbolTableRecord
100
AcDbBlockTableRecord
2
*PAPER_SPACE
0
ENDTAB
0
ENDSEC
0
SECTION
2
BLOCKS
0
BLOCK
5
20
100
AcDbEntity
100
AcDbBlockBegin
2
*MODEL_SPACE
0
ENDBLK
5
21
100
AcDbEntity
100
AcDbBlockEnd
0
BLOCK
5
1C
100
AcDbEntity
100
AcDbBlockBegin
2
*PAPER_SPACE
0
ENDBLK
5
1D
100
AcDbEntity
100
AcDbBlockEnd
0
ENDSEC
0
SECTION
2
ENTITIES
0
LWPOLYLINE
5
100
100
AcDbEntity
8
0
100
AcDbPolyline
90
28
70
1
43
0.0
10
2.099859984314524
20
2.0313228515414807
42
0.41421356237309581
10
2.2289999843145241
20
2.1604628515414808
10
2.2289999843145201
20
4.4321828515414827
42
0.41421356237309348
10
2.09985998431452
20
4.5613228515414841
10
1.448555629303945
20
4.5613228515414832
42
0.41421356237309426
10
1.3194156293039452
20
4.4321828515414827
10
1.319415629303945
20
4.0613228515414832
10
0.044415629303945797
20
4.0613228515414832
10
0.044415629303945485
20
4.4321828515414827
42
0.41421356237309437
10
-0.084724370696054499
20
4.5613228515414832
10
-1.7458600870999952
20
4.5613228515414832
42
0.41421356237309348
10
-1.8750000870999948
20
4.4321828515414827
10
-1.8750000870999897
20
-2.4345371484584701
42
0.41421356237309348
10
-1.7458600870999903
20
-2.5636771484584711
10
-0.084724406599644031
20
-2.5636771484584688
42
0.41421356237309492
10
0.044415593400355738
20
-2.4345371484584692
10
0.044415629303815589
20
-2.0636771484584706
10
1.3194156293038148
20
-2.0636771484585292
10
1.3194155934003622
20
-2.4345371484585168
42
0.41421356237309581
10
1.4485556293038155
20
-2.5636771484585164
10
2.0998599843145285
20
-2.5636771484585164
42
0.41421356237309664
10
2.2289999843145281
20
-2.434537148458515
10
2.2289999843145245
20
-0.16281714845851314
42
0.41421356237309537
10
2.0998599843145245
20
-0.033677148458513176
10
1.8123899843145244
20
-0.033677148458513308
42
-0.41421356237309509
10
1.6039999843145245
20
0.17471285154148658
10
1.6039999843145238
20
1.8229328515414804
42
-0.41421356237309459
10
1.8123899843145237
20
2.0313228515414807
0
CIRCLE
5
101
100
AcDbEntity
8
0
100
AcDbCircle
10
-1.0000000870999926
20
0.99882285154150074
30
0
40
0.24999999999999994
210
6.1629758220391561e-33
220
-0
230
1
0
CIRCLE
5
102
100
AcDbEntity
8
0
100
AcDbCircle
10
-1.6250000871000305
20
0.24882285154154668
30
0
40
0.10000000000000017
210
0
220
-0
230
1
0
CIRCLE
5
103
100
AcDbEntity
8
0
100
AcDbCircle
10
-1.6250000871001047
20
-1.5011771484584533
30
0
40
0.10000000000000017
210
0
220
-0
230
1
0
CIRCLE
5
104
100
AcDbEntity
8
0
100
AcDbCircle
10
-0.69029220822495141
20
-2.3136771484584409
30
0
40
0.099999999999999992
210
0
220
-0
230
1
0
CIRCLE
5
105
100
AcDbEntity
8
0
100
AcDbCircle
10
1.666499984314469
20
-0.28367714845853803
30
0
40
0.099999999999999811
210
0
220
-0
230
1
0
CIRCLE
5
106
100
AcDbEntity
8
0
100
AcDbCircle
10
1.7992078068090938
20
-2.313677148458547
30
0
40
0.099999999999999811
210
0
220
-0
230
1
0
CIRCLE
5
107
100
AcDbEntity
8
0
100
AcDbCircle
10
1.6664999843145236
20
2.2813228515414798
30
0
40
0.099999999999999811
210
0
220
-0
230
1
0
CIRCLE
5
108
100
AcDbEntity
8
0
100
AcDbCircle
10
-1.6250000870999985
20
3.4988228515415347
30
0
40
0.10000000000000017
210
0
220
-0
230
1
0
CIRCLE
5
109
100
AcDbEntity
8
0
100
AcDbCircle
10
-0.69029220822481074
20
4.3113228515414832
30
0
40
0.099999999999999992
210
0
220
-0
230
1
0
CIRCLE
5
110
100
AcDbEntity
8
0
100
AcDbCircle
10
-1.6250000870999985
20
1.7488228515415347
30
0
40
0.10000000000000017
210
0
220
-0
230
1
0
CIRCLE
5
111
100
AcDbEntity
8
0
100
AcDbCircle
10
1.7992078068092343
20
4.3113228515414832
30
0
40
0.099999999999999811
210
0
220
-0
230
1
0
ENDSEC
0
SECTION
2
OBJECTS
0
DICTIONARY
5
C
100
AcDbDictionary
3
ACAD_GROUP
350
D
3
ACAD_MLINESTYLE
350
17
0
DICTIONARY
5
D
100
AcDbDictionary
0
DICTIONARY
5
1A
330
C
100
AcDbDictionary
0
DICTIONARY
5
17
100
AcDbDictionary
0
ENDSEC
0
EOF
