0
SECTION
2
HEADER
9
$INSUNITS
70
4
9
$ACADVER
1
AC1014
9
$HANDSEED
5
FFFF
0
ENDSEC
0
SECTION
2
TABLES
0
TABLE
2
VPORT
5
8
100
AcDbSymbolTable
0
ENDTAB
0
TABLE
2
LTYPE
5
5
100
AcDbSymbolTable
0
LTYPE
5
14
100
AcDbSymbolTableRecord
100
AcDbLinetypeTableRecord
2
BYBLOCK
70
0
0
LTYPE
5
15
100
AcDbSymbolTableRecord
100
AcDbLinetypeTableRecord
2
BYLAYER
70
0
0
ENDTAB
0
TABLE
2
LAYER
5
2
100
AcDbSymbolTable
70
2
0
LAYER
5
50
100
AcDbSymbolTableRecord
100
AcDbLayerTableRecord
2
0
70
0
6
CONTINUOUS
0
ENDTAB
0
TABLE
2
STYLE
5
3
100
AcDbSymbolTable
70
1
0
STYLE
5
11
100
AcDbSymbolTableRecord
100
AcDbTextStyleTableRecord
2
STANDARD
70
0
0
ENDTAB
0
TABLE
2
VIEW
5
6
100
AcDbSymbolTable
70
0
0
ENDTAB
0
TABLE
2
UCS
5
7
100
AcDbSymbolTable
70
0
0
ENDTAB
0
TABLE
2
APPID
5
9
100
AcDbSymbolTable
70
2
0
APPID
5
12
100
AcDbSymbolTableRecord
100
AcDbRegAppTableRecord
2
ACAD
70
0
0
ENDTAB
0
TABLE
2
DIMSTYLE
5
A
100
AcDbSymbolTable
70
1
0
ENDTAB
0
TABLE
2
BLOCK_RECORD
5
1
100
AcDbSymbolTable
70
1
0
BLOCK_RECORD
5
1F
100
AcDbSymbolTableRecord
100
AcDbBlockTableRecord
2
*MODEL_SPACE
0
BLOCK_RECORD
5
1B
100
AcDbSymbolTableRecord
100
AcDbBlockTableRecord
2
*PAPER_SPACE
0
ENDTAB
0
ENDSEC
0
SECTION
2
BLOCKS
0
BLOCK
5
20
100
AcDbEntity
100
AcDbBlockBegin
2
*MODEL_SPACE
0
ENDBLK
5
21
100
AcDbEntity
100
AcDbBlockEnd
0
BLOCK
5
1C
100
AcDbEntity
100
AcDbBlockBegin
2
*PAPER_SPACE
0
ENDBLK
5
1D
100
AcDbEntity
100
AcDbBlockEnd
0
ENDSEC
0
SECTION
2
ENTITIES
0
LWPOLYLINE
5
100
100
AcDbEntity
8
0
100
AcDbPolyline
90
10
70
1
43
0.0
10
9.5250000000000004
20
-54.739983387374203
10
29.704192025939605
20
-15.1343940194547
42
0.29083552099331889
10
26.318159429219055
20
20.463220433456016
42
-0.32948358448647769
10
25.399999999999999
20
58.198711325939215
42
0.092639781255254378
10
2.6670000000000149
20
63.443968279104524
10
-13.610837388373319
20
31.495546232624513
42
-0.15416690163180419
10
-15.622506718069133
20
29.450402205978257
42
0.4993403291973168
10
-23.947110120950079
20
-23.193206399829478
42
-0.32050072075308078
10
-23.124669848808715
20
-28.668577888298586
10
-31.749999999999993
20
-45.597466006895601
42
0.19764620635099203
0
LWPOLYLINE
5
101
100
AcDbEntity
8
0
100
AcDbPolyline
90
7
70
1
43
0.0
10
-4.8708366230130302
20
-37.208211410203596
10
8.7043978273868579
20
-38.508281111717302
10
7.306252606213091
20
-44.799938797950801
10
-2.5806348035186097
20
-42.602854170405699
10
-2.5806348035186097
20
-45.7986146211624
10
-22.401928901672299
20
-39.818875491619103
10
-4.8708366230130196
20
-39.818875491619195
0
LWPOLYLINE
5
102
100
AcDbEntity
8
0
100
AcDbPolyline
90
36
70
1
43
0.0
10
18.992644879090996
20
5.8494076193013766
42
0.11289322556935602
10
14.56205803495064
20
13.523409140698543
42
-0.32918011916200046
10
14.272839760046001
20
16.085283632688899
10
14.534497693541205
20
16.538488467706095
42
0.9999999925494194
10
7.0555023064588198
20
20.8564884677061
10
6.7938443729636075
20
20.403283632688996
42
-0.32918011916201245
10
4.4305868441402723
20
19.372816759999875
42
0.11289322556935576
10
-4.4305868441402723
20
19.372816759999864
42
-0.32918011916201689
10
-6.7938443729636502
20
20.403283632689
10
-7.0555023064587941
20
20.856488467706097
42
0.99999999999999989
10
-14.5344976935412
20
16.538488467706102
10
-14.27283976004607
20
16.08528363268886
42
-0.3291801191620099
10
-14.562058034950748
20
13.523409140698545
42
0.11289322556935485
10
-18.992644879090989
20
5.8494076193013971
42
-0.32918011916201267
10
-21.066684133009698
20
4.3179999999999996
10
-21.590000000000003
20
4.3180000000000369
42
0.99999999999999989
10
-21.590000000000003
20
-4.3179999999999303
10
-21.066684133009698
20
-4.3179999999999534
42
-0.32918011916200318
10
-18.992644879090964
20
-5.8494076193013109
42
0.11289322556935569
10
-14.562058034950688
20
-13.52340914069849
42
-0.32918011916200979
10
-14.272839760046001
20
-16.085283632688899
10
-14.534497693541205
20
-16.538488467705996
42
0.99999999999999989
10
-7.0555023064587896
20
-20.856488467705997
10
-6.7938443729635134
20
-20.403283632688975
42
-0.3291801191620039
10
-4.4305868441402749
20
-19.372816759999928
42
0.11289322556935596
10
4.4305868441402882
20
-19.372816759999839
42
-0.32918011916200085
10
6.79384437296362
20
-20.403283632688897
10
7.0555023064587941
20
-20.856488467705997
42
0.99999999999999989
10
14.5344976935412
20
-16.538488467705999
10
14.272839760046136
20
-16.085283632688821
42
-0.32918011916201168
10
14.562058034950718
20
-13.523409140698515
42
0.11289322556935556
10
18.992644879091007
20
-5.8494076193013331
42
-0.32918011916200429
10
21.066684133009698
20
-4.3179999999999996
10
21.590000000000003
20
-4.3179999999999739
42
0.99999999999999989
10
21.590000000000003
20
4.3179999999999996
10
21.066684133009698
20
4.3180000000000032
42
-0.32918011916200995
0
LWPOLYLINE
5
103
100
AcDbEntity
8
0
100
AcDbPolyline
90
10
70
1
43
0.0
10
9.5250000000000004
20
-54.739983387374203
10
29.704192025939605
20
-15.1343940194547
42
0.290835520993319
10
26.318159429219055
20
20.463220433456023
42
-0.32948358448647774
10
25.399999999999995
20
58.198711325939207
42
0.09263978125525453
10
2.6670000000000282
20
63.443968279104517
10
-13.610837388373323
20
31.495546232624513
42
-0.15416690163180577
10
-15.622506718069127
20
29.450402205978254
42
0.49934032919731691
10
-23.947110120950079
20
-23.193206399829482
42
-0.32050072075307917
10
-23.124669848808715
20
-28.668577888298586
10
-31.75
20
-45.597466006895601
42
0.19764620635099195
0
LWPOLYLINE
5
104
100
AcDbEntity
8
0
100
AcDbPolyline
90
7
70
1
43
0.0
10
-4.8708366230130302
20
-37.208211410203596
10
8.7043978273868579
20
-38.508281111717302
10
7.306252606213091
20
-44.799938797950801
10
-2.5806348035186097
20
-42.602854170405699
10
-2.5806348035186097
20
-45.7986146211624
10
-22.401928901672299
20
-39.818875491619103
10
-4.8708366230130196
20
-39.818875491619195
0
LWPOLYLINE
5
105
100
AcDbEntity
8
0
100
AcDbPolyline
90
36
70
1
43
0.0
10
18.992644879090999
20
5.849407619301374
42
0.11289322556935634
10
14.56205803495064
20
13.52340914069854
42
-0.32918011916200085
10
14.272839760046001
20
16.085283632688899
10
14.534497693541205
20
16.538488467706095
42
0.9999999925494194
10
7.0555023064588198
20
20.8564884677061
10
6.7938443729636084
20
20.403283632688989
42
-0.32918011916201217
10
4.4305868441402749
20
19.372816759999878
42
0.11289322556935602
10
-4.4305868441402705
20
19.372816759999868
42
-0.32918011916201767
10
-6.7938443729636502
20
20.403283632689
10
-7.0555023064587941
20
20.856488467706097
42
0.99999999999999989
10
-14.5344976935412
20
16.538488467706102
10
-14.272839760046068
20
16.085283632688864
42
-0.32918011916200968
10
-14.562058034950745
20
13.523409140698547
42
0.11289322556935512
10
-18.992644879090989
20
5.8494076193013971
42
-0.32918011916201279
10
-21.066684133009698
20
4.3179999999999996
10
-21.590000000000003
20
4.3180000000000369
42
0.99999999999999989
10
-21.590000000000003
20
-4.3179999999999303
10
-21.066684133009698
20
-4.3179999999999517
42
-0.32918011916200163
10
-18.992644879090967
20
-5.8494076193013091
42
0.11289322556935569
10
-14.562058034950686
20
-13.523409140698488
42
-0.3291801191620109
10
-14.272839760046001
20
-16.085283632688899
10
-14.534497693541205
20
-16.538488467705996
42
0.99999999999999989
10
-7.0555023064587896
20
-20.856488467705997
10
-6.7938443729635134
20
-20.403283632688975
42
-0.32918011916200285
10
-4.4305868441402776
20
-19.372816759999928
42
0.11289322556935646
10
4.4305868441402882
20
-19.372816759999839
42
-0.32918011916200085
10
6.79384437296362
20
-20.403283632688897
10
7.0555023064587941
20
-20.856488467705997
42
0.99999999999999989
10
14.5344976935412
20
-16.538488467705999
10
14.272839760046139
20
-16.085283632688821
42
-0.32918011916201034
10
14.562058034950718
20
-13.523409140698519
42
0.11289322556935576
10
18.992644879091007
20
-5.8494076193013322
42
-0.32918011916200429
10
21.066684133009698
20
-4.3179999999999996
10
21.590000000000003
20
-4.3179999999999739
42
0.99999999999999989
10
21.590000000000003
20
4.3179999999999996
10
21.066684133009698
20
4.3180000000000014
42
-0.32918011916200973
0
ENDSEC
0
SECTION
2
OBJECTS
0
DICTIONARY
5
C
100
AcDbDictionary
3
ACAD_GROUP
350
D
3
ACAD_MLINESTYLE
350
17
0
DICTIONARY
5
D
100
AcDbDictionary
0
DICTIONARY
5
1A
330
C
100
AcDbDictionary
0
DICTIONARY
5
17
100
AcDbDictionary
0
ENDSEC
0
EOF
