0
SECTION
2
HEADER
9
$INSUNITS
70
6
9
$ACADVER
1
AC1014
9
$HANDSEED
5
FFFF
0
ENDSEC
0
SECTION
2
TABLES
0
TABLE
2
VPORT
5
8
100
AcDbSymbolTable
0
ENDTAB
0
TABLE
2
LTYPE
5
5
100
AcDbSymbolTable
0
LTYPE
5
14
100
AcDbSymbolTableRecord
100
AcDbLinetypeTableRecord
2
BYBLOCK
70
0
0
LTYPE
5
15
100
AcDbSymbolTableRecord
100
AcDbLinetypeTableRecord
2
BYLAYER
70
0
0
ENDTAB
0
TABLE
2
LAYER
5
2
100
AcDbSymbolTable
70
2
0
LAYER
5
50
100
AcDbSymbolTableRecord
100
AcDbLayerTableRecord
2
0
70
0
6
CONTINUOUS
0
ENDTAB
0
TABLE
2
STYLE
5
3
100
AcDbSymbolTable
70
1
0
STYLE
5
11
100
AcDbSymbolTableRecord
100
AcDbTextStyleTableRecord
2
STANDARD
70
0
0
ENDTAB
0
TABLE
2
VIEW
5
6
100
AcDbSymbolTable
70
0
0
ENDTAB
0
TABLE
2
UCS
5
7
100
AcDbSymbolTable
70
0
0
ENDTAB
0
TABLE
2
APPID
5
9
100
AcDbSymbolTable
70
2
0
APPID
5
12
100
AcDbSymbolTableRecord
100
AcDbRegAppTableRecord
2
ACAD
70
0
0
ENDTAB
0
TABLE
2
DIMSTYLE
5
A
100
AcDbSymbolTable
70
1
0
ENDTAB
0
TABLE
2
BLOCK_RECORD
5
1
100
AcDbSymbolTable
70
1
0
BLOCK_RECORD
5
1F
100
AcDbSymbolTableRecord
100
AcDbBlockTableRecord
2
*MODEL_SPACE
0
BLOCK_RECORD
5
1B
100
AcDbSymbolTableRecord
100
AcDbBlockTableRecord
2
*PAPER_SPACE
0
ENDTAB
0
ENDSEC
0
SECTION
2
BLOCKS
0
BLOCK
5
20
100
AcDbEntity
100
AcDbBlockBegin
2
*MODEL_SPACE
0
ENDBLK
5
21
100
AcDbEntity
100
AcDbBlockEnd
0
BLOCK
5
1C
100
AcDbEntity
100
AcDbBlockBegin
2
*PAPER_SPACE
0
ENDBLK
5
1D
100
AcDbEntity
100
AcDbBlockEnd
0
ENDSEC
0
SECTION
2
ENTITIES
0
LWPOLYLINE
5
100
100
AcDbEntity
8
0
100
AcDbPolyline
90
10
70
1
43
0.0
10
0.0095250000000000005
20
-0.054739983387374201
10
0.029704192025939605
20
-0.015134394019454701
42
0.29083552099331889
10
0.026318159429219057
20
0.020463220433456018
42
-0.32948358448647769
10
0.025400000000000002
20
0.05819871132593922
42
0.092639781255254378
10
0.0026670000000000148
20
0.063443968279104535
10
-0.01361083738837332
20
0.031495546232624509
42
-0.15416690163180419
10
-0.015622506718069133
20
0.029450402205978259
42
0.4993403291973168
10
-0.023947110120950077
20
-0.023193206399829479
42
-0.32050072075308078
10
-0.023124669848808718
20
-0.028668577888298588
10
-0.031749999999999994
20
-0.045597466006895598
42
0.19764620635099203
0
LWPOLYLINE
5
101
100
AcDbEntity
8
0
100
AcDbPolyline
90
7
70
1
43
0.0
10
-0.00487083662301303
20
-0.037208211410203598
10
0.0087043978273868578
20
-0.0385082811117173
10
0.0073062526062130911
20
-0.0447999387979508
10
-0.0025806348035186102
20
-0.042602854170405699
10
-0.0025806348035186102
20
-0.045798614621162401
10
-0.022401928901672301
20
-0.039818875491619103
10
-0.0048708366230130196
20
-0.0398188754916192
0
LWPOLYLINE
5
102
100
AcDbEntity
8
0
100
AcDbPolyline
90
36
70
1
43
0.0
10
0.018992644879090997
20
0.0058494076193013767
42
0.11289322556935602
10
0.014562058034950641
20
0.013523409140698543
42
-0.32918011916200046
10
0.014272839760046001
20
0.0160852836326889
10
0.014534497693541204
20
0.016538488467706097
42
0.9999999925494194
10
0.0070555023064588201
20
0.020856488467706099
10
0.0067938443729636082
20
0.020403283632688996
42
-0.32918011916201245
10
0.0044305868441402718
20
0.019372816759999877
42
0.11289322556935576
10
-0.0044305868441402718
20
0.019372816759999866
42
-0.32918011916201689
10
-0.0067938443729636498
20
0.020403283632689
10
-0.0070555023064587941
20
0.020856488467706095
42
0.99999999999999989
10
-0.014534497693541201
20
0.0165384884677061
10
-0.01427283976004607
20
0.016085283632688862
42
-0.3291801191620099
10
-0.01456205803495075
20
0.013523409140698547
42
0.11289322556935485
10
-0.018992644879090987
20
0.0058494076193013967
42
-0.32918011916201267
10
-0.021066684133009699
20
0.0043179999999999998
10
-0.021590000000000002
20
0.0043180000000000371
42
0.99999999999999989
10
-0.021590000000000002
20
-0.0043179999999999304
10
-0.021066684133009699
20
-0.004317999999999953
42
-0.32918011916200318
10
-0.018992644879090966
20
-0.0058494076193013117
42
0.11289322556935569
10
-0.014562058034950689
20
-0.013523409140698491
42
-0.32918011916200979
10
-0.014272839760046001
20
-0.0160852836326889
10
-0.014534497693541204
20
-0.016538488467705996
42
0.99999999999999989
10
-0.0070555023064587897
20
-0.020856488467705998
10
-0.0067938443729635136
20
-0.020403283632688975
42
-0.3291801191620039
10
-0.0044305868441402744
20
-0.019372816759999929
42
0.11289322556935596
10
0.0044305868441402883
20
-0.019372816759999838
42
-0.32918011916200085
10
0.0067938443729636203
20
-0.020403283632688899
10
0.0070555023064587941
20
-0.020856488467705998
42
0.99999999999999989
10
0.014534497693541201
20
-0.016538488467705999
10
0.014272839760046136
20
-0.016085283632688824
42
-0.32918011916201168
10
0.014562058034950719
20
-0.013523409140698515
42
0.11289322556935556
10
0.018992644879091008
20
-0.0058494076193013333
42
-0.32918011916200429
10
0.021066684133009699
20
-0.0043179999999999998
10
0.021590000000000002
20
-0.0043179999999999738
42
0.99999999999999989
10
0.021590000000000002
20
0.0043179999999999998
10
0.021066684133009699
20
0.0043180000000000033
42
-0.32918011916200995
0
LWPOLYLINE
5
103
100
AcDbEntity
8
0
100
AcDbPolyline
90
10
70
1
43
0.0
10
0.0095250000000000005
20
-0.054739983387374201
10
0.029704192025939605
20
-0.015134394019454701
42
0.290835520993319
10
0.026318159429219057
20
0.020463220433456022
42
-0.32948358448647774
10
0.025399999999999995
20
0.058198711325939206
42
0.09263978125525453
10
0.0026670000000000283
20
0.063443968279104521
10
-0.013610837388373322
20
0.031495546232624509
42
-0.15416690163180577
10
-0.015622506718069128
20
0.029450402205978256
42
0.49934032919731691
10
-0.023947110120950077
20
-0.023193206399829483
42
-0.32050072075307917
10
-0.023124669848808718
20
-0.028668577888298588
10
-0.03175
20
-0.045597466006895598
42
0.19764620635099195
0
LWPOLYLINE
5
104
100
AcDbEntity
8
0
100
AcDbPolyline
90
7
70
1
43
0.0
10
-0.00487083662301303
20
-0.037208211410203598
10
0.0087043978273868578
20
-0.0385082811117173
10
0.0073062526062130911
20
-0.0447999387979508
10
-0.0025806348035186102
20
-0.042602854170405699
10
-0.0025806348035186102
20
-0.045798614621162401
10
-0.022401928901672301
20
-0.039818875491619103
10
-0.0048708366230130196
20
-0.0398188754916192
0
LWPOLYLINE
5
105
100
AcDbEntity
8
0
100
AcDbPolyline
90
36
70
1
43
0.0
10
0.018992644879091001
20
0.005849407619301375
42
0.11289322556935634
10
0.014562058034950641
20
0.01352340914069854
42
-0.32918011916200085
10
0.014272839760046001
20
0.0160852836326889
10
0.014534497693541204
20
0.016538488467706097
42
0.9999999925494194
10
0.0070555023064588201
20
0.020856488467706099
10
0.0067938443729636091
20
0.020403283632688993
42
-0.32918011916201217
10
0.0044305868441402753
20
0.01937281675999988
42
0.11289322556935602
10
-0.004430586844140271
20
0.019372816759999866
42
-0.32918011916201767
10
-0.0067938443729636498
20
0.020403283632689
10
-0.0070555023064587941
20
0.020856488467706095
42
0.99999999999999989
10
-0.014534497693541201
20
0.0165384884677061
10
-0.014272839760046068
20
0.016085283632688862
42
-0.32918011916200968
10
-0.014562058034950745
20
0.013523409140698548
42
0.11289322556935512
10
-0.018992644879090987
20
0.0058494076193013967
42
-0.32918011916201279
10
-0.021066684133009699
20
0.0043179999999999998
10
-0.021590000000000002
20
0.0043180000000000371
42
0.99999999999999989
10
-0.021590000000000002
20
-0.0043179999999999304
10
-0.021066684133009699
20
-0.0043179999999999521
42
-0.32918011916200163
10
-0.018992644879090966
20
-0.0058494076193013091
42
0.11289322556935569
10
-0.014562058034950687
20
-0.013523409140698488
42
-0.3291801191620109
10
-0.014272839760046001
20
-0.0160852836326889
10
-0.014534497693541204
20
-0.016538488467705996
42
0.99999999999999989
10
-0.0070555023064587897
20
-0.020856488467705998
10
-0.0067938443729635136
20
-0.020403283632688975
42
-0.32918011916200285
10
-0.0044305868441402779
20
-0.019372816759999929
42
0.11289322556935646
10
0.0044305868441402883
20
-0.019372816759999838
42
-0.32918011916200085
10
0.0067938443729636203
20
-0.020403283632688899
10
0.0070555023064587941
20
-0.020856488467705998
42
0.99999999999999989
10
0.014534497693541201
20
-0.016538488467705999
10
0.01427283976004614
20
-0.01608528363268882
42
-0.32918011916201034
10
0.014562058034950719
20
-0.013523409140698519
42
0.11289322556935576
10
0.018992644879091008
20
-0.0058494076193013325
42
-0.32918011916200429
10
0.021066684133009699
20
-0.0043179999999999998
10
0.021590000000000002
20
-0.0043179999999999738
42
0.99999999999999989
10
0.021590000000000002
20
0.0043179999999999998
10
0.021066684133009699
20
0.0043180000000000015
42
-0.32918011916200973
0
ENDSEC
0
SECTION
2
OBJECTS
0
DICTIONARY
5
C
100
AcDbDictionary
3
ACAD_GROUP
350
D
3
ACAD_MLINESTYLE
350
17
0
DICTIONARY
5
D
100
AcDbDictionary
0
DICTIONARY
5
1A
330
C
100
AcDbDictionary
0
DICTIONARY
5
17
100
AcDbDictionary
0
ENDSEC
0
EOF
