0
SECTION
2
HEADER
9
$INSUNITS
70
1
9
$ACADVER
1
AC1014
9
$HANDSEED
5
FFFF
0
ENDSEC
0
SECTION
2
TABLES
0
TABLE
2
VPORT
5
8
100
AcDbSymbolTable
0
ENDTAB
0
TABLE
2
LTYPE
5
5
100
AcDbSymbolTable
0
LTYPE
5
14
100
AcDbSymbolTableRecord
100
AcDbLinetypeTableRecord
2
BYBLOCK
70
0
0
LTYPE
5
15
100
AcDbSymbolTableRecord
100
AcDbLinetypeTableRecord
2
BYLAYER
70
0
0
ENDTAB
0
TABLE
2
LAYER
5
2
100
AcDbSymbolTable
70
2
0
LAYER
5
50
100
AcDbSymbolTableRecord
100
AcDbLayerTableRecord
2
0
70
0
6
CONTINUOUS
0
ENDTAB
0
TABLE
2
STYLE
5
3
100
AcDbSymbolTable
70
1
0
STYLE
5
11
100
AcDbSymbolTableRecord
100
AcDbTextStyleTableRecord
2
STANDARD
70
0
0
ENDTAB
0
TABLE
2
VIEW
5
6
100
AcDbSymbolTable
70
0
0
ENDTAB
0
TABLE
2
UCS
5
7
100
AcDbSymbolTable
70
0
0
ENDTAB
0
TABLE
2
APPID
5
9
100
AcDbSymbolTable
70
2
0
APPID
5
12
100
AcDbSymbolTableRecord
100
AcDbRegAppTableRecord
2
ACAD
70
0
0
ENDTAB
0
TABLE
2
DIMSTYLE
5
A
100
AcDbSymbolTable
70
1
0
ENDTAB
0
TABLE
2
BLOCK_RECORD
5
1
100
AcDbSymbolTable
70
1
0
BLOCK_RECORD
5
1F
100
AcDbSymbolTableRecord
100
AcDbBlockTableRecord
2
*MODEL_SPACE
0
BLOCK_RECORD
5
1B
100
AcDbSymbolTableRecord
100
AcDbBlockTableRecord
2
*PAPER_SPACE
0
ENDTAB
0
ENDSEC
0
SECTION
2
BLOCKS
0
BLOCK
5
20
100
AcDbEntity
100
AcDbBlockBegin
2
*MODEL_SPACE
0
ENDBLK
5
21
100
AcDbEntity
100
AcDbBlockEnd
0
BLOCK
5
1C
100
AcDbEntity
100
AcDbBlockBegin
2
*PAPER_SPACE
0
ENDBLK
5
1D
100
AcDbEntity
100
AcDbBlockEnd
0
ENDSEC
0
SECTION
2
ENTITIES
0
CIRCLE
5
100
100
AcDbEntity
8
0
100
AcDbCircle
10
0.98117714564254488
20
1.3593750598393122
30
0
40
0.099750000000000186
210
2.3509887016446497e-38
220
-1.2487291765017888e-37
230
1
0
CIRCLE
5
101
100
AcDbEntity
8
0
100
AcDbCircle
10
2.9811771484585066
20
2.4843750598393153
30
0
40
0.099749999999999492
210
2.1666731336233241e-38
220
-1.6543612251061806e-24
230
1
0
CIRCLE
5
102
100
AcDbEntity
8
0
100
AcDbCircle
10
2.9811771484585123
20
0.79687505983931906
30
0
40
0.099749999999999492
210
2.1666731336233241e-38
220
-1.6543612251061806e-24
230
1
0
CIRCLE
5
103
100
AcDbEntity
8
0
100
AcDbCircle
10
2.9811771484585083
20
1.9218750598393171
30
0
40
0.099749999999999492
210
2.1666731336233241e-38
220
-1.6543612251061806e-24
230
1
0
CIRCLE
5
104
100
AcDbEntity
8
0
100
AcDbCircle
10
2.9811771484585106
20
1.3593750598393179
30
0
40
0.099749999999999492
210
2.1666731336233241e-38
220
-1.6543612251061806e-24
230
1
0
CIRCLE
5
105
100
AcDbEntity
8
0
100
AcDbCircle
10
0.98117714564254321
20
1.9218750598393106
30
0
40
0.099750000000000186
210
2.3509887016446497e-38
220
-1.2487291765017888e-37
230
1
0
CIRCLE
5
106
100
AcDbEntity
8
0
100
AcDbCircle
10
0.98117714564254654
20
0.79687505983931306
30
0
40
0.099750000000000186
210
2.3509887016446497e-38
220
-1.2487291765017888e-37
230
1
0
CIRCLE
5
107
100
AcDbEntity
8
0
100
AcDbCircle
10
0.98117714564254144
20
2.4843750598393091
30
0
40
0.099750000000000186
210
2.3509887016446497e-38
220
-1.2487291765017888e-37
230
1
0
SPLINE
5
108
100
AcDbEntity
8
0
100
AcDbSpline
70
0
71
3
72
14
73
10
74
0
42
0.000000001
43
0.0000000001
44
0.0000000001
40
-0.16667201186971642
40
-0.16667201186971642
40
-0.16667201186971642
40
-0.16667201186971642
40
-0.11434341100994547
40
-0.11434341100994547
40
-0.11434341100994547
40
-0.062014810150175452
40
-0.062014810150175452
40
-0.062014810150175452
40
0
40
0
40
0
40
0
10
0.65193039358736049
20
1.7600000000000029
30
0
10
0.64616188640596839
20
1.7600000000000029
30
0
10
0.64043261962551368
20
1.7609507335743391
30
0
10
0.63497329533690605
20
1.7628139172511641
30
0
10
0.62951397104829776
20
1.7646771009279885
30
0
10
0.62439886360613028
20
1.7674273860088612
30
0
10
0.61983394456441665
20
1.7709540259457381
30
1.7483827159451283e-16
10
0.61442404284582497
20
1.7751334594211239
30
0
10
0.6098821990308112
20
1.7803296093384855
30
0
10
0.60646405988867602
20
1.7862500000000043
30
0
0
LINE
5
109
100
AcDbEntity
8
0
100
AcDbLine
10
0.65193039358736049
20
1.7600000000000029
30
0
11
0.68542404264124368
21
1.7600000000000029
31
0
0
SPLINE
5
110
100
AcDbEntity
8
0
100
AcDbSpline
70
0
71
3
72
14
73
10
74
0
42
0.000000001
43
0.0000000001
44
0.0000000001
40
-0.16667201186971836
40
-0.16667201186971836
40
-0.16667201186971836
40
-0.16667201186971836
40
-0.11434341100994602
40
-0.11434341100994602
40
-0.11434341100994602
40
-0.062014810150174522
40
-0.062014810150174522
40
-0.062014810150174522
40
0
40
0
40
0
40
0
10
0.73089037633992793
20
1.7862500000000054
30
0
10
0.72800612274923227
20
1.7812543262390068
30
0
10
0.7243181299313991
20
1.7767680024492423
30
0
10
0.71997490339104775
20
1.7729716807662224
30
0
10
0.71563167685069751
20
1.7691753590832031
30
0
10
0.71069230638192871
20
1.7661206886356349
30
0
10
0.70535568708573582
20
1.76393067274773
30
0
10
0.69903124066332878
20
1.7613352771651456
30
0
10
0.6922603209255147
20
1.7600000000000029
30
0
10
0.68542404264124368
20
1.7600000000000029
30
0
0
ARC
5
111
100
AcDbEntity
8
0
100
AcDbCircle
10
0.79367721811430203
20
1.7500000000000102
30
0
40
0.072499999999999828
210
-5.8847028851753824e-25
220
-4.2737154754747822e-25
230
1
100
AcDbArc
50
-60.000036867113174
51
150.00000000000418
0
ARC
5
112
100
AcDbEntity
8
0
100
AcDbCircle
10
0.85617714845851189
20
1.6417467843111948
30
1.748382715945127e-16
40
0.052500000000001122
210
-1.6651245411357922e-15
220
2.8840845902417209e-15
230
1
100
AcDbArc
50
119.99996313288655
51
180
0
LINE
5
113
100
AcDbEntity
8
0
100
AcDbLine
10
0.80367714845851135
20
1.6417467843111948
30
1.7483827159451283e-16
11
0.80367714845851257
21
1.3582532156888265
31
1.7483827159451283e-16
0
ARC
5
114
100
AcDbEntity
8
0
100
AcDbCircle
10
0.85617714845851045
20
1.358253215688825
30
-1.6722014556327139e-40
40
0.05249999999999793
210
3.3302527922765661e-15
220
-8.4107731832108638e-25
230
1
100
AcDbArc
50
180
51
240.00003686711628
0
ARC
5
115
100
AcDbEntity
8
0
100
AcDbCircle
10
0.79367721811430636
20
1.2500000000000095
30
0
40
0.072500000000000175
210
9.5506936726524736e-25
220
5.9173078657712538e-25
230
1
100
AcDbArc
50
-149.99999999999616
51
60.000036867115078
0
SPLINE
5
116
100
AcDbEntity
8
0
100
AcDbSpline
70
0
71
3
72
14
73
10
74
0
42
0.000000001
43
0.0000000001
44
0.0000000001
40
-0.16667201186969732
40
-0.16667201186969732
40
-0.16667201186969732
40
-0.16667201186969732
40
-0.11434341100993585
40
-0.11434341100993585
40
-0.11434341100993585
40
-0.062014810150174092
40
-0.062014810150174092
40
-0.062014810150174092
40
0
40
0
40
0
40
0
10
0.68542404264125611
20
1.2400000000000015
30
0
10
0.69119254982264711
20
1.2400000000000015
30
0
10
0.69692181660310082
20
1.2390492664256656
30
0
10
0.70238114089170778
20
1.237186082748841
30
0
10
0.70784046518031463
20
1.2353228990720166
30
0
10
0.71295557262248177
20
1.2325726139911453
30
0
10
0.71752049166419496
20
1.2290459740542692
30
0
10
0.72293039338278742
20
1.2248665405788839
30
0
10
0.72747223719780107
20
1.2196703906615234
30
0
10
0.73089037633993659
20
1.2137500000000052
30
0
0
LINE
5
117
100
AcDbEntity
8
0
100
AcDbLine
10
0.68542404264125611
20
1.2400000000000015
30
0
11
0.65193039358735749
21
1.2400000000000013
31
0
0
SPLINE
5
118
100
AcDbEntity
8
0
100
AcDbSpline
70
0
71
3
72
14
73
10
74
0
42
0.000000001
43
0.0000000001
44
0.0000000001
40
-0.16667201186969946
40
-0.16667201186969946
40
-0.16667201186969946
40
-0.16667201186969946
40
-0.11434341100993695
40
-0.11434341100993695
40
-0.11434341100993695
40
-0.062014810150174689
40
-0.062014810150174689
40
-0.062014810150174689
40
0
40
0
40
0
40
0
10
0.60646405988867624
20
1.2137500000000039
30
0
10
0.60934831347937168
20
1.218745673761001
30
0
10
0.61303630629720485
20
1.2232319975507642
30
0
10
0.61737953283755509
20
1.227028319233783
30
0
10
0.62172275937790533
20
1.2308246409168018
30
0
10
0.62666212984667347
20
1.2338793113643691
30
0
10
0.63199874914286502
20
1.2360693272522736
30
0
10
0.63832319556527206
20
1.2386647228348584
30
0
10
0.64509411530308647
20
1.2400000000000013
30
0
10
0.65193039358735749
20
1.2400000000000013
30
0
0
ARC
5
119
100
AcDbEntity
8
0
100
AcDbCircle
10
0.54367721811430647
20
1.2500000000000067
30
0
40
0.072499999999999856
210
2.3871032403550835e-25
220
1.005347300435211e-24
230
1
100
AcDbArc
50
120.00003686712886
51
329.99999999999727
0
ARC
5
120
100
AcDbEntity
8
0
100
AcDbCircle
10
0.48117714845851134
20
1.3582531352572405
30
8.1694756725335848e-53
40
0.052500000000000942
210
5.1875581186835033e-25
220
-8.9851008769969695e-25
230
1
100
AcDbArc
50
300.0000368671295
51
360
0
LINE
5
121
100
AcDbEntity
8
0
100
AcDbLine
10
0.533677148458512
20
1.3582531352572402
30
-9.2570180127255566e-40
11
0.53367714845851111
21
1.6417468647427715
31
-3.4670784694162624e-62
0
ARC
5
122
100
AcDbEntity
8
0
100
AcDbCircle
10
0.48117714845850967
20
1.6417468647427713
30
5.8301077777464892e-40
40
0.052500000000001427
210
1.9460743833410427e-38
220
-1.2545258812006976e-24
230
1
100
AcDbArc
50
0
51
59.999963132871628
0
ARC
5
123
100
AcDbEntity
8
0
100
AcDbCircle
10
0.54367721811430181
20
1.750000000000008
30
0
40
0.072500000000000245
210
-3.321755357267242e-25
220
5.7534339206293931e-25
230
1
100
AcDbArc
50
29.999999999996543
51
239.99996313287352
0
CIRCLE
5
124
100
AcDbEntity
8
0
100
AcDbCircle
10
1.088859576458554
20
-1.1150000319142968
30
0
40
0.10000000000000017
210
1.7632415262335062e-38
220
-1.2487291765017898e-37
230
1
0
CIRCLE
5
125
100
AcDbEntity
8
0
100
AcDbCircle
10
-2.4815052795415142
20
-1.1150000319143076
30
0
40
0.10000000000000017
210
4.9253681427554569e-68
220
1.2487291765017909e-37
230
1
0
ARC
5
126
100
AcDbEntity
8
0
100
AcDbCircle
10
-2.1863229211972723
20
4.4288041252821833
30
-6.8695843582749324e-40
40
0.072499999999999856
210
2.3871032403554366e-25
220
1.005347300436294e-24
230
1
100
AcDbArc
50
119.99996313289461
51
329.99999999999591
0
ARC
5
127
100
AcDbEntity
8
0
100
AcDbCircle
10
-2.2488228515414965
20
4.5370573409709882
30
0
40
0.052499999999999554
210
2.6247139715687828e-25
220
-1.0464771994012677e-24
230
1
100
AcDbArc
50
-60.000036867104974
51
0
0
LINE
5
128
100
AcDbEntity
8
0
100
AcDbLine
10
-2.1963228515414972
20
4.5370573409709891
30
3.089467570956765e-26
11
-2.1963228515414981
21
4.9188041252821764
31
-1.4576159117916544e-38
0
LINE
5
129
100
AcDbEntity
8
0
100
AcDbLine
10
-2.1963228515414981
20
4.9188041252821764
30
-1.4576159117916544e-38
11
-4.5513228515414976
21
4.9188041252821675
31
0
0
LINE
5
130
100
AcDbEntity
8
0
100
AcDbLine
10
-4.5513228515414976
20
4.9188041252821675
30
0
11
-4.5513228515414967
21
4.5370573007552206
31
-1.3488009914543988e-61
0
ARC
5
131
100
AcDbEntity
8
0
100
AcDbCircle
10
-4.4988228515414956
20
4.5370573007552233
30
0
40
0.052500000000000727
210
8.8151057429573782e-38
220
-1.6543612251075967e-24
230
1
100
AcDbArc
50
180
51
239.99999999999963
0
ARC
5
132
100
AcDbEntity
8
0
100
AcDbCircle
10
-4.5613228515414965
20
4.4288041252821682
30
-3.2540136433933893e-40
40
0.072500000000000661
210
-1.3048297125064538e-24
220
1.3781241268049885e-26
230
1
100
AcDbArc
50
-149.99999999999895
51
59.999999999999794
0
SPLINE
5
133
100
AcDbEntity
8
0
100
AcDbSpline
70
0
71
3
72
14
73
10
74
0
42
0.000000001
43
0.0000000001
44
0.0000000001
40
-0.16667201186970892
40
-0.16667201186970892
40
-0.16667201186970892
40
-0.16667201186970892
40
-0.11434341100994211
40
-0.11434341100994211
40
-0.11434341100994211
40
-0.062014810150175653
40
-0.062014810150175653
40
-0.062014810150175653
40
0
40
0
40
0
40
0
10
-4.6241096933158685
20
4.3925541252821683
30
0
10
-4.6269939469065644
20
4.3975497990431665
30
0
10
-4.630681939724397
20
4.4020361228329294
30
0
10
-4.6350251662647484
20
4.4058324445159496
30
1.7483827159451283e-16
10
-4.6393683928050979
20
4.4096287661989679
30
0
10
-4.6443077632738667
20
4.4126834366465362
30
0
10
-4.6496443825700577
20
4.4148734525344402
30
0
10
-4.6559688289924654
20
4.417468848117025
30
0
10
-4.6627397487302797
20
4.4188041252821684
30
0
10
-4.6695760270145508
20
4.4188041252821684
30
0
0
LINE
5
134
100
AcDbEntity
8
0
100
AcDbLine
10
-4.6695760270145508
20
4.4188041252821675
30
0
11
-4.8013228515414967
21
4.4188041252821684
31
1.1569826287620939e-39
0
LINE
5
135
100
AcDbEntity
8
0
100
AcDbLine
10
-4.8013228515414967
20
4.4188041252821684
30
1.1569826287620939e-39
11
-4.8013228515414932
21
3.4388041252821675
31
2.82227181501414e-62
0
LINE
5
136
100
AcDbEntity
8
0
100
AcDbLine
10
-4.8013228515414932
20
3.4388041252821675
30
2.82227181501414e-62
11
-4.6695760270145472
21
3.4388041252821688
31
2.3139652575241878e-39
0
SPLINE
5
137
100
AcDbEntity
8
0
100
AcDbSpline
70
0
71
3
72
14
73
10
74
0
42
0.000000001
43
0.0000000001
44
0.0000000001
40
-0.16667201186970837
40
-0.16667201186970837
40
-0.16667201186970837
40
-0.16667201186970837
40
-0.11434341100994209
40
-0.11434341100994209
40
-0.11434341100994209
40
-0.062014810150175757
40
-0.062014810150175757
40
-0.062014810150175757
40
0
40
0
40
0
40
0
10
-4.6695760270145472
20
3.4388041252821688
30
0
10
-4.6638075198331563
20
3.4388041252821688
30
0
10
-4.6580782530527021
20
3.4397548588565057
30
0
10
-4.6526189287640936
20
3.4416180425333303
30
0
10
-4.6471596044754868
20
3.4434812262101553
30
0
10
-4.6420444970333188
20
3.4462315112910269
30
0
10
-4.6374795779916065
20
3.4497581512279027
30
0
10
-4.632069676273014
20
3.4539375847032887
30
0
10
-4.627527832458
20
3.4591337346206497
30
0
10
-4.624109693315865
20
3.4650541252821689
30
0
0
ARC
5
138
100
AcDbEntity
8
0
100
AcDbCircle
10
-4.5613228515414939
20
3.4288041252821682
30
2.485704866481061e-41
40
0.072500000000000217
210
-5.8847028851756313e-25
220
-4.2737154754429575e-25
230
1
100
AcDbArc
50
-60.000000000000341
51
149.9999999999992
0
ARC
5
139
100
AcDbEntity
8
0
100
AcDbCircle
10
-4.4988228515414912
20
3.3205509498091126
30
0
40
0.052500000000001719
210
4.076710468211053e-25
220
3.5636536832298118e-25
230
1
100
AcDbArc
50
120.00000000000256
51
180
0
LINE
5
140
100
AcDbEntity
8
0
100
AcDbLine
10
-4.5513228515414932
20
3.3205509498091135
30
9.356814393032123e-26
11
-4.5513228515414923
21
3.0370573007552237
31
-6.5132331697088788e-25
0
ARC
5
141
100
AcDbEntity
8
0
100
AcDbCircle
10
-4.4988228515414894
20
3.0370573007552246
30
0
40
0.052500000000002822
210
-1.2406158418492435e-23
220
-1.5112265749151491e-36
230
1
100
AcDbArc
50
180
51
239.99999999999812
0
ARC
5
142
100
AcDbEntity
8
0
100
AcDbCircle
10
-4.5613228515414912
20
2.9288041252821682
30
4.7454365632820255e-40
40
0.072500000000000564
210
9.5506974802435886e-25
220
-5.9175699415634033e-25
230
1
100
AcDbArc
50
-150.00000000000051
51
60.000000000000746
0
SPLINE
5
143
100
AcDbEntity
8
0
100
AcDbSpline
70
0
71
3
72
14
73
10
74
0
42
0.000000001
43
0.0000000001
44
0.0000000001
40
-0.16667201186970959
40
-0.16667201186970959
40
-0.16667201186970959
40
-0.16667201186970959
40
-0.11434341100994289
40
-0.11434341100994289
40
-0.11434341100994289
40
-0.06201481015017344
40
-0.06201481015017344
40
-0.06201481015017344
40
0
40
0
40
0
40
0
10
-4.6241096933158632
20
2.8925541252821683
30
0
10
-4.62699394690656
20
2.8975497990431669
30
1.7483827159451283e-16
10
-4.6306819397243917
20
2.9020361228329299
30
0
10
-4.635025166264743
20
2.9058324445159491
30
0
10
-4.6393683928050926
20
2.9096287661989684
30
0
10
-4.6443077632738623
20
2.9126834366465362
30
0
10
-4.6496443825700551
20
2.9148734525344411
30
0
10
-4.6559688289924619
20
2.9174688481170259
30
0
10
-4.6627397487302762
20
2.9188041252821688
30
0
10
-4.6695760270145472
20
2.9188041252821688
30
0
0
LINE
5
144
100
AcDbEntity
8
0
100
AcDbLine
10
-4.6695760270145472
20
2.9188041252821688
30
0
11
-4.8013228515414923
21
2.9188041252821675
31
-1.1569826287620939e-39
0
LINE
5
145
100
AcDbEntity
8
0
100
AcDbLine
10
-4.8013228515414923
20
2.9188041252821675
30
-1.1569826287620939e-39
11
-4.8013228515414896
21
1.7599999999999842
31
2.9152318235833089e-38
0
LINE
5
146
100
AcDbEntity
8
0
100
AcDbLine
10
-4.8013228515414896
20
1.7599999999999842
30
2.9152318235833089e-38
11
-4.669576027014541
21
1.7599999999999871
31
0
0
SPLINE
5
147
100
AcDbEntity
8
0
100
AcDbSpline
70
0
71
3
72
14
73
10
74
0
42
0.000000001
43
0.0000000001
44
0.0000000001
40
-0.16667201186970648
40
-0.16667201186970648
40
-0.16667201186970648
40
-0.16667201186970648
40
-0.1143434110099403
40
-0.1143434110099403
40
-0.1143434110099403
40
-0.062014810150175258
40
-0.062014810150175258
40
-0.062014810150175258
40
0
40
0
40
0
40
0
10
-4.669576027014541
20
1.7599999999999871
30
0
10
-4.6638075198331501
20
1.7599999999999871
30
0
10
-4.6580782530526967
20
1.7609507335743233
30
0
10
-4.6526189287640882
20
1.7628139172511483
30
0
10
-4.6471596044754815
20
1.7646771009279725
30
0
10
-4.6420444970333143
20
1.7674273860088447
30
0
10
-4.6374795779916012
20
1.7709540259457208
30
1.7483827159451283e-16
10
-4.6320696762730087
20
1.7751334594211068
30
0
10
-4.6275278324579956
20
1.7803296093384673
30
0
10
-4.6241096933158596
20
1.7862499999999861
30
0
0
ARC
5
148
100
AcDbEntity
8
0
100
AcDbCircle
10
-4.5613228515414876
20
1.7499999999999862
30
-9.0389267872038586e-42
40
0.072499999999999662
210
9.550697480243607e-25
220
5.9175699415683027e-25
230
1
100
AcDbArc
50
-59.999999999999879
51
150.00000000000017
0
ARC
5
149
100
AcDbEntity
8
0
100
AcDbCircle
10
-4.4988228515414885
20
1.6417468245269318
30
0
40
0.052499999999999623
210
4.8419043892575103e-25
220
2.2382989343554002e-25
230
1
100
AcDbArc
50
119.99999999999919
51
180
0
LINE
5
150
100
AcDbEntity
8
0
100
AcDbLine
10
-4.5513228515414879
20
1.6417468245269315
30
6.71417961224522e-27
11
-4.551322851541487
21
1.3582531754730409
31
1.5661842842363974e-61
0
ARC
5
151
100
AcDbEntity
8
0
100
AcDbCircle
10
-4.4988228515414868
20
1.3582531754730407
30
0
40
0.052500000000000727
210
-5.5094410893432756e-39
220
-1.6543612251060697e-24
230
1
100
AcDbArc
50
180
51
239.99999999999937
0
ARC
5
152
100
AcDbEntity
8
0
100
AcDbCircle
10
-4.5613228515414868
20
1.2499999999999858
30
-9.0389267872038586e-42
40
0.072500000000000231
210
1.2788913547133796e-25
220
8.4096185382162757e-25
230
1
100
AcDbArc
50
-149.99999999999986
51
60.00000000000049
0
SPLINE
5
153
100
AcDbEntity
8
0
100
AcDbSpline
70
0
71
3
72
14
73
10
74
0
42
0.000000001
43
0.0000000001
44
0.0000000001
40
-0.16667201186970923
40
-0.16667201186970923
40
-0.16667201186970923
40
-0.16667201186970923
40
-0.11434341100994244
40
-0.11434341100994244
40
-0.11434341100994244
40
-0.062014810150175709
40
-0.062014810150175709
40
-0.062014810150175709
40
0
40
0
40
0
40
0
10
-4.6241096933158587
20
1.2137499999999857
30
0
10
-4.6269939469065546
20
1.2187456737609843
30
0
10
-4.6306819397243872
20
1.223231997550748
30
0
10
-4.6350251662647368
20
1.2270283192337665
30
0
10
-4.6393683928050882
20
1.2308246409167856
30
0
10
-4.644307763273857
20
1.2338793113643534
30
0
10
-4.649644382570048
20
1.236069327252258
30
0
10
-4.6559688289924557
20
1.2386647228348429
30
0
10
-4.66273974873027
20
1.2399999999999858
30
0
10
-4.669576027014541
20
1.2399999999999858
30
0
0
LINE
5
154
100
AcDbEntity
8
0
100
AcDbLine
10
-4.669576027014541
20
1.2399999999999858
30
0
11
-4.801322851541487
21
1.2399999999999849
31
0
0
LINE
5
155
100
AcDbEntity
8
0
100
AcDbLine
10
-4.801322851541487
20
1.2399999999999849
30
0
11
-4.8013228515414834
21
0.25999999999998513
31
2.8222758893077935e-62
0
LINE
5
156
100
AcDbEntity
8
0
100
AcDbLine
10
-4.8013228515414834
20
0.25999999999998513
30
2.8222758893077935e-62
11
-4.6695760270145383
21
0.25999999999998585
31
0
0
SPLINE
5
157
100
AcDbEntity
8
0
100
AcDbSpline
70
0
71
3
72
14
73
10
74
0
42
0.000000001
43
0.0000000001
44
0.0000000001
40
-0.16667201186970884
40
-0.16667201186970884
40
-0.16667201186970884
40
-0.16667201186970884
40
-0.11434341100994275
40
-0.11434341100994275
40
-0.11434341100994275
40
-0.062014810150175452
40
-0.062014810150175452
40
-0.062014810150175452
40
0
40
0
40
0
40
0
10
-4.6695760270145383
20
0.25999999999998585
30
0
10
-4.6638075198331475
20
0.25999999999998585
30
0
10
-4.6580782530526932
20
0.26095073357432208
30
0
10
-4.6526189287640856
20
0.26281391725114683
30
0
10
-4.6471596044754779
20
0.26467710092797175
30
0
10
-4.6420444970333099
20
0.26742738600884397
30
0
10
-4.6374795779915976
20
0.27095402594572043
30
0
10
-4.6320696762730051
20
0.27513345942110629
30
0
10
-4.6275278324579912
20
0.28032960933846707
30
0
10
-4.6241096933158552
20
0.28624999999998585
30
0
0
ARC
5
158
100
AcDbEntity
8
0
100
AcDbCircle
10
-4.5613228515414832
20
0.24999999999998634
30
-3.6155707148815435e-41
40
0.072499999999999301
210
1.2788913547133683e-25
220
8.4096185382132506e-25
230
1
100
AcDbArc
50
-60.00000000000054
51
150.00000000000043
0
ARC
5
159
100
AcDbEntity
8
0
100
AcDbCircle
10
-4.4988228515414841
20
0.1417468245269321
30
0
40
0.052499999999999741
210
-5.1393713954550668e-25
220
-1.3560848784291068e-24
230
1
100
AcDbArc
50
120.00000000000028
51
180
0
LINE
5
160
100
AcDbEntity
8
0
100
AcDbLine
10
-4.5513228515414843
20
0.14174682452693188
30
-2.5076577747554883e-26
11
-4.5513228515414825
21
-0.24953065289344378
31
-1.5912420276986572e-61
0
ARC
5
161
100
AcDbEntity
8
0
100
AcDbCircle
10
-4.6494576191150836
20
-0.75000000000003897
30
5.8572245581081003e-38
40
0.51000000000002599
210
2.3108605201904713e-25
220
1.3849861574660055e-24
230
1
100
AcDbArc
50
70.006384344140287
51
78.905888589291578
0
LINE
5
162
100
AcDbEntity
8
0
100
AcDbLine
10
-4.4750807481336476
20
-0.27073732998833222
30
-7.0406822643488798e-25
11
-3.6178851351593639
21
-0.58262285365288191
31
-5.6047627718781448e-25
0
LINE
5
163
100
AcDbEntity
8
0
100
AcDbLine
10
-3.6178851351593639
20
-0.58262285365288191
30
-5.6047627718781448e-25
11
-2.8565052795415142
21
-1.4900000319143074
31
-4.7436581322663109e-25
0
LINE
5
164
100
AcDbEntity
8
0
100
AcDbLine
10
-2.8565052795415142
20
-1.4900000319143074
30
-4.7436581322663109e-25
11
1.4638595764585556
21
-1.4900000319142945
31
0
0
LINE
5
165
100
AcDbEntity
8
0
100
AcDbLine
10
1.4638595764585556
20
-1.4900000319142945
30
0
11
2.2252394320763997
21
-0.58262285365286448
31
-4.7436581322662181e-25
0
LINE
5
166
100
AcDbEntity
8
0
100
AcDbLine
10
2.2252394320763997
20
-0.58262285365286448
30
-4.7436581322662181e-25
11
3.0824350450506817
21
-0.27073732998830985
31
7.4217035675396127e-25
0
ARC
5
167
100
AcDbEntity
8
0
100
AcDbCircle
10
3.2568119160321136
20
-0.74999999999999034
30
0
40
0.51000000000000012
210
3.186133387705325e-25
220
3.180426087779424e-25
230
1
100
AcDbArc
50
101.09411141070855
51
109.99361565586031
0
LINE
5
168
100
AcDbEntity
8
0
100
AcDbLine
10
3.1586771484585165
20
-0.24953065289342058
30
-1.2790353082107311e-25
11
3.1586771484585152
21
0.14174682452695483
31
1.5912420276986572e-61
0
ARC
5
169
100
AcDbEntity
8
0
100
AcDbCircle
10
3.1061771484585159
20
0.141746824526955
30
-6.6436111885948359e-40
40
0.052499999999999325
210
-1.6832473336307294e-38
220
-1.2545521600976635e-24
230
1
100
AcDbArc
50
0
51
60.00000000000054
0
ARC
5
170
100
AcDbEntity
8
0
100
AcDbCircle
10
3.168677148458515
20
0.25000000000000949
30
0
40
0.072499999999999315
210
1.0658909365884851e-24
220
2.4380661484107771e-24
230
1
100
AcDbArc
50
30.000000000000043
51
240.00000000000009
0
SPLINE
5
171
100
AcDbEntity
8
0
100
AcDbSpline
70
0
71
3
72
14
73
10
74
0
42
0.000000001
43
0.0000000001
44
0.0000000001
40
-0.16667201186970884
40
-0.16667201186970884
40
-0.16667201186970884
40
-0.16667201186970884
40
-0.11434341100994275
40
-0.11434341100994275
40
-0.11434341100994275
40
-0.062014810150175452
40
-0.062014810150175452
40
-0.062014810150175452
40
0
40
0
40
0
40
0
10
3.2769303239315697
20
0.26000000000000967
30
0
10
3.2711618167501784
20
0.26000000000000961
30
0
10
3.2654325499697241
20
0.26095073357434584
30
0
10
3.2599732256811169
20
0.26281391725117054
30
0
10
3.2545139013925093
20
0.2646771009279954
30
0
10
3.2493987939503413
20
0.26742738600886762
30
0
10
3.2448338749086285
20
0.27095402594574403
30
0
10
3.2394239731900365
20
0.27513345942112982
30
0
10
3.2348821293750225
20
0.2803296093384906
30
0
10
3.231463990232887
20
0.28625000000000933
30
0
0
LINE
5
172
100
AcDbEntity
8
0
100
AcDbLine
10
3.2769303239315697
20
0.26000000000000967
30
0
11
3.4086771484585152
21
0.26000000000000978
31
-1.1569826287620939e-39
0
LINE
5
173
100
AcDbEntity
8
0
100
AcDbLine
10
3.4086771484585152
20
0.26000000000000978
30
-1.1569826287620939e-39
11
3.4086771484585121
21
1.2400000000000095
31
-2.8222758893077935e-62
0
LINE
5
174
100
AcDbEntity
8
0
100
AcDbLine
10
3.4086771484585121
20
1.2400000000000095
30
-2.8222758893077935e-62
11
3.276930323931567
21
1.2400000000000095
31
1.1569826287620939e-39
0
SPLINE
5
175
100
AcDbEntity
8
0
100
AcDbSpline
70
0
71
3
72
14
73
10
74
0
42
0.000000001
43
0.0000000001
44
0.0000000001
40
-0.16667201186970923
40
-0.16667201186970923
40
-0.16667201186970923
40
-0.16667201186970923
40
-0.11434341100994244
40
-0.11434341100994244
40
-0.11434341100994244
40
-0.062014810150175709
40
-0.062014810150175709
40
-0.062014810150175709
40
0
40
0
40
0
40
0
10
3.2314639902328839
20
1.2137500000000092
30
0
10
3.2343482438235802
20
1.2187456737610076
30
0
10
3.2380362366414128
20
1.2232319975507715
30
0
10
3.2423794631817628
20
1.2270283192337903
30
0
10
3.2467226897221133
20
1.2308246409168091
30
0
10
3.2516620601908821
20
1.2338793113643773
30
0
10
3.2569986794870736
20
1.2360693272522818
30
0
10
3.2633231259094817
20
1.2386647228348668
30
0
10
3.270094045647296
20
1.2400000000000095
30
0
10
3.276930323931567
20
1.2400000000000095
30
0
0
ARC
5
176
100
AcDbEntity
8
0
100
AcDbCircle
10
3.1686771484585115
20
1.2500000000000089
30
0
40
0.072500000000000564
210
2.3871032403544994e-25
220
1.0053473004326788e-24
230
1
100
AcDbArc
50
119.99999999999959
51
330.00000000000045
0
ARC
5
177
100
AcDbEntity
8
0
100
AcDbCircle
10
3.1061771484585106
20
1.3582531754730638
30
9.4908731265640518e-41
40
0.052499999999999887
210
-1.976038750910359e-25
220
-1.3121012736758929e-24
230
1
100
AcDbArc
50
300.00000000000142
51
360
0
LINE
5
178
100
AcDbEntity
8
0
100
AcDbLine
10
3.1586771484585117
20
1.3582531754730636
30
-1.8077853574407717e-41
11
3.1586771484585108
21
1.6417468245269546
31
-1.5661842842363974e-61
0
ARC
5
179
100
AcDbEntity
8
0
100
AcDbCircle
10
3.1061771484585123
20
1.6417468245269553
30
-1.5456564806118599e-39
40
0.052499999999998631
210
-1.6048833203284631e-38
220
1.0053473004326826e-24
230
1
100
AcDbArc
50
0
51
60.000000000000739
0
ARC
5
180
100
AcDbEntity
8
0
100
AcDbCircle
10
3.1686771484585106
20
1.7500000000000093
30
0
40
0.072499999999999704
210
1.2788913547132549e-25
220
8.4096185382095864e-25
230
1
100
AcDbArc
50
30.000000000000476
51
240.00000000000034
0
SPLINE
5
181
100
AcDbEntity
8
0
100
AcDbSpline
70
0
71
3
72
14
73
10
74
0
42
0.000000001
43
0.0000000001
44
0.0000000001
40
-0.16667201186970648
40
-0.16667201186970648
40
-0.16667201186970648
40
-0.16667201186970648
40
-0.1143434110099403
40
-0.1143434110099403
40
-0.1143434110099403
40
-0.062014810150175258
40
-0.062014810150175258
40
-0.062014810150175258
40
0
40
0
40
0
40
0
10
3.2769303239315626
20
1.7600000000000109
30
0
10
3.2711618167501713
20
1.7600000000000109
30
0
10
3.2654325499697179
20
1.7609507335743471
30
0
10
3.2599732256811098
20
1.7628139172511721
30
0
10
3.2545139013925031
20
1.7646771009279962
30
0
10
3.2493987939503359
20
1.7674273860088687
30
0
10
3.2448338749086223
20
1.7709540259457446
30
1.7483827159451283e-16
10
3.2394239731900303
20
1.7751334594211305
30
0
10
3.2348821293750167
20
1.780329609338491
30
0
10
3.2314639902328812
20
1.7862500000000099
30
0
0
LINE
5
182
100
AcDbEntity
8
0
100
AcDbLine
10
3.2769303239315626
20
1.7600000000000109
30
0
11
3.4086771484585108
21
1.7600000000000091
31
-4.6279305150483756e-39
0
LINE
5
183
100
AcDbEntity
8
0
100
AcDbLine
10
3.4086771484585108
20
1.7600000000000091
30
-4.6279305150483756e-39
11
3.4086771484585068
21
2.9188041252821919
31
2.9152318235833089e-38
0
LINE
5
184
100
AcDbEntity
8
0
100
AcDbLine
10
3.4086771484585068
20
2.9188041252821919
30
2.9152318235833089e-38
11
3.2769303239315613
21
2.9188041252821924
31
1.1569826287620939e-39
0
SPLINE
5
185
100
AcDbEntity
8
0
100
AcDbSpline
70
0
71
3
72
14
73
10
74
0
42
0.000000001
43
0.0000000001
44
0.0000000001
40
-0.16667201186970959
40
-0.16667201186970959
40
-0.16667201186970959
40
-0.16667201186970959
40
-0.11434341100994289
40
-0.11434341100994289
40
-0.11434341100994289
40
-0.06201481015017344
40
-0.06201481015017344
40
-0.06201481015017344
40
0
40
0
40
0
40
0
10
3.231463990232879
20
2.8925541252821922
30
0
10
3.2343482438235753
20
2.8975497990431904
30
1.7483827159451283e-16
10
3.2380362366414075
20
2.9020361228329539
30
0
10
3.2423794631817584
20
2.9058324445159731
30
0
10
3.2467226897221084
20
2.9096287661989924
30
0
10
3.2516620601908781
20
2.9126834366465602
30
0
10
3.2569986794870713
20
2.9148734525344651
30
0
10
3.2633231259094782
20
2.9174688481170499
30
0
10
3.2700940456472902
20
2.9188041252821924
30
0
10
3.2769303239315613
20
2.9188041252821924
30
0
0
ARC
5
186
100
AcDbEntity
8
0
100
AcDbCircle
10
3.1686771484585057
20
2.9288041252821913
30
0
40
0.072500000000000744
210
2.387103240354566e-25
220
1.0053473004328501e-24
230
1
100
AcDbArc
50
119.99999999999969
51
330.00000000000136
0
ARC
5
187
100
AcDbEntity
8
0
100
AcDbCircle
10
3.1061771484585039
20
3.0370573007552482
30
-1.5660730723196459e-51
40
0.052500000000002059
210
5.1875554889852105e-25
220
-8.9851096739915128e-25
230
1
100
AcDbArc
50
300.00000000000097
51
360
0
LINE
5
188
100
AcDbEntity
8
0
100
AcDbLine
10
3.1586771484585068
20
3.0370573007552455
30
-2.159970869635272e-39
11
3.1586771484585059
21
3.3205509498091357
31
6.5132331697088788e-25
0
ARC
5
189
100
AcDbEntity
8
0
100
AcDbCircle
10
3.1061771484585048
20
3.3205509498091352
30
4.7183197829204139e-39
40
0.052500000000001074
210
-1.2406158418492734e-23
220
-1.8600903955209861e-24
230
1
100
AcDbArc
50
0
51
59.999999999998934
0
ARC
5
190
100
AcDbEntity
8
0
100
AcDbCircle
10
3.1686771484585052
20
3.4288041252821921
30
0
40
0.072499999999999704
210
9.5506974802436621e-25
220
-5.9175699415696426e-25
230
1
100
AcDbArc
50
30.000000000000501
51
240.00000000000125
0
SPLINE
5
191
100
AcDbEntity
8
0
100
AcDbSpline
70
0
71
3
72
14
73
10
74
0
42
0.000000001
43
0.0000000001
44
0.0000000001
40
-0.16667201186970837
40
-0.16667201186970837
40
-0.16667201186970837
40
-0.16667201186970837
40
-0.11434341100994209
40
-0.11434341100994209
40
-0.11434341100994209
40
-0.062014810150175757
40
-0.062014810150175757
40
-0.062014810150175757
40
0
40
0
40
0
40
0
10
3.2769303239315595
20
3.4388041252821924
30
0
10
3.2711618167501677
20
3.4388041252821924
30
0
10
3.2654325499697139
20
3.4397548588565292
30
0
10
3.2599732256811054
20
3.4416180425333542
30
0
10
3.2545139013924986
20
3.4434812262101788
30
0
10
3.249398793950331
20
3.4462315112910504
30
0
10
3.2448338749086179
20
3.4497581512279263
30
0
10
3.2394239731900258
20
3.4539375847033127
30
0
10
3.2348821293750118
20
3.4591337346206732
30
0
10
3.2314639902328763
20
3.4650541252821925
30
0
0
LINE
5
192
100
AcDbEntity
8
0
100
AcDbLine
10
3.2769303239315595
20
3.4388041252821924
30
0
11
3.4086771484585054
21
3.4388041252821924
31
0
0
LINE
5
193
100
AcDbEntity
8
0
100
AcDbLine
10
3.4086771484585054
20
3.4388041252821924
30
0
11
3.4086771484585023
21
4.4188041252821941
31
-2.82227181501414e-62
0
LINE
5
194
100
AcDbEntity
8
0
100
AcDbLine
10
3.4086771484585023
20
4.4188041252821941
30
-2.82227181501414e-62
11
3.2769303239315573
21
4.4188041252821915
31
-3.4709478862862817e-39
0
SPLINE
5
195
100
AcDbEntity
8
0
100
AcDbSpline
70
0
71
3
72
14
73
10
74
0
42
0.000000001
43
0.0000000001
44
0.0000000001
40
-0.16667201186970892
40
-0.16667201186970892
40
-0.16667201186970892
40
-0.16667201186970892
40
-0.11434341100994211
40
-0.11434341100994211
40
-0.11434341100994211
40
-0.062014810150175653
40
-0.062014810150175653
40
-0.062014810150175653
40
0
40
0
40
0
40
0
10
3.2314639902328741
20
4.3925541252821922
30
0
10
3.2343482438235704
20
4.3975497990431904
30
0
10
3.2380362366414031
20
4.4020361228329534
30
0
10
3.2423794631817544
20
4.4058324445159727
30
1.7483827159451283e-16
10
3.2467226897221035
20
4.4096287661989919
30
0
10
3.2516620601908723
20
4.4126834366465602
30
0
10
3.2569986794870638
20
4.4148734525344642
30
0
10
3.2633231259094719
20
4.417468848117049
30
0
10
3.2700940456472862
20
4.4188041252821915
30
0
10
3.2769303239315573
20
4.4188041252821915
30
0
0
ARC
5
196
100
AcDbEntity
8
0
100
AcDbCircle
10
3.1686771484585021
20
4.4288041252821913
30
0
40
0.072500000000000564
210
2.4986097845662887e-24
220
1.6108855358579792e-24
230
1
100
AcDbArc
50
119.99999999999919
51
330.00000000000074
0
ARC
5
197
100
AcDbEntity
8
0
100
AcDbCircle
10
3.1061771484585026
20
4.5370573007552455
30
-2.4133934521834302e-39
40
0.052499999999998145
210
-6.1571360907384734e-25
220
-5.8791397127704811e-25
230
1
100
AcDbArc
50
300.00000000000097
51
360
0
LINE
5
198
100
AcDbEntity
8
0
100
AcDbLine
10
3.1586771484585019
20
4.5370573007552437
30
-5.0934352445893743e-39
11
3.158677148458501
21
4.9188041252821906
31
1.3488009914543988e-61
0
LINE
5
199
100
AcDbEntity
8
0
100
AcDbLine
10
3.158677148458501
20
4.9188041252821906
30
1.3488009914543988e-61
11
0.80367714845850136
21
4.9188041252821844
31
0
0
LINE
5
200
100
AcDbEntity
8
0
100
AcDbLine
10
0.80367714845850136
20
4.9188041252821844
30
0
11
0.80367714845850313
21
4.5370573409709971
31
-1.4576159117916544e-38
0
ARC
5
201
100
AcDbEntity
8
0
100
AcDbCircle
10
0.85617714845850212
20
4.537057340970998
30
-1.2654497502085401e-40
40
0.052499999999998978
210
-2.9099565041335688e-37
220
5.9173078658427422e-25
230
1
100
AcDbArc
50
180
51
240.00003686710519
0
ARC
5
202
100
AcDbEntity
8
0
100
AcDbCircle
10
0.79367721811427827
20
4.4288041252821913
30
0
40
0.072499999999999828
210
9.5506974802440717e-25
220
-5.9175699415973227e-25
230
1
100
AcDbArc
50
-149.99999999999591
51
60.000036867106168
0
SPLINE
5
203
100
AcDbEntity
8
0
100
AcDbSpline
70
0
71
3
72
14
73
10
74
0
42
0.000000001
43
0.0000000001
44
0.0000000001
40
-0.16667201186969796
40
-0.16667201186969796
40
-0.16667201186969796
40
-0.16667201186969796
40
-0.11434341100993634
40
-0.11434341100993634
40
-0.11434341100993634
40
-0.062014810150174807
40
-0.062014810150174807
40
-0.062014810150174807
40
0
40
0
40
0
40
0
10
0.68542404264122736
20
4.4188041252821844
30
0
10
0.6911925498226188
20
4.4188041252821844
30
0
10
0.69692181660307206
20
4.4178533917078484
30
1.7483827159451283e-16
10
0.70238114089167858
20
4.4159902080310234
30
0
10
0.70784046518028587
20
4.4141270243541983
30
0
10
0.71295557262245302
20
4.4113767392733276
30
0
10
0.7175204916641662
20
4.4078500993364518
30
0
10
0.72293039338275789
20
4.4036706658610667
30
1.7483827159451283e-16
10
0.72747223719777265
20
4.3984745159437058
30
1.7483827159451283e-16
10
0.73089037633990894
20
4.3925541252821869
30
0
0
LINE
5
204
100
AcDbEntity
8
0
100
AcDbLine
10
0.68542404264122736
20
4.4188041252821844
30
0
11
0.55367714845850313
21
4.4188041252821844
31
0
0
LINE
5
205
100
AcDbEntity
8
0
100
AcDbLine
10
0.55367714845850313
20
4.4188041252821844
30
0
11
0.55367714845850613
21
3.4388041252821835
31
-2.6052932678835515e-24
0
LINE
5
206
100
AcDbEntity
8
0
100
AcDbLine
10
0.55367714845850613
20
3.4388041252821835
30
-2.6052932678835515e-24
11
0.68542404264122847
21
3.4388041252821839
31
0
0
SPLINE
5
207
100
AcDbEntity
8
0
100
AcDbSpline
70
0
71
3
72
14
73
10
74
0
42
0.000000001
43
0.0000000001
44
0.0000000001
40
-0.16667201186971881
40
-0.16667201186971881
40
-0.16667201186971881
40
-0.16667201186971881
40
-0.11434341100994652
40
-0.11434341100994652
40
-0.11434341100994652
40
-0.062014810150175036
40
-0.062014810150175036
40
-0.062014810150175036
40
0
40
0
40
0
40
0
10
0.73089037633991272
20
3.4650541252821876
30
0
10
0.72800612274921706
20
3.460058451521189
30
0
10
0.724318129931384
20
3.4555721277314246
30
0
10
0.71997490339103265
20
3.4517758060484049
30
0
10
0.71563167685068241
20
3.4479794843653857
30
0
10
0.71069230638191361
20
3.4449248139178175
30
0
10
0.70535568708572094
20
3.4427347980299126
30
0
10
0.69903124066331357
20
3.4401394024473277
30
0
10
0.69226032092549916
20
3.4388041252821839
30
0
10
0.68542404264122847
20
3.4388041252821839
30
0
0
ARC
5
208
100
AcDbEntity
8
0
100
AcDbCircle
10
0.79367721811428749
20
3.4288041252821913
30
0
40
0.072500000000000536
210
1.2788913547138762e-25
220
-8.4096185382386174e-25
230
1
100
AcDbArc
50
-60.00003686710869
51
150.00000000000367
0
ARC
5
209
100
AcDbEntity
8
0
100
AcDbCircle
10
0.85617714845850623
20
3.3205509095933827
30
1.748382715945127e-16
40
0.052499999999999117
210
-1.6651245416307919e-15
220
2.8840845910983765e-15
230
1
100
AcDbArc
50
119.99996313289255
51
180
0
LINE
5
210
100
AcDbEntity
8
0
100
AcDbLine
10
0.80367714845850646
20
3.3205509095933818
30
1.7483827159451283e-16
11
0.8036771484585068
21
3.0370573409710029
31
1.748382709431895e-16
0
ARC
5
211
100
AcDbEntity
8
0
100
AcDbCircle
10
0.85617714845850623
20
3.0370573409710024
30
-1.8981746253128102e-39
40
0.052499999999999505
210
3.330252779870308e-15
220
-8.4103295598277021e-25
230
1
100
AcDbArc
50
180
51
240.00003686711099
0
ARC
5
212
100
AcDbEntity
8
0
100
AcDbCircle
10
0.79367721811429159
20
2.9288041252821917
30
0
40
0.072499999999999953
210
1.0658893678172699e-24
220
2.4380400121433983e-24
230
1
100
AcDbArc
50
-149.99999999999608
51
60.000036867109849
0
SPLINE
5
213
100
AcDbEntity
8
0
100
AcDbSpline
70
0
71
3
72
14
73
10
74
0
42
0.000000001
43
0.0000000001
44
0.0000000001
40
-0.16667201186969999
40
-0.16667201186969999
40
-0.16667201186969999
40
-0.16667201186969999
40
-0.11434341100993757
40
-0.11434341100993757
40
-0.11434341100993757
40
-0.062014810150174821
40
-0.062014810150174821
40
-0.062014810150174821
40
0
40
0
40
0
40
0
10
0.68542404264124057
20
2.9188041252821844
30
0
10
0.69119254982263156
20
2.9188041252821844
30
0
10
0.69692181660308494
20
2.9178533917078484
30
0
10
0.70238114089169257
20
2.9159902080310238
30
0
10
0.70784046518029942
20
2.9141270243541997
30
0
10
0.71295557262246689
20
2.9113767392733281
30
0
10
0.71752049166418008
20
2.9078500993364513
30
0
10
0.72293039338277221
20
2.9036706658610667
30
0
10
0.72747223719778631
20
2.8984745159437062
30
0
10
0.73089037633992215
20
2.8925541252821874
30
0
0
LINE
5
214
100
AcDbEntity
8
0
100
AcDbLine
10
0.68542404264124057
20
2.9188041252821844
30
0
11
0.55367714845850757
21
2.9188041252821835
31
-2.3139652575241878e-39
0
LINE
5
215
100
AcDbEntity
8
0
100
AcDbLine
10
0.55367714845850757
20
2.9188041252821835
30
-2.3139652575241878e-39
11
0.55367714845850802
21
2.7707744548401831
31
-1.0839920830528369e-61
0
ARC
5
216
100
AcDbEntity
8
0
100
AcDbCircle
10
0.29367714845850801
20
2.7707744548401818
30
0
40
0.26000000000000001
210
3.7652553424776403e-39
220
1.6543612251059867e-24
230
1
100
AcDbArc
50
-27.091248555994792
51
0
0
LINE
5
217
100
AcDbEntity
8
0
100
AcDbLine
10
0.52515056591808862
20
2.6523681331779381
30
1.9588682736544222e-25
11
0.20760388255652687
21
2.0315937102520536
31
-1.0922771769626486e-24
0
ARC
5
218
100
AcDbEntity
8
0
100
AcDbCircle
10
-0.023869534903053741
20
2.1500000319142982
30
0
40
0.26000000000000001
210
-1.2317568913841584e-24
220
-3.4573357095991527e-25
230
1
100
AcDbArc
50
270.00000000000023
51
332.90875144400508
0
LINE
5
219
100
AcDbEntity
8
0
100
AcDbLine
10
-0.023869534903052762
20
1.8900000319142982
30
-8.989072844957677e-26
11
-1.3687761681799258
21
1.890000031914294
31
1.7483827159451283e-16
0
ARC
5
220
100
AcDbEntity
8
0
100
AcDbCircle
10
-1.3687761681799266
20
2.1500000319142938
30
-9.038926787203858e-40
40
0.25999999999999973
210
2.5807830326742485e-25
220
-7.504096321369686e-25
230
1
100
AcDbArc
50
207.09124855599515
51
270.00000000000023
0
LINE
5
221
100
AcDbEntity
8
0
100
AcDbLine
10
-1.600249585639506
20
2.0315937102520487
30
-2.9114977451777271e-26
11
-1.9177962690010717
21
2.6523681331779305
31
1.5130160909209029e-24
0
ARC
5
222
100
AcDbEntity
8
0
100
AcDbCircle
10
-1.6863228515414845
20
2.7707744548401769
30
-4.3929184185810752e-39
40
0.26000000000000734
210
3.1780018243501352e-39
220
1.6543612251061226e-24
230
1
100
AcDbArc
50
180
51
207.09124855599464
0
LINE
5
223
100
AcDbEntity
8
0
100
AcDbLine
10
-1.9463228515414919
20
2.7707744548401756
30
-1.8311640011068052e-39
11
-1.9463228515414923
21
2.9188041252821755
31
1.0839920830528369e-61
0
LINE
5
224
100
AcDbEntity
8
0
100
AcDbLine
10
-1.9463228515414923
20
2.9188041252821755
30
1.0839920830528369e-61
11
-2.0780697457242252
21
2.9188041252821759
31
0
0
SPLINE
5
225
100
AcDbEntity
8
0
100
AcDbSpline
70
0
71
3
72
14
73
10
74
0
42
0.000000001
43
0.0000000001
44
0.0000000001
40
-0.16667201186969999
40
-0.16667201186969999
40
-0.16667201186969999
40
-0.16667201186969999
40
-0.11434341100993757
40
-0.11434341100993757
40
-0.11434341100993757
40
-0.062014810150174821
40
-0.062014810150174821
40
-0.062014810150174821
40
0
40
0
40
0
40
0
10
-2.0780697457242252
20
2.9188041252821759
30
0
10
-2.0838382529056161
20
2.9188041252821759
30
0
10
-2.0895675196860695
20
2.91785339170784
30
0
10
-2.0950268439746771
20
2.9159902080310154
30
0
10
-2.1004861682632843
20
2.9141270243541912
30
0
10
-2.1056012757054514
20
2.9113767392733196
30
0
10
-2.1101661947471646
20
2.9078500993364433
30
0
10
-2.1155760964657571
20
2.9036706658610583
30
0
10
-2.1201179402807711
20
2.8984745159436978
30
0
10
-2.123536079422907
20
2.8925541252821794
30
0
0
ARC
5
226
100
AcDbEntity
8
0
100
AcDbCircle
10
-2.1863229211972759
20
2.9288041252821828
30
1.1298658484004823e-40
40
0.072500000000000064
210
1.2788967659888902e-25
220
8.4098859364757167e-25
230
1
100
AcDbArc
50
119.999963132891
51
329.99999999999648
0
ARC
5
227
100
AcDbEntity
8
0
100
AcDbCircle
10
-2.248822851541493
20
3.037057340970994
30
0
40
0.052500000000000838
210
2.0244933111277471e-25
220
-9.4251577694846181e-25
230
1
100
AcDbArc
50
-60.000036867110069
51
0
0
LINE
5
228
100
AcDbEntity
8
0
100
AcDbLine
10
-2.1963228515414923
20
3.037057340970994
30
3.0894675709566284e-26
11
-2.1963228515414932
21
3.3205509095933721
31
6.5132331697090248e-25
0
ARC
5
229
100
AcDbEntity
8
0
100
AcDbCircle
10
-2.2488228515414925
20
3.320550909593373
30
1.7483827159451283e-16
40
0.052499999999999325
210
3.3302527798703191e-15
220
-1.6544055874404075e-24
230
1
100
AcDbArc
50
0
51
60.000036867108442
0
ARC
5
230
100
AcDbEntity
8
0
100
AcDbCircle
10
-2.186322921197275
20
3.4288041252821824
30
1.7173960895687331e-40
40
0.072500000000000689
210
9.5506974802432984e-25
220
-5.917569941539729e-25
230
1
100
AcDbArc
50
29.999999999996849
51
240.00003686710915
0
SPLINE
5
231
100
AcDbEntity
8
0
100
AcDbSpline
70
0
71
3
72
14
73
10
74
0
42
0.000000001
43
0.0000000001
44
0.0000000001
40
-0.16667201186971881
40
-0.16667201186971881
40
-0.16667201186971881
40
-0.16667201186971881
40
-0.11434341100994652
40
-0.11434341100994652
40
-0.11434341100994652
40
-0.062014810150175036
40
-0.062014810150175036
40
-0.062014810150175036
40
0
40
0
40
0
40
0
10
-2.1235360794229008
20
3.4650541252821792
30
0
10
-2.1206518258322054
20
3.4600584515211805
30
0
10
-2.1169638330143719
20
3.4555721277314166
30
0
10
-2.1126206064740205
20
3.4517758060483965
30
0
10
-2.1082773799336705
20
3.4479794843653773
30
0
10
-2.1033380094649017
20
3.444924813917809
30
0
10
-2.0980013901687085
20
3.4427347980299041
30
0
10
-2.0916769437463012
20
3.4401394024473193
30
0
10
-2.0849060240084869
20
3.4388041252821755
30
0
10
-2.0780697457242163
20
3.4388041252821755
30
0
0
LINE
5
232
100
AcDbEntity
8
0
100
AcDbLine
10
-2.0780697457242163
20
3.4388041252821764
30
0
11
-1.9463228515414936
21
3.4388041252821764
31
0
0
LINE
5
233
100
AcDbEntity
8
0
100
AcDbLine
10
-1.9463228515414936
20
3.4388041252821764
30
0
11
-1.9463228515414965
21
4.4188041252821773
31
2.6052932678835515e-24
0
LINE
5
234
100
AcDbEntity
8
0
100
AcDbLine
10
-1.9463228515414965
20
4.4188041252821773
30
2.6052932678835515e-24
11
-2.0780697457242212
21
4.4188041252821755
31
-1.1569826287620939e-39
0
SPLINE
5
235
100
AcDbEntity
8
0
100
AcDbSpline
70
0
71
3
72
14
73
10
74
0
42
0.000000001
43
0.0000000001
44
0.0000000001
40
-0.16667201186969796
40
-0.16667201186969796
40
-0.16667201186969796
40
-0.16667201186969796
40
-0.11434341100993634
40
-0.11434341100993634
40
-0.11434341100993634
40
-0.062014810150174807
40
-0.062014810150174807
40
-0.062014810150174807
40
0
40
0
40
0
40
0
10
-2.0780697457242212
20
4.4188041252821755
30
0
10
-2.0838382529056125
20
4.4188041252821755
30
0
10
-2.0895675196860659
20
4.4178533917078395
30
1.7483827159451283e-16
10
-2.0950268439746722
20
4.4159902080310145
30
0
10
-2.1004861682632794
20
4.4141270243541904
30
0
10
-2.1056012757054465
20
4.4113767392733187
30
0
10
-2.1101661947471597
20
4.4078500993364429
30
0
10
-2.1155760964657517
20
4.4036706658610587
30
1.7483827159451283e-16
10
-2.1201179402807662
20
4.3984745159436969
30
1.7483827159451283e-16
10
-2.1235360794229026
20
4.3925541252821789
30
0
0
SPLINE
5
236
100
AcDbEntity
8
0
100
AcDbSpline
70
0
71
3
72
14
73
10
74
0
42
0.000000001
43
0.0000000001
44
0.0000000001
40
-0.16667201186971642
40
-0.16667201186971642
40
-0.16667201186971642
40
-0.16667201186971642
40
-0.11434341100994547
40
-0.11434341100994547
40
-0.11434341100994547
40
-0.062014810150175452
40
-0.062014810150175452
40
-0.062014810150175452
40
0
40
0
40
0
40
0
10
-2.0445760966703381
20
1.7599999999999945
30
0
10
-2.0388075894889459
20
1.7599999999999949
30
0
10
-2.0330783227084912
20
1.7609507335743313
30
0
10
-2.0276189984198836
20
1.7628139172511563
30
0
10
-2.0221596741312755
20
1.7646771009279809
30
0
10
-2.0170445666891079
20
1.7674273860088536
30
0
10
-2.0124796476473943
20
1.7709540259457306
30
1.7483827159451283e-16
10
-2.0070697459288027
20
1.7751334594211163
30
0
10
-2.0025279021137892
20
1.7803296093384777
30
0
10
-1.9991097629716539
20
1.7862499999999966
30
0
0
ARC
5
237
100
AcDbEntity
8
0
100
AcDbCircle
10
-1.9363229211972792
20
1.7500000000000002
30
-6.4176380189147394e-40
40
0.072500000000000231
210
1.7822503605772491e-24
220
2.0244758421319133e-24
230
1
100
AcDbArc
50
-59.999963132873354
51
150.00000000000344
0
ARC
5
238
100
AcDbEntity
8
0
100
AcDbCircle
10
-1.8738228515414868
20
1.6417468647427642
30
0
40
0.052500000000001185
210
-3.7739161589479462e-25
220
-1.592613952961183e-24
230
1
100
AcDbArc
50
120.00003686712884
51
180
0
LINE
5
239
100
AcDbEntity
8
0
100
AcDbLine
10
-1.9263228515414881
20
1.6417468647427642
30
-2.5076529813582124e-26
11
-1.9263228515414874
21
1.3582531352572333
31
3.4670784694162624e-62
0
ARC
5
240
100
AcDbEntity
8
0
100
AcDbCircle
10
-1.8738228515414874
20
1.3582531352572331
30
0
40
0.052500000000000026
210
4.1585838334460994e-52
220
1.2487291765017911e-37
230
1
100
AcDbArc
50
180
51
239.99996313287173
0
ARC
5
241
100
AcDbEntity
8
0
100
AcDbCircle
10
-1.9363229211972812
20
1.2499999999999993
30
0
40
0.072499999999999801
210
9.5506974802438806e-25
220
-5.9175699415865761e-25
230
1
100
AcDbArc
50
-149.99999999999702
51
59.999963132871159
0
SPLINE
5
242
100
AcDbEntity
8
0
100
AcDbSpline
70
0
71
3
72
14
73
10
74
0
42
0.000000001
43
0.0000000001
44
0.0000000001
40
-0.16667201186969946
40
-0.16667201186969946
40
-0.16667201186969946
40
-0.16667201186969946
40
-0.11434341100993695
40
-0.11434341100993695
40
-0.11434341100993695
40
-0.062014810150174689
40
-0.062014810150174689
40
-0.062014810150174689
40
0
40
0
40
0
40
0
10
-1.9991097629716506
20
1.2137499999999961
30
0
10
-2.001994016562346
20
1.2187456737609932
30
0
10
-2.005682009380179
20
1.2232319975507562
30
0
10
-2.01002523592053
20
1.227028319233775
30
0
10
-2.01436846246088
20
1.2308246409167936
30
0
10
-2.0193078329296483
20
1.2338793113643611
30
0
10
-2.0246444522258398
20
1.2360693272522656
30
0
10
-2.030968898648247
20
1.2386647228348504
30
0
10
-2.0377398183860613
20
1.2399999999999933
30
0
10
-2.0445760966703324
20
1.2399999999999933
30
0
0
LINE
5
243
100
AcDbEntity
8
0
100
AcDbLine
10
-2.0445760966703324
20
1.2399999999999933
30
0
11
-2.078069745724231
21
1.2399999999999931
31
0
0
SPLINE
5
244
100
AcDbEntity
8
0
100
AcDbSpline
70
0
71
3
72
14
73
10
74
0
42
0.000000001
43
0.0000000001
44
0.0000000001
40
-0.16667201186969732
40
-0.16667201186969732
40
-0.16667201186969732
40
-0.16667201186969732
40
-0.11434341100993585
40
-0.11434341100993585
40
-0.11434341100993585
40
-0.062014810150174092
40
-0.062014810150174092
40
-0.062014810150174092
40
0
40
0
40
0
40
0
10
-2.078069745724231
20
1.2399999999999931
30
0
10
-2.0838382529056219
20
1.2399999999999931
30
0
10
-2.0895675196860757
20
1.2390492664256572
30
0
10
-2.0950268439746824
20
1.2371860827488328
30
0
10
-2.1004861682632892
20
1.2353228990720082
30
0
10
-2.1056012757054563
20
1.2325726139911368
30
0
10
-2.1101661947471695
20
1.2290459740542607
30
0
10
-2.1155760964657619
20
1.2248665405788755
30
0
10
-2.1201179402807755
20
1.2196703906615149
30
0
10
-2.123536079422911
20
1.2137499999999968
30
0
0
ARC
5
245
100
AcDbEntity
8
0
100
AcDbCircle
10
-2.1863229211972812
20
1.2500000000000004
30
1.084671214464463e-40
40
0.07250000000000037
210
2.3870967715076702e-25
220
-1.0053206319102514e-24
230
1
100
AcDbArc
50
119.99996313288477
51
329.9999999999967
0
ARC
5
246
100
AcDbEntity
8
0
100
AcDbCircle
10
-2.2488228515414868
20
1.3582532156888159
30
0
40
0.052499999999998541
210
-9.3984643218427812e-25
220
1.0360014624117878e-24
230
1
100
AcDbArc
50
-60.000036867114702
51
0
0
LINE
5
247
100
AcDbEntity
8
0
100
AcDbLine
10
-2.1963228515414879
20
1.358253215688817
30
-1.253225805041412e-26
11
-2.1963228515414883
21
1.6417467843111857
31
-1.4576159117916544e-38
0
ARC
5
248
100
AcDbEntity
8
0
100
AcDbCircle
10
-2.248822851541489
20
1.6417467843111855
30
1.7483827159451283e-16
40
0.052500000000000727
210
3.3302527922763886e-15
220
-1.6543390439391652e-24
230
1
100
AcDbArc
50
0
51
60.000036867113735
0
ARC
5
249
100
AcDbEntity
8
0
100
AcDbCircle
10
-2.1863229211972794
20
1.7500000000000011
30
-4.7906311972180451e-40
40
0.072499999999999551
210
1.7822503605772613e-24
220
-2.0244758421317425e-24
230
1
100
AcDbArc
50
29.999999999996405
51
240.00003686711327
0
SPLINE
5
250
100
AcDbEntity
8
0
100
AcDbSpline
70
0
71
3
72
14
73
10
74
0
42
0.000000001
43
0.0000000001
44
0.0000000001
40
-0.16667201186971836
40
-0.16667201186971836
40
-0.16667201186971836
40
-0.16667201186971836
40
-0.11434341100994602
40
-0.11434341100994602
40
-0.11434341100994602
40
-0.062014810150174522
40
-0.062014810150174522
40
-0.062014810150174522
40
0
40
0
40
0
40
0
10
-2.1235360794229057
20
1.786249999999997
30
0
10
-2.1206518258322102
20
1.7812543262389984
30
0
10
-2.1169638330143767
20
1.7767680024492338
30
0
10
-2.1126206064740254
20
1.7729716807662139
30
0
10
-2.1082773799336754
20
1.7691753590831947
30
0
10
-2.1033380094649066
20
1.7661206886356267
30
0
10
-2.0980013901687133
20
1.7639306727477218
30
0
10
-2.0916769437463065
20
1.7613352771651372
30
0
10
-2.0849060240084922
20
1.7599999999999945
30
0
10
-2.0780697457242212
20
1.7599999999999945
30
0
0
LINE
5
251
100
AcDbEntity
8
0
100
AcDbLine
10
-2.0780697457242212
20
1.7599999999999945
30
0
11
-2.0445760966703381
21
1.7599999999999945
31
0
0
CIRCLE
5
252
100
AcDbEntity
8
0
100
AcDbCircle
10
-2.3738228487255233
20
2.4843750598392993
30
0
40
0.099750000000000186
210
-1.9701472571021818e-67
220
1.2487291765017902e-37
230
1
0
CIRCLE
5
253
100
AcDbEntity
8
0
100
AcDbCircle
10
-2.3738228487255184
20
0.79687505983930296
30
0
40
0.099750000000000186
210
-1.9701472571021818e-67
220
1.2487291765017902e-37
230
1
0
CIRCLE
5
254
100
AcDbEntity
8
0
100
AcDbCircle
10
-2.373822848725522
20
1.9218750598393008
30
0
40
0.099750000000000186
210
-1.9701472571021818e-67
220
1.2487291765017902e-37
230
1
0
CIRCLE
5
255
100
AcDbEntity
8
0
100
AcDbCircle
10
-4.3738228515414868
20
1.359375059839296
30
0
40
0.099749999999999492
210
2.6101217871992133e-54
220
-1.6543612251059308e-24
230
1
0
CIRCLE
5
256
100
AcDbEntity
8
0
100
AcDbCircle
10
-4.3738228515414868
20
1.9218750598392949
30
0
40
0.099749999999999492
210
2.6101217871992133e-54
220
-1.6543612251059308e-24
230
1
0
CIRCLE
5
257
100
AcDbEntity
8
0
100
AcDbCircle
10
-4.3738228515414841
20
0.79687505983929696
30
0
40
0.099749999999999492
210
2.6101217871992133e-54
220
-1.6543612251059308e-24
230
1
0
CIRCLE
5
258
100
AcDbEntity
8
0
100
AcDbCircle
10
-4.3738228515414894
20
2.4843750598392931
30
0
40
0.099749999999999492
210
2.6101217871992133e-54
220
-1.6543612251059308e-24
230
1
0
CIRCLE
5
259
100
AcDbEntity
8
0
100
AcDbCircle
10
-2.3738228487255202
20
1.359375059839302
30
0
40
0.099750000000000186
210
-1.9701472571021818e-67
220
1.2487291765017902e-37
230
1
0
ENDSEC
0
SECTION
2
OBJECTS
0
DICTIONARY
5
C
100
AcDbDictionary
3
ACAD_GROUP
350
D
3
ACAD_MLINESTYLE
350
17
0
DICTIONARY
5
D
100
AcDbDictionary
0
DICTIONARY
5
1A
330
C
100
AcDbDictionary
0
DICTIONARY
5
17
100
AcDbDictionary
0
ENDSEC
0
EOF
