0
SECTION
2
HEADER
9
$INSUNITS
70
1
9
$ACADVER
1
AC1014
9
$HANDSEED
5
FFFF
0
ENDSEC
0
SECTION
2
TABLES
0
TABLE
2
VPORT
5
8
100
AcDbSymbolTable
0
ENDTAB
0
TABLE
2
LTYPE
5
5
100
AcDbSymbolTable
0
LTYPE
5
14
100
AcDbSymbolTableRecord
100
AcDbLinetypeTableRecord
2
BYBLOCK
70
0
0
LTYPE
5
15
100
AcDbSymbolTableRecord
100
AcDbLinetypeTableRecord
2
BYLAYER
70
0
0
ENDTAB
0
TABLE
2
LAYER
5
2
100
AcDbSymbolTable
70
2
0
LAYER
5
50
100
AcDbSymbolTableRecord
100
AcDbLayerTableRecord
2
0
70
0
6
CONTINUOUS
0
ENDTAB
0
TABLE
2
STYLE
5
3
100
AcDbSymbolTable
70
1
0
STYLE
5
11
100
AcDbSymbolTableRecord
100
AcDbTextStyleTableRecord
2
STANDARD
70
0
0
ENDTAB
0
TABLE
2
VIEW
5
6
100
AcDbSymbolTable
70
0
0
ENDTAB
0
TABLE
2
UCS
5
7
100
AcDbSymbolTable
70
0
0
ENDTAB
0
TABLE
2
APPID
5
9
100
AcDbSymbolTable
70
2
0
APPID
5
12
100
AcDbSymbolTableRecord
100
AcDbRegAppTableRecord
2
ACAD
70
0
0
ENDTAB
0
TABLE
2
DIMSTYLE
5
A
100
AcDbSymbolTable
70
1
0
ENDTAB
0
TABLE
2
BLOCK_RECORD
5
1
100
AcDbSymbolTable
70
1
0
BLOCK_RECORD
5
1F
100
AcDbSymbolTableRecord
100
AcDbBlockTableRecord
2
*MODEL_SPACE
0
BLOCK_RECORD
5
1B
100
AcDbSymbolTableRecord
100
AcDbBlockTableRecord
2
*PAPER_SPACE
0
ENDTAB
0
ENDSEC
0
SECTION
2
BLOCKS
0
BLOCK
5
20
100
AcDbEntity
100
AcDbBlockBegin
2
*MODEL_SPACE
0
ENDBLK
5
21
100
AcDbEntity
100
AcDbBlockEnd
0
BLOCK
5
1C
100
AcDbEntity
100
AcDbBlockBegin
2
*PAPER_SPACE
0
ENDBLK
5
1D
100
AcDbEntity
100
AcDbBlockEnd
0
ENDSEC
0
SECTION
2
ENTITIES
0
CIRCLE
5
100
100
AcDbEntity
8
0
100
AcDbCircle
10
-2.9811771484585026
20
-3.6201745849118891
30
3.4967654318902565e-16
40
0.099749999999999714
210
3.2975059744035633e-46
220
2.4152619725328976e-30
230
1
0
CIRCLE
5
101
100
AcDbEntity
8
0
100
AcDbCircle
10
-2.981177148458499
20
-2.4951745849118918
30
-3.4967654318902565e-16
40
0.099749999999999714
210
1.972152263052533e-31
220
2.4152619725328976e-30
230
1
0
CIRCLE
5
102
100
AcDbEntity
8
0
100
AcDbCircle
10
-2.9811771484585017
20
-3.0576745849118905
30
-3.4967654318902565e-16
40
0.099749999999999714
210
1.972152263052533e-31
220
2.4152619725328976e-30
230
1
0
CIRCLE
5
103
100
AcDbEntity
8
0
100
AcDbCircle
10
-2.9811771484585039
20
-4.1826745849118883
30
0
40
0.099749999999999714
210
1.972152263052533e-31
220
2.4152619725328976e-30
230
1
0
CIRCLE
5
104
100
AcDbEntity
8
0
100
AcDbCircle
10
-1.0011771484584975
20
-2.4951745849118954
30
0
40
0.099750000000000061
210
1.972152263052533e-31
220
2.4152619725328976e-30
230
1
0
CIRCLE
5
105
100
AcDbEntity
8
0
100
AcDbCircle
10
-1.0011771484585004
20
-4.1826745849118909
30
-3.4967654318902565e-16
40
0.099750000000000061
210
1.972152263052533e-31
220
2.4152619725328976e-30
230
1
0
CIRCLE
5
106
100
AcDbEntity
8
0
100
AcDbCircle
10
-1.0011771484584981
20
-3.057674584911894
30
3.4967654318902565e-16
40
0.099750000000000061
210
3.2975059744035731e-46
220
2.4152619725328976e-30
230
1
0
CIRCLE
5
107
100
AcDbEntity
8
0
100
AcDbCircle
10
-1.001177148458499
20
-3.6201745849118936
30
0
40
0.099750000000000061
210
3.2975059744035731e-46
220
2.4152619725328976e-30
230
1
0
CIRCLE
5
108
100
AcDbEntity
8
0
100
AcDbCircle
10
2.3738228515414916
20
-3.620174584911894
30
0
40
0.099750000000000061
210
-8.8210921509782891e-61
220
2.2364125519712303e-30
230
1
0
CIRCLE
5
109
100
AcDbEntity
8
0
100
AcDbCircle
10
2.3738228515414903
20
-3.057674584911894
30
0
40
0.099750000000000061
210
-8.8210921509782891e-61
220
2.2364125519712303e-30
230
1
0
CIRCLE
5
110
100
AcDbEntity
8
0
100
AcDbCircle
10
2.3738228515414925
20
-4.1826745849118918
30
-3.4967654318902565e-16
40
0.099750000000000061
210
1.9721522630525295e-31
220
2.2364125519712303e-30
230
1
0
CIRCLE
5
111
100
AcDbEntity
8
0
100
AcDbCircle
10
2.3738228515414899
20
-2.4951745849118954
30
0
40
0.099750000000000061
210
1.9721522630525295e-31
220
2.2364125519712303e-30
230
1
0
CIRCLE
5
112
100
AcDbEntity
8
0
100
AcDbCircle
10
4.3538228515414961
20
-4.1826745849118891
30
3.4967654318902565e-16
40
0.099749999999999714
210
1.9721522630525295e-31
220
2.2364125519712303e-30
230
1
0
CIRCLE
5
113
100
AcDbEntity
8
0
100
AcDbCircle
10
4.3538228515414934
20
-3.0576745849118909
30
3.4967654318902565e-16
40
0.099749999999999714
210
1.9721522630525295e-31
220
2.2364125519712303e-30
230
1
0
CIRCLE
5
114
100
AcDbEntity
8
0
100
AcDbCircle
10
4.3538228515414916
20
-2.4951745849118923
30
-3.4967654318902565e-16
40
0.099749999999999714
210
1.9721522630525295e-31
220
2.2364125519712303e-30
230
1
0
CIRCLE
5
115
100
AcDbEntity
8
0
100
AcDbCircle
10
4.3538228515414943
20
-3.6201745849118905
30
3.4967654318902565e-16
40
0.099749999999999714
210
1.9721522630525295e-31
220
2.2364125519712303e-30
230
1
0
ELLIPSE
5
116
100
AcDbEntity
8
0
100
AcDbEllipse
10
-2.6525071484584997
20
-5.5466583755104741
30
-3.4967654318902565e-16
11
-5.7435778395277515e-16
21
-0.29084179363530366
31
0.0
40
0.55470019622522726
41
0.51343204908926232
42
1.5707963267949001
0
LINE
5
117
100
AcDbEntity
8
0
100
AcDbLine
10
-2.4911771484584997
20
-5.5466583755104724
30
-3.4967654318902565e-16
11
-2.4911771484584984
21
-3.7637701691457783
31
-6.9935308637805771e-16
0
ARC
5
118
100
AcDbEntity
8
0
100
AcDbCircle
10
-2.2774071484584981
20
-3.7637701691457792
30
3.496765431890256e-16
40
0.21377000000000024
210
2.8798818581637328e-31
220
1.2712413556338684e-30
230
1
100
AcDbArc
50
89.999999999999901
51
180
0
LINE
5
119
100
AcDbEntity
8
0
100
AcDbLine
10
-2.2774071484584977
20
-3.550000169145779
30
3.4967654318902536e-16
11
-1.7049471484584986
21
-3.550000169145779
31
0
0
ARC
5
120
100
AcDbEntity
8
0
100
AcDbCircle
10
-1.704947148458499
20
-3.7637701691457779
30
-3.4967654318902575e-16
40
0.21377000000000043
210
-9.0802953973846894e-31
220
-5.5511151231255319e-17
230
1
100
AcDbArc
50
0
51
89.999999999999901
0
LINE
5
121
100
AcDbEntity
8
0
100
AcDbLine
10
-1.4911771484584986
20
-3.7637701691457783
30
-3.4967654318902555e-16
11
-1.4911771484585001
21
-5.5466583755104741
31
-5.2451481478353246e-16
0
ELLIPSE
5
122
100
AcDbEntity
8
0
100
AcDbEllipse
10
-1.3298471484585002
20
-5.5466583755104741
30
-6.9935308637805131e-16
11
-4.7601125618086156e-16
21
-0.2908417936353036
31
0.0
40
0.55470019622522737
41
4.7123889803846861
42
5.7697532580903284
0
LINE
5
123
100
AcDbEntity
8
0
100
AcDbLine
10
-1.4090875509788283
20
-5.800000169145779
30
-6.8528979175836265e-16
11
2.7817332540618214
21
-5.8000001691457808
31
-6.2115031907166279e-31
0
ELLIPSE
5
124
100
AcDbEntity
8
0
100
AcDbEllipse
10
2.7024928515414923
20
-5.5466583755104741
30
-3.4967654318902565e-16
11
4.3096227771567362e-16
21
-0.29084179363530366
31
0.0
40
0.55470019622522715
41
0.51343204908926188
42
1.5707963267948966
0
LINE
5
125
100
AcDbEntity
8
0
100
AcDbLine
10
2.8638228515414923
20
-5.5466583755104741
30
-3.4967654318902565e-16
11
2.8638228515414905
21
-3.7637701691457783
31
-6.9935308637805367e-16
0
ARC
5
126
100
AcDbEntity
8
0
100
AcDbCircle
10
3.0775928515414908
20
-3.7637701691457783
30
-6.9935308637805131e-16
40
0.21377000000000024
210
-3.4890418385916783e-46
220
2.1792708953723466e-30
230
1
100
AcDbArc
50
90
51
180
0
LINE
5
127
100
AcDbEntity
8
0
100
AcDbLine
10
3.0775928515414908
20
-3.5500001691457781
30
-6.993530863780518e-16
11
3.6500528515414907
21
-3.550000169145779
31
0
0
ARC
5
128
100
AcDbEntity
8
0
100
AcDbCircle
10
3.6500528515414907
20
-3.7637701691457792
30
0
40
0.21377000000000024
210
3.9443045261050244e-31
220
3.3826710454492169e-30
230
1
100
AcDbArc
50
0
51
90
0
LINE
5
129
100
AcDbEntity
8
0
100
AcDbLine
10
3.863822851541491
20
-3.7637701691457792
30
-8.4317397854547207e-32
11
3.8638228515414923
21
-5.5466583755104741
31
-3.4967654318902383e-16
0
ELLIPSE
5
130
100
AcDbEntity
8
0
100
AcDbEllipse
10
4.0251528515414918
20
-5.5466583755104741
30
-6.9935308637805131e-16
11
5.6209098141155827e-16
21
-0.29084179363530366
31
0.0
40
0.55470019622522715
41
4.7123889803846897
42
5.7697532580903275
0
LINE
5
131
100
AcDbEntity
8
0
100
AcDbLine
10
3.9459124490211641
20
-5.800000169145779
30
-6.7122649713867627e-16
11
5.09250015318863
21
-5.8000001691457772
31
0
0
LINE
5
132
100
AcDbEntity
8
0
100
AcDbLine
10
5.09250015318863
20
-5.8000001691457772
30
0
11
6.5075909972763348
21
-2.0264245849118976
31
-1.0536449657167693e-16
0
LINE
5
133
100
AcDbEntity
8
0
100
AcDbLine
10
6.5075909972763348
20
-2.0264245849118976
30
-1.0536449657167693e-16
11
5.2913228515414898
21
-2.0264245849118958
31
3.4967654318902565e-16
0
LINE
5
134
100
AcDbEntity
8
0
100
AcDbLine
10
5.2913228515414898
20
-2.0264245849118958
30
3.4967654318902565e-16
11
4.7913228515414898
21
-1.5264245849118965
31
4.3058349122721234e-17
0
LINE
5
135
100
AcDbEntity
8
0
100
AcDbLine
10
4.7913228515414898
20
-1.5264245849118965
30
4.3058349122721234e-17
11
4.7913228515414898
21
-0.52642458491189692
31
-8.7419135797258237e-17
0
LINE
5
136
100
AcDbEntity
8
0
100
AcDbLine
10
4.7913228515414898
20
-0.52642458491189692
30
-8.7419135797258237e-17
11
2.1863228515414845
21
-0.52642458491189748
31
0
0
LINE
5
137
100
AcDbEntity
8
0
100
AcDbLine
10
2.1863228515414845
20
-0.52642458491189748
30
0
11
2.1863228515414925
21
-3.5391461652725122
31
-3.664567090812106e-30
0
LINE
5
138
100
AcDbEntity
8
0
100
AcDbLine
10
2.1863228515414925
20
-3.5391461652725122
30
-3.664567090812106e-30
11
1.9363228515414925
21
-3.5391461652725145
31
3.496765431890256e-16
0
LINE
5
139
100
AcDbEntity
8
0
100
AcDbLine
10
1.9363228515414925
20
-3.5391461652725145
30
3.496765431890256e-16
11
1.9363228515414943
21
-4.5500001691457799
31
-4.5004935491790978e-46
0
ARC
5
140
100
AcDbEntity
8
0
100
AcDbCircle
10
1.4363228515414885
20
-4.550000169145779
30
0
40
0.49999999999999978
210
5.3915615566993584e-33
220
5.5511151231255547e-17
230
1
100
AcDbArc
50
270.00000000000023
51
360
0
LINE
5
141
100
AcDbEntity
8
0
100
AcDbLine
10
1.4363228515414901
20
-5.050000169145779
30
2.7755575615627761e-17
11
-0.063677148458498284
21
-5.0500001691457799
31
6.9935308637805101e-16
0
ARC
5
142
100
AcDbEntity
8
0
100
AcDbCircle
10
-0.063677148458497895
20
-4.5500001691457808
30
2.0381494844538936e-31
40
0.49999999999999856
210
-3.968546591681362e-31
220
5.5511151231264631e-17
230
1
100
AcDbArc
50
180
51
269.99999999999994
0
LINE
5
143
100
AcDbEntity
8
0
100
AcDbLine
10
-0.56367714845849648
20
-4.550000169145779
30
-7.2256171022645535e-32
11
-0.56367714845850048
21
-3.5391461652725136
31
-3.4967654318903024e-16
0
LINE
5
144
100
AcDbEntity
8
0
100
AcDbLine
10
-0.56367714845850048
20
-3.5391461652725136
30
-3.4967654318903024e-16
11
-0.81367714845850037
21
-3.5391461652725118
31
1.1646568482593677e-31
0
LINE
5
145
100
AcDbEntity
8
0
100
AcDbLine
10
-0.81367714845850037
20
-3.5391461652725118
30
1.1646568482593677e-31
11
-0.81367714845849182
21
-0.52642458491189748
31
-1.7864764567709006e-29
0
LINE
5
146
100
AcDbEntity
8
0
100
AcDbLine
10
-0.81367714845849182
20
-0.52642458491189748
30
-1.7864764567709006e-29
11
-3.4186771484584968
21
-0.52642458491189648
31
0
0
LINE
5
147
100
AcDbEntity
8
0
100
AcDbLine
10
-3.4186771484584968
20
-0.52642458491189648
30
0
11
-3.4186771484584972
21
-1.526424584911896
31
8.7419135797259174e-17
0
LINE
5
148
100
AcDbEntity
8
0
100
AcDbLine
10
-3.4186771484584972
20
-1.526424584911896
30
8.7419135797259174e-17
11
-3.9186771484584972
21
-2.0264245849118949
31
4.3058349122724032e-17
0
LINE
5
149
100
AcDbEntity
8
0
100
AcDbLine
10
-3.9186771484584972
20
-2.0264245849118949
30
4.3058349122724032e-17
11
-5.1349452941933427
21
-2.0264245849118954
31
0
0
LINE
5
150
100
AcDbEntity
8
0
100
AcDbLine
10
-5.1349452941933427
20
-2.0264245849118954
30
0
11
-3.7198544501056383
21
-5.8000001691457763
31
2.4431204661736611e-16
0
LINE
5
151
100
AcDbEntity
8
0
100
AcDbLine
10
-3.7198544501056383
20
-5.8000001691457763
30
2.4431204661736611e-16
11
-2.5732667459381715
21
-5.800000169145779
31
-3.2154995394964928e-16
0
ENDSEC
0
SECTION
2
OBJECTS
0
DICTIONARY
5
C
100
AcDbDictionary
3
ACAD_GROUP
350
D
3
ACAD_MLINESTYLE
350
17
0
DICTIONARY
5
D
100
AcDbDictionary
0
DICTIONARY
5
1A
330
C
100
AcDbDictionary
0
DICTIONARY
5
17
100
AcDbDictionary
0
ENDSEC
0
EOF
