0
SECTION
2
HEADER
9
$INSUNITS
70
1
9
$ACADVER
1
AC1014
9
$HANDSEED
5
FFFF
0
ENDSEC
0
SECTION
2
TABLES
0
TABLE
2
VPORT
5
8
100
AcDbSymbolTable
0
ENDTAB
0
TABLE
2
LTYPE
5
5
100
AcDbSymbolTable
0
LTYPE
5
14
100
AcDbSymbolTableRecord
100
AcDbLinetypeTableRecord
2
BYBLOCK
70
0
0
LTYPE
5
15
100
AcDbSymbolTableRecord
100
AcDbLinetypeTableRecord
2
BYLAYER
70
0
0
ENDTAB
0
TABLE
2
LAYER
5
2
100
AcDbSymbolTable
70
2
0
LAYER
5
50
100
AcDbSymbolTableRecord
100
AcDbLayerTableRecord
2
0
70
0
6
CONTINUOUS
0
ENDTAB
0
TABLE
2
STYLE
5
3
100
AcDbSymbolTable
70
1
0
STYLE
5
11
100
AcDbSymbolTableRecord
100
AcDbTextStyleTableRecord
2
STANDARD
70
0
0
ENDTAB
0
TABLE
2
VIEW
5
6
100
AcDbSymbolTable
70
0
0
ENDTAB
0
TABLE
2
UCS
5
7
100
AcDbSymbolTable
70
0
0
ENDTAB
0
TABLE
2
APPID
5
9
100
AcDbSymbolTable
70
2
0
APPID
5
12
100
AcDbSymbolTableRecord
100
AcDbRegAppTableRecord
2
ACAD
70
0
0
ENDTAB
0
TABLE
2
DIMSTYLE
5
A
100
AcDbSymbolTable
70
1
0
ENDTAB
0
TABLE
2
BLOCK_RECORD
5
1
100
AcDbSymbolTable
70
1
0
BLOCK_RECORD
5
1F
100
AcDbSymbolTableRecord
100
AcDbBlockTableRecord
2
*MODEL_SPACE
0
BLOCK_RECORD
5
1B
100
AcDbSymbolTableRecord
100
AcDbBlockTableRecord
2
*PAPER_SPACE
0
ENDTAB
0
ENDSEC
0
SECTION
2
BLOCKS
0
BLOCK
5
20
100
AcDbEntity
100
AcDbBlockBegin
2
*MODEL_SPACE
0
ENDBLK
5
21
100
AcDbEntity
100
AcDbBlockEnd
0
BLOCK
5
1C
100
AcDbEntity
100
AcDbBlockBegin
2
*PAPER_SPACE
0
ENDBLK
5
1D
100
AcDbEntity
100
AcDbBlockEnd
0
ENDSEC
0
SECTION
2
ENTITIES
0
LINE
5
100
100
AcDbEntity
8
0
100
AcDbLine
10
1.3945799760642776
20
-1.5000000022096738
30
0
11
1.7499999760642777
21
-1.1445800076417021
31
0
0
LINE
5
101
100
AcDbEntity
8
0
100
AcDbLine
10
1.7499999760642777
20
-1.1445800076417021
30
0
11
1.7499999760642777
21
0.57148065688337046
31
0
0
LINE
5
102
100
AcDbEntity
8
0
100
AcDbLine
10
1.7499999760642777
20
0.57148065688337046
30
0
11
1.3945799760642776
21
0.92690065688337053
31
0
0
LINE
5
103
100
AcDbEntity
8
0
100
AcDbLine
10
1.3945799760642776
20
0.92690065688337053
30
0
11
0.29304070152655098
21
0.92690065688337087
31
0
0
LINE
5
104
100
AcDbEntity
8
0
100
AcDbLine
10
0.29304070152655098
20
0.92690065688337087
30
0
11
-2.5612144914252957
21
2.1359016758945932
31
0
0
ARC
5
105
100
AcDbEntity
8
0
100
AcDbCircle
10
-3.0000001077107572
20
1.1000000478714556
30
0
40
1.1249999999999998
210
-2.8374385277855986e-33
220
1.2018778418781558e-33
230
1
100
AcDbArc
50
67.043530674123289
51
180
0
LINE
5
106
100
AcDbEntity
8
0
100
AcDbLine
10
-4.1250001077107576
20
1.1000000478722323
30
-2.5160620577043727e-33
11
-4.1250001077108465
21
0.75000004787234131
31
0
0
ARC
5
107
100
AcDbEntity
8
0
100
AcDbCircle
10
-3.0000001077107572
20
0.75000004787145558
30
0
40
1.1250000000000886
210
4.2813546959355214e-61
220
5.4379103270216895e-49
230
1
100
AcDbArc
50
180
51
240.62577874494173
0
ARC
5
108
100
AcDbEntity
8
0
100
AcDbCircle
10
-3.4905118316698349
20
-0.12143454442947688
30
1.1448692931418538e-48
40
0.12500000000000069
210
-5.351298365678698e-33
220
-1.2598396986472407e-32
230
1
100
AcDbArc
50
240.62577874494167
51
301.14804380168715
0
ARC
5
109
100
AcDbEntity
8
0
100
AcDbCircle
10
-3.3611990450629428
20
-0.33539295912719286
30
-1.5085336568457366e-47
40
0.12499999999999979
210
-4.5179853566919114e-32
220
8.0711135356909673e-32
230
1
100
AcDbArc
50
37.49999908572228
51
121.14804380168681
0
LINE
5
110
100
AcDbEntity
8
0
100
AcDbLine
10
-3.2620298763122757
20
-0.25929778208356069
30
-1.6612796118683986e-33
11
-3.1850004088876442
21
-0.35968454180457526
31
0
0
LINE
5
111
100
AcDbEntity
8
0
100
AcDbLine
10
-3.1850004088876442
20
-0.35968454180457526
30
0
11
-4.6710883782168873
21
-1.4999999095056018
31
0
0
LINE
5
112
100
AcDbEntity
8
0
100
AcDbLine
10
-4.6710883782168873
20
-1.4999999095056018
30
0
11
-3.9288041492179042
21
-1.499999920850233
31
0
0
LINE
5
113
100
AcDbEntity
8
0
100
AcDbLine
10
-3.9288041492179042
20
-1.499999920850233
30
0
11
-3.9288041492179042
21
-1.624999920850233
31
0
0
LINE
5
114
100
AcDbEntity
8
0
100
AcDbLine
10
-3.9288041492179042
20
-1.624999920850233
30
0
11
-3.4288041492179047
21
-1.624999920850233
31
0
0
LINE
5
115
100
AcDbEntity
8
0
100
AcDbLine
10
-3.4288041492179047
20
-1.624999920850233
30
0
11
-3.4288041492179047
21
-1.499999920850233
31
0
0
LINE
5
116
100
AcDbEntity
8
0
100
AcDbLine
10
-3.4288041492179047
20
-1.499999920850233
30
0
11
-2.4288041492179051
21
-1.4999999999999996
31
0
0
LINE
5
117
100
AcDbEntity
8
0
100
AcDbLine
10
-2.4288041492179051
20
-1.4999999999999996
30
0
11
-2.4288041492179051
21
-1.6249999999999998
31
0
0
LINE
5
118
100
AcDbEntity
8
0
100
AcDbLine
10
-2.4288041492179051
20
-1.6249999999999998
30
0
11
-1.9288041492179051
21
-1.6249999999999998
31
0
0
LINE
5
119
100
AcDbEntity
8
0
100
AcDbLine
10
-1.9288041492179051
20
-1.6249999999999998
30
0
11
-1.9288041492179051
21
-1.4999999999999996
31
0
0
LINE
5
120
100
AcDbEntity
8
0
100
AcDbLine
10
-1.9288041492179051
20
-1.4999999999999996
30
0
11
-0.75000002393572207
21
-1.4999999999999996
31
0
0
LINE
5
121
100
AcDbEntity
8
0
100
AcDbLine
10
-0.75000002393572207
20
-1.4999999999999996
30
0
11
-0.75000002393572196
21
-1.6249999999999998
31
0
0
LINE
5
122
100
AcDbEntity
8
0
100
AcDbLine
10
-0.75000002393572196
20
-1.6249999999999998
30
0
11
-0.25000002393572196
21
-1.6249999999999998
31
0
0
LINE
5
123
100
AcDbEntity
8
0
100
AcDbLine
10
-0.25000002393572196
20
-1.6249999999999998
30
0
11
-0.25000002393572202
21
-1.4999999999999996
31
0
0
LINE
5
124
100
AcDbEntity
8
0
100
AcDbLine
10
-0.25000002393572202
20
-1.4999999999999996
30
0
11
1.3945799760642776
21
-1.5000000022096738
31
0
0
CIRCLE
5
125
100
AcDbEntity
8
0
100
AcDbCircle
10
-3.0000001077107572
20
1.1000000478714556
30
0
40
0.27500000000000002
210
-3.0814879110195774e-33
220
-9.1097524117498059e-68
230
1
0
CIRCLE
5
126
100
AcDbEntity
8
0
100
AcDbCircle
10
-1.2031250809326619
20
-1.312499962812363
30
0
40
0.099750000000000186
210
-0
220
0
230
1
0
CIRCLE
5
127
100
AcDbEntity
8
0
100
AcDbCircle
10
-0.64062508093266302
20
-1.3124999713394643
30
0
40
0.099750000000000019
210
-3.0814879110195774e-33
220
-9.1097524117498059e-68
230
1
0
CIRCLE
5
128
100
AcDbEntity
8
0
100
AcDbCircle
10
-0.078125080932664445
20
-1.3124999798665655
30
0
40
0.099750000000000019
210
-3.0814879110195774e-33
220
-5.9451932850870359e-68
230
1
0
CIRCLE
5
129
100
AcDbEntity
8
0
100
AcDbCircle
10
0.48437491906733438
20
-1.3124999883936666
30
0
40
0.099750000000000102
210
-0
220
0
230
1
0
CIRCLE
5
130
100
AcDbEntity
8
0
100
AcDbCircle
10
-3.3582724411777356
20
-0.72897941878294359
30
0
40
0.098000000000000004
210
0
220
-0
230
1
0
CIRCLE
5
131
100
AcDbEntity
8
0
100
AcDbCircle
10
-2.9120111817997367
20
-0.38655112208659687
30
0
40
0.098000000000000004
210
0
220
-0
230
1
0
CIRCLE
5
132
100
AcDbEntity
8
0
100
AcDbCircle
10
-2.4657499224217383
20
-0.044122825390250267
30
0
40
0.098000000000000004
210
0
220
-0
230
1
0
CIRCLE
5
133
100
AcDbEntity
8
0
100
AcDbCircle
10
-2.019488663043739
20
0.29830547130609636
30
0
40
0.098000000000000004
210
0
220
-0
230
1
0
CIRCLE
5
134
100
AcDbEntity
8
0
100
AcDbCircle
10
0.43317493528099787
20
-0.19699999999999973
30
0
40
0.70866141732283472
210
-0
220
0
230
1
0
CIRCLE
5
135
100
AcDbEntity
8
0
100
AcDbCircle
10
1.0631749352809976
20
0.43300000000000022
30
0
40
0.054499999999999993
210
0
220
0
230
1
0
CIRCLE
5
136
100
AcDbEntity
8
0
100
AcDbCircle
10
1.0631749352809976
20
-0.82699999999999985
30
0
40
0.054499999999999993
210
-0
220
0
230
1
0
CIRCLE
5
137
100
AcDbEntity
8
0
100
AcDbCircle
10
-0.19682506471900235
20
-0.82699999999999985
30
0
40
0.054499999999999993
210
-3.081487911019578e-33
220
-9.1097524117498076e-68
230
1
0
CIRCLE
5
138
100
AcDbEntity
8
0
100
AcDbCircle
10
-0.1968250647190023
20
0.43300000000000022
30
0
40
0.054499999999999993
210
-0
220
0
230
1
0
ENDSEC
0
SECTION
2
OBJECTS
0
DICTIONARY
5
C
100
AcDbDictionary
3
ACAD_GROUP
350
D
3
ACAD_MLINESTYLE
350
17
0
DICTIONARY
5
D
100
AcDbDictionary
0
DICTIONARY
5
1A
330
C
100
AcDbDictionary
0
DICTIONARY
5
17
100
AcDbDictionary
0
ENDSEC
0
EOF
