0
SECTION
2
HEADER
9
$INSUNITS
70
1
9
$ACADVER
1
AC1014
9
$HANDSEED
5
FFFF
0
ENDSEC
0
SECTION
2
TABLES
0
TABLE
2
VPORT
5
8
100
AcDbSymbolTable
0
ENDTAB
0
TABLE
2
LTYPE
5
5
100
AcDbSymbolTable
0
LTYPE
5
14
100
AcDbSymbolTableRecord
100
AcDbLinetypeTableRecord
2
BYBLOCK
70
0
0
LTYPE
5
15
100
AcDbSymbolTableRecord
100
AcDbLinetypeTableRecord
2
BYLAYER
70
0
0
ENDTAB
0
TABLE
2
LAYER
5
2
100
AcDbSymbolTable
70
2
0
LAYER
5
50
100
AcDbSymbolTableRecord
100
AcDbLayerTableRecord
2
0
70
0
6
CONTINUOUS
0
ENDTAB
0
TABLE
2
STYLE
5
3
100
AcDbSymbolTable
70
1
0
STYLE
5
11
100
AcDbSymbolTableRecord
100
AcDbTextStyleTableRecord
2
STANDARD
70
0
0
ENDTAB
0
TABLE
2
VIEW
5
6
100
AcDbSymbolTable
70
0
0
ENDTAB
0
TABLE
2
UCS
5
7
100
AcDbSymbolTable
70
0
0
ENDTAB
0
TABLE
2
APPID
5
9
100
AcDbSymbolTable
70
2
0
APPID
5
12
100
AcDbSymbolTableRecord
100
AcDbRegAppTableRecord
2
ACAD
70
0
0
ENDTAB
0
TABLE
2
DIMSTYLE
5
A
100
AcDbSymbolTable
70
1
0
ENDTAB
0
TABLE
2
BLOCK_RECORD
5
1
100
AcDbSymbolTable
70
1
0
BLOCK_RECORD
5
1F
100
AcDbSymbolTableRecord
100
AcDbBlockTableRecord
2
*MODEL_SPACE
0
BLOCK_RECORD
5
1B
100
AcDbSymbolTableRecord
100
AcDbBlockTableRecord
2
*PAPER_SPACE
0
ENDTAB
0
ENDSEC
0
SECTION
2
BLOCKS
0
BLOCK
5
20
100
AcDbEntity
100
AcDbBlockBegin
2
*MODEL_SPACE
0
ENDBLK
5
21
100
AcDbEntity
100
AcDbBlockEnd
0
BLOCK
5
1C
100
AcDbEntity
100
AcDbBlockBegin
2
*PAPER_SPACE
0
ENDBLK
5
1D
100
AcDbEntity
100
AcDbBlockEnd
0
ENDSEC
0
SECTION
2
ENTITIES
0
CIRCLE
5
100
100
AcDbEntity
8
0
100
AcDbCircle
10
-2.9811771484585026
20
-3.6201745849118891
30
3.4967654318902565e-16
40
0.099749999999999714
210
3.2975059744035633e-46
220
2.4152619725328976e-30
230
1
0
CIRCLE
5
101
100
AcDbEntity
8
0
100
AcDbCircle
10
-2.981177148458499
20
-2.4951745849118918
30
-3.4967654318902565e-16
40
0.099749999999999714
210
1.972152263052533e-31
220
2.4152619725328976e-30
230
1
0
CIRCLE
5
102
100
AcDbEntity
8
0
100
AcDbCircle
10
-2.9811771484585017
20
-3.0576745849118905
30
-3.4967654318902565e-16
40
0.099749999999999714
210
1.972152263052533e-31
220
2.4152619725328976e-30
230
1
0
CIRCLE
5
103
100
AcDbEntity
8
0
100
AcDbCircle
10
-2.9811771484585039
20
-4.1826745849118883
30
0
40
0.099749999999999714
210
1.972152263052533e-31
220
2.4152619725328976e-30
230
1
0
CIRCLE
5
104
100
AcDbEntity
8
0
100
AcDbCircle
10
-1.0011771484584975
20
-2.4951745849118954
30
0
40
0.099750000000000061
210
1.972152263052533e-31
220
2.4152619725328976e-30
230
1
0
CIRCLE
5
105
100
AcDbEntity
8
0
100
AcDbCircle
10
-1.0011771484585004
20
-4.1826745849118909
30
-3.4967654318902565e-16
40
0.099750000000000061
210
1.972152263052533e-31
220
2.4152619725328976e-30
230
1
0
CIRCLE
5
106
100
AcDbEntity
8
0
100
AcDbCircle
10
-1.0011771484584981
20
-3.057674584911894
30
3.4967654318902565e-16
40
0.099750000000000061
210
3.2975059744035731e-46
220
2.4152619725328976e-30
230
1
0
CIRCLE
5
107
100
AcDbEntity
8
0
100
AcDbCircle
10
-1.001177148458499
20
-3.6201745849118936
30
0
40
0.099750000000000061
210
3.2975059744035731e-46
220
2.4152619725328976e-30
230
1
0
CIRCLE
5
108
100
AcDbEntity
8
0
100
AcDbCircle
10
2.3738228515414916
20
-3.620174584911894
30
0
40
0.099750000000000061
210
-8.8210921509782891e-61
220
2.2364125519712303e-30
230
1
0
CIRCLE
5
109
100
AcDbEntity
8
0
100
AcDbCircle
10
2.3738228515414903
20
-3.057674584911894
30
0
40
0.099750000000000061
210
-8.8210921509782891e-61
220
2.2364125519712303e-30
230
1
0
CIRCLE
5
110
100
AcDbEntity
8
0
100
AcDbCircle
10
2.3738228515414925
20
-4.1826745849118918
30
-3.4967654318902565e-16
40
0.099750000000000061
210
1.9721522630525295e-31
220
2.2364125519712303e-30
230
1
0
CIRCLE
5
111
100
AcDbEntity
8
0
100
AcDbCircle
10
2.3738228515414899
20
-2.4951745849118954
30
0
40
0.099750000000000061
210
1.9721522630525295e-31
220
2.2364125519712303e-30
230
1
0
CIRCLE
5
112
100
AcDbEntity
8
0
100
AcDbCircle
10
4.3538228515414961
20
-4.1826745849118891
30
3.4967654318902565e-16
40
0.099749999999999714
210
1.9721522630525295e-31
220
2.2364125519712303e-30
230
1
0
CIRCLE
5
113
100
AcDbEntity
8
0
100
AcDbCircle
10
4.3538228515414934
20
-3.0576745849118909
30
3.4967654318902565e-16
40
0.099749999999999714
210
1.9721522630525295e-31
220
2.2364125519712303e-30
230
1
0
CIRCLE
5
114
100
AcDbEntity
8
0
100
AcDbCircle
10
4.3538228515414916
20
-2.4951745849118923
30
-3.4967654318902565e-16
40
0.099749999999999714
210
1.9721522630525295e-31
220
2.2364125519712303e-30
230
1
0
CIRCLE
5
115
100
AcDbEntity
8
0
100
AcDbCircle
10
4.3538228515414943
20
-3.6201745849118905
30
3.4967654318902565e-16
40
0.099749999999999714
210
1.9721522630525295e-31
220
2.2364125519712303e-30
230
1
0
LWPOLYLINE
5
116
100
AcDbEntity
8
0
100
AcDbPolyline
90
20
70
1
43
0.0
10
-3.7198544501056379
20
-5.8000001691457763
10
5.09250015318863
20
-5.8000001691457772
10
6.5075909972763348
20
-2.0264245849118976
10
5.2913228515414898
20
-2.0264245849118958
10
4.7913228515414898
20
-1.5264245849118965
10
4.7913228515414898
20
-0.52642458491189692
10
2.1863228515414845
20
-0.52642458491189759
10
2.1863228515414925
20
-3.5391461652725122
10
1.9363228515414925
20
-3.5391461652725145
10
1.9363228515414883
20
-4.5500001691457799
42
-0.4142135623730937
10
1.4363228515414901
20
-5.050000169145779
10
-0.06367714845849827
20
-5.050000169145779
42
-0.41421356237309559
10
-0.56367714845849648
20
-4.550000169145779
10
-0.56367714845850048
20
-3.5391461652725136
10
-0.81367714845850037
20
-3.5391461652725118
10
-0.81367714845849182
20
-0.52642458491189748
10
-3.4186771484584968
20
-0.52642458491189648
10
-3.4186771484584972
20
-1.526424584911896
10
-3.9186771484584972
20
-2.0264245849118949
10
-5.1349452941933427
20
-2.0264245849118954
0
ENDSEC
0
SECTION
2
OBJECTS
0
DICTIONARY
5
C
100
AcDbDictionary
3
ACAD_GROUP
350
D
3
ACAD_MLINESTYLE
350
17
0
DICTIONARY
5
D
100
AcDbDictionary
0
DICTIONARY
5
1A
330
C
100
AcDbDictionary
0
DICTIONARY
5
17
100
AcDbDictionary
0
ENDSEC
0
EOF
