0
SECTION
2
HEADER
9
$INSUNITS
70
1
9
$ACADVER
1
AC1014
9
$HANDSEED
5
FFFF
0
ENDSEC
0
SECTION
2
TABLES
0
TABLE
2
VPORT
5
8
100
AcDbSymbolTable
0
ENDTAB
0
TABLE
2
LTYPE
5
5
100
AcDbSymbolTable
0
LTYPE
5
14
100
AcDbSymbolTableRecord
100
AcDbLinetypeTableRecord
2
BYBLOCK
70
0
0
LTYPE
5
15
100
AcDbSymbolTableRecord
100
AcDbLinetypeTableRecord
2
BYLAYER
70
0
0
ENDTAB
0
TABLE
2
LAYER
5
2
100
AcDbSymbolTable
70
2
0
LAYER
5
50
100
AcDbSymbolTableRecord
100
AcDbLayerTableRecord
2
0
70
0
6
CONTINUOUS
0
ENDTAB
0
TABLE
2
STYLE
5
3
100
AcDbSymbolTable
70
1
0
STYLE
5
11
100
AcDbSymbolTableRecord
100
AcDbTextStyleTableRecord
2
STANDARD
70
0
0
ENDTAB
0
TABLE
2
VIEW
5
6
100
AcDbSymbolTable
70
0
0
ENDTAB
0
TABLE
2
UCS
5
7
100
AcDbSymbolTable
70
0
0
ENDTAB
0
TABLE
2
APPID
5
9
100
AcDbSymbolTable
70
2
0
APPID
5
12
100
AcDbSymbolTableRecord
100
AcDbRegAppTableRecord
2
ACAD
70
0
0
ENDTAB
0
TABLE
2
DIMSTYLE
5
A
100
AcDbSymbolTable
70
1
0
ENDTAB
0
TABLE
2
BLOCK_RECORD
5
1
100
AcDbSymbolTable
70
1
0
BLOCK_RECORD
5
1F
100
AcDbSymbolTableRecord
100
AcDbBlockTableRecord
2
*MODEL_SPACE
0
BLOCK_RECORD
5
1B
100
AcDbSymbolTableRecord
100
AcDbBlockTableRecord
2
*PAPER_SPACE
0
ENDTAB
0
ENDSEC
0
SECTION
2
BLOCKS
0
BLOCK
5
20
100
AcDbEntity
100
AcDbBlockBegin
2
*MODEL_SPACE
0
ENDBLK
5
21
100
AcDbEntity
100
AcDbBlockEnd
0
BLOCK
5
1C
100
AcDbEntity
100
AcDbBlockBegin
2
*PAPER_SPACE
0
ENDBLK
5
1D
100
AcDbEntity
100
AcDbBlockEnd
0
ENDSEC
0
SECTION
2
ENTITIES
0
CIRCLE
5
100
100
AcDbEntity
8
0
100
AcDbCircle
10
0.40000001276571917
20
0.80000002553143834
30
0
40
0.12499999999999994
210
-0
220
0
230
1
0
CIRCLE
5
101
100
AcDbEntity
8
0
100
AcDbCircle
10
1.2000000382971585
20
-1.7483827159451283e-16
30
0
40
0.12499999999999994
210
0
220
-0
230
1
0
CIRCLE
5
102
100
AcDbEntity
8
0
100
AcDbCircle
10
3.3112065755667495e-18
20
1.2500000398928723
30
0
40
0.12499999999999997
210
-2.8467970895482631e-69
220
1.9259299443872363e-34
230
1
0
CIRCLE
5
103
100
AcDbEntity
8
0
100
AcDbCircle
10
0.50000001595714894
20
-0.70000002234000858
30
0
40
0.12499999999999994
210
-0
220
0
230
1
0
CIRCLE
5
104
100
AcDbEntity
8
0
100
AcDbCircle
10
-1.5000000478714468
20
1.2500000398928723
30
0
40
0.12499999999999994
210
-0
220
0
230
1
0
CIRCLE
5
105
100
AcDbEntity
8
0
100
AcDbCircle
10
-1.7999999999999998
20
0
30
0
40
0.43700787401574814
210
-1.5407439555097887e-33
220
1.9259299443872359e-34
230
1
0
CIRCLE
5
106
100
AcDbEntity
8
0
100
AcDbCircle
10
-2.311811023622047
20
-0.51181102362204722
30
0
40
0.054499999999999993
210
-0
220
0
230
1
0
CIRCLE
5
107
100
AcDbEntity
8
0
100
AcDbCircle
10
-1.2881889763779526
20
0.51181102362204722
30
0
40
0.054499999999999993
210
-0
220
0
230
1
0
CIRCLE
5
108
100
AcDbEntity
8
0
100
AcDbCircle
10
-1.2881889763779526
20
-0.51181102362204722
30
0
40
0.054499999999999993
210
-0
220
0
230
1
0
CIRCLE
5
109
100
AcDbEntity
8
0
100
AcDbCircle
10
-2.311811023622047
20
0.51181102362204722
30
0
40
0.054499999999999993
210
-0
220
0
230
1
0
LWPOLYLINE
5
110
100
AcDbEntity
8
0
100
AcDbPolyline
90
20
70
1
43
0.0
10
-4.9288041405128631
20
-0.93042519998272566
10
-4.9288041492179042
20
-1.624999920850233
10
-4.4288041492179051
20
-1.624999920850233
10
-4.4288041492179051
20
-1.499999920850233
10
-3.4288041492179051
20
-1.4999999999999996
10
-3.4288041492179051
20
-1.6249999999999998
10
-2.9288041492179056
20
-1.6249999999999998
10
-2.9288041492179056
20
-1.4999999999999996
10
-1.7500000239357223
20
-1.4999999999999996
10
-1.7500000239357223
20
-1.6249999999999998
10
-1.2500000239357223
20
-1.6249999999999998
10
-1.2500000239357223
20
-1.4999999999999996
10
-0.2500000239357224
20
-1.4999999999999996
10
-0.2500000239357224
20
-1.6249999999999998
10
0.24999997606427754
20
-1.6249999999999998
10
0.24999997606427776
20
-1.4999999999999996
10
1.5732233427018278
20
-0.17677669670706275
42
0.41421357172057521
10
1.5732233455226801
20
0.17677669952791483
10
0.25000002393572279
20
1.4999999999999998
10
-1.7614122118218105
20
1.5000000281071162
0
CIRCLE
5
111
100
AcDbEntity
8
0
100
AcDbCircle
10
-3.0194886630437399
20
0.29830547130609658
30
0
40
0.099749999999999714
210
0
220
-0
230
1
0
CIRCLE
5
112
100
AcDbEntity
8
0
100
AcDbCircle
10
-0.51562508093266601
20
-1.3124999883936666
30
0
40
0.099750000000000061
210
1.0691058840368783e-50
220
1.9259299443872359e-34
230
1
0
CIRCLE
5
113
100
AcDbEntity
8
0
100
AcDbCircle
10
-2.2031250809326623
20
-1.312499962812363
30
0
40
0.099750000000000061
210
1.0691058840368783e-50
220
1.9259299443872359e-34
230
1
0
CIRCLE
5
114
100
AcDbEntity
8
0
100
AcDbCircle
10
-4.3582724411777365
20
-0.72897941878294303
30
0
40
0.099749999999999714
210
0
220
-0
230
1
0
CIRCLE
5
115
100
AcDbEntity
8
0
100
AcDbCircle
10
-3.4657499224217392
20
-0.044122825390249906
30
0
40
0.099749999999999714
210
0
220
-0
230
1
0
CIRCLE
5
116
100
AcDbEntity
8
0
100
AcDbCircle
10
-1.0781250809326648
20
-1.3124999798665655
30
0
40
0.099750000000000061
210
1.0691058840368783e-50
220
1.9259299443872359e-34
230
1
0
CIRCLE
5
117
100
AcDbEntity
8
0
100
AcDbCircle
10
-1.6406250809326632
20
-1.3124999713394643
30
0
40
0.099750000000000061
210
1.0691058840368783e-50
220
1.9259299443872359e-34
230
1
0
CIRCLE
5
118
100
AcDbEntity
8
0
100
AcDbCircle
10
-3.9120111817997376
20
-0.38655112208659642
30
0
40
0.099749999999999714
210
0
220
-0
230
1
0
CIRCLE
5
119
100
AcDbEntity
8
0
100
AcDbCircle
10
5.7102722301661383e-17
20
-4.811497964198146e-18
30
0
40
0.12874999999999998
210
-9.2656036610424557e-84
220
1.9259299443872363e-34
230
1
0
ENDSEC
0
SECTION
2
OBJECTS
0
DICTIONARY
5
C
100
AcDbDictionary
3
ACAD_GROUP
350
D
3
ACAD_MLINESTYLE
350
17
0
DICTIONARY
5
D
100
AcDbDictionary
0
DICTIONARY
5
1A
330
C
100
AcDbDictionary
0
DICTIONARY
5
17
100
AcDbDictionary
0
ENDSEC
0
EOF
