0
SECTION
2
HEADER
9
$INSUNITS
70
1
9
$ACADVER
1
AC1014
9
$HANDSEED
5
FFFF
0
ENDSEC
0
SECTION
2
TABLES
0
TABLE
2
VPORT
5
8
100
AcDbSymbolTable
0
ENDTAB
0
TABLE
2
LTYPE
5
5
100
AcDbSymbolTable
0
LTYPE
5
14
100
AcDbSymbolTableRecord
100
AcDbLinetypeTableRecord
2
BYBLOCK
70
0
0
LTYPE
5
15
100
AcDbSymbolTableRecord
100
AcDbLinetypeTableRecord
2
BYLAYER
70
0
0
ENDTAB
0
TABLE
2
LAYER
5
2
100
AcDbSymbolTable
70
2
0
LAYER
5
50
100
AcDbSymbolTableRecord
100
AcDbLayerTableRecord
2
0
70
0
6
CONTINUOUS
0
ENDTAB
0
TABLE
2
STYLE
5
3
100
AcDbSymbolTable
70
1
0
STYLE
5
11
100
AcDbSymbolTableRecord
100
AcDbTextStyleTableRecord
2
STANDARD
70
0
0
ENDTAB
0
TABLE
2
VIEW
5
6
100
AcDbSymbolTable
70
0
0
ENDTAB
0
TABLE
2
UCS
5
7
100
AcDbSymbolTable
70
0
0
ENDTAB
0
TABLE
2
APPID
5
9
100
AcDbSymbolTable
70
2
0
APPID
5
12
100
AcDbSymbolTableRecord
100
AcDbRegAppTableRecord
2
ACAD
70
0
0
ENDTAB
0
TABLE
2
DIMSTYLE
5
A
100
AcDbSymbolTable
70
1
0
ENDTAB
0
TABLE
2
BLOCK_RECORD
5
1
100
AcDbSymbolTable
70
1
0
BLOCK_RECORD
5
1F
100
AcDbSymbolTableRecord
100
AcDbBlockTableRecord
2
*MODEL_SPACE
0
BLOCK_RECORD
5
1B
100
AcDbSymbolTableRecord
100
AcDbBlockTableRecord
2
*PAPER_SPACE
0
ENDTAB
0
ENDSEC
0
SECTION
2
BLOCKS
0
BLOCK
5
20
100
AcDbEntity
100
AcDbBlockBegin
2
*MODEL_SPACE
0
ENDBLK
5
21
100
AcDbEntity
100
AcDbBlockEnd
0
BLOCK
5
1C
100
AcDbEntity
100
AcDbBlockBegin
2
*PAPER_SPACE
0
ENDBLK
5
1D
100
AcDbEntity
100
AcDbBlockEnd
0
ENDSEC
0
SECTION
2
ENTITIES
0
CIRCLE
5
100
100
AcDbEntity
8
0
100
AcDbCircle
10
0.63954399136814866
20
-1.7429024544951244
30
-6.2941777774024621e-15
40
0.22822029607465566
210
9.8607613152661442e-32
220
-3.6949610038305794e-15
230
1
0
CIRCLE
5
101
100
AcDbEntity
8
0
100
AcDbCircle
10
-2.0419520716239004
20
1.3385203870630278
30
4.8954716046463587e-15
40
0.11500000000000017
210
-1.6287614492704539e-31
220
-3.6949610038305802e-15
230
1
0
SPLINE
5
102
100
AcDbEntity
8
0
100
AcDbSpline
70
0
71
3
72
11
73
7
74
0
42
0.000000001
43
0.0000000001
44
0.0000000001
40
-1.5707963267948768
40
-1.5707963267948768
40
-1.5707963267948768
40
-1.5707963267948768
40
-1.0135290594509994
40
-1.0135290594509994
40
-1.0135290594509994
40
0
40
0
40
0
40
0
10
3.6403500543603347
20
0.52969734004716462
30
2.0980592591341539e-15
10
3.6173925790880537
20
0.52969734004716529
30
2.0980592591341539e-15
10
3.5944706132538111
20
0.53624233192619619
30
2.4477358023231794e-15
10
3.5749793133914571
20
0.54836749708565258
30
2.0980592591341539e-15
10
3.5395295391545298
20
0.57042012418202992
30
2.4477358023231794e-15
10
3.5167059038110375
20
0.61144649100068982
30
2.4477358023231794e-15
10
3.5167059038110393
20
0.65318409979322434
30
2.4477358023231794e-15
0
LINE
5
103
100
AcDbEntity
8
0
100
AcDbLine
10
3.5167059038110398
20
0.65318409979322434
30
2.4477358023231794e-15
11
3.5167059038110673
21
1.594186239147767
31
5.9226464502641248e-15
0
LINE
5
104
100
AcDbEntity
8
0
100
AcDbLine
10
3.5167059038110673
20
1.594186239147767
30
5.9226464502641248e-15
11
1.5463781419175371
21
1.5941862391478194
31
5.9445012342136311e-15
0
LINE
5
105
100
AcDbEntity
8
0
100
AcDbLine
10
1.5463781419175371
20
1.5941862391478194
30
5.9445012342136311e-15
11
1.5463781419174645
21
-0.6659754996472107
31
-2.4149536263992172e-15
0
LINE
5
106
100
AcDbEntity
8
0
100
AcDbLine
10
1.5463781419174645
20
-0.6659754996472107
30
-2.4149536263992172e-15
11
-0.26729015918112248
21
-0.66597549964715297
31
-2.7974123455119914e-15
0
LINE
5
107
100
AcDbEntity
8
0
100
AcDbLine
10
-0.26729015918112248
20
-0.66597549964715297
30
-2.7974123455119914e-15
11
-0.26729015918105414
21
1.5941862391478692
31
5.911719058289471e-15
0
LINE
5
108
100
AcDbEntity
8
0
100
AcDbLine
10
-0.26729015918105414
20
1.5941862391478692
30
5.911719058289471e-15
11
-2.2376179210745883
21
1.5941862391479171
31
5.9445012342136138e-15
0
LINE
5
109
100
AcDbEntity
8
0
100
AcDbLine
10
-2.2376179210745883
20
1.5941862391479171
30
5.9445012342136138e-15
11
-2.2376179210746123
21
0.65318409979337388
31
2.4695905862724948e-15
0
SPLINE
5
110
100
AcDbEntity
8
0
100
AcDbSpline
70
0
71
3
72
11
73
7
74
0
42
0.000000001
43
0.0000000001
44
0.0000000001
40
2.4534996573495458e-16
40
2.4534996573495458e-16
40
2.4534996573495458e-16
40
2.4534996573495458e-16
40
0.55726726734387877
40
0.55726726734387877
40
0.55726726734387877
40
1.5707963267948781
40
1.5707963267948781
40
1.5707963267948781
40
1.5707963267948781
10
-2.2376179210746123
20
0.65318409979337388
30
2.4477358023231794e-15
10
-2.2376179210746132
20
0.63023556863839914
30
2.4477358023231794e-15
10
-2.2441847370216248
20
0.60732424124073681
30
2.0980592591341539e-15
10
-2.2563378228585638
20
0.58785498339939724
30
2.0980592591341539e-15
10
-2.2784412306478798
20
0.55244529805721998
30
2.0980592591341539e-15
10
-2.3195081957305974
20
0.52969734004731983
30
2.0980592591341539e-15
10
-2.3612620716239157
20
0.52969734004732094
30
2.0980592591341539e-15
0
LINE
5
111
100
AcDbEntity
8
0
100
AcDbLine
10
-2.3612620716239161
20
0.52969734004732094
30
2.0980592591341539e-15
11
-2.9276420716239184
21
0.52969734004733515
31
2.0980592591342068e-15
0
SPLINE
5
112
100
AcDbEntity
8
0
100
AcDbSpline
70
0
71
3
72
11
73
7
74
0
42
0.000000001
43
0.0000000001
44
0.0000000001
40
-1.5707963267949012
40
-1.5707963267949012
40
-1.5707963267949012
40
-1.5707963267949012
40
-0.35614755200902004
40
-0.35614755200902004
40
-0.35614755200902004
40
0
40
0
40
0
40
0
10
-2.9276420716239184
20
0.52969734004733526
30
2.0980592591341539e-15
10
-2.9519473648947536
20
0.5296973400473356
30
2.0980592591341539e-15
10
-2.9754063825528823
20
0.51340527807966796
30
1.7483827159451283e-15
10
-2.9838604883561799
20
0.4907188138997845
30
1.7483827159451283e-15
10
-2.9863393193967007
20
0.484066908551401
30
1.3987061727561026e-15
10
-2.9876179210746194
20
0.47697379072654966
30
1.7483827159451283e-15
10
-2.9876179210746194
20
0.46987888139987838
30
1.7483827159451283e-15
0
LINE
5
113
100
AcDbEntity
8
0
100
AcDbLine
10
-2.9876179210746194
20
0.46987888139987838
30
1.7483827159451287e-15
11
-2.9876179210746967
21
-2.3099926563294697
31
-8.5124383482578459e-15
0
LINE
5
114
100
AcDbEntity
8
0
100
AcDbLine
10
-2.9876179210746967
20
-2.3099926563294697
30
-8.5124383482578459e-15
11
4.2667059038109603
21
-2.3099926563296642
31
-8.7419135797263602e-15
0
LINE
5
115
100
AcDbEntity
8
0
100
AcDbLine
10
4.2667059038109603
20
-2.3099926563296642
30
-8.7419135797263602e-15
11
4.266705903811034
21
0.46987888139969014
31
1.529834876451986e-15
0
SPLINE
5
116
100
AcDbEntity
8
0
100
AcDbSpline
70
0
71
3
72
11
73
7
74
0
42
0.000000001
43
0.0000000001
44
0.0000000001
40
-2.4534996573495443e-16
40
-2.4534996573495443e-16
40
-2.4534996573495443e-16
40
-2.4534996573495443e-16
40
1.2146487747858803
40
1.2146487747858803
40
1.2146487747858803
40
1.5707963267948766
40
1.5707963267948766
40
1.5707963267948766
40
1.5707963267948766
10
4.2667059038110349
20
0.46987888139968981
30
1.7483827159451283e-15
10
4.2667059038110358
20
0.49407622003713214
30
2.0980592591341539e-15
10
4.2504308476839965
20
0.51748023154054779
30
1.3987061727561026e-15
10
4.2276583219343697
20
0.52593733723293368
30
1.7483827159451283e-15
10
4.2209811824458603
20
0.52841704787188393
30
2.0980592591341539e-15
10
4.2138566170992622
20
0.52969734004714952
30
2.0980592591341539e-15
10
4.2067300543603388
20
0.52969734004714997
30
2.0980592591341539e-15
0
LINE
5
117
100
AcDbEntity
8
0
100
AcDbLine
10
4.2067300543603388
20
0.52969734004714997
30
2.0980592591341539e-15
11
3.6403500543603347
21
0.52969734004716462
31
2.0980592591341539e-15
0
CIRCLE
5
118
100
AcDbEntity
8
0
100
AcDbCircle
10
4.011040054360306
20
-0.64657866305622202
30
-2.4477358023231794e-15
40
0.11499999999999981
210
-2.5938644726170733e-31
220
-3.6914915568786266e-15
230
1
0
CIRCLE
5
119
100
AcDbEntity
8
0
100
AcDbCircle
10
-2.7319520716239496
20
-0.64657866305604317
30
-2.4477358023231794e-15
40
0.12500000000000028
210
-1.6287614492702218e-31
220
-3.6949610038305802e-15
230
1
0
CIRCLE
5
120
100
AcDbEntity
8
0
100
AcDbCircle
10
3.3210400543603624
20
1.3385203870628837
30
4.5457950614573337e-15
40
0.11499999999999981
210
-6.2171220956454415e-32
220
-3.6914915568786266e-15
230
1
0
ENDSEC
0
SECTION
2
OBJECTS
0
DICTIONARY
5
C
100
AcDbDictionary
3
ACAD_GROUP
350
D
3
ACAD_MLINESTYLE
350
17
0
DICTIONARY
5
D
100
AcDbDictionary
0
DICTIONARY
5
1A
330
C
100
AcDbDictionary
0
DICTIONARY
5
17
100
AcDbDictionary
0
ENDSEC
0
EOF
