  0
SECTION
  2
HEADER
  9
$ACADVER
  1
AC1015
  9
$ACADMAINTVER
 70
     6
  9
$DWGCODEPAGE
  3
ANSI_1252
  9
$INSBASE
 10
0.0
 20
0.0
 30
0.0
  9
$EXTMIN
 10
-7.9211963878
 20
-7.999985854
 30
0.0
  9
$EXTMAX
 10
7.9211964176
 20
7.9999858859
 30
0.0
  9
$LIMMIN
 10
0.0
 20
0.0
  9
$LIMMAX
 10
420.0
 20
297.0
  9
$ORTHOMODE
 70
     0
  9
$REGENMODE
 70
     1
  9
$FILLMODE
 70
     1
  9
$QTEXTMODE
 70
     0
  9
$MIRRTEXT
 70
     1
  9
$LTSCALE
 40
1.0
  9
$ATTMODE
 70
     1
  9
$TEXTSIZE
 40
3.175
  9
$TRACEWID
 40
1.0
  9
$TEXTSTYLE
  7
Standard
  9
$CLAYER
  8
0
  9
$CELTYPE
  6
ByLayer
  9
$CECOLOR
 62
   256
  9
$CELTSCALE
 40
1.0
  9
$DISPSILH
 70
     0
  9
$DIMSCALE
 40
1.0
  9
$DIMASZ
 40
3.302
  9
$DIMEXO
 40
0.0
  9
$DIMDLI
 40
3.75
  9
$DIMRND
 40
0.0
  9
$DIMDLE
 40
0.0
  9
$DIMEXE
 40
3.175
  9
$DIMTP
 40
0.0
  9
$DIMTM
 40
0.0
  9
$DIMTXT
 40
3.175
  9
$DIMCEN
 40
2.5
  9
$DIMTSZ
 40
0.0
  9
$DIMTOL
 70
     0
  9
$DIMLIM
 70
     0
  9
$DIMTIH
 70
     1
  9
$DIMTOH
 70
     1
  9
$DIMSE1
 70
     0
  9
$DIMSE2
 70
     0
  9
$DIMTAD
 70
     0
  9
$DIMZIN
 70
     0
  9
$DIMBLK
  1

  9
$DIMASO
 70
     1
  9
$DIMSHO
 70
     1
  9
$DIMPOST
  1

  9
$DIMAPOST
  1

  9
$DIMALT
 70
     0
  9
$DIMALTD
 70
     3
  9
$DIMALTF
 40
0.0393700787
  9
$DIMLFAC
 40
1.0
  9
$DIMTOFL
 70
     1
  9
$DIMTVP
 40
0.0
  9
$DIMTIX
 70
     0
  9
$DIMSOXD
 70
     0
  9
$DIMSAH
 70
     0
  9
$DIMBLK1
  1

  9
$DIMBLK2
  1

  9
$DIMSTYLE
  2
ISO-25
  9
$DIMCLRD
 70
     0
  9
$DIMCLRE
 70
     0
  9
$DIMCLRT
 70
     0
  9
$DIMTFAC
 40
1.0
  9
$DIMGAP
 40
1.524
  9
$DIMJUST
 70
     0
  9
$DIMSD1
 70
     0
  9
$DIMSD2
 70
     0
  9
$DIMTOLJ
 70
     0
  9
$DIMTZIN
 70
     0
  9
$DIMALTZ
 70
     0
  9
$DIMALTTZ
 70
     0
  9
$DIMUPT
 70
     0
  9
$DIMDEC
 70
     3
  9
$DIMTDEC
 70
     3
  9
$DIMALTU
 70
     2
  9
$DIMALTTD
 70
     3
  9
$DIMTXSTY
  7
Standard
  9
$DIMAUNIT
 70
     0
  9
$DIMADEC
 70
     2
  9
$DIMALTRND
 40
0.0
  9
$DIMAZIN
 70
     0
  9
$DIMDSEP
 70
    44
  9
$DIMATFIT
 70
     3
  9
$DIMFRAC
 70
     0
  9
$DIMLDRBLK
  1

  9
$DIMLUNIT
 70
     2
  9
$DIMLWD
 70
    -2
  9
$DIMLWE
 70
    -2
  9
$DIMTMOVE
 70
     0
  9
$LUNITS
 70
     2
  9
$LUPREC
 70
     6
  9
$SKETCHINC
 40
1.0
  9
$FILLETRAD
 40
0.0
  9
$AUNITS
 70
     0
  9
$AUPREC
 70
     2
  9
$MENU
  1
.
  9
$ELEVATION
 40
0.0
  9
$PELEVATION
 40
0.0
  9
$THICKNESS
 40
0.0
  9
$LIMCHECK
 70
     0
  9
$CHAMFERA
 40
0.0
  9
$CHAMFERB
 40
0.0
  9
$CHAMFERC
 40
0.0
  9
$CHAMFERD
 40
0.0
  9
$SKPOLY
 70
     0
  9
$TDCREATE
 40
2460253.980154456
  9
$TDUCREATE
 40
2460254.146821123
  9
$TDUPDATE
 40
2460253.980180532
  9
$TDUUPDATE
 40
2460254.146847199
  9
$TDINDWG
 40
0.0000000116
  9
$TDUSRTIMER
 40
0.0000000116
  9
$USRTIMER
 70
     1
  9
$ANGBASE
 50
0.0
  9
$ANGDIR
 70
     0
  9
$PDMODE
 70
     0
  9
$PDSIZE
 40
-1.0
  9
$PLINEWID
 40
0.0
  9
$SPLFRAME
 70
     0
  9
$SPLINETYPE
 70
     6
  9
$SPLINESEGS
 70
     8
  9
$HANDSEED
  5
403
  9
$SURFTAB1
 70
     6
  9
$SURFTAB2
 70
     6
  9
$SURFTYPE
 70
     6
  9
$SURFU
 70
     6
  9
$SURFV
 70
     6
  9
$UCSBASE
  2

  9
$UCSNAME
  2

  9
$UCSORG
 10
0.0
 20
0.0
 30
0.0
  9
$UCSXDIR
 10
1.0
 20
0.0
 30
0.0
  9
$UCSYDIR
 10
0.0
 20
1.0
 30
0.0
  9
$UCSORTHOREF
  2

  9
$UCSORTHOVIEW
 70
     0
  9
$UCSORGTOP
 10
0.0
 20
0.0
 30
0.0
  9
$UCSORGBOTTOM
 10
0.0
 20
0.0
 30
0.0
  9
$UCSORGLEFT
 10
0.0
 20
0.0
 30
0.0
  9
$UCSORGRIGHT
 10
0.0
 20
0.0
 30
0.0
  9
$UCSORGFRONT
 10
0.0
 20
0.0
 30
0.0
  9
$UCSORGBACK
 10
0.0
 20
0.0
 30
0.0
  9
$PUCSBASE
  2

  9
$PUCSNAME
  2

  9
$PUCSORG
 10
0.0
 20
0.0
 30
0.0
  9
$PUCSXDIR
 10
1.0
 20
0.0
 30
0.0
  9
$PUCSYDIR
 10
0.0
 20
1.0
 30
0.0
  9
$PUCSORTHOREF
  2

  9
$PUCSORTHOVIEW
 70
     0
  9
$PUCSORGTOP
 10
0.0
 20
0.0
 30
0.0
  9
$PUCSORGBOTTOM
 10
0.0
 20
0.0
 30
0.0
  9
$PUCSORGLEFT
 10
0.0
 20
0.0
 30
0.0
  9
$PUCSORGRIGHT
 10
0.0
 20
0.0
 30
0.0
  9
$PUCSORGFRONT
 10
0.0
 20
0.0
 30
0.0
  9
$PUCSORGBACK
 10
0.0
 20
0.0
 30
0.0
  9
$USERI1
 70
     0
  9
$USERI2
 70
     0
  9
$USERI3
 70
     0
  9
$USERI4
 70
     0
  9
$USERI5
 70
     0
  9
$USERR1
 40
0.0
  9
$USERR2
 40
0.0
  9
$USERR3
 40
0.0
  9
$USERR4
 40
0.0
  9
$USERR5
 40
0.0
  9
$WORLDVIEW
 70
     1
  9
$SHADEDGE
 70
     3
  9
$SHADEDIF
 70
    70
  9
$TILEMODE
 70
     1
  9
$MAXACTVP
 70
    64
  9
$PINSBASE
 10
0.0
 20
0.0
 30
0.0
  9
$PLIMCHECK
 70
     0
  9
$PEXTMIN
 10
1.0000000000E+20
 20
1.0000000000E+20
 30
1.0000000000E+20
  9
$PEXTMAX
 10
-1.0000000000E+20
 20
-1.0000000000E+20
 30
-1.0000000000E+20
  9
$PLIMMIN
 10
0.0
 20
0.0
  9
$PLIMMAX
 10
420.0
 20
297.0
  9
$UNITMODE
 70
     0
  9
$VISRETAIN
 70
     1
  9
$PLINEGEN
 70
     0
  9
$PSLTSCALE
 70
     1
  9
$TREEDEPTH
 70
  3020
  9
$CMLSTYLE
  2
Standard
  9
$CMLJUST
 70
     0
  9
$CMLSCALE
 40
20.0
  9
$PROXYGRAPHICS
 70
     1
  9
$MEASUREMENT
 70
     1
  9
$CELWEIGHT
370
    -1
  9
$ENDCAPS
280
     0
  9
$JOINSTYLE
280
     0
  9
$LWDISPLAY
290
     1
  9
$INSUNITS
 70
     4
  9
$HYPERLINKBASE
  1

  9
$STYLESHEET
  1

  9
$XEDIT
290
     1
  9
$CEPSNTYPE
380
     0
  9
$PSTYLEMODE
290
     1
  9
$FINGERPRINTGUID
  2
{e8993d9c-7310-4567-8a9d-53741b4727e9}
  9
$VERSIONGUID
  2
{FAEB1C32-E019-11D5-929B-00C0DF256EC4}
  9
$EXTNAMES
290
     1
  9
$PSVPSCALE
 40
0.0
  9
$OLESTARTUP
290
     0
  0
ENDSEC
  0
SECTION
  2
CLASSES
  0
CLASS
  1
ACDBDICTIONARYWDFLT
  2
AcDbDictionaryWithDefault
  3
ObjectDBX Classes
 90
        0
280
     0
281
     0
  0
CLASS
  1
VISUALSTYLE
  2
AcDbVisualStyle
  3
ObjectDBX Classes
 90
     4095
280
     0
281
     0
  0
CLASS
  1
MATERIAL
  2
AcDbMaterial
  3
ObjectDBX Classes
 90
     1153
280
     0
281
     0
  0
CLASS
  1
SCALE
  2
AcDbScale
  3
ObjectDBX Classes
 90
     1153
280
     0
281
     0
  0
CLASS
  1
TABLESTYLE
  2
AcDbTableStyle
  3
ObjectDBX Classes
 90
     4095
280
     0
281
     0
  0
CLASS
  1
MLEADERSTYLE
  2
AcDbMLeaderStyle
  3
ACDB_MLEADERSTYLE_CLASS
 90
     4095
280
     0
281
     0
  0
CLASS
  1
SUN
  2
AcDbSun
  3
SCENEOE
 90
     1153
280
     0
281
     0
  0
CLASS
  1
ACDBPLACEHOLDER
  2
AcDbPlaceHolder
  3
ObjectDBX Classes
 90
        0
280
     0
281
     0
  0
CLASS
  1
LAYOUT
  2
AcDbLayout
  3
ObjectDBX Classes
 90
        0
280
     0
281
     0
  0
ENDSEC
  0
SECTION
  2
TABLES
  0
TABLE
  2
VPORT
  5
8
330
0
100
AcDbSymbolTable
 70
     1
  0
VPORT
  5
29
330
8
100
AcDbSymbolTableRecord
100
AcDbViewportTableRecord
  2
*Active
 70
     0
 10
0.0
 20
0.0
 11
1.0
 21
1.0
 12
0.0000000149
 22
0.000000016
 13
0.0
 23
0.0
 14
10.0
 24
10.0
 15
10.0
 25
10.0
 16
0.0
 26
0.0
 36
1.0
 17
0.0
 27
0.0
 37
0.0
 40
16.3199711747
 41
0.9901512992
 42
50.0
 43
0.0
 44
0.0
 50
0.0
 51
0.0
 71
     0
 72
   100
 73
     1
 74
     3
 75
     0
 76
     0
 77
     0
 78
     0
281
     0
 65
     1
110
0.0
120
0.0
130
0.0
111
1.0
121
0.0
131
0.0
112
0.0
122
1.0
132
0.0
 79
     0
146
0.0
  0
ENDTAB
  0
TABLE
  2
LTYPE
  5
5
330
0
100
AcDbSymbolTable
 70
     6
  0
LTYPE
  5
14
330
5
100
AcDbSymbolTableRecord
100
AcDbLinetypeTableRecord
  2
ByBlock
 70
     0
  3

 72
    65
 73
     0
 40
0.0
  0
LTYPE
  5
15
330
5
100
AcDbSymbolTableRecord
100
AcDbLinetypeTableRecord
  2
ByLayer
 70
     0
  3

 72
    65
 73
     0
 40
0.0
  0
LTYPE
  5
16
330
5
100
AcDbSymbolTableRecord
100
AcDbLinetypeTableRecord
  2
Continuous
 70
     0
  3
Solid line
 72
    65
 73
     0
 40
0.0
  0
LTYPE
  5
5E
330
5
100
AcDbSymbolTableRecord
100
AcDbLinetypeTableRecord
  2
HIDDEN
 70
     0
  3
Hidden __ __ __ __ __ __ __ __ __ __ __ __ __ __
 72
    65
 73
     2
 40
1.905
 49
1.27
 74
     0
 49
-0.635
 74
     0
  0
LTYPE
  5
5F
330
5
100
AcDbSymbolTableRecord
100
AcDbLinetypeTableRecord
  2
PHANTOM
 70
     0
  3
Phantom ______  __  __  ______  __  __  ______
 72
    65
 73
     6
 40
12.7
 49
6.35
 74
     0
 49
-1.27
 74
     0
 49
1.27
 74
     0
 49
-1.27
 74
     0
 49
1.27
 74
     0
 49
-1.27
 74
     0
  0
LTYPE
  5
60
330
5
100
AcDbSymbolTableRecord
100
AcDbLinetypeTableRecord
  2
CENTER
 70
     0
  3
Center ____ _ ____ _ ____ _ ____ _ ____ _ ____
 72
    65
 73
     4
 40
10.16
 49
6.35
 74
     0
 49
-1.27
 74
     0
 49
1.27
 74
     0
 49
-1.27
 74
     0
  0
LTYPE
  5
61
330
5
100
AcDbSymbolTableRecord
100
AcDbLinetypeTableRecord
  2
CENTERX2
 70
     0
  3
Center (2x) ________  __  ________  __  _____
 72
    65
 73
     4
 40
20.32
 49
12.7
 74
     0
 49
-2.54
 74
     0
 49
2.54
 74
     0
 49
-2.54
 74
     0
  0
LTYPE
  5
62
330
5
100
AcDbSymbolTableRecord
100
AcDbLinetypeTableRecord
  2
DOT2
 70
     0
  3
Dot (.5x) ........................................
 72
    65
 73
     2
 40
0.635
 49
0.0
 74
     0
 49
-0.635
 74
     0
  0
ENDTAB
  0
TABLE
  2
LAYER
  5
2
330
0
100
AcDbSymbolTable
 70
     1
  0
LAYER
  5
10
330
2
100
AcDbSymbolTableRecord
100
AcDbLayerTableRecord
  2
0
 70
     0
 62
     7
  6
Continuous
370
    -3
390
F
  0
ENDTAB
  0
TABLE
  2
STYLE
  5
3
330
0
100
AcDbSymbolTable
 70
     2
  0
STYLE
  5
11
330
3
100
AcDbSymbolTableRecord
100
AcDbTextStyleTableRecord
  2
Standard
 70
     0
 40
0.0
 41
1.0
 50
0.0
 71
     0
 42
3.175
  3
txt
  4

  0
STYLE
  5
3FF
330
3
100
AcDbSymbolTableRecord
100
AcDbTextStyleTableRecord
  2
SLDTEXTSTYLE0
 70
     0
 40
0.0
 41
0.7
 50
0.0
 71
     0
 42
3.175
  3
TXT
  4

  0
ENDTAB
  0
TABLE
  2
VIEW
  5
6
330
0
100
AcDbSymbolTable
 70
     0
  0
ENDTAB
  0
TABLE
  2
UCS
  5
7
330
0
100
AcDbSymbolTable
 70
     0
  0
ENDTAB
  0
TABLE
  2
APPID
  5
9
330
0
100
AcDbSymbolTable
 70
     1
  0
APPID
  5
12
330
9
100
AcDbSymbolTableRecord
100
AcDbRegAppTableRecord
  2
ACAD
 70
     0
  0
ENDTAB
  0
TABLE
  2
DIMSTYLE
  5
A
330
0
100
AcDbSymbolTable
 70
     1
100
AcDbDimStyleTable
  0
DIMSTYLE
105
27
330
A
100
AcDbSymbolTableRecord
100
AcDbDimStyleTableRecord
  2
ISO-25
 70
     0
 41
2.5
 42
0.625
 43
3.75
 44
1.25
 73
     0
 74
     0
 77
     1
 78
     8
140
2.5
141
2.5
143
0.0393700787
147
0.625
171
     3
172
     1
178
     0
271
     2
272
     2
274
     3
278
    44
283
     0
284
     8
340
11
  0
ENDTAB
  0
TABLE
  2
BLOCK_RECORD
  5
1
330
0
100
AcDbSymbolTable
 70
     1
  0
BLOCK_RECORD
  5
1F
330
1
100
AcDbSymbolTableRecord
100
AcDbBlockTableRecord
  2
*Model_Space
340
22
  0
BLOCK_RECORD
  5
1B
330
1
100
AcDbSymbolTableRecord
100
AcDbBlockTableRecord
  2
*Paper_Space
340
1E
  0
BLOCK_RECORD
  5
23
330
1
100
AcDbSymbolTableRecord
100
AcDbBlockTableRecord
  2
*Paper_Space0
340
26
  0
ENDTAB
  0
ENDSEC
  0
SECTION
  2
BLOCKS
  0
BLOCK
  5
20
330
1F
100
AcDbEntity
  8
0
100
AcDbBlockBegin
  2
*Model_Space
 70
     0
 10
0.0
 20
0.0
 30
0.0
  3
*Model_Space
  1

  0
ENDBLK
  5
21
330
1F
100
AcDbEntity
  8
0
100
AcDbBlockEnd
  0
BLOCK
  5
1C
330
1B
100
AcDbEntity
 67
     1
  8
0
100
AcDbBlockBegin
  2
*Paper_Space
 70
     0
 10
0.0
 20
0.0
 30
0.0
  3
*Paper_Space
  1

  0
ENDBLK
  5
1D
330
1B
100
AcDbEntity
 67
     1
  8
0
100
AcDbBlockEnd
  0
BLOCK
  5
24
330
23
100
AcDbEntity
  8
0
100
AcDbBlockBegin
  2
*Paper_Space0
 70
     0
 10
0.0
 20
0.0
 30
0.0
  3
*Paper_Space0
  1

  0
ENDBLK
  5
25
330
23
100
AcDbEntity
  8
0
100
AcDbBlockEnd
  0
ENDSEC
  0
SECTION
  2
ENTITIES
  0
CIRCLE
  5
63
330
1F
100
AcDbEntity
  8
0
  6
Continuous
 62
     7
370
    25
100
AcDbCircle
 10
-4.174999982
 20
0.0
 30
0.0
 40
0.8000000000000009
  0
CIRCLE
  5
64
330
1F
100
AcDbEntity
  8
0
  6
Continuous
 62
     7
370
    25
100
AcDbCircle
 10
0.0
 20
4.174999982
 30
0.0
 40
0.7999999999999989
  0
CIRCLE
  5
65
330
1F
100
AcDbEntity
  8
0
  6
Continuous
 62
     7
370
    25
100
AcDbCircle
 10
4.174999982
 20
0.0
 30
0.0
 40
0.8
  0
CIRCLE
  5
66
330
1F
100
AcDbEntity
  8
0
  6
Continuous
 62
     7
370
    25
100
AcDbCircle
 10
0.0
 20
-4.174999982
 30
0.0
 40
0.8000000000000016
  0
ARC
  5
67
330
1F
100
AcDbEntity
  8
0
  6
Continuous
 62
     7
370
    25
100
AcDbCircle
 10
0.0
 20
0.0
 30
0.0
 40
1.999999997959999
100
AcDbArc
 50
131.4096219546
 51
48.5903780454
  0
LINE
  5
68
330
1F
100
AcDbEntity
  8
0
  6
Continuous
 62
     7
370
    25
100
AcDbLine
 10
-1.3228756501
 20
1.500000002
 30
0.0
 11
1.3228756501
 21
1.500000002
 31
0.0
  0
LINE
  5
69
330
1F
100
AcDbEntity
  8
0
  6
Continuous
 62
     7
370
    25
100
AcDbLine
 10
7.9211964045
 20
1.1200091481
 30
0.0
 11
7.8012199671
 21
1.0218800415
 31
0.0
  0
ARC
  5
6A
330
1F
100
AcDbEntity
  8
0
  6
Continuous
 62
     7
370
    25
100
AcDbCircle
 10
-0.0000139654
 20
-0.0000025799
 30
0.0
 40
7.999999999682662
100
AcDbArc
 50
8.0479310789
 51
11.952070484
  0
LINE
  5
6B
330
1F
100
AcDbEntity
  8
0
  6
Continuous
 62
     7
370
    25
100
AcDbLine
 10
7.6802524064
 20
1.7079213413
 30
0.0
 11
7.8265554934
 21
1.6567443836
 31
0.0
  0
LINE
  5
6C
330
1F
100
AcDbEntity
  8
0
  6
Continuous
 62
     7
370
    25
100
AcDbLine
 10
7.5248589143
 20
1.7553222649
 30
0.0
 11
7.6802524064
 21
1.7079213413
 31
0.0
  0
LINE
  5
6D
330
1F
100
AcDbEntity
  8
0
  6
Continuous
 62
     7
370
    25
100
AcDbLine
 10
7.3793284956
 20
1.7931384703
 30
0.0
 11
7.5248589143
 21
1.7553222649
 31
0.0
  0
LINE
  5
6E
330
1F
100
AcDbEntity
  8
0
  6
Continuous
 62
     7
370
    25
100
AcDbLine
 10
7.2432035578
 20
1.8224805907
 30
0.0
 11
7.3793284956
 21
1.7931384703
 31
0.0
  0
LINE
  5
6F
330
1F
100
AcDbEntity
  8
0
  6
Continuous
 62
     7
370
    25
100
AcDbLine
 10
7.1182295096
 20
1.8439624647
 30
0.0
 11
7.2432035578
 21
1.8224805907
 31
0.0
  0
LINE
  5
70
330
1F
100
AcDbEntity
  8
0
  6
Continuous
 62
     7
370
    25
100
AcDbLine
 10
7.0050176219
 20
1.8585940902
 30
0.0
 11
7.1182295096
 21
1.8439624647
 31
0.0
  0
LINE
  5
71
330
1F
100
AcDbEntity
  8
0
  6
Continuous
 62
     7
370
    25
100
AcDbLine
 10
6.9032729993
 20
1.8674493906
 30
0.0
 11
7.0050176219
 21
1.8585940902
 31
0.0
  0
LINE
  5
72
330
1F
100
AcDbEntity
  8
0
  6
Continuous
 62
     7
370
    25
100
AcDbLine
 10
6.8104637695
 20
1.8716075157
 30
0.0
 11
6.9032729993
 21
1.8674493906
 31
0.0
  0
LINE
  5
73
330
1F
100
AcDbEntity
  8
0
  6
Continuous
 62
     7
370
    25
100
AcDbLine
 10
6.7318430933
 20
1.8718099281
 30
0.0
 11
6.8104637695
 21
1.8716075157
 31
0.0
  0
LINE
  5
74
330
1F
100
AcDbEntity
  8
0
  6
Continuous
 62
     7
370
    25
100
AcDbLine
 10
6.6647768249
 20
1.8691834616
 30
0.0
 11
6.7318430933
 21
1.8718099281
 31
0.0
  0
LINE
  5
75
330
1F
100
AcDbEntity
  8
0
  6
Continuous
 62
     7
370
    25
100
AcDbLine
 10
6.567810051
 20
1.8595903241
 30
0.0
 11
6.6647768249
 21
1.8691834616
 31
0.0
  0
LINE
  5
76
330
1F
100
AcDbEntity
  8
0
  6
Continuous
 62
     7
370
    25
100
AcDbLine
 10
6.5131324389
 20
1.8495329986
 30
0.0
 11
6.567810051
 21
1.8595903241
 31
0.0
  0
LINE
  5
77
330
1F
100
AcDbEntity
  8
0
  6
Continuous
 62
     7
370
    25
100
AcDbLine
 10
6.4537864238
 20
1.8339986241
 30
0.0
 11
6.5131324389
 21
1.8495329986
 31
0.0
  0
LINE
  5
78
330
1F
100
AcDbEntity
  8
0
  6
Continuous
 62
     7
370
    25
100
AcDbLine
 10
6.3637712405
 20
1.817060062
 30
0.0
 11
6.4537864238
 21
1.8339986241
 31
0.0
  0
LINE
  5
79
330
1F
100
AcDbEntity
  8
0
  6
Continuous
 62
     7
370
    25
100
AcDbLine
 10
6.2839360446
 20
1.8104246923
 30
0.0
 11
6.3637712405
 21
1.817060062
 31
0.0
  0
LINE
  5
7A
330
1F
100
AcDbEntity
  8
0
  6
Continuous
 62
     7
370
    25
100
AcDbLine
 10
6.2149756549
 20
1.8132066019
 30
0.0
 11
6.2839360446
 21
1.8104246923
 31
0.0
  0
LINE
  5
7B
330
1F
100
AcDbEntity
  8
0
  6
Continuous
 62
     7
370
    25
100
AcDbLine
 10
6.1847804624
 20
1.8178386128
 30
0.0
 11
6.2149756549
 21
1.8132066019
 31
0.0
  0
LINE
  5
7C
330
1F
100
AcDbEntity
  8
0
  6
Continuous
 62
     7
370
    25
100
AcDbLine
 10
6.1575168074
 20
1.8244741049
 30
0.0
 11
6.1847804624
 21
1.8178386128
 31
0.0
  0
LINE
  5
7D
330
1F
100
AcDbEntity
  8
0
  6
Continuous
 62
     7
370
    25
100
AcDbLine
 10
6.133283058
 20
1.8329891134
 30
0.0
 11
6.1575168074
 21
1.8244741049
 31
0.0
  0
LINE
  5
7E
330
1F
100
AcDbEntity
  8
0
  6
Continuous
 62
     7
370
    25
100
AcDbLine
 10
6.1121363612
 20
1.8432556709
 30
0.0
 11
6.133283058
 21
1.8329891134
 31
0.0
  0
LINE
  5
7F
330
1F
100
AcDbEntity
  8
0
  6
Continuous
 62
     7
370
    25
100
AcDbLine
 10
6.0941307112
 20
1.8551549968
 30
0.0
 11
6.1121363612
 21
1.8432556709
 31
0.0
  0
LINE
  5
80
330
1F
100
AcDbEntity
  8
0
  6
Continuous
 62
     7
370
    25
100
AcDbLine
 10
6.0793266335
 20
1.8685494904
 30
0.0
 11
6.0941307112
 21
1.8551549968
 31
0.0
  0
LINE
  5
81
330
1F
100
AcDbEntity
  8
0
  6
Continuous
 62
     7
370
    25
100
AcDbLine
 10
6.0677782554
 20
1.8833205508
 30
0.0
 11
6.0793266335
 21
1.8685494904
 31
0.0
  0
LINE
  5
82
330
1F
100
AcDbEntity
  8
0
  6
Continuous
 62
     7
370
    25
100
AcDbLine
 10
6.0595460851
 20
1.8993304789
 30
0.0
 11
6.0677782554
 21
1.8833205508
 31
0.0
  0
LINE
  5
83
330
1F
100
AcDbEntity
  8
0
  6
Continuous
 62
     7
370
    25
100
AcDbLine
 10
5.9670481198
 20
2.1718279307
 30
0.0
 11
6.0595460851
 21
1.8993304789
 31
0.0
  0
LINE
  5
84
330
1F
100
AcDbEntity
  8
0
  6
Continuous
 62
     7
370
    25
100
AcDbLine
 10
5.862747693
 20
2.4400295957
 30
0.0
 11
5.9670481198
 21
2.1718279307
 31
0.0
  0
LINE
  5
85
330
1F
100
AcDbEntity
  8
0
  6
Continuous
 62
     7
370
    25
100
AcDbLine
 10
5.8587628991
 20
2.457585461
 30
0.0
 11
5.862747693
 21
2.4400295957
 31
0.0
  0
LINE
  5
86
330
1F
100
AcDbEntity
  8
0
  6
Continuous
 62
     7
370
    25
100
AcDbLine
 10
5.8581148622
 20
2.4763239715
 30
0.0
 11
5.8587628991
 21
2.457585461
 31
0.0
  0
LINE
  5
87
330
1F
100
AcDbEntity
  8
0
  6
Continuous
 62
     7
370
    25
100
AcDbLine
 10
5.8608456122
 20
2.4961005321
 30
0.0
 11
5.8581148622
 21
2.4763239715
 31
0.0
  0
LINE
  5
88
330
1F
100
AcDbEntity
  8
0
  6
Continuous
 62
     7
370
    25
100
AcDbLine
 10
5.8669900104
 20
2.5167897847
 30
0.0
 11
5.8608456122
 21
2.4961005321
 31
0.0
  0
LINE
  5
89
330
1F
100
AcDbEntity
  8
0
  6
Continuous
 62
     7
370
    25
100
AcDbLine
 10
5.8765901042
 20
2.5382472328
 30
0.0
 11
5.8669900104
 21
2.5167897847
 31
0.0
  0
LINE
  5
8A
330
1F
100
AcDbEntity
  8
0
  6
Continuous
 62
     7
370
    25
100
AcDbLine
 10
5.8896808187
 20
2.5603473037
 30
0.0
 11
5.8765901042
 21
2.5382472328
 31
0.0
  0
LINE
  5
8B
330
1F
100
AcDbEntity
  8
0
  6
Continuous
 62
     7
370
    25
100
AcDbLine
 10
5.9063008225
 20
2.5829551341
 30
0.0
 11
5.8896808187
 21
2.5603473037
 31
0.0
  0
LINE
  5
8C
330
1F
100
AcDbEntity
  8
0
  6
Continuous
 62
     7
370
    25
100
AcDbLine
 10
5.92645432
 20
2.6059125912
 30
0.0
 11
5.9063008225
 21
2.5829551341
 31
0.0
  0
LINE
  5
8D
330
1F
100
AcDbEntity
  8
0
  6
Continuous
 62
     7
370
    25
100
AcDbLine
 10
5.9774928315
 20
2.6523704458
 30
0.0
 11
5.92645432
 21
2.6059125912
 31
0.0
  0
LINE
  5
8E
330
1F
100
AcDbEntity
  8
0
  6
Continuous
 62
     7
370
    25
100
AcDbLine
 10
6.0429153142
 20
2.6986045507
 30
0.0
 11
5.9774928315
 21
2.6523704458
 31
0.0
  0
LINE
  5
8F
330
1F
100
AcDbEntity
  8
0
  6
Continuous
 62
     7
370
    25
100
AcDbLine
 10
6.1227588193
 20
2.7434895757
 30
0.0
 11
6.0429153142
 21
2.6986045507
 31
0.0
  0
LINE
  5
90
330
1F
100
AcDbEntity
  8
0
  6
Continuous
 62
     7
370
    25
100
AcDbLine
 10
6.1782057893
 20
2.7697363578
 30
0.0
 11
6.1227588193
 21
2.7434895757
 31
0.0
  0
LINE
  5
91
330
1F
100
AcDbEntity
  8
0
  6
Continuous
 62
     7
370
    25
100
AcDbLine
 10
6.2265560513
 20
2.7971781249
 30
0.0
 11
6.1782057893
 21
2.7697363578
 31
0.0
  0
LINE
  5
92
330
1F
100
AcDbEntity
  8
0
  6
Continuous
 62
     7
370
    25
100
AcDbLine
 10
6.3070032477
 20
2.8521583894
 30
0.0
 11
6.2265560513
 21
2.7971781249
 31
0.0
  0
LINE
  5
93
330
1F
100
AcDbEntity
  8
0
  6
Continuous
 62
     7
370
    25
100
AcDbLine
 10
6.3600671977
 20
2.8932557929
 30
0.0
 11
6.3070032477
 21
2.8521583894
 31
0.0
  0
LINE
  5
94
330
1F
100
AcDbEntity
  8
0
  6
Continuous
 62
     7
370
    25
100
AcDbLine
 10
6.4201640741
 20
2.943947196
 30
0.0
 11
6.3600671977
 21
2.8932557929
 31
0.0
  0
LINE
  5
95
330
1F
100
AcDbEntity
  8
0
  6
Continuous
 62
     7
370
    25
100
AcDbLine
 10
6.4885872659
 20
3.0067891436
 30
0.0
 11
6.4201640741
 21
2.943947196
 31
0.0
  0
LINE
  5
96
330
1F
100
AcDbEntity
  8
0
  6
Continuous
 62
     7
370
    25
100
AcDbLine
 10
6.5608360662
 20
3.0789729045
 30
0.0
 11
6.4885872659
 21
3.0067891436
 31
0.0
  0
LINE
  5
97
330
1F
100
AcDbEntity
  8
0
  6
Continuous
 62
     7
370
    25
100
AcDbLine
 10
6.6381563419
 20
3.1629525183
 30
0.0
 11
6.5608360662
 21
3.0789729045
 31
0.0
  0
LINE
  5
98
330
1F
100
AcDbEntity
  8
0
  6
Continuous
 62
     7
370
    25
100
AcDbLine
 10
6.7200837426
 20
3.2597403996
 30
0.0
 11
6.6381563419
 21
3.1629525183
 31
0.0
  0
LINE
  5
99
330
1F
100
AcDbEntity
  8
0
  6
Continuous
 62
     7
370
    25
100
AcDbLine
 10
6.8055007871
 20
3.3697171796
 30
0.0
 11
6.7200837426
 21
3.2597403996
 31
0.0
  0
LINE
  5
9A
330
1F
100
AcDbEntity
  8
0
  6
Continuous
 62
     7
370
    25
100
AcDbLine
 10
6.8926757199
 20
3.4922312755
 30
0.0
 11
6.8055007871
 21
3.3697171796
 31
0.0
  0
LINE
  5
9B
330
1F
100
AcDbEntity
  8
0
  6
Continuous
 62
     7
370
    25
100
AcDbLine
 10
6.9812453093
 20
3.6284274534
 30
0.0
 11
6.8926757199
 21
3.4922312755
 31
0.0
  0
LINE
  5
9C
330
1F
100
AcDbEntity
  8
0
  6
Continuous
 62
     7
370
    25
100
AcDbLine
 10
7.0604241016
 20
3.7616731138
 30
0.0
 11
6.9812453093
 21
3.6284274534
 31
0.0
  0
ARC
  5
9D
330
1F
100
AcDbEntity
  8
0
  6
Continuous
 62
     7
370
    25
100
AcDbCircle
 10
-0.0000125368
 20
-0.0000065843
 30
0.0
 40
7.999999979692708
100
AcDbArc
 50
28.0479265789
 51
31.9520658231
  0
LINE
  5
9E
330
1F
100
AcDbEntity
  8
0
  6
Continuous
 62
     7
370
    25
100
AcDbLine
 10
6.6329330919
 20
4.2317220518
 30
0.0
 11
6.7879165233
 21
4.2336701571
 31
0.0
  0
LINE
  5
9F
330
1F
100
AcDbEntity
  8
0
  6
Continuous
 62
     7
370
    25
100
AcDbLine
 10
6.4706988848
 20
4.2231166918
 30
0.0
 11
6.6329330919
 21
4.2317220518
 31
0.0
  0
LINE
  5
A0
330
1F
100
AcDbEntity
  8
0
  6
Continuous
 62
     7
370
    25
100
AcDbLine
 10
6.3210110661
 20
4.2088779913
 30
0.0
 11
6.4706988848
 21
4.2231166918
 31
0.0
  0
LINE
  5
A1
330
1F
100
AcDbEntity
  8
0
  6
Continuous
 62
     7
370
    25
100
AcDbLine
 10
6.1830598755
 20
4.1898930404
 30
0.0
 11
6.3210110661
 21
4.2088779913
 31
0.0
  0
LINE
  5
A2
330
1F
100
AcDbEntity
  8
0
  6
Continuous
 62
     7
370
    25
100
AcDbLine
 10
6.0582754838
 20
4.1673357266
 30
0.0
 11
6.1830598755
 21
4.1898930404
 31
0.0
  0
LINE
  5
A3
330
1F
100
AcDbEntity
  8
0
  6
Continuous
 62
     7
370
    25
100
AcDbLine
 10
5.9468867961
 20
4.1423642974
 30
0.0
 11
6.0582754838
 21
4.1673357266
 31
0.0
  0
LINE
  5
A4
330
1F
100
AcDbEntity
  8
0
  6
Continuous
 62
     7
370
    25
100
AcDbLine
 10
5.8482494118
 20
4.1158868477
 30
0.0
 11
5.9468867961
 21
4.1423642974
 31
0.0
  0
LINE
  5
A5
330
1F
100
AcDbEntity
  8
0
  6
Continuous
 62
     7
370
    25
100
AcDbLine
 10
5.7596150107
 20
4.0880515697
 30
0.0
 11
5.8482494118
 21
4.1158868477
 31
0.0
  0
LINE
  5
A6
330
1F
100
AcDbEntity
  8
0
  6
Continuous
 62
     7
370
    25
100
AcDbLine
 10
5.6856666274
 20
4.0613519446
 30
0.0
 11
5.7596150107
 21
4.0880515697
 31
0.0
  0
LINE
  5
A7
330
1F
100
AcDbEntity
  8
0
  6
Continuous
 62
     7
370
    25
100
AcDbLine
 10
5.6235432175
 20
4.0359458866
 30
0.0
 11
5.6856666274
 21
4.0613519446
 31
0.0
  0
LINE
  5
A8
330
1F
100
AcDbEntity
  8
0
  6
Continuous
 62
     7
370
    25
100
AcDbLine
 10
5.5357053202
 20
3.9937666807
 30
0.0
 11
5.6235432175
 21
4.0359458866
 31
0.0
  0
LINE
  5
A9
330
1F
100
AcDbEntity
  8
0
  6
Continuous
 62
     7
370
    25
100
AcDbLine
 10
5.4877649023
 20
3.9656149591
 30
0.0
 11
5.5357053202
 21
3.9937666807
 31
0.0
  0
LINE
  5
AA
330
1F
100
AcDbEntity
  8
0
  6
Continuous
 62
     7
370
    25
100
AcDbLine
 10
5.4373110395
 20
3.9307199469
 30
0.0
 11
5.4877649023
 21
3.9656149591
 31
0.0
  0
LINE
  5
AB
330
1F
100
AcDbEntity
  8
0
  6
Continuous
 62
     7
370
    25
100
AcDbLine
 10
5.3585177234
 20
3.8840159239
 30
0.0
 11
5.4373110395
 21
3.9307199469
 31
0.0
  0
LINE
  5
AC
330
1F
100
AcDbEntity
  8
0
  6
Continuous
 62
     7
370
    25
100
AcDbLine
 10
5.285766631
 20
3.8504754637
 30
0.0
 11
5.3585177234
 21
3.8840159239
 31
0.0
  0
LINE
  5
AD
330
1F
100
AcDbEntity
  8
0
  6
Continuous
 62
     7
370
    25
100
AcDbLine
 10
5.2200136124
 20
3.8295038498
 30
0.0
 11
5.285766631
 21
3.8504754637
 31
0.0
  0
LINE
  5
AE
330
1F
100
AcDbEntity
  8
0
  6
Continuous
 62
     7
370
    25
100
AcDbLine
 10
5.1900551561
 20
3.82352901
 30
0.0
 11
5.2200136124
 21
3.8295038498
 31
0.0
  0
LINE
  5
AF
330
1F
100
AcDbEntity
  8
0
  6
Continuous
 62
     7
370
    25
100
AcDbLine
 10
5.1621662956
 20
3.8204396251
 30
0.0
 11
5.1900551561
 21
3.82352901
 31
0.0
  0
LINE
  5
B0
330
1F
100
AcDbEntity
  8
0
  6
Continuous
 62
     7
370
    25
100
AcDbLine
 10
5.1364816566
 20
3.8201526562
 30
0.0
 11
5.1621662956
 21
3.8204396251
 31
0.0
  0
LINE
  5
B1
330
1F
100
AcDbEntity
  8
0
  6
Continuous
 62
     7
370
    25
100
AcDbLine
 10
5.1130988567
 20
3.8225675241
 30
0.0
 11
5.1364816566
 21
3.8201526562
 31
0.0
  0
LINE
  5
B2
330
1F
100
AcDbEntity
  8
0
  6
Continuous
 62
     7
370
    25
100
AcDbLine
 10
5.0921092854
 20
3.827590942
 30
0.0
 11
5.1130988567
 21
3.8225675241
 31
0.0
  0
LINE
  5
B3
330
1F
100
AcDbEntity
  8
0
  6
Continuous
 62
     7
370
    25
100
AcDbLine
 10
5.0736168812
 20
3.8351144128
 30
0.0
 11
5.0921092854
 21
3.827590942
 31
0.0
  0
LINE
  5
B4
330
1F
100
AcDbEntity
  8
0
  6
Continuous
 62
     7
370
    25
100
AcDbLine
 10
5.0577129525
 20
3.8450447654
 30
0.0
 11
5.0736168812
 21
3.8351144128
 31
0.0
  0
LINE
  5
B5
330
1F
100
AcDbEntity
  8
0
  6
Continuous
 62
     7
370
    25
100
AcDbLine
 10
5.0445014726
 20
3.8572736998
 30
0.0
 11
5.0577129525
 21
3.8450447654
 31
0.0
  0
LINE
  5
B6
330
1F
100
AcDbEntity
  8
0
  6
Continuous
 62
     7
370
    25
100
AcDbLine
 10
4.864382208
 20
4.0817013423
 30
0.0
 11
5.0445014726
 21
3.8572736998
 31
0.0
  0
LINE
  5
B7
330
1F
100
AcDbEntity
  8
0
  6
Continuous
 62
     7
370
    25
100
AcDbLine
 10
4.6746414579
 20
4.2980556867
 30
0.0
 11
4.864382208
 21
4.0817013423
 31
0.0
  0
LINE
  5
B8
330
1F
100
AcDbEntity
  8
0
  6
Continuous
 62
     7
370
    25
100
AcDbLine
 10
4.6648925765
 20
4.3131898847
 30
0.0
 11
4.6746414579
 21
4.2980556867
 31
0.0
  0
LINE
  5
B9
330
1F
100
AcDbEntity
  8
0
  6
Continuous
 62
     7
370
    25
100
AcDbLine
 10
4.6578747422
 20
4.3305766631
 30
0.0
 11
4.6648925765
 21
4.3131898847
 31
0.0
  0
LINE
  5
BA
330
1F
100
AcDbEntity
  8
0
  6
Continuous
 62
     7
370
    25
100
AcDbLine
 10
4.6536767127
 20
4.350094564
 30
0.0
 11
4.6578747422
 21
4.3305766631
 31
0.0
  0
LINE
  5
BB
330
1F
100
AcDbEntity
  8
0
  6
Continuous
 62
     7
370
    25
100
AcDbLine
 10
4.6523744353
 20
4.3716375891
 30
0.0
 11
4.6536767127
 21
4.350094564
 31
0.0
  0
LINE
  5
BC
330
1F
100
AcDbEntity
  8
0
  6
Continuous
 62
     7
370
    25
100
AcDbLine
 10
4.6540566848
 20
4.3950843789
 30
0.0
 11
4.6523744353
 21
4.3716375891
 31
0.0
  0
LINE
  5
BD
330
1F
100
AcDbEntity
  8
0
  6
Continuous
 62
     7
370
    25
100
AcDbLine
 10
4.6587993275
 20
4.4203290509
 30
0.0
 11
4.6540566848
 21
4.3950843789
 31
0.0
  0
LINE
  5
BE
330
1F
100
AcDbEntity
  8
0
  6
Continuous
 62
     7
370
    25
100
AcDbLine
 10
4.6666846493
 20
4.4472577871
 30
0.0
 11
4.6587993275
 21
4.4203290509
 31
0.0
  0
LINE
  5
BF
330
1F
100
AcDbEntity
  8
0
  6
Continuous
 62
     7
370
    25
100
AcDbLine
 10
4.6777709003
 20
4.4757235385
 30
0.0
 11
4.6666846493
 21
4.4472577871
 31
0.0
  0
LINE
  5
C0
330
1F
100
AcDbEntity
  8
0
  6
Continuous
 62
     7
370
    25
100
AcDbLine
 10
4.7098417833
 20
4.5368359225
 30
0.0
 11
4.6777709003
 21
4.4757235385
 31
0.0
  0
LINE
  5
C1
330
1F
100
AcDbEntity
  8
0
  6
Continuous
 62
     7
370
    25
100
AcDbLine
 10
4.7555058238
 20
4.6026575229
 30
0.0
 11
4.7098417833
 21
4.5368359225
 31
0.0
  0
LINE
  5
C2
330
1F
100
AcDbEntity
  8
0
  6
Continuous
 62
     7
370
    25
100
AcDbLine
 10
4.8151827139
 20
4.6721437921
 30
0.0
 11
4.7555058238
 21
4.6026575229
 31
0.0
  0
LINE
  5
C3
330
1F
100
AcDbEntity
  8
0
  6
Continuous
 62
     7
370
    25
100
AcDbLine
 10
4.858308791
 20
4.7157716322
 30
0.0
 11
4.8151827139
 21
4.6721437921
 31
0.0
  0
LINE
  5
C4
330
1F
100
AcDbEntity
  8
0
  6
Continuous
 62
     7
370
    25
100
AcDbLine
 10
4.8943575665
 20
4.7580952183
 30
0.0
 11
4.858308791
 21
4.7157716322
 31
0.0
  0
LINE
  5
C5
330
1F
100
AcDbEntity
  8
0
  6
Continuous
 62
     7
370
    25
100
AcDbLine
 10
4.9511487626
 20
4.8372743391
 30
0.0
 11
4.8943575665
 21
4.7580952183
 31
0.0
  0
LINE
  5
C6
330
1F
100
AcDbEntity
  8
0
  6
Continuous
 62
     7
370
    25
100
AcDbLine
 10
4.9869565021
 20
4.894042222
 30
0.0
 11
4.9511487626
 21
4.8372743391
 31
0.0
  0
LINE
  5
C7
330
1F
100
AcDbEntity
  8
0
  6
Continuous
 62
     7
370
    25
100
AcDbLine
 10
5.0260915787
 20
4.9622308252
 30
0.0
 11
4.9869565021
 21
4.894042222
 31
0.0
  0
LINE
  5
C8
330
1F
100
AcDbEntity
  8
0
  6
Continuous
 62
     7
370
    25
100
AcDbLine
 10
5.0688951016
 20
5.0446851376
 30
0.0
 11
5.0260915787
 21
4.9622308252
 31
0.0
  0
LINE
  5
C9
330
1F
100
AcDbEntity
  8
0
  6
Continuous
 62
     7
370
    25
100
AcDbLine
 10
5.1120985538
 20
5.1372262441
 30
0.0
 11
5.0688951016
 21
5.0446851376
 31
0.0
  0
LINE
  5
CA
330
1F
100
AcDbEntity
  8
0
  6
Continuous
 62
     7
370
    25
100
AcDbLine
 10
5.1560330097
 20
5.2425863626
 30
0.0
 11
5.1120985538
 21
5.1372262441
 31
0.0
  0
LINE
  5
CB
330
1F
100
AcDbEntity
  8
0
  6
Continuous
 62
     7
370
    25
100
AcDbLine
 10
5.1999162149
 20
5.3615580714
 30
0.0
 11
5.1560330097
 21
5.2425863626
 31
0.0
  0
LINE
  5
CC
330
1F
100
AcDbEntity
  8
0
  6
Continuous
 62
     7
370
    25
100
AcDbLine
 10
5.2425677474
 20
5.4941166734
 30
0.0
 11
5.1999162149
 21
5.3615580714
 31
0.0
  0
LINE
  5
CD
330
1F
100
AcDbEntity
  8
0
  6
Continuous
 62
     7
370
    25
100
AcDbLine
 10
5.2825831609
 20
5.6390579533
 30
0.0
 11
5.2425677474
 21
5.4941166734
 31
0.0
  0
LINE
  5
CE
330
1F
100
AcDbEntity
  8
0
  6
Continuous
 62
     7
370
    25
100
AcDbLine
 10
5.3192294817
 20
5.7973330405
 30
0.0
 11
5.2825831609
 21
5.6390579533
 31
0.0
  0
LINE
  5
CF
330
1F
100
AcDbEntity
  8
0
  6
Continuous
 62
     7
370
    25
100
AcDbLine
 10
5.3480605065
 20
5.9496238228
 30
0.0
 11
5.3192294817
 21
5.7973330405
 31
0.0
  0
ARC
  5
D0
330
1F
100
AcDbEntity
  8
0
  6
Continuous
 62
     7
370
    25
100
AcDbCircle
 10
-0.0000090983
 20
-0.0000107386
 30
0.0
 40
7.99999999451241
100
AcDbArc
 50
48.0479302789
 51
51.952069325
  0
LINE
  5
D1
330
1F
100
AcDbEntity
  8
0
  6
Continuous
 62
     7
370
    25
100
AcDbLine
 10
4.7855840765
 20
6.2451146985
 30
0.0
 11
4.9305546481
 21
6.2999528371
 31
0.0
  0
LINE
  5
D2
330
1F
100
AcDbEntity
  8
0
  6
Continuous
 62
     7
370
    25
100
AcDbLine
 10
4.6360770705
 20
6.1815409905
 30
0.0
 11
4.7855840765
 21
6.2451146985
 31
0.0
  0
LINE
  5
D3
330
1F
100
AcDbEntity
  8
0
  6
Continuous
 62
     7
370
    25
100
AcDbLine
 10
4.5002864551
 20
6.1169647252
 30
0.0
 11
4.6360770705
 21
6.1815409905
 31
0.0
  0
LINE
  5
D4
330
1F
100
AcDbEntity
  8
0
  6
Continuous
 62
     7
370
    25
100
AcDbLine
 10
4.3771479434
 20
6.0519426726
 30
0.0
 11
4.5002864551
 21
6.1169647252
 31
0.0
  0
LINE
  5
D5
330
1F
100
AcDbEntity
  8
0
  6
Continuous
 62
     7
370
    25
100
AcDbLine
 10
4.2676040065
 20
5.9880668608
 30
0.0
 11
4.3771479434
 21
6.0519426726
 31
0.0
  0
LINE
  5
D6
330
1F
100
AcDbEntity
  8
0
  6
Continuous
 62
     7
370
    25
100
AcDbLine
 10
4.1714736349
 20
5.9265042505
 30
0.0
 11
4.2676040065
 21
5.9880668608
 31
0.0
  0
LINE
  5
D7
330
1F
100
AcDbEntity
  8
0
  6
Continuous
 62
     7
370
    25
100
AcDbLine
 10
4.0878405792
 20
5.8678875592
 30
0.0
 11
4.1714736349
 21
5.9265042505
 31
0.0
  0
LINE
  5
D8
330
1F
100
AcDbEntity
  8
0
  6
Continuous
 62
     7
370
    25
100
AcDbLine
 10
4.0140718248
 20
5.811416243
 30
0.0
 11
4.0878405792
 21
5.8678875592
 31
0.0
  0
LINE
  5
D9
330
1F
100
AcDbEntity
  8
0
  6
Continuous
 62
     7
370
    25
100
AcDbLine
 10
3.9537148413
 20
5.7610349178
 30
0.0
 11
4.0140718248
 21
5.811416243
 31
0.0
  0
LINE
  5
DA
330
1F
100
AcDbEntity
  8
0
  6
Continuous
 62
     7
370
    25
100
AcDbLine
 10
3.9040272377
 20
5.7159135854
 30
0.0
 11
3.9537148413
 21
5.7610349178
 31
0.0
  0
LINE
  5
DB
330
1F
100
AcDbEntity
  8
0
  6
Continuous
 62
     7
370
    25
100
AcDbLine
 10
3.8359128007
 20
5.6462357708
 30
0.0
 11
3.9040272377
 21
5.7159135854
 31
0.0
  0
LINE
  5
DC
330
1F
100
AcDbEntity
  8
0
  6
Continuous
 62
     7
370
    25
100
AcDbLine
 10
3.8004920776
 20
5.6033853203
 30
0.0
 11
3.8359128007
 21
5.6462357708
 31
0.0
  0
LINE
  5
DD
330
1F
100
AcDbEntity
  8
0
  6
Continuous
 62
     7
370
    25
100
AcDbLine
 10
3.7650156738
 20
5.5533385098
 30
0.0
 11
3.8004920776
 21
5.6033853203
 31
0.0
  0
LINE
  5
DE
330
1F
100
AcDbEntity
  8
0
  6
Continuous
 62
     7
370
    25
100
AcDbLine
 10
3.7069478821
 20
5.4825021122
 30
0.0
 11
3.7650156738
 21
5.5533385098
 31
0.0
  0
LINE
  5
DF
330
1F
100
AcDbEntity
  8
0
  6
Continuous
 62
     7
370
    25
100
AcDbLine
 10
3.6500557824
 20
5.426101977
 30
0.0
 11
3.7069478821
 21
5.4825021122
 31
0.0
  0
LINE
  5
E0
330
1F
100
AcDbEntity
  8
0
  6
Continuous
 62
     7
370
    25
100
AcDbLine
 10
3.5954408587
 20
5.3839063121
 30
0.0
 11
3.6500557824
 21
5.426101977
 31
0.0
  0
LINE
  5
E1
330
1F
100
AcDbEntity
  8
0
  6
Continuous
 62
     7
370
    25
100
AcDbLine
 10
3.5693325972
 20
5.3680454013
 30
0.0
 11
3.5954408587
 21
5.3839063121
 31
0.0
  0
LINE
  5
E2
330
1F
100
AcDbEntity
  8
0
  6
Continuous
 62
     7
370
    25
100
AcDbLine
 10
3.5441822452
 20
5.3556037983
 30
0.0
 11
3.5693325972
 21
5.3680454013
 31
0.0
  0
LINE
  5
E3
330
1F
100
AcDbEntity
  8
0
  6
Continuous
 62
     7
370
    25
100
AcDbLine
 10
3.5201447018
 20
5.3465495191
 30
0.0
 11
3.5441822452
 21
5.3556037983
 31
0.0
  0
LINE
  5
E4
330
1F
100
AcDbEntity
  8
0
  6
Continuous
 62
     7
370
    25
100
AcDbLine
 10
3.4973462481
 20
5.3408213047
 30
0.0
 11
3.5201447018
 21
5.3465495191
 31
0.0
  0
LINE
  5
E5
330
1F
100
AcDbEntity
  8
0
  6
Continuous
 62
     7
370
    25
100
AcDbLine
 10
3.4759043012
 20
5.3383629112
 30
0.0
 11
3.4973462481
 21
5.3408213047
 31
0.0
  0
LINE
  5
E6
330
1F
100
AcDbEntity
  8
0
  6
Continuous
 62
     7
370
    25
100
AcDbLine
 10
3.4559539711
 20
5.3391078673
 30
0.0
 11
3.4759043012
 21
5.3383629112
 31
0.0
  0
LINE
  5
E7
330
1F
100
AcDbEntity
  8
0
  6
Continuous
 62
     7
370
    25
100
AcDbLine
 10
3.4376127735
 20
5.3429999117
 30
0.0
 11
3.4559539711
 21
5.3391078673
 31
0.0
  0
LINE
  5
E8
330
1F
100
AcDbEntity
  8
0
  6
Continuous
 62
     7
370
    25
100
AcDbLine
 10
3.4210155404
 20
5.3499727237
 30
0.0
 11
3.4376127735
 21
5.3429999117
 31
0.0
  0
LINE
  5
E9
330
1F
100
AcDbEntity
  8
0
  6
Continuous
 62
     7
370
    25
100
AcDbLine
 10
3.1750000018
 20
5.4992613031
 30
0.0
 11
3.4210155404
 21
5.3499727237
 31
0.0
  0
LINE
  5
EA
330
1F
100
AcDbEntity
  8
0
  6
Continuous
 62
     7
370
    25
100
AcDbLine
 10
2.9227045593
 20
5.637672728
 30
0.0
 11
3.1750000018
 21
5.4992613031
 31
0.0
  0
LINE
  5
EB
330
1F
100
AcDbEntity
  8
0
  6
Continuous
 62
     7
370
    25
100
AcDbLine
 10
2.9083672938
 20
5.6485599697
 30
0.0
 11
2.9227045593
 21
5.637672728
 31
0.0
  0
LINE
  5
EC
330
1F
100
AcDbEntity
  8
0
  6
Continuous
 62
     7
370
    25
100
AcDbLine
 10
2.8958260571
 20
5.6624978808
 30
0.0
 11
2.9083672938
 21
5.6485599697
 31
0.0
  0
LINE
  5
ED
330
1F
100
AcDbEntity
  8
0
  6
Continuous
 62
     7
370
    25
100
AcDbLine
 10
2.8852057373
 20
5.6794029053
 30
0.0
 11
2.8958260571
 21
5.6624978808
 31
0.0
  0
LINE
  5
EE
330
1F
100
AcDbEntity
  8
0
  6
Continuous
 62
     7
370
    25
100
AcDbLine
 10
2.8766138715
 20
5.69920135
 30
0.0
 11
2.8852057373
 21
5.6794029053
 31
0.0
  0
LINE
  5
EF
330
1F
100
AcDbEntity
  8
0
  6
Continuous
 62
     7
370
    25
100
AcDbLine
 10
2.8701753128
 20
5.721809462
 30
0.0
 11
2.8766138715
 21
5.69920135
 31
0.0
  0
LINE
  5
F0
330
1F
100
AcDbEntity
  8
0
  6
Continuous
 62
     7
370
    25
100
AcDbLine
 10
2.8659977316
 20
5.7471537277
 30
0.0
 11
2.8701753128
 21
5.721809462
 31
0.0
  0
LINE
  5
F1
330
1F
100
AcDbEntity
  8
0
  6
Continuous
 62
     7
370
    25
100
AcDbLine
 10
2.8641974301
 20
5.775155456
 30
0.0
 11
2.8659977316
 21
5.7471537277
 31
0.0
  0
LINE
  5
F2
330
1F
100
AcDbEntity
  8
0
  6
Continuous
 62
     7
370
    25
100
AcDbLine
 10
2.8648791421
 20
5.8056962614
 30
0.0
 11
2.8641974301
 21
5.775155456
 31
0.0
  0
LINE
  5
F3
330
1F
100
AcDbEntity
  8
0
  6
Continuous
 62
     7
370
    25
100
AcDbLine
 10
2.874114336
 20
5.8740919712
 30
0.0
 11
2.8648791421
 21
5.8056962614
 31
0.0
  0
LINE
  5
F4
330
1F
100
AcDbEntity
  8
0
  6
Continuous
 62
     7
370
    25
100
AcDbLine
 10
2.8945121665
 20
5.9515620699
 30
0.0
 11
2.874114336
 21
5.8740919712
 31
0.0
  0
LINE
  5
F5
330
1F
100
AcDbEntity
  8
0
  6
Continuous
 62
     7
370
    25
100
AcDbLine
 10
2.9268243255
 20
6.0372684954
 30
0.0
 11
2.8945121665
 21
5.9515620699
 31
0.0
  0
LINE
  5
F6
330
1F
100
AcDbEntity
  8
0
  6
Continuous
 62
     7
370
    25
100
AcDbLine
 10
2.9524280306
 20
6.0930152775
 30
0.0
 11
2.9268243255
 21
6.0372684954
 31
0.0
  0
LINE
  5
F7
330
1F
100
AcDbEntity
  8
0
  6
Continuous
 62
     7
370
    25
100
AcDbLine
 10
2.9718273191
 20
6.1451158511
 30
0.0
 11
2.9524280306
 21
6.0930152775
 31
0.0
  0
LINE
  5
F8
330
1F
100
AcDbEntity
  8
0
  6
Continuous
 62
     7
370
    25
100
AcDbLine
 10
2.9981127693
 20
6.2389435845
 30
0.0
 11
2.9718273191
 21
6.1451158511
 31
0.0
  0
LINE
  5
F9
330
1F
100
AcDbEntity
  8
0
  6
Continuous
 62
     7
370
    25
100
AcDbLine
 10
3.0123452093
 20
6.3045349271
 30
0.0
 11
2.9981127693
 21
6.2389435845
 31
0.0
  0
LINE
  5
FA
330
1F
100
AcDbEntity
  8
0
  6
Continuous
 62
     7
370
    25
100
AcDbLine
 10
3.0257982083
 20
6.3819962498
 30
0.0
 11
3.0123452093
 21
6.3045349271
 31
0.0
  0
LINE
  5
FB
330
1F
100
AcDbEntity
  8
0
  6
Continuous
 62
     7
370
    25
100
AcDbLine
 10
3.0378194452
 20
6.4741176144
 30
0.0
 11
3.0257982083
 21
6.3819962498
 31
0.0
  0
LINE
  5
FC
330
1F
100
AcDbEntity
  8
0
  6
Continuous
 62
     7
370
    25
100
AcDbLine
 10
3.0467664416
 20
6.5758541918
 30
0.0
 11
3.0378194452
 21
6.4741176144
 31
0.0
  0
LINE
  5
FD
330
1F
100
AcDbEntity
  8
0
  6
Continuous
 62
     7
370
    25
100
AcDbLine
 10
3.0520160704
 20
6.6898869166
 30
0.0
 11
3.0467664416
 21
6.5758541918
 31
0.0
  0
LINE
  5
FE
330
1F
100
AcDbEntity
  8
0
  6
Continuous
 62
     7
370
    25
100
AcDbLine
 10
3.0525620537
 20
6.8166926719
 30
0.0
 11
3.0520160704
 21
6.6898869166
 31
0.0
  0
LINE
  5
FF
330
1F
100
AcDbEntity
  8
0
  6
Continuous
 62
     7
370
    25
100
AcDbLine
 10
3.0473036658
 20
6.9558447135
 30
0.0
 11
3.0525620537
 21
6.8166926719
 31
0.0
  0
LINE
  5
100
330
1F
100
AcDbEntity
  8
0
  6
Continuous
 62
     7
370
    25
100
AcDbLine
 10
3.0353329868
 20
7.1057310096
 30
0.0
 11
3.0473036658
 21
6.9558447135
 31
0.0
  0
LINE
  5
101
330
1F
100
AcDbEntity
  8
0
  6
Continuous
 62
     7
370
    25
100
AcDbLine
 10
3.015635994
 20
7.2669947145
 30
0.0
 11
3.0353329868
 21
7.1057310096
 31
0.0
  0
LINE
  5
102
330
1F
100
AcDbEntity
  8
0
  6
Continuous
 62
     7
370
    25
100
AcDbLine
 10
2.9906418634
 20
7.4199619895
 30
0.0
 11
3.015635994
 21
7.2669947145
 31
0.0
  0
ARC
  5
103
330
1F
100
AcDbEntity
  8
0
  6
Continuous
 62
     7
370
    25
100
AcDbCircle
 10
-0.0000048698
 20
-0.0000132256
 30
0.0
 40
8.000000004627656
100
AcDbArc
 50
68.0479298789
 51
71.9520690289
  0
LINE
  5
104
330
1F
100
AcDbEntity
  8
0
  6
Continuous
 62
     7
370
    25
100
AcDbLine
 10
2.3610229986
 20
7.5052543435
 30
0.0
 11
2.4784950963
 21
7.6063681738
 31
0.0
  0
LINE
  5
105
330
1F
100
AcDbEntity
  8
0
  6
Continuous
 62
     7
370
    25
100
AcDbLine
 10
2.2422758592
 20
7.3943801399
 30
0.0
 11
2.3610229986
 21
7.5052543435
 31
0.0
  0
LINE
  5
106
330
1F
100
AcDbEntity
  8
0
  6
Continuous
 62
     7
370
    25
100
AcDbLine
 10
2.1367607923
 20
7.2872551703
 30
0.0
 11
2.2422758592
 21
7.3943801399
 31
0.0
  0
LINE
  5
107
330
1F
100
AcDbEntity
  8
0
  6
Continuous
 62
     7
370
    25
100
AcDbLine
 10
2.0432873463
 20
7.1840385721
 30
0.0
 11
2.1367607923
 21
7.2872551703
 31
0.0
  0
LINE
  5
108
330
1F
100
AcDbEntity
  8
0
  6
Continuous
 62
     7
370
    25
100
AcDbLine
 10
1.9621964664
 20
7.0865487667
 30
0.0
 11
2.0432873463
 21
7.1840385721
 31
0.0
  0
LINE
  5
109
330
1F
100
AcDbEntity
  8
0
  6
Continuous
 62
     7
370
    25
100
AcDbLine
 10
1.8929191512
 20
6.9958202768
 30
0.0
 11
1.9621964664
 21
7.0865487667
 31
0.0
  0
LINE
  5
10A
330
1F
100
AcDbEntity
  8
0
  6
Continuous
 62
     7
370
    25
100
AcDbLine
 10
1.8343778925
 20
6.9121344847
 30
0.0
 11
1.8929191512
 21
6.9958202768
 31
0.0
  0
LINE
  5
10B
330
1F
100
AcDbEntity
  8
0
  6
Continuous
 62
     7
370
    25
100
AcDbLine
 10
1.7843722188
 20
6.8338383852
 30
0.0
 11
1.8343778925
 21
6.9121344847
 31
0.0
  0
LINE
  5
10C
330
1F
100
AcDbEntity
  8
0
  6
Continuous
 62
     7
370
    25
100
AcDbLine
 10
1.7448866528
 20
6.7658521178
 30
0.0
 11
1.7843722188
 21
6.8338383852
 31
0.0
  0
LINE
  5
10D
330
1F
100
AcDbEntity
  8
0
  6
Continuous
 62
     7
370
    25
100
AcDbLine
 10
1.7136280464
 20
6.7064577845
 30
0.0
 11
1.7448866528
 21
6.7658521178
 31
0.0
  0
LINE
  5
10E
330
1F
100
AcDbEntity
  8
0
  6
Continuous
 62
     7
370
    25
100
AcDbLine
 10
1.6734525511
 20
6.6176855363
 30
0.0
 11
1.7136280464
 21
6.7064577845
 31
0.0
  0
LINE
  5
10F
330
1F
100
AcDbEntity
  8
0
  6
Continuous
 62
     7
370
    25
100
AcDbLine
 10
1.6548236862
 20
6.565304621
 30
0.0
 11
1.6734525511
 21
6.6176855363
 31
0.0
  0
LINE
  5
110
330
1F
100
AcDbEntity
  8
0
  6
Continuous
 62
     7
370
    25
100
AcDbLine
 10
1.6386038512
 20
6.5061423582
 30
0.0
 11
1.6548236862
 21
6.565304621
 31
0.0
  0
LINE
  5
111
330
1F
100
AcDbEntity
  8
0
  6
Continuous
 62
     7
370
    25
100
AcDbLine
 10
1.6082654375
 20
6.419717582
 30
0.0
 11
1.6386038512
 21
6.5061423582
 31
0.0
  0
LINE
  5
112
330
1F
100
AcDbEntity
  8
0
  6
Continuous
 62
     7
370
    25
100
AcDbLine
 10
1.5740942703
 20
6.3472605581
 30
0.0
 11
1.6082654375
 21
6.419717582
 31
0.0
  0
LINE
  5
113
330
1F
100
AcDbEntity
  8
0
  6
Continuous
 62
     7
370
    25
100
AcDbLine
 10
1.537204871
 20
6.2889301654
 30
0.0
 11
1.5740942703
 21
6.3472605581
 31
0.0
  0
LINE
  5
114
330
1F
100
AcDbEntity
  8
0
  6
Continuous
 62
     7
370
    25
100
AcDbLine
 10
1.5180958585
 20
6.265096321
 30
0.0
 11
1.537204871
 21
6.2889301654
 31
0.0
  0
LINE
  5
115
330
1F
100
AcDbEntity
  8
0
  6
Continuous
 62
     7
370
    25
100
AcDbLine
 10
1.4987175648
 20
6.2448030257
 30
0.0
 11
1.5180958585
 21
6.265096321
 31
0.0
  0
LINE
  5
116
330
1F
100
AcDbEntity
  8
0
  6
Continuous
 62
     7
370
    25
100
AcDbLine
 10
1.4792263937
 20
6.2280734726
 30
0.0
 11
1.4987175648
 21
6.2448030257
 31
0.0
  0
LINE
  5
117
330
1F
100
AcDbEntity
  8
0
  6
Continuous
 62
     7
370
    25
100
AcDbLine
 10
1.4597619547
 20
6.214893199
 30
0.0
 11
1.4792263937
 21
6.2280734726
 31
0.0
  0
LINE
  5
118
330
1F
100
AcDbEntity
  8
0
  6
Continuous
 62
     7
370
    25
100
AcDbLine
 10
1.4404540091
 20
6.2052494789
 30
0.0
 11
1.4597619547
 21
6.214893199
 31
0.0
  0
LINE
  5
119
330
1F
100
AcDbEntity
  8
0
  6
Continuous
 62
     7
370
    25
100
AcDbLine
 10
1.4214520148
 20
6.1991261129
 30
0.0
 11
1.4404540091
 21
6.2052494789
 31
0.0
  0
LINE
  5
11A
330
1F
100
AcDbEntity
  8
0
  6
Continuous
 62
     7
370
    25
100
AcDbLine
 10
1.4028857331
 20
6.196510375
 30
0.0
 11
1.4214520148
 21
6.1991261129
 31
0.0
  0
LINE
  5
11B
330
1F
100
AcDbEntity
  8
0
  6
Continuous
 62
     7
370
    25
100
AcDbLine
 10
1.3849046218
 20
6.197386066
 30
0.0
 11
1.4028857331
 21
6.196510375
 31
0.0
  0
LINE
  5
11C
330
1F
100
AcDbEntity
  8
0
  6
Continuous
 62
     7
370
    25
100
AcDbLine
 10
1.1026659422
 20
6.2535292399
 30
0.0
 11
1.3849046218
 21
6.197386066
 31
0.0
  0
LINE
  5
11D
330
1F
100
AcDbEntity
  8
0
  6
Continuous
 62
     7
370
    25
100
AcDbLine
 10
0.8182462415
 20
6.2973032285
 30
0.0
 11
1.1026659422
 21
6.2535292399
 31
0.0
  0
LINE
  5
11E
330
1F
100
AcDbEntity
  8
0
  6
Continuous
 62
     7
370
    25
100
AcDbLine
 10
0.80105002
 20
6.3026302505
 30
0.0
 11
0.8182462415
 21
6.2973032285
 31
0.0
  0
LINE
  5
11F
330
1F
100
AcDbEntity
  8
0
  6
Continuous
 62
     7
370
    25
100
AcDbLine
 10
0.7844980572
 20
6.3114382825
 30
0.0
 11
0.80105002
 21
6.3026302505
 31
0.0
  0
LINE
  5
120
330
1F
100
AcDbEntity
  8
0
  6
Continuous
 62
     7
370
    25
100
AcDbLine
 10
0.7687363379
 20
6.3236914292
 30
0.0
 11
0.7844980572
 21
6.3114382825
 31
0.0
  0
LINE
  5
121
330
1F
100
AcDbEntity
  8
0
  6
Continuous
 62
     7
370
    25
100
AcDbLine
 10
0.7538911506
 20
6.3393572682
 30
0.0
 11
0.7687363379
 21
6.3236914292
 31
0.0
  0
LINE
  5
122
330
1F
100
AcDbEntity
  8
0
  6
Continuous
 62
     7
370
    25
100
AcDbLine
 10
0.74010848
 20
6.3583999043
 30
0.0
 11
0.7538911506
 21
6.3393572682
 31
0.0
  0
LINE
  5
123
330
1F
100
AcDbEntity
  8
0
  6
Continuous
 62
     7
370
    25
100
AcDbLine
 10
0.7275146145
 20
6.3807869151
 30
0.0
 11
0.74010848
 21
6.3583999043
 31
0.0
  0
LINE
  5
124
330
1F
100
AcDbEntity
  8
0
  6
Continuous
 62
     7
370
    25
100
AcDbLine
 10
0.7162456909
 20
6.4064841418
 30
0.0
 11
0.7275146145
 21
6.3807869151
 31
0.0
  0
LINE
  5
125
330
1F
100
AcDbEntity
  8
0
  6
Continuous
 62
     7
370
    25
100
AcDbLine
 10
0.7064407478
 20
6.4354162967
 30
0.0
 11
0.7162456909
 21
6.4064841418
 31
0.0
  0
LINE
  5
126
330
1F
100
AcDbEntity
  8
0
  6
Continuous
 62
     7
370
    25
100
AcDbLine
 10
0.691726221
 20
6.502845854
 30
0.0
 11
0.7064407478
 21
6.4354162967
 31
0.0
  0
LINE
  5
127
330
1F
100
AcDbEntity
  8
0
  6
Continuous
 62
     7
370
    25
100
AcDbLine
 10
0.6843975895
 20
6.5826204123
 30
0.0
 11
0.691726221
 21
6.502845854
 31
0.0
  0
LINE
  5
128
330
1F
100
AcDbEntity
  8
0
  6
Continuous
 62
     7
370
    25
100
AcDbLine
 10
0.6854478207
 20
6.6742094853
 30
0.0
 11
0.6843975895
 21
6.5826204123
 31
0.0
  0
LINE
  5
129
330
1F
100
AcDbEntity
  8
0
  6
Continuous
 62
     7
370
    25
100
AcDbLine
 10
0.6904408473
 20
6.7353513374
 30
0.0
 11
0.6854478207
 21
6.6742094853
 31
0.0
  0
LINE
  5
12A
330
1F
100
AcDbEntity
  8
0
  6
Continuous
 62
     7
370
    25
100
AcDbLine
 10
0.6908507688
 20
6.790944744
 30
0.0
 11
0.6904408473
 21
6.7353513374
 31
0.0
  0
LINE
  5
12B
330
1F
100
AcDbEntity
  8
0
  6
Continuous
 62
     7
370
    25
100
AcDbLine
 10
0.6834600498
 20
6.8881041993
 30
0.0
 11
0.6908507688
 21
6.790944744
 31
0.0
  0
LINE
  5
12C
330
1F
100
AcDbEntity
  8
0
  6
Continuous
 62
     7
370
    25
100
AcDbLine
 10
0.6744006267
 20
6.954607689
 30
0.0
 11
0.6834600498
 21
6.8881041993
 31
0.0
  0
LINE
  5
12D
330
1F
100
AcDbEntity
  8
0
  6
Continuous
 62
     7
370
    25
100
AcDbLine
 10
0.660549005
 20
7.0319987418
 30
0.0
 11
0.6744006267
 21
6.954607689
 31
0.0
  0
LINE
  5
12E
330
1F
100
AcDbEntity
  8
0
  6
Continuous
 62
     7
370
    25
100
AcDbLine
 10
0.6403378859
 20
7.1226759565
 30
0.0
 11
0.660549005
 21
7.0319987418
 31
0.0
  0
LINE
  5
12F
330
1F
100
AcDbEntity
  8
0
  6
Continuous
 62
     7
370
    25
100
AcDbLine
 10
0.6139493241
 20
7.2213371676
 30
0.0
 11
0.6403378859
 21
7.1226759565
 31
0.0
  0
LINE
  5
130
330
1F
100
AcDbEntity
  8
0
  6
Continuous
 62
     7
370
    25
100
AcDbLine
 10
0.5798809139
 20
7.3302882974
 30
0.0
 11
0.6139493241
 21
7.2213371676
 31
0.0
  0
LINE
  5
131
330
1F
100
AcDbEntity
  8
0
  6
Continuous
 62
     7
370
    25
100
AcDbLine
 10
0.5370238901
 20
7.4496334628
 30
0.0
 11
0.5798809139
 21
7.3302882974
 31
0.0
  0
LINE
  5
132
330
1F
100
AcDbEntity
  8
0
  6
Continuous
 62
     7
370
    25
100
AcDbLine
 10
0.4844897389
 20
7.5785951401
 30
0.0
 11
0.5370238901
 21
7.4496334628
 31
0.0
  0
LINE
  5
133
330
1F
100
AcDbEntity
  8
0
  6
Continuous
 62
     7
370
    25
100
AcDbLine
 10
0.4219769072
 20
7.7153479621
 30
0.0
 11
0.4844897389
 21
7.5785951401
 31
0.0
  0
LINE
  5
134
330
1F
100
AcDbEntity
  8
0
  6
Continuous
 62
     7
370
    25
100
AcDbLine
 10
0.3483123082
 20
7.860149547
 30
0.0
 11
0.4219769072
 21
7.7153479621
 31
0.0
  0
LINE
  5
135
330
1F
100
AcDbEntity
  8
0
  6
Continuous
 62
     7
370
    25
100
AcDbLine
 10
0.2725076182
 20
7.9953432654
 30
0.0
 11
0.3483123082
 21
7.860149547
 31
0.0
  0
ARC
  5
136
330
1F
100
AcDbEntity
  8
0
  6
Continuous
 62
     7
370
    25
100
AcDbCircle
 10
0.0000000498
 20
-0.0000141193
 30
0.0
 40
8.00000000524593
100
AcDbArc
 50
88.0479306789
 51
91.9520698569
  0
LINE
  5
137
330
1F
100
AcDbEntity
  8
0
  6
Continuous
 62
     7
370
    25
100
AcDbLine
 10
-0.3483122856
 20
7.8601495129
 30
0.0
 11
-0.2725075934
 21
7.9953432628
 31
0.0
  0
LINE
  5
138
330
1F
100
AcDbEntity
  8
0
  6
Continuous
 62
     7
370
    25
100
AcDbLine
 10
-0.4219768403
 20
7.715347968
 30
0.0
 11
-0.3483122856
 21
7.8601495129
 31
0.0
  0
LINE
  5
139
330
1F
100
AcDbEntity
  8
0
  6
Continuous
 62
     7
370
    25
100
AcDbLine
 10
-0.4844897321
 20
7.5785951351
 30
0.0
 11
-0.4219768403
 21
7.715347968
 31
0.0
  0
LINE
  5
13A
330
1F
100
AcDbEntity
  8
0
  6
Continuous
 62
     7
370
    25
100
AcDbLine
 10
-0.5370238022
 20
7.4496334633
 30
0.0
 11
-0.4844897321
 21
7.5785951351
 31
0.0
  0
LINE
  5
13B
330
1F
100
AcDbEntity
  8
0
  6
Continuous
 62
     7
370
    25
100
AcDbLine
 10
-0.5798808688
 20
7.3302882937
 30
0.0
 11
-0.5370238022
 21
7.4496334633
 31
0.0
  0
LINE
  5
13C
330
1F
100
AcDbEntity
  8
0
  6
Continuous
 62
     7
370
    25
100
AcDbLine
 10
-0.6139493208
 20
7.2213371051
 30
0.0
 11
-0.5798808688
 21
7.3302882937
 31
0.0
  0
LINE
  5
13D
330
1F
100
AcDbEntity
  8
0
  6
Continuous
 62
     7
370
    25
100
AcDbLine
 10
-0.6403378534
 20
7.122675941
 30
0.0
 11
-0.6139493208
 21
7.2213371051
 31
0.0
  0
LINE
  5
13E
330
1F
100
AcDbEntity
  8
0
  6
Continuous
 62
     7
370
    25
100
AcDbLine
 10
-0.6605489485
 20
7.0319986695
 30
0.0
 11
-0.6403378534
 21
7.122675941
 31
0.0
  0
LINE
  5
13F
330
1F
100
AcDbEntity
  8
0
  6
Continuous
 62
     7
370
    25
100
AcDbLine
 10
-0.6744005977
 20
6.9546076395
 30
0.0
 11
-0.6605489485
 21
7.0319986695
 31
0.0
  0
LINE
  5
140
330
1F
100
AcDbEntity
  8
0
  6
Continuous
 62
     7
370
    25
100
AcDbLine
 10
-0.6834600395
 20
6.8881041579
 30
0.0
 11
-0.6744005977
 21
6.9546076395
 31
0.0
  0
LINE
  5
141
330
1F
100
AcDbEntity
  8
0
  6
Continuous
 62
     7
370
    25
100
AcDbLine
 10
-0.6908507712
 20
6.7909447757
 30
0.0
 11
-0.6834600395
 21
6.8881041579
 31
0.0
  0
LINE
  5
142
330
1F
100
AcDbEntity
  8
0
  6
Continuous
 62
     7
370
    25
100
AcDbLine
 10
-0.6904408488
 20
6.7353513037
 30
0.0
 11
-0.6908507712
 21
6.7909447757
 31
0.0
  0
LINE
  5
143
330
1F
100
AcDbEntity
  8
0
  6
Continuous
 62
     7
370
    25
100
AcDbLine
 10
-0.6854477587
 20
6.6742094811
 30
0.0
 11
-0.6904408488
 21
6.7353513037
 31
0.0
  0
LINE
  5
144
330
1F
100
AcDbEntity
  8
0
  6
Continuous
 62
     7
370
    25
100
AcDbLine
 10
-0.6843975856
 20
6.5826203762
 30
0.0
 11
-0.6854477587
 21
6.6742094811
 31
0.0
  0
LINE
  5
145
330
1F
100
AcDbEntity
  8
0
  6
Continuous
 62
     7
370
    25
100
AcDbLine
 10
-0.6917262294
 20
6.5028458272
 30
0.0
 11
-0.6843975856
 21
6.5826203762
 31
0.0
  0
LINE
  5
146
330
1F
100
AcDbEntity
  8
0
  6
Continuous
 62
     7
370
    25
100
AcDbLine
 10
-0.7064406967
 20
6.4354162611
 30
0.0
 11
-0.6917262294
 21
6.5028458272
 31
0.0
  0
LINE
  5
147
330
1F
100
AcDbEntity
  8
0
  6
Continuous
 62
     7
370
    25
100
AcDbLine
 10
-0.7162456677
 20
6.4064841324
 30
0.0
 11
-0.7064406967
 21
6.4354162611
 31
0.0
  0
LINE
  5
148
330
1F
100
AcDbEntity
  8
0
  6
Continuous
 62
     7
370
    25
100
AcDbLine
 10
-0.7275145529
 20
6.3807868545
 30
0.0
 11
-0.7162456677
 21
6.4064841324
 31
0.0
  0
LINE
  5
149
330
1F
100
AcDbEntity
  8
0
  6
Continuous
 62
     7
370
    25
100
AcDbLine
 10
-0.7401084446
 20
6.358399852
 30
0.0
 11
-0.7275145529
 21
6.3807868545
 31
0.0
  0
LINE
  5
14A
330
1F
100
AcDbEntity
  8
0
  6
Continuous
 62
     7
370
    25
100
AcDbLine
 10
-0.7538911405
 20
6.3393572928
 30
0.0
 11
-0.7401084446
 21
6.358399852
 31
0.0
  0
LINE
  5
14B
330
1F
100
AcDbEntity
  8
0
  6
Continuous
 62
     7
370
    25
100
AcDbLine
 10
-0.7687363204
 20
6.3236914316
 30
0.0
 11
-0.7538911405
 21
6.3393572928
 31
0.0
  0
LINE
  5
14C
330
1F
100
AcDbEntity
  8
0
  6
Continuous
 62
     7
370
    25
100
AcDbLine
 10
-0.7844980155
 20
6.3114382682
 30
0.0
 11
-0.7687363204
 21
6.3236914316
 31
0.0
  0
LINE
  5
14D
330
1F
100
AcDbEntity
  8
0
  6
Continuous
 62
     7
370
    25
100
AcDbLine
 10
-0.8010499694
 20
6.3026302717
 30
0.0
 11
-0.7844980155
 21
6.3114382682
 31
0.0
  0
LINE
  5
14E
330
1F
100
AcDbEntity
  8
0
  6
Continuous
 62
     7
370
    25
100
AcDbLine
 10
-0.8182462481
 20
6.2973032446
 30
0.0
 11
-0.8010499694
 21
6.3026302717
 31
0.0
  0
LINE
  5
14F
330
1F
100
AcDbEntity
  8
0
  6
Continuous
 62
     7
370
    25
100
AcDbLine
 10
-1.1026659092
 20
6.2535291747
 30
0.0
 11
-0.8182462481
 21
6.2973032446
 31
0.0
  0
LINE
  5
150
330
1F
100
AcDbEntity
  8
0
  6
Continuous
 62
     7
370
    25
100
AcDbLine
 10
-1.384904597
 20
6.1973860692
 30
0.0
 11
-1.1026659092
 21
6.2535291747
 31
0.0
  0
LINE
  5
151
330
1F
100
AcDbEntity
  8
0
  6
Continuous
 62
     7
370
    25
100
AcDbLine
 10
-1.4028857366
 20
6.1965103574
 30
0.0
 11
-1.384904597
 21
6.1973860692
 31
0.0
  0
LINE
  5
152
330
1F
100
AcDbEntity
  8
0
  6
Continuous
 62
     7
370
    25
100
AcDbLine
 10
-1.4214519822
 20
6.199126091
 30
0.0
 11
-1.4028857366
 21
6.1965103574
 31
0.0
  0
LINE
  5
153
330
1F
100
AcDbEntity
  8
0
  6
Continuous
 62
     7
370
    25
100
AcDbLine
 10
-1.4404539501
 20
6.2052494761
 30
0.0
 11
-1.4214519822
 21
6.199126091
 31
0.0
  0
LINE
  5
154
330
1F
100
AcDbEntity
  8
0
  6
Continuous
 62
     7
370
    25
100
AcDbLine
 10
-1.4597619693
 20
6.2148931881
 30
0.0
 11
-1.4404539501
 21
6.2052494761
 31
0.0
  0
LINE
  5
155
330
1F
100
AcDbEntity
  8
0
  6
Continuous
 62
     7
370
    25
100
AcDbLine
 10
-1.4792263432
 20
6.2280734795
 30
0.0
 11
-1.4597619693
 21
6.2148931881
 31
0.0
  0
LINE
  5
156
330
1F
100
AcDbEntity
  8
0
  6
Continuous
 62
     7
370
    25
100
AcDbLine
 10
-1.4987174994
 20
6.2448030429
 30
0.0
 11
-1.4792263432
 21
6.2280734795
 31
0.0
  0
LINE
  5
157
330
1F
100
AcDbEntity
  8
0
  6
Continuous
 62
     7
370
    25
100
AcDbLine
 10
-1.5180958207
 20
6.2650962526
 30
0.0
 11
-1.4987174994
 21
6.2448030429
 31
0.0
  0
LINE
  5
158
330
1F
100
AcDbEntity
  8
0
  6
Continuous
 62
     7
370
    25
100
AcDbLine
 10
-1.5372048103
 20
6.2889301848
 30
0.0
 11
-1.5180958207
 21
6.2650962526
 31
0.0
  0
LINE
  5
159
330
1F
100
AcDbEntity
  8
0
  6
Continuous
 62
     7
370
    25
100
AcDbLine
 10
-1.5740942835
 20
6.3472605439
 30
0.0
 11
-1.5372048103
 21
6.2889301848
 31
0.0
  0
LINE
  5
15A
330
1F
100
AcDbEntity
  8
0
  6
Continuous
 62
     7
370
    25
100
AcDbLine
 10
-1.6082653871
 20
6.419717579
 30
0.0
 11
-1.5740942835
 21
6.3472605439
 31
0.0
  0
LINE
  5
15B
330
1F
100
AcDbEntity
  8
0
  6
Continuous
 62
     7
370
    25
100
AcDbLine
 10
-1.6386037872
 20
6.5061423737
 30
0.0
 11
-1.6082653871
 21
6.419717579
 31
0.0
  0
LINE
  5
15C
330
1F
100
AcDbEntity
  8
0
  6
Continuous
 62
     7
370
    25
100
AcDbLine
 10
-1.6548236846
 20
6.565304637
 30
0.0
 11
-1.6386037872
 21
6.5061423737
 31
0.0
  0
LINE
  5
15D
330
1F
100
AcDbEntity
  8
0
  6
Continuous
 62
     7
370
    25
100
AcDbLine
 10
-1.6734525592
 20
6.61768549
 30
0.0
 11
-1.6548236846
 21
6.565304637
 31
0.0
  0
LINE
  5
15E
330
1F
100
AcDbEntity
  8
0
  6
Continuous
 62
     7
370
    25
100
AcDbLine
 10
-1.7136279766
 20
6.7064577278
 30
0.0
 11
-1.6734525592
 21
6.61768549
 31
0.0
  0
LINE
  5
15F
330
1F
100
AcDbEntity
  8
0
  6
Continuous
 62
     7
370
    25
100
AcDbLine
 10
-1.7448866461
 20
6.7658520724
 30
0.0
 11
-1.7136279766
 21
6.7064577278
 31
0.0
  0
LINE
  5
160
330
1F
100
AcDbEntity
  8
0
  6
Continuous
 62
     7
370
    25
100
AcDbLine
 10
-1.7843722299
 20
6.8338383362
 30
0.0
 11
-1.7448866461
 21
6.7658520724
 31
0.0
  0
LINE
  5
161
330
1F
100
AcDbEntity
  8
0
  6
Continuous
 62
     7
370
    25
100
AcDbLine
 10
-1.834377856
 20
6.9121344155
 30
0.0
 11
-1.7843722299
 21
6.8338383362
 31
0.0
  0
LINE
  5
162
330
1F
100
AcDbEntity
  8
0
  6
Continuous
 62
     7
370
    25
100
AcDbLine
 10
-1.8929191318
 20
6.9958202778
 30
0.0
 11
-1.834377856
 21
6.9121344155
 31
0.0
  0
LINE
  5
163
330
1F
100
AcDbEntity
  8
0
  6
Continuous
 62
     7
370
    25
100
AcDbLine
 10
-1.9621964794
 20
7.0865487321
 30
0.0
 11
-1.8929191318
 21
6.9958202778
 31
0.0
  0
LINE
  5
164
330
1F
100
AcDbEntity
  8
0
  6
Continuous
 62
     7
370
    25
100
AcDbLine
 10
-2.0432872939
 20
7.1840385945
 30
0.0
 11
-1.9621964794
 21
7.0865487321
 31
0.0
  0
LINE
  5
165
330
1F
100
AcDbEntity
  8
0
  6
Continuous
 62
     7
370
    25
100
AcDbLine
 10
-2.1367607924
 20
7.2872551893
 30
0.0
 11
-2.0432872939
 21
7.1840385945
 31
0.0
  0
LINE
  5
166
330
1F
100
AcDbEntity
  8
0
  6
Continuous
 62
     7
370
    25
100
AcDbLine
 10
-2.2422758478
 20
7.3943801555
 30
0.0
 11
-2.1367607924
 21
7.2872551893
 31
0.0
  0
LINE
  5
167
330
1F
100
AcDbEntity
  8
0
  6
Continuous
 62
     7
370
    25
100
AcDbLine
 10
-2.3610229888
 20
7.5052543078
 30
0.0
 11
-2.2422758478
 21
7.3943801555
 31
0.0
  0
LINE
  5
168
330
1F
100
AcDbEntity
  8
0
  6
Continuous
 62
     7
370
    25
100
AcDbLine
 10
-2.4784950386
 20
7.6063680526
 30
0.0
 11
-2.3610229888
 21
7.5052543078
 31
0.0
  0
ARC
  5
169
330
1F
100
AcDbEntity
  8
0
  6
Continuous
 62
     7
370
    25
100
AcDbCircle
 10
0.0000048585
 20
-0.0000133567
 30
0.0
 40
7.999999992704668
100
AcDbArc
 50
108.0479304789
 51
111.9520694745
  0
LINE
  5
16A
330
1F
100
AcDbEntity
  8
0
  6
Continuous
 62
     7
370
    25
100
AcDbLine
 10
-3.0156359836
 20
7.2669946622
 30
0.0
 11
-2.9906417865
 21
7.419961881
 31
0.0
  0
LINE
  5
16B
330
1F
100
AcDbEntity
  8
0
  6
Continuous
 62
     7
370
    25
100
AcDbLine
 10
-3.0353329751
 20
7.1057309509
 30
0.0
 11
-3.0156359836
 21
7.2669946622
 31
0.0
  0
LINE
  5
16C
330
1F
100
AcDbEntity
  8
0
  6
Continuous
 62
     7
370
    25
100
AcDbLine
 10
-3.0473036244
 20
6.9558446223
 30
0.0
 11
-3.0353329751
 21
7.1057309509
 31
0.0
  0
LINE
  5
16D
330
1F
100
AcDbEntity
  8
0
  6
Continuous
 62
     7
370
    25
100
AcDbLine
 10
-3.0525620066
 20
6.816692599
 30
0.0
 11
-3.0473036244
 21
6.9558446223
 31
0.0
  0
LINE
  5
16E
330
1F
100
AcDbEntity
  8
0
  6
Continuous
 62
     7
370
    25
100
AcDbLine
 10
-3.0520160039
 20
6.689886822
 30
0.0
 11
-3.0525620066
 21
6.816692599
 31
0.0
  0
LINE
  5
16F
330
1F
100
AcDbEntity
  8
0
  6
Continuous
 62
     7
370
    25
100
AcDbLine
 10
-3.0467664033
 20
6.5758542272
 30
0.0
 11
-3.0520160039
 21
6.689886822
 31
0.0
  0
LINE
  5
170
330
1F
100
AcDbEntity
  8
0
  6
Continuous
 62
     7
370
    25
100
AcDbLine
 10
-3.037819361
 20
6.4741175814
 30
0.0
 11
-3.0467664033
 21
6.5758542272
 31
0.0
  0
LINE
  5
171
330
1F
100
AcDbEntity
  8
0
  6
Continuous
 62
     7
370
    25
100
AcDbLine
 10
-3.0257982425
 20
6.3819962054
 30
0.0
 11
-3.037819361
 21
6.4741175814
 31
0.0
  0
LINE
  5
172
330
1F
100
AcDbEntity
  8
0
  6
Continuous
 62
     7
370
    25
100
AcDbLine
 10
-3.012345176
 20
6.3045348935
 30
0.0
 11
-3.0257982425
 21
6.3819962054
 31
0.0
  0
LINE
  5
173
330
1F
100
AcDbEntity
  8
0
  6
Continuous
 62
     7
370
    25
100
AcDbLine
 10
-2.9981126671
 20
6.2389435646
 30
0.0
 11
-3.012345176
 21
6.3045348935
 31
0.0
  0
LINE
  5
174
330
1F
100
AcDbEntity
  8
0
  6
Continuous
 62
     7
370
    25
100
AcDbLine
 10
-2.9718272539
 20
6.1451157959
 30
0.0
 11
-2.9981126671
 21
6.2389435646
 31
0.0
  0
LINE
  5
175
330
1F
100
AcDbEntity
  8
0
  6
Continuous
 62
     7
370
    25
100
AcDbLine
 10
-2.9524280047
 20
6.0930152269
 30
0.0
 11
-2.9718272539
 21
6.1451157959
 31
0.0
  0
LINE
  5
176
330
1F
100
AcDbEntity
  8
0
  6
Continuous
 62
     7
370
    25
100
AcDbLine
 10
-2.9268243487
 20
6.0372684803
 30
0.0
 11
-2.9524280047
 21
6.0930152269
 31
0.0
  0
LINE
  5
177
330
1F
100
AcDbEntity
  8
0
  6
Continuous
 62
     7
370
    25
100
AcDbLine
 10
-2.8945121195
 20
5.9515620473
 30
0.0
 11
-2.9268243487
 21
6.0372684803
 31
0.0
  0
LINE
  5
178
330
1F
100
AcDbEntity
  8
0
  6
Continuous
 62
     7
370
    25
100
AcDbLine
 10
-2.8741142711
 20
5.8740919533
 30
0.0
 11
-2.8945121195
 21
5.9515620473
 31
0.0
  0
LINE
  5
179
330
1F
100
AcDbEntity
  8
0
  6
Continuous
 62
     7
370
    25
100
AcDbLine
 10
-2.8648791656
 20
5.8056962091
 30
0.0
 11
-2.8741142711
 21
5.8740919533
 31
0.0
  0
LINE
  5
17A
330
1F
100
AcDbEntity
  8
0
  6
Continuous
 62
     7
370
    25
100
AcDbLine
 10
-2.8641973579
 20
5.7751554314
 30
0.0
 11
-2.8648791656
 21
5.8056962091
 31
0.0
  0
LINE
  5
17B
330
1F
100
AcDbEntity
  8
0
  6
Continuous
 62
     7
370
    25
100
AcDbLine
 10
-2.8659977496
 20
5.7471537578
 30
0.0
 11
-2.8641973579
 21
5.7751554314
 31
0.0
  0
LINE
  5
17C
330
1F
100
AcDbEntity
  8
0
  6
Continuous
 62
     7
370
    25
100
AcDbLine
 10
-2.8701753096
 20
5.7218094465
 30
0.0
 11
-2.8659977496
 21
5.7471537578
 31
0.0
  0
LINE
  5
17D
330
1F
100
AcDbEntity
  8
0
  6
Continuous
 62
     7
370
    25
100
AcDbLine
 10
-2.8766137867
 20
5.6992013079
 30
0.0
 11
-2.8701753096
 21
5.7218094465
 31
0.0
  0
LINE
  5
17E
330
1F
100
AcDbEntity
  8
0
  6
Continuous
 62
     7
370
    25
100
AcDbLine
 10
-2.8852056758
 20
5.6794028913
 30
0.0
 11
-2.8766137867
 21
5.6992013079
 31
0.0
  0
LINE
  5
17F
330
1F
100
AcDbEntity
  8
0
  6
Continuous
 62
     7
370
    25
100
AcDbLine
 10
-2.8958260485
 20
5.6624978746
 30
0.0
 11
-2.8852056758
 21
5.6794028913
 31
0.0
  0
LINE
  5
180
330
1F
100
AcDbEntity
  8
0
  6
Continuous
 62
     7
370
    25
100
AcDbLine
 10
-2.908367284
 20
5.648559888
 30
0.0
 11
-2.8958260485
 21
5.6624978746
 31
0.0
  0
LINE
  5
181
330
1F
100
AcDbEntity
  8
0
  6
Continuous
 62
     7
370
    25
100
AcDbLine
 10
-2.9227044366
 20
5.6376727077
 30
0.0
 11
-2.908367284
 21
5.648559888
 31
0.0
  0
LINE
  5
182
330
1F
100
AcDbEntity
  8
0
  6
Continuous
 62
     7
370
    25
100
AcDbLine
 10
-3.1749999638
 20
5.4992612864
 30
0.0
 11
-2.9227044366
 21
5.6376727077
 31
0.0
  0
LINE
  5
183
330
1F
100
AcDbEntity
  8
0
  6
Continuous
 62
     7
370
    25
100
AcDbLine
 10
-3.4210154827
 20
5.3499727046
 30
0.0
 11
-3.1749999638
 21
5.4992612864
 31
0.0
  0
LINE
  5
184
330
1F
100
AcDbEntity
  8
0
  6
Continuous
 62
     7
370
    25
100
AcDbLine
 10
-3.4376127547
 20
5.3429998574
 30
0.0
 11
-3.4210154827
 21
5.3499727046
 31
0.0
  0
LINE
  5
185
330
1F
100
AcDbEntity
  8
0
  6
Continuous
 62
     7
370
    25
100
AcDbLine
 10
-3.4559539399
 20
5.3391078424
 30
0.0
 11
-3.4376127547
 21
5.3429998574
 31
0.0
  0
LINE
  5
186
330
1F
100
AcDbEntity
  8
0
  6
Continuous
 62
     7
370
    25
100
AcDbLine
 10
-3.4759042941
 20
5.3383628673
 30
0.0
 11
-3.4559539399
 21
5.3391078424
 31
0.0
  0
LINE
  5
187
330
1F
100
AcDbEntity
  8
0
  6
Continuous
 62
     7
370
    25
100
AcDbLine
 10
-3.4973461496
 20
5.3408212549
 30
0.0
 11
-3.4759042941
 21
5.3383628673
 31
0.0
  0
LINE
  5
188
330
1F
100
AcDbEntity
  8
0
  6
Continuous
 62
     7
370
    25
100
AcDbLine
 10
-3.5201447275
 20
5.34654941
 30
0.0
 11
-3.4973461496
 21
5.3408212549
 31
0.0
  0
LINE
  5
189
330
1F
100
AcDbEntity
  8
0
  6
Continuous
 62
     7
370
    25
100
AcDbLine
 10
-3.544182244
 20
5.3556037365
 30
0.0
 11
-3.5201447275
 21
5.34654941
 31
0.0
  0
LINE
  5
18A
330
1F
100
AcDbEntity
  8
0
  6
Continuous
 62
     7
370
    25
100
AcDbLine
 10
-3.5693325685
 20
5.3680453608
 30
0.0
 11
-3.544182244
 21
5.3556037365
 31
0.0
  0
LINE
  5
18B
330
1F
100
AcDbEntity
  8
0
  6
Continuous
 62
     7
370
    25
100
AcDbLine
 10
-3.5954407932
 20
5.3839062693
 30
0.0
 11
-3.5693325685
 21
5.3680453608
 31
0.0
  0
LINE
  5
18C
330
1F
100
AcDbEntity
  8
0
  6
Continuous
 62
     7
370
    25
100
AcDbLine
 10
-3.650055705
 20
5.4261019973
 30
0.0
 11
-3.5954407932
 21
5.3839062693
 31
0.0
  0
LINE
  5
18D
330
1F
100
AcDbEntity
  8
0
  6
Continuous
 62
     7
370
    25
100
AcDbLine
 10
-3.7069478565
 20
5.4825020595
 30
0.0
 11
-3.650055705
 21
5.4261019973
 31
0.0
  0
LINE
  5
18E
330
1F
100
AcDbEntity
  8
0
  6
Continuous
 62
     7
370
    25
100
AcDbLine
 10
-3.7650156372
 20
5.5533383868
 30
0.0
 11
-3.7069478565
 21
5.4825020595
 31
0.0
  0
LINE
  5
18F
330
1F
100
AcDbEntity
  8
0
  6
Continuous
 62
     7
370
    25
100
AcDbLine
 10
-3.8004919625
 20
5.6033852098
 30
0.0
 11
-3.7650156372
 21
5.5533383868
 31
0.0
  0
LINE
  5
190
330
1F
100
AcDbEntity
  8
0
  6
Continuous
 62
     7
370
    25
100
AcDbLine
 10
-3.8359127634
 20
5.6462357636
 30
0.0
 11
-3.8004919625
 21
5.6033852098
 31
0.0
  0
LINE
  5
191
330
1F
100
AcDbEntity
  8
0
  6
Continuous
 62
     7
370
    25
100
AcDbLine
 10
-3.904027249
 20
5.7159135826
 30
0.0
 11
-3.8359127634
 21
5.6462357636
 31
0.0
  0
LINE
  5
192
330
1F
100
AcDbEntity
  8
0
  6
Continuous
 62
     7
370
    25
100
AcDbLine
 10
-3.953714775
 20
5.7610349256
 30
0.0
 11
-3.904027249
 21
5.7159135826
 31
0.0
  0
LINE
  5
193
330
1F
100
AcDbEntity
  8
0
  6
Continuous
 62
     7
370
    25
100
AcDbLine
 10
-4.0140717154
 20
5.8114162033
 30
0.0
 11
-3.953714775
 21
5.7610349256
 31
0.0
  0
LINE
  5
194
330
1F
100
AcDbEntity
  8
0
  6
Continuous
 62
     7
370
    25
100
AcDbLine
 10
-4.087840582
 20
5.8678875594
 30
0.0
 11
-4.0140717154
 21
5.8114162033
 31
0.0
  0
LINE
  5
195
330
1F
100
AcDbEntity
  8
0
  6
Continuous
 62
     7
370
    25
100
AcDbLine
 10
-4.1714735828
 20
5.9265041962
 30
0.0
 11
-4.087840582
 21
5.8678875594
 31
0.0
  0
LINE
  5
196
330
1F
100
AcDbEntity
  8
0
  6
Continuous
 62
     7
370
    25
100
AcDbLine
 10
-4.2676039786
 20
5.9880668393
 30
0.0
 11
-4.1714735828
 21
5.9265041962
 31
0.0
  0
LINE
  5
197
330
1F
100
AcDbEntity
  8
0
  6
Continuous
 62
     7
370
    25
100
AcDbLine
 10
-4.3771478947
 20
6.0519425566
 30
0.0
 11
-4.2676039786
 21
5.9880668393
 31
0.0
  0
LINE
  5
198
330
1F
100
AcDbEntity
  8
0
  6
Continuous
 62
     7
370
    25
100
AcDbLine
 10
-4.5002863746
 20
6.1169646613
 30
0.0
 11
-4.3771478947
 21
6.0519425566
 31
0.0
  0
LINE
  5
199
330
1F
100
AcDbEntity
  8
0
  6
Continuous
 62
     7
370
    25
100
AcDbLine
 10
-4.6360769906
 20
6.181540913
 30
0.0
 11
-4.5002863746
 21
6.1169646613
 31
0.0
  0
LINE
  5
19A
330
1F
100
AcDbEntity
  8
0
  6
Continuous
 62
     7
370
    25
100
AcDbLine
 10
-4.7855840711
 20
6.2451146736
 30
0.0
 11
-4.6360769906
 21
6.181540913
 31
0.0
  0
LINE
  5
19B
330
1F
100
AcDbEntity
  8
0
  6
Continuous
 62
     7
370
    25
100
AcDbLine
 10
-4.9305546848
 20
6.2999527826
 30
0.0
 11
-4.7855840711
 21
6.2451146736
 31
0.0
  0
ARC
  5
19C
330
1F
100
AcDbEntity
  8
0
  6
Continuous
 62
     7
370
    25
100
AcDbCircle
 10
0.0000094154
 20
-0.0000104968
 30
0.0
 40
7.999999979234067
100
AcDbArc
 50
128.0479339789
 51
131.9520731527
  0
LINE
  5
19D
330
1F
100
AcDbEntity
  8
0
  6
Continuous
 62
     7
370
    25
100
AcDbLine
 10
-5.3192294303
 20
5.7973330261
 30
0.0
 11
-5.3480605355
 21
5.949623733
 31
0.0
  0
LINE
  5
19E
330
1F
100
AcDbEntity
  8
0
  6
Continuous
 62
     7
370
    25
100
AcDbLine
 10
-5.2825830776
 20
5.6390578989
 30
0.0
 11
-5.3192294303
 21
5.7973330261
 31
0.0
  0
LINE
  5
19F
330
1F
100
AcDbEntity
  8
0
  6
Continuous
 62
     7
370
    25
100
AcDbLine
 10
-5.2425677258
 20
5.4941167239
 30
0.0
 11
-5.2825830776
 21
5.6390578989
 31
0.0
  0
LINE
  5
1A0
330
1F
100
AcDbEntity
  8
0
  6
Continuous
 62
     7
370
    25
100
AcDbLine
 10
-5.1999162341
 20
5.3615580052
 30
0.0
 11
-5.2425677258
 21
5.4941167239
 31
0.0
  0
LINE
  5
1A1
330
1F
100
AcDbEntity
  8
0
  6
Continuous
 62
     7
370
    25
100
AcDbLine
 10
-5.1560330657
 20
5.2425863259
 30
0.0
 11
-5.1999162341
 21
5.3615580052
 31
0.0
  0
LINE
  5
1A2
330
1F
100
AcDbEntity
  8
0
  6
Continuous
 62
     7
370
    25
100
AcDbLine
 10
-5.1120984932
 20
5.1372262105
 30
0.0
 11
-5.1560330657
 21
5.2425863259
 31
0.0
  0
LINE
  5
1A3
330
1F
100
AcDbEntity
  8
0
  6
Continuous
 62
     7
370
    25
100
AcDbLine
 10
-5.0688951293
 20
5.0446851179
 30
0.0
 11
-5.1120984932
 21
5.1372262105
 31
0.0
  0
LINE
  5
1A4
330
1F
100
AcDbEntity
  8
0
  6
Continuous
 62
     7
370
    25
100
AcDbLine
 10
-5.0260915732
 20
4.9622308934
 30
0.0
 11
-5.0688951293
 21
5.0446851179
 31
0.0
  0
LINE
  5
1A5
330
1F
100
AcDbEntity
  8
0
  6
Continuous
 62
     7
370
    25
100
AcDbLine
 10
-4.9869564631
 20
4.8940422135
 30
0.0
 11
-5.0260915732
 21
4.9622308934
 31
0.0
  0
LINE
  5
1A6
330
1F
100
AcDbEntity
  8
0
  6
Continuous
 62
     7
370
    25
100
AcDbLine
 10
-4.951148801
 20
4.8372743468
 30
0.0
 11
-4.9869564631
 21
4.8940422135
 31
0.0
  0
LINE
  5
1A7
330
1F
100
AcDbEntity
  8
0
  6
Continuous
 62
     7
370
    25
100
AcDbLine
 10
-4.8943575224
 20
4.758095236
 30
0.0
 11
-4.951148801
 21
4.8372743468
 31
0.0
  0
LINE
  5
1A8
330
1F
100
AcDbEntity
  8
0
  6
Continuous
 62
     7
370
    25
100
AcDbLine
 10
-4.8583087752
 20
4.7157716463
 30
0.0
 11
-4.8943575224
 21
4.758095236
 31
0.0
  0
LINE
  5
1A9
330
1F
100
AcDbEntity
  8
0
  6
Continuous
 62
     7
370
    25
100
AcDbLine
 10
-4.8151825951
 20
4.672143758
 30
0.0
 11
-4.8583087752
 21
4.7157716463
 31
0.0
  0
LINE
  5
1AA
330
1F
100
AcDbEntity
  8
0
  6
Continuous
 62
     7
370
    25
100
AcDbLine
 10
-4.7555058255
 20
4.6026575439
 30
0.0
 11
-4.8151825951
 21
4.672143758
 31
0.0
  0
LINE
  5
1AB
330
1F
100
AcDbEntity
  8
0
  6
Continuous
 62
     7
370
    25
100
AcDbLine
 10
-4.7098417968
 20
4.5368358896
 30
0.0
 11
-4.7555058255
 21
4.6026575439
 31
0.0
  0
LINE
  5
1AC
330
1F
100
AcDbEntity
  8
0
  6
Continuous
 62
     7
370
    25
100
AcDbLine
 10
-4.6777708065
 20
4.4757235874
 30
0.0
 11
-4.7098417968
 21
4.5368358896
 31
0.0
  0
LINE
  5
1AD
330
1F
100
AcDbEntity
  8
0
  6
Continuous
 62
     7
370
    25
100
AcDbLine
 10
-4.6666846264
 20
4.4472577321
 30
0.0
 11
-4.6777708065
 21
4.4757235874
 31
0.0
  0
LINE
  5
1AE
330
1F
100
AcDbEntity
  8
0
  6
Continuous
 62
     7
370
    25
100
AcDbLine
 10
-4.658799265
 20
4.4203289447
 30
0.0
 11
-4.6666846264
 21
4.4472577321
 31
0.0
  0
LINE
  5
1AF
330
1F
100
AcDbEntity
  8
0
  6
Continuous
 62
     7
370
    25
100
AcDbLine
 10
-4.6540566868
 20
4.395084383
 30
0.0
 11
-4.658799265
 21
4.4203289447
 31
0.0
  0
LINE
  5
1B0
330
1F
100
AcDbEntity
  8
0
  6
Continuous
 62
     7
370
    25
100
AcDbLine
 10
-4.6523744291
 20
4.371637552
 30
0.0
 11
-4.6540566868
 21
4.395084383
 31
0.0
  0
LINE
  5
1B1
330
1F
100
AcDbEntity
  8
0
  6
Continuous
 62
     7
370
    25
100
AcDbLine
 10
-4.6536767246
 20
4.350094506
 30
0.0
 11
-4.6523744291
 21
4.371637552
 31
0.0
  0
LINE
  5
1B2
330
1F
100
AcDbEntity
  8
0
  6
Continuous
 62
     7
370
    25
100
AcDbLine
 10
-4.6578746411
 20
4.3305766464
 30
0.0
 11
-4.6536767246
 21
4.350094506
 31
0.0
  0
LINE
  5
1B3
330
1F
100
AcDbEntity
  8
0
  6
Continuous
 62
     7
370
    25
100
AcDbLine
 10
-4.6648925448
 20
4.3131898481
 30
0.0
 11
-4.6578746411
 21
4.3305766464
 31
0.0
  0
LINE
  5
1B4
330
1F
100
AcDbEntity
  8
0
  6
Continuous
 62
     7
370
    25
100
AcDbLine
 10
-4.6746414858
 20
4.2980556109
 30
0.0
 11
-4.6648925448
 21
4.3131898481
 31
0.0
  0
LINE
  5
1B5
330
1F
100
AcDbEntity
  8
0
  6
Continuous
 62
     7
370
    25
100
AcDbLine
 10
-4.8643822
 20
4.0817013331
 30
0.0
 11
-4.6746414858
 21
4.2980556109
 31
0.0
  0
LINE
  5
1B6
330
1F
100
AcDbEntity
  8
0
  6
Continuous
 62
     7
370
    25
100
AcDbLine
 10
-5.044501474
 20
3.8572736566
 30
0.0
 11
-4.8643822
 21
4.0817013331
 31
0.0
  0
LINE
  5
1B7
330
1F
100
AcDbEntity
  8
0
  6
Continuous
 62
     7
370
    25
100
AcDbLine
 10
-5.0577129016
 20
3.8450448134
 30
0.0
 11
-5.044501474
 21
3.8572736566
 31
0.0
  0
LINE
  5
1B8
330
1F
100
AcDbEntity
  8
0
  6
Continuous
 62
     7
370
    25
100
AcDbLine
 10
-5.0736168275
 20
3.8351143349
 30
0.0
 11
-5.0577129016
 21
3.8450448134
 31
0.0
  0
LINE
  5
1B9
330
1F
100
AcDbEntity
  8
0
  6
Continuous
 62
     7
370
    25
100
AcDbLine
 10
-5.0921092968
 20
3.827590921
 30
0.0
 11
-5.0736168275
 21
3.8351143349
 31
0.0
  0
LINE
  5
1BA
330
1F
100
AcDbEntity
  8
0
  6
Continuous
 62
     7
370
    25
100
AcDbLine
 10
-5.1130988823
 20
3.8225675074
 30
0.0
 11
-5.0921092968
 21
3.827590921
 31
0.0
  0
LINE
  5
1BB
330
1F
100
AcDbEntity
  8
0
  6
Continuous
 62
     7
370
    25
100
AcDbLine
 10
-5.1364816468
 20
3.8201526954
 30
0.0
 11
-5.1130988823
 21
3.8225675074
 31
0.0
  0
LINE
  5
1BC
330
1F
100
AcDbEntity
  8
0
  6
Continuous
 62
     7
370
    25
100
AcDbLine
 10
-5.1621662266
 20
3.8204396352
 30
0.0
 11
-5.1364816468
 21
3.8201526954
 31
0.0
  0
LINE
  5
1BD
330
1F
100
AcDbEntity
  8
0
  6
Continuous
 62
     7
370
    25
100
AcDbLine
 10
-5.1900551541
 20
3.8235290316
 30
0.0
 11
-5.1621662266
 21
3.8204396352
 31
0.0
  0
LINE
  5
1BE
330
1F
100
AcDbEntity
  8
0
  6
Continuous
 62
     7
370
    25
100
AcDbLine
 10
-5.2200135947
 20
3.8295037293
 30
0.0
 11
-5.1900551541
 21
3.8235290316
 31
0.0
  0
LINE
  5
1BF
330
1F
100
AcDbEntity
  8
0
  6
Continuous
 62
     7
370
    25
100
AcDbLine
 10
-5.285766633
 20
3.8504754321
 30
0.0
 11
-5.2200135947
 21
3.8295037293
 31
0.0
  0
LINE
  5
1C0
330
1F
100
AcDbEntity
  8
0
  6
Continuous
 62
     7
370
    25
100
AcDbLine
 10
-5.3585177472
 20
3.8840158855
 30
0.0
 11
-5.285766633
 21
3.8504754321
 31
0.0
  0
LINE
  5
1C1
330
1F
100
AcDbEntity
  8
0
  6
Continuous
 62
     7
370
    25
100
AcDbLine
 10
-5.4373110211
 20
3.9307199335
 30
0.0
 11
-5.3585177472
 21
3.8840158855
 31
0.0
  0
LINE
  5
1C2
330
1F
100
AcDbEntity
  8
0
  6
Continuous
 62
     7
370
    25
100
AcDbLine
 10
-5.4877649644
 20
3.9656150034
 30
0.0
 11
-5.4373110211
 21
3.9307199335
 31
0.0
  0
LINE
  5
1C3
330
1F
100
AcDbEntity
  8
0
  6
Continuous
 62
     7
370
    25
100
AcDbLine
 10
-5.5357053049
 20
3.9937666429
 30
0.0
 11
-5.4877649644
 21
3.9656150034
 31
0.0
  0
LINE
  5
1C4
330
1F
100
AcDbEntity
  8
0
  6
Continuous
 62
     7
370
    25
100
AcDbLine
 10
-5.6235432205
 20
4.0359458337
 30
0.0
 11
-5.5357053049
 21
3.9937666429
 31
0.0
  0
LINE
  5
1C5
330
1F
100
AcDbEntity
  8
0
  6
Continuous
 62
     7
370
    25
100
AcDbLine
 10
-5.6856665934
 20
4.0613519199
 30
0.0
 11
-5.6235432205
 21
4.0359458337
 31
0.0
  0
LINE
  5
1C6
330
1F
100
AcDbEntity
  8
0
  6
Continuous
 62
     7
370
    25
100
AcDbLine
 10
-5.7596150916
 20
4.0880515697
 30
0.0
 11
-5.6856665934
 21
4.0613519199
 31
0.0
  0
LINE
  5
1C7
330
1F
100
AcDbEntity
  8
0
  6
Continuous
 62
     7
370
    25
100
AcDbLine
 10
-5.8482494025
 20
4.1158868367
 30
0.0
 11
-5.7596150916
 21
4.0880515697
 31
0.0
  0
LINE
  5
1C8
330
1F
100
AcDbEntity
  8
0
  6
Continuous
 62
     7
370
    25
100
AcDbLine
 10
-5.9468867645
 20
4.142364287
 30
0.0
 11
-5.8482494025
 21
4.1158868367
 31
0.0
  0
LINE
  5
1C9
330
1F
100
AcDbEntity
  8
0
  6
Continuous
 62
     7
370
    25
100
AcDbLine
 10
-6.0582754506
 20
4.167335803
 30
0.0
 11
-5.9468867645
 21
4.142364287
 31
0.0
  0
LINE
  5
1CA
330
1F
100
AcDbEntity
  8
0
  6
Continuous
 62
     7
370
    25
100
AcDbLine
 10
-6.183059875
 20
4.189893087
 30
0.0
 11
-6.0582754506
 21
4.167335803
 31
0.0
  0
LINE
  5
1CB
330
1F
100
AcDbEntity
  8
0
  6
Continuous
 62
     7
370
    25
100
AcDbLine
 10
-6.3210110707
 20
4.2088779843
 30
0.0
 11
-6.183059875
 21
4.189893087
 31
0.0
  0
LINE
  5
1CC
330
1F
100
AcDbEntity
  8
0
  6
Continuous
 62
     7
370
    25
100
AcDbLine
 10
-6.4706988352
 20
4.2231167104
 30
0.0
 11
-6.3210110707
 21
4.2088779843
 31
0.0
  0
LINE
  5
1CD
330
1F
100
AcDbEntity
  8
0
  6
Continuous
 62
     7
370
    25
100
AcDbLine
 10
-6.6329330237
 20
4.2317221174
 30
0.0
 11
-6.4706988352
 21
4.2231167104
 31
0.0
  0
LINE
  5
1CE
330
1F
100
AcDbEntity
  8
0
  6
Continuous
 62
     7
370
    25
100
AcDbLine
 10
-6.7879164924
 20
4.2336701024
 30
0.0
 11
-6.6329330237
 21
4.2317221174
 31
0.0
  0
ARC
  5
1CF
330
1F
100
AcDbEntity
  8
0
  6
Continuous
 62
     7
370
    25
100
AcDbCircle
 10
0.0000122227
 20
-0.0000072299
 30
0.0
 40
7.999999999723311
100
AcDbArc
 50
148.0479292789
 51
151.9520686784
  0
LINE
  5
1D0
330
1F
100
AcDbEntity
  8
0
  6
Continuous
 62
     7
370
    25
100
AcDbLine
 10
-6.9812452668
 20
3.6284274986
 30
0.0
 11
-7.0604241219
 21
3.7616730621
 31
0.0
  0
LINE
  5
1D1
330
1F
100
AcDbEntity
  8
0
  6
Continuous
 62
     7
370
    25
100
AcDbLine
 10
-6.8926757303
 20
3.4922312326
 30
0.0
 11
-6.9812452668
 21
3.6284274986
 31
0.0
  0
LINE
  5
1D2
330
1F
100
AcDbEntity
  8
0
  6
Continuous
 62
     7
370
    25
100
AcDbLine
 10
-6.805500786
 20
3.3697171988
 30
0.0
 11
-6.8926757303
 21
3.4922312326
 31
0.0
  0
LINE
  5
1D3
330
1F
100
AcDbEntity
  8
0
  6
Continuous
 62
     7
370
    25
100
AcDbLine
 10
-6.7200837814
 20
3.2597403967
 30
0.0
 11
-6.805500786
 21
3.3697171988
 31
0.0
  0
LINE
  5
1D4
330
1F
100
AcDbEntity
  8
0
  6
Continuous
 62
     7
370
    25
100
AcDbLine
 10
-6.6381563404
 20
3.162952622
 30
0.0
 11
-6.7200837814
 21
3.2597403967
 31
0.0
  0
LINE
  5
1D5
330
1F
100
AcDbEntity
  8
0
  6
Continuous
 62
     7
370
    25
100
AcDbLine
 10
-6.5608361047
 20
3.0789728626
 30
0.0
 11
-6.6381563404
 21
3.162952622
 31
0.0
  0
LINE
  5
1D6
330
1F
100
AcDbEntity
  8
0
  6
Continuous
 62
     7
370
    25
100
AcDbLine
 10
-6.488587253
 20
3.0067891482
 30
0.0
 11
-6.5608361047
 21
3.0789728626
 31
0.0
  0
LINE
  5
1D7
330
1F
100
AcDbEntity
  8
0
  6
Continuous
 62
     7
370
    25
100
AcDbLine
 10
-6.4201640456
 20
2.943947172
 30
0.0
 11
-6.488587253
 21
3.0067891482
 31
0.0
  0
LINE
  5
1D8
330
1F
100
AcDbEntity
  8
0
  6
Continuous
 62
     7
370
    25
100
AcDbLine
 10
-6.3600672129
 20
2.8932557498
 30
0.0
 11
-6.4201640456
 21
2.943947172
 31
0.0
  0
LINE
  5
1D9
330
1F
100
AcDbEntity
  8
0
  6
Continuous
 62
     7
370
    25
100
AcDbLine
 10
-6.3070032448
 20
2.8521583262
 30
0.0
 11
-6.3600672129
 21
2.8932557498
 31
0.0
  0
LINE
  5
1DA
330
1F
100
AcDbEntity
  8
0
  6
Continuous
 62
     7
370
    25
100
AcDbLine
 10
-6.2265559981
 20
2.7971780341
 30
0.0
 11
-6.3070032448
 21
2.8521583262
 31
0.0
  0
LINE
  5
1DB
330
1F
100
AcDbEntity
  8
0
  6
Continuous
 62
     7
370
    25
100
AcDbLine
 10
-6.1782057389
 20
2.7697363995
 30
0.0
 11
-6.2265559981
 21
2.7971780341
 31
0.0
  0
LINE
  5
1DC
330
1F
100
AcDbEntity
  8
0
  6
Continuous
 62
     7
370
    25
100
AcDbLine
 10
-6.1227589019
 20
2.7434895079
 30
0.0
 11
-6.1782057389
 21
2.7697363995
 31
0.0
  0
LINE
  5
1DD
330
1F
100
AcDbEntity
  8
0
  6
Continuous
 62
     7
370
    25
100
AcDbLine
 10
-6.0429152968
 20
2.6986045072
 30
0.0
 11
-6.1227589019
 21
2.7434895079
 31
0.0
  0
LINE
  5
1DE
330
1F
100
AcDbEntity
  8
0
  6
Continuous
 62
     7
370
    25
100
AcDbLine
 10
-5.9774928309
 20
2.6523705169
 30
0.0
 11
-6.0429152968
 21
2.6986045072
 31
0.0
  0
LINE
  5
1DF
330
1F
100
AcDbEntity
  8
0
  6
Continuous
 62
     7
370
    25
100
AcDbLine
 10
-5.926454378
 20
2.6059125821
 30
0.0
 11
-5.9774928309
 21
2.6523705169
 31
0.0
  0
LINE
  5
1E0
330
1F
100
AcDbEntity
  8
0
  6
Continuous
 62
     7
370
    25
100
AcDbLine
 10
-5.9063008289
 20
2.5829550789
 30
0.0
 11
-5.926454378
 21
2.6059125821
 31
0.0
  0
LINE
  5
1E1
330
1F
100
AcDbEntity
  8
0
  6
Continuous
 62
     7
370
    25
100
AcDbLine
 10
-5.8896808189
 20
2.5603473827
 30
0.0
 11
-5.9063008289
 21
2.5829550789
 31
0.0
  0
LINE
  5
1E2
330
1F
100
AcDbEntity
  8
0
  6
Continuous
 62
     7
370
    25
100
AcDbLine
 10
-5.8765900891
 20
2.5382472507
 30
0.0
 11
-5.8896808189
 21
2.5603473827
 31
0.0
  0
LINE
  5
1E3
330
1F
100
AcDbEntity
  8
0
  6
Continuous
 62
     7
370
    25
100
AcDbLine
 10
-5.8669900024
 20
2.5167897251
 30
0.0
 11
-5.8765900891
 21
2.5382472507
 31
0.0
  0
LINE
  5
1E4
330
1F
100
AcDbEntity
  8
0
  6
Continuous
 62
     7
370
    25
100
AcDbLine
 10
-5.8608455936
 20
2.4961005445
 30
0.0
 11
-5.8669900024
 21
2.5167897251
 31
0.0
  0
LINE
  5
1E5
330
1F
100
AcDbEntity
  8
0
  6
Continuous
 62
     7
370
    25
100
AcDbLine
 10
-5.8581148845
 20
2.4763239104
 30
0.0
 11
-5.8608455936
 21
2.4961005445
 31
0.0
  0
LINE
  5
1E6
330
1F
100
AcDbEntity
  8
0
  6
Continuous
 62
     7
370
    25
100
AcDbLine
 10
-5.8587629271
 20
2.4575854627
 30
0.0
 11
-5.8581148845
 21
2.4763239104
 31
0.0
  0
LINE
  5
1E7
330
1F
100
AcDbEntity
  8
0
  6
Continuous
 62
     7
370
    25
100
AcDbLine
 10
-5.8627477085
 20
2.4400295997
 30
0.0
 11
-5.8587629271
 21
2.4575854627
 31
0.0
  0
LINE
  5
1E8
330
1F
100
AcDbEntity
  8
0
  6
Continuous
 62
     7
370
    25
100
AcDbLine
 10
-5.9670481051
 20
2.1718278873
 30
0.0
 11
-5.8627477085
 21
2.4400295997
 31
0.0
  0
LINE
  5
1E9
330
1F
100
AcDbEntity
  8
0
  6
Continuous
 62
     7
370
    25
100
AcDbLine
 10
-6.0595460427
 20
1.8993304374
 30
0.0
 11
-5.9670481051
 21
2.1718278873
 31
0.0
  0
LINE
  5
1EA
330
1F
100
AcDbEntity
  8
0
  6
Continuous
 62
     7
370
    25
100
AcDbLine
 10
-6.0677782024
 20
1.8833205102
 30
0.0
 11
-6.0595460427
 21
1.8993304374
 31
0.0
  0
LINE
  5
1EB
330
1F
100
AcDbEntity
  8
0
  6
Continuous
 62
     7
370
    25
100
AcDbLine
 10
-6.0793267123
 20
1.8685494828
 30
0.0
 11
-6.0677782024
 21
1.8833205102
 31
0.0
  0
LINE
  5
1EC
330
1F
100
AcDbEntity
  8
0
  6
Continuous
 62
     7
370
    25
100
AcDbLine
 10
-6.0941306506
 20
1.855154967
 30
0.0
 11
-6.0793267123
 21
1.8685494828
 31
0.0
  0
LINE
  5
1ED
330
1F
100
AcDbEntity
  8
0
  6
Continuous
 62
     7
370
    25
100
AcDbLine
 10
-6.1121363923
 20
1.843255654
 30
0.0
 11
-6.0941306506
 21
1.855154967
 31
0.0
  0
LINE
  5
1EE
330
1F
100
AcDbEntity
  8
0
  6
Continuous
 62
     7
370
    25
100
AcDbLine
 10
-6.1332830158
 20
1.8329891555
 30
0.0
 11
-6.1121363923
 21
1.843255654
 31
0.0
  0
LINE
  5
1EF
330
1F
100
AcDbEntity
  8
0
  6
Continuous
 62
     7
370
    25
100
AcDbLine
 10
-6.1575168148
 20
1.8244740469
 30
0.0
 11
-6.1332830158
 21
1.8329891555
 31
0.0
  0
LINE
  5
1F0
330
1F
100
AcDbEntity
  8
0
  6
Continuous
 62
     7
370
    25
100
AcDbLine
 10
-6.1847804405
 20
1.8178386189
 30
0.0
 11
-6.1575168148
 21
1.8244740469
 31
0.0
  0
LINE
  5
1F1
330
1F
100
AcDbEntity
  8
0
  6
Continuous
 62
     7
370
    25
100
AcDbLine
 10
-6.2149757157
 20
1.8132066027
 30
0.0
 11
-6.1847804405
 21
1.8178386189
 31
0.0
  0
LINE
  5
1F2
330
1F
100
AcDbEntity
  8
0
  6
Continuous
 62
     7
370
    25
100
AcDbLine
 10
-6.2839359562
 20
1.810424659
 30
0.0
 11
-6.2149757157
 21
1.8132066027
 31
0.0
  0
LINE
  5
1F3
330
1F
100
AcDbEntity
  8
0
  6
Continuous
 62
     7
370
    25
100
AcDbLine
 10
-6.3637711987
 20
1.817060111
 30
0.0
 11
-6.2839359562
 21
1.810424659
 31
0.0
  0
LINE
  5
1F4
330
1F
100
AcDbEntity
  8
0
  6
Continuous
 62
     7
370
    25
100
AcDbLine
 10
-6.453786489
 20
1.8339986365
 30
0.0
 11
-6.3637711987
 21
1.817060111
 31
0.0
  0
LINE
  5
1F5
330
1F
100
AcDbEntity
  8
0
  6
Continuous
 62
     7
370
    25
100
AcDbLine
 10
-6.5131323822
 20
1.8495329439
 30
0.0
 11
-6.453786489
 21
1.8339986365
 31
0.0
  0
LINE
  5
1F6
330
1F
100
AcDbEntity
  8
0
  6
Continuous
 62
     7
370
    25
100
AcDbLine
 10
-6.5678099977
 20
1.8595904078
 30
0.0
 11
-6.5131323822
 21
1.8495329439
 31
0.0
  0
LINE
  5
1F7
330
1F
100
AcDbEntity
  8
0
  6
Continuous
 62
     7
370
    25
100
AcDbLine
 10
-6.6647768255
 20
1.869183461
 30
0.0
 11
-6.5678099977
 21
1.8595904078
 31
0.0
  0
LINE
  5
1F8
330
1F
100
AcDbEntity
  8
0
  6
Continuous
 62
     7
370
    25
100
AcDbLine
 10
-6.7318431361
 20
1.8718099053
 30
0.0
 11
-6.6647768255
 21
1.869183461
 31
0.0
  0
LINE
  5
1F9
330
1F
100
AcDbEntity
  8
0
  6
Continuous
 62
     7
370
    25
100
AcDbLine
 10
-6.8104636979
 20
1.8716075485
 30
0.0
 11
-6.7318431361
 21
1.8718099053
 31
0.0
  0
LINE
  5
1FA
330
1F
100
AcDbEntity
  8
0
  6
Continuous
 62
     7
370
    25
100
AcDbLine
 10
-6.9032729281
 20
1.8674494313
 30
0.0
 11
-6.8104636979
 21
1.8716075485
 31
0.0
  0
LINE
  5
1FB
330
1F
100
AcDbEntity
  8
0
  6
Continuous
 62
     7
370
    25
100
AcDbLine
 10
-7.0050176735
 20
1.8585940886
 30
0.0
 11
-6.9032729281
 21
1.8674494313
 31
0.0
  0
LINE
  5
1FC
330
1F
100
AcDbEntity
  8
0
  6
Continuous
 62
     7
370
    25
100
AcDbLine
 10
-7.1182294769
 20
1.8439624244
 30
0.0
 11
-7.0050176735
 21
1.8585940886
 31
0.0
  0
LINE
  5
1FD
330
1F
100
AcDbEntity
  8
0
  6
Continuous
 62
     7
370
    25
100
AcDbLine
 10
-7.2432035951
 20
1.8224805953
 30
0.0
 11
-7.1182294769
 21
1.8439624244
 31
0.0
  0
LINE
  5
1FE
330
1F
100
AcDbEntity
  8
0
  6
Continuous
 62
     7
370
    25
100
AcDbLine
 10
-7.3793284466
 20
1.793138455
 30
0.0
 11
-7.2432035951
 21
1.8224805953
 31
0.0
  0
LINE
  5
1FF
330
1F
100
AcDbEntity
  8
0
  6
Continuous
 62
     7
370
    25
100
AcDbLine
 10
-7.5248589965
 20
1.7553222571
 30
0.0
 11
-7.3793284466
 21
1.793138455
 31
0.0
  0
LINE
  5
200
330
1F
100
AcDbEntity
  8
0
  6
Continuous
 62
     7
370
    25
100
AcDbLine
 10
-7.6802523598
 20
1.7079213049
 30
0.0
 11
-7.5248589965
 21
1.7553222571
 31
0.0
  0
LINE
  5
201
330
1F
100
AcDbEntity
  8
0
  6
Continuous
 62
     7
370
    25
100
AcDbLine
 10
-7.8265554918
 20
1.6567443782
 30
0.0
 11
-7.6802523598
 21
1.7079213049
 31
0.0
  0
ARC
  5
202
330
1F
100
AcDbEntity
  8
0
  6
Continuous
 62
     7
370
    25
100
AcDbCircle
 10
0.0000139948
 20
-0.000002468
 30
0.0
 40
8.000000002646017
100
AcDbArc
 50
168.0479303789
 51
171.9520694222
  0
LINE
  5
203
330
1F
100
AcDbEntity
  8
0
  6
Continuous
 62
     7
370
    25
100
AcDbLine
 10
-7.8012199322
 20
1.0218799951
 30
0.0
 11
-7.9211963878
 21
1.1200091911
 31
0.0
  0
LINE
  5
204
330
1F
100
AcDbEntity
  8
0
  6
Continuous
 62
     7
370
    25
100
AcDbLine
 10
-7.6714100162
 20
0.9241900091
 30
0.0
 11
-7.8012199322
 21
1.0218799951
 31
0.0
  0
LINE
  5
205
330
1F
100
AcDbEntity
  8
0
  6
Continuous
 62
     7
370
    25
100
AcDbLine
 10
-7.5475899342
 20
0.8388800269
 30
0.0
 11
-7.6714100162
 21
0.9241900091
 31
0.0
  0
LINE
  5
206
330
1F
100
AcDbEntity
  8
0
  6
Continuous
 62
     7
370
    25
100
AcDbLine
 10
-7.429710019
 20
0.7647499925
 30
0.0
 11
-7.5475899342
 21
0.8388800269
 31
0.0
  0
LINE
  5
207
330
1F
100
AcDbEntity
  8
0
  6
Continuous
 62
     7
370
    25
100
AcDbLine
 10
-7.319619981
 20
0.7018200099
 30
0.0
 11
-7.429710019
 21
0.7647499925
 31
0.0
  0
LINE
  5
208
330
1F
100
AcDbEntity
  8
0
  6
Continuous
 62
     7
370
    25
100
AcDbLine
 10
-7.2182400088
 20
0.6493500253
 30
0.0
 11
-7.319619981
 21
0.7018200099
 31
0.0
  0
LINE
  5
209
330
1F
100
AcDbEntity
  8
0
  6
Continuous
 62
     7
370
    25
100
AcDbLine
 10
-7.1256599281
 20
0.6062299724
 30
0.0
 11
-7.2182400088
 21
0.6493500253
 31
0.0
  0
LINE
  5
20A
330
1F
100
AcDbEntity
  8
0
  6
Continuous
 62
     7
370
    25
100
AcDbLine
 10
-7.0398699394
 20
0.5705799937
 30
0.0
 11
-7.1256599281
 21
0.6062299724
 31
0.0
  0
LINE
  5
20B
330
1F
100
AcDbEntity
  8
0
  6
Continuous
 62
     7
370
    25
100
AcDbLine
 10
-6.9660599878
 20
0.5435000244
 30
0.0
 11
-7.0398699394
 21
0.5705799937
 31
0.0
  0
LINE
  5
20C
330
1F
100
AcDbEntity
  8
0
  6
Continuous
 62
     7
370
    25
100
AcDbLine
 10
-6.9021399738
 20
0.5230300453
 30
0.0
 11
-6.9660599878
 21
0.5435000244
 31
0.0
  0
LINE
  5
20D
330
1F
100
AcDbEntity
  8
0
  6
Continuous
 62
     7
370
    25
100
AcDbLine
 10
-6.807739944
 20
0.4988799579
 30
0.0
 11
-6.9021399738
 21
0.5230300453
 31
0.0
  0
LINE
  5
20E
330
1F
100
AcDbEntity
  8
0
  6
Continuous
 62
     7
370
    25
100
AcDbLine
 10
-6.752919937
 20
0.4896300364
 30
0.0
 11
-6.807739944
 21
0.4988799579
 31
0.0
  0
LINE
  5
20F
330
1F
100
AcDbEntity
  8
0
  6
Continuous
 62
     7
370
    25
100
AcDbLine
 10
-6.6918399931
 20
0.4839300192
 30
0.0
 11
-6.752919937
 21
0.4896300364
 31
0.0
  0
LINE
  5
210
330
1F
100
AcDbEntity
  8
0
  6
Continuous
 62
     7
370
    25
100
AcDbLine
 10
-6.6014599721
 20
0.4690599838
 30
0.0
 11
-6.6918399931
 21
0.4839300192
 31
0.0
  0
LINE
  5
211
330
1F
100
AcDbEntity
  8
0
  6
Continuous
 62
     7
370
    25
100
AcDbLine
 10
-6.5241699257
 20
0.4479900077
 30
0.0
 11
-6.6014599721
 21
0.4690599838
 31
0.0
  0
LINE
  5
212
330
1F
100
AcDbEntity
  8
0
  6
Continuous
 62
     7
370
    25
100
AcDbLine
 10
-6.4603199775
 20
0.4217900441
 30
0.0
 11
-6.5241699257
 21
0.4479900077
 31
0.0
  0
LINE
  5
213
330
1F
100
AcDbEntity
  8
0
  6
Continuous
 62
     7
370
    25
100
AcDbLine
 10
-6.4335299431
 20
0.4071099802
 30
0.0
 11
-6.4603199775
 21
0.4217900441
 31
0.0
  0
LINE
  5
214
330
1F
100
AcDbEntity
  8
0
  6
Continuous
 62
     7
370
    25
100
AcDbLine
 10
-6.4101799653
 20
0.3915500082
 30
0.0
 11
-6.4335299431
 21
0.4071099802
 31
0.0
  0
LINE
  5
215
330
1F
100
AcDbEntity
  8
0
  6
Continuous
 62
     7
370
    25
100
AcDbLine
 10
-6.390319982
 20
0.375259976
 30
0.0
 11
-6.4101799653
 21
0.3915500082
 31
0.0
  0
LINE
  5
216
330
1F
100
AcDbEntity
  8
0
  6
Continuous
 62
     7
370
    25
100
AcDbLine
 10
-6.3739600053
 20
0.3583800519
 30
0.0
 11
-6.390319982
 21
0.375259976
 31
0.0
  0
LINE
  5
217
330
1F
100
AcDbEntity
  8
0
  6
Continuous
 62
     7
370
    25
100
AcDbLine
 10
-6.3611099475
 20
0.3410400288
 30
0.0
 11
-6.3739600053
 21
0.3583800519
 31
0.0
  0
LINE
  5
218
330
1F
100
AcDbEntity
  8
0
  6
Continuous
 62
     7
370
    25
100
AcDbLine
 10
-6.3517799901
 20
0.323390056
 30
0.0
 11
-6.3611099475
 21
0.3410400288
 31
0.0
  0
LINE
  5
219
330
1F
100
AcDbEntity
  8
0
  6
Continuous
 62
     7
370
    25
100
AcDbLine
 10
-6.3459799297
 20
0.3055600075
 30
0.0
 11
-6.3517799901
 21
0.323390056
 31
0.0
  0
LINE
  5
21A
330
1F
100
AcDbEntity
  8
0
  6
Continuous
 62
     7
370
    25
100
AcDbLine
 10
-6.3437199476
 20
0.2877000326
 30
0.0
 11
-6.3459799297
 21
0.3055600075
 31
0.0
  0
LINE
  5
21B
330
1F
100
AcDbEntity
  8
0
  6
Continuous
 62
     7
370
    25
100
AcDbLine
 10
-6.3499999362
 20
0.0000000319
 30
0.0
 11
-6.3437199476
 21
0.2877000326
 31
0.0
  0
LINE
  5
21C
330
1F
100
AcDbEntity
  8
0
  6
Continuous
 62
     7
370
    25
100
AcDbLine
 10
-6.3437200126
 20
-0.2876999747
 30
0.0
 11
-6.3499999362
 21
0.0000000319
 31
0.0
  0
LINE
  5
21D
330
1F
100
AcDbEntity
  8
0
  6
Continuous
 62
     7
370
    25
100
AcDbLine
 10
-6.3459800017
 20
-0.3055599651
 30
0.0
 11
-6.3437200126
 21
-0.2876999747
 31
0.0
  0
LINE
  5
21E
330
1F
100
AcDbEntity
  8
0
  6
Continuous
 62
     7
370
    25
100
AcDbLine
 10
-6.3517799676
 20
-0.3233899897
 30
0.0
 11
-6.3459800017
 21
-0.3055599651
 31
0.0
  0
LINE
  5
21F
330
1F
100
AcDbEntity
  8
0
  6
Continuous
 62
     7
370
    25
100
AcDbLine
 10
-6.361110002
 20
-0.3410399894
 30
0.0
 11
-6.3517799676
 21
-0.3233899897
 31
0.0
  0
LINE
  5
220
330
1F
100
AcDbEntity
  8
0
  6
Continuous
 62
     7
370
    25
100
AcDbLine
 10
-6.3739599743
 20
-0.358379948
 30
0.0
 11
-6.361110002
 21
-0.3410399894
 31
0.0
  0
LINE
  5
221
330
1F
100
AcDbEntity
  8
0
  6
Continuous
 62
     7
370
    25
100
AcDbLine
 10
-6.3903200109
 20
-0.3752600034
 30
0.0
 11
-6.3739599743
 21
-0.358379948
 31
0.0
  0
LINE
  5
222
330
1F
100
AcDbEntity
  8
0
  6
Continuous
 62
     7
370
    25
100
AcDbLine
 10
-6.4101799635
 20
-0.391550041
 30
0.0
 11
-6.3903200109
 21
-0.3752600034
 31
0.0
  0
LINE
  5
223
330
1F
100
AcDbEntity
  8
0
  6
Continuous
 62
     7
370
    25
100
AcDbLine
 10
-6.4335299518
 20
-0.407109948
 30
0.0
 11
-6.4101799635
 21
-0.391550041
 31
0.0
  0
LINE
  5
224
330
1F
100
AcDbEntity
  8
0
  6
Continuous
 62
     7
370
    25
100
AcDbLine
 10
-6.4603200217
 20
-0.4217900244
 30
0.0
 11
-6.4335299518
 21
-0.407109948
 31
0.0
  0
LINE
  5
225
330
1F
100
AcDbEntity
  8
0
  6
Continuous
 62
     7
370
    25
100
AcDbLine
 10
-6.524170029
 20
-0.4479900237
 30
0.0
 11
-6.4603200217
 21
-0.4217900244
 31
0.0
  0
LINE
  5
226
330
1F
100
AcDbEntity
  8
0
  6
Continuous
 62
     7
370
    25
100
AcDbLine
 10
-6.6014599935
 20
-0.4690599618
 30
0.0
 11
-6.524170029
 21
-0.4479900237
 31
0.0
  0
LINE
  5
227
330
1F
100
AcDbEntity
  8
0
  6
Continuous
 62
     7
370
    25
100
AcDbLine
 10
-6.6918400144
 20
-0.4839299441
 30
0.0
 11
-6.6014599935
 21
-0.4690599618
 31
0.0
  0
LINE
  5
228
330
1F
100
AcDbEntity
  8
0
  6
Continuous
 62
     7
370
    25
100
AcDbLine
 10
-6.7529199637
 20
-0.489630019
 30
0.0
 11
-6.6918400144
 21
-0.4839299441
 31
0.0
  0
LINE
  5
229
330
1F
100
AcDbEntity
  8
0
  6
Continuous
 62
     7
370
    25
100
AcDbLine
 10
-6.8077399373
 20
-0.4988799577
 30
0.0
 11
-6.7529199637
 21
-0.489630019
 31
0.0
  0
LINE
  5
22A
330
1F
100
AcDbEntity
  8
0
  6
Continuous
 62
     7
370
    25
100
AcDbLine
 10
-6.9021399889
 20
-0.5230299532
 30
0.0
 11
-6.8077399373
 21
-0.4988799577
 31
0.0
  0
LINE
  5
22B
330
1F
100
AcDbEntity
  8
0
  6
Continuous
 62
     7
370
    25
100
AcDbLine
 10
-6.9660599549
 20
-0.5434999527
 30
0.0
 11
-6.9021399889
 21
-0.5230299532
 31
0.0
  0
LINE
  5
22C
330
1F
100
AcDbEntity
  8
0
  6
Continuous
 62
     7
370
    25
100
AcDbLine
 10
-7.0398699927
 20
-0.5705799805
 30
0.0
 11
-6.9660599549
 21
-0.5434999527
 31
0.0
  0
LINE
  5
22D
330
1F
100
AcDbEntity
  8
0
  6
Continuous
 62
     7
370
    25
100
AcDbLine
 10
-7.1256599977
 20
-0.6062300062
 30
0.0
 11
-7.0398699927
 21
-0.5705799805
 31
0.0
  0
LINE
  5
22E
330
1F
100
AcDbEntity
  8
0
  6
Continuous
 62
     7
370
    25
100
AcDbLine
 10
-7.218239995
 20
-0.649349947
 30
0.0
 11
-7.1256599977
 21
-0.6062300062
 31
0.0
  0
LINE
  5
22F
330
1F
100
AcDbEntity
  8
0
  6
Continuous
 62
     7
370
    25
100
AcDbLine
 10
-7.3196200195
 20
-0.7018200286
 30
0.0
 11
-7.218239995
 21
-0.649349947
 31
0.0
  0
LINE
  5
230
330
1F
100
AcDbEntity
  8
0
  6
Continuous
 62
     7
370
    25
100
AcDbLine
 10
-7.4297100001
 20
-0.7647499508
 30
0.0
 11
-7.3196200195
 21
-0.7018200286
 31
0.0
  0
LINE
  5
231
330
1F
100
AcDbEntity
  8
0
  6
Continuous
 62
     7
370
    25
100
AcDbLine
 10
-7.547590011
 20
-0.8388800034
 30
0.0
 11
-7.4297100001
 21
-0.7647499508
 31
0.0
  0
LINE
  5
232
330
1F
100
AcDbEntity
  8
0
  6
Continuous
 62
     7
370
    25
100
AcDbLine
 10
-7.6714099306
 20
-0.9241899495
 30
0.0
 11
-7.547590011
 21
-0.8388800034
 31
0.0
  0
LINE
  5
233
330
1F
100
AcDbEntity
  8
0
  6
Continuous
 62
     7
370
    25
100
AcDbLine
 10
-7.8012199373
 20
-1.0218800095
 30
0.0
 11
-7.6714099306
 21
-0.9241899495
 31
0.0
  0
LINE
  5
234
330
1F
100
AcDbEntity
  8
0
  6
Continuous
 62
     7
370
    25
100
AcDbLine
 10
-7.9211963747
 20
-1.1200091162
 30
0.0
 11
-7.8012199373
 21
-1.0218800095
 31
0.0
  0
ARC
  5
235
330
1F
100
AcDbEntity
  8
0
  6
Continuous
 62
     7
370
    25
100
AcDbCircle
 10
0.0000139952
 20
0.0000026119
 30
0.0
 40
7.999999999682665
100
AcDbArc
 50
188.0479310789
 51
191.952070484
  0
LINE
  5
236
330
1F
100
AcDbEntity
  8
0
  6
Continuous
 62
     7
370
    25
100
AcDbLine
 10
-7.6802523766
 20
-1.7079213093
 30
0.0
 11
-7.8265554636
 21
-1.6567443516
 31
0.0
  0
LINE
  5
237
330
1F
100
AcDbEntity
  8
0
  6
Continuous
 62
     7
370
    25
100
AcDbLine
 10
-7.5248588845
 20
-1.7553222329
 30
0.0
 11
-7.6802523766
 21
-1.7079213093
 31
0.0
  0
LINE
  5
238
330
1F
100
AcDbEntity
  8
0
  6
Continuous
 62
     7
370
    25
100
AcDbLine
 10
-7.3793284658
 20
-1.7931384384
 30
0.0
 11
-7.5248588845
 21
-1.7553222329
 31
0.0
  0
LINE
  5
239
330
1F
100
AcDbEntity
  8
0
  6
Continuous
 62
     7
370
    25
100
AcDbLine
 10
-7.243203528
 20
-1.8224805588
 30
0.0
 11
-7.3793284658
 21
-1.7931384384
 31
0.0
  0
LINE
  5
23A
330
1F
100
AcDbEntity
  8
0
  6
Continuous
 62
     7
370
    25
100
AcDbLine
 10
-7.1182294798
 20
-1.8439624327
 30
0.0
 11
-7.243203528
 21
-1.8224805588
 31
0.0
  0
LINE
  5
23B
330
1F
100
AcDbEntity
  8
0
  6
Continuous
 62
     7
370
    25
100
AcDbLine
 10
-7.005017592
 20
-1.8585940582
 30
0.0
 11
-7.1182294798
 21
-1.8439624327
 31
0.0
  0
LINE
  5
23C
330
1F
100
AcDbEntity
  8
0
  6
Continuous
 62
     7
370
    25
100
AcDbLine
 10
-6.9032729695
 20
-1.8674493587
 30
0.0
 11
-7.005017592
 21
-1.8585940582
 31
0.0
  0
LINE
  5
23D
330
1F
100
AcDbEntity
  8
0
  6
Continuous
 62
     7
370
    25
100
AcDbLine
 10
-6.8104637397
 20
-1.8716074838
 30
0.0
 11
-6.9032729695
 21
-1.8674493587
 31
0.0
  0
LINE
  5
23E
330
1F
100
AcDbEntity
  8
0
  6
Continuous
 62
     7
370
    25
100
AcDbLine
 10
-6.7318430635
 20
-1.8718098962
 30
0.0
 11
-6.8104637397
 21
-1.8716074838
 31
0.0
  0
LINE
  5
23F
330
1F
100
AcDbEntity
  8
0
  6
Continuous
 62
     7
370
    25
100
AcDbLine
 10
-6.6647767951
 20
-1.8691834297
 30
0.0
 11
-6.7318430635
 21
-1.8718098962
 31
0.0
  0
LINE
  5
240
330
1F
100
AcDbEntity
  8
0
  6
Continuous
 62
     7
370
    25
100
AcDbLine
 10
-6.5678100211
 20
-1.8595902922
 30
0.0
 11
-6.6647767951
 21
-1.8691834297
 31
0.0
  0
LINE
  5
241
330
1F
100
AcDbEntity
  8
0
  6
Continuous
 62
     7
370
    25
100
AcDbLine
 10
-6.5131324091
 20
-1.8495329666
 30
0.0
 11
-6.5678100211
 21
-1.8595902922
 31
0.0
  0
LINE
  5
242
330
1F
100
AcDbEntity
  8
0
  6
Continuous
 62
     7
370
    25
100
AcDbLine
 10
-6.453786394
 20
-1.8339985921
 30
0.0
 11
-6.5131324091
 21
-1.8495329666
 31
0.0
  0
LINE
  5
243
330
1F
100
AcDbEntity
  8
0
  6
Continuous
 62
     7
370
    25
100
AcDbLine
 10
-6.3637712107
 20
-1.8170600301
 30
0.0
 11
-6.453786394
 21
-1.8339985921
 31
0.0
  0
LINE
  5
244
330
1F
100
AcDbEntity
  8
0
  6
Continuous
 62
     7
370
    25
100
AcDbLine
 10
-6.2839360148
 20
-1.8104246603
 30
0.0
 11
-6.3637712107
 21
-1.8170600301
 31
0.0
  0
LINE
  5
245
330
1F
100
AcDbEntity
  8
0
  6
Continuous
 62
     7
370
    25
100
AcDbLine
 10
-6.2149756251
 20
-1.8132065699
 30
0.0
 11
-6.2839360148
 21
-1.8104246603
 31
0.0
  0
LINE
  5
246
330
1F
100
AcDbEntity
  8
0
  6
Continuous
 62
     7
370
    25
100
AcDbLine
 10
-6.1847804326
 20
-1.8178385808
 30
0.0
 11
-6.2149756251
 21
-1.8132065699
 31
0.0
  0
LINE
  5
247
330
1F
100
AcDbEntity
  8
0
  6
Continuous
 62
     7
370
    25
100
AcDbLine
 10
-6.1575167775
 20
-1.8244740729
 30
0.0
 11
-6.1847804326
 21
-1.8178385808
 31
0.0
  0
LINE
  5
248
330
1F
100
AcDbEntity
  8
0
  6
Continuous
 62
     7
370
    25
100
AcDbLine
 10
-6.1332830282
 20
-1.8329890815
 30
0.0
 11
-6.1575167775
 21
-1.8244740729
 31
0.0
  0
LINE
  5
249
330
1F
100
AcDbEntity
  8
0
  6
Continuous
 62
     7
370
    25
100
AcDbLine
 10
-6.1121363314
 20
-1.843255639
 30
0.0
 11
-6.1332830282
 21
-1.8329890815
 31
0.0
  0
LINE
  5
24A
330
1F
100
AcDbEntity
  8
0
  6
Continuous
 62
     7
370
    25
100
AcDbLine
 10
-6.0941306814
 20
-1.8551549648
 30
0.0
 11
-6.1121363314
 21
-1.843255639
 31
0.0
  0
LINE
  5
24B
330
1F
100
AcDbEntity
  8
0
  6
Continuous
 62
     7
370
    25
100
AcDbLine
 10
-6.0793266036
 20
-1.8685494584
 30
0.0
 11
-6.0941306814
 21
-1.8551549648
 31
0.0
  0
LINE
  5
24C
330
1F
100
AcDbEntity
  8
0
  6
Continuous
 62
     7
370
    25
100
AcDbLine
 10
-6.0677782256
 20
-1.8833205188
 30
0.0
 11
-6.0793266036
 21
-1.8685494584
 31
0.0
  0
LINE
  5
24D
330
1F
100
AcDbEntity
  8
0
  6
Continuous
 62
     7
370
    25
100
AcDbLine
 10
-6.0595460553
 20
-1.899330447
 30
0.0
 11
-6.0677782256
 21
-1.8833205188
 31
0.0
  0
LINE
  5
24E
330
1F
100
AcDbEntity
  8
0
  6
Continuous
 62
     7
370
    25
100
AcDbLine
 10
-5.96704809
 20
-2.1718278988
 30
0.0
 11
-6.0595460553
 21
-1.899330447
 31
0.0
  0
LINE
  5
24F
330
1F
100
AcDbEntity
  8
0
  6
Continuous
 62
     7
370
    25
100
AcDbLine
 10
-5.8627476632
 20
-2.4400295638
 30
0.0
 11
-5.96704809
 21
-2.1718278988
 31
0.0
  0
LINE
  5
250
330
1F
100
AcDbEntity
  8
0
  6
Continuous
 62
     7
370
    25
100
AcDbLine
 10
-5.8587628693
 20
-2.457585429
 30
0.0
 11
-5.8627476632
 21
-2.4400295638
 31
0.0
  0
LINE
  5
251
330
1F
100
AcDbEntity
  8
0
  6
Continuous
 62
     7
370
    25
100
AcDbLine
 10
-5.8581148324
 20
-2.4763239395
 30
0.0
 11
-5.8587628693
 21
-2.457585429
 31
0.0
  0
LINE
  5
252
330
1F
100
AcDbEntity
  8
0
  6
Continuous
 62
     7
370
    25
100
AcDbLine
 10
-5.8608455823
 20
-2.4961005002
 30
0.0
 11
-5.8581148324
 21
-2.4763239395
 31
0.0
  0
LINE
  5
253
330
1F
100
AcDbEntity
  8
0
  6
Continuous
 62
     7
370
    25
100
AcDbLine
 10
-5.8669899806
 20
-2.5167897528
 30
0.0
 11
-5.8608455823
 21
-2.4961005002
 31
0.0
  0
LINE
  5
254
330
1F
100
AcDbEntity
  8
0
  6
Continuous
 62
     7
370
    25
100
AcDbLine
 10
-5.8765900744
 20
-2.5382472008
 30
0.0
 11
-5.8669899806
 21
-2.5167897528
 31
0.0
  0
LINE
  5
255
330
1F
100
AcDbEntity
  8
0
  6
Continuous
 62
     7
370
    25
100
AcDbLine
 10
-5.8896807889
 20
-2.5603472718
 30
0.0
 11
-5.8765900744
 21
-2.5382472008
 31
0.0
  0
LINE
  5
256
330
1F
100
AcDbEntity
  8
0
  6
Continuous
 62
     7
370
    25
100
AcDbLine
 10
-5.9063007926
 20
-2.5829551021
 30
0.0
 11
-5.8896807889
 21
-2.5603472718
 31
0.0
  0
LINE
  5
257
330
1F
100
AcDbEntity
  8
0
  6
Continuous
 62
     7
370
    25
100
AcDbLine
 10
-5.9264542902
 20
-2.6059125593
 30
0.0
 11
-5.9063007926
 21
-2.5829551021
 31
0.0
  0
LINE
  5
258
330
1F
100
AcDbEntity
  8
0
  6
Continuous
 62
     7
370
    25
100
AcDbLine
 10
-5.9774928017
 20
-2.6523704138
 30
0.0
 11
-5.9264542902
 21
-2.6059125593
 31
0.0
  0
LINE
  5
259
330
1F
100
AcDbEntity
  8
0
  6
Continuous
 62
     7
370
    25
100
AcDbLine
 10
-6.0429152844
 20
-2.6986045187
 30
0.0
 11
-5.9774928017
 21
-2.6523704138
 31
0.0
  0
LINE
  5
25A
330
1F
100
AcDbEntity
  8
0
  6
Continuous
 62
     7
370
    25
100
AcDbLine
 10
-6.1227587895
 20
-2.7434895437
 30
0.0
 11
-6.0429152844
 21
-2.6986045187
 31
0.0
  0
LINE
  5
25B
330
1F
100
AcDbEntity
  8
0
  6
Continuous
 62
     7
370
    25
100
AcDbLine
 10
-6.1782057594
 20
-2.7697363259
 30
0.0
 11
-6.1227587895
 21
-2.7434895437
 31
0.0
  0
LINE
  5
25C
330
1F
100
AcDbEntity
  8
0
  6
Continuous
 62
     7
370
    25
100
AcDbLine
 10
-6.2265560214
 20
-2.797178093
 30
0.0
 11
-6.1782057594
 21
-2.7697363259
 31
0.0
  0
LINE
  5
25D
330
1F
100
AcDbEntity
  8
0
  6
Continuous
 62
     7
370
    25
100
AcDbLine
 10
-6.3070032179
 20
-2.8521583575
 30
0.0
 11
-6.2265560214
 21
-2.797178093
 31
0.0
  0
LINE
  5
25E
330
1F
100
AcDbEntity
  8
0
  6
Continuous
 62
     7
370
    25
100
AcDbLine
 10
-6.3600671678
 20
-2.893255761
 30
0.0
 11
-6.3070032179
 21
-2.8521583575
 31
0.0
  0
LINE
  5
25F
330
1F
100
AcDbEntity
  8
0
  6
Continuous
 62
     7
370
    25
100
AcDbLine
 10
-6.4201640443
 20
-2.9439471641
 30
0.0
 11
-6.3600671678
 21
-2.893255761
 31
0.0
  0
LINE
  5
260
330
1F
100
AcDbEntity
  8
0
  6
Continuous
 62
     7
370
    25
100
AcDbLine
 10
-6.4885872361
 20
-3.0067891117
 30
0.0
 11
-6.4201640443
 21
-2.9439471641
 31
0.0
  0
LINE
  5
261
330
1F
100
AcDbEntity
  8
0
  6
Continuous
 62
     7
370
    25
100
AcDbLine
 10
-6.5608360364
 20
-3.0789728725
 30
0.0
 11
-6.4885872361
 21
-3.0067891117
 31
0.0
  0
LINE
  5
262
330
1F
100
AcDbEntity
  8
0
  6
Continuous
 62
     7
370
    25
100
AcDbLine
 10
-6.6381563121
 20
-3.1629524863
 30
0.0
 11
-6.5608360364
 21
-3.0789728725
 31
0.0
  0
LINE
  5
263
330
1F
100
AcDbEntity
  8
0
  6
Continuous
 62
     7
370
    25
100
AcDbLine
 10
-6.7200837128
 20
-3.2597403677
 30
0.0
 11
-6.6381563121
 21
-3.1629524863
 31
0.0
  0
LINE
  5
264
330
1F
100
AcDbEntity
  8
0
  6
Continuous
 62
     7
370
    25
100
AcDbLine
 10
-6.8055007573
 20
-3.3697171477
 30
0.0
 11
-6.7200837128
 21
-3.2597403677
 31
0.0
  0
LINE
  5
265
330
1F
100
AcDbEntity
  8
0
  6
Continuous
 62
     7
370
    25
100
AcDbLine
 10
-6.8926756901
 20
-3.4922312436
 30
0.0
 11
-6.8055007573
 21
-3.3697171477
 31
0.0
  0
LINE
  5
266
330
1F
100
AcDbEntity
  8
0
  6
Continuous
 62
     7
370
    25
100
AcDbLine
 10
-6.9812452795
 20
-3.6284274215
 30
0.0
 11
-6.8926756901
 21
-3.4922312436
 31
0.0
  0
LINE
  5
267
330
1F
100
AcDbEntity
  8
0
  6
Continuous
 62
     7
370
    25
100
AcDbLine
 10
-7.0604240718
 20
-3.7616730819
 30
0.0
 11
-6.9812452795
 21
-3.6284274215
 31
0.0
  0
ARC
  5
268
330
1F
100
AcDbEntity
  8
0
  6
Continuous
 62
     7
370
    25
100
AcDbCircle
 10
0.0000125666
 20
0.0000066162
 30
0.0
 40
7.999999979692709
100
AcDbArc
 50
208.0479265789
 51
211.9520658231
  0
LINE
  5
269
330
1F
100
AcDbEntity
  8
0
  6
Continuous
 62
     7
370
    25
100
AcDbLine
 10
-6.6329330621
 20
-4.2317220199
 30
0.0
 11
-6.7879164935
 21
-4.2336701252
 31
0.0
  0
LINE
  5
26A
330
1F
100
AcDbEntity
  8
0
  6
Continuous
 62
     7
370
    25
100
AcDbLine
 10
-6.4706988549
 20
-4.2231166599
 30
0.0
 11
-6.6329330621
 21
-4.2317220199
 31
0.0
  0
LINE
  5
26B
330
1F
100
AcDbEntity
  8
0
  6
Continuous
 62
     7
370
    25
100
AcDbLine
 10
-6.3210110363
 20
-4.2088779593
 30
0.0
 11
-6.4706988549
 21
-4.2231166599
 31
0.0
  0
LINE
  5
26C
330
1F
100
AcDbEntity
  8
0
  6
Continuous
 62
     7
370
    25
100
AcDbLine
 10
-6.1830598456
 20
-4.1898930084
 30
0.0
 11
-6.3210110363
 21
-4.2088779593
 31
0.0
  0
LINE
  5
26D
330
1F
100
AcDbEntity
  8
0
  6
Continuous
 62
     7
370
    25
100
AcDbLine
 10
-6.0582754539
 20
-4.1673356947
 30
0.0
 11
-6.1830598456
 21
-4.1898930084
 31
0.0
  0
LINE
  5
26E
330
1F
100
AcDbEntity
  8
0
  6
Continuous
 62
     7
370
    25
100
AcDbLine
 10
-5.9468867663
 20
-4.1423642654
 30
0.0
 11
-6.0582754539
 21
-4.1673356947
 31
0.0
  0
LINE
  5
26F
330
1F
100
AcDbEntity
  8
0
  6
Continuous
 62
     7
370
    25
100
AcDbLine
 10
-5.8482493819
 20
-4.1158868158
 30
0.0
 11
-5.9468867663
 21
-4.1423642654
 31
0.0
  0
LINE
  5
270
330
1F
100
AcDbEntity
  8
0
  6
Continuous
 62
     7
370
    25
100
AcDbLine
 10
-5.7596149809
 20
-4.0880515378
 30
0.0
 11
-5.8482493819
 21
-4.1158868158
 31
0.0
  0
LINE
  5
271
330
1F
100
AcDbEntity
  8
0
  6
Continuous
 62
     7
370
    25
100
AcDbLine
 10
-5.6856665976
 20
-4.0613519127
 30
0.0
 11
-5.7596149809
 21
-4.0880515378
 31
0.0
  0
LINE
  5
272
330
1F
100
AcDbEntity
  8
0
  6
Continuous
 62
     7
370
    25
100
AcDbLine
 10
-5.6235431877
 20
-4.0359458546
 30
0.0
 11
-5.6856665976
 21
-4.0613519127
 31
0.0
  0
LINE
  5
273
330
1F
100
AcDbEntity
  8
0
  6
Continuous
 62
     7
370
    25
100
AcDbLine
 10
-5.5357052904
 20
-3.9937666488
 30
0.0
 11
-5.6235431877
 21
-4.0359458546
 31
0.0
  0
LINE
  5
274
330
1F
100
AcDbEntity
  8
0
  6
Continuous
 62
     7
370
    25
100
AcDbLine
 10
-5.4877648725
 20
-3.9656149272
 30
0.0
 11
-5.5357052904
 21
-3.9937666488
 31
0.0
  0
LINE
  5
275
330
1F
100
AcDbEntity
  8
0
  6
Continuous
 62
     7
370
    25
100
AcDbLine
 10
-5.4373110097
 20
-3.930719915
 30
0.0
 11
-5.4877648725
 21
-3.9656149272
 31
0.0
  0
LINE
  5
276
330
1F
100
AcDbEntity
  8
0
  6
Continuous
 62
     7
370
    25
100
AcDbLine
 10
-5.3585176936
 20
-3.8840158919
 30
0.0
 11
-5.4373110097
 21
-3.930719915
 31
0.0
  0
LINE
  5
277
330
1F
100
AcDbEntity
  8
0
  6
Continuous
 62
     7
370
    25
100
AcDbLine
 10
-5.2857666012
 20
-3.8504754318
 30
0.0
 11
-5.3585176936
 21
-3.8840158919
 31
0.0
  0
LINE
  5
278
330
1F
100
AcDbEntity
  8
0
  6
Continuous
 62
     7
370
    25
100
AcDbLine
 10
-5.2200135826
 20
-3.8295038178
 30
0.0
 11
-5.2857666012
 21
-3.8504754318
 31
0.0
  0
LINE
  5
279
330
1F
100
AcDbEntity
  8
0
  6
Continuous
 62
     7
370
    25
100
AcDbLine
 10
-5.1900551262
 20
-3.823528978
 30
0.0
 11
-5.2200135826
 21
-3.8295038178
 31
0.0
  0
LINE
  5
27A
330
1F
100
AcDbEntity
  8
0
  6
Continuous
 62
     7
370
    25
100
AcDbLine
 10
-5.1621662658
 20
-3.8204395932
 30
0.0
 11
-5.1900551262
 21
-3.823528978
 31
0.0
  0
LINE
  5
27B
330
1F
100
AcDbEntity
  8
0
  6
Continuous
 62
     7
370
    25
100
AcDbLine
 10
-5.1364816268
 20
-3.8201526243
 30
0.0
 11
-5.1621662658
 21
-3.8204395932
 31
0.0
  0
LINE
  5
27C
330
1F
100
AcDbEntity
  8
0
  6
Continuous
 62
     7
370
    25
100
AcDbLine
 10
-5.1130988269
 20
-3.8225674922
 30
0.0
 11
-5.1364816268
 21
-3.8201526243
 31
0.0
  0
LINE
  5
27D
330
1F
100
AcDbEntity
  8
0
  6
Continuous
 62
     7
370
    25
100
AcDbLine
 10
-5.0921092556
 20
-3.8275909101
 30
0.0
 11
-5.1130988269
 21
-3.8225674922
 31
0.0
  0
LINE
  5
27E
330
1F
100
AcDbEntity
  8
0
  6
Continuous
 62
     7
370
    25
100
AcDbLine
 10
-5.0736168514
 20
-3.8351143808
 30
0.0
 11
-5.0921092556
 21
-3.8275909101
 31
0.0
  0
LINE
  5
27F
330
1F
100
AcDbEntity
  8
0
  6
Continuous
 62
     7
370
    25
100
AcDbLine
 10
-5.0577129227
 20
-3.8450447335
 30
0.0
 11
-5.0736168514
 21
-3.8351143808
 31
0.0
  0
LINE
  5
280
330
1F
100
AcDbEntity
  8
0
  6
Continuous
 62
     7
370
    25
100
AcDbLine
 10
-5.0445014428
 20
-3.8572736679
 30
0.0
 11
-5.0577129227
 21
-3.8450447335
 31
0.0
  0
LINE
  5
281
330
1F
100
AcDbEntity
  8
0
  6
Continuous
 62
     7
370
    25
100
AcDbLine
 10
-4.8643821782
 20
-4.0817013104
 30
0.0
 11
-5.0445014428
 21
-3.8572736679
 31
0.0
  0
LINE
  5
282
330
1F
100
AcDbEntity
  8
0
  6
Continuous
 62
     7
370
    25
100
AcDbLine
 10
-4.6746414281
 20
-4.2980556548
 30
0.0
 11
-4.8643821782
 21
-4.0817013104
 31
0.0
  0
LINE
  5
283
330
1F
100
AcDbEntity
  8
0
  6
Continuous
 62
     7
370
    25
100
AcDbLine
 10
-4.6648925466
 20
-4.3131898528
 30
0.0
 11
-4.6746414281
 21
-4.2980556548
 31
0.0
  0
LINE
  5
284
330
1F
100
AcDbEntity
  8
0
  6
Continuous
 62
     7
370
    25
100
AcDbLine
 10
-4.6578747124
 20
-4.3305766311
 30
0.0
 11
-4.6648925466
 21
-4.3131898528
 31
0.0
  0
LINE
  5
285
330
1F
100
AcDbEntity
  8
0
  6
Continuous
 62
     7
370
    25
100
AcDbLine
 10
-4.6536766829
 20
-4.3500945321
 30
0.0
 11
-4.6578747124
 21
-4.3305766311
 31
0.0
  0
LINE
  5
286
330
1F
100
AcDbEntity
  8
0
  6
Continuous
 62
     7
370
    25
100
AcDbLine
 10
-4.6523744054
 20
-4.3716375571
 30
0.0
 11
-4.6536766829
 21
-4.3500945321
 31
0.0
  0
LINE
  5
287
330
1F
100
AcDbEntity
  8
0
  6
Continuous
 62
     7
370
    25
100
AcDbLine
 10
-4.654056655
 20
-4.395084347
 30
0.0
 11
-4.6523744054
 21
-4.3716375571
 31
0.0
  0
LINE
  5
288
330
1F
100
AcDbEntity
  8
0
  6
Continuous
 62
     7
370
    25
100
AcDbLine
 10
-4.6587992977
 20
-4.420329019
 30
0.0
 11
-4.654056655
 21
-4.395084347
 31
0.0
  0
LINE
  5
289
330
1F
100
AcDbEntity
  8
0
  6
Continuous
 62
     7
370
    25
100
AcDbLine
 10
-4.6666846195
 20
-4.4472577552
 30
0.0
 11
-4.6587992977
 21
-4.420329019
 31
0.0
  0
LINE
  5
28A
330
1F
100
AcDbEntity
  8
0
  6
Continuous
 62
     7
370
    25
100
AcDbLine
 10
-4.6777708705
 20
-4.4757235066
 30
0.0
 11
-4.6666846195
 21
-4.4472577552
 31
0.0
  0
LINE
  5
28B
330
1F
100
AcDbEntity
  8
0
  6
Continuous
 62
     7
370
    25
100
AcDbLine
 10
-4.7098417535
 20
-4.5368358905
 30
0.0
 11
-4.6777708705
 21
-4.4757235066
 31
0.0
  0
LINE
  5
28C
330
1F
100
AcDbEntity
  8
0
  6
Continuous
 62
     7
370
    25
100
AcDbLine
 10
-4.7555057939
 20
-4.602657491
 30
0.0
 11
-4.7098417535
 21
-4.5368358905
 31
0.0
  0
LINE
  5
28D
330
1F
100
AcDbEntity
  8
0
  6
Continuous
 62
     7
370
    25
100
AcDbLine
 10
-4.8151826841
 20
-4.6721437601
 30
0.0
 11
-4.7555057939
 21
-4.602657491
 31
0.0
  0
LINE
  5
28E
330
1F
100
AcDbEntity
  8
0
  6
Continuous
 62
     7
370
    25
100
AcDbLine
 10
-4.8583087611
 20
-4.7157716002
 30
0.0
 11
-4.8151826841
 21
-4.6721437601
 31
0.0
  0
LINE
  5
28F
330
1F
100
AcDbEntity
  8
0
  6
Continuous
 62
     7
370
    25
100
AcDbLine
 10
-4.8943575367
 20
-4.7580951863
 30
0.0
 11
-4.8583087611
 21
-4.7157716002
 31
0.0
  0
LINE
  5
290
330
1F
100
AcDbEntity
  8
0
  6
Continuous
 62
     7
370
    25
100
AcDbLine
 10
-4.9511487328
 20
-4.8372743072
 30
0.0
 11
-4.8943575367
 21
-4.7580951863
 31
0.0
  0
LINE
  5
291
330
1F
100
AcDbEntity
  8
0
  6
Continuous
 62
     7
370
    25
100
AcDbLine
 10
-4.9869564723
 20
-4.8940421901
 30
0.0
 11
-4.9511487328
 21
-4.8372743072
 31
0.0
  0
LINE
  5
292
330
1F
100
AcDbEntity
  8
0
  6
Continuous
 62
     7
370
    25
100
AcDbLine
 10
-5.0260915489
 20
-4.9622307933
 30
0.0
 11
-4.9869564723
 21
-4.8940421901
 31
0.0
  0
LINE
  5
293
330
1F
100
AcDbEntity
  8
0
  6
Continuous
 62
     7
370
    25
100
AcDbLine
 10
-5.0688950718
 20
-5.0446851057
 30
0.0
 11
-5.0260915489
 21
-4.9622307933
 31
0.0
  0
LINE
  5
294
330
1F
100
AcDbEntity
  8
0
  6
Continuous
 62
     7
370
    25
100
AcDbLine
 10
-5.112098524
 20
-5.1372262121
 30
0.0
 11
-5.0688950718
 21
-5.0446851057
 31
0.0
  0
LINE
  5
295
330
1F
100
AcDbEntity
  8
0
  6
Continuous
 62
     7
370
    25
100
AcDbLine
 10
-5.1560329799
 20
-5.2425863307
 30
0.0
 11
-5.112098524
 21
-5.1372262121
 31
0.0
  0
LINE
  5
296
330
1F
100
AcDbEntity
  8
0
  6
Continuous
 62
     7
370
    25
100
AcDbLine
 10
-5.1999161851
 20
-5.3615580395
 30
0.0
 11
-5.1560329799
 21
-5.2425863307
 31
0.0
  0
LINE
  5
297
330
1F
100
AcDbEntity
  8
0
  6
Continuous
 62
     7
370
    25
100
AcDbLine
 10
-5.2425677176
 20
-5.4941166414
 30
0.0
 11
-5.1999161851
 21
-5.3615580395
 31
0.0
  0
LINE
  5
298
330
1F
100
AcDbEntity
  8
0
  6
Continuous
 62
     7
370
    25
100
AcDbLine
 10
-5.2825831311
 20
-5.6390579213
 30
0.0
 11
-5.2425677176
 21
-5.4941166414
 31
0.0
  0
LINE
  5
299
330
1F
100
AcDbEntity
  8
0
  6
Continuous
 62
     7
370
    25
100
AcDbLine
 10
-5.3192294519
 20
-5.7973330086
 30
0.0
 11
-5.2825831311
 21
-5.6390579213
 31
0.0
  0
LINE
  5
29A
330
1F
100
AcDbEntity
  8
0
  6
Continuous
 62
     7
370
    25
100
AcDbLine
 10
-5.3480604767
 20
-5.9496237909
 30
0.0
 11
-5.3192294519
 21
-5.7973330086
 31
0.0
  0
ARC
  5
29B
330
1F
100
AcDbEntity
  8
0
  6
Continuous
 62
     7
370
    25
100
AcDbCircle
 10
0.0000091281
 20
0.0000107706
 30
0.0
 40
7.999999994512405
100
AcDbArc
 50
228.0479302789
 51
231.952069325
  0
LINE
  5
29C
330
1F
100
AcDbEntity
  8
0
  6
Continuous
 62
     7
370
    25
100
AcDbLine
 10
-4.7855840466
 20
-6.2451146665
 30
0.0
 11
-4.9305546182
 21
-6.2999528051
 31
0.0
  0
LINE
  5
29D
330
1F
100
AcDbEntity
  8
0
  6
Continuous
 62
     7
370
    25
100
AcDbLine
 10
-4.6360770407
 20
-6.1815409586
 30
0.0
 11
-4.7855840466
 21
-6.2451146665
 31
0.0
  0
LINE
  5
29E
330
1F
100
AcDbEntity
  8
0
  6
Continuous
 62
     7
370
    25
100
AcDbLine
 10
-4.5002864253
 20
-6.1169646933
 30
0.0
 11
-4.6360770407
 21
-6.1815409586
 31
0.0
  0
LINE
  5
29F
330
1F
100
AcDbEntity
  8
0
  6
Continuous
 62
     7
370
    25
100
AcDbLine
 10
-4.3771479136
 20
-6.0519426407
 30
0.0
 11
-4.5002864253
 21
-6.1169646933
 31
0.0
  0
LINE
  5
2A0
330
1F
100
AcDbEntity
  8
0
  6
Continuous
 62
     7
370
    25
100
AcDbLine
 10
-4.2676039766
 20
-5.9880668289
 30
0.0
 11
-4.3771479136
 21
-6.0519426407
 31
0.0
  0
LINE
  5
2A1
330
1F
100
AcDbEntity
  8
0
  6
Continuous
 62
     7
370
    25
100
AcDbLine
 10
-4.1714736051
 20
-5.9265042186
 30
0.0
 11
-4.2676039766
 21
-5.9880668289
 31
0.0
  0
LINE
  5
2A2
330
1F
100
AcDbEntity
  8
0
  6
Continuous
 62
     7
370
    25
100
AcDbLine
 10
-4.0878405494
 20
-5.8678875273
 30
0.0
 11
-4.1714736051
 21
-5.9265042186
 31
0.0
  0
LINE
  5
2A3
330
1F
100
AcDbEntity
  8
0
  6
Continuous
 62
     7
370
    25
100
AcDbLine
 10
-4.014071795
 20
-5.811416211
 30
0.0
 11
-4.0878405494
 21
-5.8678875273
 31
0.0
  0
LINE
  5
2A4
330
1F
100
AcDbEntity
  8
0
  6
Continuous
 62
     7
370
    25
100
AcDbLine
 10
-3.9537148114
 20
-5.7610348859
 30
0.0
 11
-4.014071795
 21
-5.811416211
 31
0.0
  0
LINE
  5
2A5
330
1F
100
AcDbEntity
  8
0
  6
Continuous
 62
     7
370
    25
100
AcDbLine
 10
-3.9040272079
 20
-5.7159135534
 30
0.0
 11
-3.9537148114
 21
-5.7610348859
 31
0.0
  0
LINE
  5
2A6
330
1F
100
AcDbEntity
  8
0
  6
Continuous
 62
     7
370
    25
100
AcDbLine
 10
-3.8359127709
 20
-5.6462357389
 30
0.0
 11
-3.9040272079
 21
-5.7159135534
 31
0.0
  0
LINE
  5
2A7
330
1F
100
AcDbEntity
  8
0
  6
Continuous
 62
     7
370
    25
100
AcDbLine
 10
-3.8004920478
 20
-5.6033852884
 30
0.0
 11
-3.8359127709
 21
-5.6462357389
 31
0.0
  0
LINE
  5
2A8
330
1F
100
AcDbEntity
  8
0
  6
Continuous
 62
     7
370
    25
100
AcDbLine
 10
-3.765015644
 20
-5.5533384779
 30
0.0
 11
-3.8004920478
 21
-5.6033852884
 31
0.0
  0
LINE
  5
2A9
330
1F
100
AcDbEntity
  8
0
  6
Continuous
 62
     7
370
    25
100
AcDbLine
 10
-3.7069478522
 20
-5.4825020802
 30
0.0
 11
-3.765015644
 21
-5.5533384779
 31
0.0
  0
LINE
  5
2AA
330
1F
100
AcDbEntity
  8
0
  6
Continuous
 62
     7
370
    25
100
AcDbLine
 10
-3.6500557526
 20
-5.426101945
 30
0.0
 11
-3.7069478522
 21
-5.4825020802
 31
0.0
  0
LINE
  5
2AB
330
1F
100
AcDbEntity
  8
0
  6
Continuous
 62
     7
370
    25
100
AcDbLine
 10
-3.5954408289
 20
-5.3839062802
 30
0.0
 11
-3.6500557526
 21
-5.426101945
 31
0.0
  0
LINE
  5
2AC
330
1F
100
AcDbEntity
  8
0
  6
Continuous
 62
     7
370
    25
100
AcDbLine
 10
-3.5693325674
 20
-5.3680453694
 30
0.0
 11
-3.5954408289
 21
-5.3839062802
 31
0.0
  0
LINE
  5
2AD
330
1F
100
AcDbEntity
  8
0
  6
Continuous
 62
     7
370
    25
100
AcDbLine
 10
-3.5441822154
 20
-5.3556037664
 30
0.0
 11
-3.5693325674
 21
-5.3680453694
 31
0.0
  0
LINE
  5
2AE
330
1F
100
AcDbEntity
  8
0
  6
Continuous
 62
     7
370
    25
100
AcDbLine
 10
-3.520144672
 20
-5.3465494872
 30
0.0
 11
-3.5441822154
 21
-5.3556037664
 31
0.0
  0
LINE
  5
2AF
330
1F
100
AcDbEntity
  8
0
  6
Continuous
 62
     7
370
    25
100
AcDbLine
 10
-3.4973462182
 20
-5.3408212727
 30
0.0
 11
-3.520144672
 21
-5.3465494872
 31
0.0
  0
LINE
  5
2B0
330
1F
100
AcDbEntity
  8
0
  6
Continuous
 62
     7
370
    25
100
AcDbLine
 10
-3.4759042714
 20
-5.3383628793
 30
0.0
 11
-3.4973462182
 21
-5.3408212727
 31
0.0
  0
LINE
  5
2B1
330
1F
100
AcDbEntity
  8
0
  6
Continuous
 62
     7
370
    25
100
AcDbLine
 10
-3.4559539413
 20
-5.3391078353
 30
0.0
 11
-3.4759042714
 21
-5.3383628793
 31
0.0
  0
LINE
  5
2B2
330
1F
100
AcDbEntity
  8
0
  6
Continuous
 62
     7
370
    25
100
AcDbLine
 10
-3.4376127437
 20
-5.3429998798
 30
0.0
 11
-3.4559539413
 21
-5.3391078353
 31
0.0
  0
LINE
  5
2B3
330
1F
100
AcDbEntity
  8
0
  6
Continuous
 62
     7
370
    25
100
AcDbLine
 10
-3.4210155106
 20
-5.3499726918
 30
0.0
 11
-3.4376127437
 21
-5.3429998798
 31
0.0
  0
LINE
  5
2B4
330
1F
100
AcDbEntity
  8
0
  6
Continuous
 62
     7
370
    25
100
AcDbLine
 10
-3.174999972
 20
-5.4992612712
 30
0.0
 11
-3.4210155106
 21
-5.3499726918
 31
0.0
  0
LINE
  5
2B5
330
1F
100
AcDbEntity
  8
0
  6
Continuous
 62
     7
370
    25
100
AcDbLine
 10
-2.9227045295
 20
-5.637672696
 30
0.0
 11
-3.174999972
 21
-5.4992612712
 31
0.0
  0
LINE
  5
2B6
330
1F
100
AcDbEntity
  8
0
  6
Continuous
 62
     7
370
    25
100
AcDbLine
 10
-2.9083672639
 20
-5.6485599378
 30
0.0
 11
-2.9227045295
 21
-5.637672696
 31
0.0
  0
LINE
  5
2B7
330
1F
100
AcDbEntity
  8
0
  6
Continuous
 62
     7
370
    25
100
AcDbLine
 10
-2.8958260273
 20
-5.6624978489
 30
0.0
 11
-2.9083672639
 21
-5.6485599378
 31
0.0
  0
LINE
  5
2B8
330
1F
100
AcDbEntity
  8
0
  6
Continuous
 62
     7
370
    25
100
AcDbLine
 10
-2.8852057075
 20
-5.6794028734
 30
0.0
 11
-2.8958260273
 21
-5.6624978489
 31
0.0
  0
LINE
  5
2B9
330
1F
100
AcDbEntity
  8
0
  6
Continuous
 62
     7
370
    25
100
AcDbLine
 10
-2.8766138417
 20
-5.6992013181
 30
0.0
 11
-2.8852057075
 21
-5.6794028734
 31
0.0
  0
LINE
  5
2BA
330
1F
100
AcDbEntity
  8
0
  6
Continuous
 62
     7
370
    25
100
AcDbLine
 10
-2.870175283
 20
-5.7218094301
 30
0.0
 11
-2.8766138417
 21
-5.6992013181
 31
0.0
  0
LINE
  5
2BB
330
1F
100
AcDbEntity
  8
0
  6
Continuous
 62
     7
370
    25
100
AcDbLine
 10
-2.8659977018
 20
-5.7471536958
 30
0.0
 11
-2.870175283
 21
-5.7218094301
 31
0.0
  0
LINE
  5
2BC
330
1F
100
AcDbEntity
  8
0
  6
Continuous
 62
     7
370
    25
100
AcDbLine
 10
-2.8641974003
 20
-5.775155424
 30
0.0
 11
-2.8659977018
 21
-5.7471536958
 31
0.0
  0
LINE
  5
2BD
330
1F
100
AcDbEntity
  8
0
  6
Continuous
 62
     7
370
    25
100
AcDbLine
 10
-2.8648791123
 20
-5.8056962294
 30
0.0
 11
-2.8641974003
 21
-5.775155424
 31
0.0
  0
LINE
  5
2BE
330
1F
100
AcDbEntity
  8
0
  6
Continuous
 62
     7
370
    25
100
AcDbLine
 10
-2.8741143062
 20
-5.8740919393
 30
0.0
 11
-2.8648791123
 21
-5.8056962294
 31
0.0
  0
LINE
  5
2BF
330
1F
100
AcDbEntity
  8
0
  6
Continuous
 62
     7
370
    25
100
AcDbLine
 10
-2.8945121367
 20
-5.951562038
 30
0.0
 11
-2.8741143062
 21
-5.8740919393
 31
0.0
  0
LINE
  5
2C0
330
1F
100
AcDbEntity
  8
0
  6
Continuous
 62
     7
370
    25
100
AcDbLine
 10
-2.9268242957
 20
-6.0372684635
 30
0.0
 11
-2.8945121367
 21
-5.951562038
 31
0.0
  0
LINE
  5
2C1
330
1F
100
AcDbEntity
  8
0
  6
Continuous
 62
     7
370
    25
100
AcDbLine
 10
-2.9524280008
 20
-6.0930152456
 30
0.0
 11
-2.9268242957
 21
-6.0372684635
 31
0.0
  0
LINE
  5
2C2
330
1F
100
AcDbEntity
  8
0
  6
Continuous
 62
     7
370
    25
100
AcDbLine
 10
-2.9718272893
 20
-6.1451158192
 30
0.0
 11
-2.9524280008
 21
-6.0930152456
 31
0.0
  0
LINE
  5
2C3
330
1F
100
AcDbEntity
  8
0
  6
Continuous
 62
     7
370
    25
100
AcDbLine
 10
-2.9981127395
 20
-6.2389435526
 30
0.0
 11
-2.9718272893
 21
-6.1451158192
 31
0.0
  0
LINE
  5
2C4
330
1F
100
AcDbEntity
  8
0
  6
Continuous
 62
     7
370
    25
100
AcDbLine
 10
-3.0123451795
 20
-6.3045348951
 30
0.0
 11
-2.9981127395
 21
-6.2389435526
 31
0.0
  0
LINE
  5
2C5
330
1F
100
AcDbEntity
  8
0
  6
Continuous
 62
     7
370
    25
100
AcDbLine
 10
-3.0257981785
 20
-6.3819962179
 30
0.0
 11
-3.0123451795
 21
-6.3045348951
 31
0.0
  0
LINE
  5
2C6
330
1F
100
AcDbEntity
  8
0
  6
Continuous
 62
     7
370
    25
100
AcDbLine
 10
-3.0378194153
 20
-6.4741175824
 30
0.0
 11
-3.0257981785
 21
-6.3819962179
 31
0.0
  0
LINE
  5
2C7
330
1F
100
AcDbEntity
  8
0
  6
Continuous
 62
     7
370
    25
100
AcDbLine
 10
-3.0467664118
 20
-6.5758541599
 30
0.0
 11
-3.0378194153
 21
-6.4741175824
 31
0.0
  0
LINE
  5
2C8
330
1F
100
AcDbEntity
  8
0
  6
Continuous
 62
     7
370
    25
100
AcDbLine
 10
-3.0520160406
 20
-6.6898868847
 30
0.0
 11
-3.0467664118
 21
-6.5758541599
 31
0.0
  0
LINE
  5
2C9
330
1F
100
AcDbEntity
  8
0
  6
Continuous
 62
     7
370
    25
100
AcDbLine
 10
-3.0525620239
 20
-6.8166926399
 30
0.0
 11
-3.0520160406
 21
-6.6898868847
 31
0.0
  0
LINE
  5
2CA
330
1F
100
AcDbEntity
  8
0
  6
Continuous
 62
     7
370
    25
100
AcDbLine
 10
-3.0473036359
 20
-6.9558446815
 30
0.0
 11
-3.0525620239
 21
-6.8166926399
 31
0.0
  0
LINE
  5
2CB
330
1F
100
AcDbEntity
  8
0
  6
Continuous
 62
     7
370
    25
100
AcDbLine
 10
-3.035332957
 20
-7.1057309777
 30
0.0
 11
-3.0473036359
 21
-6.9558446815
 31
0.0
  0
LINE
  5
2CC
330
1F
100
AcDbEntity
  8
0
  6
Continuous
 62
     7
370
    25
100
AcDbLine
 10
-3.0156359642
 20
-7.2669946826
 30
0.0
 11
-3.035332957
 21
-7.1057309777
 31
0.0
  0
LINE
  5
2CD
330
1F
100
AcDbEntity
  8
0
  6
Continuous
 62
     7
370
    25
100
AcDbLine
 10
-2.9906418336
 20
-7.4199619575
 30
0.0
 11
-3.0156359642
 21
-7.2669946826
 31
0.0
  0
ARC
  5
2CE
330
1F
100
AcDbEntity
  8
0
  6
Continuous
 62
     7
370
    25
100
AcDbCircle
 10
0.0000048996
 20
0.0000132575
 30
0.0
 40
8.000000004627656
100
AcDbArc
 50
248.0479298789
 51
251.9520690289
  0
LINE
  5
2CF
330
1F
100
AcDbEntity
  8
0
  6
Continuous
 62
     7
370
    25
100
AcDbLine
 10
-2.3610229688
 20
-7.5052543116
 30
0.0
 11
-2.4784950665
 21
-7.6063681418
 31
0.0
  0
LINE
  5
2D0
330
1F
100
AcDbEntity
  8
0
  6
Continuous
 62
     7
370
    25
100
AcDbLine
 10
-2.2422758294
 20
-7.394380108
 30
0.0
 11
-2.3610229688
 21
-7.5052543116
 31
0.0
  0
LINE
  5
2D1
330
1F
100
AcDbEntity
  8
0
  6
Continuous
 62
     7
370
    25
100
AcDbLine
 10
-2.1367607625
 20
-7.2872551384
 30
0.0
 11
-2.2422758294
 21
-7.394380108
 31
0.0
  0
LINE
  5
2D2
330
1F
100
AcDbEntity
  8
0
  6
Continuous
 62
     7
370
    25
100
AcDbLine
 10
-2.0432873165
 20
-7.1840385402
 30
0.0
 11
-2.1367607625
 21
-7.2872551384
 31
0.0
  0
LINE
  5
2D3
330
1F
100
AcDbEntity
  8
0
  6
Continuous
 62
     7
370
    25
100
AcDbLine
 10
-1.9621964366
 20
-7.0865487347
 30
0.0
 11
-2.0432873165
 21
-7.1840385402
 31
0.0
  0
LINE
  5
2D4
330
1F
100
AcDbEntity
  8
0
  6
Continuous
 62
     7
370
    25
100
AcDbLine
 10
-1.8929191214
 20
-6.9958202449
 30
0.0
 11
-1.9621964366
 21
-7.0865487347
 31
0.0
  0
LINE
  5
2D5
330
1F
100
AcDbEntity
  8
0
  6
Continuous
 62
     7
370
    25
100
AcDbLine
 10
-1.8343778627
 20
-6.9121344527
 30
0.0
 11
-1.8929191214
 21
-6.9958202449
 31
0.0
  0
LINE
  5
2D6
330
1F
100
AcDbEntity
  8
0
  6
Continuous
 62
     7
370
    25
100
AcDbLine
 10
-1.784372189
 20
-6.8338383533
 30
0.0
 11
-1.8343778627
 21
-6.9121344527
 31
0.0
  0
LINE
  5
2D7
330
1F
100
AcDbEntity
  8
0
  6
Continuous
 62
     7
370
    25
100
AcDbLine
 10
-1.7448866229
 20
-6.7658520859
 30
0.0
 11
-1.784372189
 21
-6.8338383533
 31
0.0
  0
LINE
  5
2D8
330
1F
100
AcDbEntity
  8
0
  6
Continuous
 62
     7
370
    25
100
AcDbLine
 10
-1.7136280166
 20
-6.7064577526
 30
0.0
 11
-1.7448866229
 21
-6.7658520859
 31
0.0
  0
LINE
  5
2D9
330
1F
100
AcDbEntity
  8
0
  6
Continuous
 62
     7
370
    25
100
AcDbLine
 10
-1.6734525213
 20
-6.6176855044
 30
0.0
 11
-1.7136280166
 21
-6.7064577526
 31
0.0
  0
LINE
  5
2DA
330
1F
100
AcDbEntity
  8
0
  6
Continuous
 62
     7
370
    25
100
AcDbLine
 10
-1.6548236564
 20
-6.5653045891
 30
0.0
 11
-1.6734525213
 21
-6.6176855044
 31
0.0
  0
LINE
  5
2DB
330
1F
100
AcDbEntity
  8
0
  6
Continuous
 62
     7
370
    25
100
AcDbLine
 10
-1.6386038214
 20
-6.5061423263
 30
0.0
 11
-1.6548236564
 21
-6.5653045891
 31
0.0
  0
LINE
  5
2DC
330
1F
100
AcDbEntity
  8
0
  6
Continuous
 62
     7
370
    25
100
AcDbLine
 10
-1.6082654076
 20
-6.4197175501
 30
0.0
 11
-1.6386038214
 21
-6.5061423263
 31
0.0
  0
LINE
  5
2DD
330
1F
100
AcDbEntity
  8
0
  6
Continuous
 62
     7
370
    25
100
AcDbLine
 10
-1.5740942405
 20
-6.3472605261
 30
0.0
 11
-1.6082654076
 21
-6.4197175501
 31
0.0
  0
LINE
  5
2DE
330
1F
100
AcDbEntity
  8
0
  6
Continuous
 62
     7
370
    25
100
AcDbLine
 10
-1.5372048412
 20
-6.2889301335
 30
0.0
 11
-1.5740942405
 21
-6.3472605261
 31
0.0
  0
LINE
  5
2DF
330
1F
100
AcDbEntity
  8
0
  6
Continuous
 62
     7
370
    25
100
AcDbLine
 10
-1.5180958286
 20
-6.2650962891
 30
0.0
 11
-1.5372048412
 21
-6.2889301335
 31
0.0
  0
LINE
  5
2E0
330
1F
100
AcDbEntity
  8
0
  6
Continuous
 62
     7
370
    25
100
AcDbLine
 10
-1.498717535
 20
-6.2448029938
 30
0.0
 11
-1.5180958286
 21
-6.2650962891
 31
0.0
  0
LINE
  5
2E1
330
1F
100
AcDbEntity
  8
0
  6
Continuous
 62
     7
370
    25
100
AcDbLine
 10
-1.4792263639
 20
-6.2280734407
 30
0.0
 11
-1.498717535
 21
-6.2448029938
 31
0.0
  0
LINE
  5
2E2
330
1F
100
AcDbEntity
  8
0
  6
Continuous
 62
     7
370
    25
100
AcDbLine
 10
-1.4597619248
 20
-6.2148931671
 30
0.0
 11
-1.4792263639
 21
-6.2280734407
 31
0.0
  0
LINE
  5
2E3
330
1F
100
AcDbEntity
  8
0
  6
Continuous
 62
     7
370
    25
100
AcDbLine
 10
-1.4404539793
 20
-6.2052494469
 30
0.0
 11
-1.4597619248
 21
-6.2148931671
 31
0.0
  0
LINE
  5
2E4
330
1F
100
AcDbEntity
  8
0
  6
Continuous
 62
     7
370
    25
100
AcDbLine
 10
-1.421451985
 20
-6.199126081
 30
0.0
 11
-1.4404539793
 21
-6.2052494469
 31
0.0
  0
LINE
  5
2E5
330
1F
100
AcDbEntity
  8
0
  6
Continuous
 62
     7
370
    25
100
AcDbLine
 10
-1.4028857033
 20
-6.1965103431
 30
0.0
 11
-1.421451985
 21
-6.199126081
 31
0.0
  0
LINE
  5
2E6
330
1F
100
AcDbEntity
  8
0
  6
Continuous
 62
     7
370
    25
100
AcDbLine
 10
-1.384904592
 20
-6.197386034
 30
0.0
 11
-1.4028857033
 21
-6.1965103431
 31
0.0
  0
LINE
  5
2E7
330
1F
100
AcDbEntity
  8
0
  6
Continuous
 62
     7
370
    25
100
AcDbLine
 10
-1.1026659124
 20
-6.253529208
 30
0.0
 11
-1.384904592
 21
-6.197386034
 31
0.0
  0
LINE
  5
2E8
330
1F
100
AcDbEntity
  8
0
  6
Continuous
 62
     7
370
    25
100
AcDbLine
 10
-0.8182462117
 20
-6.2973031966
 30
0.0
 11
-1.1026659124
 21
-6.253529208
 31
0.0
  0
LINE
  5
2E9
330
1F
100
AcDbEntity
  8
0
  6
Continuous
 62
     7
370
    25
100
AcDbLine
 10
-0.8010499902
 20
-6.3026302186
 30
0.0
 11
-0.8182462117
 21
-6.2973031966
 31
0.0
  0
LINE
  5
2EA
330
1F
100
AcDbEntity
  8
0
  6
Continuous
 62
     7
370
    25
100
AcDbLine
 10
-0.7844980274
 20
-6.3114382506
 30
0.0
 11
-0.8010499902
 21
-6.3026302186
 31
0.0
  0
LINE
  5
2EB
330
1F
100
AcDbEntity
  8
0
  6
Continuous
 62
     7
370
    25
100
AcDbLine
 10
-0.7687363081
 20
-6.3236913973
 30
0.0
 11
-0.7844980274
 21
-6.3114382506
 31
0.0
  0
LINE
  5
2EC
330
1F
100
AcDbEntity
  8
0
  6
Continuous
 62
     7
370
    25
100
AcDbLine
 10
-0.7538911208
 20
-6.3393572363
 30
0.0
 11
-0.7687363081
 21
-6.3236913973
 31
0.0
  0
LINE
  5
2ED
330
1F
100
AcDbEntity
  8
0
  6
Continuous
 62
     7
370
    25
100
AcDbLine
 10
-0.7401084501
 20
-6.3583998724
 30
0.0
 11
-0.7538911208
 21
-6.3393572363
 31
0.0
  0
LINE
  5
2EE
330
1F
100
AcDbEntity
  8
0
  6
Continuous
 62
     7
370
    25
100
AcDbLine
 10
-0.7275145847
 20
-6.3807868832
 30
0.0
 11
-0.7401084501
 21
-6.3583998724
 31
0.0
  0
LINE
  5
2EF
330
1F
100
AcDbEntity
  8
0
  6
Continuous
 62
     7
370
    25
100
AcDbLine
 10
-0.7162456611
 20
-6.4064841099
 30
0.0
 11
-0.7275145847
 21
-6.3807868832
 31
0.0
  0
LINE
  5
2F0
330
1F
100
AcDbEntity
  8
0
  6
Continuous
 62
     7
370
    25
100
AcDbLine
 10
-0.706440718
 20
-6.4354162648
 30
0.0
 11
-0.7162456611
 21
-6.4064841099
 31
0.0
  0
LINE
  5
2F1
330
1F
100
AcDbEntity
  8
0
  6
Continuous
 62
     7
370
    25
100
AcDbLine
 10
-0.6917261912
 20
-6.502845822
 30
0.0
 11
-0.706440718
 21
-6.4354162648
 31
0.0
  0
LINE
  5
2F2
330
1F
100
AcDbEntity
  8
0
  6
Continuous
 62
     7
370
    25
100
AcDbLine
 10
-0.6843975597
 20
-6.5826203803
 30
0.0
 11
-0.6917261912
 21
-6.502845822
 31
0.0
  0
LINE
  5
2F3
330
1F
100
AcDbEntity
  8
0
  6
Continuous
 62
     7
370
    25
100
AcDbLine
 10
-0.6854477909
 20
-6.6742094533
 30
0.0
 11
-0.6843975597
 21
-6.5826203803
 31
0.0
  0
LINE
  5
2F4
330
1F
100
AcDbEntity
  8
0
  6
Continuous
 62
     7
370
    25
100
AcDbLine
 10
-0.6904408175
 20
-6.7353513054
 30
0.0
 11
-0.6854477909
 21
-6.6742094533
 31
0.0
  0
LINE
  5
2F5
330
1F
100
AcDbEntity
  8
0
  6
Continuous
 62
     7
370
    25
100
AcDbLine
 10
-0.690850739
 20
-6.790944712
 30
0.0
 11
-0.6904408175
 21
-6.7353513054
 31
0.0
  0
LINE
  5
2F6
330
1F
100
AcDbEntity
  8
0
  6
Continuous
 62
     7
370
    25
100
AcDbLine
 10
-0.68346002
 20
-6.8881041673
 30
0.0
 11
-0.690850739
 21
-6.790944712
 31
0.0
  0
LINE
  5
2F7
330
1F
100
AcDbEntity
  8
0
  6
Continuous
 62
     7
370
    25
100
AcDbLine
 10
-0.6744005969
 20
-6.954607657
 30
0.0
 11
-0.68346002
 21
-6.8881041673
 31
0.0
  0
LINE
  5
2F8
330
1F
100
AcDbEntity
  8
0
  6
Continuous
 62
     7
370
    25
100
AcDbLine
 10
-0.6605489751
 20
-7.0319987099
 30
0.0
 11
-0.6744005969
 21
-6.954607657
 31
0.0
  0
LINE
  5
2F9
330
1F
100
AcDbEntity
  8
0
  6
Continuous
 62
     7
370
    25
100
AcDbLine
 10
-0.6403378561
 20
-7.1226759245
 30
0.0
 11
-0.6605489751
 21
-7.0319987099
 31
0.0
  0
LINE
  5
2FA
330
1F
100
AcDbEntity
  8
0
  6
Continuous
 62
     7
370
    25
100
AcDbLine
 10
-0.6139492943
 20
-7.2213371357
 30
0.0
 11
-0.6403378561
 21
-7.1226759245
 31
0.0
  0
LINE
  5
2FB
330
1F
100
AcDbEntity
  8
0
  6
Continuous
 62
     7
370
    25
100
AcDbLine
 10
-0.579880884
 20
-7.3302882655
 30
0.0
 11
-0.6139492943
 21
-7.2213371357
 31
0.0
  0
LINE
  5
2FC
330
1F
100
AcDbEntity
  8
0
  6
Continuous
 62
     7
370
    25
100
AcDbLine
 10
-0.5370238603
 20
-7.4496334308
 30
0.0
 11
-0.579880884
 21
-7.3302882655
 31
0.0
  0
LINE
  5
2FD
330
1F
100
AcDbEntity
  8
0
  6
Continuous
 62
     7
370
    25
100
AcDbLine
 10
-0.4844897091
 20
-7.5785951081
 30
0.0
 11
-0.5370238603
 21
-7.4496334308
 31
0.0
  0
LINE
  5
2FE
330
1F
100
AcDbEntity
  8
0
  6
Continuous
 62
     7
370
    25
100
AcDbLine
 10
-0.4219768774
 20
-7.7153479301
 30
0.0
 11
-0.4844897091
 21
-7.5785951081
 31
0.0
  0
LINE
  5
2FF
330
1F
100
AcDbEntity
  8
0
  6
Continuous
 62
     7
370
    25
100
AcDbLine
 10
-0.3483122783
 20
-7.8601495151
 30
0.0
 11
-0.4219768774
 21
-7.7153479301
 31
0.0
  0
LINE
  5
300
330
1F
100
AcDbEntity
  8
0
  6
Continuous
 62
     7
370
    25
100
AcDbLine
 10
-0.2725075884
 20
-7.9953432334
 30
0.0
 11
-0.3483122783
 21
-7.8601495151
 31
0.0
  0
ARC
  5
301
330
1F
100
AcDbEntity
  8
0
  6
Continuous
 62
     7
370
    25
100
AcDbCircle
 10
-0.00000002
 20
0.0000141513
 30
0.0
 40
8.000000005245933
100
AcDbArc
 50
268.0479306789
 51
271.9520698569
  0
LINE
  5
302
330
1F
100
AcDbEntity
  8
0
  6
Continuous
 62
     7
370
    25
100
AcDbLine
 10
0.3483123154
 20
-7.8601494809
 30
0.0
 11
0.2725076232
 21
-7.9953432309
 31
0.0
  0
LINE
  5
303
330
1F
100
AcDbEntity
  8
0
  6
Continuous
 62
     7
370
    25
100
AcDbLine
 10
0.4219768702
 20
-7.7153479361
 30
0.0
 11
0.3483123154
 21
-7.8601494809
 31
0.0
  0
LINE
  5
304
330
1F
100
AcDbEntity
  8
0
  6
Continuous
 62
     7
370
    25
100
AcDbLine
 10
0.4844897619
 20
-7.5785951032
 30
0.0
 11
0.4219768702
 21
-7.7153479361
 31
0.0
  0
LINE
  5
305
330
1F
100
AcDbEntity
  8
0
  6
Continuous
 62
     7
370
    25
100
AcDbLine
 10
0.5370238321
 20
-7.4496334314
 30
0.0
 11
0.4844897619
 21
-7.5785951032
 31
0.0
  0
LINE
  5
306
330
1F
100
AcDbEntity
  8
0
  6
Continuous
 62
     7
370
    25
100
AcDbLine
 10
0.5798808987
 20
-7.3302882618
 30
0.0
 11
0.5370238321
 21
-7.4496334314
 31
0.0
  0
LINE
  5
307
330
1F
100
AcDbEntity
  8
0
  6
Continuous
 62
     7
370
    25
100
AcDbLine
 10
0.6139493506
 20
-7.2213370731
 30
0.0
 11
0.5798808987
 21
-7.3302882618
 31
0.0
  0
LINE
  5
308
330
1F
100
AcDbEntity
  8
0
  6
Continuous
 62
     7
370
    25
100
AcDbLine
 10
0.6403378832
 20
-7.1226759091
 30
0.0
 11
0.6139493506
 21
-7.2213370731
 31
0.0
  0
LINE
  5
309
330
1F
100
AcDbEntity
  8
0
  6
Continuous
 62
     7
370
    25
100
AcDbLine
 10
0.6605489783
 20
-7.0319986375
 30
0.0
 11
0.6403378832
 21
-7.1226759091
 31
0.0
  0
LINE
  5
30A
330
1F
100
AcDbEntity
  8
0
  6
Continuous
 62
     7
370
    25
100
AcDbLine
 10
0.6744006275
 20
-6.9546076076
 30
0.0
 11
0.6605489783
 21
-7.0319986375
 31
0.0
  0
LINE
  5
30B
330
1F
100
AcDbEntity
  8
0
  6
Continuous
 62
     7
370
    25
100
AcDbLine
 10
0.6834600693
 20
-6.8881041259
 30
0.0
 11
0.6744006275
 21
-6.9546076076
 31
0.0
  0
LINE
  5
30C
330
1F
100
AcDbEntity
  8
0
  6
Continuous
 62
     7
370
    25
100
AcDbLine
 10
0.690850801
 20
-6.7909447438
 30
0.0
 11
0.6834600693
 21
-6.8881041259
 31
0.0
  0
LINE
  5
30D
330
1F
100
AcDbEntity
  8
0
  6
Continuous
 62
     7
370
    25
100
AcDbLine
 10
0.6904408786
 20
-6.7353512718
 30
0.0
 11
0.690850801
 21
-6.7909447438
 31
0.0
  0
LINE
  5
30E
330
1F
100
AcDbEntity
  8
0
  6
Continuous
 62
     7
370
    25
100
AcDbLine
 10
0.6854477886
 20
-6.6742094491
 30
0.0
 11
0.6904408786
 21
-6.7353512718
 31
0.0
  0
LINE
  5
30F
330
1F
100
AcDbEntity
  8
0
  6
Continuous
 62
     7
370
    25
100
AcDbLine
 10
0.6843976154
 20
-6.5826203442
 30
0.0
 11
0.6854477886
 21
-6.6742094491
 31
0.0
  0
LINE
  5
310
330
1F
100
AcDbEntity
  8
0
  6
Continuous
 62
     7
370
    25
100
AcDbLine
 10
0.6917262592
 20
-6.5028457953
 30
0.0
 11
0.6843976154
 21
-6.5826203442
 31
0.0
  0
LINE
  5
311
330
1F
100
AcDbEntity
  8
0
  6
Continuous
 62
     7
370
    25
100
AcDbLine
 10
0.7064407265
 20
-6.4354162292
 30
0.0
 11
0.6917262592
 21
-6.5028457953
 31
0.0
  0
LINE
  5
312
330
1F
100
AcDbEntity
  8
0
  6
Continuous
 62
     7
370
    25
100
AcDbLine
 10
0.7162456975
 20
-6.4064841005
 30
0.0
 11
0.7064407265
 21
-6.4354162292
 31
0.0
  0
LINE
  5
313
330
1F
100
AcDbEntity
  8
0
  6
Continuous
 62
     7
370
    25
100
AcDbLine
 10
0.7275145827
 20
-6.3807868225
 30
0.0
 11
0.7162456975
 21
-6.4064841005
 31
0.0
  0
LINE
  5
314
330
1F
100
AcDbEntity
  8
0
  6
Continuous
 62
     7
370
    25
100
AcDbLine
 10
0.7401084745
 20
-6.3583998201
 30
0.0
 11
0.7275145827
 21
-6.3807868225
 31
0.0
  0
LINE
  5
315
330
1F
100
AcDbEntity
  8
0
  6
Continuous
 62
     7
370
    25
100
AcDbLine
 10
0.7538911703
 20
-6.3393572609
 30
0.0
 11
0.7401084745
 21
-6.3583998201
 31
0.0
  0
LINE
  5
316
330
1F
100
AcDbEntity
  8
0
  6
Continuous
 62
     7
370
    25
100
AcDbLine
 10
0.7687363502
 20
-6.3236913997
 30
0.0
 11
0.7538911703
 21
-6.3393572609
 31
0.0
  0
LINE
  5
317
330
1F
100
AcDbEntity
  8
0
  6
Continuous
 62
     7
370
    25
100
AcDbLine
 10
0.7844980453
 20
-6.3114382363
 30
0.0
 11
0.7687363502
 21
-6.3236913997
 31
0.0
  0
LINE
  5
318
330
1F
100
AcDbEntity
  8
0
  6
Continuous
 62
     7
370
    25
100
AcDbLine
 10
0.8010499992
 20
-6.3026302397
 30
0.0
 11
0.7844980453
 21
-6.3114382363
 31
0.0
  0
LINE
  5
319
330
1F
100
AcDbEntity
  8
0
  6
Continuous
 62
     7
370
    25
100
AcDbLine
 10
0.8182462779
 20
-6.2973032127
 30
0.0
 11
0.8010499992
 21
-6.3026302397
 31
0.0
  0
LINE
  5
31A
330
1F
100
AcDbEntity
  8
0
  6
Continuous
 62
     7
370
    25
100
AcDbLine
 10
1.102665939
 20
-6.2535291427
 30
0.0
 11
0.8182462779
 21
-6.2973032127
 31
0.0
  0
LINE
  5
31B
330
1F
100
AcDbEntity
  8
0
  6
Continuous
 62
     7
370
    25
100
AcDbLine
 10
1.3849046268
 20
-6.1973860373
 30
0.0
 11
1.102665939
 21
-6.2535291427
 31
0.0
  0
LINE
  5
31C
330
1F
100
AcDbEntity
  8
0
  6
Continuous
 62
     7
370
    25
100
AcDbLine
 10
1.4028857664
 20
-6.1965103254
 30
0.0
 11
1.3849046268
 21
-6.1973860373
 31
0.0
  0
LINE
  5
31D
330
1F
100
AcDbEntity
  8
0
  6
Continuous
 62
     7
370
    25
100
AcDbLine
 10
1.421452012
 20
-6.199126059
 30
0.0
 11
1.4028857664
 21
-6.1965103254
 31
0.0
  0
LINE
  5
31E
330
1F
100
AcDbEntity
  8
0
  6
Continuous
 62
     7
370
    25
100
AcDbLine
 10
1.4404539799
 20
-6.2052494442
 30
0.0
 11
1.421452012
 21
-6.199126059
 31
0.0
  0
LINE
  5
31F
330
1F
100
AcDbEntity
  8
0
  6
Continuous
 62
     7
370
    25
100
AcDbLine
 10
1.4597619991
 20
-6.2148931562
 30
0.0
 11
1.4404539799
 21
-6.2052494442
 31
0.0
  0
LINE
  5
320
330
1F
100
AcDbEntity
  8
0
  6
Continuous
 62
     7
370
    25
100
AcDbLine
 10
1.479226373
 20
-6.2280734475
 30
0.0
 11
1.4597619991
 21
-6.2148931562
 31
0.0
  0
LINE
  5
321
330
1F
100
AcDbEntity
  8
0
  6
Continuous
 62
     7
370
    25
100
AcDbLine
 10
1.4987175292
 20
-6.244803011
 30
0.0
 11
1.479226373
 21
-6.2280734475
 31
0.0
  0
LINE
  5
322
330
1F
100
AcDbEntity
  8
0
  6
Continuous
 62
     7
370
    25
100
AcDbLine
 10
1.5180958506
 20
-6.2650962207
 30
0.0
 11
1.4987175292
 21
-6.244803011
 31
0.0
  0
LINE
  5
323
330
1F
100
AcDbEntity
  8
0
  6
Continuous
 62
     7
370
    25
100
AcDbLine
 10
1.5372048401
 20
-6.2889301529
 30
0.0
 11
1.5180958506
 21
-6.2650962207
 31
0.0
  0
LINE
  5
324
330
1F
100
AcDbEntity
  8
0
  6
Continuous
 62
     7
370
    25
100
AcDbLine
 10
1.5740943134
 20
-6.347260512
 30
0.0
 11
1.5372048401
 21
-6.2889301529
 31
0.0
  0
LINE
  5
325
330
1F
100
AcDbEntity
  8
0
  6
Continuous
 62
     7
370
    25
100
AcDbLine
 10
1.6082654169
 20
-6.419717547
 30
0.0
 11
1.5740943134
 21
-6.347260512
 31
0.0
  0
LINE
  5
326
330
1F
100
AcDbEntity
  8
0
  6
Continuous
 62
     7
370
    25
100
AcDbLine
 10
1.6386038171
 20
-6.5061423418
 30
0.0
 11
1.6082654169
 21
-6.419717547
 31
0.0
  0
LINE
  5
327
330
1F
100
AcDbEntity
  8
0
  6
Continuous
 62
     7
370
    25
100
AcDbLine
 10
1.6548237144
 20
-6.5653046051
 30
0.0
 11
1.6386038171
 21
-6.5061423418
 31
0.0
  0
LINE
  5
328
330
1F
100
AcDbEntity
  8
0
  6
Continuous
 62
     7
370
    25
100
AcDbLine
 10
1.6734525891
 20
-6.6176854581
 30
0.0
 11
1.6548237144
 21
-6.5653046051
 31
0.0
  0
LINE
  5
329
330
1F
100
AcDbEntity
  8
0
  6
Continuous
 62
     7
370
    25
100
AcDbLine
 10
1.7136280064
 20
-6.7064576959
 30
0.0
 11
1.6734525891
 21
-6.6176854581
 31
0.0
  0
LINE
  5
32A
330
1F
100
AcDbEntity
  8
0
  6
Continuous
 62
     7
370
    25
100
AcDbLine
 10
1.7448866759
 20
-6.7658520405
 30
0.0
 11
1.7136280064
 21
-6.7064576959
 31
0.0
  0
LINE
  5
32B
330
1F
100
AcDbEntity
  8
0
  6
Continuous
 62
     7
370
    25
100
AcDbLine
 10
1.7843722597
 20
-6.8338383043
 30
0.0
 11
1.7448866759
 21
-6.7658520405
 31
0.0
  0
LINE
  5
32C
330
1F
100
AcDbEntity
  8
0
  6
Continuous
 62
     7
370
    25
100
AcDbLine
 10
1.8343778858
 20
-6.9121343836
 30
0.0
 11
1.7843722597
 21
-6.8338383043
 31
0.0
  0
LINE
  5
32D
330
1F
100
AcDbEntity
  8
0
  6
Continuous
 62
     7
370
    25
100
AcDbLine
 10
1.8929191616
 20
-6.9958202458
 30
0.0
 11
1.8343778858
 21
-6.9121343836
 31
0.0
  0
LINE
  5
32E
330
1F
100
AcDbEntity
  8
0
  6
Continuous
 62
     7
370
    25
100
AcDbLine
 10
1.9621965092
 20
-7.0865487002
 30
0.0
 11
1.8929191616
 21
-6.9958202458
 31
0.0
  0
LINE
  5
32F
330
1F
100
AcDbEntity
  8
0
  6
Continuous
 62
     7
370
    25
100
AcDbLine
 10
2.0432873237
 20
-7.1840385625
 30
0.0
 11
1.9621965092
 21
-7.0865487002
 31
0.0
  0
LINE
  5
330
330
1F
100
AcDbEntity
  8
0
  6
Continuous
 62
     7
370
    25
100
AcDbLine
 10
2.1367608223
 20
-7.2872551573
 30
0.0
 11
2.0432873237
 21
-7.1840385625
 31
0.0
  0
LINE
  5
331
330
1F
100
AcDbEntity
  8
0
  6
Continuous
 62
     7
370
    25
100
AcDbLine
 10
2.2422758776
 20
-7.3943801235
 30
0.0
 11
2.1367608223
 21
-7.2872551573
 31
0.0
  0
LINE
  5
332
330
1F
100
AcDbEntity
  8
0
  6
Continuous
 62
     7
370
    25
100
AcDbLine
 10
2.3610230186
 20
-7.5052542759
 30
0.0
 11
2.2422758776
 21
-7.3943801235
 31
0.0
  0
LINE
  5
333
330
1F
100
AcDbEntity
  8
0
  6
Continuous
 62
     7
370
    25
100
AcDbLine
 10
2.4784950684
 20
-7.6063680207
 30
0.0
 11
2.3610230186
 21
-7.5052542759
 31
0.0
  0
ARC
  5
334
330
1F
100
AcDbEntity
  8
0
  6
Continuous
 62
     7
370
    25
100
AcDbCircle
 10
-0.0000048287
 20
0.0000133886
 30
0.0
 40
7.999999992704666
100
AcDbArc
 50
288.0479304789
 51
291.9520694745
  0
LINE
  5
335
330
1F
100
AcDbEntity
  8
0
  6
Continuous
 62
     7
370
    25
100
AcDbLine
 10
3.0156360135
 20
-7.2669946303
 30
0.0
 11
2.9906418163
 21
-7.4199618491
 31
0.0
  0
LINE
  5
336
330
1F
100
AcDbEntity
  8
0
  6
Continuous
 62
     7
370
    25
100
AcDbLine
 10
3.035333005
 20
-7.105730919
 30
0.0
 11
3.0156360135
 21
-7.2669946303
 31
0.0
  0
LINE
  5
337
330
1F
100
AcDbEntity
  8
0
  6
Continuous
 62
     7
370
    25
100
AcDbLine
 10
3.0473036542
 20
-6.9558445904
 30
0.0
 11
3.035333005
 21
-7.105730919
 31
0.0
  0
LINE
  5
338
330
1F
100
AcDbEntity
  8
0
  6
Continuous
 62
     7
370
    25
100
AcDbLine
 10
3.0525620364
 20
-6.8166925671
 30
0.0
 11
3.0473036542
 21
-6.9558445904
 31
0.0
  0
LINE
  5
339
330
1F
100
AcDbEntity
  8
0
  6
Continuous
 62
     7
370
    25
100
AcDbLine
 10
3.0520160338
 20
-6.6898867901
 30
0.0
 11
3.0525620364
 21
-6.8166925671
 31
0.0
  0
LINE
  5
33A
330
1F
100
AcDbEntity
  8
0
  6
Continuous
 62
     7
370
    25
100
AcDbLine
 10
3.0467664331
 20
-6.5758541952
 30
0.0
 11
3.0520160338
 21
-6.6898867901
 31
0.0
  0
LINE
  5
33B
330
1F
100
AcDbEntity
  8
0
  6
Continuous
 62
     7
370
    25
100
AcDbLine
 10
3.0378193908
 20
-6.4741175494
 30
0.0
 11
3.0467664331
 21
-6.5758541952
 31
0.0
  0
LINE
  5
33C
330
1F
100
AcDbEntity
  8
0
  6
Continuous
 62
     7
370
    25
100
AcDbLine
 10
3.0257982723
 20
-6.3819961734
 30
0.0
 11
3.0378193908
 21
-6.4741175494
 31
0.0
  0
LINE
  5
33D
330
1F
100
AcDbEntity
  8
0
  6
Continuous
 62
     7
370
    25
100
AcDbLine
 10
3.0123452058
 20
-6.3045348616
 30
0.0
 11
3.0257982723
 21
-6.3819961734
 31
0.0
  0
LINE
  5
33E
330
1F
100
AcDbEntity
  8
0
  6
Continuous
 62
     7
370
    25
100
AcDbLine
 10
2.9981126969
 20
-6.2389435327
 30
0.0
 11
3.0123452058
 21
-6.3045348616
 31
0.0
  0
LINE
  5
33F
330
1F
100
AcDbEntity
  8
0
  6
Continuous
 62
     7
370
    25
100
AcDbLine
 10
2.9718272837
 20
-6.145115764
 30
0.0
 11
2.9981126969
 21
-6.2389435327
 31
0.0
  0
LINE
  5
340
330
1F
100
AcDbEntity
  8
0
  6
Continuous
 62
     7
370
    25
100
AcDbLine
 10
2.9524280345
 20
-6.093015195
 30
0.0
 11
2.9718272837
 21
-6.145115764
 31
0.0
  0
LINE
  5
341
330
1F
100
AcDbEntity
  8
0
  6
Continuous
 62
     7
370
    25
100
AcDbLine
 10
2.9268243785
 20
-6.0372684484
 30
0.0
 11
2.9524280345
 21
-6.093015195
 31
0.0
  0
LINE
  5
342
330
1F
100
AcDbEntity
  8
0
  6
Continuous
 62
     7
370
    25
100
AcDbLine
 10
2.8945121493
 20
-5.9515620154
 30
0.0
 11
2.9268243785
 21
-6.0372684484
 31
0.0
  0
LINE
  5
343
330
1F
100
AcDbEntity
  8
0
  6
Continuous
 62
     7
370
    25
100
AcDbLine
 10
2.874114301
 20
-5.8740919214
 30
0.0
 11
2.8945121493
 21
-5.9515620154
 31
0.0
  0
LINE
  5
344
330
1F
100
AcDbEntity
  8
0
  6
Continuous
 62
     7
370
    25
100
AcDbLine
 10
2.8648791955
 20
-5.8056961771
 30
0.0
 11
2.874114301
 21
-5.8740919214
 31
0.0
  0
LINE
  5
345
330
1F
100
AcDbEntity
  8
0
  6
Continuous
 62
     7
370
    25
100
AcDbLine
 10
2.8641973877
 20
-5.7751553994
 30
0.0
 11
2.8648791955
 21
-5.8056961771
 31
0.0
  0
LINE
  5
346
330
1F
100
AcDbEntity
  8
0
  6
Continuous
 62
     7
370
    25
100
AcDbLine
 10
2.8659977794
 20
-5.7471537258
 30
0.0
 11
2.8641973877
 21
-5.7751553994
 31
0.0
  0
LINE
  5
347
330
1F
100
AcDbEntity
  8
0
  6
Continuous
 62
     7
370
    25
100
AcDbLine
 10
2.8701753394
 20
-5.7218094145
 30
0.0
 11
2.8659977794
 21
-5.7471537258
 31
0.0
  0
LINE
  5
348
330
1F
100
AcDbEntity
  8
0
  6
Continuous
 62
     7
370
    25
100
AcDbLine
 10
2.8766138165
 20
-5.6992012759
 30
0.0
 11
2.8701753394
 21
-5.7218094145
 31
0.0
  0
LINE
  5
349
330
1F
100
AcDbEntity
  8
0
  6
Continuous
 62
     7
370
    25
100
AcDbLine
 10
2.8852057056
 20
-5.6794028594
 30
0.0
 11
2.8766138165
 21
-5.6992012759
 31
0.0
  0
LINE
  5
34A
330
1F
100
AcDbEntity
  8
0
  6
Continuous
 62
     7
370
    25
100
AcDbLine
 10
2.8958260783
 20
-5.6624978426
 30
0.0
 11
2.8852057056
 21
-5.6794028594
 31
0.0
  0
LINE
  5
34B
330
1F
100
AcDbEntity
  8
0
  6
Continuous
 62
     7
370
    25
100
AcDbLine
 10
2.9083673138
 20
-5.648559856
 30
0.0
 11
2.8958260783
 21
-5.6624978426
 31
0.0
  0
LINE
  5
34C
330
1F
100
AcDbEntity
  8
0
  6
Continuous
 62
     7
370
    25
100
AcDbLine
 10
2.9227044664
 20
-5.6376726758
 30
0.0
 11
2.9083673138
 21
-5.648559856
 31
0.0
  0
LINE
  5
34D
330
1F
100
AcDbEntity
  8
0
  6
Continuous
 62
     7
370
    25
100
AcDbLine
 10
3.1749999936
 20
-5.4992612544
 30
0.0
 11
2.9227044664
 21
-5.6376726758
 31
0.0
  0
LINE
  5
34E
330
1F
100
AcDbEntity
  8
0
  6
Continuous
 62
     7
370
    25
100
AcDbLine
 10
3.4210155125
 20
-5.3499726726
 30
0.0
 11
3.1749999936
 21
-5.4992612544
 31
0.0
  0
LINE
  5
34F
330
1F
100
AcDbEntity
  8
0
  6
Continuous
 62
     7
370
    25
100
AcDbLine
 10
3.4376127846
 20
-5.3429998255
 30
0.0
 11
3.4210155125
 21
-5.3499726726
 31
0.0
  0
LINE
  5
350
330
1F
100
AcDbEntity
  8
0
  6
Continuous
 62
     7
370
    25
100
AcDbLine
 10
3.4559539697
 20
-5.3391078105
 30
0.0
 11
3.4376127846
 21
-5.3429998255
 31
0.0
  0
LINE
  5
351
330
1F
100
AcDbEntity
  8
0
  6
Continuous
 62
     7
370
    25
100
AcDbLine
 10
3.475904324
 20
-5.3383628353
 30
0.0
 11
3.4559539697
 21
-5.3391078105
 31
0.0
  0
LINE
  5
352
330
1F
100
AcDbEntity
  8
0
  6
Continuous
 62
     7
370
    25
100
AcDbLine
 10
3.4973461794
 20
-5.3408212229
 30
0.0
 11
3.475904324
 21
-5.3383628353
 31
0.0
  0
LINE
  5
353
330
1F
100
AcDbEntity
  8
0
  6
Continuous
 62
     7
370
    25
100
AcDbLine
 10
3.5201447573
 20
-5.346549378
 30
0.0
 11
3.4973461794
 21
-5.3408212229
 31
0.0
  0
LINE
  5
354
330
1F
100
AcDbEntity
  8
0
  6
Continuous
 62
     7
370
    25
100
AcDbLine
 10
3.5441822738
 20
-5.3556037046
 30
0.0
 11
3.5201447573
 21
-5.346549378
 31
0.0
  0
LINE
  5
355
330
1F
100
AcDbEntity
  8
0
  6
Continuous
 62
     7
370
    25
100
AcDbLine
 10
3.5693325983
 20
-5.3680453289
 30
0.0
 11
3.5441822738
 21
-5.3556037046
 31
0.0
  0
LINE
  5
356
330
1F
100
AcDbEntity
  8
0
  6
Continuous
 62
     7
370
    25
100
AcDbLine
 10
3.595440823
 20
-5.3839062374
 30
0.0
 11
3.5693325983
 21
-5.3680453289
 31
0.0
  0
LINE
  5
357
330
1F
100
AcDbEntity
  8
0
  6
Continuous
 62
     7
370
    25
100
AcDbLine
 10
3.6500557349
 20
-5.4261019653
 30
0.0
 11
3.595440823
 21
-5.3839062374
 31
0.0
  0
LINE
  5
358
330
1F
100
AcDbEntity
  8
0
  6
Continuous
 62
     7
370
    25
100
AcDbLine
 10
3.7069478863
 20
-5.4825020275
 30
0.0
 11
3.6500557349
 21
-5.4261019653
 31
0.0
  0
LINE
  5
359
330
1F
100
AcDbEntity
  8
0
  6
Continuous
 62
     7
370
    25
100
AcDbLine
 10
3.765015667
 20
-5.5533383549
 30
0.0
 11
3.7069478863
 21
-5.4825020275
 31
0.0
  0
LINE
  5
35A
330
1F
100
AcDbEntity
  8
0
  6
Continuous
 62
     7
370
    25
100
AcDbLine
 10
3.8004919924
 20
-5.6033851779
 30
0.0
 11
3.765015667
 21
-5.5533383549
 31
0.0
  0
LINE
  5
35B
330
1F
100
AcDbEntity
  8
0
  6
Continuous
 62
     7
370
    25
100
AcDbLine
 10
3.8359127932
 20
-5.6462357316
 30
0.0
 11
3.8004919924
 21
-5.6033851779
 31
0.0
  0
LINE
  5
35C
330
1F
100
AcDbEntity
  8
0
  6
Continuous
 62
     7
370
    25
100
AcDbLine
 10
3.9040272788
 20
-5.7159135507
 30
0.0
 11
3.8359127932
 21
-5.6462357316
 31
0.0
  0
LINE
  5
35D
330
1F
100
AcDbEntity
  8
0
  6
Continuous
 62
     7
370
    25
100
AcDbLine
 10
3.9537148049
 20
-5.7610348937
 30
0.0
 11
3.9040272788
 21
-5.7159135507
 31
0.0
  0
LINE
  5
35E
330
1F
100
AcDbEntity
  8
0
  6
Continuous
 62
     7
370
    25
100
AcDbLine
 10
4.0140717452
 20
-5.8114161713
 30
0.0
 11
3.9537148049
 21
-5.7610348937
 31
0.0
  0
LINE
  5
35F
330
1F
100
AcDbEntity
  8
0
  6
Continuous
 62
     7
370
    25
100
AcDbLine
 10
4.0878406118
 20
-5.8678875275
 30
0.0
 11
4.0140717452
 21
-5.8114161713
 31
0.0
  0
LINE
  5
360
330
1F
100
AcDbEntity
  8
0
  6
Continuous
 62
     7
370
    25
100
AcDbLine
 10
4.1714736126
 20
-5.9265041643
 30
0.0
 11
4.0878406118
 21
-5.8678875275
 31
0.0
  0
LINE
  5
361
330
1F
100
AcDbEntity
  8
0
  6
Continuous
 62
     7
370
    25
100
AcDbLine
 10
4.2676040084
 20
-5.9880668074
 30
0.0
 11
4.1714736126
 21
-5.9265041643
 31
0.0
  0
LINE
  5
362
330
1F
100
AcDbEntity
  8
0
  6
Continuous
 62
     7
370
    25
100
AcDbLine
 10
4.3771479245
 20
-6.0519425246
 30
0.0
 11
4.2676040084
 21
-5.9880668074
 31
0.0
  0
LINE
  5
363
330
1F
100
AcDbEntity
  8
0
  6
Continuous
 62
     7
370
    25
100
AcDbLine
 10
4.5002864045
 20
-6.1169646294
 30
0.0
 11
4.3771479245
 21
-6.0519425246
 31
0.0
  0
LINE
  5
364
330
1F
100
AcDbEntity
  8
0
  6
Continuous
 62
     7
370
    25
100
AcDbLine
 10
4.6360770204
 20
-6.181540881
 30
0.0
 11
4.5002864045
 21
-6.1169646294
 31
0.0
  0
LINE
  5
365
330
1F
100
AcDbEntity
  8
0
  6
Continuous
 62
     7
370
    25
100
AcDbLine
 10
4.785584101
 20
-6.2451146417
 30
0.0
 11
4.6360770204
 21
-6.181540881
 31
0.0
  0
LINE
  5
366
330
1F
100
AcDbEntity
  8
0
  6
Continuous
 62
     7
370
    25
100
AcDbLine
 10
4.9305547146
 20
-6.2999527506
 30
0.0
 11
4.785584101
 21
-6.2451146417
 31
0.0
  0
ARC
  5
367
330
1F
100
AcDbEntity
  8
0
  6
Continuous
 62
     7
370
    25
100
AcDbCircle
 10
-0.0000093856
 20
0.0000105288
 30
0.0
 40
7.999999979234071
100
AcDbArc
 50
308.0479339789
 51
311.9520731527
  0
LINE
  5
368
330
1F
100
AcDbEntity
  8
0
  6
Continuous
 62
     7
370
    25
100
AcDbLine
 10
5.3192294601
 20
-5.7973329941
 30
0.0
 11
5.3480605653
 21
-5.949623701
 31
0.0
  0
LINE
  5
369
330
1F
100
AcDbEntity
  8
0
  6
Continuous
 62
     7
370
    25
100
AcDbLine
 10
5.2825831075
 20
-5.639057867
 30
0.0
 11
5.3192294601
 21
-5.7973329941
 31
0.0
  0
LINE
  5
36A
330
1F
100
AcDbEntity
  8
0
  6
Continuous
 62
     7
370
    25
100
AcDbLine
 10
5.2425677556
 20
-5.4941166919
 30
0.0
 11
5.2825831075
 21
-5.639057867
 31
0.0
  0
LINE
  5
36B
330
1F
100
AcDbEntity
  8
0
  6
Continuous
 62
     7
370
    25
100
AcDbLine
 10
5.1999162639
 20
-5.3615579733
 30
0.0
 11
5.2425677556
 21
-5.4941166919
 31
0.0
  0
LINE
  5
36C
330
1F
100
AcDbEntity
  8
0
  6
Continuous
 62
     7
370
    25
100
AcDbLine
 10
5.1560330956
 20
-5.2425862939
 30
0.0
 11
5.1999162639
 21
-5.3615579733
 31
0.0
  0
LINE
  5
36D
330
1F
100
AcDbEntity
  8
0
  6
Continuous
 62
     7
370
    25
100
AcDbLine
 10
5.112098523
 20
-5.1372261785
 30
0.0
 11
5.1560330956
 21
-5.2425862939
 31
0.0
  0
LINE
  5
36E
330
1F
100
AcDbEntity
  8
0
  6
Continuous
 62
     7
370
    25
100
AcDbLine
 10
5.0688951591
 20
-5.044685086
 30
0.0
 11
5.112098523
 21
-5.1372261785
 31
0.0
  0
LINE
  5
36F
330
1F
100
AcDbEntity
  8
0
  6
Continuous
 62
     7
370
    25
100
AcDbLine
 10
5.026091603
 20
-4.9622308615
 30
0.0
 11
5.0688951591
 21
-5.044685086
 31
0.0
  0
LINE
  5
370
330
1F
100
AcDbEntity
  8
0
  6
Continuous
 62
     7
370
    25
100
AcDbLine
 10
4.9869564929
 20
-4.8940421816
 30
0.0
 11
5.026091603
 21
-4.9622308615
 31
0.0
  0
LINE
  5
371
330
1F
100
AcDbEntity
  8
0
  6
Continuous
 62
     7
370
    25
100
AcDbLine
 10
4.9511488308
 20
-4.8372743148
 30
0.0
 11
4.9869564929
 21
-4.8940421816
 31
0.0
  0
LINE
  5
372
330
1F
100
AcDbEntity
  8
0
  6
Continuous
 62
     7
370
    25
100
AcDbLine
 10
4.8943575522
 20
-4.7580952041
 30
0.0
 11
4.9511488308
 21
-4.8372743148
 31
0.0
  0
LINE
  5
373
330
1F
100
AcDbEntity
  8
0
  6
Continuous
 62
     7
370
    25
100
AcDbLine
 10
4.8583088051
 20
-4.7157716144
 30
0.0
 11
4.8943575522
 21
-4.7580952041
 31
0.0
  0
LINE
  5
374
330
1F
100
AcDbEntity
  8
0
  6
Continuous
 62
     7
370
    25
100
AcDbLine
 10
4.8151826249
 20
-4.6721437261
 30
0.0
 11
4.8583088051
 21
-4.7157716144
 31
0.0
  0
LINE
  5
375
330
1F
100
AcDbEntity
  8
0
  6
Continuous
 62
     7
370
    25
100
AcDbLine
 10
4.7555058553
 20
-4.602657512
 30
0.0
 11
4.8151826249
 21
-4.6721437261
 31
0.0
  0
LINE
  5
376
330
1F
100
AcDbEntity
  8
0
  6
Continuous
 62
     7
370
    25
100
AcDbLine
 10
4.7098418266
 20
-4.5368358577
 30
0.0
 11
4.7555058553
 21
-4.602657512
 31
0.0
  0
LINE
  5
377
330
1F
100
AcDbEntity
  8
0
  6
Continuous
 62
     7
370
    25
100
AcDbLine
 10
4.6777708363
 20
-4.4757235554
 30
0.0
 11
4.7098418266
 21
-4.5368358577
 31
0.0
  0
LINE
  5
378
330
1F
100
AcDbEntity
  8
0
  6
Continuous
 62
     7
370
    25
100
AcDbLine
 10
4.6666846563
 20
-4.4472577002
 30
0.0
 11
4.6777708363
 21
-4.4757235554
 31
0.0
  0
LINE
  5
379
330
1F
100
AcDbEntity
  8
0
  6
Continuous
 62
     7
370
    25
100
AcDbLine
 10
4.6587992948
 20
-4.4203289127
 30
0.0
 11
4.6666846563
 21
-4.4472577002
 31
0.0
  0
LINE
  5
37A
330
1F
100
AcDbEntity
  8
0
  6
Continuous
 62
     7
370
    25
100
AcDbLine
 10
4.6540567166
 20
-4.3950843511
 30
0.0
 11
4.6587992948
 21
-4.4203289127
 31
0.0
  0
LINE
  5
37B
330
1F
100
AcDbEntity
  8
0
  6
Continuous
 62
     7
370
    25
100
AcDbLine
 10
4.6523744589
 20
-4.37163752
 30
0.0
 11
4.6540567166
 21
-4.3950843511
 31
0.0
  0
LINE
  5
37C
330
1F
100
AcDbEntity
  8
0
  6
Continuous
 62
     7
370
    25
100
AcDbLine
 10
4.6536767544
 20
-4.350094474
 30
0.0
 11
4.6523744589
 21
-4.37163752
 31
0.0
  0
LINE
  5
37D
330
1F
100
AcDbEntity
  8
0
  6
Continuous
 62
     7
370
    25
100
AcDbLine
 10
4.657874671
 20
-4.3305766145
 30
0.0
 11
4.6536767544
 21
-4.350094474
 31
0.0
  0
LINE
  5
37E
330
1F
100
AcDbEntity
  8
0
  6
Continuous
 62
     7
370
    25
100
AcDbLine
 10
4.6648925746
 20
-4.3131898161
 30
0.0
 11
4.657874671
 21
-4.3305766145
 31
0.0
  0
LINE
  5
37F
330
1F
100
AcDbEntity
  8
0
  6
Continuous
 62
     7
370
    25
100
AcDbLine
 10
4.6746415156
 20
-4.2980555789
 30
0.0
 11
4.6648925746
 21
-4.3131898161
 31
0.0
  0
LINE
  5
380
330
1F
100
AcDbEntity
  8
0
  6
Continuous
 62
     7
370
    25
100
AcDbLine
 10
4.8643822299
 20
-4.0817013011
 30
0.0
 11
4.6746415156
 21
-4.2980555789
 31
0.0
  0
LINE
  5
381
330
1F
100
AcDbEntity
  8
0
  6
Continuous
 62
     7
370
    25
100
AcDbLine
 10
5.0445015038
 20
-3.8572736247
 30
0.0
 11
4.8643822299
 21
-4.0817013011
 31
0.0
  0
LINE
  5
382
330
1F
100
AcDbEntity
  8
0
  6
Continuous
 62
     7
370
    25
100
AcDbLine
 10
5.0577129314
 20
-3.8450447814
 30
0.0
 11
5.0445015038
 21
-3.8572736247
 31
0.0
  0
LINE
  5
383
330
1F
100
AcDbEntity
  8
0
  6
Continuous
 62
     7
370
    25
100
AcDbLine
 10
5.0736168573
 20
-3.8351143029
 30
0.0
 11
5.0577129314
 21
-3.8450447814
 31
0.0
  0
LINE
  5
384
330
1F
100
AcDbEntity
  8
0
  6
Continuous
 62
     7
370
    25
100
AcDbLine
 10
5.0921093266
 20
-3.827590889
 30
0.0
 11
5.0736168573
 21
-3.8351143029
 31
0.0
  0
LINE
  5
385
330
1F
100
AcDbEntity
  8
0
  6
Continuous
 62
     7
370
    25
100
AcDbLine
 10
5.1130989122
 20
-3.8225674754
 30
0.0
 11
5.0921093266
 21
-3.827590889
 31
0.0
  0
LINE
  5
386
330
1F
100
AcDbEntity
  8
0
  6
Continuous
 62
     7
370
    25
100
AcDbLine
 10
5.1364816766
 20
-3.8201526635
 30
0.0
 11
5.1130989122
 21
-3.8225674754
 31
0.0
  0
LINE
  5
387
330
1F
100
AcDbEntity
  8
0
  6
Continuous
 62
     7
370
    25
100
AcDbLine
 10
5.1621662565
 20
-3.8204396033
 30
0.0
 11
5.1364816766
 21
-3.8201526635
 31
0.0
  0
LINE
  5
388
330
1F
100
AcDbEntity
  8
0
  6
Continuous
 62
     7
370
    25
100
AcDbLine
 10
5.1900551839
 20
-3.8235289996
 30
0.0
 11
5.1621662565
 21
-3.8204396033
 31
0.0
  0
LINE
  5
389
330
1F
100
AcDbEntity
  8
0
  6
Continuous
 62
     7
370
    25
100
AcDbLine
 10
5.2200136245
 20
-3.8295036974
 30
0.0
 11
5.1900551839
 21
-3.8235289996
 31
0.0
  0
LINE
  5
38A
330
1F
100
AcDbEntity
  8
0
  6
Continuous
 62
     7
370
    25
100
AcDbLine
 10
5.2857666628
 20
-3.8504754001
 30
0.0
 11
5.2200136245
 21
-3.8295036974
 31
0.0
  0
LINE
  5
38B
330
1F
100
AcDbEntity
  8
0
  6
Continuous
 62
     7
370
    25
100
AcDbLine
 10
5.358517777
 20
-3.8840158535
 30
0.0
 11
5.2857666628
 21
-3.8504754001
 31
0.0
  0
LINE
  5
38C
330
1F
100
AcDbEntity
  8
0
  6
Continuous
 62
     7
370
    25
100
AcDbLine
 10
5.4373110509
 20
-3.9307199015
 30
0.0
 11
5.358517777
 21
-3.8840158535
 31
0.0
  0
LINE
  5
38D
330
1F
100
AcDbEntity
  8
0
  6
Continuous
 62
     7
370
    25
100
AcDbLine
 10
5.4877649943
 20
-3.9656149714
 30
0.0
 11
5.4373110509
 21
-3.9307199015
 31
0.0
  0
LINE
  5
38E
330
1F
100
AcDbEntity
  8
0
  6
Continuous
 62
     7
370
    25
100
AcDbLine
 10
5.5357053347
 20
-3.993766611
 30
0.0
 11
5.4877649943
 21
-3.9656149714
 31
0.0
  0
LINE
  5
38F
330
1F
100
AcDbEntity
  8
0
  6
Continuous
 62
     7
370
    25
100
AcDbLine
 10
5.6235432503
 20
-4.0359458018
 30
0.0
 11
5.5357053347
 21
-3.993766611
 31
0.0
  0
LINE
  5
390
330
1F
100
AcDbEntity
  8
0
  6
Continuous
 62
     7
370
    25
100
AcDbLine
 10
5.6856666232
 20
-4.0613518879
 30
0.0
 11
5.6235432503
 21
-4.0359458018
 31
0.0
  0
LINE
  5
391
330
1F
100
AcDbEntity
  8
0
  6
Continuous
 62
     7
370
    25
100
AcDbLine
 10
5.7596151215
 20
-4.0880515377
 30
0.0
 11
5.6856666232
 21
-4.0613518879
 31
0.0
  0
LINE
  5
392
330
1F
100
AcDbEntity
  8
0
  6
Continuous
 62
     7
370
    25
100
AcDbLine
 10
5.8482494323
 20
-4.1158868047
 30
0.0
 11
5.7596151215
 21
-4.0880515377
 31
0.0
  0
LINE
  5
393
330
1F
100
AcDbEntity
  8
0
  6
Continuous
 62
     7
370
    25
100
AcDbLine
 10
5.9468867943
 20
-4.1423642551
 30
0.0
 11
5.8482494323
 21
-4.1158868047
 31
0.0
  0
LINE
  5
394
330
1F
100
AcDbEntity
  8
0
  6
Continuous
 62
     7
370
    25
100
AcDbLine
 10
6.0582754804
 20
-4.1673357711
 30
0.0
 11
5.9468867943
 21
-4.1423642551
 31
0.0
  0
LINE
  5
395
330
1F
100
AcDbEntity
  8
0
  6
Continuous
 62
     7
370
    25
100
AcDbLine
 10
6.1830599048
 20
-4.1898930551
 30
0.0
 11
6.0582754804
 21
-4.1673357711
 31
0.0
  0
LINE
  5
396
330
1F
100
AcDbEntity
  8
0
  6
Continuous
 62
     7
370
    25
100
AcDbLine
 10
6.3210111005
 20
-4.2088779524
 30
0.0
 11
6.1830599048
 21
-4.1898930551
 31
0.0
  0
LINE
  5
397
330
1F
100
AcDbEntity
  8
0
  6
Continuous
 62
     7
370
    25
100
AcDbLine
 10
6.470698865
 20
-4.2231166785
 30
0.0
 11
6.3210111005
 21
-4.2088779524
 31
0.0
  0
LINE
  5
398
330
1F
100
AcDbEntity
  8
0
  6
Continuous
 62
     7
370
    25
100
AcDbLine
 10
6.6329330535
 20
-4.2317220855
 30
0.0
 11
6.470698865
 21
-4.2231166785
 31
0.0
  0
LINE
  5
399
330
1F
100
AcDbEntity
  8
0
  6
Continuous
 62
     7
370
    25
100
AcDbLine
 10
6.7879165222
 20
-4.2336700705
 30
0.0
 11
6.6329330535
 21
-4.2317220855
 31
0.0
  0
ARC
  5
39A
330
1F
100
AcDbEntity
  8
0
  6
Continuous
 62
     7
370
    25
100
AcDbCircle
 10
-0.0000121929
 20
0.0000072618
 30
0.0
 40
7.999999999723313
100
AcDbArc
 50
328.0479292789
 51
331.9520686784
  0
LINE
  5
39B
330
1F
100
AcDbEntity
  8
0
  6
Continuous
 62
     7
370
    25
100
AcDbLine
 10
6.9812452966
 20
-3.6284274667
 30
0.0
 11
7.0604241517
 21
-3.7616730302
 31
0.0
  0
LINE
  5
39C
330
1F
100
AcDbEntity
  8
0
  6
Continuous
 62
     7
370
    25
100
AcDbLine
 10
6.8926757601
 20
-3.4922312006
 30
0.0
 11
6.9812452966
 21
-3.6284274667
 31
0.0
  0
LINE
  5
39D
330
1F
100
AcDbEntity
  8
0
  6
Continuous
 62
     7
370
    25
100
AcDbLine
 10
6.8055008159
 20
-3.3697171669
 30
0.0
 11
6.8926757601
 21
-3.4922312006
 31
0.0
  0
LINE
  5
39E
330
1F
100
AcDbEntity
  8
0
  6
Continuous
 62
     7
370
    25
100
AcDbLine
 10
6.7200838112
 20
-3.2597403648
 30
0.0
 11
6.8055008159
 21
-3.3697171669
 31
0.0
  0
LINE
  5
39F
330
1F
100
AcDbEntity
  8
0
  6
Continuous
 62
     7
370
    25
100
AcDbLine
 10
6.6381563702
 20
-3.1629525901
 30
0.0
 11
6.7200838112
 21
-3.2597403648
 31
0.0
  0
LINE
  5
3A0
330
1F
100
AcDbEntity
  8
0
  6
Continuous
 62
     7
370
    25
100
AcDbLine
 10
6.5608361345
 20
-3.0789728307
 30
0.0
 11
6.6381563702
 21
-3.1629525901
 31
0.0
  0
LINE
  5
3A1
330
1F
100
AcDbEntity
  8
0
  6
Continuous
 62
     7
370
    25
100
AcDbLine
 10
6.4885872828
 20
-3.0067891163
 30
0.0
 11
6.5608361345
 21
-3.0789728307
 31
0.0
  0
LINE
  5
3A2
330
1F
100
AcDbEntity
  8
0
  6
Continuous
 62
     7
370
    25
100
AcDbLine
 10
6.4201640754
 20
-2.9439471401
 30
0.0
 11
6.4885872828
 21
-3.0067891163
 31
0.0
  0
LINE
  5
3A3
330
1F
100
AcDbEntity
  8
0
  6
Continuous
 62
     7
370
    25
100
AcDbLine
 10
6.3600672427
 20
-2.8932557179
 30
0.0
 11
6.4201640754
 21
-2.9439471401
 31
0.0
  0
LINE
  5
3A4
330
1F
100
AcDbEntity
  8
0
  6
Continuous
 62
     7
370
    25
100
AcDbLine
 10
6.3070032746
 20
-2.8521582942
 30
0.0
 11
6.3600672427
 21
-2.8932557179
 31
0.0
  0
LINE
  5
3A5
330
1F
100
AcDbEntity
  8
0
  6
Continuous
 62
     7
370
    25
100
AcDbLine
 10
6.2265560279
 20
-2.7971780021
 30
0.0
 11
6.3070032746
 21
-2.8521582942
 31
0.0
  0
LINE
  5
3A6
330
1F
100
AcDbEntity
  8
0
  6
Continuous
 62
     7
370
    25
100
AcDbLine
 10
6.1782057688
 20
-2.7697363675
 30
0.0
 11
6.2265560279
 21
-2.7971780021
 31
0.0
  0
LINE
  5
3A7
330
1F
100
AcDbEntity
  8
0
  6
Continuous
 62
     7
370
    25
100
AcDbLine
 10
6.1227589317
 20
-2.743489476
 30
0.0
 11
6.1782057688
 21
-2.7697363675
 31
0.0
  0
LINE
  5
3A8
330
1F
100
AcDbEntity
  8
0
  6
Continuous
 62
     7
370
    25
100
AcDbLine
 10
6.0429153267
 20
-2.6986044753
 30
0.0
 11
6.1227589317
 21
-2.743489476
 31
0.0
  0
LINE
  5
3A9
330
1F
100
AcDbEntity
  8
0
  6
Continuous
 62
     7
370
    25
100
AcDbLine
 10
5.9774928607
 20
-2.652370485
 30
0.0
 11
6.0429153267
 21
-2.6986044753
 31
0.0
  0
LINE
  5
3AA
330
1F
100
AcDbEntity
  8
0
  6
Continuous
 62
     7
370
    25
100
AcDbLine
 10
5.9264544078
 20
-2.6059125501
 30
0.0
 11
5.9774928607
 21
-2.652370485
 31
0.0
  0
LINE
  5
3AB
330
1F
100
AcDbEntity
  8
0
  6
Continuous
 62
     7
370
    25
100
AcDbLine
 10
5.9063008587
 20
-2.582955047
 30
0.0
 11
5.9264544078
 21
-2.6059125501
 31
0.0
  0
LINE
  5
3AC
330
1F
100
AcDbEntity
  8
0
  6
Continuous
 62
     7
370
    25
100
AcDbLine
 10
5.8896808488
 20
-2.5603473508
 30
0.0
 11
5.9063008587
 21
-2.582955047
 31
0.0
  0
LINE
  5
3AD
330
1F
100
AcDbEntity
  8
0
  6
Continuous
 62
     7
370
    25
100
AcDbLine
 10
5.8765901189
 20
-2.5382472187
 30
0.0
 11
5.8896808488
 21
-2.5603473508
 31
0.0
  0
LINE
  5
3AE
330
1F
100
AcDbEntity
  8
0
  6
Continuous
 62
     7
370
    25
100
AcDbLine
 10
5.8669900323
 20
-2.5167896931
 30
0.0
 11
5.8765901189
 21
-2.5382472187
 31
0.0
  0
LINE
  5
3AF
330
1F
100
AcDbEntity
  8
0
  6
Continuous
 62
     7
370
    25
100
AcDbLine
 10
5.8608456234
 20
-2.4961005126
 30
0.0
 11
5.8669900323
 21
-2.5167896931
 31
0.0
  0
LINE
  5
3B0
330
1F
100
AcDbEntity
  8
0
  6
Continuous
 62
     7
370
    25
100
AcDbLine
 10
5.8581149143
 20
-2.4763238784
 30
0.0
 11
5.8608456234
 21
-2.4961005126
 31
0.0
  0
LINE
  5
3B1
330
1F
100
AcDbEntity
  8
0
  6
Continuous
 62
     7
370
    25
100
AcDbLine
 10
5.8587629569
 20
-2.4575854307
 30
0.0
 11
5.8581149143
 21
-2.4763238784
 31
0.0
  0
LINE
  5
3B2
330
1F
100
AcDbEntity
  8
0
  6
Continuous
 62
     7
370
    25
100
AcDbLine
 10
5.8627477383
 20
-2.4400295678
 30
0.0
 11
5.8587629569
 21
-2.4575854307
 31
0.0
  0
LINE
  5
3B3
330
1F
100
AcDbEntity
  8
0
  6
Continuous
 62
     7
370
    25
100
AcDbLine
 10
5.9670481349
 20
-2.1718278553
 30
0.0
 11
5.8627477383
 21
-2.4400295678
 31
0.0
  0
LINE
  5
3B4
330
1F
100
AcDbEntity
  8
0
  6
Continuous
 62
     7
370
    25
100
AcDbLine
 10
6.0595460725
 20
-1.8993304055
 30
0.0
 11
5.9670481349
 21
-2.1718278553
 31
0.0
  0
LINE
  5
3B5
330
1F
100
AcDbEntity
  8
0
  6
Continuous
 62
     7
370
    25
100
AcDbLine
 10
6.0677782323
 20
-1.8833204783
 30
0.0
 11
6.0595460725
 21
-1.8993304055
 31
0.0
  0
LINE
  5
3B6
330
1F
100
AcDbEntity
  8
0
  6
Continuous
 62
     7
370
    25
100
AcDbLine
 10
6.0793267421
 20
-1.8685494509
 30
0.0
 11
6.0677782323
 21
-1.8833204783
 31
0.0
  0
LINE
  5
3B7
330
1F
100
AcDbEntity
  8
0
  6
Continuous
 62
     7
370
    25
100
AcDbLine
 10
6.0941306805
 20
-1.8551549351
 30
0.0
 11
6.0793267421
 21
-1.8685494509
 31
0.0
  0
LINE
  5
3B8
330
1F
100
AcDbEntity
  8
0
  6
Continuous
 62
     7
370
    25
100
AcDbLine
 10
6.1121364222
 20
-1.843255622
 30
0.0
 11
6.0941306805
 21
-1.8551549351
 31
0.0
  0
LINE
  5
3B9
330
1F
100
AcDbEntity
  8
0
  6
Continuous
 62
     7
370
    25
100
AcDbLine
 10
6.1332830457
 20
-1.8329891235
 30
0.0
 11
6.1121364222
 21
-1.843255622
 31
0.0
  0
LINE
  5
3BA
330
1F
100
AcDbEntity
  8
0
  6
Continuous
 62
     7
370
    25
100
AcDbLine
 10
6.1575168446
 20
-1.824474015
 30
0.0
 11
6.1332830457
 21
-1.8329891235
 31
0.0
  0
LINE
  5
3BB
330
1F
100
AcDbEntity
  8
0
  6
Continuous
 62
     7
370
    25
100
AcDbLine
 10
6.1847804703
 20
-1.8178385869
 30
0.0
 11
6.1575168446
 21
-1.824474015
 31
0.0
  0
LINE
  5
3BC
330
1F
100
AcDbEntity
  8
0
  6
Continuous
 62
     7
370
    25
100
AcDbLine
 10
6.2149757456
 20
-1.8132065708
 30
0.0
 11
6.1847804703
 21
-1.8178385869
 31
0.0
  0
LINE
  5
3BD
330
1F
100
AcDbEntity
  8
0
  6
Continuous
 62
     7
370
    25
100
AcDbLine
 10
6.283935986
 20
-1.810424627
 30
0.0
 11
6.2149757456
 21
-1.8132065708
 31
0.0
  0
LINE
  5
3BE
330
1F
100
AcDbEntity
  8
0
  6
Continuous
 62
     7
370
    25
100
AcDbLine
 10
6.3637712285
 20
-1.817060079
 30
0.0
 11
6.283935986
 21
-1.810424627
 31
0.0
  0
LINE
  5
3BF
330
1F
100
AcDbEntity
  8
0
  6
Continuous
 62
     7
370
    25
100
AcDbLine
 10
6.4537865188
 20
-1.8339986046
 30
0.0
 11
6.3637712285
 21
-1.817060079
 31
0.0
  0
LINE
  5
3C0
330
1F
100
AcDbEntity
  8
0
  6
Continuous
 62
     7
370
    25
100
AcDbLine
 10
6.5131324121
 20
-1.849532912
 30
0.0
 11
6.4537865188
 21
-1.8339986046
 31
0.0
  0
LINE
  5
3C1
330
1F
100
AcDbEntity
  8
0
  6
Continuous
 62
     7
370
    25
100
AcDbLine
 10
6.5678100276
 20
-1.8595903759
 30
0.0
 11
6.5131324121
 21
-1.849532912
 31
0.0
  0
LINE
  5
3C2
330
1F
100
AcDbEntity
  8
0
  6
Continuous
 62
     7
370
    25
100
AcDbLine
 10
6.6647768553
 20
-1.869183429
 30
0.0
 11
6.5678100276
 21
-1.8595903759
 31
0.0
  0
LINE
  5
3C3
330
1F
100
AcDbEntity
  8
0
  6
Continuous
 62
     7
370
    25
100
AcDbLine
 10
6.7318431659
 20
-1.8718098734
 30
0.0
 11
6.6647768553
 21
-1.869183429
 31
0.0
  0
LINE
  5
3C4
330
1F
100
AcDbEntity
  8
0
  6
Continuous
 62
     7
370
    25
100
AcDbLine
 10
6.8104637277
 20
-1.8716075166
 30
0.0
 11
6.7318431659
 21
-1.8718098734
 31
0.0
  0
LINE
  5
3C5
330
1F
100
AcDbEntity
  8
0
  6
Continuous
 62
     7
370
    25
100
AcDbLine
 10
6.9032729579
 20
-1.8674493994
 30
0.0
 11
6.8104637277
 21
-1.8716075166
 31
0.0
  0
LINE
  5
3C6
330
1F
100
AcDbEntity
  8
0
  6
Continuous
 62
     7
370
    25
100
AcDbLine
 10
7.0050177033
 20
-1.8585940567
 30
0.0
 11
6.9032729579
 21
-1.8674493994
 31
0.0
  0
LINE
  5
3C7
330
1F
100
AcDbEntity
  8
0
  6
Continuous
 62
     7
370
    25
100
AcDbLine
 10
7.1182295068
 20
-1.8439623924
 30
0.0
 11
7.0050177033
 21
-1.8585940567
 31
0.0
  0
LINE
  5
3C8
330
1F
100
AcDbEntity
  8
0
  6
Continuous
 62
     7
370
    25
100
AcDbLine
 10
7.2432036249
 20
-1.8224805633
 30
0.0
 11
7.1182295068
 21
-1.8439623924
 31
0.0
  0
LINE
  5
3C9
330
1F
100
AcDbEntity
  8
0
  6
Continuous
 62
     7
370
    25
100
AcDbLine
 10
7.3793284764
 20
-1.793138423
 30
0.0
 11
7.2432036249
 21
-1.8224805633
 31
0.0
  0
LINE
  5
3CA
330
1F
100
AcDbEntity
  8
0
  6
Continuous
 62
     7
370
    25
100
AcDbLine
 10
7.5248590263
 20
-1.7553222252
 30
0.0
 11
7.3793284764
 21
-1.793138423
 31
0.0
  0
LINE
  5
3CB
330
1F
100
AcDbEntity
  8
0
  6
Continuous
 62
     7
370
    25
100
AcDbLine
 10
7.6802523897
 20
-1.7079212729
 30
0.0
 11
7.5248590263
 21
-1.7553222252
 31
0.0
  0
LINE
  5
3CC
330
1F
100
AcDbEntity
  8
0
  6
Continuous
 62
     7
370
    25
100
AcDbLine
 10
7.8265555217
 20
-1.6567443463
 30
0.0
 11
7.6802523897
 21
-1.7079212729
 31
0.0
  0
ARC
  5
3CD
330
1F
100
AcDbEntity
  8
0
  6
Continuous
 62
     7
370
    25
100
AcDbCircle
 10
-0.000013965
 20
0.0000025
 30
0.0
 40
8.000000002646017
100
AcDbArc
 50
348.0479303789
 51
351.9520694222
  0
LINE
  5
3CE
330
1F
100
AcDbEntity
  8
0
  6
Continuous
 62
     7
370
    25
100
AcDbLine
 10
7.801219962
 20
-1.0218799631
 30
0.0
 11
7.9211964176
 21
-1.1200091592
 31
0.0
  0
LINE
  5
3CF
330
1F
100
AcDbEntity
  8
0
  6
Continuous
 62
     7
370
    25
100
AcDbLine
 10
7.6714100461
 20
-0.9241899771
 30
0.0
 11
7.801219962
 21
-1.0218799631
 31
0.0
  0
LINE
  5
3D0
330
1F
100
AcDbEntity
  8
0
  6
Continuous
 62
     7
370
    25
100
AcDbLine
 10
7.547589964
 20
-0.838879995
 30
0.0
 11
7.6714100461
 21
-0.9241899771
 31
0.0
  0
LINE
  5
3D1
330
1F
100
AcDbEntity
  8
0
  6
Continuous
 62
     7
370
    25
100
AcDbLine
 10
7.4297100488
 20
-0.7647499605
 30
0.0
 11
7.547589964
 21
-0.838879995
 31
0.0
  0
LINE
  5
3D2
330
1F
100
AcDbEntity
  8
0
  6
Continuous
 62
     7
370
    25
100
AcDbLine
 10
7.3196200108
 20
-0.701819978
 30
0.0
 11
7.4297100488
 21
-0.7647499605
 31
0.0
  0
LINE
  5
3D3
330
1F
100
AcDbEntity
  8
0
  6
Continuous
 62
     7
370
    25
100
AcDbLine
 10
7.2182400386
 20
-0.6493499934
 30
0.0
 11
7.3196200108
 21
-0.701819978
 31
0.0
  0
LINE
  5
3D4
330
1F
100
AcDbEntity
  8
0
  6
Continuous
 62
     7
370
    25
100
AcDbLine
 10
7.1256599579
 20
-0.6062299404
 30
0.0
 11
7.2182400386
 21
-0.6493499934
 31
0.0
  0
LINE
  5
3D5
330
1F
100
AcDbEntity
  8
0
  6
Continuous
 62
     7
370
    25
100
AcDbLine
 10
7.0398699692
 20
-0.5705799618
 30
0.0
 11
7.1256599579
 21
-0.6062299404
 31
0.0
  0
LINE
  5
3D6
330
1F
100
AcDbEntity
  8
0
  6
Continuous
 62
     7
370
    25
100
AcDbLine
 10
6.9660600176
 20
-0.5434999925
 30
0.0
 11
7.0398699692
 21
-0.5705799618
 31
0.0
  0
LINE
  5
3D7
330
1F
100
AcDbEntity
  8
0
  6
Continuous
 62
     7
370
    25
100
AcDbLine
 10
6.9021400036
 20
-0.5230300134
 30
0.0
 11
6.9660600176
 21
-0.5434999925
 31
0.0
  0
LINE
  5
3D8
330
1F
100
AcDbEntity
  8
0
  6
Continuous
 62
     7
370
    25
100
AcDbLine
 10
6.8077399738
 20
-0.498879926
 30
0.0
 11
6.9021400036
 21
-0.5230300134
 31
0.0
  0
LINE
  5
3D9
330
1F
100
AcDbEntity
  8
0
  6
Continuous
 62
     7
370
    25
100
AcDbLine
 10
6.7529199668
 20
-0.4896300044
 30
0.0
 11
6.8077399738
 21
-0.498879926
 31
0.0
  0
LINE
  5
3DA
330
1F
100
AcDbEntity
  8
0
  6
Continuous
 62
     7
370
    25
100
AcDbLine
 10
6.6918400229
 20
-0.4839299873
 30
0.0
 11
6.7529199668
 21
-0.4896300044
 31
0.0
  0
LINE
  5
3DB
330
1F
100
AcDbEntity
  8
0
  6
Continuous
 62
     7
370
    25
100
AcDbLine
 10
6.6014600019
 20
-0.4690599519
 30
0.0
 11
6.6918400229
 21
-0.4839299873
 31
0.0
  0
LINE
  5
3DC
330
1F
100
AcDbEntity
  8
0
  6
Continuous
 62
     7
370
    25
100
AcDbLine
 10
6.5241699555
 20
-0.4479899757
 30
0.0
 11
6.6014600019
 21
-0.4690599519
 31
0.0
  0
LINE
  5
3DD
330
1F
100
AcDbEntity
  8
0
  6
Continuous
 62
     7
370
    25
100
AcDbLine
 10
6.4603200073
 20
-0.4217900122
 30
0.0
 11
6.5241699555
 21
-0.4479899757
 31
0.0
  0
LINE
  5
3DE
330
1F
100
AcDbEntity
  8
0
  6
Continuous
 62
     7
370
    25
100
AcDbLine
 10
6.4335299729
 20
-0.4071099483
 30
0.0
 11
6.4603200073
 21
-0.4217900122
 31
0.0
  0
LINE
  5
3DF
330
1F
100
AcDbEntity
  8
0
  6
Continuous
 62
     7
370
    25
100
AcDbLine
 10
6.4101799951
 20
-0.3915499762
 30
0.0
 11
6.4335299729
 21
-0.4071099483
 31
0.0
  0
LINE
  5
3E0
330
1F
100
AcDbEntity
  8
0
  6
Continuous
 62
     7
370
    25
100
AcDbLine
 10
6.3903200118
 20
-0.3752599441
 30
0.0
 11
6.4101799951
 21
-0.3915499762
 31
0.0
  0
LINE
  5
3E1
330
1F
100
AcDbEntity
  8
0
  6
Continuous
 62
     7
370
    25
100
AcDbLine
 10
6.3739600351
 20
-0.3583800199
 30
0.0
 11
6.3903200118
 21
-0.3752599441
 31
0.0
  0
LINE
  5
3E2
330
1F
100
AcDbEntity
  8
0
  6
Continuous
 62
     7
370
    25
100
AcDbLine
 10
6.3611099773
 20
-0.3410399969
 30
0.0
 11
6.3739600351
 21
-0.3583800199
 31
0.0
  0
LINE
  5
3E3
330
1F
100
AcDbEntity
  8
0
  6
Continuous
 62
     7
370
    25
100
AcDbLine
 10
6.35178002
 20
-0.323390024
 30
0.0
 11
6.3611099773
 21
-0.3410399969
 31
0.0
  0
LINE
  5
3E4
330
1F
100
AcDbEntity
  8
0
  6
Continuous
 62
     7
370
    25
100
AcDbLine
 10
6.3459799595
 20
-0.3055599756
 30
0.0
 11
6.35178002
 21
-0.323390024
 31
0.0
  0
LINE
  5
3E5
330
1F
100
AcDbEntity
  8
0
  6
Continuous
 62
     7
370
    25
100
AcDbLine
 10
6.3437199774
 20
-0.2877000007
 30
0.0
 11
6.3459799595
 21
-0.3055599756
 31
0.0
  0
LINE
  5
3E6
330
1F
100
AcDbEntity
  8
0
  6
Continuous
 62
     7
370
    25
100
AcDbLine
 10
6.349999966
 20
0.0
 30
0.0
 11
6.3437199774
 21
-0.2877000007
 31
0.0
  0
LINE
  5
3E7
330
1F
100
AcDbEntity
  8
0
  6
Continuous
 62
     7
370
    25
100
AcDbLine
 10
6.3437200424
 20
0.2877000067
 30
0.0
 11
6.349999966
 21
0.0
 31
0.0
  0
LINE
  5
3E8
330
1F
100
AcDbEntity
  8
0
  6
Continuous
 62
     7
370
    25
100
AcDbLine
 10
6.3459800315
 20
0.3055599971
 30
0.0
 11
6.3437200424
 21
0.2877000067
 31
0.0
  0
LINE
  5
3E9
330
1F
100
AcDbEntity
  8
0
  6
Continuous
 62
     7
370
    25
100
AcDbLine
 10
6.3517799974
 20
0.3233900217
 30
0.0
 11
6.3459800315
 21
0.3055599971
 31
0.0
  0
LINE
  5
3EA
330
1F
100
AcDbEntity
  8
0
  6
Continuous
 62
     7
370
    25
100
AcDbLine
 10
6.3611100319
 20
0.3410400213
 30
0.0
 11
6.3517799974
 21
0.3233900217
 31
0.0
  0
LINE
  5
3EB
330
1F
100
AcDbEntity
  8
0
  6
Continuous
 62
     7
370
    25
100
AcDbLine
 10
6.3739600041
 20
0.3583799799
 30
0.0
 11
6.3611100319
 21
0.3410400213
 31
0.0
  0
LINE
  5
3EC
330
1F
100
AcDbEntity
  8
0
  6
Continuous
 62
     7
370
    25
100
AcDbLine
 10
6.3903200407
 20
0.3752600353
 30
0.0
 11
6.3739600041
 21
0.3583799799
 31
0.0
  0
LINE
  5
3ED
330
1F
100
AcDbEntity
  8
0
  6
Continuous
 62
     7
370
    25
100
AcDbLine
 10
6.4101799933
 20
0.391550073
 30
0.0
 11
6.3903200407
 21
0.3752600353
 31
0.0
  0
LINE
  5
3EE
330
1F
100
AcDbEntity
  8
0
  6
Continuous
 62
     7
370
    25
100
AcDbLine
 10
6.4335299816
 20
0.4071099799
 30
0.0
 11
6.4101799933
 21
0.391550073
 31
0.0
  0
LINE
  5
3EF
330
1F
100
AcDbEntity
  8
0
  6
Continuous
 62
     7
370
    25
100
AcDbLine
 10
6.4603200515
 20
0.4217900564
 30
0.0
 11
6.4335299816
 21
0.4071099799
 31
0.0
  0
LINE
  5
3F0
330
1F
100
AcDbEntity
  8
0
  6
Continuous
 62
     7
370
    25
100
AcDbLine
 10
6.5241700588
 20
0.4479900557
 30
0.0
 11
6.4603200515
 21
0.4217900564
 31
0.0
  0
LINE
  5
3F1
330
1F
100
AcDbEntity
  8
0
  6
Continuous
 62
     7
370
    25
100
AcDbLine
 10
6.6014600233
 20
0.4690599937
 30
0.0
 11
6.5241700588
 21
0.4479900557
 31
0.0
  0
LINE
  5
3F2
330
1F
100
AcDbEntity
  8
0
  6
Continuous
 62
     7
370
    25
100
AcDbLine
 10
6.6918400443
 20
0.483929976
 30
0.0
 11
6.6014600233
 21
0.4690599937
 31
0.0
  0
LINE
  5
3F3
330
1F
100
AcDbEntity
  8
0
  6
Continuous
 62
     7
370
    25
100
AcDbLine
 10
6.7529199935
 20
0.4896300509
 30
0.0
 11
6.6918400443
 21
0.483929976
 31
0.0
  0
LINE
  5
3F4
330
1F
100
AcDbEntity
  8
0
  6
Continuous
 62
     7
370
    25
100
AcDbLine
 10
6.8077399671
 20
0.4988799896
 30
0.0
 11
6.7529199935
 21
0.4896300509
 31
0.0
  0
LINE
  5
3F5
330
1F
100
AcDbEntity
  8
0
  6
Continuous
 62
     7
370
    25
100
AcDbLine
 10
6.9021400187
 20
0.5230299852
 30
0.0
 11
6.8077399671
 21
0.4988799896
 31
0.0
  0
LINE
  5
3F6
330
1F
100
AcDbEntity
  8
0
  6
Continuous
 62
     7
370
    25
100
AcDbLine
 10
6.9660599847
 20
0.5434999847
 30
0.0
 11
6.9021400187
 21
0.5230299852
 31
0.0
  0
LINE
  5
3F7
330
1F
100
AcDbEntity
  8
0
  6
Continuous
 62
     7
370
    25
100
AcDbLine
 10
7.0398700225
 20
0.5705800124
 30
0.0
 11
6.9660599847
 21
0.5434999847
 31
0.0
  0
LINE
  5
3F8
330
1F
100
AcDbEntity
  8
0
  6
Continuous
 62
     7
370
    25
100
AcDbLine
 10
7.1256600275
 20
0.6062300382
 30
0.0
 11
7.0398700225
 21
0.5705800124
 31
0.0
  0
LINE
  5
3F9
330
1F
100
AcDbEntity
  8
0
  6
Continuous
 62
     7
370
    25
100
AcDbLine
 10
7.2182400249
 20
0.6493499789
 30
0.0
 11
7.1256600275
 21
0.6062300382
 31
0.0
  0
LINE
  5
3FA
330
1F
100
AcDbEntity
  8
0
  6
Continuous
 62
     7
370
    25
100
AcDbLine
 10
7.3196200494
 20
0.7018200606
 30
0.0
 11
7.2182400249
 21
0.6493499789
 31
0.0
  0
LINE
  5
3FB
330
1F
100
AcDbEntity
  8
0
  6
Continuous
 62
     7
370
    25
100
AcDbLine
 10
7.4297100299
 20
0.7647499827
 30
0.0
 11
7.3196200494
 21
0.7018200606
 31
0.0
  0
LINE
  5
3FC
330
1F
100
AcDbEntity
  8
0
  6
Continuous
 62
     7
370
    25
100
AcDbLine
 10
7.5475900408
 20
0.8388800354
 30
0.0
 11
7.4297100299
 21
0.7647499827
 31
0.0
  0
LINE
  5
3FD
330
1F
100
AcDbEntity
  8
0
  6
Continuous
 62
     7
370
    25
100
AcDbLine
 10
7.6714099604
 20
0.9241899814
 30
0.0
 11
7.5475900408
 21
0.8388800354
 31
0.0
  0
LINE
  5
3FE
330
1F
100
AcDbEntity
  8
0
  6
Continuous
 62
     7
370
    25
100
AcDbLine
 10
7.8012199671
 20
1.0218800415
 30
0.0
 11
7.6714099604
 21
0.9241899814
 31
0.0
  0
MTEXT
  5
400
330
1F
100
AcDbEntity
  8
0
  6
Continuous
 62
     7
100
AcDbMText
 10
-7.9211963878
 20
-9.0195522456
 30
0.0
 40
4.83362
 41
0.0
 71
     1
 72
     1
  1
SOLIDWORKS Educational Product.
  7
SLDTEXTSTYLE0
 73
     1
 44
1.0
  0
MTEXT
  5
401
330
1F
100
AcDbEntity
  8
0
  6
Continuous
 62
     7
100
AcDbMText
 10
-7.9211963878
 20
-16.2699822456
 30
0.0
 40
4.83362
 41
0.0
 71
     1
 72
     1
  1
For Instructional Use Only.
  7
SLDTEXTSTYLE0
 73
     1
 44
1.0
  0
ENDSEC
  0
SECTION
  2
OBJECTS
  0
DICTIONARY
  5
C
330
0
100
AcDbDictionary
281
     1
  3
ACAD_GROUP
350
D
  3
ACAD_LAYOUT
350
1A
  3
ACAD_MLINESTYLE
350
17
  3
ACAD_PLOTSETTINGS
350
19
  3
ACAD_PLOTSTYLENAME
350
E
  3
ACAD_SCALELIST
350
47
  3
DWGPROPS
350
402
  0
DICTIONARY
  5
D
102
{ACAD_REACTORS
330
C
102
}
330
C
100
AcDbDictionary
281
     1
  0
DICTIONARY
  5
1A
102
{ACAD_REACTORS
330
C
102
}
330
C
100
AcDbDictionary
281
     1
  3
Layout1
350
1E
  3
Layout2
350
26
  3
Model
350
22
  0
DICTIONARY
  5
17
102
{ACAD_REACTORS
330
C
102
}
330
C
100
AcDbDictionary
281
     1
  3
Standard
350
18
  0
DICTIONARY
  5
19
102
{ACAD_REACTORS
330
C
102
}
330
C
100
AcDbDictionary
281
     1
  0
ACDBDICTIONARYWDFLT
  5
E
102
{ACAD_REACTORS
330
C
102
}
330
C
100
AcDbDictionary
281
     1
  3
Normal
350
F
100
AcDbDictionaryWithDefault
340
F
  0
DICTIONARY
  5
47
102
{ACAD_REACTORS
330
C
102
}
330
C
100
AcDbDictionary
281
     1
  3
A0
350
48
  3
A1
350
49
  3
A2
350
4A
  3
A3
350
4B
  3
A4
350
4C
  3
A5
350
4D
  3
A6
350
4E
  3
A7
350
4F
  3
A8
350
50
  3
A9
350
51
  3
B0
350
52
  3
B1
350
53
  3
B2
350
54
  3
B3
350
55
  3
B4
350
56
  3
B5
350
57
  3
B6
350
58
  0
XRECORD
  5
402
102
{ACAD_REACTORS
330
C
102
}
330
C
100
AcDbXrecord
280
     1
  1
DWGPROPS COOKIE
  2

  3

  4

  6

  7

  8
cdgraham
  9

300
=
301
=
302
=
303
=
304
=
305
=
306
=
307
=
308
=
309
=
 40
0.0
 41
2460254.146821123
 42
2460254.146847199
  1

 90
        0
  0
LAYOUT
  5
1E
102
{ACAD_REACTORS
330
1A
102
}
330
1A
100
AcDbPlotSettings
  1

  2
none_device
  4

  6

 40
0.0
 41
0.0
 42
0.0
 43
0.0
 44
0.0
 45
0.0
 46
0.0
 47
0.0
 48
0.0
 49
0.0
140
0.0
141
0.0
142
1.0
143
1.0
 70
   688
 72
     1
 73
     0
 74
     5
  7

 75
    16
147
1.0
148
0.0
149
0.0
100
AcDbLayout
  1
Layout1
 70
     1
 71
     1
 10
0.0
 20
0.0
 11
420.0
 21
297.0
 12
0.0
 22
0.0
 32
0.0
 14
1.0000000000E+20
 24
1.0000000000E+20
 34
1.0000000000E+20
 15
-1.0000000000E+20
 25
-1.0000000000E+20
 35
-1.0000000000E+20
146
0.0
 13
0.0
 23
0.0
 33
0.0
 16
1.0
 26
0.0
 36
0.0
 17
0.0
 27
1.0
 37
0.0
 76
     0
330
1B
  0
LAYOUT
  5
26
102
{ACAD_REACTORS
330
1A
102
}
330
1A
100
AcDbPlotSettings
  1

  2
none_device
  4

  6

 40
0.0
 41
0.0
 42
0.0
 43
0.0
 44
0.0
 45
0.0
 46
0.0
 47
0.0
 48
0.0
 49
0.0
140
0.0
141
0.0
142
1.0
143
1.0
 70
   688
 72
     1
 73
     0
 74
     5
  7

 75
    16
147
1.0
148
0.0
149
0.0
100
AcDbLayout
  1
Layout2
 70
     1
 71
     2
 10
0.0
 20
0.0
 11
0.0
 21
0.0
 12
0.0
 22
0.0
 32
0.0
 14
0.0
 24
0.0
 34
0.0
 15
0.0
 25
0.0
 35
0.0
146
0.0
 13
0.0
 23
0.0
 33
0.0
 16
1.0
 26
0.0
 36
0.0
 17
0.0
 27
1.0
 37
0.0
 76
     0
330
23
  0
LAYOUT
  5
22
102
{ACAD_REACTORS
330
1A
102
}
330
1A
100
AcDbPlotSettings
  1

  2
none_device
  4
ANSI_A_(11.00_x_8.50_Inches)
  6

 40
6.35
 41
19.05
 42
6.35000508
 43
19.05000254
 44
279.4
 45
215.9
 46
133.3499972608
 47
88.8999985167
 48
0.0
 49
0.0
140
0.0
141
0.0
142
0.5259384289
143
1.0
 70
  1696
 72
     0
 73
     0
 74
     0
  7

 75
     0
147
0.0179189148
148
-1300.4909072572
149
0.0
100
AcDbLayout
  1
Model
 70
     1
 71
     0
 10
0.0
 20
0.0
 11
420.0
 21
297.0
 12
0.0
 22
0.0
 32
0.0
 14
-7.9211963878
 24
-7.999985854
 34
0.0
 15
7.9211964176
 25
7.9999858859
 35
0.0
146
0.0
 13
0.0
 23
0.0
 33
0.0
 16
1.0
 26
0.0
 36
0.0
 17
0.0
 27
1.0
 37
0.0
 76
     0
330
1F
331
29
  0
MLINESTYLE
  5
18
102
{ACAD_REACTORS
330
17
102
}
330
17
100
AcDbMlineStyle
  2
Standard
 70
     0
  3

 62
   256
 51
90.0
 52
90.0
 71
     2
 49
0.5
 62
   256
  6
BYLAYER
 49
-0.5
 62
   256
  6
BYLAYER
  0
ACDBPLACEHOLDER
  5
F
102
{ACAD_REACTORS
330
E
102
}
330
E
  0
SCALE
  5
48
102
{ACAD_REACTORS
330
47
102
}
330
47
100
AcDbScale
 70
     0
300
1:1
140
1.0
141
1.0
290
     1
  0
SCALE
  5
49
102
{ACAD_REACTORS
330
47
102
}
330
47
100
AcDbScale
 70
     0
300
1:2
140
1.0
141
2.0
290
     0
  0
SCALE
  5
4A
102
{ACAD_REACTORS
330
47
102
}
330
47
100
AcDbScale
 70
     0
300
1:4
140
1.0
141
4.0
290
     0
  0
SCALE
  5
4B
102
{ACAD_REACTORS
330
47
102
}
330
47
100
AcDbScale
 70
     0
300
1:5
140
1.0
141
5.0
290
     0
  0
SCALE
  5
4C
102
{ACAD_REACTORS
330
47
102
}
330
47
100
AcDbScale
 70
     0
300
1:8
140
1.0
141
8.0
290
     0
  0
SCALE
  5
4D
102
{ACAD_REACTORS
330
47
102
}
330
47
100
AcDbScale
 70
     0
300
1:10
140
1.0
141
10.0
290
     0
  0
SCALE
  5
4E
102
{ACAD_REACTORS
330
47
102
}
330
47
100
AcDbScale
 70
     0
300
1:16
140
1.0
141
16.0
290
     0
  0
SCALE
  5
4F
102
{ACAD_REACTORS
330
47
102
}
330
47
100
AcDbScale
 70
     0
300
1:20
140
1.0
141
20.0
290
     0
  0
SCALE
  5
50
102
{ACAD_REACTORS
330
47
102
}
330
47
100
AcDbScale
 70
     0
300
1:30
140
1.0
141
30.0
290
     0
  0
SCALE
  5
51
102
{ACAD_REACTORS
330
47
102
}
330
47
100
AcDbScale
 70
     0
300
1:40
140
1.0
141
40.0
290
     0
  0
SCALE
  5
52
102
{ACAD_REACTORS
330
47
102
}
330
47
100
AcDbScale
 70
     0
300
1:50
140
1.0
141
50.0
290
     0
  0
SCALE
  5
53
102
{ACAD_REACTORS
330
47
102
}
330
47
100
AcDbScale
 70
     0
300
1:100
140
1.0
141
100.0
290
     0
  0
SCALE
  5
54
102
{ACAD_REACTORS
330
47
102
}
330
47
100
AcDbScale
 70
     0
300
2:1
140
2.0
141
1.0
290
     0
  0
SCALE
  5
55
102
{ACAD_REACTORS
330
47
102
}
330
47
100
AcDbScale
 70
     0
300
4:1
140
4.0
141
1.0
290
     0
  0
SCALE
  5
56
102
{ACAD_REACTORS
330
47
102
}
330
47
100
AcDbScale
 70
     0
300
8:1
140
8.0
141
1.0
290
     0
  0
SCALE
  5
57
102
{ACAD_REACTORS
330
47
102
}
330
47
100
AcDbScale
 70
     0
300
10:1
140
10.0
141
1.0
290
     0
  0
SCALE
  5
58
102
{ACAD_REACTORS
330
47
102
}
330
47
100
AcDbScale
 70
     0
300
100:1
140
100.0
141
1.0
290
     0
  0
ENDSEC
  0
EOF
