0
SECTION
2
HEADER
9
$INSUNITS
70
1
9
$ACADVER
1
AC1014
9
$HANDSEED
5
FFFF
0
ENDSEC
0
SECTION
2
TABLES
0
TABLE
2
VPORT
5
8
100
AcDbSymbolTable
0
ENDTAB
0
TABLE
2
LTYPE
5
5
100
AcDbSymbolTable
0
LTYPE
5
14
100
AcDbSymbolTableRecord
100
AcDbLinetypeTableRecord
2
BYBLOCK
70
0
0
LTYPE
5
15
100
AcDbSymbolTableRecord
100
AcDbLinetypeTableRecord
2
BYLAYER
70
0
0
ENDTAB
0
TABLE
2
LAYER
5
2
100
AcDbSymbolTable
70
2
0
LAYER
5
50
100
AcDbSymbolTableRecord
100
AcDbLayerTableRecord
2
0
70
0
6
CONTINUOUS
0
ENDTAB
0
TABLE
2
STYLE
5
3
100
AcDbSymbolTable
70
1
0
STYLE
5
11
100
AcDbSymbolTableRecord
100
AcDbTextStyleTableRecord
2
STANDARD
70
0
0
ENDTAB
0
TABLE
2
VIEW
5
6
100
AcDbSymbolTable
70
0
0
ENDTAB
0
TABLE
2
UCS
5
7
100
AcDbSymbolTable
70
0
0
ENDTAB
0
TABLE
2
APPID
5
9
100
AcDbSymbolTable
70
2
0
APPID
5
12
100
AcDbSymbolTableRecord
100
AcDbRegAppTableRecord
2
ACAD
70
0
0
ENDTAB
0
TABLE
2
DIMSTYLE
5
A
100
AcDbSymbolTable
70
1
0
ENDTAB
0
TABLE
2
BLOCK_RECORD
5
1
100
AcDbSymbolTable
70
1
0
BLOCK_RECORD
5
1F
100
AcDbSymbolTableRecord
100
AcDbBlockTableRecord
2
*MODEL_SPACE
0
BLOCK_RECORD
5
1B
100
AcDbSymbolTableRecord
100
AcDbBlockTableRecord
2
*PAPER_SPACE
0
ENDTAB
0
ENDSEC
0
SECTION
2
BLOCKS
0
BLOCK
5
20
100
AcDbEntity
100
AcDbBlockBegin
2
*MODEL_SPACE
0
ENDBLK
5
21
100
AcDbEntity
100
AcDbBlockEnd
0
BLOCK
5
1C
100
AcDbEntity
100
AcDbBlockBegin
2
*PAPER_SPACE
0
ENDBLK
5
1D
100
AcDbEntity
100
AcDbBlockEnd
0
ENDSEC
0
SECTION
2
ENTITIES
0
CIRCLE
5
100
100
AcDbEntity
8
0
100
AcDbCircle
10
0.28124999999999972
20
-0.48713928962874686
30
0
40
0.084999999999999978
210
0
220
0
230
1
0
CIRCLE
5
101
100
AcDbEntity
8
0
100
AcDbCircle
10
-0.28124999999999978
20
0.48713928962874681
30
0
40
0.084999999999999978
210
0
220
0
230
1
0
CIRCLE
5
102
100
AcDbEntity
8
0
100
AcDbCircle
10
0.56249999999999989
20
-4.808142837972743e-16
30
0
40
0.084999999999999978
210
0
220
0
230
1
0
CIRCLE
5
103
100
AcDbEntity
8
0
100
AcDbCircle
10
-0.28125000000000017
20
-0.48713928962874642
30
0
40
0.084999999999999978
210
0
220
0
230
1
0
LWPOLYLINE
5
104
100
AcDbEntity
8
0
100
AcDbPolyline
90
36
70
1
43
0.0
10
-0.47584383199914299
20
0.11154931173238225
10
-0.55779797876107629
20
0.15886556042659056
42
-0.99999999999999989
10
-0.41648060049641678
20
0.40363443957341005
10
-0.3345264537344837
20
0.35631819087920158
42
0.27212390124430214
10
-0.21374468323272952
20
0.35725812773803994
42
-0.0077821086322930394
10
-0.20252227271326084
20
0.36373738947242579
42
0.27212390124433655
10
-0.1413173782646594
20
0.46786750261158311
10
-0.1413173782646592
20
0.56249999999999989
42
-0.99999999999999989
10
0.1413173782646592
20
0.56249999999999989
10
0.14131737826465923
20
0.4678675026115835
42
0.27212390124429486
10
0.20252227271323994
20
0.36373738947242484
42
-0.0077821086323135794
10
0.21374468323273835
20
0.35725812773804838
42
0.27212390124430086
10
0.3345264537344837
20
0.35631819087920136
10
0.4164806004964175
20
0.40363443957340978
42
-0.99999999999999989
10
0.55779797876107629
20
0.15886556042658995
10
0.47584383199914315
20
0.11154931173238176
42
0.27212390124429453
10
0.41626695594598667
20
0.0064792617343877035
42
-0.0077821086323269029
10
0.41626695594598501
20
-0.006479261734400785
42
0.27212390124426572
10
0.47584383199914287
20
-0.11154931173238206
10
0.55779797876107617
20
-0.15886556042659053
42
-0.99999999999999989
10
0.41648060049641689
20
-0.40363443957340989
10
0.3345264537344837
20
-0.35631819087920164
42
0.27212390124429897
10
0.21374468323274512
20
-0.35725812773805865
42
-0.0077821086323206856
10
0.20252227271323339
20
-0.363737389472441
42
0.27212390124426628
10
0.14131737826465932
20
-0.46786750261158339
10
0.14131737826465926
20
-0.56249999999999978
42
-0.99999999999999989
10
-0.14131737826465926
20
-0.56249999999999989
10
-0.14131737826465926
20
-0.46786750261158339
42
0.2721239012443013
10
-0.2025222727132544
20
-0.36373738947244144
42
-0.007782108632301144
10
-0.21374468323273779
20
-0.35725812773804877
42
0.27212390124430291
10
-0.33452645373448392
20
-0.3563181908792013
10
-0.4164806030754763
20
-0.40363444106243024
42
-0.99999998946328783
10
-0.55779797876107629
20
-0.15886556042659011
10
-0.47584383199914315
20
-0.11154931173238185
42
0.27212390124429503
10
-0.4162669559459839
20
-0.0064792617343878795
42
-0.0077821086322921512
10
-0.41626695594598545
20
0.0064792617343690838
42
0.27212390124433761
0
CIRCLE
5
105
100
AcDbEntity
8
0
100
AcDbCircle
10
0.28125000000000056
20
0.48713928962874636
30
0
40
0.084999999999999978
210
0
220
0
230
1
0
CIRCLE
5
106
100
AcDbEntity
8
0
100
AcDbCircle
10
-0.56249999999999989
20
2.622391258241967e-16
30
0
40
0.084999999999999978
210
0
220
0
230
1
0
LWPOLYLINE
5
107
100
AcDbEntity
8
0
100
AcDbPolyline
90
14
70
1
43
0.0
10
1.0000000000000013
20
0.26600768082689102
42
0.095414572399758979
10
0.82024976523210824
20
1.199375586919734
10
0.14242275723980502
20
2.8939431069004913
42
0.30667844155888602
10
-0.3834850100114236
20
3.25
10
-1.5
20
3.2499999999999996
10
-1.2500000000000009
20
2.2499999999999996
42
-0.26593337590520211
10
-1.0000000000000002
20
1.8131991300374957
10
-1.0000000000000002
20
-0.26600768082688842
42
0.095414572399758896
10
-0.82024976523210724
20
-1.199375586919732
10
-0.14242275723980366
20
-2.8939431069004908
42
0.30667844155888591
10
0.38348501001142493
20
-3.2499999999999996
10
1.4999999999999998
20
-3.2499999999999996
10
1.2500000000000002
20
-2.2499999999999996
42
-0.26593337590520177
10
0.99999999999999978
20
-1.8131991300374957
0
ENDSEC
0
SECTION
2
OBJECTS
0
DICTIONARY
5
C
100
AcDbDictionary
3
ACAD_GROUP
350
D
3
ACAD_MLINESTYLE
350
17
0
DICTIONARY
5
D
100
AcDbDictionary
0
DICTIONARY
5
1A
330
C
100
AcDbDictionary
0
DICTIONARY
5
17
100
AcDbDictionary
0
ENDSEC
0
EOF
