<?xml version="1.0" encoding="UTF-8"?>
<svg id="Layer_2" data-name="Layer 2" xmlns="http://www.w3.org/2000/svg" viewBox="0 0 592.2 772.2">
  <defs>
    <style>
      .cls-1 {
        letter-spacing: -.08em;
      }

      .cls-2 {
        letter-spacing: -.04em;
      }

      .cls-3 {
        font-size: 60px;
      }

      .cls-3, .cls-4, .cls-5, .cls-6, .cls-7, .cls-8 {
        fill: #231f20;
        font-family: Funkrocker, Funkrocker;
      }

      .cls-9 {
        fill: none;
        stroke: #231f20;
        stroke-miterlimit: 10;
        stroke-width: 7.2px;
      }

      .cls-10 {
        letter-spacing: -.04em;
      }

      .cls-11 {
        letter-spacing: -.03em;
      }

      .cls-12 {
        letter-spacing: 0em;
      }

      .cls-4 {
        font-size: 68px;
      }

      .cls-13 {
        letter-spacing: -.07em;
      }

      .cls-14 {
        letter-spacing: -.12em;
      }

      .cls-5 {
        font-size: 34.57px;
      }

      .cls-6 {
        font-size: 36px;
      }

      .cls-15 {
        fill: #facb18;
      }

      .cls-15, .cls-16 {
        stroke-width: 0px;
      }

      .cls-17 {
        letter-spacing: -.07em;
      }

      .cls-18 {
        letter-spacing: -.03em;
      }

      .cls-19 {
        letter-spacing: -.03em;
      }

      .cls-7 {
        font-size: 125px;
      }

      .cls-20 {
        letter-spacing: -.2em;
      }

      .cls-21 {
        letter-spacing: -.03em;
      }

      .cls-16 {
        fill: #a7a9ac;
      }

      .cls-22 {
        letter-spacing: -.1em;
      }

      .cls-23 {
        letter-spacing: -.03em;
      }

      .cls-8 {
        font-size: 72px;
      }
    </style>
  </defs>
  <g id="Layer_1-2" data-name="Layer 1">
    <g>
      <g>
        <rect class="cls-15" x="4.5" y="4.5" width="583.2" height="763.2"/>
        <g>
          <g>
            <rect class="cls-16" x="5.85" y="17.1" width="540" height="108" rx="12" ry="12"/>
            <rect class="cls-16" x="46.35" y="143.1" width="540" height="108" rx="12" ry="12"/>
            <text class="cls-3" transform="translate(252.75 155.27)"><tspan class="cls-17" x="0" y="0">V</tspan><tspan x="42.92" y="0">S</tspan></text>
            <text class="cls-4" transform="translate(160.64 92.16)"><tspan x="0" y="0">HoneySpark</tspan></text>
          </g>
          <g>
            <rect class="cls-16" x="5.85" y="269.1" width="540" height="108" rx="12" ry="12"/>
            <rect class="cls-16" x="46.35" y="395.1" width="540" height="108" rx="12" ry="12"/>
            <text class="cls-3" transform="translate(252.75 407.27)"><tspan class="cls-17" x="0" y="0">V</tspan><tspan x="42.92" y="0">S</tspan></text>
            <text class="cls-8" transform="translate(157.99 344.16)"><tspan x="0" y="0">BumbleB</tspan><tspan class="cls-12" x="261.14" y="0">l</tspan><tspan x="274.29" y="0">i</tspan><tspan class="cls-10" x="287.72" y="0">t</tspan><tspan x="313.94" y="0">z</tspan></text>
          </g>
          <g>
            <rect class="cls-16" x="5.85" y="521.1" width="540" height="108" rx="12" ry="12"/>
            <rect class="cls-16" x="46.35" y="647.1" width="540" height="108" rx="12" ry="12"/>
            <text class="cls-3" transform="translate(252.75 659.27)"><tspan class="cls-17" x="0" y="0">V</tspan><tspan x="42.92" y="0">S</tspan></text>
            <text class="cls-8" transform="translate(188.66 596.16)"><tspan x="0" y="0">Bee</tspan><tspan class="cls-1" x="120.73" y="0">F</tspan><tspan x="146.85" y="0">or</tspan><tspan class="cls-13" x="210.06" y="0">c</tspan><tspan x="240.82" y="0">e</tspan></text>
          </g>
        </g>
        <rect class="cls-9" x="3.6" y="3.6" width="585" height="765" rx="12" ry="12"/>
        <g>
          <text class="cls-6" transform="translate(87.19 206.54)"><tspan x="0" y="0">Be</tspan><tspan class="cls-18" x="39.73" y="0">e</tspan><tspan x="59.33" y="0">tleJui</tspan><tspan class="cls-13" x="137.81" y="0">c</tspan><tspan x="153.19" y="0">e</tspan></text>
          <text class="cls-6" transform="translate(290.69 190.54)"><tspan x="0" y="0">Chubby </tspan><tspan x="0" y="32">Uni</tspan><tspan class="cls-13" x="44.82" y="32">c</tspan><tspan x="60.21" y="32">orn</tspan></text>
          <text class="cls-6" transform="translate(434.43 207.21)"><tspan class="cls-22" x="0" y="0">K</tspan><tspan x="18.65" y="0">amino</tspan></text>
        </g>
        <g>
          <text class="cls-6" transform="translate(107.94 442.54)"><tspan x="0" y="0">Timber</tspan><tspan x="0" y="32">Viper</tspan></text>
          <text class="cls-6" transform="translate(271.68 442.54)"><tspan x="0" y="0">Grim</tspan><tspan x="0" y="32">Ripper</tspan></text>
          <text class="cls-6" transform="translate(435.36 443.94)"><tspan class="cls-14" x="0" y="0">Y</tspan><tspan x="18.58" y="0">OB</tspan><tspan x="0" y="32">GNOL</tspan></text>
        </g>
        <g>
          <text class="cls-5" transform="translate(56.62 694.8)"><tspan class="cls-2" x="0" y="0">C</tspan><tspan x="19.72" y="0">ol</tspan><tspan class="cls-23" x="46.59" y="0">o</tspan><tspan x="66.24" y="0">ssal</tspan><tspan class="cls-20" x="0" y="30.73">A</tspan><tspan x="20.48" y="30.73">vian</tspan></text>
          <text class="cls-5" transform="translate(211.81 696.14)"><tspan x="0" y="0">Knock </tspan><tspan class="cls-19" x="100.85" y="0">O</tspan><tspan class="cls-21" x="126.1" y="0">f</tspan><tspan x="137.75" y="0">f</tspan><tspan x="0" y="30.73">White</tspan></text>
          <text class="cls-5" transform="translate(402.54 710.16)"><tspan x="0" y="0">Synth</tspan><tspan class="cls-11" x="81.11" y="0">e</tspan><tspan x="99.94" y="0">sis 30</tspan></text>
        </g>
      </g>
      <text class="cls-7" transform="translate(33.66 116.21)"><tspan x="0" y="0">3</tspan></text>
      <text class="cls-7" transform="translate(25.63 366.1)"><tspan x="0" y="0">12</tspan></text>
      <text class="cls-7" transform="translate(12.02 619.21)"><tspan x="0" y="0">30</tspan></text>
    </g>
  </g>
</svg>