0
SECTION
2
HEADER
9
$INSUNITS
70
1
9
$ACADVER
1
AC1014
9
$HANDSEED
5
FFFF
0
ENDSEC
0
SECTION
2
TABLES
0
TABLE
2
VPORT
5
8
100
AcDbSymbolTable
0
ENDTAB
0
TABLE
2
LTYPE
5
5
100
AcDbSymbolTable
0
LTYPE
5
14
100
AcDbSymbolTableRecord
100
AcDbLinetypeTableRecord
2
BYBLOCK
70
0
0
LTYPE
5
15
100
AcDbSymbolTableRecord
100
AcDbLinetypeTableRecord
2
BYLAYER
70
0
0
ENDTAB
0
TABLE
2
LAYER
5
2
100
AcDbSymbolTable
70
2
0
LAYER
5
50
100
AcDbSymbolTableRecord
100
AcDbLayerTableRecord
2
0
70
0
6
CONTINUOUS
0
ENDTAB
0
TABLE
2
STYLE
5
3
100
AcDbSymbolTable
70
1
0
STYLE
5
11
100
AcDbSymbolTableRecord
100
AcDbTextStyleTableRecord
2
STANDARD
70
0
0
ENDTAB
0
TABLE
2
VIEW
5
6
100
AcDbSymbolTable
70
0
0
ENDTAB
0
TABLE
2
UCS
5
7
100
AcDbSymbolTable
70
0
0
ENDTAB
0
TABLE
2
APPID
5
9
100
AcDbSymbolTable
70
2
0
APPID
5
12
100
AcDbSymbolTableRecord
100
AcDbRegAppTableRecord
2
ACAD
70
0
0
ENDTAB
0
TABLE
2
DIMSTYLE
5
A
100
AcDbSymbolTable
70
1
0
ENDTAB
0
TABLE
2
BLOCK_RECORD
5
1
100
AcDbSymbolTable
70
1
0
BLOCK_RECORD
5
1F
100
AcDbSymbolTableRecord
100
AcDbBlockTableRecord
2
*MODEL_SPACE
0
BLOCK_RECORD
5
1B
100
AcDbSymbolTableRecord
100
AcDbBlockTableRecord
2
*PAPER_SPACE
0
ENDTAB
0
ENDSEC
0
SECTION
2
BLOCKS
0
BLOCK
5
20
100
AcDbEntity
100
AcDbBlockBegin
2
*MODEL_SPACE
0
ENDBLK
5
21
100
AcDbEntity
100
AcDbBlockEnd
0
BLOCK
5
1C
100
AcDbEntity
100
AcDbBlockBegin
2
*PAPER_SPACE
0
ENDBLK
5
1D
100
AcDbEntity
100
AcDbBlockEnd
0
ENDSEC
0
SECTION
2
ENTITIES
0
CIRCLE
5
100
100
AcDbEntity
8
0
100
AcDbCircle
10
-2.3476601099299921
20
1.3539070112046003
30
0
40
0.079499999999999973
210
0
220
-0
230
1
0
CIRCLE
5
101
100
AcDbEntity
8
0
100
AcDbCircle
10
-3.0712781079912794
20
1.6360985411231019
30
0
40
0.079499999999999973
210
0
220
-0
230
1
0
LWPOLYLINE
5
102
100
AcDbEntity
8
0
100
AcDbPolyline
90
4
70
1
43
0.0
10
0.52387076777472519
20
-0.099058568965052191
10
0.37387076699371657
20
0.00094143155562034569
42
-0.9999999925494194
10
0.44375425706294302
20
0.10576666496727455
10
0.59375425628193435
20
0.0057666654879471261
42
-1.0000000074505806
0
LWPOLYLINE
5
103
100
AcDbEntity
8
0
100
AcDbPolyline
90
4
70
1
43
0.0
10
0.57053458799161205
20
-0.71541743523882806
10
0.42053458799161231
20
-0.61541743523882808
42
-0.99999999999999989
10
0.49041807727983028
20
-0.51059220130650129
10
0.64041807806083895
20
-0.61059220182717378
42
-0.9999999925494194
0
LWPOLYLINE
5
104
100
AcDbEntity
8
0
100
AcDbPolyline
90
4
70
1
43
0.0
10
-0.082478290539012483
20
0.021010509625449168
10
-0.23247829053901256
20
0.1210105096254491
42
-0.99999999999999989
10
-0.16259480125079478
20
0.225835743557776
10
-0.012594801250794716
20
0.12583574355777602
42
-0.99999999999999989
0
LWPOLYLINE
5
105
100
AcDbEntity
8
0
100
AcDbPolyline
90
4
70
1
43
0.0
10
-0.035814470322125778
20
-0.59534835664832664
10
-0.18581447142663896
20
-0.49534835591198445
42
-0.99999998946328783
10
-0.11593098103390771
20
-0.39052312271599987
10
0.034069018966092171
20
-0.4905231227159999
42
-0.99999999999999989
0
CIRCLE
5
106
100
AcDbEntity
8
0
100
AcDbCircle
10
-3.0000001077107572
20
0.75000004787145558
30
0
40
0.25149999999999978
210
0
220
-0
230
1
0
CIRCLE
5
107
100
AcDbEntity
8
0
100
AcDbCircle
10
-1.2031250809326619
20
-1.312499962812363
30
0
40
0.099750000000000186
210
-0
220
0
230
1
0
CIRCLE
5
108
100
AcDbEntity
8
0
100
AcDbCircle
10
-0.64062508093266302
20
-1.3124999713394643
30
0
40
0.099750000000000019
210
-3.0814879110195774e-33
220
-9.1097524117498059e-68
230
1
0
CIRCLE
5
109
100
AcDbEntity
8
0
100
AcDbCircle
10
-0.078125080932664445
20
-1.3124999798665655
30
0
40
0.099750000000000019
210
-3.0814879110195774e-33
220
-5.9451932850870359e-68
230
1
0
CIRCLE
5
110
100
AcDbEntity
8
0
100
AcDbCircle
10
0.48437491906733438
20
-1.3124999883936666
30
0
40
0.099750000000000102
210
-0
220
0
230
1
0
LWPOLYLINE
5
111
100
AcDbEntity
8
0
100
AcDbPolyline
90
21
70
1
43
0.0
10
1.2499999934365975
20
-0.36332147248623359
10
0.29304070152655098
20
0.92690065688337087
10
-2.6735002121699516
20
1.8265792684640894
42
0.89643804503380087
10
-3.5518257971647196
20
-0.2303638684670942
42
0.27039311141740352
10
-3.4258554383663888
20
-0.22841375177833442
42
-0.38210309003592752
10
-3.2620298763122757
20
-0.25929778208356069
10
-3.1850004088876442
20
-0.35968454180457526
10
-4.6710883782168873
20
-1.4999999095056018
10
-3.9288041492179042
20
-1.499999920850233
10
-3.9288041492179042
20
-1.624999920850233
10
-3.4288041492179047
20
-1.624999920850233
10
-3.4288041492179047
20
-1.499999920850233
10
-2.4288041492179051
20
-1.4999999999999996
10
-2.4288041492179051
20
-1.6249999999999998
10
-1.9288041492179051
20
-1.6249999999999998
10
-1.9288041492179051
20
-1.4999999999999996
10
-0.75000002393572207
20
-1.4999999999999996
10
-0.75000002393572196
20
-1.6249999999999998
10
-0.25000002393572196
20
-1.6249999999999998
10
-0.25000002393572202
20
-1.4999999999999996
10
1.2499999760642779
20
-1.4999999999999996
0
CIRCLE
5
112
100
AcDbEntity
8
0
100
AcDbCircle
10
-3.3582724411777356
20
-0.72897941878294359
30
0
40
0.098000000000000004
210
0
220
-0
230
1
0
CIRCLE
5
113
100
AcDbEntity
8
0
100
AcDbCircle
10
-2.9120111817997367
20
-0.38655112208659687
30
0
40
0.098000000000000004
210
0
220
-0
230
1
0
CIRCLE
5
114
100
AcDbEntity
8
0
100
AcDbCircle
10
-2.4657499224217383
20
-0.044122825390250267
30
0
40
0.098000000000000004
210
0
220
-0
230
1
0
CIRCLE
5
115
100
AcDbEntity
8
0
100
AcDbCircle
10
-2.019488663043739
20
0.29830547130609636
30
0
40
0.098000000000000004
210
0
220
-0
230
1
0
LWPOLYLINE
5
116
100
AcDbEntity
8
0
100
AcDbPolyline
90
4
70
1
43
0.0
10
0.24908214058453312
20
-0.014622475019339375
10
0.39908214058453317
20
-0.11462247501933943
42
-0.99999999999999989
10
0.15885764615628428
20
-0.47495921666171276
10
0.0088576461562843364
20
-0.37495921666171278
42
-0.99999999999999989
0
ENDSEC
0
SECTION
2
OBJECTS
0
DICTIONARY
5
C
100
AcDbDictionary
3
ACAD_GROUP
350
D
3
ACAD_MLINESTYLE
350
17
0
DICTIONARY
5
D
100
AcDbDictionary
0
DICTIONARY
5
1A
330
C
100
AcDbDictionary
0
DICTIONARY
5
17
100
AcDbDictionary
0
ENDSEC
0
EOF
