0
SECTION
2
HEADER
9
$INSUNITS
70
1
9
$ACADVER
1
AC1014
9
$HANDSEED
5
FFFF
0
ENDSEC
0
SECTION
2
TABLES
0
TABLE
2
VPORT
5
8
100
AcDbSymbolTable
0
ENDTAB
0
TABLE
2
LTYPE
5
5
100
AcDbSymbolTable
0
LTYPE
5
14
100
AcDbSymbolTableRecord
100
AcDbLinetypeTableRecord
2
BYBLOCK
70
0
0
LTYPE
5
15
100
AcDbSymbolTableRecord
100
AcDbLinetypeTableRecord
2
BYLAYER
70
0
0
ENDTAB
0
TABLE
2
LAYER
5
2
100
AcDbSymbolTable
70
2
0
LAYER
5
50
100
AcDbSymbolTableRecord
100
AcDbLayerTableRecord
2
0
70
0
6
CONTINUOUS
0
ENDTAB
0
TABLE
2
STYLE
5
3
100
AcDbSymbolTable
70
1
0
STYLE
5
11
100
AcDbSymbolTableRecord
100
AcDbTextStyleTableRecord
2
STANDARD
70
0
0
ENDTAB
0
TABLE
2
VIEW
5
6
100
AcDbSymbolTable
70
0
0
ENDTAB
0
TABLE
2
UCS
5
7
100
AcDbSymbolTable
70
0
0
ENDTAB
0
TABLE
2
APPID
5
9
100
AcDbSymbolTable
70
2
0
APPID
5
12
100
AcDbSymbolTableRecord
100
AcDbRegAppTableRecord
2
ACAD
70
0
0
ENDTAB
0
TABLE
2
DIMSTYLE
5
A
100
AcDbSymbolTable
70
1
0
ENDTAB
0
TABLE
2
BLOCK_RECORD
5
1
100
AcDbSymbolTable
70
1
0
BLOCK_RECORD
5
1F
100
AcDbSymbolTableRecord
100
AcDbBlockTableRecord
2
*MODEL_SPACE
0
BLOCK_RECORD
5
1B
100
AcDbSymbolTableRecord
100
AcDbBlockTableRecord
2
*PAPER_SPACE
0
ENDTAB
0
ENDSEC
0
SECTION
2
BLOCKS
0
BLOCK
5
20
100
AcDbEntity
100
AcDbBlockBegin
2
*MODEL_SPACE
0
ENDBLK
5
21
100
AcDbEntity
100
AcDbBlockEnd
0
BLOCK
5
1C
100
AcDbEntity
100
AcDbBlockBegin
2
*PAPER_SPACE
0
ENDBLK
5
1D
100
AcDbEntity
100
AcDbBlockEnd
0
ENDSEC
0
SECTION
2
ENTITIES
0
CIRCLE
5
100
100
AcDbEntity
8
0
100
AcDbCircle
10
1.5636771213519085
20
-1.4628568966284903
30
0
40
0.099999999999999797
210
6.1590905709560276e-33
220
3.659022760186154e-26
230
1
0
CIRCLE
5
101
100
AcDbEntity
8
0
100
AcDbCircle
10
-3.5613228518369713
20
-1.4628568621632723
30
-1.7483827159451283e-16
40
0.099999999999999797
210
6.1590905709560276e-33
220
3.659022760186154e-26
230
1
0
CIRCLE
5
102
100
AcDbEntity
8
0
100
AcDbCircle
10
-2.1863228512177058
20
0.25695928689480463
30
0
40
0.099999999999999797
210
6.1590905709560276e-33
220
3.659022760186154e-26
230
1
0
CIRCLE
5
103
100
AcDbEntity
8
0
100
AcDbCircle
10
1.5636771560589386
20
1.2573888606633259
30
-1.7483827159451283e-16
40
0.10000000000000014
210
6.1590905709560276e-33
220
3.659022760186154e-26
230
1
0
CIRCLE
5
104
100
AcDbEntity
8
0
100
AcDbCircle
10
0.18867714386389589
20
0.25695927092311815
30
0
40
0.099999999999999978
210
-3.8852510831269057e-36
220
3.659022760186154e-26
230
1
0
CIRCLE
5
105
100
AcDbEntity
8
0
100
AcDbCircle
10
-3.5613228499571283
20
1.2573888951285441
30
-1.7483827159451283e-16
40
0.099999999999999797
210
6.1590905709560276e-33
220
3.659022760186154e-26
230
1
0
SPLINE
5
106
100
AcDbEntity
8
0
100
AcDbSpline
70
0
71
3
72
14
73
10
74
0
42
0.000000001
43
0.0000000001
44
0.0000000001
40
0
40
0
40
0
40
0
40
0.56842278865169027
40
0.56842278865169027
40
0.56842278865169027
40
0.97037609677235304
40
0.97037609677235304
40
0.97037609677235304
40
1.3723294048930164
40
1.3723294048930164
40
1.3723294048930164
40
1.3723294048930164
10
-2.2503412610806928
20
-1.454197089520908
30
0
10
-2.2094264317698644
20
-1.510339781486564
30
0
10
-2.157936854358828
20
-1.557954142741975
30
0
10
-2.0987707227648347
20
-1.5943601036671744
30
0
10
-2.0569321075690596
20
-1.620104139130472
30
0
10
-2.0117375103832074
20
-1.6399465081785776
30
0
10
-1.9644694990588962
20
-1.6533241084447119
30
0
10
-1.9172014877345853
20
-1.666701708710848
30
0
10
-1.8683114686705167
20
-1.6734867849924926
30
0
10
-1.8191868813090366
20
-1.6734867850543913
30
0
0
LINE
5
107
100
AcDbEntity
8
0
100
AcDbLine
10
-1.8191868813090366
20
-1.6734867850543909
30
0
11
1.7743070670230394
21
-1.6734867895823291
31
1.9410947470989462e-32
0
LINE
5
108
100
AcDbEntity
8
0
100
AcDbLine
10
1.7743070670230394
20
-1.6734867895823291
30
1.9410947470989462e-32
11
1.7743070709814561
21
1.4680188090558535
31
-1.748382715945128e-16
0
LINE
5
109
100
AcDbEntity
8
0
100
AcDbLine
10
1.7743070709814561
20
1.4680188090558535
30
-1.748382715945128e-16
11
0.47804722963508867
21
1.4680188106891898
31
0
0
LINE
5
110
100
AcDbEntity
8
0
100
AcDbLine
10
0.47804722963508867
20
1.4680188106891898
30
0
11
0.47804722831150726
21
0.41758920418800172
31
2.6052932585184868e-24
0
LINE
5
111
100
AcDbEntity
8
0
100
AcDbLine
10
0.47804722831150726
20
0.41758920418800172
30
2.6052932585184868e-24
11
-2.475692930342122
21
0.41758920790982618
31
0
0
LINE
5
112
100
AcDbEntity
8
0
100
AcDbLine
10
-2.475692930342122
20
0.41758920790982618
30
0
11
-2.4756929290185412
21
1.4680188144110142
31
-2.6052932678835515e-24
0
LINE
5
113
100
AcDbEntity
8
0
100
AcDbLine
10
-2.4756929290185412
20
1.4680188144110142
30
-2.6052932678835515e-24
11
-3.7719527703649098
21
1.4680188160443501
31
-1.9410947470989462e-32
0
LINE
5
114
100
AcDbEntity
8
0
100
AcDbLine
10
-3.7719527703649098
20
1.4680188160443501
30
-1.9410947470989462e-32
11
-3.7719527743233252
21
-1.6734867825938311
31
-1.7483827159451283e-16
0
LINE
5
115
100
AcDbEntity
8
0
100
AcDbLine
10
-3.7719527743233252
20
-1.6734867825938311
30
-1.7483827159451283e-16
11
-3.2186827749602323
21
-1.6734867832909708
31
-1.7483827159451288e-16
0
SPLINE
5
116
100
AcDbEntity
8
0
100
AcDbSpline
70
0
71
3
72
20
73
16
74
0
42
0.000000001
43
0.0000000001
44
0.0000000001
40
-1.3652475677688511
40
-1.3652475677688511
40
-1.3652475677688511
40
-1.3652475677688511
40
-1.2431759309366024
40
-1.2431759309366024
40
-1.2431759309366024
40
-0.52225569542740002
40
-0.52225569542740002
40
-0.52225569542740002
40
0.15565304938830993
40
0.15565304938830993
40
0.15565304938830993
40
0.82134995435914826
40
0.82134995435914826
40
0.82134995435914826
40
0.92175292092164396
40
0.92175292092164396
40
0.92175292092164396
40
0.92175292092164396
10
-3.2186827749602327
20
-1.6734867832909708
30
0
10
-3.2143337869832833
20
-1.6518307303557436
30
0
10
-3.208707026917788
20
-1.6304183698507568
30
0
10
-3.201825659612016
20
-1.6093948190358385
30
0
10
-3.1610782847335175
20
-1.4849058231332188
30
1.7483827159451283e-16
10
-3.0754594606243302
20
-1.3754272425277259
30
0
10
-2.9614740849532608
20
-1.3073060381417552
30
1.7483827159451283e-16
10
-2.8541770104090074
20
-1.2431819704531231
30
1.7483827159451283e-16
10
-2.7244270514635383
20
-1.2179181366932763
30
0
10
-2.6004102702296699
20
-1.2381253913247825
30
0
10
-2.4786986200653378
20
-1.2579570486377831
30
1.7483827159451283e-16
10
-2.3662413796795612
20
-1.3207060748568147
30
1.7483827159451283e-16
10
-2.2848840311233825
20
-1.4114866592107724
30
1.7483827159451283e-16
10
-2.2726323451448973
20
-1.425157399865258
30
0
10
-2.2611097038778212
20
-1.4394207999190112
30
1.7483827159451283e-16
10
-2.2503412610806932
20
-1.4541970895209078
30
0
0
ENDSEC
0
SECTION
2
OBJECTS
0
DICTIONARY
5
C
100
AcDbDictionary
3
ACAD_GROUP
350
D
3
ACAD_MLINESTYLE
350
17
0
DICTIONARY
5
D
100
AcDbDictionary
0
DICTIONARY
5
1A
330
C
100
AcDbDictionary
0
DICTIONARY
5
17
100
AcDbDictionary
0
ENDSEC
0
EOF
