0
SECTION
2
HEADER
9
$INSUNITS
70
1
9
$ACADVER
1
AC1014
9
$HANDSEED
5
FFFF
0
ENDSEC
0
SECTION
2
TABLES
0
TABLE
2
VPORT
5
8
100
AcDbSymbolTable
0
ENDTAB
0
TABLE
2
LTYPE
5
5
100
AcDbSymbolTable
0
LTYPE
5
14
100
AcDbSymbolTableRecord
100
AcDbLinetypeTableRecord
2
BYBLOCK
70
0
0
LTYPE
5
15
100
AcDbSymbolTableRecord
100
AcDbLinetypeTableRecord
2
BYLAYER
70
0
0
ENDTAB
0
TABLE
2
LAYER
5
2
100
AcDbSymbolTable
70
2
0
LAYER
5
50
100
AcDbSymbolTableRecord
100
AcDbLayerTableRecord
2
0
70
0
6
CONTINUOUS
0
ENDTAB
0
TABLE
2
STYLE
5
3
100
AcDbSymbolTable
70
1
0
STYLE
5
11
100
AcDbSymbolTableRecord
100
AcDbTextStyleTableRecord
2
STANDARD
70
0
0
ENDTAB
0
TABLE
2
VIEW
5
6
100
AcDbSymbolTable
70
0
0
ENDTAB
0
TABLE
2
UCS
5
7
100
AcDbSymbolTable
70
0
0
ENDTAB
0
TABLE
2
APPID
5
9
100
AcDbSymbolTable
70
2
0
APPID
5
12
100
AcDbSymbolTableRecord
100
AcDbRegAppTableRecord
2
ACAD
70
0
0
ENDTAB
0
TABLE
2
DIMSTYLE
5
A
100
AcDbSymbolTable
70
1
0
ENDTAB
0
TABLE
2
BLOCK_RECORD
5
1
100
AcDbSymbolTable
70
1
0
BLOCK_RECORD
5
1F
100
AcDbSymbolTableRecord
100
AcDbBlockTableRecord
2
*MODEL_SPACE
0
BLOCK_RECORD
5
1B
100
AcDbSymbolTableRecord
100
AcDbBlockTableRecord
2
*PAPER_SPACE
0
ENDTAB
0
ENDSEC
0
SECTION
2
BLOCKS
0
BLOCK
5
20
100
AcDbEntity
100
AcDbBlockBegin
2
*MODEL_SPACE
0
ENDBLK
5
21
100
AcDbEntity
100
AcDbBlockEnd
0
BLOCK
5
1C
100
AcDbEntity
100
AcDbBlockBegin
2
*PAPER_SPACE
0
ENDBLK
5
1D
100
AcDbEntity
100
AcDbBlockEnd
0
ENDSEC
0
SECTION
2
ENTITIES
0
CIRCLE
5
100
100
AcDbEntity
8
0
100
AcDbCircle
10
-0.37617714845850614
20
-3.6201745849118989
30
0
40
0.099750000000000061
210
-1.9721522630524531e-31
220
-2.236412551971231e-30
230
1
0
CIRCLE
5
101
100
AcDbEntity
8
0
100
AcDbCircle
10
-1.8761771484585092
20
-4.1826745849119007
30
0
40
0.099749999999999714
210
3.9443045261051352e-31
220
-2.2364125519712289e-30
230
1
0
CIRCLE
5
102
100
AcDbEntity
8
0
100
AcDbCircle
10
-0.37617714845850714
20
-3.0576745849118985
30
-3.4967654318902565e-16
40
0.099750000000000061
210
-1.9721522630524531e-31
220
-2.236412551971231e-30
230
1
0
CIRCLE
5
103
100
AcDbEntity
8
0
100
AcDbCircle
10
-0.37617714845850553
20
-4.1826745849118963
30
3.4967654318902565e-16
40
0.099750000000000061
210
-3.9443045261049828e-31
220
-2.2364125519712317e-30
230
1
0
CIRCLE
5
104
100
AcDbEntity
8
0
100
AcDbCircle
10
-1.876177148458511
20
-3.0576745849119011
30
0
40
0.099749999999999714
210
3.9443045261051352e-31
220
-2.2364125519712289e-30
230
1
0
CIRCLE
5
105
100
AcDbEntity
8
0
100
AcDbCircle
10
-0.37617714845850841
20
-2.4951745849118994
30
-3.4967654318902565e-16
40
0.099750000000000061
210
-3.9443045261049828e-31
220
-2.2364125519712317e-30
230
1
0
CIRCLE
5
106
100
AcDbEntity
8
0
100
AcDbCircle
10
-1.8761771484585106
20
-2.4951745849119029
30
3.4967654318902565e-16
40
0.099749999999999714
210
3.9443045261051352e-31
220
-2.2364125519712289e-30
230
1
0
CIRCLE
5
107
100
AcDbEntity
8
0
100
AcDbCircle
10
-1.8761771484585099
20
-3.6201745849119011
30
0
40
0.099749999999999714
210
3.9443045261051352e-31
220
-2.2364125519712289e-30
230
1
0
LWPOLYLINE
5
108
100
AcDbEntity
8
0
100
AcDbPolyline
90
20
70
1
43
0.0
10
1.9363228515414925
20
-3.5391461652725136
10
1.9363228515414883
20
-4.550000169145779
42
-0.4142135623730937
10
1.4363228515414901
20
-5.0500001691457781
10
0.56132285154150152
20
-5.0500001691457825
42
-0.41421356237309481
10
0.061322851541499822
20
-4.5500001691457852
10
0.061322851541492293
20
-3.5391461652725171
10
-0.18867714845850758
20
-3.5391461652725167
10
-0.18867721811429447
20
-0.52642458491190514
10
-2.3136772181143002
20
-0.52642458491190514
10
-2.3136772181142997
20
-1.5264245849119082
10
-2.8136772181143006
20
-2.02642458491191
10
-4.0299452941933556
20
-2.026424584911914
10
-2.6148544501056383
20
-5.8000001691457896
10
4.6125001531886296
20
-5.8000001691457772
10
6.0275909972763362
20
-2.0264245849118985
10
4.8113228515414894
20
-2.0264245849118967
10
4.3113228515414903
20
-1.5264245849118969
10
4.3113228515414903
20
-0.52642458491189748
10
2.1863228515414845
20
-0.52642458491189725
10
2.1863228515414925
20
-3.5391461652725122
0
CIRCLE
5
109
100
AcDbEntity
8
0
100
AcDbCircle
10
3.8738228515414952
20
-3.6201745849118923
30
0
40
0.099749999999999714
210
1.9721522630525295e-31
220
2.2364125519712303e-30
230
1
0
CIRCLE
5
110
100
AcDbEntity
8
0
100
AcDbCircle
10
3.8738228515414921
20
-2.4951745849118927
30
-3.4967654318902565e-16
40
0.099749999999999714
210
1.9721522630525295e-31
220
2.2364125519712303e-30
230
1
0
CIRCLE
5
111
100
AcDbEntity
8
0
100
AcDbCircle
10
2.3738228515414899
20
-2.4951745849118954
30
3.4967654318902565e-16
40
0.099750000000000061
210
1.9721522630525295e-31
220
2.2364125519712303e-30
230
1
0
CIRCLE
5
112
100
AcDbEntity
8
0
100
AcDbCircle
10
3.8738228515414943
20
-3.0576745849118918
30
3.4967654318902565e-16
40
0.099749999999999714
210
1.9721522630525295e-31
220
2.2364125519712303e-30
230
1
0
CIRCLE
5
113
100
AcDbEntity
8
0
100
AcDbCircle
10
2.3738228515414925
20
-4.1826745849118927
30
0
40
0.099750000000000061
210
1.9721522630525295e-31
220
2.2364125519712303e-30
230
1
0
CIRCLE
5
114
100
AcDbEntity
8
0
100
AcDbCircle
10
2.3738228515414903
20
-3.057674584911894
30
0
40
0.099750000000000061
210
-8.8210921509782891e-61
220
2.2364125519712303e-30
230
1
0
CIRCLE
5
115
100
AcDbEntity
8
0
100
AcDbCircle
10
3.8738228515414965
20
-4.1826745849118909
30
0
40
0.099749999999999714
210
1.9721522630525295e-31
220
2.2364125519712303e-30
230
1
0
CIRCLE
5
116
100
AcDbEntity
8
0
100
AcDbCircle
10
2.3738228515414916
20
-3.6201745849118936
30
-3.4967654318902565e-16
40
0.099750000000000061
210
-8.8210921509782891e-61
220
2.2364125519712303e-30
230
1
0
ENDSEC
0
SECTION
2
OBJECTS
0
DICTIONARY
5
C
100
AcDbDictionary
3
ACAD_GROUP
350
D
3
ACAD_MLINESTYLE
350
17
0
DICTIONARY
5
D
100
AcDbDictionary
0
DICTIONARY
5
1A
330
C
100
AcDbDictionary
0
DICTIONARY
5
17
100
AcDbDictionary
0
ENDSEC
0
EOF
