0
SECTION
2
HEADER
9
$INSUNITS
70
1
9
$ACADVER
1
AC1014
9
$HANDSEED
5
FFFF
0
ENDSEC
0
SECTION
2
TABLES
0
TABLE
2
VPORT
5
8
100
AcDbSymbolTable
0
ENDTAB
0
TABLE
2
LTYPE
5
5
100
AcDbSymbolTable
0
LTYPE
5
14
100
AcDbSymbolTableRecord
100
AcDbLinetypeTableRecord
2
BYBLOCK
70
0
0
LTYPE
5
15
100
AcDbSymbolTableRecord
100
AcDbLinetypeTableRecord
2
BYLAYER
70
0
0
ENDTAB
0
TABLE
2
LAYER
5
2
100
AcDbSymbolTable
70
2
0
LAYER
5
50
100
AcDbSymbolTableRecord
100
AcDbLayerTableRecord
2
0
70
0
6
CONTINUOUS
0
ENDTAB
0
TABLE
2
STYLE
5
3
100
AcDbSymbolTable
70
1
0
STYLE
5
11
100
AcDbSymbolTableRecord
100
AcDbTextStyleTableRecord
2
STANDARD
70
0
0
ENDTAB
0
TABLE
2
VIEW
5
6
100
AcDbSymbolTable
70
0
0
ENDTAB
0
TABLE
2
UCS
5
7
100
AcDbSymbolTable
70
0
0
ENDTAB
0
TABLE
2
APPID
5
9
100
AcDbSymbolTable
70
2
0
APPID
5
12
100
AcDbSymbolTableRecord
100
AcDbRegAppTableRecord
2
ACAD
70
0
0
ENDTAB
0
TABLE
2
DIMSTYLE
5
A
100
AcDbSymbolTable
70
1
0
ENDTAB
0
TABLE
2
BLOCK_RECORD
5
1
100
AcDbSymbolTable
70
1
0
BLOCK_RECORD
5
1F
100
AcDbSymbolTableRecord
100
AcDbBlockTableRecord
2
*MODEL_SPACE
0
BLOCK_RECORD
5
1B
100
AcDbSymbolTableRecord
100
AcDbBlockTableRecord
2
*PAPER_SPACE
0
ENDTAB
0
ENDSEC
0
SECTION
2
BLOCKS
0
BLOCK
5
20
100
AcDbEntity
100
AcDbBlockBegin
2
*MODEL_SPACE
0
ENDBLK
5
21
100
AcDbEntity
100
AcDbBlockEnd
0
BLOCK
5
1C
100
AcDbEntity
100
AcDbBlockBegin
2
*PAPER_SPACE
0
ENDBLK
5
1D
100
AcDbEntity
100
AcDbBlockEnd
0
ENDSEC
0
SECTION
2
ENTITIES
0
CIRCLE
5
100
100
AcDbEntity
8
0
100
AcDbCircle
10
-3.8738228515414868
20
1.3593750598392975
30
0
40
0.099749999999999492
210
0
220
-1.6543612251059308e-24
230
1
0
CIRCLE
5
101
100
AcDbEntity
8
0
100
AcDbCircle
10
-3.8738228515414872
20
1.921875059839296
30
0
40
0.099749999999999492
210
0
220
-1.6543612251059308e-24
230
1
0
CIRCLE
5
102
100
AcDbEntity
8
0
100
AcDbCircle
10
-3.8738228515414894
20
2.4843750598392944
30
0
40
0.099749999999999492
210
0
220
-1.6543612251059308e-24
230
1
0
CIRCLE
5
103
100
AcDbEntity
8
0
100
AcDbCircle
10
-1.798822851541481
20
-0.70000002565841457
30
0
40
0.082000000000000073
210
5.8774717541114375e-39
220
-1.6543612251059308e-24
230
1
0
CIRCLE
5
104
100
AcDbEntity
8
0
100
AcDbCircle
10
1.8561771484585115
20
1.3593750598393151
30
0
40
0.099749999999999839
210
0
220
1.2487291765017896e-37
230
1
0
CIRCLE
5
105
100
AcDbEntity
8
0
100
AcDbCircle
10
-0.21882285154148146
20
-0.70000002565840957
30
0
40
0.082000000000000073
210
5.8774717541114375e-39
220
-1.6543612251059308e-24
230
1
0
CIRCLE
5
106
100
AcDbEntity
8
0
100
AcDbCircle
10
1.8561771484585086
20
1.9218750598393139
30
0
40
0.099749999999999839
210
0
220
1.2487291765017896e-37
230
1
0
CIRCLE
5
107
100
AcDbEntity
8
0
100
AcDbCircle
10
1.8561771484585132
20
0.79687505983931639
30
0
40
0.099749999999999839
210
0
220
1.2487291765017896e-37
230
1
0
CIRCLE
5
108
100
AcDbEntity
8
0
100
AcDbCircle
10
1.8561771484585068
20
2.4843750598393122
30
0
40
0.099749999999999839
210
0
220
1.2487291765017896e-37
230
1
0
CIRCLE
5
109
100
AcDbEntity
8
0
100
AcDbCircle
10
-3.8738228515414845
20
0.79687505983929874
30
0
40
0.099749999999999492
210
0
220
-1.6543612251059308e-24
230
1
0
LINE
5
110
100
AcDbEntity
8
0
100
AcDbLine
10
-4.0513228515414985
20
4.9188041252821684
30
0
11
-4.0513228515414967
21
4.5370573007552224
31
1.3545784059013619e-54
0
ARC
5
111
100
AcDbEntity
8
0
100
AcDbCircle
10
-3.9988228515414961
20
4.5370573007552251
30
1.7483827159451283e-16
40
0.052500000000000727
210
-3.3302527922763886e-15
220
-1.3308700491126781e-28
230
1
100
AcDbArc
50
180
51
240.00000000000085
0
ARC
5
112
100
AcDbEntity
8
0
100
AcDbCircle
10
-4.0613228515414974
20
4.4288041252821699
30
4.0675170542417366e-41
40
0.072499999999999704
210
2.3871032403545646e-25
220
1.0053473004336864e-24
230
1
100
AcDbArc
50
-149.9999999999992
51
59.999999999998586
0
SPLINE
5
113
100
AcDbEntity
8
0
100
AcDbSpline
70
0
71
3
72
14
73
10
74
0
42
0.000000001
43
0.0000000001
44
0.0000000001
40
-0.16667201186970892
40
-0.16667201186970892
40
-0.16667201186970892
40
-0.16667201186970892
40
-0.11434341100994211
40
-0.11434341100994211
40
-0.11434341100994211
40
-0.062014810150175653
40
-0.062014810150175653
40
-0.062014810150175653
40
0
40
0
40
0
40
0
10
-4.1241096933158685
20
4.39255412528217
30
1.7483827159451283e-16
10
-4.1269939469065644
20
4.3975497990431691
30
0
10
-4.130681939724397
20
4.4020361228329312
30
0
10
-4.1350251662647475
20
4.4058324445159505
30
1.7483827159451283e-16
10
-4.1393683928050979
20
4.4096287661989706
30
0
10
-4.1443077632738667
20
4.4126834366465379
30
0
10
-4.1496443825700586
20
4.414873452534442
30
1.7483827159451283e-16
10
-4.1559688289924663
20
4.4174688481170268
30
0
10
-4.1627397487302806
20
4.4188041252821701
30
1.7483827159451283e-16
10
-4.1695760270145517
20
4.4188041252821701
30
1.7483827159451283e-16
0
LINE
5
114
100
AcDbEntity
8
0
100
AcDbLine
10
-4.1695760270145517
20
4.4188041252821693
30
1.748382715945129e-16
11
-4.3013228515414967
21
4.4188041252821693
31
1.7483827159451283e-16
0
LINE
5
115
100
AcDbEntity
8
0
100
AcDbLine
10
-4.3013228515414967
20
4.4188041252821693
30
1.7483827159451283e-16
11
-4.3013228515414941
21
3.4388041252821688
31
1.7483827159451283e-16
0
LINE
5
116
100
AcDbEntity
8
0
100
AcDbLine
10
-4.3013228515414941
20
3.4388041252821688
30
1.7483827159451283e-16
11
-4.1695760270145481
21
3.4388041252821706
31
0
0
SPLINE
5
117
100
AcDbEntity
8
0
100
AcDbSpline
70
0
71
3
72
14
73
10
74
0
42
0.000000001
43
0.0000000001
44
0.0000000001
40
-0.16667201186970837
40
-0.16667201186970837
40
-0.16667201186970837
40
-0.16667201186970837
40
-0.11434341100994209
40
-0.11434341100994209
40
-0.11434341100994209
40
-0.062014810150175757
40
-0.062014810150175757
40
-0.062014810150175757
40
0
40
0
40
0
40
0
10
-4.1695760270145481
20
3.4388041252821702
30
0
10
-4.1638075198331563
20
3.4388041252821702
30
0
10
-4.1580782530527021
20
3.439754858856507
30
0
10
-4.1526189287640953
20
3.4416180425333311
30
0
10
-4.1471596044754868
20
3.4434812262101566
30
1.7483827159451283e-16
10
-4.1420444970333197
20
3.4462315112910287
30
1.7483827159451283e-16
10
-4.1374795779916065
20
3.4497581512279041
30
0
10
-4.1320696762730149
20
3.45393758470329
30
0
10
-4.127527832458
20
3.4591337346206519
30
0
10
-4.124109693315865
20
3.4650541252821703
30
0
0
ARC
5
118
100
AcDbEntity
8
0
100
AcDbCircle
10
-4.061322851541493
20
3.4288041252821726
30
-7.4119199655071646e-40
40
0.072500000000000814
210
1.7822503605773656e-24
220
2.0244758421341824e-24
230
1
100
AcDbArc
50
-60.000000000001251
51
150.00000000000168
0
ARC
5
119
100
AcDbEntity
8
0
100
AcDbCircle
10
-3.9988228515414912
20
3.3205509498091139
30
1.7483827159451283e-16
40
0.052500000000003183
210
-1.6651263957992141e-15
220
2.8840835179562155e-15
230
1
100
AcDbArc
50
120.00000000000135
51
180
0
LINE
5
120
100
AcDbEntity
8
0
100
AcDbLine
10
-4.0513228515414932
20
3.3205509498091148
30
1.7483827156361812e-16
11
-4.0513228515414923
21
3.037057300755226
31
1.7483827159451283e-16
0
ARC
5
121
100
AcDbEntity
8
0
100
AcDbCircle
10
-3.9988228515414903
20
3.0370573007552264
30
0
40
0.052500000000002128
210
3.3302527922762999e-15
220
2.2181166612877722e-29
230
1
100
AcDbArc
50
180
51
239.99999999999923
0
ARC
5
122
100
AcDbEntity
8
0
100
AcDbCircle
10
-4.0613228515414912
20
2.9288041252821695
30
1.7483827159451288e-16
40
0.072500000000000911
210
1.7822500802405247e-24
220
2.024475794945006e-24
230
1
100
AcDbArc
50
-150.00000000000023
51
60.000000000000746
0
SPLINE
5
123
100
AcDbEntity
8
0
100
AcDbSpline
70
0
71
3
72
14
73
10
74
0
42
0.000000001
43
0.0000000001
44
0.0000000001
40
-0.16667201186970959
40
-0.16667201186970959
40
-0.16667201186970959
40
-0.16667201186970959
40
-0.11434341100994289
40
-0.11434341100994289
40
-0.11434341100994289
40
-0.06201481015017344
40
-0.06201481015017344
40
-0.06201481015017344
40
0
40
0
40
0
40
0
10
-4.1241096933158632
20
2.8925541252821696
30
0
10
-4.12699394690656
20
2.8975497990431682
30
1.7483827159451283e-16
10
-4.1306819397243926
20
2.9020361228329317
30
0
10
-4.135025166264743
20
2.9058324445159505
30
0
10
-4.1393683928050926
20
2.9096287661989693
30
0
10
-4.1443077632738623
20
2.9126834366465375
30
0
10
-4.1496443825700551
20
2.9148734525344424
30
0
10
-4.1559688289924628
20
2.9174688481170272
30
0
10
-4.1627397487302762
20
2.9188041252821697
30
0
10
-4.1695760270145472
20
2.9188041252821697
30
0
0
LINE
5
124
100
AcDbEntity
8
0
100
AcDbLine
10
-4.1695760270145472
20
2.9188041252821697
30
0
11
-4.3013228515414923
21
2.9188041252821684
31
-3.4709478862862817e-39
0
LINE
5
125
100
AcDbEntity
8
0
100
AcDbLine
10
-4.3013228515414923
20
2.9188041252821684
30
-3.4709478862862817e-39
11
-4.3013228515414887
21
1.7599999999999854
31
4.1118640315474395e-54
0
LINE
5
126
100
AcDbEntity
8
0
100
AcDbLine
10
-4.3013228515414887
20
1.7599999999999854
30
4.1118640315474395e-54
11
-4.1695760270145419
21
1.7599999999999882
31
-1.1569826287620939e-39
0
SPLINE
5
127
100
AcDbEntity
8
0
100
AcDbSpline
70
0
71
3
72
14
73
10
74
0
42
0.000000001
43
0.0000000001
44
0.0000000001
40
-0.16667201186970648
40
-0.16667201186970648
40
-0.16667201186970648
40
-0.16667201186970648
40
-0.1143434110099403
40
-0.1143434110099403
40
-0.1143434110099403
40
-0.062014810150175258
40
-0.062014810150175258
40
-0.062014810150175258
40
0
40
0
40
0
40
0
10
-4.1695760270145419
20
1.7599999999999882
30
0
10
-4.1638075198331501
20
1.7599999999999882
30
0
10
-4.1580782530526967
20
1.7609507335743242
30
0
10
-4.1526189287640882
20
1.762813917251149
30
0
10
-4.1471596044754824
20
1.7646771009279736
30
1.7483827159451283e-16
10
-4.1420444970333152
20
1.7674273860088463
30
0
10
-4.1374795779916012
20
1.7709540259457222
30
1.7483827159451283e-16
10
-4.1320696762730087
20
1.7751334594211081
30
0
10
-4.1275278324579956
20
1.7803296093384686
30
0
10
-4.1241096933158596
20
1.7862499999999875
30
0
0
ARC
5
128
100
AcDbEntity
8
0
100
AcDbCircle
10
-4.0613228515414876
20
1.7499999999999871
30
-1.2202551162725209e-40
40
0.072499999999999301
210
9.5506974802433866e-25
220
5.9175699415664283e-25
230
1
100
AcDbArc
50
-60.00000000000059
51
149.99999999999986
0
ARC
5
129
100
AcDbEntity
8
0
100
AcDbCircle
10
-3.9988228515414899
20
1.6417468245269329
30
1.7483827159451283e-16
40
0.052499999999998964
210
-1.665126396370364e-15
220
2.8840835189457815e-15
230
1
100
AcDbArc
50
119.99999999999905
51
180
0
LINE
5
130
100
AcDbEntity
8
0
100
AcDbLine
10
-4.0513228515414887
20
1.6417468245269322
30
1.7483827152019113e-16
11
-4.0513228515414879
21
1.3582531754730411
31
1.7483827159451283e-16
0
ARC
5
131
100
AcDbEntity
8
0
100
AcDbCircle
10
-3.9988228515414868
20
1.3582531754730425
30
0
40
0.052500000000000727
210
3.3302527922763886e-15
220
7.7634084915202317e-29
230
1
100
AcDbArc
50
180
51
239.99999999999937
0
ARC
5
132
100
AcDbEntity
8
0
100
AcDbCircle
10
-4.0613228515414859
20
1.2499999999999876
30
-1.9659665762168394e-40
40
0.072499999999999704
210
2.3871032403543231e-25
220
1.0053473004328299e-24
230
1
100
AcDbArc
50
-149.99999999999935
51
60.000000000001101
0
SPLINE
5
133
100
AcDbEntity
8
0
100
AcDbSpline
70
0
71
3
72
14
73
10
74
0
42
0.000000001
43
0.0000000001
44
0.0000000001
40
-0.16667201186970923
40
-0.16667201186970923
40
-0.16667201186970923
40
-0.16667201186970923
40
-0.11434341100994244
40
-0.11434341100994244
40
-0.11434341100994244
40
-0.062014810150175709
40
-0.062014810150175709
40
-0.062014810150175709
40
0
40
0
40
0
40
0
10
-4.1241096933158587
20
1.2137499999999872
30
0
10
-4.1269939469065546
20
1.2187456737609859
30
1.7483827159451283e-16
10
-4.1306819397243872
20
1.2232319975507493
30
0
10
-4.1350251662647377
20
1.2270283192337681
30
0
10
-4.1393683928050882
20
1.2308246409167871
30
0
10
-4.144307763273857
20
1.2338793113643551
30
0
10
-4.1496443825700489
20
1.2360693272522598
30
0
10
-4.1559688289924557
20
1.2386647228348446
30
0
10
-4.1627397487302709
20
1.2399999999999876
30
0
10
-4.1695760270145419
20
1.2399999999999876
30
0
0
LINE
5
134
100
AcDbEntity
8
0
100
AcDbLine
10
-4.1695760270145419
20
1.2399999999999876
30
0
11
-4.301322851541487
21
1.2399999999999869
31
0
0
LINE
5
135
100
AcDbEntity
8
0
100
AcDbLine
10
-4.301322851541487
20
1.2399999999999869
30
0
11
-4.3013228515414843
21
0.25999999999998635
31
3.4774008599755678e-54
0
LINE
5
136
100
AcDbEntity
8
0
100
AcDbLine
10
-4.3013228515414843
20
0.25999999999998635
30
3.4774008599755678e-54
11
-4.1695760270145383
21
0.25999999999998757
31
2.3139652575241878e-39
0
SPLINE
5
137
100
AcDbEntity
8
0
100
AcDbSpline
70
0
71
3
72
14
73
10
74
0
42
0.000000001
43
0.0000000001
44
0.0000000001
40
-0.16667201186970884
40
-0.16667201186970884
40
-0.16667201186970884
40
-0.16667201186970884
40
-0.11434341100994275
40
-0.11434341100994275
40
-0.11434341100994275
40
-0.062014810150175452
40
-0.062014810150175452
40
-0.062014810150175452
40
0
40
0
40
0
40
0
10
-4.1695760270145383
20
0.25999999999998752
30
0
10
-4.1638075198331475
20
0.25999999999998757
30
0
10
-4.1580782530526932
20
0.26095073357432375
30
0
10
-4.1526189287640856
20
0.2628139172511485
30
0
10
-4.1471596044754779
20
0.26467710092797342
30
0
10
-4.1420444970333108
20
0.26742738600884558
30
0
10
-4.1374795779915976
20
0.2709540259457221
30
0
10
-4.1320696762730051
20
0.27513345942110795
30
0
10
-4.1275278324579912
20
0.28032960933846879
30
0
10
-4.1241096933158561
20
0.28624999999998751
30
0
0
ARC
5
138
100
AcDbEntity
8
0
100
AcDbCircle
10
-4.0613228515414841
20
0.24999999999998779
30
1.7483827159451283e-16
40
0.072499999999999468
210
-4.776492647082128e-25
220
1.4189379403259012e-24
230
1
100
AcDbArc
50
-59.999999999999879
51
150.00000000000028
0
ARC
5
139
100
AcDbEntity
8
0
100
AcDbCircle
10
-3.9988228515414841
20
0.14174682452693366
30
0
40
0.052499999999999818
210
1.6651263968953193e-15
220
-2.8840835210386662e-15
230
1
100
AcDbArc
50
120.00000000000023
51
180
0
LINE
5
140
100
AcDbEntity
8
0
100
AcDbLine
10
-4.0513228515414843
20
0.14174682452693324
30
-3.0894690147172679e-26
11
-4.0513228515414825
21
-0.24953065289344209
31
2.9152318235833078e-38
0
ARC
5
141
100
AcDbEntity
8
0
100
AcDbCircle
10
-4.1494576191150747
20
-0.75000000000000189
30
1.7483827159451763e-16
40
0.50999999999998913
210
6.3694971634600671e-25
220
1.3054118065762457e-24
230
1
100
AcDbArc
50
70.006384344139946
51
78.905888589291791
0
LINE
5
142
100
AcDbEntity
8
0
100
AcDbLine
10
-3.9750807481336485
20
-0.27073732998833078
30
1.748382708578132e-16
11
-1.9982373684771206
21
-0.99000003191430352
31
-3.3737012760984188e-25
0
LINE
5
143
100
AcDbEntity
8
0
100
AcDbLine
10
-1.9982373684771206
20
-0.99000003191430352
30
-3.3737012760984188e-25
11
-0.019408334605840082
21
-0.99000003191429764
31
-9.2558610300967513e-39
0
LINE
5
144
100
AcDbEntity
8
0
100
AcDbLine
10
-0.019408334605840082
20
-0.99000003191429764
30
-9.2558610300967513e-39
11
1.9574350450506832
21
-0.27073732998831196
31
-1.6400167615516269e-24
0
ARC
5
145
100
AcDbEntity
8
0
100
AcDbCircle
10
2.1318119160321132
20
-0.74999999999999056
30
1.7483827159450864e-16
40
0.50999999999999746
210
4.1343507671498383e-25
220
-2.6930687148079874e-24
230
1
100
AcDbArc
50
101.09411141070841
51
109.99361565586017
0
LINE
5
146
100
AcDbEntity
8
0
100
AcDbLine
10
2.0336771484585179
20
-0.2495306528934233
30
1.7483827298287932e-16
11
2.0336771484585161
21
0.14174682452695234
31
1.7483827159451283e-16
0
ARC
5
147
100
AcDbEntity
8
0
100
AcDbCircle
10
1.9811771484585166
20
0.14174682452695225
30
0
40
0.052499999999999679
210
-3.3302527922764553e-15
220
-5.5452917400647865e-30
230
1
100
AcDbArc
50
0
51
60.000000000000007
0
ARC
5
148
100
AcDbEntity
8
0
100
AcDbCircle
10
2.0436771484585154
20
0.25000000000000699
30
1.748382715945128e-16
40
0.072499999999999953
210
2.3871019430509442e-25
220
1.0053471357561988e-24
230
1
100
AcDbArc
50
29.999999999999762
51
240.00000000000071
0
SPLINE
5
149
100
AcDbEntity
8
0
100
AcDbSpline
70
0
71
3
72
14
73
10
74
0
42
0.000000001
43
0.0000000001
44
0.0000000001
40
0
40
0
40
0
40
0
40
0.062014810150175452
40
0.062014810150175452
40
0.062014810150175452
40
0.11434341100994275
40
0.11434341100994275
40
0.11434341100994275
40
0.16667201186970884
40
0.16667201186970884
40
0.16667201186970884
40
0.16667201186970884
10
2.1064639902328874
20
0.28625000000000683
30
0
10
2.109882129375023
20
0.28032960933848816
30
0
10
2.1144239731900374
20
0.27513345942112732
30
0
10
2.1198338749086294
20
0.27095402594574147
30
0
10
2.124398793950343
20
0.26742738600886506
30
0
10
2.1295139013925102
20
0.2646771009279929
30
0
10
2.1349732256811174
20
0.26281391725116804
30
0
10
2.140432549969725
20
0.26095073357434329
30
0
10
2.1461618167501793
20
0.26000000000000711
30
0
10
2.1519303239315706
20
0.26000000000000711
30
0
0
LINE
5
150
100
AcDbEntity
8
0
100
AcDbLine
10
2.1519303239315701
20
0.26000000000000711
30
0
11
2.2836771484585157
21
0.26000000000000723
31
0
0
LINE
5
151
100
AcDbEntity
8
0
100
AcDbLine
10
2.2836771484585157
20
0.26000000000000723
30
0
11
2.283677148458513
21
1.2400000000000073
31
-3.4774008599755719e-54
0
LINE
5
152
100
AcDbEntity
8
0
100
AcDbLine
10
2.283677148458513
20
1.2400000000000073
30
-3.4774008599755719e-54
11
2.1519303239315675
21
1.2400000000000071
31
0
0
SPLINE
5
153
100
AcDbEntity
8
0
100
AcDbSpline
70
0
71
3
72
14
73
10
74
0
42
0.000000001
43
0.0000000001
44
0.0000000001
40
0
40
0
40
0
40
0
40
0.062014810150175709
40
0.062014810150175709
40
0.062014810150175709
40
0.11434341100994244
40
0.11434341100994244
40
0.11434341100994244
40
0.16667201186970923
40
0.16667201186970923
40
0.16667201186970923
40
0.16667201186970923
10
2.1519303239315675
20
1.2400000000000071
30
0
10
2.1450940456472964
20
1.2400000000000071
30
0
10
2.1383231259094813
20
1.2386647228348644
30
0
10
2.1319986794870744
20
1.2360693272522796
30
0
10
2.1266620601908826
20
1.2338793113643745
30
0
10
2.1217226897221138
20
1.2308246409168067
30
0
10
2.1173794631817633
20
1.2270283192337876
30
0
10
2.1130362366414137
20
1.2232319975507686
30
0
10
2.1093482438235811
20
1.2187456737610052
30
1.7483827159451283e-16
10
2.1064639902328848
20
1.2137500000000068
30
0
0
ARC
5
154
100
AcDbEntity
8
0
100
AcDbCircle
10
2.0436771484585115
20
1.2500000000000067
30
1.084671214464463e-40
40
0.072500000000000411
210
-5.8847028851758306e-25
220
-4.2737154754494484e-25
230
1
100
AcDbArc
50
119.99999999999969
51
330.00000000000068
0
ARC
5
155
100
AcDbEntity
8
0
100
AcDbCircle
10
1.9811771484585103
20
1.3582531754730616
30
0
40
0.052500000000000366
210
-3.0868837716798081e-25
220
-5.722493795281206e-26
230
1
100
AcDbArc
50
300.00000000000142
51
360
0
LINE
5
156
100
AcDbEntity
8
0
100
AcDbLine
10
2.0336771484585108
20
1.3582531754730609
30
3.0894690147174103e-26
11
2.0336771484585117
21
1.6417468245269522
31
6.5132331697088788e-25
0
ARC
5
157
100
AcDbEntity
8
0
100
AcDbCircle
10
1.9811771484585139
20
1.6417468245269513
30
1.7483827159451283e-16
40
0.05249999999999793
210
3.3302527798704078e-15
220
4.4362334323832679e-29
230
1
100
AcDbArc
50
0
51
60.000000000001407
0
ARC
5
158
100
AcDbEntity
8
0
100
AcDbCircle
10
2.0436771484585106
20
1.750000000000006
30
-4.971409732962122e-41
40
0.07249999999999987
210
2.3871032403542685e-25
220
1.0053473004324135e-24
230
1
100
AcDbArc
50
30.000000000000806
51
240.00000000000122
0
SPLINE
5
159
100
AcDbEntity
8
0
100
AcDbSpline
70
0
71
3
72
14
73
10
74
0
42
0.000000001
43
0.0000000001
44
0.0000000001
40
0
40
0
40
0
40
0
40
0.062014810150175258
40
0.062014810150175258
40
0.062014810150175258
40
0.1143434110099403
40
0.1143434110099403
40
0.1143434110099403
40
0.16667201186970648
40
0.16667201186970648
40
0.16667201186970648
40
0.16667201186970648
10
2.1064639902328817
20
1.7862500000000063
30
0
10
2.1098821293750172
20
1.7803296093384879
30
0
10
2.1144239731900307
20
1.7751334594211272
30
0
10
2.1198338749086227
20
1.770954025945741
30
1.7483827159451283e-16
10
2.1243987939503368
20
1.7674273860088652
30
0
10
2.129513901392504
20
1.7646771009279927
30
1.7483827159451283e-16
10
2.1349732256811103
20
1.7628139172511688
30
0
10
2.1404325499697183
20
1.760950733574344
30
0
10
2.1461618167501717
20
1.7600000000000078
30
0
10
2.1519303239315635
20
1.7600000000000078
30
0
0
LINE
5
160
100
AcDbEntity
8
0
100
AcDbLine
10
2.151930323931563
20
1.7600000000000078
30
0
11
2.2836771484585108
21
1.7600000000000058
31
-5.7849131438104695e-39
0
LINE
5
161
100
AcDbEntity
8
0
100
AcDbLine
10
2.2836771484585108
20
1.7600000000000058
30
-5.7849131438104695e-39
11
2.2836771484585072
21
2.9188041252821892
31
-4.1118640315474302e-54
0
LINE
5
162
100
AcDbEntity
8
0
100
AcDbLine
10
2.2836771484585072
20
2.9188041252821892
30
-4.1118640315474302e-54
11
2.1519303239315617
21
2.9188041252821897
31
0
0
SPLINE
5
163
100
AcDbEntity
8
0
100
AcDbSpline
70
0
71
3
72
14
73
10
74
0
42
0.000000001
43
0.0000000001
44
0.0000000001
40
0
40
0
40
0
40
0
40
0.06201481015017344
40
0.06201481015017344
40
0.06201481015017344
40
0.11434341100994289
40
0.11434341100994289
40
0.11434341100994289
40
0.16667201186970959
40
0.16667201186970959
40
0.16667201186970959
40
0.16667201186970959
10
2.1519303239315617
20
2.9188041252821892
30
0
10
2.1450940456472907
20
2.9188041252821892
30
0
10
2.1383231259094777
20
2.9174688481170468
30
0
10
2.1319986794870704
20
2.914873452534462
30
0
10
2.1266620601908777
20
2.912683436646557
30
0
10
2.1217226897221084
20
2.9096287661989884
30
0
10
2.1173794631817584
20
2.90583244451597
30
0
10
2.1130362366414079
20
2.9020361228329508
30
0
10
2.1093482438235753
20
2.8975497990431873
30
1.7483827159451283e-16
10
2.106463990232879
20
2.8925541252821887
30
0
0
ARC
5
164
100
AcDbEntity
8
0
100
AcDbCircle
10
2.0436771484585061
20
2.9288041252821881
30
1.7483827159451283e-16
40
0.072500000000000439
210
1.0658908382610165e-24
220
2.4380662810525538e-24
230
1
100
AcDbArc
50
119.99999999999986
51
330.00000000000074
0
ARC
5
165
100
AcDbEntity
8
0
100
AcDbCircle
10
1.981177148458505
20
3.037057300755245
30
0
40
0.052500000000002003
210
-1.6651263953045484e-15
220
2.8840835170995993e-15
230
1
100
AcDbArc
50
300.00000000000011
51
360
0
LINE
5
166
100
AcDbEntity
8
0
100
AcDbLine
10
2.0336771484585072
20
3.0370573007552442
30
3.0894690147174459e-26
11
2.0336771484585068
21
3.320550949809133
31
6.5132331697085877e-25
0
ARC
5
167
100
AcDbEntity
8
0
100
AcDbCircle
10
1.9811771484585037
20
3.3205509498091317
30
1.7483827159451283e-16
40
0.052500000000003176
210
3.3302527798700753e-15
220
8.8724666856927968e-29
230
1
100
AcDbArc
50
0
51
59.999999999999517
0
ARC
5
168
100
AcDbEntity
8
0
100
AcDbCircle
10
2.0436771484585057
20
3.4288041252821899
30
-2.937651205841254e-40
40
0.072499999999999704
210
3.4953151259953674e-25
220
2.8516564546870991e-24
230
1
100
AcDbArc
50
30.000000000000501
51
240.00000000000034
0
SPLINE
5
169
100
AcDbEntity
8
0
100
AcDbSpline
70
0
71
3
72
14
73
10
74
0
42
0.000000001
43
0.0000000001
44
0.0000000001
40
0
40
0
40
0
40
0
40
0.062014810150175757
40
0.062014810150175757
40
0.062014810150175757
40
0.11434341100994209
40
0.11434341100994209
40
0.11434341100994209
40
0.16667201186970837
40
0.16667201186970837
40
0.16667201186970837
40
0.16667201186970837
10
2.1064639902328763
20
3.4650541252821903
30
0
10
2.1098821293750118
20
3.4591337346206705
30
0
10
2.1144239731900258
20
3.4539375847033105
30
0
10
2.1198338749086183
20
3.4497581512279245
30
0
10
2.124398793950331
20
3.4462315112910478
30
1.7483827159451283e-16
10
2.1295139013924986
20
3.4434812262101753
30
1.7483827159451283e-16
10
2.1349732256811076
20
3.4416180425333498
30
0
10
2.1404325499697143
20
3.439754858856527
30
0
10
2.1461618167501681
20
3.4388041252821906
30
0
10
2.1519303239315599
20
3.4388041252821906
30
0
0
LINE
5
170
100
AcDbEntity
8
0
100
AcDbLine
10
2.1519303239315595
20
3.4388041252821906
30
0
11
2.2836771484585059
21
3.4388041252821897
31
-2.3139652575241878e-39
0
LINE
5
171
100
AcDbEntity
8
0
100
AcDbLine
10
2.2836771484585059
20
3.4388041252821897
30
-2.3139652575241878e-39
11
2.2836771484585037
21
4.4188041252821915
31
-2.9152318235833083e-38
0
LINE
5
172
100
AcDbEntity
8
0
100
AcDbLine
10
2.2836771484585037
20
4.4188041252821915
30
-2.9152318235833083e-38
11
2.1519303239315573
21
4.4188041252821888
31
1.7483827159451283e-16
0
SPLINE
5
173
100
AcDbEntity
8
0
100
AcDbSpline
70
0
71
3
72
14
73
10
74
0
42
0.000000001
43
0.0000000001
44
0.0000000001
40
0
40
0
40
0
40
0
40
0.062014810150175653
40
0.062014810150175653
40
0.062014810150175653
40
0.11434341100994211
40
0.11434341100994211
40
0.11434341100994211
40
0.16667201186970892
40
0.16667201186970892
40
0.16667201186970892
40
0.16667201186970892
10
2.1519303239315573
20
4.4188041252821888
30
1.7483827159451283e-16
10
2.1450940456472862
20
4.4188041252821888
30
1.7483827159451283e-16
10
2.1383231259094719
20
4.4174688481170472
30
0
10
2.1319986794870647
20
4.4148734525344606
30
1.7483827159451283e-16
10
2.1266620601908728
20
4.4126834366465566
30
0
10
2.1217226897221035
20
4.4096287661989892
30
0
10
2.117379463181754
20
4.4058324445159709
30
1.7483827159451283e-16
10
2.1130362366414031
20
4.4020361228329508
30
0
10
2.1093482438235709
20
4.3975497990431878
30
0
10
2.1064639902328741
20
4.3925541252821887
30
1.7483827159451283e-16
0
ARC
5
174
100
AcDbEntity
8
0
100
AcDbCircle
10
2.0436771484585026
20
4.4288041252821895
30
2.9828458397772732e-40
40
0.072499999999999704
210
1.2788913547131365e-25
220
-8.409618538211829e-25
230
1
100
AcDbArc
50
120.00000000000082
51
329.99999999999994
0
ARC
5
175
100
AcDbEntity
8
0
100
AcDbCircle
10
1.9811771484585026
20
4.5370573007552437
30
1.7483827159451283e-16
40
0.052499999999999623
210
1.6651263953348805e-15
220
-2.8840835183359948e-15
230
1
100
AcDbArc
50
299.9999999999992
51
360
0
LINE
5
176
100
AcDbEntity
8
0
100
AcDbLine
10
2.0336771484585014
20
4.5370573007552428
30
1.7483827158198054e-16
11
2.0336771484585014
21
4.9188041252821888
31
1.7483827159451283e-16
0
LINE
5
177
100
AcDbEntity
8
0
100
AcDbLine
10
2.0336771484585014
20
4.9188041252821888
30
1.7483827159451283e-16
11
-4.0513228515414985
21
4.9188041252821684
31
0
0
ENDSEC
0
SECTION
2
OBJECTS
0
DICTIONARY
5
C
100
AcDbDictionary
3
ACAD_GROUP
350
D
3
ACAD_MLINESTYLE
350
17
0
DICTIONARY
5
D
100
AcDbDictionary
0
DICTIONARY
5
1A
330
C
100
AcDbDictionary
0
DICTIONARY
5
17
100
AcDbDictionary
0
ENDSEC
0
EOF
