0
SECTION
2
HEADER
9
$INSUNITS
70
1
9
$ACADVER
1
AC1014
9
$HANDSEED
5
FFFF
0
ENDSEC
0
SECTION
2
TABLES
0
TABLE
2
VPORT
5
8
100
AcDbSymbolTable
0
ENDTAB
0
TABLE
2
LTYPE
5
5
100
AcDbSymbolTable
0
LTYPE
5
14
100
AcDbSymbolTableRecord
100
AcDbLinetypeTableRecord
2
BYBLOCK
70
0
0
LTYPE
5
15
100
AcDbSymbolTableRecord
100
AcDbLinetypeTableRecord
2
BYLAYER
70
0
0
ENDTAB
0
TABLE
2
LAYER
5
2
100
AcDbSymbolTable
70
2
0
LAYER
5
50
100
AcDbSymbolTableRecord
100
AcDbLayerTableRecord
2
0
70
0
6
CONTINUOUS
0
ENDTAB
0
TABLE
2
STYLE
5
3
100
AcDbSymbolTable
70
1
0
STYLE
5
11
100
AcDbSymbolTableRecord
100
AcDbTextStyleTableRecord
2
STANDARD
70
0
0
ENDTAB
0
TABLE
2
VIEW
5
6
100
AcDbSymbolTable
70
0
0
ENDTAB
0
TABLE
2
UCS
5
7
100
AcDbSymbolTable
70
0
0
ENDTAB
0
TABLE
2
APPID
5
9
100
AcDbSymbolTable
70
2
0
APPID
5
12
100
AcDbSymbolTableRecord
100
AcDbRegAppTableRecord
2
ACAD
70
0
0
ENDTAB
0
TABLE
2
DIMSTYLE
5
A
100
AcDbSymbolTable
70
1
0
ENDTAB
0
TABLE
2
BLOCK_RECORD
5
1
100
AcDbSymbolTable
70
1
0
BLOCK_RECORD
5
1F
100
AcDbSymbolTableRecord
100
AcDbBlockTableRecord
2
*MODEL_SPACE
0
BLOCK_RECORD
5
1B
100
AcDbSymbolTableRecord
100
AcDbBlockTableRecord
2
*PAPER_SPACE
0
ENDTAB
0
ENDSEC
0
SECTION
2
BLOCKS
0
BLOCK
5
20
100
AcDbEntity
100
AcDbBlockBegin
2
*MODEL_SPACE
0
ENDBLK
5
21
100
AcDbEntity
100
AcDbBlockEnd
0
BLOCK
5
1C
100
AcDbEntity
100
AcDbBlockBegin
2
*PAPER_SPACE
0
ENDBLK
5
1D
100
AcDbEntity
100
AcDbBlockEnd
0
ENDSEC
0
SECTION
2
ENTITIES
0
CIRCLE
5
100
100
AcDbEntity
8
0
100
AcDbCircle
10
1.8561771484585068
20
2.4843750629024521
30
0
40
0.099749999999999714
210
-5.8774717541114258e-39
220
-3.9158740111641547e-39
230
1
0
CIRCLE
5
101
100
AcDbEntity
8
0
100
AcDbCircle
10
1.8561771484585132
20
0.79687506290245569
30
0
40
0.099749999999999714
210
-5.8774717541114258e-39
220
-3.9158740111641547e-39
230
1
0
CIRCLE
5
102
100
AcDbEntity
8
0
100
AcDbCircle
10
1.8561771484585086
20
1.9218750629024535
30
0
40
0.099749999999999714
210
-5.8774717541114258e-39
220
-3.9158740111641547e-39
230
1
0
CIRCLE
5
103
100
AcDbEntity
8
0
100
AcDbCircle
10
0.35617714564254327
20
1.9218750629024481
30
0
40
0.099750000000000061
210
1.2051386224216989e-53
220
-3.9158740111641365e-39
230
1
0
CIRCLE
5
104
100
AcDbEntity
8
0
100
AcDbCircle
10
1.8561771484585115
20
1.3593750629024546
30
0
40
0.099749999999999714
210
-5.8774717541114258e-39
220
-3.9158740111641547e-39
230
1
0
CIRCLE
5
105
100
AcDbEntity
8
0
100
AcDbCircle
10
-0.21882285154148146
20
-0.70000002259527028
30
0
40
0.082000000000000087
210
4.3053615144159019e-39
220
-3.3087224502121151e-24
230
1
0
SPLINE
5
106
100
AcDbEntity
8
0
100
AcDbSpline
70
0
71
3
72
14
73
10
74
0
42
0.000000001
43
0.0000000001
44
0.0000000001
40
-0.16667201186970892
40
-0.16667201186970892
40
-0.16667201186970892
40
-0.16667201186970892
40
-0.11434341100994211
40
-0.11434341100994211
40
-0.11434341100994211
40
-0.062014810150175653
40
-0.062014810150175653
40
-0.062014810150175653
40
0
40
0
40
0
40
0
10
-4.1241096933158685
20
4.3925541283453091
30
0
10
-4.1269939469065644
20
4.3975498021063073
30
0
10
-4.130681939724397
20
4.4020361258960703
30
0
10
-4.1350251662647475
20
4.4058324475790895
30
0
10
-4.1393683928050979
20
4.4096287692621088
30
0
10
-4.1443077632738667
20
4.412683439709677
30
0
10
-4.1496443825700586
20
4.4148734555975802
30
0
10
-4.1559688289924663
20
4.4174688511801659
30
0
10
-4.1627397487302806
20
4.4188041283453083
30
0
10
-4.1695760270145517
20
4.4188041283453083
30
0
0
LINE
5
107
100
AcDbEntity
8
0
100
AcDbLine
10
-4.1695760270145517
20
4.4188041283453083
30
0
11
-4.3013228515414967
21
4.4188041283453083
31
0
0
LINE
5
108
100
AcDbEntity
8
0
100
AcDbLine
10
-4.3013228515414967
20
4.4188041283453083
30
0
11
-4.3013228515414941
21
3.4388041283453079
31
-2.3201828223109529e-61
0
LINE
5
109
100
AcDbEntity
8
0
100
AcDbLine
10
-4.3013228515414941
20
3.4388041283453079
30
-2.3201828223109529e-61
11
-4.1695760270145481
21
3.4388041283453101
31
8.0988784013346567e-39
0
SPLINE
5
110
100
AcDbEntity
8
0
100
AcDbSpline
70
0
71
3
72
14
73
10
74
0
42
0.000000001
43
0.0000000001
44
0.0000000001
40
-0.16667201186970837
40
-0.16667201186970837
40
-0.16667201186970837
40
-0.16667201186970837
40
-0.11434341100994209
40
-0.11434341100994209
40
-0.11434341100994209
40
-0.062014810150175757
40
-0.062014810150175757
40
-0.062014810150175757
40
0
40
0
40
0
40
0
10
-4.1695760270145481
20
3.4388041283453092
30
0
10
-4.1638075198331563
20
3.4388041283453092
30
0
10
-4.1580782530527021
20
3.4397548619196461
30
0
10
-4.1526189287640953
20
3.4416180455964693
30
0
10
-4.1471596044754868
20
3.4434812292732948
30
1.7483827159451283e-16
10
-4.1420444970333197
20
3.4462315143541673
30
0
10
-4.1374795779916065
20
3.4497581542910432
30
0
10
-4.1320696762730149
20
3.4539375877664296
30
0
10
-4.127527832458
20
3.4591337376837901
30
1.7483827159451283e-16
10
-4.124109693315865
20
3.4650541283453093
30
0
0
ARC
5
111
100
AcDbEntity
8
0
100
AcDbCircle
10
-4.0613228515414939
20
3.4288041283453103
30
-1.3558390180805788e-41
40
0.072500000000000564
210
1.1460866178800938e-25
220
1.1219931269096583e-24
230
1
100
AcDbArc
50
-60.000000000000341
51
150.00000000000043
0
ARC
5
112
100
AcDbEntity
8
0
100
AcDbCircle
10
-3.9988228515414912
20
3.3205509528722534
30
0
40
0.052500000000002586
210
2.0976707497046481e-24
220
-2.4695159799011708e-25
230
1
100
AcDbArc
50
120.00000000000186
51
180
0
LINE
5
113
100
AcDbEntity
8
0
100
AcDbLine
10
-4.0513228515414941
20
3.3205509528722539
30
-5.4028921261630653e-26
11
-4.0513228515414923
21
3.037057303818365
31
6.5132331697085445e-25
0
ARC
5
114
100
AcDbEntity
8
0
100
AcDbCircle
10
-3.9988228515414903
20
3.0370573038183659
30
0
40
0.052500000000002128
210
1.2406158418491964e-23
220
-2.4644259043997459e-36
230
1
100
AcDbArc
50
180
51
239.99999999999983
0
ARC
5
115
100
AcDbEntity
8
0
100
AcDbCircle
10
-4.0613228515414912
20
2.928804128345309
30
-3.6155707148815435e-41
40
0.072500000000000911
210
5.2819896806433314e-25
220
3.2710713988764533e-24
230
1
100
AcDbArc
50
-150.00000000000023
51
60.000000000000313
0
SPLINE
5
116
100
AcDbEntity
8
0
100
AcDbSpline
70
0
71
3
72
14
73
10
74
0
42
0.000000001
43
0.0000000001
44
0.0000000001
40
-0.16667201186970959
40
-0.16667201186970959
40
-0.16667201186970959
40
-0.16667201186970959
40
-0.11434341100994289
40
-0.11434341100994289
40
-0.11434341100994289
40
-0.06201481015017344
40
-0.06201481015017344
40
-0.06201481015017344
40
0
40
0
40
0
40
0
10
-4.1241096933158632
20
2.8925541283453091
30
0
10
-4.12699394690656
20
2.8975498021063073
30
0
10
-4.1306819397243926
20
2.9020361258960707
30
0
10
-4.135025166264743
20
2.90583244757909
30
0
10
-4.1393683928050926
20
2.9096287692621088
30
0
10
-4.1443077632738623
20
2.912683439709677
30
1.7483827159451283e-16
10
-4.1496443825700551
20
2.9148734555975819
30
0
10
-4.1559688289924628
20
2.9174688511801667
30
0
10
-4.1627397487302762
20
2.9188041283453088
30
0
10
-4.1695760270145472
20
2.9188041283453088
30
0
0
LINE
5
117
100
AcDbEntity
8
0
100
AcDbLine
10
-4.1695760270145472
20
2.9188041283453088
30
0
11
-4.3013228515414923
21
2.9188041283453079
31
0
0
LINE
5
118
100
AcDbEntity
8
0
100
AcDbLine
10
-4.3013228515414923
20
2.9188041283453079
30
0
11
-4.3013228515414887
21
1.7600000030631251
31
2.6052932678835515e-24
0
LINE
5
119
100
AcDbEntity
8
0
100
AcDbLine
10
-4.3013228515414887
20
1.7600000030631251
30
2.6052932678835515e-24
11
-4.1695760270145419
21
1.7600000030631278
31
1.1569826287620939e-39
0
SPLINE
5
120
100
AcDbEntity
8
0
100
AcDbSpline
70
0
71
3
72
14
73
10
74
0
42
0.000000001
43
0.0000000001
44
0.0000000001
40
-0.16667201186970648
40
-0.16667201186970648
40
-0.16667201186970648
40
-0.16667201186970648
40
-0.1143434110099403
40
-0.1143434110099403
40
-0.1143434110099403
40
-0.062014810150175258
40
-0.062014810150175258
40
-0.062014810150175258
40
0
40
0
40
0
40
0
10
-4.1695760270145419
20
1.7600000030631278
30
0
10
-4.1638075198331501
20
1.7600000030631278
30
0
10
-4.1580782530526967
20
1.7609507366374639
30
0
10
-4.1526189287640882
20
1.7628139203142887
30
0
10
-4.1471596044754824
20
1.7646771039911131
30
0
10
-4.1420444970333152
20
1.7674273890719858
30
0
10
-4.1374795779916012
20
1.7709540290088617
30
0
10
-4.1320696762730087
20
1.7751334624842479
30
0
10
-4.1275278324579956
20
1.7803296124016084
30
0
10
-4.1241096933158596
20
1.7862500030631272
30
0
0
ARC
5
121
100
AcDbEntity
8
0
100
AcDbCircle
10
-4.0613228515414876
20
1.7500000030631266
30
-3.6155707148815435e-41
40
0.072499999999999301
210
1.1460866178824542e-25
220
1.1219931269098123e-24
230
1
100
AcDbArc
50
-60.00000000000059
51
149.99999999999972
0
ARC
5
122
100
AcDbEntity
8
0
100
AcDbCircle
10
-3.9988228515414899
20
1.6417468275900724
30
0
40
0.052499999999998964
210
2.0976707497065472e-24
220
-2.4695159798922292e-25
230
1
100
AcDbArc
50
119.99999999999905
51
180
0
LINE
5
123
100
AcDbEntity
8
0
100
AcDbLine
10
-4.0513228515414879
20
1.6417468275900717
30
-2.223816390183008e-26
11
-4.0513228515414879
21
1.3582531785361809
31
2.4721483234836069e-63
0
ARC
5
124
100
AcDbEntity
8
0
100
AcDbCircle
10
-3.9988228515414868
20
1.3582531785361818
30
0
40
0.052500000000000727
210
2.0066196213292284e-50
220
-1.0042378894771018e-36
230
1
100
AcDbArc
50
180
51
239.99999999999912
0
ARC
5
125
100
AcDbEntity
8
0
100
AcDbCircle
10
-4.0613228515414868
20
1.2500000030631269
30
-4.5194633936019293e-42
40
0.072499999999999523
210
1.6443674570618011e-24
220
1.3378108661253678e-24
230
1
100
AcDbArc
50
-149.99999999999966
51
60.000000000000675
0
SPLINE
5
126
100
AcDbEntity
8
0
100
AcDbSpline
70
0
71
3
72
14
73
10
74
0
42
0.000000001
43
0.0000000001
44
0.0000000001
40
-0.16667201186970923
40
-0.16667201186970923
40
-0.16667201186970923
40
-0.16667201186970923
40
-0.11434341100994244
40
-0.11434341100994244
40
-0.11434341100994244
40
-0.062014810150175709
40
-0.062014810150175709
40
-0.062014810150175709
40
0
40
0
40
0
40
0
10
-4.1241096933158587
20
1.2137500030631265
30
0
10
-4.1269939469065546
20
1.2187456768241252
30
0
10
-4.1306819397243872
20
1.2232320006138884
30
0
10
-4.1350251662647377
20
1.2270283222969074
30
0
10
-4.1393683928050882
20
1.2308246439799264
30
0
10
-4.144307763273857
20
1.2338793144274942
30
0
10
-4.1496443825700489
20
1.2360693303153991
30
0
10
-4.1559688289924557
20
1.2386647258979839
30
0
10
-4.1627397487302709
20
1.2400000030631266
30
0
10
-4.1695760270145419
20
1.2400000030631266
30
0
0
LINE
5
127
100
AcDbEntity
8
0
100
AcDbLine
10
-4.1695760270145419
20
1.2400000030631266
30
0
11
-4.301322851541487
21
1.2400000030631262
31
0
0
LINE
5
128
100
AcDbEntity
8
0
100
AcDbLine
10
-4.301322851541487
20
1.2400000030631262
30
0
11
-4.3013228515414843
21
0.26000000306312598
31
-2.3201822865229168e-61
0
LINE
5
129
100
AcDbEntity
8
0
100
AcDbLine
10
-4.3013228515414843
20
0.26000000306312598
30
-2.3201822865229168e-61
11
-4.1695760270145383
21
0.26000000306312682
31
1.1569826287620939e-39
0
SPLINE
5
130
100
AcDbEntity
8
0
100
AcDbSpline
70
0
71
3
72
14
73
10
74
0
42
0.000000001
43
0.0000000001
44
0.0000000001
40
-0.16667201186970884
40
-0.16667201186970884
40
-0.16667201186970884
40
-0.16667201186970884
40
-0.11434341100994275
40
-0.11434341100994275
40
-0.11434341100994275
40
-0.062014810150175452
40
-0.062014810150175452
40
-0.062014810150175452
40
0
40
0
40
0
40
0
10
-4.1695760270145383
20
0.26000000306312682
30
0
10
-4.1638075198331475
20
0.26000000306312687
30
0
10
-4.1580782530526932
20
0.26095073663746304
30
0
10
-4.1526189287640856
20
0.2628139203142878
30
0
10
-4.1471596044754779
20
0.26467710399111272
30
1.7483827159451283e-16
10
-4.1420444970333108
20
0.26742738907198488
30
0
10
-4.1374795779915976
20
0.27095402900886134
30
0
10
-4.1320696762730051
20
0.27513346248424725
30
0
10
-4.1275278324579912
20
0.28032961240160809
30
1.7483827159451283e-16
10
-4.1241096933158561
20
0.28625000306312681
30
0
0
ARC
5
131
100
AcDbEntity
8
0
100
AcDbCircle
10
-4.0613228515414841
20
0.25000000306312714
30
1.7625907235047525e-40
40
0.072499999999999482
210
9.4178927434105223e-25
220
-3.1072572106819617e-25
230
1
100
AcDbArc
50
-59.999999999999879
51
150.00000000000031
0
ARC
5
132
100
AcDbEntity
8
0
100
AcDbCircle
10
-3.9988228515414841
20
0.14174682759007301
30
0
40
0.052499999999999838
210
-4.7734513465474969e-25
220
9.0438429380777358e-25
230
1
100
AcDbArc
50
120.00000000000023
51
180
0
LINE
5
133
100
AcDbEntity
8
0
100
AcDbLine
10
-4.0513228515414834
20
0.1417468275900727
30
-6.5665146060865231e-26
11
-4.0513228515414825
21
-0.24953064983030293
31
-4.0119550971673182e-61
0
ARC
5
134
100
AcDbEntity
8
0
100
AcDbCircle
10
-4.1494576191150925
20
-0.74999999693692865
30
1.7483827159451815e-16
40
0.5100000000000573
210
1.301225823050767e-24
220
2.8353717111455061e-24
230
1
100
AcDbArc
50
70.006384344140557
51
78.905888589291251
0
LINE
5
135
100
AcDbEntity
8
0
100
AcDbLine
10
-3.9750807481336481
20
-0.27073732692519153
30
1.7483827000872664e-16
11
-1.9982373684771206
21
-0.99000002885116445
31
5.9594664686257959e-25
0
LINE
5
136
100
AcDbEntity
8
0
100
AcDbLine
10
-1.9982373684771206
20
-0.99000002885116445
30
5.9594664686257959e-25
11
-0.019408334605840082
21
-0.99000002885115834
31
0
0
LINE
5
137
100
AcDbEntity
8
0
100
AcDbLine
10
-0.019408334605840082
20
-0.99000002885115834
30
0
11
1.9574350450506826
21
-0.27073732692517316
31
5.9594664686259814e-25
0
ARC
5
138
100
AcDbEntity
8
0
100
AcDbCircle
10
2.1318119160321145
20
-0.7499999969368536
30
1.7483827159451283e-16
40
0.5099999999999999
210
1.6991995468344215e-25
220
2.7394659572083736e-25
230
1
100
AcDbArc
50
101.09411141070849
51
109.99361565586031
0
LINE
5
139
100
AcDbEntity
8
0
100
AcDbLine
10
2.0336771484585179
20
-0.24953064983028395
30
1.7483827147408601e-16
11
2.0336771484585161
21
0.14174682759009161
31
4.0119550971673182e-61
0
ARC
5
140
100
AcDbEntity
8
0
100
AcDbCircle
10
1.9811771484585166
20
0.14174682759009158
30
-1.2835276037829479e-39
40
0.052499999999999679
210
-2.4965803367575037e-38
220
6.2176485198304873e-25
230
1
100
AcDbArc
50
0
51
60.000000000000341
0
ARC
5
141
100
AcDbEntity
8
0
100
AcDbCircle
10
2.0436771484585159
20
0.25000000306314624
30
0
40
0.072499999999999717
210
1.3553795806175494e-24
220
1.838352550898441e-24
230
1
100
AcDbArc
50
30.000000000000057
51
240.00000000000011
0
SPLINE
5
142
100
AcDbEntity
8
0
100
AcDbSpline
70
0
71
3
72
14
73
10
74
0
42
0.000000001
43
0.0000000001
44
0.0000000001
40
-0.16667201186970884
40
-0.16667201186970884
40
-0.16667201186970884
40
-0.16667201186970884
40
-0.11434341100994275
40
-0.11434341100994275
40
-0.11434341100994275
40
-0.062014810150175452
40
-0.062014810150175452
40
-0.062014810150175452
40
0
40
0
40
0
40
0
10
2.1519303239315706
20
0.26000000306314641
30
0
10
2.1461618167501793
20
0.26000000306314641
30
0
10
2.140432549969725
20
0.26095073663748258
30
0
10
2.1349732256811174
20
0.26281392031430728
30
0
10
2.1295139013925102
20
0.26467710399113215
30
1.7483827159451283e-16
10
2.124398793950343
20
0.26742738907200436
30
0
10
2.1198338749086294
20
0.27095402900888077
30
0
10
2.1144239731900374
20
0.27513346248426657
30
0
10
2.109882129375023
20
0.28032961240162746
30
1.7483827159451283e-16
10
2.1064639902328874
20
0.28625000306314613
30
0
0
LINE
5
143
100
AcDbEntity
8
0
100
AcDbLine
10
2.1519303239315706
20
0.26000000306314641
30
0
11
2.2836771484585157
21
0.26000000306314658
31
1.1569826287620939e-39
0
LINE
5
144
100
AcDbEntity
8
0
100
AcDbLine
10
2.2836771484585157
20
0.26000000306314658
30
1.1569826287620939e-39
11
2.283677148458513
21
1.2400000030631466
31
2.3201822865229168e-61
0
LINE
5
145
100
AcDbEntity
8
0
100
AcDbLine
10
2.283677148458513
20
1.2400000030631466
30
2.3201822865229168e-61
11
2.1519303239315675
21
1.2400000030631464
31
-1.1569826287620939e-39
0
SPLINE
5
146
100
AcDbEntity
8
0
100
AcDbSpline
70
0
71
3
72
14
73
10
74
0
42
0.000000001
43
0.0000000001
44
0.0000000001
40
-0.16667201186970923
40
-0.16667201186970923
40
-0.16667201186970923
40
-0.16667201186970923
40
-0.11434341100994244
40
-0.11434341100994244
40
-0.11434341100994244
40
-0.062014810150175709
40
-0.062014810150175709
40
-0.062014810150175709
40
0
40
0
40
0
40
0
10
2.1064639902328848
20
1.2137500030631458
30
0
10
2.1093482438235811
20
1.2187456768241445
30
0
10
2.1130362366414137
20
1.2232320006139079
30
0
10
2.1173794631817633
20
1.2270283222969269
30
0
10
2.1217226897221138
20
1.2308246439799457
30
0
10
2.1266620601908826
20
1.2338793144275138
30
0
10
2.1319986794870744
20
1.2360693303154187
30
0
10
2.1383231259094813
20
1.2386647258980035
30
0
10
2.1450940456472964
20
1.2400000030631464
30
0
10
2.1519303239315675
20
1.2400000030631464
30
0
0
ARC
5
147
100
AcDbEntity
8
0
100
AcDbCircle
10
2.0436771484585119
20
1.250000003063146
30
0
40
0.072500000000000564
210
-1.8563029222985713e-24
220
-1.5913206711501809e-26
230
1
100
AcDbArc
50
119.99999999999969
51
330.00000000000034
0
ARC
5
148
100
AcDbEntity
8
0
100
AcDbCircle
10
1.9811771484585103
20
1.3582531785362011
30
-2.9851983432339703e-52
40
0.052500000000000539
210
6.3135086610899826e-25
220
-1.0935317775025066e-24
230
1
100
AcDbArc
50
300.00000000000171
51
360
0
LINE
5
149
100
AcDbEntity
8
0
100
AcDbLine
10
2.0336771484585126
20
1.3582531785362002
30
-6.1713453418164472e-40
11
2.0336771484585117
21
1.6417468275900913
31
-2.4721483234836069e-63
0
ARC
5
150
100
AcDbEntity
8
0
100
AcDbCircle
10
1.9811771484585139
20
1.6417468275900911
30
-4.338684857857852e-39
40
0.05249999999999793
210
-9.6323429029075705e-38
220
2.0541702901133174e-24
230
1
100
AcDbArc
50
0
51
60.000000000001407
0
ARC
5
151
100
AcDbEntity
8
0
100
AcDbCircle
10
2.0436771484585106
20
1.7500000030631455
30
0
40
0.07249999999999987
210
1.1460866178822786e-25
220
1.1219931269090886e-24
230
1
100
AcDbArc
50
30.000000000000806
51
240.00000000000111
0
SPLINE
5
152
100
AcDbEntity
8
0
100
AcDbSpline
70
0
71
3
72
14
73
10
74
0
42
0.000000001
43
0.0000000001
44
0.0000000001
40
-0.16667201186970648
40
-0.16667201186970648
40
-0.16667201186970648
40
-0.16667201186970648
40
-0.1143434110099403
40
-0.1143434110099403
40
-0.1143434110099403
40
-0.062014810150175258
40
-0.062014810150175258
40
-0.062014810150175258
40
0
40
0
40
0
40
0
10
2.1519303239315635
20
1.7600000030631473
30
0
10
2.1461618167501717
20
1.7600000030631473
30
0
10
2.1404325499697183
20
1.7609507366374835
30
0
10
2.1349732256811103
20
1.7628139203143083
30
0
10
2.129513901392504
20
1.7646771039911324
30
0
10
2.1243987939503368
20
1.7674273890720047
30
0
10
2.1198338749086227
20
1.7709540290088805
30
0
10
2.1144239731900307
20
1.7751334624842667
30
0
10
2.1098821293750172
20
1.7803296124016275
30
0
10
2.1064639902328817
20
1.7862500030631461
30
0
0
LINE
5
153
100
AcDbEntity
8
0
100
AcDbLine
10
2.1519303239315635
20
1.7600000030631473
30
0
11
2.2836771484585108
21
1.7600000030631455
31
-3.4709478862862817e-39
0
LINE
5
154
100
AcDbEntity
8
0
100
AcDbLine
10
2.2836771484585108
20
1.7600000030631455
30
-3.4709478862862817e-39
11
2.2836771484585072
21
2.9188041283453288
31
-1.1361042403072402e-61
0
LINE
5
155
100
AcDbEntity
8
0
100
AcDbLine
10
2.2836771484585072
20
2.9188041283453288
30
-1.1361042403072402e-61
11
2.1519303239315617
21
2.9188041283453288
31
0
0
SPLINE
5
156
100
AcDbEntity
8
0
100
AcDbSpline
70
0
71
3
72
14
73
10
74
0
42
0.000000001
43
0.0000000001
44
0.0000000001
40
-0.16667201186970959
40
-0.16667201186970959
40
-0.16667201186970959
40
-0.16667201186970959
40
-0.11434341100994289
40
-0.11434341100994289
40
-0.11434341100994289
40
-0.06201481015017344
40
-0.06201481015017344
40
-0.06201481015017344
40
0
40
0
40
0
40
0
10
2.106463990232879
20
2.8925541283453278
30
0
10
2.1093482438235753
20
2.8975498021063264
30
0
10
2.1130362366414079
20
2.9020361258960898
30
0
10
2.1173794631817584
20
2.9058324475791091
30
0
10
2.1217226897221084
20
2.9096287692621274
30
0
10
2.1266620601908777
20
2.9126834397096966
30
1.7483827159451283e-16
10
2.1319986794870704
20
2.914873455597601
30
0
10
2.1383231259094777
20
2.9174688511801858
30
0
10
2.1450940456472907
20
2.9188041283453288
30
0
10
2.1519303239315617
20
2.9188041283453288
30
0
0
ARC
5
157
100
AcDbEntity
8
0
100
AcDbCircle
10
2.0436771484585061
20
2.9288041283453277
30
0
40
0.072500000000000439
210
5.2819896806435693e-25
220
3.2710713988762329e-24
230
1
100
AcDbArc
50
119.99999999999986
51
330.00000000000045
0
ARC
5
158
100
AcDbEntity
8
0
100
AcDbCircle
10
1.981177148458505
20
3.0370573038183846
30
-2.2416538432265571e-39
40
0.052500000000002003
210
1.7736479024926821e-24
220
-3.0720482818518315e-24
230
1
100
AcDbArc
50
300.00000000000011
51
360
0
LINE
5
159
100
AcDbEntity
8
0
100
AcDbLine
10
2.0336771484585072
20
3.0370573038183837
30
-9.7620409301801671e-40
11
2.0336771484585068
21
3.320550952872273
31
-6.5132331697092131e-25
0
ARC
5
160
100
AcDbEntity
8
0
100
AcDbCircle
10
1.9811771484585037
20
3.3205509528722703
30
1.084671214464463e-40
40
0.052500000000003176
210
1.2406158418492839e-23
220
2.8813509026713902e-24
230
1
100
AcDbArc
50
0
51
59.999999999999112
0
ARC
5
161
100
AcDbEntity
8
0
100
AcDbCircle
10
2.0436771484585057
20
3.4288041283453286
30
0
40
0.072499999999999704
210
9.4178927434103185e-25
220
-3.1072572106827616e-25
230
1
100
AcDbArc
50
30.000000000000501
51
240.00000000000063
0
SPLINE
5
162
100
AcDbEntity
8
0
100
AcDbSpline
70
0
71
3
72
14
73
10
74
0
42
0.000000001
43
0.0000000001
44
0.0000000001
40
-0.16667201186970837
40
-0.16667201186970837
40
-0.16667201186970837
40
-0.16667201186970837
40
-0.11434341100994209
40
-0.11434341100994209
40
-0.11434341100994209
40
-0.062014810150175757
40
-0.062014810150175757
40
-0.062014810150175757
40
0
40
0
40
0
40
0
10
2.1519303239315599
20
3.4388041283453288
30
0
10
2.1461618167501681
20
3.4388041283453288
30
0
10
2.1404325499697143
20
3.4397548619196656
30
0
10
2.1349732256811076
20
3.4416180455964893
30
0
10
2.1295139013924986
20
3.4434812292733148
30
1.7483827159451283e-16
10
2.124398793950331
20
3.4462315143541868
30
0
10
2.1198338749086183
20
3.4497581542910627
30
0
10
2.1144239731900258
20
3.4539375877664491
30
0
10
2.1098821293750118
20
3.4591337376838096
30
1.7483827159451283e-16
10
2.1064639902328763
20
3.4650541283453289
30
0
0
LINE
5
163
100
AcDbEntity
8
0
100
AcDbLine
10
2.1519303239315599
20
3.4388041283453288
30
0
11
2.2836771484585059
21
3.4388041283453283
31
3.4709478862862817e-39
0
LINE
5
164
100
AcDbEntity
8
0
100
AcDbLine
10
2.2836771484585059
20
3.4388041283453283
30
3.4709478862862817e-39
11
2.2836771484585028
21
4.4188041283453297
31
2.3201828223109529e-61
0
LINE
5
165
100
AcDbEntity
8
0
100
AcDbLine
10
2.2836771484585028
20
4.4188041283453297
30
2.3201828223109529e-61
11
2.1519303239315573
21
4.4188041283453279
31
0
0
SPLINE
5
166
100
AcDbEntity
8
0
100
AcDbSpline
70
0
71
3
72
14
73
10
74
0
42
0.000000001
43
0.0000000001
44
0.0000000001
40
-0.16667201186970892
40
-0.16667201186970892
40
-0.16667201186970892
40
-0.16667201186970892
40
-0.11434341100994211
40
-0.11434341100994211
40
-0.11434341100994211
40
-0.062014810150175653
40
-0.062014810150175653
40
-0.062014810150175653
40
0
40
0
40
0
40
0
10
2.1064639902328741
20
4.3925541283453287
30
0
10
2.1093482438235709
20
4.3975498021063268
30
0
10
2.1130362366414031
20
4.4020361258960898
30
0
10
2.117379463181754
20
4.40583244757911
30
0
10
2.1217226897221035
20
4.4096287692621283
30
0
10
2.1266620601908728
20
4.4126834397096966
30
0
10
2.1319986794870647
20
4.4148734555975997
30
0
10
2.1383231259094719
20
4.4174688511801854
30
0
10
2.1450940456472862
20
4.4188041283453279
30
0
10
2.1519303239315573
20
4.4188041283453279
30
0
0
ARC
5
167
100
AcDbEntity
8
0
100
AcDbCircle
10
2.0436771484585026
20
4.4288041283453277
30
0
40
0.072500000000000134
210
-7.1257195076494085e-25
220
2.5547119748873921e-24
230
1
100
AcDbArc
50
120.00000000000017
51
330.00000000000063
0
ARC
5
168
100
AcDbEntity
8
0
100
AcDbCircle
10
1.9811771484585026
20
4.5370573038183819
30
6.8438626388771914e-52
40
0.052499999999999186
210
1.7736479024918193e-24
220
-3.0720482818524556e-24
230
1
100
AcDbArc
50
-59.999999999999879
51
0
0
LINE
5
169
100
AcDbEntity
8
0
100
AcDbLine
10
2.0336771484585023
20
4.5370573038183819
30
6.1713453418186568e-40
11
2.0336771484585014
21
4.9188041283453279
31
-4.6331728688320628e-62
0
LINE
5
170
100
AcDbEntity
8
0
100
AcDbLine
10
2.0336771484585014
20
4.9188041283453279
30
-4.6331728688320628e-62
11
0.17867714845850091
21
4.9188041283453225
31
2.0442679788292288e-33
0
LINE
5
171
100
AcDbEntity
8
0
100
AcDbLine
10
-2.1963228515414981
20
4.9188041283453146
30
0
11
-4.0513228515414985
21
4.9188041283453083
31
-7.2377686262606364e-33
0
LINE
5
172
100
AcDbEntity
8
0
100
AcDbLine
10
-4.0513228515414985
20
4.9188041283453083
30
-7.2377686262606364e-33
11
-4.0513228515414967
21
4.5370573038183624
31
4.6331728688320628e-62
0
ARC
5
173
100
AcDbEntity
8
0
100
AcDbCircle
10
-3.9988228515414961
20
4.5370573038183641
30
0
40
0.052500000000000727
210
6.0283043836206121e-51
220
-2.262705250453925e-37
230
1
100
AcDbArc
50
180
51
240.00000000000003
0
ARC
5
174
100
AcDbEntity
8
0
100
AcDbCircle
10
-4.0613228515414974
20
4.428804128345309
30
-3.2540136433933893e-40
40
0.072499999999999704
210
-4.5718510994054822e-25
220
7.9186783888098294e-25
230
1
100
AcDbArc
50
-149.9999999999998
51
59.999999999999183
0
CIRCLE
5
175
100
AcDbEntity
8
0
100
AcDbCircle
10
-1.798822851541481
20
-0.70000002259527516
30
0
40
0.082000000000000087
210
9.9117878280096171e-39
220
-3.3087224502121114e-24
230
1
0
CIRCLE
5
176
100
AcDbEntity
8
0
100
AcDbCircle
10
-3.8738228515414868
20
1.3593750629024368
30
0
40
0.099749999999999714
210
1.7888840056774157e-69
220
-5.9715974283509377e-55
230
1
0
CIRCLE
5
177
100
AcDbEntity
8
0
100
AcDbCircle
10
-3.8738228515414872
20
1.9218750629024357
30
0
40
0.099749999999999714
210
1.7888840056774157e-69
220
-5.9715974283509377e-55
230
1
0
CIRCLE
5
178
100
AcDbEntity
8
0
100
AcDbCircle
10
-3.8738228515414845
20
0.79687506290243804
30
0
40
0.099749999999999714
210
1.7888840056774157e-69
220
-5.9715974283509377e-55
230
1
0
CIRCLE
5
179
100
AcDbEntity
8
0
100
AcDbCircle
10
-3.8738228515414894
20
2.4843750629024339
30
0
40
0.099749999999999714
210
1.7888840056774157e-69
220
-5.9715974283509377e-55
230
1
0
LINE
5
180
100
AcDbEntity
8
0
100
AcDbLine
10
-2.1963228515414981
20
4.9188041283453146
30
1.1894970510627083e-61
11
0.17867714845850116
21
4.9188041283453225
31
2.7524986972691418e-32
0
CIRCLE
5
181
100
AcDbEntity
8
0
100
AcDbCircle
10
0.35617714564254699
20
0.79687506290245091
30
0
40
0.099750000000000061
210
3.0694757795924951e-53
220
-9.6025107528780442e-39
230
1
0
CIRCLE
5
182
100
AcDbEntity
8
0
100
AcDbCircle
10
0.3561771456425416
20
2.4843750629024473
30
0
40
0.099750000000000061
210
3.0694757795924951e-53
220
-9.6025107528780442e-39
230
1
0
CIRCLE
5
183
100
AcDbEntity
8
0
100
AcDbCircle
10
0.35617714564254499
20
1.3593750629024499
30
0
40
0.099750000000000061
210
3.0694757795924951e-53
220
-9.6025107528780442e-39
230
1
0
SPLINE
5
184
100
AcDbEntity
8
0
100
AcDbSpline
70
0
71
3
72
14
73
10
74
0
42
0.000000001
43
0.0000000001
44
0.0000000001
40
-0.16667201186969732
40
-0.16667201186969732
40
-0.16667201186969732
40
-0.16667201186969732
40
-0.11434341100993585
40
-0.11434341100993585
40
-0.11434341100993585
40
-0.062014810150174092
40
-0.062014810150174092
40
-0.062014810150174092
40
0
40
0
40
0
40
0
10
0.060424042641256136
20
1.2400000030631391
30
0
10
0.066192549822647204
20
1.2400000030631391
30
0
10
0.071921816603100916
20
1.2390492694888031
30
0
10
0.077381140891707792
20
1.2371860858119788
30
1.7483827159451283e-16
10
0.082840465180314654
20
1.2353229021351544
30
0
10
0.087955572622481784
20
1.232572617054283
30
0
10
0.092520491664195043
20
1.2290459771174072
30
0
10
0.097930393382787459
20
1.2248665436420216
30
0
10
0.10247223719780121
20
1.2196703937246614
30
0
10
0.10589037633993677
20
1.213750003063143
30
0
0
LINE
5
185
100
AcDbEntity
8
0
100
AcDbLine
10
0.060424042641256136
20
1.2400000030631391
30
0
11
0.026930393587357573
21
1.2400000030631388
31
0
0
SPLINE
5
186
100
AcDbEntity
8
0
100
AcDbSpline
70
0
71
3
72
14
73
10
74
0
42
0.000000001
43
0.0000000001
44
0.0000000001
40
-0.16667201186969946
40
-0.16667201186969946
40
-0.16667201186969946
40
-0.16667201186969946
40
-0.11434341100993695
40
-0.11434341100993695
40
-0.11434341100993695
40
-0.062014810150174689
40
-0.062014810150174689
40
-0.062014810150174689
40
0
40
0
40
0
40
0
10
-0.018535940111323587
20
1.2137500030631416
30
0
10
-0.01565168652062824
20
1.2187456768241387
30
0
10
-0.011963693702795073
20
1.2232320006139017
30
0
10
-0.0076204671624448229
20
1.2270283222969205
30
0
10
-0.0032772406220945736
20
1.2308246439799393
30
0
10
0.001662129846673546
20
1.2338793144275069
30
0
10
0.0069987491428650872
20
1.2360693303154113
30
0
10
0.013323195565272153
20
1.2386647258979959
30
0
10
0.020094115303086527
20
1.2400000030631388
30
0
10
0.026930393587357573
20
1.2400000030631388
30
0
0
ARC
5
187
100
AcDbEntity
8
0
100
AcDbCircle
10
-0.081322781885693474
20
1.2500000030631446
30
0
40
0.072500000000000037
210
-4.2358459632289301e-25
220
8.1123637489286214e-25
230
1
100
AcDbArc
50
120.00003686712878
51
329.99999999999721
0
ARC
5
188
100
AcDbEntity
8
0
100
AcDbCircle
10
-0.14382285154148788
20
1.3582531383203782
30
1.7483827159451283e-16
40
0.052500000000000255
210
1.6651282525407733e-15
220
-2.8840824487981228e-15
230
1
100
AcDbArc
50
-59.999963132870967
51
0
0
LINE
5
189
100
AcDbEntity
8
0
100
AcDbLine
10
-0.091322851541487907
20
1.3582531383203784
30
1.7483827159451283e-16
11
-0.091322851541488753
21
1.6417468678059091
31
1.7483827159451283e-16
0
ARC
5
190
100
AcDbEntity
8
0
100
AcDbCircle
10
-0.14382285154148988
20
1.6417468678059084
30
8.1350341084834721e-40
40
0.052500000000001122
210
-3.3302527922763638e-15
220
2.0541558942238527e-24
230
1
100
AcDbArc
50
0
51
59.999963132871983
0
ARC
5
191
100
AcDbEntity
8
0
100
AcDbCircle
10
-0.081322781885697776
20
1.7500000030631444
30
0
40
0.072500000000000148
210
-2.0193984316922553e-25
220
2.8813817909975364e-24
230
1
100
AcDbArc
50
29.999999999997193
51
239.99996313287301
0
SPLINE
5
192
100
AcDbEntity
8
0
100
AcDbSpline
70
0
71
3
72
14
73
10
74
0
42
0.000000001
43
0.0000000001
44
0.0000000001
40
-0.16667201186971642
40
-0.16667201186971642
40
-0.16667201186971642
40
-0.16667201186971642
40
-0.11434341100994547
40
-0.11434341100994547
40
-0.11434341100994547
40
-0.062014810150175452
40
-0.062014810150175452
40
-0.062014810150175452
40
0
40
0
40
0
40
0
10
0.02693039358736056
20
1.7600000030631404
30
0
10
0.021161886405968444
20
1.7600000030631404
30
0
10
0.015432619625513335
20
1.7609507366374764
30
0
10
0.0099732953369054168
20
1.7628139203143012
30
0
10
0.0045139710482978495
20
1.764677103991126
30
0
10
-0.00060113639386963759
20
1.7674273890719991
30
0
10
-0.005166055435583585
20
1.7709540290088763
30
0
10
-0.010575957154175307
20
1.7751334624842618
30
0
10
-0.015117800969188711
20
1.7803296124016232
30
0
10
-0.018535940111323902
20
1.7862500030631419
30
0
0
LINE
5
193
100
AcDbEntity
8
0
100
AcDbLine
10
0.02693039358736056
20
1.7600000030631404
30
0
11
0.060424042641243743
21
1.7600000030631404
31
0
0
SPLINE
5
194
100
AcDbEntity
8
0
100
AcDbSpline
70
0
71
3
72
14
73
10
74
0
42
0.000000001
43
0.0000000001
44
0.0000000001
40
-0.16667201186971836
40
-0.16667201186971836
40
-0.16667201186971836
40
-0.16667201186971836
40
-0.11434341100994602
40
-0.11434341100994602
40
-0.11434341100994602
40
-0.062014810150174522
40
-0.062014810150174522
40
-0.062014810150174522
40
0
40
0
40
0
40
0
10
0.10589037633992804
20
1.7862500030631427
30
0
10
0.10300612274923235
20
1.7812543293021443
30
0
10
0.099318129931399171
20
1.77676800551238
30
0
10
0.094974903391047888
20
1.7729716838293601
30
0
10
0.090631676850697632
20
1.7691753621463411
30
0
10
0.085692306381928818
20
1.7661206916987728
30
0
10
0.080355687085735525
20
1.7639306758108675
30
0
10
0.074031240663328807
20
1.7613352802282836
30
0
10
0.067260320925514788
20
1.7600000030631406
30
0
10
0.060424042641243743
20
1.7600000030631406
30
0
0
ARC
5
195
100
AcDbEntity
8
0
100
AcDbCircle
10
0.16867721811430211
20
1.7500000030631473
30
0
40
0.072499999999999939
210
-1.2507646868734867e-24
220
-2.2439862538220178e-24
230
1
100
AcDbArc
50
-60.000036867113018
51
150.00000000000401
0
ARC
5
196
100
AcDbEntity
8
0
100
AcDbCircle
10
0.23117714845851264
20
1.6417467873743317
30
1.7483827159451283e-16
40
0.052500000000001643
210
-1.665124541277061e-15
220
2.884084592140739e-15
230
1
100
AcDbArc
50
119.99996313288683
51
180
0
LINE
5
197
100
AcDbEntity
8
0
100
AcDbLine
10
0.1786771484585114
20
1.6417467873743328
30
1.7483827159451283e-16
11
0.17867714845851257
21
1.358253218751964
31
1.7483827224583615e-16
0
ARC
5
198
100
AcDbEntity
8
0
100
AcDbCircle
10
0.23117714845851159
20
1.3582532187519638
30
1.9885638931848488e-40
40
0.05249999999999902
210
3.330252804682655e-15
220
2.881297833178764e-24
230
1
100
AcDbArc
50
180
51
240.0000368671154
0
ARC
5
199
100
AcDbEntity
8
0
100
AcDbCircle
10
0.16867721811430644
20
1.2500000030631477
30
0
40
0.072500000000000495
210
-1.6818412714426639e-25
220
2.9130345324044587e-25
230
1
100
AcDbArc
50
-149.99999999999591
51
60.000036867115242
0
LINE
5
200
100
AcDbEntity
8
0
100
AcDbLine
10
0.17867714845850091
20
4.9188041283453225
30
2.0442679788292288e-33
11
0.17867714845850199
21
4.5370573440341353
31
-8.5342029949508486e-62
0
ARC
5
201
100
AcDbEntity
8
0
100
AcDbCircle
10
0.23117714845850251
20
4.5370573440341371
30
-5.5137453401943541e-39
40
0.052500000000000505
210
5.0297268376076952e-38
220
2.0541403236884744e-24
230
1
100
AcDbArc
50
180
51
240.00003686710437
0
ARC
5
202
100
AcDbEntity
8
0
100
AcDbCircle
10
0.16867721811427766
20
4.4288041283453303
30
0
40
0.072499999999999731
210
1.2307758290343297e-24
220
2.0541403236879954e-24
230
1
100
AcDbArc
50
-149.99999999999525
51
60.000036867106033
0
SPLINE
5
203
100
AcDbEntity
8
0
100
AcDbSpline
70
0
71
3
72
14
73
10
74
0
42
0.000000001
43
0.0000000001
44
0.0000000001
40
-0.16667201186969796
40
-0.16667201186969796
40
-0.16667201186969796
40
-0.16667201186969796
40
-0.11434341100993634
40
-0.11434341100993634
40
-0.11434341100993634
40
-0.062014810150174807
40
-0.062014810150174807
40
-0.062014810150174807
40
0
40
0
40
0
40
0
10
0.060424042641226687
20
4.4188041283453217
30
0
10
0.066192549822618102
20
4.4188041283453217
30
0
10
0.071921816603071467
20
4.4178533947709857
30
0
10
0.077381140891677982
20
4.4159902110941607
30
1.7483827159451283e-16
10
0.082840465180285205
20
4.4141270274173365
30
0
10
0.087955572622452335
20
4.4113767423364649
30
0
10
0.092520491664165594
20
4.4078501023995891
30
0
10
0.097930393382757303
20
4.4036706689242049
30
0
10
0.10247223719777211
20
4.3984745190068431
30
0
10
0.10589037633990835
20
4.3925541283453251
30
0
0
LINE
5
204
100
AcDbEntity
8
0
100
AcDbLine
10
0.060424042641226687
20
4.4188041283453217
30
0
11
-0.071322851541497534
21
4.4188041283453217
31
0
0
LINE
5
205
100
AcDbEntity
8
0
100
AcDbLine
10
-0.071322851541497534
20
4.4188041283453217
30
0
11
-0.071322851541494245
21
3.4388041283453221
31
-2.6052932678835684e-24
0
LINE
5
206
100
AcDbEntity
8
0
100
AcDbLine
10
-0.071322851541494245
20
3.4388041283453221
30
-2.6052932678835684e-24
11
0.060424042641228214
21
3.4388041283453226
31
1.1569826287620939e-39
0
SPLINE
5
207
100
AcDbEntity
8
0
100
AcDbSpline
70
0
71
3
72
14
73
10
74
0
42
0.000000001
43
0.0000000001
44
0.0000000001
40
-0.16667201186971881
40
-0.16667201186971881
40
-0.16667201186971881
40
-0.16667201186971881
40
-0.11434341100994652
40
-0.11434341100994652
40
-0.11434341100994652
40
-0.062014810150175036
40
-0.062014810150175036
40
-0.062014810150175036
40
0
40
0
40
0
40
0
10
0.10589037633991252
20
3.4650541283453253
30
0
10
0.10300612274921683
20
3.4600584545843267
30
0
10
0.099318129931383656
20
3.4555721307945628
30
1.7483827159451283e-16
10
0.094974903391032373
20
3.4517758091115427
30
0
10
0.090631676850682116
20
3.4479794874285234
30
0
10
0.085692306381913649
20
3.4449248169809552
30
0
10
0.08035568708572001
20
3.4427348010930507
30
1.7483827159451283e-16
10
0.074031240663312944
20
3.4401394055104655
30
0
10
0.067260320925498912
20
3.4388041283453221
30
0
10
0.060424042641228214
20
3.4388041283453221
30
0
0
ARC
5
208
100
AcDbEntity
8
0
100
AcDbCircle
10
0.16867721811428732
20
3.4288041283453299
30
0
40
0.072499999999999939
210
-1.8563029222983938e-24
220
1.591320670863783e-26
230
1
100
AcDbArc
50
-60.00003686710955
51
150.00000000000429
0
ARC
5
209
100
AcDbEntity
8
0
100
AcDbCircle
10
0.23117714845850479
20
3.3205509126565205
30
7.2343532999542687e-52
40
0.052499999999999679
210
6.5038066849726203e-25
220
-1.1264940360553638e-24
230
1
100
AcDbArc
50
119.99996313289205
51
180
0
LINE
5
210
100
AcDbEntity
8
0
100
AcDbLine
10
0.17867714845850588
20
3.3205509126565205
30
-1.8514036025448614e-39
11
0.17867714845850616
21
3.0370573440341406
31
6.5132331697092131e-25
0
ARC
5
211
100
AcDbEntity
8
0
100
AcDbCircle
10
0.23117714845850731
20
3.0370573440341406
30
-1.4462282859526174e-40
40
0.052500000000001164
210
1.2406158418493467e-23
220
6.2142094345559831e-25
230
1
100
AcDbArc
50
180
51
240.00003686710983
0
ARC
5
212
100
AcDbEntity
8
0
100
AcDbCircle
10
0.16867721811429126
20
2.9288041283453294
30
0
40
0.072499999999999787
210
2.6634952092630711e-24
220
1.2269606330182709e-24
230
1
100
AcDbArc
50
-149.99999999999596
51
60.000036867109891
0
SPLINE
5
213
100
AcDbEntity
8
0
100
AcDbSpline
70
0
71
3
72
14
73
10
74
0
42
0.000000001
43
0.0000000001
44
0.0000000001
40
-0.16667201186969999
40
-0.16667201186969999
40
-0.16667201186969999
40
-0.16667201186969999
40
-0.11434341100993757
40
-0.11434341100993757
40
-0.11434341100993757
40
-0.062014810150174821
40
-0.062014810150174821
40
-0.062014810150174821
40
0
40
0
40
0
40
0
10
0.060424042641240266
20
2.9188041283453221
30
0
10
0.066192549822631341
20
2.9188041283453221
30
0
10
0.071921816603084693
20
2.9178533947709857
30
0
10
0.077381140891692263
20
2.9159902110941611
30
0
10
0.082840465180299125
20
2.914127027417337
30
0
10
0.087955572622466269
20
2.9113767423364654
30
0
10
0.092520491664179874
20
2.9078501023995886
30
0
10
0.097930393382771944
20
2.903670668924204
30
0
10
0.10247223719778605
20
2.8984745190068431
30
0
10
0.10589037633992195
20
2.8925541283453247
30
0
0
LINE
5
214
100
AcDbEntity
8
0
100
AcDbLine
10
0.060424042641240266
20
2.9188041283453221
30
0
11
-0.071322851541492691
21
2.9188041283453208
31
2.3139652575241878e-39
0
LINE
5
215
100
AcDbEntity
8
0
100
AcDbLine
10
-0.071322851541492691
20
2.9188041283453208
30
2.3139652575241878e-39
11
-0.071322851541492246
21
2.7707744579033204
31
3.2566165848544394e-25
0
ARC
5
216
100
AcDbEntity
8
0
100
AcDbCircle
10
-0.33132285154149227
20
2.7707744579033191
30
0
40
0.26000000000000006
210
-1.7632415262333908e-38
220
-8.8511547549414856e-38
230
1
100
AcDbArc
50
-27.091248555994689
51
0
0
LINE
5
217
100
AcDbEntity
8
0
100
AcDbLine
10
-0.099849434081911451
20
2.6523681362410758
30
-6.3988913511200661e-39
11
-0.4173961174434731
21
2.0315937133151909
31
-4.5236246524490884e-25
0
ARC
5
218
100
AcDbEntity
8
0
100
AcDbCircle
10
-0.64886953490305366
20
2.1500000349774355
30
0
40
0.26000000000000001
210
-1.7761448982962857e-24
220
-6.5449279094741666e-25
230
1
100
AcDbArc
50
270.00000000000023
51
332.90875144400508
0
LINE
5
219
100
AcDbEntity
8
0
100
AcDbLine
10
-0.64886953490305277
20
1.8900000349774353
30
-1.7016812564632661e-25
11
-1.3687761681799258
21
1.8900000349774329
31
0
0
ARC
5
220
100
AcDbEntity
8
0
100
AcDbCircle
10
-1.3687761681799262
20
2.1500000349774333
30
-5.7849131438104695e-40
40
0.26000000000000034
210
1.186538936693426e-24
220
3.1176046233303001e-25
230
1
100
AcDbArc
50
207.09124855599529
51
270.00000000000011
0
LINE
5
221
100
AcDbEntity
8
0
100
AcDbLine
10
-1.600249585639506
20
2.0315937133151873
30
3.1156663220985809e-25
11
-1.9177962690010717
21
2.65236813624107
31
-4.5236246524489259e-25
0
ARC
5
222
100
AcDbEntity
8
0
100
AcDbCircle
10
-1.6863228515414832
20
2.7707744579033164
30
1.084125387990306e-52
40
0.26000000000000878
210
-1.1754943508223381e-38
220
7.8909036796536551e-38
230
1
100
AcDbArc
50
180
51
207.0912485559945
0
LINE
5
223
100
AcDbEntity
8
0
100
AcDbLine
10
-1.9463228515414919
20
2.7707744579033151
30
-3.0562853121379633e-39
11
-1.9463228515414923
21
2.918804128345315
31
-3.2566165848544394e-25
0
LINE
5
224
100
AcDbEntity
8
0
100
AcDbLine
10
-1.9463228515414923
20
2.918804128345315
30
-3.2566165848544394e-25
11
-2.0780697457242252
21
2.918804128345315
31
0
0
SPLINE
5
225
100
AcDbEntity
8
0
100
AcDbSpline
70
0
71
3
72
14
73
10
74
0
42
0.000000001
43
0.0000000001
44
0.0000000001
40
-0.16667201186969999
40
-0.16667201186969999
40
-0.16667201186969999
40
-0.16667201186969999
40
-0.11434341100993757
40
-0.11434341100993757
40
-0.11434341100993757
40
-0.062014810150174821
40
-0.062014810150174821
40
-0.062014810150174821
40
0
40
0
40
0
40
0
10
-2.0780697457242252
20
2.918804128345315
30
0
10
-2.0838382529056161
20
2.918804128345315
30
0
10
-2.0895675196860695
20
2.917853394770979
30
0
10
-2.0950268439746771
20
2.9159902110941545
30
0
10
-2.1004861682632843
20
2.9141270274173299
30
0
10
-2.1056012757054514
20
2.9113767423364587
30
0
10
-2.1101661947471646
20
2.907850102399582
30
0
10
-2.1155760964657571
20
2.9036706689241969
30
0
10
-2.1201179402807711
20
2.8984745190068364
30
0
10
-2.123536079422907
20
2.892554128345318
30
0
0
ARC
5
226
100
AcDbEntity
8
0
100
AcDbCircle
10
-2.1863229211972763
20
2.9288041283453219
30
3.7963492506256207e-40
40
0.072500000000000023
210
-1.2507632429650313e-24
220
2.2440178170019657e-24
230
1
100
AcDbArc
50
119.9999631328904
51
329.99999999999636
0
ARC
5
227
100
AcDbEntity
8
0
100
AcDbCircle
10
-2.248822851541493
20
3.0370573440341335
30
0
40
0.052500000000001316
210
1.8072786852078636e-24
220
-3.052674045096285e-24
230
1
100
AcDbArc
50
-60.000036867109863
51
0
0
LINE
5
228
100
AcDbEntity
8
0
100
AcDbLine
10
-2.1963228515414919
20
3.037057344034134
30
2.2238136495677928e-26
11
-2.1963228515414932
21
3.3205509126565129
31
-6.5132331697085445e-25
0
ARC
5
229
100
AcDbEntity
8
0
100
AcDbCircle
10
-2.2488228515414925
20
3.320550912656512
30
0
40
0.052499999999999325
210
1.2406158418492625e-23
220
-3.2831114033482036e-37
230
1
100
AcDbArc
50
0
51
60.000036867107781
0
ARC
5
230
100
AcDbEntity
8
0
100
AcDbCircle
10
-2.186322921197275
20
3.4288041283453214
30
3.1636243755213505e-40
40
0.072500000000000425
210
-4.2358407432055948e-25
220
8.112674058442835e-25
230
1
100
AcDbArc
50
29.999999999997627
51
240.00003686710966
0
SPLINE
5
231
100
AcDbEntity
8
0
100
AcDbSpline
70
0
71
3
72
14
73
10
74
0
42
0.000000001
43
0.0000000001
44
0.0000000001
40
-0.16667201186971881
40
-0.16667201186971881
40
-0.16667201186971881
40
-0.16667201186971881
40
-0.11434341100994652
40
-0.11434341100994652
40
-0.11434341100994652
40
-0.062014810150175036
40
-0.062014810150175036
40
-0.062014810150175036
40
0
40
0
40
0
40
0
10
-2.1235360794229008
20
3.4650541283453187
30
0
10
-2.1206518258322054
20
3.46005845458432
30
0
10
-2.1169638330143719
20
3.4555721307945557
30
1.7483827159451283e-16
10
-2.1126206064740205
20
3.4517758091115356
30
0
10
-2.1082773799336705
20
3.4479794874285168
30
0
10
-2.1033380094649021
20
3.4449248169809485
30
0
10
-2.098001390168708
20
3.4427348010930441
30
1.7483827159451283e-16
10
-2.0916769437463008
20
3.4401394055104584
30
0
10
-2.0849060240084869
20
3.438804128345315
30
0
10
-2.0780697457242163
20
3.438804128345315
30
0
0
LINE
5
232
100
AcDbEntity
8
0
100
AcDbLine
10
-2.0780697457242163
20
3.4388041283453155
30
-2.791724559967805e-33
11
-1.9463228515414936
21
3.4388041283453155
31
1.1569826287620939e-39
0
LINE
5
233
100
AcDbEntity
8
0
100
AcDbLine
10
-1.9463228515414936
20
3.4388041283453155
30
1.1569826287620939e-39
11
-1.9463228515414965
21
4.4188041283453163
31
2.6052932678835515e-24
0
LINE
5
234
100
AcDbEntity
8
0
100
AcDbLine
10
-1.9463228515414965
20
4.4188041283453163
30
2.6052932678835515e-24
11
-2.0780697457242212
21
4.4188041283453146
31
0
0
SPLINE
5
235
100
AcDbEntity
8
0
100
AcDbSpline
70
0
71
3
72
14
73
10
74
0
42
0.000000001
43
0.0000000001
44
0.0000000001
40
-0.16667201186969796
40
-0.16667201186969796
40
-0.16667201186969796
40
-0.16667201186969796
40
-0.11434341100993634
40
-0.11434341100993634
40
-0.11434341100993634
40
-0.062014810150174807
40
-0.062014810150174807
40
-0.062014810150174807
40
0
40
0
40
0
40
0
10
-2.0780697457242212
20
4.4188041283453146
30
0
10
-2.0838382529056125
20
4.4188041283453146
30
0
10
-2.0895675196860659
20
4.4178533947709786
30
0
10
-2.0950268439746722
20
4.4159902110941545
30
1.7483827159451283e-16
10
-2.1004861682632794
20
4.4141270274173294
30
0
10
-2.1056012757054465
20
4.4113767423364587
30
0
10
-2.1101661947471597
20
4.4078501023995829
30
0
10
-2.1155760964657517
20
4.4036706689241978
30
0
10
-2.1201179402807662
20
4.3984745190068359
30
0
10
-2.1235360794229026
20
4.392554128345318
30
0
0
ARC
5
236
100
AcDbEntity
8
0
100
AcDbCircle
10
-2.1863229211972719
20
4.4288041283453223
30
2.8020673040331963e-40
40
0.072499999999999856
210
-2.6834826231940172e-24
220
1.4168381263319685e-24
230
1
100
AcDbArc
50
119.99996313289461
51
329.99999999999591
0
ARC
5
237
100
AcDbEntity
8
0
100
AcDbCircle
10
-2.2488228515414965
20
4.5370573440341273
30
0
40
0.052499999999999734
210
1.8072786852043985e-24
220
-3.0526740450937125e-24
230
1
100
AcDbArc
50
-60.000036867104519
51
0
0
LINE
5
238
100
AcDbEntity
8
0
100
AcDbLine
10
-2.1963228515414972
20
4.5370573440341282
30
2.2238136495681579e-26
11
-2.1963228515414981
21
4.9188041283453146
31
0
0
SPLINE
5
239
100
AcDbEntity
8
0
100
AcDbSpline
70
0
71
3
72
14
73
10
74
0
42
0.000000001
43
0.0000000001
44
0.0000000001
40
-0.16667201186969732
40
-0.16667201186969732
40
-0.16667201186969732
40
-0.16667201186969732
40
-0.11434341100993585
40
-0.11434341100993585
40
-0.11434341100993585
40
-0.062014810150174092
40
-0.062014810150174092
40
-0.062014810150174092
40
0
40
0
40
0
40
0
10
-2.078069745724231
20
1.2400000030631324
30
0
10
-2.0838382529056219
20
1.2400000030631324
30
0
10
-2.0895675196860757
20
1.2390492694887965
30
0
10
-2.0950268439746824
20
1.2371860858119721
30
1.7483827159451283e-16
10
-2.1004861682632892
20
1.2353229021351477
30
0
10
-2.1056012757054563
20
1.2325726170542761
30
0
10
-2.1101661947471695
20
1.2290459771174003
30
0
10
-2.1155760964657619
20
1.224866543642015
30
0
10
-2.1201179402807755
20
1.2196703937246545
30
0
10
-2.123536079422911
20
1.2137500030631361
30
0
0
ARC
5
240
100
AcDbEntity
8
0
100
AcDbCircle
10
-2.1863229211972817
20
1.2500000030631402
30
1.6270068216966947e-40
40
0.072500000000000023
210
-4.2358355229854311e-25
220
8.1129843677779207e-25
230
1
100
AcDbArc
50
119.99996313288423
51
329.99999999999659
0
ARC
5
241
100
AcDbEntity
8
0
100
AcDbCircle
10
-2.2488228515414868
20
1.3582532187519558
30
0
40
0.052499999999998867
210
-7.6773645831749192e-25
220
-1.9013364964026679e-24
230
1
100
AcDbArc
50
-60.000036867114495
51
0
0
LINE
5
242
100
AcDbEntity
8
0
100
AcDbLine
10
-2.1963228515414879
20
1.3582532187519567
30
1.4088283771766834e-25
11
-2.1963228515414883
21
1.641746787374325
31
-6.5132331697090468e-25
0
ARC
5
243
100
AcDbEntity
8
0
100
AcDbCircle
10
-2.248822851541489
20
1.6417467873743239
30
1.7483827159451283e-16
40
0.052500000000000727
210
3.3302528046825469e-15
220
6.6543501717108246e-29
230
1
100
AcDbArc
50
0
51
60.00003686711397
0
ARC
5
244
100
AcDbEntity
8
0
100
AcDbCircle
10
-2.1863229211972799
20
1.7500000030631395
30
1.6270068216966947e-40
40
0.072500000000000189
210
-1.2507646868735117e-24
220
2.2439862538219987e-24
230
1
100
AcDbArc
50
29.999999999996849
51
240.00003686711341
0
SPLINE
5
245
100
AcDbEntity
8
0
100
AcDbSpline
70
0
71
3
72
14
73
10
74
0
42
0.000000001
43
0.0000000001
44
0.0000000001
40
-0.16667201186971836
40
-0.16667201186971836
40
-0.16667201186971836
40
-0.16667201186971836
40
-0.11434341100994602
40
-0.11434341100994602
40
-0.11434341100994602
40
-0.062014810150174522
40
-0.062014810150174522
40
-0.062014810150174522
40
0
40
0
40
0
40
0
10
-2.1235360794229057
20
1.7862500030631363
30
0
10
-2.1206518258322102
20
1.7812543293021377
30
0
10
-2.1169638330143767
20
1.7767680055123733
30
0
10
-2.1126206064740254
20
1.7729716838293534
30
0
10
-2.1082773799336754
20
1.769175362146334
30
0
10
-2.1033380094649066
20
1.7661206916987657
30
0
10
-2.0980013901687133
20
1.7639306758108608
30
0
10
-2.0916769437463065
20
1.7613352802282765
30
0
10
-2.0849060240084922
20
1.7600000030631338
30
0
10
-2.0780697457242212
20
1.7600000030631338
30
0
0
LINE
5
246
100
AcDbEntity
8
0
100
AcDbLine
10
-2.0780697457242212
20
1.7600000030631338
30
0
11
-2.0445760966703377
21
1.7600000030631338
31
0
0
SPLINE
5
247
100
AcDbEntity
8
0
100
AcDbSpline
70
0
71
3
72
14
73
10
74
0
42
0.000000001
43
0.0000000001
44
0.0000000001
40
-0.16667201186971642
40
-0.16667201186971642
40
-0.16667201186971642
40
-0.16667201186971642
40
-0.11434341100994547
40
-0.11434341100994547
40
-0.11434341100994547
40
-0.062014810150175452
40
-0.062014810150175452
40
-0.062014810150175452
40
0
40
0
40
0
40
0
10
-2.0445760966703381
20
1.7600000030631338
30
0
10
-2.0388075894889459
20
1.760000003063134
30
0
10
-2.0330783227084908
20
1.7609507366374701
30
0
10
-2.0276189984198831
20
1.7628139203142954
30
0
10
-2.0221596741312755
20
1.76467710399112
30
0
10
-2.0170445666891079
20
1.7674273890719929
30
0
10
-2.0124796476473943
20
1.7709540290088701
30
0
10
-2.0070697459288023
20
1.7751334624842559
30
0
10
-2.0025279021137892
20
1.780329612401617
30
0
10
-1.9991097629716539
20
1.7862500030631359
30
0
0
ARC
5
248
100
AcDbEntity
8
0
100
AcDbCircle
10
-1.9363229211972799
20
1.7500000030631389
30
2.1693424289289261e-40
40
0.072500000000000273
210
1.0091337194029748e-24
220
1.6384179093336541e-24
230
1
100
AcDbArc
50
-59.999963132872793
51
150.00000000000273
0
ARC
5
249
100
AcDbEntity
8
0
100
AcDbCircle
10
-1.8738228515414868
20
1.6417468678059028
30
0
40
0.05250000000000149
210
-7.6779743423061555e-25
220
-1.9012891498402185e-24
230
1
100
AcDbArc
50
120.00003686712869
51
180
0
LINE
5
250
100
AcDbEntity
8
0
100
AcDbLine
10
-1.9263228515414881
20
1.6417468678059035
30
-9.7455902882560237e-26
11
-1.9263228515414874
21
1.3582531383203722
31
6.5132331697088788e-25
0
ARC
5
251
100
AcDbEntity
8
0
100
AcDbCircle
10
-1.8738228515414874
20
1.3582531383203729
30
1.7483827159451283e-16
40
0.052500000000000026
210
-3.3302527798702749e-15
220
-4.4362334492591871e-29
230
1
100
AcDbArc
50
180
51
239.99996313287096
0
ARC
5
252
100
AcDbEntity
8
0
100
AcDbCircle
10
-1.9363229211972812
20
1.2500000030631386
30
-7.5926985012512415e-40
40
0.072499999999999884
210
-1.8563029120487116e-24
220
1.5945159546906501e-26
230
1
100
AcDbArc
50
-149.99999999999702
51
59.999963132871876
0
SPLINE
5
253
100
AcDbEntity
8
0
100
AcDbSpline
70
0
71
3
72
14
73
10
74
0
42
0.000000001
43
0.0000000001
44
0.0000000001
40
-0.16667201186969946
40
-0.16667201186969946
40
-0.16667201186969946
40
-0.16667201186969946
40
-0.11434341100993695
40
-0.11434341100993695
40
-0.11434341100993695
40
-0.062014810150174689
40
-0.062014810150174689
40
-0.062014810150174689
40
0
40
0
40
0
40
0
10
-1.9991097629716506
20
1.2137500030631356
30
0
10
-2.001994016562346
20
1.2187456768241325
30
0
10
-2.005682009380179
20
1.2232320006138957
30
0
10
-2.01002523592053
20
1.2270283222969145
30
0
10
-2.01436846246088
20
1.2308246439799331
30
0
10
-2.0193078329296483
20
1.2338793144275007
30
0
10
-2.0246444522258398
20
1.2360693303154049
30
0
10
-2.030968898648247
20
1.2386647258979897
30
0
10
-2.0377398183860613
20
1.2400000030631326
30
0
10
-2.0445760966703324
20
1.2400000030631326
30
0
0
LINE
5
254
100
AcDbEntity
8
0
100
AcDbLine
10
-2.0445760966703324
20
1.2400000030631326
30
0
11
-2.078069745724231
21
1.2400000030631324
31
0
0
LWPOLYLINE
5
255
100
AcDbEntity
8
0
100
AcDbPolyline
90
2
70
1
43
0.0
10
-2.4735728487255217
20
1.9218750629024401
42
0.99999999999999989
10
-2.2740728487255217
20
1.9218750629024401
42
0.99999999999999989
0
LWPOLYLINE
5
256
100
AcDbEntity
8
0
100
AcDbPolyline
90
2
70
1
43
0.0
10
-2.4735728487255204
20
1.3593750629024415
42
0.99999999999999989
10
-2.27407284872552
20
1.3593750629024417
42
0.99999999999999989
0
LWPOLYLINE
5
257
100
AcDbEntity
8
0
100
AcDbPolyline
90
2
70
1
43
0.0
10
-2.4735728487255235
20
2.4843750629024388
42
0.99999999999999989
10
-2.2740728487255235
20
2.4843750629024393
42
0.99999999999999989
0
LWPOLYLINE
5
258
100
AcDbEntity
8
0
100
AcDbPolyline
90
2
70
1
43
0.0
10
-2.4735728487255186
20
0.79687506290244237
42
0.99999999999999989
10
-2.2740728487255186
20
0.7968750629024427
42
0.99999999999999989
0
ENDSEC
0
SECTION
2
OBJECTS
0
DICTIONARY
5
C
100
AcDbDictionary
3
ACAD_GROUP
350
D
3
ACAD_MLINESTYLE
350
17
0
DICTIONARY
5
D
100
AcDbDictionary
0
DICTIONARY
5
1A
330
C
100
AcDbDictionary
0
DICTIONARY
5
17
100
AcDbDictionary
0
ENDSEC
0
EOF
