0
SECTION
2
HEADER
9
$INSUNITS
70
1
9
$ACADVER
1
AC1014
9
$HANDSEED
5
FFFF
0
ENDSEC
0
SECTION
2
TABLES
0
TABLE
2
VPORT
5
8
100
AcDbSymbolTable
0
ENDTAB
0
TABLE
2
LTYPE
5
5
100
AcDbSymbolTable
0
LTYPE
5
14
100
AcDbSymbolTableRecord
100
AcDbLinetypeTableRecord
2
BYBLOCK
70
0
0
LTYPE
5
15
100
AcDbSymbolTableRecord
100
AcDbLinetypeTableRecord
2
BYLAYER
70
0
0
ENDTAB
0
TABLE
2
LAYER
5
2
100
AcDbSymbolTable
70
2
0
LAYER
5
50
100
AcDbSymbolTableRecord
100
AcDbLayerTableRecord
2
0
70
0
6
CONTINUOUS
0
ENDTAB
0
TABLE
2
STYLE
5
3
100
AcDbSymbolTable
70
1
0
STYLE
5
11
100
AcDbSymbolTableRecord
100
AcDbTextStyleTableRecord
2
STANDARD
70
0
0
ENDTAB
0
TABLE
2
VIEW
5
6
100
AcDbSymbolTable
70
0
0
ENDTAB
0
TABLE
2
UCS
5
7
100
AcDbSymbolTable
70
0
0
ENDTAB
0
TABLE
2
APPID
5
9
100
AcDbSymbolTable
70
2
0
APPID
5
12
100
AcDbSymbolTableRecord
100
AcDbRegAppTableRecord
2
ACAD
70
0
0
ENDTAB
0
TABLE
2
DIMSTYLE
5
A
100
AcDbSymbolTable
70
1
0
ENDTAB
0
TABLE
2
BLOCK_RECORD
5
1
100
AcDbSymbolTable
70
1
0
BLOCK_RECORD
5
1F
100
AcDbSymbolTableRecord
100
AcDbBlockTableRecord
2
*MODEL_SPACE
0
BLOCK_RECORD
5
1B
100
AcDbSymbolTableRecord
100
AcDbBlockTableRecord
2
*PAPER_SPACE
0
ENDTAB
0
ENDSEC
0
SECTION
2
BLOCKS
0
BLOCK
5
20
100
AcDbEntity
100
AcDbBlockBegin
2
*MODEL_SPACE
0
ENDBLK
5
21
100
AcDbEntity
100
AcDbBlockEnd
0
BLOCK
5
1C
100
AcDbEntity
100
AcDbBlockBegin
2
*PAPER_SPACE
0
ENDBLK
5
1D
100
AcDbEntity
100
AcDbBlockEnd
0
ENDSEC
0
SECTION
2
ENTITIES
0
CIRCLE
5
100
100
AcDbEntity
8
0
100
AcDbCircle
10
-3.8738230873605612
20
2.4843746921325707
30
0
40
0.099749999999999422
210
1.9721485072726372e-31
220
3.9567475173438501e-30
230
1
0
CIRCLE
5
101
100
AcDbEntity
8
0
100
AcDbCircle
10
1.7974369141647788
20
0.79687523045362418
30
0
40
0.099749999999999769
210
1.9721485072726372e-31
220
3.9567475173438501e-30
230
1
0
CIRCLE
5
102
100
AcDbEntity
8
0
100
AcDbCircle
10
1.7974368607717774
20
1.3593752304536204
30
-1.7483827159451283e-16
40
0.099749999999999769
210
1.9721485072726372e-31
220
3.9567475173438501e-30
230
1
0
CIRCLE
5
103
100
AcDbEntity
8
0
100
AcDbCircle
10
-3.873822980574559
20
1.3593746921325796
30
0
40
0.099749999999999422
210
1.9721485072726372e-31
220
3.9567475173438501e-30
230
1
0
CIRCLE
5
104
100
AcDbEntity
8
0
100
AcDbCircle
10
-3.8738229271815574
20
0.79687469213258344
30
0
40
0.099749999999999422
210
1.9721485072726372e-31
220
3.9567475173438501e-30
230
1
0
CIRCLE
5
105
100
AcDbEntity
8
0
100
AcDbCircle
10
1.797436807378775
20
1.921875230453616
30
0
40
0.099749999999999769
210
1.9721485072726372e-31
220
3.9567475173438501e-30
230
1
0
CIRCLE
5
106
100
AcDbEntity
8
0
100
AcDbCircle
10
-0.27756294375049267
20
-0.70000005200493787
30
0
40
0.082000000000000031
210
1.9721485072726372e-31
220
3.9567475173438494e-30
230
1
0
CIRCLE
5
107
100
AcDbEntity
8
0
100
AcDbCircle
10
-1.7988227850968501
20
-0.70000019640427846
30
0
40
0.082000000000000031
210
1.9721485072726372e-31
220
3.9567475173438494e-30
230
1
0
CIRCLE
5
108
100
AcDbEntity
8
0
100
AcDbCircle
10
1.7974367539857738
20
2.4843752304536117
30
0
40
0.099749999999999769
210
1.9721485072726372e-31
220
3.9567475173438501e-30
230
1
0
CIRCLE
5
109
100
AcDbEntity
8
0
100
AcDbCircle
10
-3.8738230339675592
20
1.9218746921325749
30
0
40
0.099749999999999422
210
1.9721485072726372e-31
220
3.9567475173438501e-30
230
1
0
LINE
5
110
100
AcDbEntity
8
0
100
AcDbLine
10
-4.0219532363240882
20
4.8894336641879921
30
0
11
-4.0219532028761735
21
4.537056918987866
31
6.5132331697088916e-25
0
ARC
5
111
100
AcDbEntity
8
0
100
AcDbCircle
10
-3.9988232822029901
20
4.53705692118338
30
0
40
0.023129920673183237
210
2.8159340716036064e-23
220
-7.3243162442409393e-29
230
1
100
AcDbArc
50
180.00000539973863
51
240.00000543856373
0
ARC
5
112
100
AcDbEntity
8
0
100
AcDbCircle
10
-4.0613232719275025
20
4.42880373977777
30
-9.942819465924244e-41
40
0.10187007932681627
210
1.1061585797369039e-24
220
1.442372435174077e-25
230
1
100
AcDbArc
50
-149.99999456143314
51
60.000005438566795
0
SPLINE
5
113
100
AcDbEntity
8
0
100
AcDbSpline
70
0
71
3
72
14
73
10
74
0
42
0.000000001
43
0.0000000001
44
0.0000000001
40
-0.16667201186970892
40
-0.16667201186970892
40
-0.16667201186970892
40
-0.16667201186970892
40
-0.11434341100994211
40
-0.11434341100994211
40
-0.11434341100994211
40
-0.062014810150175653
40
-0.062014810150175653
40
-0.062014810150175653
40
0
40
0
40
0
40
0
10
-4.1495453436752614
20
4.3778686917402432
30
-1.7483827159451283e-16
10
-4.1508160592509231
20
4.3800696351967883
30
-1.7483827159451283e-16
10
-4.1524408781303421
20
4.3820461743448709
30
0
10
-4.1543543732480357
20
4.3837187192942535
30
0
10
-4.1562678683657266
20
4.3853912642436335
30
0
10
-4.1584440065338146
20
4.3867370599444051
30
-1.7483827159451283e-16
10
-4.1607951605489042
20
4.3877019148404734
30
-1.7483827159451283e-16
10
-4.1635815214965284
20
4.388845367793909
30
0
10
-4.1665645851032274
20
4.3894336504613527
30
0
10
-4.1695764436635132
20
4.3894336501754649
30
0
0
LINE
5
114
100
AcDbEntity
8
0
100
AcDbLine
10
-4.1695764436635132
20
4.3894336501754649
30
-3.5429764221037059e-32
11
-4.2719531888636402
21
4.3894336404577725
31
3.8821894941978924e-32
0
LINE
5
115
100
AcDbEntity
8
0
100
AcDbLine
10
-4.2719531888636402
20
4.3894336404577725
30
3.8821894941978924e-32
11
-4.2719531014168348
21
3.4681737991114119
31
3.2820974010476568e-39
0
LINE
5
116
100
AcDbEntity
8
0
100
AcDbLine
10
-4.2719531014168348
20
3.4681737991114119
30
3.2820974010476568e-39
11
-4.1695763562167079
21
3.4681738088291052
31
-1.7483827159451283e-16
0
SPLINE
5
117
100
AcDbEntity
8
0
100
AcDbSpline
70
0
71
3
72
14
73
10
74
0
42
0.000000001
43
0.0000000001
44
0.0000000001
40
-0.16667201186970837
40
-0.16667201186970837
40
-0.16667201186970837
40
-0.16667201186970837
40
-0.11434341100994209
40
-0.11434341100994209
40
-0.11434341100994209
40
-0.062014810150175757
40
-0.062014810150175757
40
-0.062014810150175757
40
0
40
0
40
0
40
0
10
-4.1695763562167079
20
3.4681738088291052
30
-1.7483827159451283e-16
10
-4.1670349254832182
20
3.4681738090703398
30
-1.7483827159451283e-16
10
-4.1645107829296926
20
3.4685926739224229
30
0
10
-4.1621055689557132
20
3.4694135368296699
30
0
10
-4.1597003549817293
20
3.4702343997369201
30
0
10
-4.1574467926325118
20
3.4714460928222448
30
0
10
-4.1554356267740067
20
3.4729998244794853
30
0
10
-4.1530521869944881
20
3.4748411573675244
30
0
10
-4.1510511874565248
20
3.4771304248983079
30
0
10
-4.1495452584239692
20
3.4797387710670651
30
0
0
ARC
5
118
100
AcDbEntity
8
0
100
AcDbCircle
10
-4.0613231770066101
20
3.4288037397777757
30
1.7483827159451283e-16
40
0.10187007932681764
210
3.8979955917480152e-25
220
5.5781830812772086e-25
230
1
100
AcDbArc
50
-59.999994561434725
51
150.0000054385668
0
ARC
5
119
100
AcDbEntity
8
0
100
AcDbCircle
10
-3.9988231667311207
20
3.3205505702372751
30
0
40
0.023129920673184857
210
3.7794833542291139e-15
220
-6.5462557624139065e-15
230
1
100
AcDbArc
50
120.00000543857286
51
180.00000539973863
0
LINE
5
120
100
AcDbEntity
8
0
100
AcDbLine
10
-4.0219530874043068
20
3.320550568041762
30
-7.5533072119939181e-27
11
-4.0219530604948357
21
3.0370569189878749
31
-1.8474520218218111e-30
0
ARC
5
121
100
AcDbEntity
8
0
100
AcDbCircle
10
-3.9988231398216514
20
3.0370569211833889
30
0
40
0.023129920673184635
210
-7.9872814146259035e-29
220
-7.5916081478931345e-29
230
1
100
AcDbArc
50
180.00000539973863
51
240.00000543856672
0
ARC
5
122
100
AcDbEntity
8
0
100
AcDbCircle
10
-4.0613231295461638
20
2.9288037397777766
30
1.7483827159451283e-16
40
0.10187007932681794
210
-4.3738101400008918e-25
220
-8.7489069316782054e-25
230
1
100
AcDbArc
50
-149.99999456143362
51
60.00000543856671
0
SPLINE
5
123
100
AcDbEntity
8
0
100
AcDbSpline
70
0
71
3
72
14
73
10
74
0
42
0.000000001
43
0.0000000001
44
0.0000000001
40
-0.16667201186970959
40
-0.16667201186970959
40
-0.16667201186970959
40
-0.16667201186970959
40
-0.11434341100994289
40
-0.11434341100994289
40
-0.11434341100994289
40
-0.06201481015017344
40
-0.06201481015017344
40
-0.06201481015017344
40
0
40
0
40
0
40
0
10
-4.1495452012939245
20
2.8778686917402503
30
0
10
-4.1508159168695862
20
2.8800696351967958
30
0
10
-4.1524407357490061
20
2.8820461743448798
30
0
10
-4.1543542308666987
20
2.8837187192942606
30
0
10
-4.1562677259843888
20
2.8853912642436401
30
0
10
-4.1584438641524777
20
2.8867370599444127
30
0
10
-4.1607950181675672
20
2.8877019148404823
30
0
10
-4.1635813791151914
20
2.8888453677939165
30
0
10
-4.1665644427218913
20
2.8894336504613607
30
0
10
-4.1695763012821772
20
2.8894336501754725
30
0
0
LINE
5
124
100
AcDbEntity
8
0
100
AcDbLine
10
-4.1695763012821772
20
2.8894336501754725
30
0
11
-4.2719530464823041
21
2.8894336404577801
31
3.8821894941978924e-32
0
LINE
5
125
100
AcDbEntity
8
0
100
AcDbLine
10
-4.2719530464823041
20
2.8894336404577801
30
3.8821894941978924e-32
11
-4.2719529420632503
21
1.7893696738292371
31
-1.8474520189126825e-30
0
LINE
5
126
100
AcDbEntity
8
0
100
AcDbLine
10
-4.2719529420632503
20
1.7893696738292371
30
-1.8474520189126825e-30
11
-4.1695761968631215
21
1.789369683546931
31
-3.8821894941978924e-32
0
SPLINE
5
127
100
AcDbEntity
8
0
100
AcDbSpline
70
0
71
3
72
14
73
10
74
0
42
0.000000001
43
0.0000000001
44
0.0000000001
40
-0.16667201186970648
40
-0.16667201186970648
40
-0.16667201186970648
40
-0.16667201186970648
40
-0.1143434110099403
40
-0.1143434110099403
40
-0.1143434110099403
40
-0.062014810150175258
40
-0.062014810150175258
40
-0.062014810150175258
40
0
40
0
40
0
40
0
10
-4.1695761968631215
20
1.789369683546931
30
0
10
-4.167034766129631
20
1.7893696837881661
30
0
10
-4.1645106235761071
20
1.7897885486402492
30
-1.7483827159451283e-16
10
-4.1621054096021259
20
1.7906094115474984
30
-1.7483827159451283e-16
10
-4.1597001956281456
20
1.7914302744547457
30
-1.7483827159451283e-16
10
-4.157446633278929
20
1.7926419675400698
30
0
10
-4.155435467420423
20
1.7941956991973111
30
-1.7483827159451283e-16
10
-4.1530520276409026
20
1.7960370320853503
30
0
10
-4.1510510281029402
20
1.7983262996161353
30
0
10
-4.1495450990703846
20
1.8009346457848914
30
0
0
ARC
5
128
100
AcDbEntity
8
0
100
AcDbCircle
10
-4.0613230176530255
20
1.7499996144956009
30
1.887052508367618e-40
40
0.10187007932681715
210
1.1061587189253959e-24
220
1.4424103447366787e-25
230
1
100
AcDbArc
50
-59.999994561433354
51
150.00000543856672
0
ARC
5
129
100
AcDbEntity
8
0
100
AcDbCircle
10
-3.9988230073775402
20
1.6417464449551027
30
0
40
0.023129920673181498
210
-8.9202760753094818e-25
220
1.6624520204302619e-24
230
1
100
AcDbArc
50
120.0000054385613
51
180.00000539973863
0
LINE
5
130
100
AcDbEntity
8
0
100
AcDbLine
10
-4.0219529280507214
20
1.6417464427595896
30
9.0160269961199584e-27
11
-4.0219529011412511
21
1.3582527937057005
31
-1.7483827159451283e-16
0
ARC
5
131
100
AcDbEntity
8
0
100
AcDbCircle
10
-3.9988229804680682
20
1.3582527959012136
30
0
40
0.023129920673183237
210
-7.5589654657665573e-15
220
-7.175038984016451e-22
230
1
100
AcDbArc
50
180.00000539973863
51
240.00000543856655
0
ARC
5
132
100
AcDbEntity
8
0
100
AcDbCircle
10
-4.0613229701925802
20
1.2499996144956036
30
-9.0389267872038586e-42
40
0.10187007932681706
210
-4.3738126664395483e-25
220
-8.7488694414638511e-25
230
1
100
AcDbArc
50
-149.9999945614328
51
60.00000543856634
0
SPLINE
5
133
100
AcDbEntity
8
0
100
AcDbSpline
70
0
71
3
72
14
73
10
74
0
42
0.000000001
43
0.0000000001
44
0.0000000001
40
-0.16667201186970923
40
-0.16667201186970923
40
-0.16667201186970923
40
-0.16667201186970923
40
-0.11434341100994244
40
-0.11434341100994244
40
-0.11434341100994244
40
-0.062014810150175709
40
-0.062014810150175709
40
-0.062014810150175709
40
0
40
0
40
0
40
0
10
-4.1495450419403399
20
1.1990645664580766
30
0
10
-4.1508157575160025
20
1.2012655099146223
30
0
10
-4.1524405763954215
20
1.203242049062706
30
0
10
-4.1543540715131133
20
1.2049145940120864
30
0
10
-4.1562675666308051
20
1.2065871389614671
30
0
10
-4.158443704798894
20
1.2079329346622389
30
-1.7483827159451283e-16
10
-4.1607948588139818
20
1.2088977895583086
30
-1.7483827159451283e-16
10
-4.1635812197616051
20
1.2100412425117426
30
0
10
-4.1665642833683068
20
1.210629525179187
30
0
10
-4.1695761419285926
20
1.2106295248932988
30
0
0
LINE
5
134
100
AcDbEntity
8
0
100
AcDbLine
10
-4.1695761419285926
20
1.2106295248932986
30
-3.5429764041406114e-32
11
-4.2719528871287196
21
1.2106295151756064
31
3.8821894941978924e-32
0
LINE
5
135
100
AcDbEntity
8
0
100
AcDbLine
10
-4.2719528871287196
20
1.2106295151756064
30
3.8821894941978924e-32
11
-4.2719527996819133
21
0.28936967382924578
31
3.2820974010476477e-39
0
LINE
5
136
100
AcDbEntity
8
0
100
AcDbLine
10
-4.2719527996819133
20
0.28936967382924578
30
3.2820974010476477e-39
11
-4.1695760544817864
21
0.28936968354693798
31
-3.8821894941978924e-32
0
SPLINE
5
137
100
AcDbEntity
8
0
100
AcDbSpline
70
0
71
3
72
14
73
10
74
0
42
0.000000001
43
0.0000000001
44
0.0000000001
40
-0.16667201186970884
40
-0.16667201186970884
40
-0.16667201186970884
40
-0.16667201186970884
40
-0.11434341100994275
40
-0.11434341100994275
40
-0.11434341100994275
40
-0.062014810150175452
40
-0.062014810150175452
40
-0.062014810150175452
40
0
40
0
40
0
40
0
10
-4.1695760544817864
20
0.28936968354693793
30
-1.7483827159451283e-16
10
-4.1670346237482958
20
0.28936968378817279
30
-1.7483827159451283e-16
10
-4.1645104811947711
20
0.28978854864025666
30
0
10
-4.162105267220789
20
0.29060941154750503
30
0
10
-4.1597000532468078
20
0.29143027445475361
30
0
10
-4.1574464908975903
20
0.2926419675400776
30
-1.7483827159451283e-16
10
-4.1554353250390861
20
0.29419569919731908
30
0
10
-4.1530518852595666
20
0.2960370320853577
30
0
10
-4.1510508857216042
20
0.29832629961614182
30
0
10
-4.1495449566890477
20
0.30093464578489859
30
0
0
ARC
5
138
100
AcDbEntity
8
0
100
AcDbCircle
10
-4.0613228752716886
20
0.24999961449560876
30
1.748382715945128e-16
40
0.10187007932681708
210
-4.373813728168599e-25
220
-8.7489655454528861e-25
230
1
100
AcDbArc
50
-59.999994561433816
51
150.0000054385668
0
ARC
5
139
100
AcDbEntity
8
0
100
AcDbCircle
10
-3.9988228649962019
20
0.1417464449551106
30
0
40
0.023129920673182178
210
3.7794833524073643e-15
220
-6.5462557592600161e-15
230
1
100
AcDbArc
50
120.00000543856625
51
180.00000546681872
0
LINE
5
140
100
AcDbEntity
8
0
100
AcDbLine
10
-4.0219527856693835
20
0.14174644275959772
30
-7.55331043184495e-27
11
-4.0219527507703718
21
-0.22591775804288022
31
6.5132516442291197e-25
0
ARC
5
141
100
AcDbEntity
8
0
100
AcDbCircle
10
-4.1494575479243627
20
-0.75000039387011497
30
-1.7483827159451349e-16
40
0.53937007932671099
210
-8.1620252233771694e-25
220
-1.4175109409212691e-24
230
1
100
AcDbArc
50
70.006389782705753
51
76.326087957672158
0
LINE
5
142
100
AcDbEntity
8
0
100
AcDbLine
10
-3.9650386416558239
20
-0.24313774039915911
30
-1.7483827072550696e-16
11
-1.9930602270630908
21
-0.96063014177054151
31
-8.308724070514237e-26
0
LINE
5
143
100
AcDbEntity
8
0
100
AcDbLine
10
-1.9930602270630908
20
-0.96063014177054151
30
-8.308724070514237e-26
11
-0.083325452305802059
21
-0.96062996049681404
31
-3.1057515953583139e-31
0
LINE
5
144
100
AcDbEntity
8
0
100
AcDbLine
10
-0.083325452305802059
20
-0.96062996049681404
30
-3.1057515953583139e-31
11
1.8886528260768585
21
-0.24313718476154533
31
1.7483827020877802e-16
0
ARC
5
145
100
AcDbEntity
8
0
100
AcDbCircle
10
2.0730718285691565
20
-0.74999980322225424
30
-1.7483827159450393e-16
40
0.53937007932689429
210
-2.2896674007652053e-25
220
1.5776763675394462e-24
230
1
100
AcDbArc
50
103.67392291946184
51
109.99362109442605
0
LINE
5
146
100
AcDbEntity
8
0
100
AcDbLine
10
1.9455669319223328
20
-0.22591719160059109
30
-1.7483827245053106e-16
11
1.945566897023318
21
0.1417470092018869
31
-6.5132331697088916e-25
0
ARC
5
147
100
AcDbEntity
8
0
100
AcDbCircle
10
1.9224369763501368
20
0.14174700700637519
30
0
40
0.023129920673181141
210
2.8159340716025937e-23
220
6.0294207928802909e-29
230
1
100
AcDbArc
50
5.3997386567638338e-06
51
60.000005438566482
0
ARC
5
148
100
AcDbEntity
8
0
100
AcDbCircle
10
1.984936966074647
20
0.25000018841198396
30
1.9885638931848488e-40
40
0.10187007932681696
210
-1.1537407636456449e-24
220
-4.6130978053885985e-25
230
1
100
AcDbArc
50
30.000005438566262
51
240.00000543856686
0
SPLINE
5
149
100
AcDbEntity
8
0
100
AcDbSpline
70
0
71
3
72
14
73
10
74
0
42
0.000000001
43
0.0000000001
44
0.0000000001
40
0
40
0
40
0
40
0
40
0.062014810150175452
40
0.062014810150175452
40
0.062014810150175452
40
0.11434341100994275
40
0.11434341100994275
40
0.11434341100994275
40
0.16667201186970884
40
0.16667201186970884
40
0.16667201186970884
40
0.16667201186970884
10
2.0731590378224074
20
0.30093523644951004
30
0
10
2.0746649673501363
20
0.29832689056664158
30
0
10
2.0766659673226973
20
0.29603762341573081
30
0
10
2.0790494074517789
20
0.2941962909801687
30
0
10
2.0810605736052468
20
0.29264255970473058
30
-1.7483827159451283e-16
10
2.083314136184494
20
0.29143086704722687
30
0
10
2.0857193503143097
20
0.29061000459658837
30
0
10
2.0881245644441249
20
0.28978914214595014
30
0
10
2.0906487070771673
20
0.28937027777305402
30
0
10
2.0931901378106583
20
0.28937027801428888
30
0
0
LINE
5
150
100
AcDbEntity
8
0
100
AcDbLine
10
2.0931901378106588
20
0.28937027801428883
30
0
11
2.1955668830107853
21
0.28937028773198092
31
-1.9410947470989462e-32
0
LINE
5
151
100
AcDbEntity
8
0
100
AcDbLine
10
2.1955668830107853
20
0.28937028773198092
30
-1.9410947470989462e-32
11
2.1955667955639799
21
1.2106301290783412
31
-1.7483827159451283e-16
0
LINE
5
152
100
AcDbEntity
8
0
100
AcDbLine
10
2.1955667955639799
20
1.2106301290783412
30
-1.7483827159451283e-16
11
2.0931900503638534
21
1.2106301193606499
31
0
0
SPLINE
5
153
100
AcDbEntity
8
0
100
AcDbSpline
70
0
71
3
72
14
73
10
74
0
42
0.000000001
43
0.0000000001
44
0.0000000001
40
0
40
0
40
0
40
0
40
0.062014810150175709
40
0.062014810150175709
40
0.062014810150175709
40
0.11434341100994244
40
0.11434341100994244
40
0.11434341100994244
40
0.16667201186970923
40
0.16667201186970923
40
0.16667201186970923
40
0.16667201186970923
10
2.093190050363853
20
1.2106301193606497
30
0
10
2.0901781918035671
20
1.2106301190747615
30
0
10
2.0871951283085473
20
1.210041835841007
30
0
10
2.0844087675779988
20
1.208898382358605
30
0
10
2.0820576137460813
20
1.2079335270161882
30
0
10
2.07988147583348
20
1.2065877309022943
30
0
10
2.0779679810333072
20
1.2049151855896525
30
0
10
2.0760544862331347
20
1.2032426402770107
30
0
10
2.0744296677289449
20
1.2012661008204686
30
0
10
2.0731589525711138
20
1.1990651571226878
30
0
0
ARC
5
154
100
AcDbEntity
8
0
100
AcDbCircle
10
1.9849368711537549
20
1.2500001884119787
30
-6.3272487510427005e-41
40
0.10187007932681773
210
-4.373812086172567e-25
220
-8.7489039351583707e-25
230
1
100
AcDbArc
50
120.00000543856633
51
330.00000543856618
0
ARC
5
155
100
AcDbEntity
8
0
100
AcDbCircle
10
1.9224368608782676
20
1.3582533579524771
30
0
40
0.023129920673182071
210
-1.8524744779640609e-24
220
1.6715415779282582e-24
230
1
100
AcDbArc
50
-59.999994561433404
51
5.3997386567638338e-06
0
LINE
5
156
100
AcDbEntity
8
0
100
AcDbLine
10
1.9455667815514497
20
1.3582533601479896
30
7.5533132301316829e-27
11
1.9455667546419808
21
1.6417470092018791
31
-9.2372601242587541e-31
0
ARC
5
157
100
AcDbEntity
8
0
100
AcDbCircle
10
1.9224368339687989
20
1.6417470070063656
30
-1.7483827159451283e-16
40
0.023129920673181838
210
-7.5589654657669723e-15
220
-7.1915839387095715e-22
230
1
100
AcDbArc
50
5.3997386567638338e-06
51
60.000005438566809
0
ARC
5
158
100
AcDbEntity
8
0
100
AcDbCircle
10
1.9849368236933098
20
1.7500001884119758
30
6.1012755813626045e-41
40
0.10187007932681737
210
-3.26560216798216e-25
220
9.7140295681215091e-25
230
1
100
AcDbArc
50
30.000005438566962
51
240.00000543856686
0
SPLINE
5
159
100
AcDbEntity
8
0
100
AcDbSpline
70
0
71
3
72
14
73
10
74
0
42
0.000000001
43
0.0000000001
44
0.0000000001
40
0
40
0
40
0
40
0
40
0.062014810150175258
40
0.062014810150175258
40
0.062014810150175258
40
0.1143434110099403
40
0.1143434110099403
40
0.1143434110099403
40
0.16667201186970648
40
0.16667201186970648
40
0.16667201186970648
40
0.16667201186970648
10
2.0731588954410696
20
1.8009352364495028
30
0
10
2.074664824968798
20
1.798326890566635
30
0
10
2.076665824941359
20
1.7960376234157234
30
0
10
2.0790492650704411
20
1.7941962909801605
30
0
10
2.0810604312239107
20
1.7926425597047226
30
0
10
2.0833139938031571
20
1.7914308670472192
30
0
10
2.0857192079329709
20
1.7906100045965816
30
0
10
2.0881244220627861
20
1.7897891421459429
30
0
10
2.0906485646958277
20
1.7893702777730471
30
0
10
2.0931899954293187
20
1.7893702780142822
30
0
0
LINE
5
160
100
AcDbEntity
8
0
100
AcDbLine
10
2.0931899954293192
20
1.7893702780142822
30
0
11
2.1955667406294479
21
1.7893702877319722
31
-3.8821894941978924e-32
0
LINE
5
161
100
AcDbEntity
8
0
100
AcDbLine
10
2.1955667406294479
20
1.7893702877319722
30
-3.8821894941978924e-32
11
2.1955666362103967
21
2.8894342543605149
31
-1.8474520267508998e-30
0
LINE
5
162
100
AcDbEntity
8
0
100
AcDbLine
10
2.1955666362103967
20
2.8894342543605149
30
-1.8474520267508998e-30
11
2.0931898910102689
21
2.8894342446428234
31
1.9410947470989462e-32
0
SPLINE
5
163
100
AcDbEntity
8
0
100
AcDbSpline
70
0
71
3
72
14
73
10
74
0
42
0.000000001
43
0.0000000001
44
0.0000000001
40
0
40
0
40
0
40
0
40
0.06201481015017344
40
0.06201481015017344
40
0.06201481015017344
40
0.11434341100994289
40
0.11434341100994289
40
0.11434341100994289
40
0.16667201186970959
40
0.16667201186970959
40
0.16667201186970959
40
0.16667201186970959
10
2.0931898910102693
20
2.8894342446428234
30
0
10
2.0901780324499835
20
2.8894342443569352
30
0
10
2.0871949689549649
20
2.8888459611231809
30
0
10
2.0844086082244151
20
2.8877025076407787
30
0
10
2.0820574543924959
20
2.8867376522983617
30
0
10
2.079881316479895
20
2.8853918561844676
30
0
10
2.0779678216797239
20
2.8837193108718266
30
0
10
2.0760543268795506
20
2.8820467655591848
30
0
10
2.0744295083753603
20
2.8800702261026423
30
0
10
2.0731587932175297
20
2.8778692824048617
30
0
0
ARC
5
164
100
AcDbEntity
8
0
100
AcDbCircle
10
1.9849367118001704
20
2.928804313694152
30
3.7963492506256207e-40
40
0.10187007932681742
210
-1.264561581384611e-24
220
-2.3076134789752101e-24
230
1
100
AcDbArc
50
120.00000543856628
51
330.00000543856686
0
ARC
5
165
100
AcDbEntity
8
0
100
AcDbCircle
10
1.9224367015246799
20
3.0370574832346535
30
0
40
0.023129920673186369
210
-2.957723329160166e-24
220
5.2401510635113159e-24
230
1
100
AcDbArc
50
-59.999994561430356
51
5.3997386567638338e-06
0
LINE
5
166
100
AcDbEntity
8
0
100
AcDbLine
10
1.945566622197866
20
3.037057485430164
30
-9.0160239205092523e-27
11
1.9455665952883978
21
3.320551134484051
31
-2.7711780352576667e-30
0
ARC
5
167
100
AcDbEntity
8
0
100
AcDbCircle
10
1.9224366746152111
20
3.3205511322885379
30
0
40
0.023129920673186734
210
1.1980923555280343e-28
220
-3.5979651826945038e-29
230
1
100
AcDbArc
50
5.3997386567638338e-06
51
60.000005438559093
0
ARC
5
168
100
AcDbEntity
8
0
100
AcDbCircle
10
1.9849366643397255
20
3.4288043136941497
30
-2.7568726700971767e-40
40
0.10187007932681684
210
2.7897818193800404e-25
220
-1.288502451379619e-24
230
1
100
AcDbArc
50
30.000005438566493
51
240.00000543856737
0
SPLINE
5
169
100
AcDbEntity
8
0
100
AcDbSpline
70
0
71
3
72
14
73
10
74
0
42
0.000000001
43
0.0000000001
44
0.0000000001
40
0
40
0
40
0
40
0
40
0.062014810150175757
40
0.062014810150175757
40
0.062014810150175757
40
0.11434341100994209
40
0.11434341100994209
40
0.11434341100994209
40
0.16667201186970837
40
0.16667201186970837
40
0.16667201186970837
40
0.16667201186970837
10
2.073158736087485
20
3.4797393617316761
30
0
10
2.0746646656152143
20
3.4771310158488071
30
0
10
2.0766656655877758
20
3.4748417486978966
30
0
10
2.0790491057168565
20
3.4730004162623347
30
0
10
2.0810602718703239
20
3.4714466849868977
30
0
10
2.0833138344495712
20
3.4702349923293925
30
0
10
2.0857190485793899
20
3.4694141298787531
30
0
10
2.0881242627092025
20
3.4685932674281164
30
0
10
2.0906484053422467
20
3.4681744030552206
30
0
10
2.0931898360757359
20
3.4681744032964557
30
0
0
LINE
5
170
100
AcDbEntity
8
0
100
AcDbLine
10
2.0931898360757364
20
3.4681744032964557
30
0
11
2.1955665812758638
21
3.4681744130141476
31
-3.8821894941978924e-32
0
LINE
5
171
100
AcDbEntity
8
0
100
AcDbLine
10
2.1955665812758638
20
3.4681744130141476
30
-3.8821894941978924e-32
11
2.1955664938290584
21
4.3894342543605083
31
-1.7483827159451283e-16
0
LINE
5
172
100
AcDbEntity
8
0
100
AcDbLine
10
2.1955664938290584
20
4.3894342543605083
30
-1.7483827159451283e-16
11
2.0931897486289301
21
4.389434244642815
31
1.9410947470989462e-32
0
SPLINE
5
173
100
AcDbEntity
8
0
100
AcDbSpline
70
0
71
3
72
14
73
10
74
0
42
0.000000001
43
0.0000000001
44
0.0000000001
40
0
40
0
40
0
40
0
40
0.062014810150175653
40
0.062014810150175653
40
0.062014810150175653
40
0.11434341100994211
40
0.11434341100994211
40
0.11434341100994211
40
0.16667201186970892
40
0.16667201186970892
40
0.16667201186970892
40
0.16667201186970892
10
2.0931897486289301
20
4.3894342446428158
30
0
10
2.0901778900686447
20
4.3894342443569272
30
0
10
2.0871948265736262
20
4.3888459611231729
30
0
10
2.0844084658430773
20
4.3877025076407703
30
0
10
2.0820573120111576
20
4.3867376522983541
30
0
10
2.0798811740985577
20
4.3853918561844605
30
0
10
2.0779676792983857
20
4.3837193108718182
30
0
10
2.0760541844982114
20
4.3820467655591759
30
0
10
2.0744293659940225
20
4.3800702261026343
30
-1.7483827159451283e-16
10
2.0731586508361914
20
4.3778692824048546
30
-1.7483827159451283e-16
0
ARC
5
174
100
AcDbEntity
8
0
100
AcDbCircle
10
1.984936569418833
20
4.4288043136941448
30
2.4405102325450418e-40
40
0.10187007932681662
210
-4.3738115387724489e-25
220
-8.7488359338452352e-25
230
1
100
AcDbArc
50
120.00000543856598
51
330.0000054385664
0
ARC
5
175
100
AcDbEntity
8
0
100
AcDbCircle
10
1.9224365591433452
20
4.5370574832346433
30
0
40
0.023129920673182772
210
-1.8525011937800507e-24
220
1.6714963432185878e-24
230
1
100
AcDbArc
50
-59.99999456143086
51
5.3997386567638338e-06
0
LINE
5
176
100
AcDbEntity
8
0
100
AcDbLine
10
1.945566479816528
20
4.5370574854301546
30
7.5533117152029423e-27
11
1.9455664463686126
21
4.8894342306302816
31
-6.5132331697088916e-25
0
LINE
5
177
100
AcDbEntity
8
0
100
AcDbLine
10
1.9455664463686126
20
4.8894342306302816
30
-6.5132331697088916e-25
11
-4.0219532363240882
21
4.8894336641879921
31
0
0
ENDSEC
0
SECTION
2
OBJECTS
0
DICTIONARY
5
C
100
AcDbDictionary
3
ACAD_GROUP
350
D
3
ACAD_MLINESTYLE
350
17
0
DICTIONARY
5
D
100
AcDbDictionary
0
DICTIONARY
5
1A
330
C
100
AcDbDictionary
0
DICTIONARY
5
17
100
AcDbDictionary
0
ENDSEC
0
EOF
