<?xml version="1.0" encoding="UTF-8"?>
<svg id="Layer_1" data-name="Layer 1" xmlns="http://www.w3.org/2000/svg" viewBox="0 0 509.08 521.59">
  <defs>
    <style>
      .cls-1 {
        fill: #179548;
      }

      .cls-1, .cls-2, .cls-3, .cls-4, .cls-5, .cls-6, .cls-7, .cls-8, .cls-9, .cls-10, .cls-11, .cls-12, .cls-13 {
        stroke-width: 0px;
      }

      .cls-2 {
        fill: #181616;
      }

      .cls-3 {
        fill: #131111;
      }

      .cls-4 {
        fill: #191717;
      }

      .cls-5 {
        fill: #040404;
      }

      .cls-6 {
        fill: #1c9549;
      }

      .cls-7 {
        fill: #169548;
      }

      .cls-8 {
        fill: #129548;
      }

      .cls-9 {
        fill: #2cace3;
      }

      .cls-10 {
        fill: #161414;
      }

      .cls-11 {
        fill: #121010;
      }

      .cls-12 {
        fill: #1d9649;
      }

      .cls-13 {
        fill: #100f0f;
      }
    </style>
  </defs>
  <path class="cls-8" d="m509.08,453.19c-81.21,0-162.42.02-243.62.03-77.97,0-155.94,0-233.92,0-10.06,0-20.12,0-30.19,0-.45,0-.9-.04-1.35-.06,0-.13,0-.26,0-.39,1.66-.19,3.33-.4,4.99-.58,9.73-1.06,19.34-2.78,28.83-5.2,12.07-3.07,23.77-7.18,35.21-12.09,14.46-6.22,28.28-13.66,41.78-21.73,3.42-2.04,6.81-4.13,10.22-6.2.27-.06.58-.05.8-.18,3.55-2.19,7.09-4.38,10.61-6.62,1-.63,1.9-1.42,2.84-2.14,6.13-3.89,12.23-7.82,18.4-11.66,12.03-7.49,24.17-14.78,36.97-20.91,8.4-4.02,16.98-7.53,25.92-10.17,7.49-2.22,15.1-3.79,22.88-4.56.78-.08,1.5-.04,1.5-1.29-.05-11.44-.04-22.87-.01-34.31,0-.92-.31-1.2-1.19-1.31-2.77-.34-5.54-.66-8.28-1.18-12.71-2.4-24.76-6.7-36.05-13.01-11.26-6.29-21.27-14.17-29.99-23.7-9.21-10.05-16.52-21.31-21.89-33.84-5.5-12.83-8.64-26.2-9.41-40.12-.12-2.23-.02-4.48-.02-6.82.55,0,1.08,0,1.6,0,12,.24,23.69,2.27,35.07,6.06,12.02,4,23.12,9.79,33.31,17.34,10.16,7.53,18.92,16.42,26.27,26.71,7.73,10.82,13.51,22.61,17.29,35.38,2.41,8.14,3.92,16.43,4.57,24.89.14,1.81.19,3.63.33,5.44.02.27.33.51.5.76.21-.26.48-.5.61-.79.1-.22.05-.52.05-.79.21-7.91,1.39-15.7,3.2-23.38,2.71-11.45,7.08-22.25,13.02-32.4,6.09-10.39,13.57-19.67,22.46-27.8,7.59-6.94,15.92-12.83,25.01-17.64,6.16-3.26,12.55-5.97,19.17-8.1,9.74-3.14,19.74-4.94,29.95-5.53,2.19-.13,4.38-.02,6.57-.02.25,17.58-3.96,42.17-19.53,65.36-21.06,31.37-50.71,48.96-88.2,53.6,0,1.95,0,3.86,0,5.76,0,9.75.02,19.51-.02,29.26,0,1.07.16,1.6,1.4,1.62,1.41.02,2.81.31,4.21.52,13.48,2.06,26.38,6.14,38.69,11.91,8.17,3.83,16.27,7.87,24.05,12.42,12.45,7.29,24.6,15.08,36.88,22.67.17.24.3.56.53.71,3.88,2.45,7.77,4.89,11.68,7.3.63.39,1.38.58,2.08.86,9.19,5.32,18.31,10.74,27.57,15.92,9.54,5.33,19.47,9.9,29.6,13.99,9.39,3.8,18.99,7,28.79,9.53,10.33,2.67,20.81,4.5,31.42,5.65,2.29.25,4.58.4,6.87.59v.27Z"/>
  <path class="cls-5" d="m384.83,407.23c-.7-.28-1.45-.47-2.08-.86-3.91-2.4-7.8-4.85-11.68-7.3-.23-.15-.35-.47-.53-.71.49-.28,1.02-.53,1.47-.86,3.75-2.75,7.6-5.37,11.2-8.31,5.14-4.2,10.18-8.55,15.09-13.02,3.07-2.79,5.89-5.88,8.72-8.93,2.82-3.04,5.7-6.04,8.2-9.33,4.83-6.35,9.68-12.71,14.04-19.39,4.14-6.35,7.8-13.04,11.41-19.72,2.17-4.01,4.02-8.22,5.71-12.45,2.51-6.29,4.98-12.62,7.06-19.07,1.81-5.59,3.15-11.34,4.51-17.06.99-4.16,1.78-8.37,2.44-12.59.62-3.93.98-7.91,1.38-11.87.4-4.02.93-8.04,1-12.07.11-6.63,0-13.28-.23-19.91-.15-4.43-.55-8.86-1.07-13.26-.57-4.86-1.31-9.7-2.11-14.52-1.29-7.71-3.21-15.28-5.48-22.75-2.89-9.52-6.48-18.79-10.71-27.79-4.34-9.24-9.24-18.2-15.03-26.61-4.2-6.1-8.61-12.08-13.31-17.81-4.6-5.61-9.52-10.97-14.59-16.15-3.91-3.99-8.15-7.67-12.48-11.21-5.02-4.11-10.19-8.06-15.49-11.8-9.12-6.44-18.73-12.1-28.91-16.72-6.07-2.75-12.15-5.51-18.4-7.8-8.6-3.16-17.41-5.7-26.39-7.65-7.83-1.7-15.71-2.98-23.65-3.85-5.06-.55-10.16-.95-15.26-1.05-6.23-.13-12.47.13-18.71.21-.13,0-.27,0-.4.02-3.62.34-7.25.68-10.87,1.04-2.53.25-5.07.47-7.57.86-3.36.52-6.73,1.06-10.04,1.83-6.96,1.64-13.96,3.14-20.78,5.25-6.89,2.13-13.6,4.84-20.33,7.44-7.39,2.86-14.45,6.44-21.25,10.47-6.45,3.82-12.8,7.84-18.9,12.2-6.03,4.31-11.8,9-17.45,13.8-3.82,3.24-7.35,6.86-10.81,10.49-4.16,4.37-8.34,8.77-12.09,13.48-4.48,5.62-8.66,11.49-12.71,17.42-6.38,9.35-11.73,19.28-16.33,29.63-3.32,7.49-6.26,15.12-8.67,22.95-2.64,8.56-4.9,17.19-6.26,26.05-.7,4.53-1.57,9.05-2.06,13.6-.55,5.07-1.01,10.17-1.05,15.26-.06,7.69.16,15.38.5,23.06.19,4.33.73,8.65,1.32,12.94.67,4.88,1.42,9.77,2.41,14.6,1.79,8.76,4.16,17.38,7.1,25.84,3.45,9.91,7.54,19.53,12.49,28.77,2.71,5.07,5.58,10.07,8.63,14.94,2.74,4.38,5.74,8.61,8.77,12.8,4.93,6.81,10.32,13.28,16.18,19.3,4.99,5.12,10.19,10.08,15.58,14.78,4.73,4.11,9.84,7.78,14.83,11.59,1.27.97,2.72,1.71,4.09,2.55-.94.72-1.84,1.51-2.84,2.14-3.52,2.24-7.06,4.43-10.61,6.62-.22.14-.53.13-.8.18-1.04-.89-2.06-1.81-3.12-2.67-3.52-2.84-7.18-5.52-10.55-8.52-5.24-4.66-10.44-9.4-15.39-14.36-3.98-3.99-7.6-8.33-11.32-12.57-6.21-7.08-11.71-14.7-16.74-22.64-3.05-4.82-5.97-9.75-8.65-14.78-3-5.63-5.91-11.33-8.43-17.19-2.67-6.2-4.91-12.58-7.19-18.94-3.42-9.54-5.71-19.39-7.65-29.31-.85-4.38-1.41-8.82-1.92-13.25-.56-4.8-1.08-9.61-1.32-14.43-.33-6.66-.46-13.34-.51-20.01-.03-3.34.23-6.7.51-10.03.34-3.93.72-7.87,1.32-11.77,1.05-6.83,2.14-13.66,3.47-20.44,1.8-9.21,4.48-18.2,7.71-27.01,2.1-5.72,4.39-11.39,6.91-16.94,2.66-5.85,5.48-11.65,8.64-17.23,3.37-5.95,7.15-11.68,10.91-17.4,2.46-3.73,5.13-7.33,7.84-10.88,2.18-2.86,4.48-5.65,6.86-8.35,3.8-4.28,7.61-8.55,11.61-12.63,3.15-3.21,6.55-6.18,9.91-9.17,3.02-2.69,6.08-5.35,9.24-7.88,3.01-2.41,6.12-4.71,9.28-6.92,4.1-2.87,8.2-5.75,12.47-8.35,4.99-3.04,10.12-5.87,15.29-8.61,9.88-5.24,20.19-9.46,30.77-13.08,8.84-3.03,17.84-5.43,26.97-7.33,5.73-1.19,11.57-1.94,17.38-2.73,3.83-.52,7.68-.92,11.54-1.06C245.12.21,253.39-.03,261.65,0c4.61.02,9.22.56,13.81,1.01,4.49.44,9.01.83,13.44,1.65,7.26,1.34,14.51,2.83,21.68,4.6,10.62,2.62,20.93,6.2,30.93,10.65,6.03,2.68,12.02,5.47,17.85,8.55,10.27,5.42,20.07,11.62,29.21,18.79,4.56,3.58,9.05,7.25,13.43,11.05,3.82,3.32,7.6,6.7,11.1,10.35,4.56,4.76,8.87,9.76,13.2,14.73,5.26,6.03,10.02,12.46,14.3,19.21,3.83,6.03,7.44,12.21,10.97,18.43,4.66,8.2,8.49,16.83,11.7,25.68,2.81,7.73,5.18,15.63,7.42,23.54,1.54,5.42,2.67,10.97,3.7,16.51.86,4.6,1.46,9.26,1.91,13.92.59,6.04,1.02,12.09,1.34,18.15.24,4.68.32,9.37.23,14.06-.08,4.35-.3,8.72-.79,13.05-.8,7-1.78,13.99-2.86,20.95-1.55,9.97-4.2,19.67-7.3,29.27-2.6,8.08-5.65,15.97-9.2,23.68-3.77,8.19-7.8,16.24-12.73,23.81-3.8,5.84-7.57,11.72-11.66,17.36-3.29,4.55-6.9,8.89-10.63,13.09-4.61,5.18-9.36,10.24-14.31,15.09-4.08,3.98-8.47,7.65-12.85,11.31-3.33,2.78-6.87,5.32-10.29,7.98-.21.16-.28.51-.42.77Z"/>
  <path class="cls-1" d="m390.72,467.86c0,1.9,0,3.79,0,5.69,0,10.95-.03,21.9.03,32.85,0,1.4-.54,1.93-1.78,2.04-.13.01-.26.03-.4.03-3.76.24-3.97.04-3.97-3.68,0-13.12,0-26.24,0-39.36,0-2.48.73-3.22,3.25-3.24,1.15,0,2.3.05,3.46.03,2.48-.04,4.06,1.12,4.96,3.42,3,7.7,6.04,15.39,9.07,23.08,1.36,3.45,2.72,6.91,4.16,10.58.27-.58.47-.99.65-1.41,4.41-10.7,8.84-21.4,13.21-32.12.98-2.41,2.51-3.78,5.22-3.59,1.15.08,2.31,0,3.46.05,1.73.08,2.57.96,2.57,2.7.02,3.77,0,7.54,0,11.3,0,10.06-.03,20.13.03,30.19,0,1.41-.57,1.87-1.8,2.04-3.67.5-4.36-.07-4.36-3.69v-35.51c0-.48,0-.96,0-1.45-.07-.02-.13-.04-.2-.06-1.07,2.63-2.15,5.25-3.21,7.88-4.14,10.29-8.33,20.57-12.38,30.89-.79,2.01-2.21,1.98-3.83,1.96-2-.03-2.4-.28-3.08-2.04-4.95-12.86-9.9-25.72-14.85-38.58-.07,0-.15,0-.22,0Z"/>
  <path class="cls-3" d="m40.68,504.7c-4.4-3.52-3.9-7.48-.15-12.28-4.75-6.31-1.98-17.45,8.15-18.75,2.43-.31,4.72.04,7.06.38.52.08,1.04.2,1.56.2,2.7.02,5.41,0,8.11.01.31,0,.69-.1.92.05,1.39.88.85,2.3.83,3.51,0,.85-.5,1.61-1.56,1.63-1.14.01-2.29,0-3.37,0,.44,1.41,1.02,2.73,1.26,4.11,1.01,5.74-1.92,10.96-7.37,12.7-3.95,1.26-7.79,1.11-11.53-.8-1.12,1.09-1.42,2.49-.9,3.78.45,1.13,1.66,1.58,2.97,1.64,3.43.14,6.87.28,10.29.54,3.36.25,6.45,1.27,8.52,4.12,1.96,2.69,1.95,5.69.67,8.65-1.74,4.04-5.2,5.9-9.24,6.73-5.26,1.08-10.53.97-15.57-1.09-5.93-2.43-6.1-9.27-2.72-13.1.61-.69,1.33-1.3,2.08-2.02Zm9.8,11.88c3.09-.13,5.39-.32,7.49-1.52,1.94-1.11,2.85-2.93,2.41-5.4-.33-1.84-1.88-2.56-3.48-2.76-2.65-.33-5.35-.3-8.01-.6-2.22-.25-3.78.54-5.02,2.34-1.6,2.34-2.13,5.72,1.93,7.06,1.72.57,3.59.69,4.67.89Zm.46-37.92c-3.96-.35-6.5,2.71-6.42,6.91.08,4.1,2.44,6.49,6.51,6.49,4.02,0,6.36-2.54,6.49-6.69.12-4.06-2.32-7.01-6.58-6.7Z"/>
  <path class="cls-3" d="m245.64,492.49c-2.72-3.89-2.94-7.97-1.19-12.13,1.69-4.01,5.02-5.92,9.21-6.66,2.55-.45,4.98-.05,7.43.46.43.09.88.1,1.32.1,2.7,0,5.41,0,8.11,0,.31,0,.7-.09.91.05,1.34.9.83,2.32.8,3.54-.02.84-.52,1.6-1.59,1.6-1.14,0-2.28,0-3.34,0,.45,1.44,1.02,2.76,1.26,4.15.99,5.66-1.89,10.86-7.27,12.64-3.81,1.26-6.84,1.1-11.68-.74-1.08,1.08-1.39,2.48-.85,3.77.47,1.11,1.68,1.56,2.99,1.61,3.39.13,6.78.29,10.16.53,3.41.24,6.55,1.25,8.64,4.15,1.95,2.69,1.93,5.69.63,8.66-1.73,3.97-5.13,5.84-9.13,6.68-5.31,1.11-10.62,1-15.7-1.09-5.93-2.44-6.05-9.31-2.67-13.11.62-.69,1.32-1.31,2.09-2.05-1.94-1.53-3.45-3.29-3.15-5.9.27-2.38,1.34-4.44,3-6.24Zm7.64,13.67c-1.28-.33-2.96.52-4.29,2.42-1.57,2.26-2.22,5.67,1.84,7.1,1.22.43,2.55.62,3.85.74,2.97.28,5.89.08,8.55-1.49,1.86-1.1,2.72-3.05,2.23-5.37-.38-1.75-1.87-2.47-3.42-2.68-2.56-.35-5.16-.44-8.76-.73Zm-3.69-20.67c.08.74.07,1.51.25,2.22,1.09,4.35,6.58,5.39,9.97,3.35,2.34-1.41,2.83-3.76,2.76-6.31-.14-5.72-4.89-7.01-9.07-5.75-3.04.92-3.9,3.54-3.92,6.49Z"/>
  <path class="cls-13" d="m158.61,485.4c-1.47,5.52-2.94,11.04-4.42,16.55-.44,1.65-.9,3.29-1.32,4.94-.27,1.08-1.01,1.75-2.03,1.79-1.62.07-3.25-.1-4.88-.15-1.02-.03-1.5-.69-1.76-1.53-2.15-6.98-4.28-13.97-6.43-20.96-.97-3.14-1.96-6.27-2.94-9.41-.6-1.92-.09-2.64,1.9-2.65.84,0,1.69-.03,2.53,0,1.04.05,1.84.41,2.16,1.55,2.22,7.73,4.47,15.46,6.71,23.18.18.62.38,1.23.66,2.16,1.71-6.39,3.32-12.46,4.95-18.52.6-2.24,1.25-4.46,1.83-6.7.32-1.23,1.08-1.69,2.31-1.69,4.08,0,3.98,0,5.09,4.02,1.72,6.24,3.58,12.44,5.39,18.66.37,1.26.75,2.51,1.23,4.08.52-1.67.98-3.09,1.39-4.52,1.64-5.71,3.26-11.44,4.9-17.15.31-1.09.77-2.16.96-3.27.23-1.33,1.06-1.74,2.21-1.8.84-.05,1.68-.02,2.53,0,1.64.03,2.22.82,1.73,2.41-.95,3.1-1.95,6.18-2.9,9.28-2.11,6.86-4.23,13.72-6.31,20.59-.59,1.94-1.23,2.49-3.31,2.46-1.27-.02-2.54-.15-3.81-.2-1.09-.04-1.53-.76-1.79-1.66-1.6-5.5-3.19-11-4.79-16.51-.48-1.67-.99-3.32-1.48-4.99l-.3.02Z"/>
  <path class="cls-11" d="m130.03,490.84c-.08,3.93-.83,7.63-2.8,10.97-2.48,4.21-6.27,6.52-11.11,7.2-2.52.35-4.99.25-7.46-.29-5.41-1.19-8.88-4.55-10.36-9.8-1.44-5.1-1.46-10.27.34-15.32,2.03-5.7,6.08-8.97,12.08-9.88,3.24-.49,6.38-.29,9.5.75,4.69,1.55,7.43,4.91,8.66,9.52.6,2.23.78,4.57,1.15,6.86Zm-6.73.62c-.13-1.36-.18-2.73-.39-4.07-.65-4.06-2.6-7.71-7.45-8.37-4.53-.62-8.91,1.11-10.52,5.91-1.06,3.17-1.18,6.34-.8,9.63.47,4.08,2.37,8.38,7.91,9.12,3.18.42,7.59-.77,9.35-4.08,1.38-2.58,1.85-5.27,1.9-8.14Z"/>
  <path class="cls-7" d="m355.39,467.29v14.42c.49.02.96.06,1.43.06,4.43,0,8.87.03,13.3-.02,1.27-.01,1.78.56,1.84,1.72.03.49.04.98,0,1.46-.08,1.44-.43,1.77-1.86,1.77-4.87,0-9.74,0-14.69,0v16.49c1.05,0,2.1,0,3.14,0,4.74,0,9.49,0,14.23,0,1.68,0,1.98.31,2.01,2.04,0,.44,0,.89,0,1.33-.03,1.19-.56,1.71-1.83,1.71-7.09-.04-14.19-.01-21.28-.02-1.76,0-2.47-.74-2.47-2.53,0-13.65-.01-27.31,0-40.96,0-1.72.68-2.53,2.35-2.54,7.14-.04,14.27-.04,21.41,0,.46,0,1.25.46,1.3.79.16,1.16.19,2.37,0,3.52-.06.33-1.03.72-1.58.73-5.72.05-11.43.03-17.29.03Z"/>
  <path class="cls-6" d="m289.37,509.26c-3.81-.34-7.36-1.11-10.63-2.97-1.87-1.07-2.73-3.87-1.8-5.8.49-1.02,1.24-.73,2.01-.34,1.82.9,3.6,1.9,5.49,2.62,2.75,1.04,5.64,1.17,8.49.42,3.01-.8,5.06-2.62,5.61-5.86.54-3.21-.81-5.55-3.4-7.2-1.75-1.11-3.69-1.89-5.49-2.92-2.68-1.52-5.53-2.85-7.92-4.75-6.08-4.83-5.56-17.14,4.43-20.1,4.83-1.43,9.54-1.04,14.1,1.05,2.04.93,3,3.83,2.03,5.85-.41.84-1.01.68-1.67.36-1.5-.74-2.95-1.75-4.54-2.15-1.98-.5-4.11-.78-6.13-.64-2.63.18-4.74,1.59-5.49,4.3-.75,2.7-.13,5.18,2.15,6.91,1.57,1.19,3.34,2.14,5.08,3.08,2.26,1.21,4.63,2.2,6.86,3.46,4.79,2.7,7.09,6.82,6.49,12.35-.59,5.36-3.54,9.01-8.58,10.77-2.26.79-4.71,1.05-7.07,1.55Z"/>
  <path class="cls-6" d="m455.89,509.26c-3.81-.33-7.36-1.11-10.63-2.97-1.87-1.06-2.73-3.86-1.81-5.8.48-1.02,1.23-.74,2.01-.36,1.82.9,3.6,1.9,5.49,2.62,2.75,1.05,5.64,1.18,8.49.42,3.01-.79,5.07-2.61,5.61-5.85.54-3.2-.8-5.55-3.39-7.2-1.74-1.11-3.69-1.9-5.49-2.92-2.68-1.52-5.53-2.85-7.92-4.75-6.09-4.84-5.56-17.15,4.41-20.1,4.83-1.43,9.54-1.04,14.1,1.05,2.05.94,3.01,3.81,2.04,5.85-.4.84-1,.7-1.66.37-1.5-.74-2.95-1.74-4.54-2.15-1.98-.5-4.11-.78-6.13-.64-2.63.18-4.74,1.59-5.5,4.29-.75,2.7-.13,5.18,2.14,6.91,1.57,1.2,3.34,2.14,5.08,3.08,2.3,1.23,4.72,2.23,6.98,3.53,4.72,2.71,6.98,6.81,6.38,12.28-.58,5.3-3.49,8.95-8.45,10.74-2.29.83-4.79,1.08-7.2,1.59Z"/>
  <path class="cls-10" d="m212.7,478.28c2.11-1.34,4.07-2.99,6.33-3.93,6.51-2.71,14.59.55,15.45,9.04.31,3.07.26,6.18.29,9.27.04,4.74-.02,9.49.04,14.23.01.92-.27,1.55-1.12,1.62-1.34.12-2.7.13-4.04.01-.82-.07-1.15-.66-1.15-1.6.04-6.38.08-12.77-.06-19.15-.04-1.8-.41-3.71-1.11-5.36-1.46-3.47-4.5-3.73-7.32-2.99-2.85.74-4.62,3.17-6.54,5.23-.27.29-.22.91-.23,1.38-.01,6.74,0,13.48,0,20.21,0,1.89-.54,2.44-2.43,2.47-.58,0-1.15.01-1.73,0-1.81-.04-2.36-.6-2.36-2.4,0-6.69,0-13.39,0-20.08,0-3.32,0-6.65,0-9.97,0-1.64.61-2.22,2.22-2.26,3.14-.08,3.96-.06,3.76,3.66-.02.3,0,.6,0,.63Z"/>
  <path class="cls-12" d="m322.13,467.43c-4.18,0-8.17,0-12.16,0-1.55,0-1.92-.38-1.98-1.96,0-.18,0-.35,0-.53,0-2.53.21-2.75,2.68-2.75,9.84,0,19.68,0,29.52,0,1.85,0,2.21.36,2.26,2.24,0,.35.02.71,0,1.06-.09,1.6-.43,1.94-2,1.94-3.55,0-7.09,0-10.64,0-.48,0-.95,0-1.55,0v1.58c0,12.46,0,24.91,0,37.37,0,1.64-.22,1.89-1.85,2.07-.13.02-.27.01-.4.02-3.73.16-3.88.01-3.88-3.68v-37.36Z"/>
  <path class="cls-10" d="m80.23,478.63c1.4-1.31,2.62-2.63,4.02-3.73,2.47-1.93,5.24-1.72,8.04-.8.21.07.41.18.58.31.87.69,1.02,5.1.11,5.73-.34.24-.96.15-1.44.09-1.37-.17-2.76-.67-4.09-.54-2.42.24-3.62,2.31-5,4-1.27,1.55-1.79,3.25-1.74,5.33.15,5.76.05,11.52.05,17.28,0,1.79-.56,2.36-2.37,2.4-.62.01-1.24.02-1.86,0-1.73-.05-2.28-.62-2.29-2.35,0-2.88,0-5.76,0-8.64,0-7.09,0-14.18,0-21.27,0-1.89.56-2.45,2.43-2.45.44,0,.89,0,1.33,0,1.6.02,2.21.64,2.23,2.26,0,.78,0,1.55,0,2.37Z"/>
  <path class="cls-2" d="m196.48,491.49c0,4.96,0,9.93,0,14.89,0,1.71-.56,2.28-2.3,2.33-.62.02-1.24.02-1.86,0-1.81-.04-2.36-.61-2.36-2.4,0-6.78,0-13.56,0-20.34,0-3.23,0-6.47,0-9.7,0-1.59.54-2.17,2.1-2.26.79-.04,1.6-.05,2.39,0,1.49.1,2.03.7,2.03,2.2,0,5.1,0,10.19,0,15.29Z"/>
  <path class="cls-4" d="m193.22,468.29c-3.07,0-3.8-.73-3.85-3.67-.05-2.87.65-3.87,3.67-3.88,2.81,0,4.11.46,3.98,4.1-.1,2.65-.88,3.44-3.8,3.44Z"/>
  <path class="cls-9" d="m255.22,58.74c.4,3.06.68,5.94,1.18,8.79.94,5.33,1.15,10.86,3.45,15.85,1.43,3.11,3.07,6.22,5.13,8.94,5.18,6.83,10.64,13.46,16.02,20.15,5.77,7.18,11.4,14.46,15.69,22.65,1.91,3.64,3.71,7.38,4.01,11.56.2,2.78.21,5.59.05,8.37-.29,4.83-1.43,9.49-3.29,13.98-2.09,5.05-4.97,9.54-8.66,13.57-4.66,5.09-10.21,8.87-16.58,11.42-4.15,1.66-8.48,2.65-12.97,3.05-9.48.84-18.3-1.25-26.48-5.93-7.29-4.17-12.96-10.02-17.07-17.41-2.7-4.86-4.41-10.03-5.22-15.49-1.26-8.55-.16-16.67,4.3-24.31,4.77-8.17,10.43-15.68,16.39-22.98,4-4.9,7.98-9.81,11.97-14.72,4.9-6.01,7.64-13.02,9.23-20.49,1.01-4.78,1.64-9.64,2.44-14.47.13-.78.25-1.56.4-2.54Z"/>
</svg>