<?xml version="1.0" standalone="no"?>
<svg xmlns="http://www.w3.org/2000/svg" width="500" height="500"><defs><clipPath id="clip-path-dot-color"><path d="M 18 162v 16h 16v -8a 8 8, 0, 0, 0, -8 -8" transform="rotate(-90,26,170)"/><path d="M 18 178v 16h 8a 8 8, 0, 0, 0, 0 -16" transform="rotate(90,26,186)"/><path d="M 18 210v 16h 8a 8 8, 0, 0, 0, 0 -16" transform="rotate(180,26,218)"/><path d="M 18 274v 16h 8a 8 8, 0, 0, 0, 0 -16" transform="rotate(-90,26,282)"/><path d="M 18 290v 16h 16v -8a 8 8, 0, 0, 0, -8 -8" transform="rotate(180,26,298)"/><path d="M 18 322v 16h 16v -8a 8 8, 0, 0, 0, -8 -8" transform="rotate(-90,26,330)"/><path d="M 18 338v 16h 8a 8 8, 0, 0, 0, 0 -16" transform="rotate(90,26,346)"/><rect x="34" y="162" width="16" height="16" transform="rotate(0,42,170)"/><path d="M 34 194v 16h 16v -8a 8 8, 0, 0, 0, -8 -8" transform="rotate(-90,42,202)"/><rect x="34" y="210" width="16" height="16" transform="rotate(0,42,218)"/><circle cx="42" cy="250" r="8" transform="rotate(0,42,250)"/><rect x="34" y="290" width="16" height="16" transform="rotate(0,42,298)"/><path d="M 34 322v 16h 8a 8 8, 0, 0, 0, 0 -16" transform="rotate(0,42,330)"/><path d="M 50 146v 16h 8a 8 8, 0, 0, 0, 0 -16" transform="rotate(-90,58,154)"/><path d="M 50 162v 16h 16v -8a 8 8, 0, 0, 0, -8 -8" transform="rotate(90,58,170)"/><rect x="50" y="194" width="16" height="16" transform="rotate(0,58,202)"/><path d="M 50 210v 16h 16v -8a 8 8, 0, 0, 0, -8 -8" transform="rotate(90,58,218)"/><path d="M 50 290v 16h 16v -8a 8 8, 0, 0, 0, -8 -8" transform="rotate(0,58,298)"/><path d="M 50 306v 16h 16v -8a 8 8, 0, 0, 0, -8 -8" transform="rotate(180,58,314)"/><rect x="66" y="194" width="16" height="16" transform="rotate(0,74,202)"/><path d="M 66 242v 16h 8a 8 8, 0, 0, 0, 0 -16" transform="rotate(-90,74,250)"/><path d="M 66 258v 16h 8a 8 8, 0, 0, 0, 0 -16" transform="rotate(90,74,266)"/><path d="M 66 306v 16h 8a 8 8, 0, 0, 0, 0 -16" transform="rotate(0,74,314)"/><path d="M 82 146v 16h 8a 8 8, 0, 0, 0, 0 -16" transform="rotate(180,90,154)"/><rect x="82" y="194" width="16" height="16" transform="rotate(0,90,202)"/><path d="M 82 274v 16h 8a 8 8, 0, 0, 0, 0 -16" transform="rotate(-90,90,282)"/><path d="M 82 290v 16h 16v -8a 8 8, 0, 0, 0, -8 -8" transform="rotate(180,90,298)"/><rect x="98" y="146" width="16" height="16" transform="rotate(0,106,154)"/><path d="M 98 162v 16h 8a 8 8, 0, 0, 0, 0 -16" transform="rotate(90,106,170)"/><path d="M 98 194v 16h 16v -8a 8 8, 0, 0, 0, -8 -8" transform="rotate(0,106,202)"/><path d="M 98 210v 16h 16v -8a 8 8, 0, 0, 0, -8 -8" transform="rotate(180,106,218)"/><path d="M 98 290v 16h 8a 8 8, 0, 0, 0, 0 -16" transform="rotate(0,106,298)"/><path d="M 98 322v 16h 8a 8 8, 0, 0, 0, 0 -16" transform="rotate(-90,106,330)"/><path d="M 98 338v 16h 16v -8a 8 8, 0, 0, 0, -8 -8" transform="rotate(180,106,346)"/><path d="M 114 146v 16h 8a 8 8, 0, 0, 0, 0 -16" transform="rotate(0,122,154)"/><path d="M 114 178v 16h 8a 8 8, 0, 0, 0, 0 -16" transform="rotate(180,122,186)"/><path d="M 114 210v 16h 8a 8 8, 0, 0, 0, 0 -16" transform="rotate(0,122,218)"/><path d="M 114 242v 16h 8a 8 8, 0, 0, 0, 0 -16" transform="rotate(180,122,250)"/><circle cx="122" cy="282" r="8" transform="rotate(0,122,282)"/><circle cx="122" cy="314" r="8" transform="rotate(0,122,314)"/><path d="M 114 338v 16h 8a 8 8, 0, 0, 0, 0 -16" transform="rotate(0,122,346)"/><rect x="130" y="178" width="16" height="16" transform="rotate(0,138,186)"/><rect x="130" y="242" width="16" height="16" transform="rotate(0,138,250)"/><path d="M 130 258v 16h 8a 8 8, 0, 0, 0, 0 -16" transform="rotate(90,138,266)"/><path d="M 130 322v 16h 8a 8 8, 0, 0, 0, 0 -16" transform="rotate(180,138,330)"/><circle cx="154" cy="42" r="8" transform="rotate(0,154,42)"/><circle cx="154" cy="90" r="8" transform="rotate(0,154,90)"/><circle cx="154" cy="122" r="8" transform="rotate(0,154,122)"/><path d="M 146 146v 16h 8a 8 8, 0, 0, 0, 0 -16" transform="rotate(-90,154,154)"/><rect x="146" y="162" width="16" height="16" transform="rotate(0,154,170)"/><rect x="146" y="178" width="16" height="16" transform="rotate(0,154,186)"/><path d="M 146 210v 16h 8a 8 8, 0, 0, 0, 0 -16" transform="rotate(-90,154,218)"/><rect x="146" y="226" width="16" height="16" transform="rotate(0,154,234)"/><rect x="146" y="242" width="16" height="16" transform="rotate(0,154,250)"/><circle cx="154" cy="282" r="8" transform="rotate(0,154,282)"/><rect x="146" y="322" width="16" height="16" transform="rotate(0,154,330)"/><rect x="146" y="338" width="16" height="16" transform="rotate(0,154,346)"/><path d="M 146 354v 16h 16v -8a 8 8, 0, 0, 0, -8 -8" transform="rotate(180,154,362)"/><path d="M 146 386v 16h 16v -8a 8 8, 0, 0, 0, -8 -8" transform="rotate(-90,154,394)"/><path d="M 146 402v 16h 16v -8a 8 8, 0, 0, 0, -8 -8" transform="rotate(180,154,410)"/><path d="M 146 434v 16h 8a 8 8, 0, 0, 0, 0 -16" transform="rotate(180,154,442)"/><circle cx="170" cy="26" r="8" transform="rotate(0,170,26)"/><path d="M 162 66v 16h 8a 8 8, 0, 0, 0, 0 -16" transform="rotate(180,170,74)"/><rect x="162" y="162" width="16" height="16" transform="rotate(0,170,170)"/><path d="M 162 178v 16h 16v -8a 8 8, 0, 0, 0, -8 -8" transform="rotate(90,170,186)"/><rect x="162" y="226" width="16" height="16" transform="rotate(0,170,234)"/><path d="M 162 242v 16h 16v -8a 8 8, 0, 0, 0, -8 -8" transform="rotate(90,170,250)"/><path d="M 162 306v 16h 16v -8a 8 8, 0, 0, 0, -8 -8" transform="rotate(-90,170,314)"/><rect x="162" y="322" width="16" height="16" transform="rotate(0,170,330)"/><rect x="162" y="354" width="16" height="16" transform="rotate(0,170,362)"/><rect x="162" y="370" width="16" height="16" transform="rotate(0,170,378)"/><rect x="162" y="386" width="16" height="16" transform="rotate(0,170,394)"/><rect x="162" y="402" width="16" height="16" transform="rotate(0,170,410)"/><path d="M 162 434v 16h 16v -8a 8 8, 0, 0, 0, -8 -8" transform="rotate(0,170,442)"/><rect x="162" y="450" width="16" height="16" transform="rotate(0,170,458)"/><path d="M 162 466v 16h 16v -8a 8 8, 0, 0, 0, -8 -8" transform="rotate(180,170,474)"/><path d="M 178 34v 16h 16v -8a 8 8, 0, 0, 0, -8 -8" transform="rotate(-90,186,42)"/><rect x="178" y="50" width="16" height="16" transform="rotate(0,186,58)"/><rect x="178" y="66" width="16" height="16" transform="rotate(0,186,74)"/><rect x="178" y="82" width="16" height="16" transform="rotate(0,186,90)"/><rect x="178" y="98" width="16" height="16" transform="rotate(0,186,106)"/><path d="M 178 114v 16h 8a 8 8, 0, 0, 0, 0 -16" transform="rotate(90,186,122)"/><path d="M 178 162v 16h 8a 8 8, 0, 0, 0, 0 -16" transform="rotate(0,186,170)"/><path d="M 178 194v 16h 8a 8 8, 0, 0, 0, 0 -16" transform="rotate(-90,186,202)"/><rect x="178" y="210" width="16" height="16" transform="rotate(0,186,218)"/><path d="M 178 226v 16h 16v -8a 8 8, 0, 0, 0, -8 -8" transform="rotate(90,186,234)"/><rect x="178" y="306" width="16" height="16" transform="rotate(0,186,314)"/><rect x="178" y="322" width="16" height="16" transform="rotate(0,186,330)"/><rect x="178" y="354" width="16" height="16" transform="rotate(0,186,362)"/><rect x="178" y="402" width="16" height="16" transform="rotate(0,186,410)"/><path d="M 178 418v 16h 16v -8a 8 8, 0, 0, 0, -8 -8" transform="rotate(180,186,426)"/><rect x="178" y="466" width="16" height="16" transform="rotate(0,186,474)"/><path d="M 194 34v 16h 16v -8a 8 8, 0, 0, 0, -8 -8" transform="rotate(0,202,42)"/><rect x="194" y="50" width="16" height="16" transform="rotate(0,202,58)"/><path d="M 194 66v 16h 16v -8a 8 8, 0, 0, 0, -8 -8" transform="rotate(90,202,74)"/><path d="M 194 98v 16h 8a 8 8, 0, 0, 0, 0 -16" transform="rotate(0,202,106)"/><path d="M 194 178v 16h 8a 8 8, 0, 0, 0, 0 -16" transform="rotate(180,202,186)"/><path d="M 194 210v 16h 8a 8 8, 0, 0, 0, 0 -16" transform="rotate(0,202,218)"/><path d="M 194 242v 16h 8a 8 8, 0, 0, 0, 0 -16" transform="rotate(-90,202,250)"/><rect x="194" y="258" width="16" height="16" transform="rotate(0,202,266)"/><rect x="194" y="274" width="16" height="16" transform="rotate(0,202,282)"/><rect x="194" y="290" width="16" height="16" transform="rotate(0,202,298)"/><rect x="194" y="306" width="16" height="16" transform="rotate(0,202,314)"/><rect x="194" y="322" width="16" height="16" transform="rotate(0,202,330)"/><rect x="194" y="338" width="16" height="16" transform="rotate(0,202,346)"/><path d="M 194 354v 16h 16v -8a 8 8, 0, 0, 0, -8 -8" transform="rotate(90,202,362)"/><path d="M 194 402v 16h 16v -8a 8 8, 0, 0, 0, -8 -8" transform="rotate(0,202,410)"/><rect x="194" y="418" width="16" height="16" transform="rotate(0,202,426)"/><path d="M 194 450v 16h 8a 8 8, 0, 0, 0, 0 -16" transform="rotate(-90,202,458)"/><rect x="194" y="466" width="16" height="16" transform="rotate(0,202,474)"/><path d="M 210 50v 16h 8a 8 8, 0, 0, 0, 0 -16" transform="rotate(0,218,58)"/><circle cx="218" cy="122" r="8" transform="rotate(0,218,122)"/><path d="M 210 146v 16h 16v -8a 8 8, 0, 0, 0, -8 -8" transform="rotate(-90,218,154)"/><rect x="210" y="162" width="16" height="16" transform="rotate(0,218,170)"/><rect x="210" y="178" width="16" height="16" transform="rotate(0,218,186)"/><circle cx="218" cy="234" r="8" transform="rotate(0,218,234)"/><path d="M 210 290v 16h 8a 8 8, 0, 0, 0, 0 -16" transform="rotate(0,218,298)"/><circle cx="218" cy="394" r="8" transform="rotate(0,218,394)"/><path d="M 210 418v 16h 8a 8 8, 0, 0, 0, 0 -16" transform="rotate(0,218,426)"/><rect x="210" y="466" width="16" height="16" transform="rotate(0,218,474)"/><path d="M 226 18v 16h 16v -8a 8 8, 0, 0, 0, -8 -8" transform="rotate(-90,234,26)"/><path d="M 226 34v 16h 8a 8 8, 0, 0, 0, 0 -16" transform="rotate(90,234,42)"/><circle cx="234" cy="106" r="8" transform="rotate(0,234,106)"/><rect x="226" y="146" width="16" height="16" transform="rotate(0,234,154)"/><rect x="226" y="162" width="16" height="16" transform="rotate(0,234,170)"/><rect x="226" y="178" width="16" height="16" transform="rotate(0,234,186)"/><path d="M 226 194v 16h 16v -8a 8 8, 0, 0, 0, -8 -8" transform="rotate(180,234,202)"/><path d="M 226 242v 16h 8a 8 8, 0, 0, 0, 0 -16" transform="rotate(-90,234,250)"/><path d="M 226 258v 16h 8a 8 8, 0, 0, 0, 0 -16" transform="rotate(90,234,266)"/><circle cx="234" cy="314" r="8" transform="rotate(0,234,314)"/><path d="M 226 370v 16h 8a 8 8, 0, 0, 0, 0 -16" transform="rotate(180,234,378)"/><path d="M 226 402v 16h 8a 8 8, 0, 0, 0, 0 -16" transform="rotate(180,234,410)"/><circle cx="234" cy="442" r="8" transform="rotate(0,234,442)"/><rect x="226" y="466" width="16" height="16" transform="rotate(0,234,474)"/><rect x="242" y="18" width="16" height="16" transform="rotate(0,250,26)"/><path d="M 242 66v 16h 8a 8 8, 0, 0, 0, 0 -16" transform="rotate(-90,250,74)"/><path d="M 242 82v 16h 8a 8 8, 0, 0, 0, 0 -16" transform="rotate(90,250,90)"/><circle cx="250" cy="122" r="8" transform="rotate(0,250,122)"/><rect x="242" y="146" width="16" height="16" transform="rotate(0,250,154)"/><rect x="242" y="194" width="16" height="16" transform="rotate(0,250,202)"/><path d="M 242 274v 16h 8a 8 8, 0, 0, 0, 0 -16" transform="rotate(-90,250,282)"/><path d="M 242 290v 16h 16v -8a 8 8, 0, 0, 0, -8 -8" transform="rotate(180,250,298)"/><path d="M 242 338v 16h 16v -8a 8 8, 0, 0, 0, -8 -8" transform="rotate(-90,250,346)"/><rect x="242" y="354" width="16" height="16" transform="rotate(0,250,362)"/><path d="M 242 370v 16h 16v -8a 8 8, 0, 0, 0, -8 -8" transform="rotate(90,250,378)"/><path d="M 242 402v 16h 8a 8 8, 0, 0, 0, 0 -16" transform="rotate(0,250,410)"/><rect x="242" y="466" width="16" height="16" transform="rotate(0,250,474)"/><rect x="258" y="18" width="16" height="16" transform="rotate(0,266,26)"/><path d="M 258 34v 16h 16v -8a 8 8, 0, 0, 0, -8 -8" transform="rotate(180,266,42)"/><rect x="258" y="146" width="16" height="16" transform="rotate(0,266,154)"/><path d="M 258 162v 16h 16v -8a 8 8, 0, 0, 0, -8 -8" transform="rotate(180,266,170)"/><path d="M 258 194v 16h 8a 8 8, 0, 0, 0, 0 -16" transform="rotate(0,266,202)"/><path d="M 258 242v 16h 16v -8a 8 8, 0, 0, 0, -8 -8" transform="rotate(-90,266,250)"/><path d="M 258 258v 16h 16v -8a 8 8, 0, 0, 0, -8 -8" transform="rotate(180,266,266)"/><path d="M 258 290v 16h 16v -8a 8 8, 0, 0, 0, -8 -8" transform="rotate(0,266,298)"/><rect x="258" y="306" width="16" height="16" transform="rotate(0,266,314)"/><rect x="258" y="322" width="16" height="16" transform="rotate(0,266,330)"/><rect x="258" y="338" width="16" height="16" transform="rotate(0,266,346)"/><rect x="258" y="354" width="16" height="16" transform="rotate(0,266,362)"/><circle cx="266" cy="394" r="8" transform="rotate(0,266,394)"/><circle cx="266" cy="426" r="8" transform="rotate(0,266,426)"/><path d="M 258 450v 16h 16v -8a 8 8, 0, 0, 0, -8 -8" transform="rotate(-90,266,458)"/><path d="M 258 466v 16h 16v -8a 8 8, 0, 0, 0, -8 -8" transform="rotate(90,266,474)"/><rect x="274" y="18" width="16" height="16" transform="rotate(0,282,26)"/><rect x="274" y="34" width="16" height="16" transform="rotate(0,282,42)"/><rect x="274" y="50" width="16" height="16" transform="rotate(0,282,58)"/><rect x="274" y="66" width="16" height="16" transform="rotate(0,282,74)"/><rect x="274" y="82" width="16" height="16" transform="rotate(0,282,90)"/><rect x="274" y="98" width="16" height="16" transform="rotate(0,282,106)"/><rect x="274" y="114" width="16" height="16" transform="rotate(0,282,122)"/><rect x="274" y="130" width="16" height="16" transform="rotate(0,282,138)"/><rect x="274" y="146" width="16" height="16" transform="rotate(0,282,154)"/><path d="M 274 162v 16h 16v -8a 8 8, 0, 0, 0, -8 -8" transform="rotate(90,282,170)"/><path d="M 274 210v 16h 8a 8 8, 0, 0, 0, 0 -16" transform="rotate(180,282,218)"/><rect x="274" y="242" width="16" height="16" transform="rotate(0,282,250)"/><path d="M 274 258v 16h 16v -8a 8 8, 0, 0, 0, -8 -8" transform="rotate(90,282,266)"/><path d="M 274 306v 16h 16v -8a 8 8, 0, 0, 0, -8 -8" transform="rotate(0,282,314)"/><rect x="274" y="322" width="16" height="16" transform="rotate(0,282,330)"/><rect x="274" y="338" width="16" height="16" transform="rotate(0,282,346)"/><path d="M 274 354v 16h 16v -8a 8 8, 0, 0, 0, -8 -8" transform="rotate(90,282,362)"/><path d="M 274 450v 16h 8a 8 8, 0, 0, 0, 0 -16" transform="rotate(0,282,458)"/><path d="M 290 18v 16h 8a 8 8, 0, 0, 0, 0 -16" transform="rotate(0,298,26)"/><rect x="290" y="50" width="16" height="16" transform="rotate(0,298,58)"/><rect x="290" y="82" width="16" height="16" transform="rotate(0,298,90)"/><path d="M 290 98v 16h 16v -8a 8 8, 0, 0, 0, -8 -8" transform="rotate(90,298,106)"/><rect x="290" y="146" width="16" height="16" transform="rotate(0,298,154)"/><path d="M 290 194v 16h 16v -8a 8 8, 0, 0, 0, -8 -8" transform="rotate(-90,298,202)"/><rect x="290" y="210" width="16" height="16" transform="rotate(0,298,218)"/><rect x="290" y="226" width="16" height="16" transform="rotate(0,298,234)"/><rect x="290" y="242" width="16" height="16" transform="rotate(0,298,250)"/><path d="M 290 274v 16h 16v -8a 8 8, 0, 0, 0, -8 -8" transform="rotate(-90,298,282)"/><path d="M 290 290v 16h 16v -8a 8 8, 0, 0, 0, -8 -8" transform="rotate(180,298,298)"/><path d="M 290 322v 16h 16v -8a 8 8, 0, 0, 0, -8 -8" transform="rotate(0,298,330)"/><rect x="290" y="338" width="16" height="16" transform="rotate(0,298,346)"/><path d="M 290 370v 16h 8a 8 8, 0, 0, 0, 0 -16" transform="rotate(-90,298,378)"/><rect x="290" y="386" width="16" height="16" transform="rotate(0,298,394)"/><path d="M 290 402v 16h 16v -8a 8 8, 0, 0, 0, -8 -8" transform="rotate(180,298,410)"/><path d="M 290 466v 16h 8a 8 8, 0, 0, 0, 0 -16" transform="rotate(180,298,474)"/><rect x="306" y="50" width="16" height="16" transform="rotate(0,314,58)"/><rect x="306" y="82" width="16" height="16" transform="rotate(0,314,90)"/><circle cx="314" cy="122" r="8" transform="rotate(0,314,122)"/><rect x="306" y="146" width="16" height="16" transform="rotate(0,314,154)"/><rect x="306" y="162" width="16" height="16" transform="rotate(0,314,170)"/><rect x="306" y="178" width="16" height="16" transform="rotate(0,314,186)"/><path d="M 306 194v 16h 16v -8a 8 8, 0, 0, 0, -8 -8" transform="rotate(90,314,202)"/><rect x="306" y="226" width="16" height="16" transform="rotate(0,314,234)"/><rect x="306" y="242" width="16" height="16" transform="rotate(0,314,250)"/><path d="M 306 274v 16h 16v -8a 8 8, 0, 0, 0, -8 -8" transform="rotate(0,314,282)"/><rect x="306" y="290" width="16" height="16" transform="rotate(0,314,298)"/><rect x="306" y="338" width="16" height="16" transform="rotate(0,314,346)"/><path d="M 306 386v 16h 16v -8a 8 8, 0, 0, 0, -8 -8" transform="rotate(0,314,394)"/><rect x="306" y="402" width="16" height="16" transform="rotate(0,314,410)"/><path d="M 306 418v 16h 16v -8a 8 8, 0, 0, 0, -8 -8" transform="rotate(180,314,426)"/><rect x="306" y="466" width="16" height="16" transform="rotate(0,314,474)"/><path d="M 322 50v 16h 8a 8 8, 0, 0, 0, 0 -16" transform="rotate(0,330,58)"/><path d="M 322 82v 16h 8a 8 8, 0, 0, 0, 0 -16" transform="rotate(0,330,90)"/><path d="M 322 130v 16h 8a 8 8, 0, 0, 0, 0 -16" transform="rotate(-90,330,138)"/><path d="M 322 146v 16h 16v -8a 8 8, 0, 0, 0, -8 -8" transform="rotate(90,330,154)"/><path d="M 322 210v 16h 16v -8a 8 8, 0, 0, 0, -8 -8" transform="rotate(-90,330,218)"/><rect x="322" y="226" width="16" height="16" transform="rotate(0,330,234)"/><rect x="322" y="242" width="16" height="16" transform="rotate(0,330,250)"/><rect x="322" y="290" width="16" height="16" transform="rotate(0,330,298)"/><rect x="322" y="306" width="16" height="16" transform="rotate(0,330,314)"/><rect x="322" y="322" width="16" height="16" transform="rotate(0,330,330)"/><rect x="322" y="338" width="16" height="16" transform="rotate(0,330,346)"/><rect x="322" y="402" width="16" height="16" transform="rotate(0,330,410)"/><path d="M 322 418v 16h 16v -8a 8 8, 0, 0, 0, -8 -8" transform="rotate(90,330,426)"/><rect x="322" y="466" width="16" height="16" transform="rotate(0,330,474)"/><path d="M 338 18v 16h 8a 8 8, 0, 0, 0, 0 -16" transform="rotate(-90,346,26)"/><path d="M 338 34v 16h 8a 8 8, 0, 0, 0, 0 -16" transform="rotate(90,346,42)"/><path d="M 338 98v 16h 8a 8 8, 0, 0, 0, 0 -16" transform="rotate(-90,346,106)"/><path d="M 338 114v 16h 8a 8 8, 0, 0, 0, 0 -16" transform="rotate(90,346,122)"/><path d="M 338 162v 16h 8a 8 8, 0, 0, 0, 0 -16" transform="rotate(-90,346,170)"/><rect x="338" y="178" width="16" height="16" transform="rotate(0,346,186)"/><rect x="338" y="194" width="16" height="16" transform="rotate(0,346,202)"/><rect x="338" y="210" width="16" height="16" transform="rotate(0,346,218)"/><rect x="338" y="226" width="16" height="16" transform="rotate(0,346,234)"/><rect x="338" y="242" width="16" height="16" transform="rotate(0,346,250)"/><rect x="338" y="258" width="16" height="16" transform="rotate(0,346,266)"/><rect x="338" y="274" width="16" height="16" transform="rotate(0,346,282)"/><rect x="338" y="290" width="16" height="16" transform="rotate(0,346,298)"/><rect x="338" y="338" width="16" height="16" transform="rotate(0,346,346)"/><rect x="338" y="354" width="16" height="16" transform="rotate(0,346,362)"/><rect x="338" y="370" width="16" height="16" transform="rotate(0,346,378)"/><rect x="338" y="386" width="16" height="16" transform="rotate(0,346,394)"/><rect x="338" y="402" width="16" height="16" transform="rotate(0,346,410)"/><rect x="338" y="466" width="16" height="16" transform="rotate(0,346,474)"/><circle cx="362" cy="154" r="8" transform="rotate(0,362,154)"/><path d="M 354 210v 16h 8a 8 8, 0, 0, 0, 0 -16" transform="rotate(0,362,218)"/><rect x="354" y="258" width="16" height="16" transform="rotate(0,362,266)"/><rect x="354" y="274" width="16" height="16" transform="rotate(0,362,282)"/><rect x="354" y="290" width="16" height="16" transform="rotate(0,362,298)"/><rect x="354" y="306" width="16" height="16" transform="rotate(0,362,314)"/><rect x="354" y="322" width="16" height="16" transform="rotate(0,362,330)"/><rect x="354" y="338" width="16" height="16" transform="rotate(0,362,346)"/><rect x="354" y="402" width="16" height="16" transform="rotate(0,362,410)"/><path d="M 354 434v 16h 8a 8 8, 0, 0, 0, 0 -16" transform="rotate(-90,362,442)"/><rect x="354" y="450" width="16" height="16" transform="rotate(0,362,458)"/><rect x="354" y="466" width="16" height="16" transform="rotate(0,362,474)"/><path d="M 370 162v 16h 8a 8 8, 0, 0, 0, 0 -16" transform="rotate(-90,378,170)"/><rect x="370" y="178" width="16" height="16" transform="rotate(0,378,186)"/><path d="M 370 194v 16h 8a 8 8, 0, 0, 0, 0 -16" transform="rotate(90,378,202)"/><path d="M 370 226v 16h 8a 8 8, 0, 0, 0, 0 -16" transform="rotate(180,378,234)"/><path d="M 370 258v 16h 8a 8 8, 0, 0, 0, 0 -16" transform="rotate(0,378,266)"/><path d="M 370 306v 16h 16v -8a 8 8, 0, 0, 0, -8 -8" transform="rotate(0,378,314)"/><rect x="370" y="322" width="16" height="16" transform="rotate(0,378,330)"/><rect x="370" y="338" width="16" height="16" transform="rotate(0,378,346)"/><circle cx="378" cy="378" r="8" transform="rotate(0,378,378)"/><rect x="370" y="402" width="16" height="16" transform="rotate(0,378,410)"/><path d="M 370 466v 16h 8a 8 8, 0, 0, 0, 0 -16" transform="rotate(0,378,474)"/><path d="M 386 210v 16h 8a 8 8, 0, 0, 0, 0 -16" transform="rotate(-90,394,218)"/><rect x="386" y="226" width="16" height="16" transform="rotate(0,394,234)"/><rect x="386" y="322" width="16" height="16" transform="rotate(0,394,330)"/><rect x="386" y="338" width="16" height="16" transform="rotate(0,394,346)"/><rect x="386" y="402" width="16" height="16" transform="rotate(0,394,410)"/><path d="M 386 418v 16h 8a 8 8, 0, 0, 0, 0 -16" transform="rotate(90,394,426)"/><path d="M 402 146v 16h 8a 8 8, 0, 0, 0, 0 -16" transform="rotate(-90,410,154)"/><rect x="402" y="162" width="16" height="16" transform="rotate(0,410,170)"/><rect x="402" y="178" width="16" height="16" transform="rotate(0,410,186)"/><path d="M 402 194v 16h 8a 8 8, 0, 0, 0, 0 -16" transform="rotate(90,410,202)"/><rect x="402" y="226" width="16" height="16" transform="rotate(0,410,234)"/><path d="M 402 242v 16h 16v -8a 8 8, 0, 0, 0, -8 -8" transform="rotate(180,410,250)"/><circle cx="410" cy="282" r="8" transform="rotate(0,410,282)"/><path d="M 402 322v 16h 16v -8a 8 8, 0, 0, 0, -8 -8" transform="rotate(0,410,330)"/><rect x="402" y="338" width="16" height="16" transform="rotate(0,410,346)"/><rect x="402" y="354" width="16" height="16" transform="rotate(0,410,362)"/><rect x="402" y="370" width="16" height="16" transform="rotate(0,410,378)"/><rect x="402" y="386" width="16" height="16" transform="rotate(0,410,394)"/><path d="M 402 402v 16h 16v -8a 8 8, 0, 0, 0, -8 -8" transform="rotate(90,410,410)"/><path d="M 418 178v 16h 8a 8 8, 0, 0, 0, 0 -16" transform="rotate(0,426,186)"/><path d="M 418 210v 16h 8a 8 8, 0, 0, 0, 0 -16" transform="rotate(-90,426,218)"/><rect x="418" y="226" width="16" height="16" transform="rotate(0,426,234)"/><path d="M 418 242v 16h 16v -8a 8 8, 0, 0, 0, -8 -8" transform="rotate(90,426,250)"/><path d="M 418 290v 16h 8a 8 8, 0, 0, 0, 0 -16" transform="rotate(-90,426,298)"/><path d="M 418 306v 16h 16v -8a 8 8, 0, 0, 0, -8 -8" transform="rotate(180,426,314)"/><path d="M 418 386v 16h 8a 8 8, 0, 0, 0, 0 -16" transform="rotate(0,426,394)"/><path d="M 418 418v 16h 16v -8a 8 8, 0, 0, 0, -8 -8" transform="rotate(-90,426,426)"/><rect x="418" y="434" width="16" height="16" transform="rotate(0,426,442)"/><path d="M 418 450v 16h 16v -8a 8 8, 0, 0, 0, -8 -8" transform="rotate(180,426,458)"/><path d="M 434 162v 16h 8a 8 8, 0, 0, 0, 0 -16" transform="rotate(180,442,170)"/><path d="M 434 258v 16h 8a 8 8, 0, 0, 0, 0 -16" transform="rotate(180,442,266)"/><path d="M 434 306v 16h 16v -8a 8 8, 0, 0, 0, -8 -8" transform="rotate(0,442,314)"/><rect x="434" y="322" width="16" height="16" transform="rotate(0,442,330)"/><rect x="434" y="338" width="16" height="16" transform="rotate(0,442,346)"/><path d="M 434 354v 16h 8a 8 8, 0, 0, 0, 0 -16" transform="rotate(90,442,362)"/><path d="M 434 418v 16h 16v -8a 8 8, 0, 0, 0, -8 -8" transform="rotate(0,442,426)"/><rect x="434" y="434" width="16" height="16" transform="rotate(0,442,442)"/><rect x="434" y="450" width="16" height="16" transform="rotate(0,442,458)"/><path d="M 434 466v 16h 16v -8a 8 8, 0, 0, 0, -8 -8" transform="rotate(180,442,474)"/><path d="M 450 146v 16h 8a 8 8, 0, 0, 0, 0 -16" transform="rotate(-90,458,154)"/><rect x="450" y="162" width="16" height="16" transform="rotate(0,458,170)"/><circle cx="458" cy="202" r="8" transform="rotate(0,458,202)"/><path d="M 450 242v 16h 16v -8a 8 8, 0, 0, 0, -8 -8" transform="rotate(-90,458,250)"/><rect x="450" y="258" width="16" height="16" transform="rotate(0,458,266)"/><rect x="450" y="274" width="16" height="16" transform="rotate(0,458,282)"/><path d="M 450 290v 16h 16v -8a 8 8, 0, 0, 0, -8 -8" transform="rotate(180,458,298)"/><rect x="450" y="338" width="16" height="16" transform="rotate(0,458,346)"/><path d="M 450 370v 16h 16v -8a 8 8, 0, 0, 0, -8 -8" transform="rotate(-90,458,378)"/><path d="M 450 386v 16h 8a 8 8, 0, 0, 0, 0 -16" transform="rotate(90,458,394)"/><rect x="450" y="450" width="16" height="16" transform="rotate(0,458,458)"/><path d="M 450 466v 16h 16v -8a 8 8, 0, 0, 0, -8 -8" transform="rotate(90,458,474)"/><path d="M 466 162v 16h 16v -8a 8 8, 0, 0, 0, -8 -8" transform="rotate(0,474,170)"/><path d="M 466 178v 16h 8a 8 8, 0, 0, 0, 0 -16" transform="rotate(90,474,186)"/><path d="M 466 210v 16h 8a 8 8, 0, 0, 0, 0 -16" transform="rotate(-90,474,218)"/><rect x="466" y="226" width="16" height="16" transform="rotate(0,474,234)"/><path d="M 466 242v 16h 16v -8a 8 8, 0, 0, 0, -8 -8" transform="rotate(90,474,250)"/><path d="M 466 290v 16h 8a 8 8, 0, 0, 0, 0 -16" transform="rotate(0,474,298)"/><path d="M 466 322v 16h 8a 8 8, 0, 0, 0, 0 -16" transform="rotate(-90,474,330)"/><rect x="466" y="338" width="16" height="16" transform="rotate(0,474,346)"/><rect x="466" y="354" width="16" height="16" transform="rotate(0,474,362)"/><path d="M 466 370v 16h 16v -8a 8 8, 0, 0, 0, -8 -8" transform="rotate(90,474,378)"/><path d="M 466 402v 16h 8a 8 8, 0, 0, 0, 0 -16" transform="rotate(-90,474,410)"/><path d="M 466 418v 16h 8a 8 8, 0, 0, 0, 0 -16" transform="rotate(90,474,426)"/><path d="M 466 450v 16h 8a 8 8, 0, 0, 0, 0 -16" transform="rotate(0,474,458)"/></clipPath><clipPath id="clip-path-corners-square-color-0-0"><path clip-rule="evenodd" d="M 74 18a 56 56 0 1 0 0.1 0zm 0 16a 40 40 0 1 1 -0.1 0Z" transform="rotate(0,74,74)"/></clipPath><clipPath id="clip-path-corners-dot-color-0-0"><circle cx="74" cy="74" r="24" transform="rotate(0,74,74)"/></clipPath><clipPath id="clip-path-corners-square-color-1-0"><path clip-rule="evenodd" d="M 426 18a 56 56 0 1 0 0.1 0zm 0 16a 40 40 0 1 1 -0.1 0Z" transform="rotate(90,426,74)"/></clipPath><clipPath id="clip-path-corners-dot-color-1-0"><circle cx="426" cy="74" r="24" transform="rotate(90,426,74)"/></clipPath><clipPath id="clip-path-corners-square-color-0-1"><path clip-rule="evenodd" d="M 74 370a 56 56 0 1 0 0.1 0zm 0 16a 40 40 0 1 1 -0.1 0Z" transform="rotate(-90,74,426)"/></clipPath><clipPath id="clip-path-corners-dot-color-0-1"><circle cx="74" cy="426" r="24" transform="rotate(-90,74,426)"/></clipPath></defs><rect x="0" y="0" height="500" width="500" clip-path="url('#clip-path-background-color')" fill="#fff"/><rect x="0" y="0" height="500" width="500" clip-path="url('#clip-path-dot-color')" fill="#000000"/><rect x="18" y="18" height="112" width="112" clip-path="url('#clip-path-corners-square-color-0-0')" fill="#000000"/><rect x="50" y="50" height="48" width="48" clip-path="url('#clip-path-corners-dot-color-0-0')" fill="#000000"/><rect x="370" y="18" height="112" width="112" clip-path="url('#clip-path-corners-square-color-1-0')" fill="#000000"/><rect x="402" y="50" height="48" width="48" clip-path="url('#clip-path-corners-dot-color-1-0')" fill="#000000"/><rect x="18" y="370" height="112" width="112" clip-path="url('#clip-path-corners-square-color-0-1')" fill="#000000"/><rect x="50" y="402" height="48" width="48" clip-path="url('#clip-path-corners-dot-color-0-1')" fill="#000000"/></svg>