<?xml version="1.0" encoding="UTF-8"?>
<svg id="Layer_1" data-name="Layer 1" xmlns="http://www.w3.org/2000/svg" viewBox="0 0 3456 1728">
  <defs>
    <style>
      .cls-1 {
        fill: #f8ad18;
      }

      .cls-1, .cls-2, .cls-3, .cls-4, .cls-5, .cls-6, .cls-7, .cls-8, .cls-9, .cls-10, .cls-11, .cls-12, .cls-13, .cls-14, .cls-15, .cls-16 {
        stroke-width: 0px;
      }

      .cls-2 {
        fill: #252122;
      }

      .cls-3 {
        fill: #f8ad17;
      }

      .cls-4 {
        fill: #242121;
      }

      .cls-5 {
        fill: #282425;
      }

      .cls-6 {
        fill: #2e2a2b;
      }

      .cls-7 {
        fill: #242021;
      }

      .cls-8 {
        fill: #2f2b2c;
      }

      .cls-9 {
        fill: #f8af1d;
      }

      .cls-10 {
        fill: #272324;
      }

      .cls-11 {
        fill: #262223;
      }

      .cls-12 {
        fill: #312d2e;
      }

      .cls-13 {
        fill: #252222;
      }

      .cls-14 {
        fill: #383535;
      }

      .cls-15 {
        fill: #fdfdfd;
      }

      .cls-16 {
        fill: #2d292a;
      }
    </style>
  </defs>
  <path class="cls-1" d="m1617.28,914.76c-26.78,15.49-53.24,30.8-79.7,46.11-5.62,3.25-11.19,6.61-16.9,9.71-10.06,5.46-20.45,5.96-30.44.28-30.39-17.31-60.71-34.76-90.86-52.48-9.48-5.57-14.41-14.53-14.46-25.6-.14-34.75-.14-69.51,0-104.26.05-11.39,5.32-20.34,15.06-26.04,29.75-17.42,59.67-34.55,89.56-51.73,2.56-1.47,5.41-2.46,7.78-3.52,0-37.07-.08-73.93.05-110.78.04-11.56,5.47-20.48,15.35-26.25,29.56-17.26,59.22-34.34,88.92-51.36,10.62-6.09,21.48-5.96,32.09.14,29.35,16.87,58.65,33.82,87.96,50.76,1.94,1.12,3.74,2.48,5.29,3.52,31.49-18.18,62.85-36.26,94.19-54.37,11.04-6.38,22.06-6.39,33.07-.05,28.9,16.65,57.77,33.35,86.67,50,11.53,6.64,17.22,16.48,17.17,29.86-.1,33-.02,66.01-.06,99.01,0,3.09-.33,6.18-.44,8.18,12.24,6.92,24.07,13.54,35.83,20.29,20.26,11.64,40.42,23.43,60.7,35.02,11.6,6.63,17.26,16.44,17.23,29.79-.08,33.13-.07,66.26,0,99.39.03,13.2-5.54,22.98-16.98,29.56-28.91,16.64-57.77,33.36-86.66,50.03-11.14,6.43-22.3,6.39-33.44-.04-28.67-16.55-57.35-33.08-86-49.67-3.01-1.74-5.8-3.85-8.13-5.41-32.38,18.71-64.53,37.4-96.82,55.85-9.81,5.6-20.25,5.8-30.09.2-30.29-17.24-60.41-34.77-90.57-52.24-2.14-1.24-4.04-2.89-5.41-3.89Zm75.07,20.99c9.83,5.69,19.7,11.32,29.49,17.09,4.54,2.67,8.9,2.74,13.42.02,4.17-2.51,8.45-4.84,12.64-7.32,5.35-3.18,10.66-6.44,15.99-9.66,19.7-11.34,39.42-22.64,59.09-34.04,4.04-2.34,5.56-6.11,5.55-10.75-.05-33.63-.06-67.25,0-100.88,0-5.15-2.06-8.84-6.48-11.38-29.22-16.84-58.43-33.69-87.63-50.57-4.45-2.57-8.68-2.35-13.09.2-28.75,16.66-57.51,33.3-86.34,49.81-5.24,3-7.58,7.13-7.57,13.11.08,32.88.08,65.75,0,98.63-.01,5.81,2.2,9.98,7.34,12.87,11.32,6.37,22.5,12.99,33.78,19.44,7.9,4.53,15.86,8.96,23.8,13.43Zm158.25-95.36c0,16.25.21,32.5-.1,48.74-.13,6.85,2.53,11.14,8.4,14.48,28.32,16.13,56.53,32.47,84.7,48.87,5.09,2.96,9.7,3.01,14.77.07,28.51-16.56,57.05-33.06,85.66-49.46,5.21-2.99,7.65-7.08,7.64-13.08-.08-32.87-.08-65.74,0-98.61.02-5.97-2.29-10.13-7.53-13.13-28.5-16.32-56.96-32.72-85.33-49.27-5.36-3.13-10.06-3.18-15.41-.06-28.48,16.61-57.04,33.09-85.64,49.48-5,2.86-7.25,6.73-7.2,12.47.14,16.5.05,33,.05,49.49Zm87.73-192.16c0-16.5-.04-32.99.02-49.49.02-5.79-2.28-9.88-7.41-12.82-28.71-16.45-57.36-33.01-85.98-49.62-4.92-2.86-9.5-2.91-14.44,0-13.34,7.86-26.79,15.52-40.2,23.27-15.57,8.99-31.14,17.99-46.71,26.98-3.42,1.98-5.89,4.54-5.89,8.83.04,34.36.19,68.73-.05,103.09-.04,6,2.3,9.47,7.2,12.28,28.6,16.4,57.14,32.89,85.65,49.43,4.93,2.86,9.53,2.84,14.46-.03,28.4-16.49,56.82-32.95,85.34-49.22,5.65-3.23,8.12-7.56,8.06-13.98-.16-16.24-.05-32.49-.05-48.74Zm-220.91.53s-.04,0-.06,0c0-16.88-.23-33.76.12-50.63.12-5.83-2.13-9.27-6.94-12.03-28.4-16.27-56.76-32.61-85.03-49.11-5.62-3.28-10.51-3.15-16.09.11-28.15,16.45-56.4,32.75-84.7,48.93-5.37,3.07-7.77,7.14-7.74,13.34.14,32.63.16,65.27-.02,97.9-.03,6.5,2.38,10.75,8.02,13.97,28.1,16.04,56.15,32.18,84.06,48.55,6.01,3.53,11.15,3.55,17.09,0,15.77-9.41,31.76-18.44,47.66-27.63,12.44-7.19,24.88-14.37,37.31-21.57,3.46-2.01,6.36-4.36,6.34-8.94-.05-17.63-.02-35.26-.02-52.89Zm-111.83,191.87c0-16.87-.03-33.75.02-50.62.01-4.97-2.07-8.61-6.35-11.08-29.1-16.79-58.21-33.57-87.27-50.42-4.68-2.71-9.07-2.71-13.77.02-28.84,16.74-57.71,33.43-86.63,50.04-4.85,2.79-7.05,6.69-7.04,12.23.06,33.25.06,66.5,0,99.75,0,5.55,2.24,9.44,7.07,12.22,28.7,16.49,57.37,33.02,85.97,49.68,5.22,3.04,9.91,3,15.1-.02,28.61-16.65,57.27-33.19,85.97-49.68,4.85-2.78,7.03-6.66,6.99-12.24-.12-16.62-.04-33.25-.05-49.87Z"/>
  <path class="cls-4" d="m1739.12,1016.01v126h-28.84v-53.18h-50.42v53.18h-29.02v-126.03h28.88v47.73h50.46v-47.71h28.93Z"/>
  <path class="cls-2" d="m2025.43,1089.41v28.1h41.87v24.49h-71.01v-125.98h70.98v24.39h-41.88v24.35h39.71v24.66h-39.68Z"/>
  <path class="cls-2" d="m1840.53,1015.84c10.01,0,19.5.1,28.99-.07,2.47-.04,2.8,1.48,3.43,3.08,9.36,23.66,18.73,47.32,28.1,70.97.81,2.04,1.65,4.07,2.76,6.8,10.82-27.3,21.37-53.95,31.95-80.66h31.18c-.36,1.08-.63,2.09-1.03,3.04-16.94,39.96-33.92,79.91-50.78,119.91-1.11,2.63-2.48,3.51-5.27,3.35-4.36-.25-8.75-.17-13.11-.02-2.04.07-3.1-.54-3.92-2.49-17.09-40.44-34.25-80.86-51.39-121.28-.28-.67-.48-1.38-.9-2.63Z"/>
  <path class="cls-4" d="m1810.84,1016.09v125.9h-28.93v-125.9h28.93Z"/>
  <path class="cls-11" d="m1450.91,1139.7h-13.46v-137.71h13.3v67.83c1.19-1.03,1.89-1.57,2.52-2.19,9.09-8.87,23.06-10.83,34.3-4.82,8.76,4.68,12.53,12.49,12.68,21.89.3,18.23.09,36.48.09,54.96h-13.47c0-1.34,0-2.66,0-3.98,0-14.25.02-28.5-.02-42.75,0-2.24-.12-4.5-.4-6.72-1-7.85-4.88-12.62-11.35-14.12-7.97-1.84-15.29.71-19.58,6.87-3.26,4.69-4.45,10.04-4.5,15.61-.14,13.62-.1,27.25-.12,40.87,0,1.35,0,2.7,0,4.26Z"/>
  <path class="cls-10" d="m1593.86,1119.74c-7.77,16.33-24.43,24.79-42.5,21.96-17.47-2.74-29.22-15.26-31.48-33.26-1.18-9.39-.29-18.47,3.47-27.15,6.58-15.17,21.82-23.73,38.27-21.7,17.7,2.18,28.65,12.5,31.83,30.27.78,4.36.96,8.82,1.45,13.54h-60.94c-1.47,9.82,5.38,21,15.06,24.86,12.76,5.1,23.58.53,33.94-14.49,3.56,1.95,7.15,3.91,10.89,5.95Zm-13.65-27.89c-1.37-11.58-11.25-20.3-22.62-20.34-11.35-.04-21.55,8.97-22.83,20.34h45.45Z"/>
  <path class="cls-9" d="m1983.83,1202.22c0-5.96-.08-11.69.1-17.41.02-.75,1.36-1.51,2.17-2.17.23-.18.73-.03,1.1-.03,27.12,0,54.23,0,81.35,0,.73,0,1.46.11,2.44.19v19.42h-87.15Z"/>
  <path class="cls-3" d="m1384.63,1201.06v-19.22h87.05v19.22h-87.05Z"/>
  <path class="cls-7" d="m1397.09,1073.86h-8.09v-12.36h7.97v-28.38h13.59v28.08h13.45v12.46h-13.23v65.98h-13.69v-65.78Z"/>
  <path class="cls-6" d="m1780.13,1193.53c3.68-8.08,7.13-15.64,11.04-24.24,2.08,11.82,3.98,22.59,5.93,33.65h-4.85c-1.01-5.66-2.05-11.5-3.3-18.47-3.21,7.04-6.01,13.2-9.09,19.97-3.01-6.67-5.81-12.89-9.03-20.03-1.25,6.91-2.31,12.73-3.37,18.63h-4.85c2.15-11.06,4.25-21.89,6.56-33.79,3.83,8.49,7.26,16.07,10.96,24.28Z"/>
  <path class="cls-16" d="m1670.87,1205.57c2.12-.42,3.76-.63,5.19,1.89.72,1.25,3.46,2.22,4.99,1.89,1.51-.32,2.89-2.28,3.83-3.82.54-.89.1-2.37.1-3.88-4.16,2.54-8.22,3.12-11.87-.17-3.6-3.24-4.26-7.48-2.99-12.01,1.13-4.03,4.76-6.87,8.88-6.65,1.89.1,3.72,1.49,5.61,1.55,1.49.04,3.02-1.06,4.88-1.79,0,8.43.31,16.02-.11,23.57-.28,5.06-4.31,7.86-9.71,7.76-5.03-.09-8.07-2.93-8.8-8.33Zm3.52-12.2c.06,3.68,2.33,6.21,5.54,6.16,3.13-.04,5.42-2.71,5.43-6.32.01-3.83-2.4-6.48-5.75-6.32-3.13.15-5.28,2.82-5.22,6.49Z"/>
  <path class="cls-8" d="m1540.37,1205.55c2.41-.46,4.07-.5,5.47,2,.68,1.23,3.52,2.13,5.04,1.77,1.48-.35,2.73-2.4,3.66-3.95.49-.82.09-2.17.09-3.32-9.62,3.65-16.34-1.19-15.17-10.81.81-6.64,7.01-10.04,13.3-7.71,1.79.66,4.14-.17,6.14-.32,0,8.2.4,16.26-.16,24.27-.3,4.31-4.62,6.6-9.62,6.42-4.72-.17-7.45-2.72-8.74-8.35Zm9.03-18.66c-3.26.11-5.56,3.01-5.36,6.77.18,3.45,2.45,5.87,5.5,5.88,3.22,0,5.73-2.96,5.59-6.61-.14-3.6-2.55-6.14-5.74-6.04Z"/>
  <path class="cls-12" d="m1745.14,1198.56h11.94v4.38h-16.94v-31.12h16.95v4.36h-12.02v7.71h11.71c.1,1.65.17,2.95.27,4.6h-11.93v10.07Z"/>
  <path class="cls-8" d="m1511.35,1169.74c5.09,11.37,9.9,22.13,14.73,32.94-3.63,1.43-5.8.27-6.58-3.14-.8-3.53-2.98-4.51-6.28-4-.85.13-1.76.13-2.61,0-4.49-.7-7.46.59-8.92,5.37-.42,1.37-3.12,2.05-4.78,3.04-.36-.4-.71-.8-1.07-1.2,5.08-10.82,10.16-21.64,15.5-33.01Zm4.45,21.13c-1.55-3.5-2.92-6.59-4.64-10.47-1.75,3.85-3.19,6.99-4.77,10.47h9.41Z"/>
  <path class="cls-16" d="m1713.83,1176.26c-1.25.79-2.27,1.45-2.62,1.67-2.69-.91-4.76-2.05-6.87-2.13-1.11-.04-2.87,1.62-3.24,2.84-.3.97.76,2.86,1.76,3.61,1.56,1.16,3.6,1.65,5.4,2.5,5.48,2.59,7.43,6.36,6.11,11.71-1.12,4.54-5.01,7.33-10.06,7.21-5.17-.12-8.44-3.09-9.66-9.19,1.33-.33,2.7-.67,4.25-1.06.42,1.02.75,1.92,1.14,2.78,1.09,2.36,3.13,3.58,5.45,2.78,1.63-.57,3.83-2.26,3.97-3.64.19-1.82-1.08-4.04-2.29-5.67-.79-1.05-2.58-1.38-3.95-1.97-5.42-2.34-7.41-4.77-7.18-8.84.2-3.59,2.6-6.42,6.31-7.46,4.49-1.26,8.27.25,11.49,4.86Z"/>
  <path class="cls-16" d="m1801.93,1194.47c1.52-.38,2.81-.7,4.23-1.05.49,1.19.62,2.6,1.37,3.11,1.61,1.1,3.57,2.41,5.32,2.33,1.39-.07,3.59-1.92,3.82-3.26.3-1.74-.51-4.17-1.71-5.54-1.2-1.37-3.46-1.83-5.27-2.65-4.71-2.14-6.69-4.74-6.39-8.64.28-3.63,2.28-5.95,5.66-7.14,4.2-1.47,8.28-.36,11.11,3.04.31.38.54.83,1.01,1.55-1.16.75-2.27,1.47-2.79,1.8-2.34-.95-4.17-2.23-6.04-2.27-1.33-.03-3.47,1.39-3.82,2.59-.32,1.11.91,3.18,2.05,4.1,1.49,1.21,3.6,1.63,5.38,2.51,5.2,2.56,7.04,6.35,5.71,11.57-1.15,4.51-5.08,7.28-10.13,7.13-5.15-.15-8.48-3.22-9.54-9.18Z"/>
  <path class="cls-6" d="m1861.88,1196.14c.72,5.56.41,6.04-4.26,7.12-6.82,1.57-13.66-1.03-17.46-6.63-3.68-5.42-3.65-13.07.08-18.76,3.53-5.38,10.37-7.99,17.15-6.54,4.87,1.04,5.23,1.59,4.53,6.89-7.88-3.93-13.57-3.35-17.31,1.76-3.31,4.52-2.97,11.53.76,15.63,4.04,4.44,9.94,4.68,16.51.54Z"/>
  <path class="cls-8" d="m1623.84,1204.44c-1.91-4.18-3.64-7.98-5.64-12.35-1.96,4.36-3.62,8.06-5.55,12.37-3.51-7.19-6.79-13.93-10.1-20.72q4.75-1.06,6.56,2.9c1.08,2.37,2.15,4.74,3.52,7.75,1.94-4.42,3.61-8.21,5.59-12.72,1.93,4.39,3.6,8.2,5.55,12.64,1.34-2.86,2.65-5.07,3.43-7.45,1.1-3.39,3.12-4.52,6.76-3.31-3.29,6.79-6.59,13.61-10.11,20.88Z"/>
  <path class="cls-16" d="m1942.11,1194.29h-15.05c1.83,2.14,2.87,4.51,4.19,4.67,2.37.29,4.9-.75,7.36-1.23-.03-.39-.06-.78-.09-1.17,1.06.61,2.12,1.21,3.17,1.82-2.23,4.6-7.31,6.53-12.32,4.8-4.56-1.57-7.1-7.23-5.74-12.78,1.26-5.17,5.72-8.26,10.85-7.54,5,.7,7.75,4.68,7.63,11.44Zm-5.2-3.94c.22-.45.44-.9.65-1.35-1.57-.75-3.15-2.11-4.71-2.08-1.53.04-3.02,1.5-4.52,2.33.19.37.38.73.57,1.1h8Z"/>
  <path class="cls-6" d="m1885.1,1194.28h-13.67c-.25.29-.49.57-.74.86,1.3,1.39,2.47,3.75,3.92,3.94,2.24.29,4.66-.92,7.01-1.49-.03-.34-.06-.68-.08-1.03,1.06.61,2.12,1.22,3.16,1.82-2.17,4.59-7.22,6.54-12.28,4.83-4.56-1.55-7.13-7.24-5.77-12.77,1.28-5.19,5.7-8.28,10.83-7.57,5.04.69,7.83,4.72,7.61,11.42Zm-5.22-3.96c.23-.42.46-.83.7-1.25-1.54-.77-3.09-2.17-4.62-2.14-1.55.03-3.07,1.46-4.61,2.28.18.37.36.75.54,1.12h7.98Z"/>
  <path class="cls-6" d="m1589.6,1182.72c6,0,10.54,4.41,10.62,10.3.09,6.02-4.54,10.65-10.67,10.64-6.18,0-10.65-4.53-10.56-10.68.09-5.96,4.54-10.27,10.6-10.26Zm-5.86,10.5c.02,3.85,2.31,6.33,5.83,6.32,3.52,0,5.84-2.52,5.85-6.34.02-3.78-2.35-6.32-5.87-6.32-3.53,0-5.83,2.51-5.81,6.34Z"/>
  <path class="cls-16" d="m1728.62,1202.97h-4.7v-26.52h-7.18c-.1-1.66-.17-2.95-.27-4.52h19.19v4.13h-7.04v26.92Z"/>
  <path class="cls-6" d="m1907.02,1203.03h-4.56c0-3.58.08-7.03-.03-10.48-.08-2.56.25-5.62-3.69-5.64-3.81-.02-3.87,2.93-3.98,5.55-.15,3.46-.04,6.93-.04,10.54h-4.61c-.07-1.01-.18-1.85-.18-2.69-.02-5.59,0-11.17,0-16.6,3.73-.34,7.09-.85,10.46-.91,3.9-.07,6.4,2.24,6.58,6.16.22,4.58.05,9.18.05,14.07Z"/>
  <path class="cls-6" d="m1664.76,1203h-4.59c0-3.74.09-7.55-.04-11.36-.07-2.1-.16-4.44-3.09-4.73-2.54-.26-4.16.85-4.33,3.46-.28,4.09-.41,8.18-.62,12.63-1.31.06-2.61.12-4.46.21,0-3.43,0-6.62,0-9.81s0-6.46,0-9.82c3.92-.26,7.64-.78,11.34-.66,3.59.12,5.62,2.59,5.75,6.56.15,4.36.03,8.72.03,13.52Z"/>
  <path class="cls-16" d="m1913.24,1176.1h4.33v6.82c1.37.19,2.42.33,3.56.48v3.78c-.97.18-2.01.38-3.46.65v15.15h-4.63c0-4.07.1-8.25-.07-12.41-.04-1.08-1-2.09-1.34-3.2-.31-1.02-.84-2.78-.45-3.07,2.97-2.14,1.39-5.32,2.05-8.21Z"/>
  <path class="cls-14" d="m1569.6,1202.98h-4.24v-19.66h12.9c-.57,1.53-1.03,2.75-1.47,3.93-6.17.14-6.74.73-6.79,6.9-.02,2.61-.03,5.22-.07,7.83,0,.23-.15.46-.33,1Z"/>
  <path class="cls-12" d="m1947.21,1183.37h12.73c-.51,1.43-.95,2.64-1.37,3.82-6.25.26-6.86.91-6.89,7.32-.01,2.73,0,5.46,0,8.43h-4.47v-19.57Z"/>
  <path class="cls-14" d="m1637.34,1202.88v-19.57c1.45-.07,2.76-.12,4.38-.2v19.77h-4.38Z"/>
  <path class="cls-12" d="m1639.43,1179.29c-1.33-2.01-2.81-3.3-2.59-4.16.3-1.2,1.87-2.08,2.89-3.1.92,1.1,2.37,2.12,2.57,3.33.14.88-1.41,2.02-2.87,3.92Z"/>
  <path class="cls-2" d="m1692.35,935.75c7.77-5,16.39-7.68,25.41-9.26.86-.15,1.73-.23,2.59-.4.35-.07.66-.32,1.06-.53v-18.37c-19.09-2.66-34.2-11.61-44.95-27.54-6.97-10.33-11.16-25.05-9.8-33.79,27.17-.62,56.98,20.78,61.05,55.74,2.54-15.45,8.71-29,20.36-39.62,11.73-10.7,25.58-16.03,41.86-16.41-.23,16.04-5.44,29.8-15.97,41.45-10.54,11.67-23.83,18.22-39.78,20.18,0,5.76-.09,11.35.1,16.93.03.78,1.34,2.06,2.19,2.18,9.78,1.39,18.73,5.08,27.42,9.57-5.33,3.23-10.63,6.48-15.99,9.66-4.19,2.49-8.47,4.81-12.64,7.32-4.52,2.72-8.88,2.65-13.42-.02-9.79-5.76-19.66-11.4-29.49-17.09Z"/>
  <path class="cls-13" d="m1912.47,786.2c19.71-4.56,36.95,11.69,33.31,30.55-.58,2.99.27,4.57,2.23,6.43,18.5,17.53,36.91,35.15,55.38,52.71,4.37,4.16,6.81,9.01,5.29,15.09-1.35,5.37-4.87,8.98-10.28,10.37-5.55,1.42-10.34-.18-14.3-4.32-13.89-14.55-27.79-29.08-41.68-43.63-4.23-4.43-8.32-8.99-12.72-13.24-1.12-1.08-3.29-1.91-4.77-1.65-19.81,3.49-35.73-12.6-31.7-32.8.88.67,1.67,1.14,2.3,1.77,4.7,4.66,9.33,9.4,14.06,14.03,3.32,3.25,4.61,3.24,7.83.11,3.85-3.74,7.67-7.52,11.43-11.36,3.13-3.2,3.15-4.74.02-7.88-5.27-5.29-10.63-10.49-16.41-16.17Zm88.44,101.09c0-3.53-2.94-6.4-6.44-6.32-3.34.07-6.14,2.87-6.25,6.22-.1,3.45,2.81,6.42,6.33,6.45,3.59.03,6.37-2.74,6.36-6.35Z"/>
  <path class="cls-5" d="m1944.64,862.66c1.84,1.66,3.4,3.07,5.23,4.71-1.08,1.23-1.81,2.18-2.65,3.02-8.91,8.93-17.81,17.86-26.76,26.75-6.33,6.29-12.96,6.38-19.38.29-1.54-1.46-3.1-2.93-4.42-4.58-4.16-5.22-4.09-11.64.51-16.34,9.86-10.09,19.9-20.01,29.88-29.99.34-.34.81-.57,1.58-1.11,1.47,1.62,2.95,3.24,4.64,5.1-.98,1.07-1.84,2.1-2.79,3.05-8.03,8.04-16.08,16.06-24.1,24.11-.87.88-1.8,1.79-2.33,2.87-.29.58-.04,1.81.43,2.27.47.45,1.68.62,2.29.34.97-.45,1.78-1.33,2.57-2.12,8.14-8.11,16.25-16.24,24.38-24.36.87-.87,1.79-1.69,2.6-2.46.46.17.74.2.91.35q4.84,4.22.36,8.69c-7.6,7.59-15.2,15.18-22.79,22.77-.71.71-1.67,1.32-2,2.18-.34.89-.45,2.35.06,2.95.43.5,2,.39,2.87.05.86-.34,1.49-1.28,2.2-1.99,8.03-8.04,16.06-16.08,24.1-24.11.79-.78,1.62-1.52,2.64-2.46Z"/>
  <path class="cls-10" d="m1967.03,835.44c-2.4-2.58-4.33-4.66-6.27-6.74-.43-.46-.85-.92-1.28-1.37,1.96-1.33,4.14-2.43,5.83-4.04,5.15-4.9,10.24-9.88,15.1-15.07,2.52-2.69,4.19-6.21,6.83-8.76,4.07-3.93,8.61-7.39,13.07-10.9.38-.3,1.79.36,2.48.89,1.78,1.36,3.42,2.89,5.4,4.6-5.05,5.74-7.39,12.85-14.63,15.81-2.08.85-3.75,2.84-5.43,4.5-6.91,6.82-13.74,13.71-21.1,21.07Z"/>
  <path class="cls-10" d="m1793.44,636.7c2.49,2.58,5.12,5.04,7.38,7.8.71.87.66,2.55.6,3.85-.29,6.1,1.82,11.17,6.09,15.5,4.57-2.13,8.96-4.18,13.99-6.53-10.8-10.07-21.32-19.89-32.43-30.24-3.16,16.59-6.2,32.52-9.36,49.12,4.26-1.77,7.79-3.25,11.18-4.66,2.65,3.51,5.19,6.87,7.98,10.56-11.63,5.14-23.31,10.3-35.68,15.76,5.76-32.26,11.39-63.8,17.13-95.94,8.38,7.9,16.35,15.42,24.36,22.97,16.54-9.53,33.78-10.84,51.75-5.18.92.29,2.51-.44,3.36-1.18,5.72-5.02,11.33-10.16,17.07-15.35,14.67,14.09,30.26,29.06,46.15,44.33-15.11,15.73-30.12,31.37-45.52,47.41-2.89-3.49-5.57-6.73-8.24-9.95,11.25-11.79,23.25-24.38,35.43-37.14-9.6-9.22-18.96-18.2-28.62-27.48-9.14,9.52-18.1,18.85-26.62,27.73,4.8,5.4,9.5,10.68,14.15,15.91,6.89-5.58,8.77-15.14,4.43-22.64-1.46-2.53-1.53-4.08.77-5.95,1.72-1.4,3.08-3.23,4.57-4.83,12.48,9.82,12.94,28.74,1.1,40.73-11.61,11.76-26.24,15.37-42.17,14.79-9.91-.36-19.23-3.16-27.55-8.63-9.69-6.38-16.35-14.91-15.93-27.09.16-4.53,2.06-9,3.17-13.49.49-.06.97-.11,1.46-.17Zm57.45-8.89c-13.82-3.93-26.3-3.1-38.58,4.25,6.2,5.9,12.04,11.46,18.08,17.21,6.81-7.13,13.41-14.04,20.5-21.47Zm-19.93,22.21c-2.98,7.62,3.44,10.21,6.98,14.63-5.35,2.51-10.52,4.93-16.49,7.73,11.26,3.1,21.28,2.97,31.55-1.17-7.5-7.21-14.68-14.11-22.05-21.19Z"/>
  <path class="cls-1" d="m1728.95,777.06c-.03,10.27,6.11,17.23,12.03,24.36,2.79,3.35,5.29,6.94,7.83,10.49,9.28,12.96,0,30.38-13.51,33.96-16.55,4.39-32.74-10.08-29.18-26.56.69-3.18,2.56-6.19,4.32-9.02,1.9-3.06,4.1-5.99,6.53-8.66,6.37-6.99,11.31-14.6,11.98-24.57Z"/>
  <path class="cls-11" d="m1588.86,644.92c-.92-4.46-.88-9.45-2.96-13.27-5.6-10.26-11.06-20.46-12.24-32.3-.38-3.86-.06-7.78.75-11.99.63,1.08,1.46,2.1,1.85,3.26,4.26,12.76,8.33,25.59,12.71,38.3,1.75,5.07,4.15,9.92,6.26,14.86.5-.09,1-.17,1.51-.26.28-1.08.6-2.16.82-3.25,1.16-5.81,4.33-10.25,8.25-14.73,7.95-9.11,15.3-18.82,18.82-30.72.55-1.87.21-3.99.62-5.92.18-.87,1.2-1.56,1.84-2.33.75.69,2.15,1.39,2.13,2.05-.1,2.83.07,5.98-1.1,8.42-3.56,7.38-7.68,14.49-11.64,21.68-.65,1.19-1.57,2.22-2.63,3.7,4.23.39,7.59.56,10.74-3.07,4.15-4.79,9.37-8.64,13.75-13.25,5.66-5.96,11.51-11.95,11.91-21.01.03-.72,1.4-1.39,2.14-2.08.62.82,1.85,1.72,1.76,2.46-.36,2.81-.45,6.01-1.9,8.26-3.77,5.83-7.85,11.54-12.47,16.71-4.13,4.62-9.13,8.46-14.21,13.06,3.46-.76,6.57-1.57,9.72-2.08,1.87-.3,4.28-.88,5.65-.04,6.66,4.07,13.04,8.58,19.53,12.93.58.39,1.17.82,1.82,1.06,5.56,2.07,11.17,4.04,16.71,6.15,3.89,1.48,5.05,5.04,5.71,8.63.18.98-.87,2.57-1.82,3.22-.54.37-2.14-.39-3.01-.99-1.3-.9-2.38-2.12-3.6-3.24.14,3.85.75,7.15.16,10.21-.3,1.57-2.65,2.95-4.37,3.87-.44.24-2.31-1.41-2.97-2.52-1.65-2.75-2.98-5.69-4.43-8.55-.42.1-.83.2-1.25.3.36,3.21.73,6.41,1.18,10.36-1.79.28-5.04,1.69-6.03.75-2.07-1.98-3.77-5.11-4.12-7.96-.43-3.48.69-7.15,1.15-10.83-3.43-.83-6.89-1.67-10.11-2.46.49,5.16,1.36,10.27,1.35,15.38-.01,6.39-1.66,7.93-8,9.24-1.71.35-3.5.35-5.17.83-1.03.3-1.89,1.2-3.14,2.04,6.88,4.05,8.39,8.53,2.25,11.3,4.41,7.05,8.88,14.19,13.36,21.32.26.41.56.93.97,1.1,5.25,2.14,10.54,4.17,15.77,6.33,5.64,2.33,11.23,4.76,16.84,7.15-.03.34-.07.67-.1,1.01-1.23.19-2.51.71-3.69.53-5.27-.81-10.51-1.83-15.76-2.77-5.37-.96-10.73-1.99-16.12-2.81-1-.15-2.12.61-3.2.86-11.84,2.78-23.15,2.05-33.01-5.83-2.43-1.94-3.91-5.05-6.05-7.42-.76-.85-2.3-1.68-3.29-1.49-2.03.39-3.93,1.48-5.89,2.28-3.54,1.44-5.4.34-6.44-3.24-.27-.94-1.82-1.98-2.9-2.12-3.07-.39-6.65.57-9.19-.69-3.71-1.85-7.32-3.29-11.37-4.25-3.02-.72-3.01-5.21-.02-7.73,2.92-2.46,6.24-4.46,10.23-7.27-3.09-1.41-5.62-2.89-8.34-3.72-5.57-1.7-8.78-6.36-7.29-11.13,1.95-6.24,6.62-8.62,12.68-6.49.44.15.93.17,2.37.43-1.31-1.23-1.91-1.86-2.58-2.41-1.25-1.03-3.03-1.76-3.72-3.08-2.84-5.41-8.29-7.67-12.77-11.06-8.01-6.08-13.53-13.98-17.13-23.21-.91-2.33-1.58-6.09-.37-7.6,2.08-2.59,5.39-.56,7.74.96,5.55,3.58,11.22,7.09,16.32,11.25,9.86,8.04,19.36,16.52,29.01,24.8.21-.08.42-.14.62-.2-.04-.08-.08-.16-.12-.23-.17.18-.34.36-.51.54Zm25.69-6.13c1.08,1.51,2.25,2.67,2.83,4.07.6,1.45.58,3.15.92,4.71.75,3.46,5.36,7.72,7.39,6.58,3.49-1.95,1.97-5.08,1.28-7.9-.02-.1-.18-.16-.5-.43-3.12.94-4.87.15-5.33-3.79-.38-3.23-3.28-3.86-6.58-3.25Z"/>
  <path class="cls-10" d="m1436.7,823.47c3.98-2.26,7.74-4.39,11.43-6.49-.65-6.58.87-9.67,7.1-11.94,3.9-1.42,8.25-2.36,12.36-2.25,4.5.12,8.28-.83,11.9-3.27,1.64-1.1,3.43-1.99,5.1-2.94-.72-5.5.73-8.58,5.73-10.98,8.98-4.3,18.1-4.27,27.09.04,3.12,1.5,5.52,3.77,6.01,7.59.11.89,1.04,1.86,1.85,2.43,1.41,1.01,3.07,1.67,4.54,2.6,4.58,2.9,9.28,4.64,14.98,4.7,4,.04,8.22,1.91,11.86,3.87,1.98,1.07,3.97,3.97,4.11,6.16.16,2.65,1.44,3.37,3.16,4.33,3.56,1.99,7.12,4.01,10.98,6.19-1.08.7-1.86,1.28-2.7,1.76-21.23,11.89-42.45,23.8-63.74,35.58-1.26.7-3.49.99-4.65.35-21.96-12.11-43.84-24.38-65.72-36.63-.41-.23-.75-.59-1.37-1.08Zm48.86-25.65c-2.15,4.4-1.13,7.78,3.29,10.55,5.6,3.51,11.9,4.82,18.27,3.63,4.51-.84,9.08-2.55,13.05-4.86,3.73-2.17,3.94-5.71,1.83-9.32-10,8.85-26.03,8.93-36.45,0Zm-.2,39.15c-1.84,4.58-.89,7.66,3.38,10.4,5.94,3.81,12.63,5.03,19.39,3.59,4.37-.93,8.74-2.81,12.52-5.19,3.37-2.13,3.39-5.4,1.34-8.77-7.07,7.68-25.8,9.59-36.63-.04Zm-36.43-19.15c-1.75,4.14-1.25,6.56,1.73,9.29,7.48,6.85,25.78,6.85,33.3.01,3.06-2.78,3.55-5.56,1.6-9.09-10.08,9.14-28.16,8.06-36.63-.21Zm74.23.2c-1.87,3.55-1.69,6.58,1.55,8.82,3,2.08,6.49,3.9,10.02,4.65,7.89,1.68,15.72,1.17,22.58-3.77,3.95-2.84,4.61-6.28,2.22-9.76-9.93,8.76-24.78,8.78-36.36.06Z"/>
  <path class="cls-2" d="m1508.05,906.16c0-12.83-.09-24.93.14-37.03.02-1.23,1.69-2.83,2.99-3.57,19.11-10.8,38.28-21.48,57.44-32.19,2.91-1.63,5.82-3.25,9.27-5.18,0,8.56.02,16.61,0,24.67-.02,4.74,1.46,10.39-.62,13.95-2.07,3.55-7.69,5.07-11.82,7.39-17.84,10.01-35.69,19.98-53.54,29.96-1.06.59-2.15,1.12-3.85,2Z"/>
  <path class="cls-2" d="m1432.84,828.61c3.28,1.83,5.98,3.32,8.67,4.83,19.5,10.9,38.97,21.83,58.51,32.65,2,1.11,2.78,2.29,2.76,4.61-.13,11.74-.06,23.49-.06,35.76-1.22-.57-2.2-.95-3.1-1.45-21.46-11.99-42.92-23.97-64.32-36.06-1.08-.61-2.34-2.1-2.35-3.19-.17-12.11-.11-24.23-.11-37.15Z"/>
  <path class="cls-15" d="m1588.86,644.92c.17-.18.34-.36.51-.54.04.08.08.16.12.23-.21.06-.41.12-.62.2,0,.02,0,.1,0,.1Z"/>
</svg>