<?xml version="1.0" encoding="UTF-8"?>
<svg id="Layer_1" data-name="Layer 1" xmlns="http://www.w3.org/2000/svg" viewBox="0 0 602.79 348.73">
  <defs>
    <style>
      .cls-1 {
        fill: #fff0d1;
      }

      .cls-1, .cls-2, .cls-3, .cls-4, .cls-5, .cls-6, .cls-7, .cls-8, .cls-9, .cls-10, .cls-11, .cls-12, .cls-13, .cls-14, .cls-15, .cls-16, .cls-17, .cls-18, .cls-19, .cls-20, .cls-21, .cls-22, .cls-23, .cls-24, .cls-25 {
        stroke-width: 0px;
      }

      .cls-2 {
        fill: #fae6a2;
      }

      .cls-3 {
        fill: #fac90e;
      }

      .cls-4 {
        fill: #eddb9a;
      }

      .cls-5 {
        fill: #221f16;
      }

      .cls-6 {
        fill: #232012;
      }

      .cls-7 {
        fill: #242117;
      }

      .cls-8 {
        fill: #f8ae24;
      }

      .cls-9 {
        fill: #f9c910;
      }

      .cls-10 {
        fill: #211f14;
      }

      .cls-11 {
        fill: #fae6a3;
      }

      .cls-12 {
        fill: #fdbc1c;
      }

      .cls-13 {
        fill: #252217;
      }

      .cls-14 {
        fill: #f8e5a2;
      }

      .cls-15 {
        fill: #fbca0e;
      }

      .cls-16 {
        fill: #222015;
      }

      .cls-17 {
        fill: #fbca0d;
      }

      .cls-18 {
        fill: #53514b;
      }

      .cls-19 {
        fill: #272312;
      }

      .cls-20 {
        fill: #221e0d;
      }

      .cls-21 {
        fill: #262215;
      }

      .cls-22 {
        fill: #f6e2a1;
      }

      .cls-23 {
        fill: #f9e5a2;
      }

      .cls-24 {
        fill: #f7e4a1;
      }

      .cls-25 {
        fill: #16150d;
      }
    </style>
  </defs>
  <path class="cls-18" d="m52.65,200.73c-9.95-8.43-20.14-16.61-29.77-25.41-4.97-4.54-7.1-10.71-6.72-17.75.13-2.4-1.01-5.24-2.44-7.27-3.21-4.54-4.87-9.26-4.81-14.88.03-2.65-.8-5.79-2.34-7.91-9.19-12.62-9.06-23.43,2.35-33.97,6.76-6.24,10.9-11.37,6.67-21.35-3.23-7.62.61-13.11,8.45-16.18,3.78-1.48,7.84-2.28,11.78-3.39-5.65-16.21,1.15-25.85,18.16-25.74,5.13.03,9.45-.07,13.74-4.23,2.59-2.51,7.96-2.45,12.15-2.93,2.89-.33,4.93-.57,6.41-3.71,2.16-4.6,6.64-5.82,11.41-5.01,4.03.68,7.96,1.91,11.94,2.89,4.1-12.19,13.2-17.25,24.88-11.54,9.89,4.83,18.62,12.13,27.55,18.76,5.36,3.99,10.13,8.77,15.14,13.23,4.52,4.03,3.35,10-2.64,13.69q11.47,18.36,8.24,24.71c3.32,5,7.03,9.6,9.66,14.76,3.9,7.67,4.62,15.42-2.1,22.41-.91.95-.93,3.15-.72,4.68.73,5.38.72,10.25-4.63,13.68-.92.59-1.14,3.03-.92,4.51.55,3.73,1.63,7.38,2.31,11.1,2.54,13.85-3.68,23.37-17.29,26.19-2.61.54-4.17,1.34-5.14,4.03-3.72,10.38-11.65,15.55-22.31,16.27-6.05.41-9.46,3.79-12.5,8.3-.57.85-1.77,1.29-2.68,1.92-1.28-2.43-2.28-5.06-3.89-7.24-3.01-4.06-3.27-7.88-.56-12.23,3.45-5.54,4.47-11.62,4.11-18.22-.22-3.93.44-8.36,2.16-11.85,5.26-10.66,7.1-21.72,6.04-33.44-.34-3.75-.14-7.56-.17-11.34-.02-3.68,0-7.37,0-11.05-.53-.13-1.05-.26-1.58-.39-5.23,7.54-15.18,12.16-15.56,22.58-.43,12-6.5,19.57-16.02,25.4-.15.09-.35.16-.41.3-.93,1.85-2.53,3.67-2.63,5.57-.34,6.12-.13,12.27-.13,18.34-10.57,2.4-20.82,3.94-29.26,10.66-2.3,1.83-3.9,3.35-3.96,6.55-.09,5.28-.73,10.54-1.2,16.52h-10.79Zm27.71-110.69l.07.07c-1.62-1.38-3.17-2.86-4.86-4.14-10.39-7.9-21.67-14.87-30.9-23.94-5.76-5.65-10.55-5.81-16.93-3.75-.33.11-.64.24-.97.35-7.61,2.62-9.96,6.95-7.8,14.67.6,2.14,1.2,4.43,2.44,6.21,6.55,9.41,12.48,19.42,20.15,27.83,13.08,14.33,30.47,22.61,47.65,31.13,6.11,3.03,10.35,2.77,14.8-2.09,3.14-3.43,8.09-5.25,8.39-11.05.26-5.09,3.19-11.09,1.34-14.96-1.88-3.91-8.19-5.7-12.56-8.42-.44-.27-.84-.6-1.29-.85-6.5-3.69-13.01-7.37-19.52-11.05Zm.38-67.16c-6.31.52-11.73.2-14.1,5.91-2.28,5.48-.52,10.43,2.86,14.95.41.55.83,1.12,1.34,1.57,3.81,3.45,7.26,7.49,11.54,10.22,23.49,14.96,46.93,30.03,70.95,44.09,8.09,4.74,17.64,7.74,26.91,9.48,8.19,1.54,14.21-6.19,11.12-13.95-2.91-7.31-8.01-13.78-12.37-20.47-.54-.84-2.42-1.1-3.69-1.13-18.57-.45-35.63-6.12-50.99-16.13-11.49-7.49-22.15-16.25-33.07-24.59-1.73-1.32-3.63-3.16-4.18-5.11-1.19-4.29-3.76-5.35-6.32-4.84Zm-60.02,63.56c-4.7,4.94-9.38,9.26-13.33,14.16-4.74,5.89-5.45,12.78-1.33,19.21,3.1,4.85,6.55,10.08,11.14,13.28,14.48,10.1,29.79,19,44.34,28.99,8.98,6.17,17.74,7.47,27.95,3.62,3.77-1.42,5.55-2.66,4.99-6.62-.17-1.18-.2-2.43,0-3.6,1.48-8.39-1.68-12.94-9.89-16.46-19.53-8.37-37.73-19.16-51.42-36.05-4.09-5.04-7.83-10.37-12.45-16.53Zm110.87,4.49c-1.36-.89-2.2-1.45-3.04-2-17.81-11.7-35.76-23.2-53.38-35.18-7.84-5.32-12.78-12.87-12.83-23.85-5.64.46-11.19.26-16.39,1.5-7.27,1.74-10.85,8.72-8.05,15.7,1.74,4.34,4.48,8.59,7.73,11.95,14.28,14.74,32.07,24.76,49.24,35.57,7.2,4.54,14.6,8.77,21.92,13.15,5.11-5.81,9.75-11.1,14.8-16.84Zm-2.28,65.5c7.53,2.97,14.07,6.17,20.97,8.07,5.68,1.57,11.83,2.44,17.69,2.12,9.35-.52,15.65-7.56,15.21-16.8-.31-6.43-1.98-12.83-3.43-19.15-.26-1.12-2.32-2.24-3.74-2.6-6.47-1.64-13.03-2.94-19.53-4.49-6.06-1.45-12.08-3.08-19.41-4.96,2.96,14.22-2.17,25.69-7.76,37.81ZM95.44,13.52c-2.12,1.56-5.55,2.83-6.38,5.05-.88,2.38-.13,6.24,1.39,8.42,2.18,3.13,5.56,5.53,8.7,7.89,4.79,3.61,10.27,6.42,14.63,10.46,10.83,10.02,23.02,17.56,37.32,21.02,8.55,2.07,17.41,2.97,26.18,3.94,3.79.42,4.81-2.38,3.32-5.47-1.78-3.69-4.13-7.1-6.13-10.69-2.89-5.19-7.17-6.96-13.13-8.09-12.24-2.31-24.3-5.88-36.17-9.74-7.24-2.35-13.05-6.96-14.11-15.51-.14-1.13-1.28-2.66-2.32-3.05-3.98-1.51-8.11-2.62-13.3-4.23Zm80,30.49c.37-.64.73-1.27,1.1-1.91-1.31-2.25-2.15-5.02-4-6.67-9.11-8.12-18.31-16.17-27.86-23.77-3.69-2.94-8.19-5.15-12.67-6.76-5.16-1.86-10.43-1.63-14.99,2.44-4.66,4.17-3.63,9.29-2.83,14.37.91,5.77,5.13,9.29,10.04,10.85,12.55,4,25.29,7.45,38.07,10.63,4.18,1.04,8.74.59,13.13.82Zm10.85,68.49c-19.39.95-33.34-10.36-48.78-17.85,0,6.11.11,11.76-.05,17.41-.09,3.06,1.32,4.11,4.13,4.7,5.03,1.06,9.92,2.73,14.94,3.82,7.85,1.7,15.72,3.44,23.67,4.43,1.84.23,5.03-2.11,5.84-4.01,1.02-2.41.25-5.58.25-8.5Zm-115.03,59.11c-19.76-12.16-39.39-24.23-58.93-36.25-.86,7.8,3.6,13.79,9.72,18.12,10.33,7.31,21.01,14.22,31.98,20.52,8.87,5.09,9.27,4.56,17.22-2.4Zm-50.55-14.65c-.62.25-1.24.51-1.86.76,1.04,3.63,1.89,7.33,3.22,10.84.64,1.7,1.97,3.3,3.37,4.52,8.77,7.69,17.54,15.4,26.56,22.8,2.4,1.96,6.69,3.8,8.18-.16,1.57-4.16,1.14-9.16,1.05-13.78-.02-1.01-2.19-2.18-3.55-2.95-8.81-4.97-17.74-9.73-26.49-14.8-3.66-2.12-7-4.81-10.48-7.24Zm107.96,2.92c2.7,9.65-.8,17.76-5.11,25.68,19.74,4.53,35.29-.48,37.32-14.5-10.39-3.6-20.68-7.18-32.21-11.18Z"/>
  <path class="cls-12" d="m86.67,348.26c-13.43-.09-20.43-7.68-17.95-20.75,1.75-9.23,4.53-18.32,7.61-27.21,5.61-16.19,7.59-32.7,6.15-49.7-.07-.85,0-1.71,0-2.57,1.05-1.93,3.12-3.95,2.96-5.78-.55-6.07-.72-12.6-3.18-17.97-4.83-10.54-9.04-20.87-8.13-32.81.3-3.88,1.68-5.93,5.07-7.37,6.61-2.81,13.18-5.73,19.65-8.86,5.39-2.61,6.9-6.7,6.64-12.72-.17-3.94.15-8.45,1.94-11.79,2.2-4.11,5.88-7.6,9.45-10.76,4.43-3.92,6.71-8.14,6.15-14.29-.37-4.08.69-8.37,5.65-10.94.57,10.02,2.6,19.28-2.74,28.4-3.98,6.79-6.08,14.42-5.3,22.68.25,2.67-1.32,5.52-2.14,8.27-1.61,5.38-3.59,10.67-4.84,16.12-1.22,5.3-1.17,10.93-2.69,16.12-2.3,7.85-5.82,15.34-8.22,23.17-7.23,23.52-6.68,46.8,2.23,69.94,2.75,7.14,4.52,14.74,5.99,22.27.99,5.08.33,10.6-4.2,14.01-4.41,3.32-9.47,5.75-14.21,8.63-2.01,1.22-3.92,2.59-5.87,3.89Zm.34-98.57l-1.8.53c.05,1.09.11,2.18.14,3.26.2,5.97,1.45,12.14.36,17.86-2.26,11.78-5.99,23.27-8.72,34.97-1.94,8.33-3.8,16.75-4.64,25.23-.63,6.28,3.11,10.24,10.38,12.18-1.76-1.78-2.81-2.47-3.34-3.45-1.66-3.03-3.9-6.05-4.44-9.31-.56-3.42.16-7.24,1.06-10.69,2.92-11.31,6.13-22.55,9.31-33.79,2.93-10.34,4.63-20.81,3.44-31.57-.2-1.78-1.15-3.48-1.75-5.22Z"/>
  <path class="cls-8" d="m86.67,348.26c1.96-1.3,3.87-2.67,5.87-3.89,4.74-2.88,9.81-5.32,14.21-8.63,4.54-3.42,5.2-8.93,4.2-14.01-1.47-7.53-3.24-15.13-5.99-22.27-8.91-23.13-9.46-46.42-2.23-69.94,2.41-7.83,5.92-15.32,8.22-23.17,1.52-5.19,1.47-10.82,2.69-16.12,1.26-5.46,3.23-10.75,4.84-16.12.82-2.75,2.4-5.6,2.14-8.27-.78-8.26,1.32-15.89,5.3-22.68,5.34-9.11,3.31-18.37,2.74-28.4-4.96,2.57-6.02,6.86-5.65,10.94.57,6.16-1.72,10.37-6.15,14.29-3.57,3.16-7.25,6.65-9.45,10.76-1.79,3.35-2.11,7.85-1.94,11.79.26,6.02-1.25,10.11-6.64,12.72-6.47,3.13-13.04,6.05-19.65,8.86-3.39,1.44-4.77,3.5-5.07,7.37-.92,11.94,3.3,22.26,8.13,32.81,2.46,5.37,2.64,11.9,3.18,17.97.16,1.82-1.91,3.84-2.96,5.78-1.96-8.12-3.43-16.4-6.02-24.31-2.82-8.62-7.48-16.04-17.21-18.79-2.41-.68-4.42-2.77-6.61-4.21,3.56,0,7.11,0,10.79,0,.46-5.97,1.11-11.24,1.2-16.52.05-3.2,1.66-4.72,3.96-6.55,8.44-6.72,18.69-8.26,29.26-10.66,0-6.07-.21-12.22.13-18.34.11-1.9,1.7-3.72,2.63-5.57.07-.14.27-.21.41-.3,9.51-5.84,15.59-13.4,16.02-25.4.37-10.41,10.33-15.03,15.56-22.58.53.13,1.05.26,1.58.39,0,3.68-.02,7.37,0,11.05.02,3.78-.17,7.59.17,11.34,1.06,11.73-.78,22.78-6.04,33.44-1.72,3.49-2.38,7.92-2.16,11.85.36,6.6-.66,12.68-4.11,18.22-2.71,4.35-2.45,8.17.56,12.23,1.61,2.18,2.62,4.81,3.89,7.24-4.58,6.16-9.63,12.03-13.65,18.54-9.29,15-11.17,31.68-10.37,48.98.69,14.85,6.32,28.34,10.53,42.25,1.23,4.07,1.93,8.33,2.66,12.54,3.19,18.33-11.7,25.17-23.88,25.82-1.69.09-3.41-.29-5.11-.45Z"/>
  <path class="cls-5" d="m575.72,232.51c0-7.75.23-15.1-.08-22.43-.2-4.8,1.78-6.35,6.32-6.48,5.31-.15,10.68-.55,15.89-1.54,4.27-.81,5.13.66,4.91,4.48-.66,11.85-1.56,23.71-1.56,35.57,0,15.13.7,30.25,1.32,45.37.15,3.6-.99,5.1-4.59,5.02-4.65-.1-9.33.34-13.94-.08-2.34-.21-4.56-1.77-7.96-3.19-8.02,4.77-17.88,5.39-27.72.25-9.86-5.15-14.05-14.1-15.38-24.79-3.13.91-6.16,1.79-9.18,2.66,2.19,4,4.41,8.12,6.69,12.21,1.64,2.93.89,5.14-1.71,7.11-12.23,9.25-25.61,9.43-38.94,3.73-13.01-5.56-18.12-16.67-17.67-30.42.77-23.68,20.76-38.31,41.93-30.51,10.22,3.76,16.08,11.75,19.13,23.44,3.01-10.04,7.49-17.79,16.33-21.73,8.74-3.89,17.58-4.18,26.22,1.34Zm22.24,56.06v-82.41c-6.01.64-12.09,1.28-18.04,1.92,0,9.23.05,18-.06,26.76-.02,1.23-.56,2.97-1.44,3.51-.71.43-2.54-.31-3.48-1.04-10.41-8.04-25-6.11-32.59,4.7-6.87,9.77-7.48,20.53-3.35,31.43,6.62,17.47,27.92,19.65,37.4,10.5,2.96-2.86,4.79-1.93,5.51,1.93.17.94.45,1.85.66,2.71h15.39Zm-76.13-15.8c-2.55,1.09-5.12,2.53-7.87,3.31-6.88,1.95-13.69,2.11-19.27-3.25-1.27-1.22-1.51-3.52-2.22-5.33,1.66-.63,3.28-1.66,4.98-1.83,8.72-.91,17.48-1.54,26.2-2.42,2.65-.27,5.39-.35,5.72-4.4,1.11-13.48-10.37-26.7-23.83-27.37-26.17-1.32-35.25,25.25-26.78,43.36,6.02,12.87,21.77,18.4,37.88,13.96,11.4-3.14,12.5-6.13,5.77-15.74-.08-.12-.29-.14-.59-.27Zm-24.94-3.2c7.39,5.99,17.39,4.93,24.03-2.2-7.95.73-15.54,1.42-24.03,2.2Z"/>
  <path class="cls-6" d="m230.51,84.98h28.5c0-8.32.03-16.17,0-24.03-.03-5.89.49-6.38,6.49-6.31,5.16.06,10.34.25,15.48-.08,4.65-.3,6.61,1.26,6.37,6.09-.53,10.65-1.06,21.31-1.01,31.96.06,14.61.49,29.23,1.08,43.83.2,4.87-1.7,6.43-6.28,6.25-5.67-.22-11.36-.08-17.04-.03-4.08.03-5.89-1.82-5.82-5.99.14-8.88.04-17.77.04-27.05h-26.72c0,7.83-.07,15.35.02,22.86.11,10.14.16,10.15-10.22,10.21-3.79.02-7.57.02-11.36-.04-6.22-.1-7.07-.97-6.9-7.33.36-13.74,1.04-27.48,1.1-41.23.05-10.65-.67-21.31-.97-31.97-.07-2.35.2-4.71.34-7.57,8.73,0,16.98-.18,25.2.21,1.11.05,2.98,3,2.96,4.58-.12,8.24-.75,16.46-1.25,25.62Zm52.32,53.48V58.51h-19.33c0,7.78,0,15.29,0,22.8,0,6.84-.58,7.56-7.23,7.66-7.23.11-14.46.11-21.69.03-7.15-.08-7.93-.99-7.58-8.17.36-7.34.74-14.67,1.13-22.22h-20.72v79.73h19.91c0-9.17.09-17.76-.04-26.35-.07-4.56,1.89-6.64,6.48-6.57,7.23.1,14.46-.03,21.7.02,6.47.05,7.85,1.49,7.67,7.98-.12,4.47-.5,8.93-.63,13.4-.11,3.87-.02,7.75-.02,11.63h20.36Z"/>
  <path class="cls-7" d="m193.25,202.44c11.43,0,21.58,3.29,30.09,11.25,2.84,2.66,3.57,5.22,1.58,8.58-2.18,3.69-4.16,7.5-6.43,11.13-3.14,5.01-4.29,5.18-8.78,1.43-4.6-3.84-9.51-6.93-15.77-6.39-2.49.21-5.14.79-7.34,1.92-8.77,4.52-11.94,18.71-6.66,28.81,4.58,8.76,14.77,11.41,24.46,6.37.76-.4,1.52-.8,2.24-1.28q8.43-5.61,14.02,2.72c.38.57.77,1.14,1.15,1.71,5.98,9.09,5.8,10.28-2.65,17.2-21.69,17.75-58.03,6.81-66.19-20.33-5.96-19.81-3.01-38.1,12.49-53.01,7.59-7.3,16.68-10.31,27.81-10.12Zm21.11,30.57c2.22-3.86,4.13-7.52,6.36-10.96,1.78-2.74,1.17-4.51-1.18-6.54-10.66-9.23-23.18-11-36.26-8.13-16.43,3.61-27.47,17.99-29.07,37.59-2.01,24.71,14.32,48.16,44.3,45.29,9.78-.94,17.95-5.19,23.92-13.53-2.97-4.47-5.78-8.72-8.6-12.97-14.24,10.13-25.59,10.72-33.75,2.09-8.27-8.74-8.78-24.86-1.08-34.21,7.9-9.59,17.88-9.29,35.36,1.37Z"/>
  <path class="cls-16" d="m456.76,273.33c3.22,4.39,6.27,8.53,9.31,12.7,2.22,3.04,1.86,5.29-2.25,5.57-5.99.41-12,.77-18,.64-4.98-.11-6.55-4.69-8.43-8.17-2.52-4.68-5.89-6.24-11.11-4.67,0,2.45-.07,4.99.02,7.52.13,3.83-1.51,5.74-5.49,5.61-3.61-.12-7.23,0-10.84-.02-8.12-.04-8.88-.78-8.88-8.71-.01-11.87.12-23.74-.06-35.6-.18-12.55-.47-25.11-1.08-37.64-.26-5.25,2.1-6.83,6.78-6.97,4.62-.14,9.23-.62,13.84-.98,6.37-.51,7.54.8,7.07,7.16-.63,8.38-1,16.78-1.54,26.19,7.18-5.31,14.38-7.53,22.51-6.82,8.17.71,15.1,3.36,19.32,10.8,6.4,11.27,2.47,23.22-11.15,33.4Zm-52.03,14.91h17.8c0-3.39.12-6.3-.03-9.2-.16-3.07,1.04-4.04,4.18-4.3,6.55-.53,11.16,1.51,14.2,7.59,1.18,2.36,3.51,5.36,5.72,5.75,4.93.87,10.12.27,16.37.27-2.47-3.37-4.27-5.79-6.04-8.23q-5.42-7.51,1.99-13.17c7.14-5.44,9.01-12.79,7.11-21.13-1.73-7.62-7.25-11.11-14.66-12.5-8.73-1.65-16.3.21-22.95,6.14-1.18,1.05-2.87,1.55-4.32,2.3-.51-1.69-1.2-3.34-1.48-5.07-.24-1.51,0-3.09,0-4.63,0-8.55,0-17.1,0-25.57-5.65.5-12.03,1.07-17.9,1.6v80.16Z"/>
  <path class="cls-13" d="m522.23,117.39c7.63-8.17,7.43-17.92,6.68-27.73-.57-7.46-.46-7.72,7.25-7.87,4.13-.08,8.26-.04,12.39-.19,3.26-.12,5.29,1.04,5.65,4.49,1.38,13.25,2.44,26.27-6.49,37.94-8.24,10.76-15.85,22-23.64,33.1-2.6,3.71-5.84,5.66-10.45,5.18-1.19-.12-2.41.01-3.61.03q-14.35.19-19.14-13.53c-1.59-4.57-.67-5.81,4.07-6.22,3.22-.28,6.5-.67,9.56-1.64,2.91-.92,3.95-2.99,1.78-5.94-3.87-5.25-7.45-10.73-11.36-15.95-3.77-5.03-5.54-10.45-5.09-16.8.37-5.14.11-10.32.12-15.48,0-3.57,1.55-5.36,5.34-5.21,5.16.2,10.33.21,15.49.13,3.54-.05,5.03,1.67,4.97,5.02-.09,4.98-.12,9.97-.32,14.95-.26,6.33,3.01,11,6.81,15.7Zm-27.89-31.65c-1.13,13.58-2.42,26.9,8.34,37.78,2.63,2.66,4.5,6.07,6.62,9.2,3.67,5.42,2.4,9.75-3.85,11.98-3.46,1.23-7.2,1.67-10.83,2.47,5.87,14.04,1.2,11.29,15.78,11.29.86,0,1.73-.18,2.58-.09,3.8.4,6.43-1.11,8.62-4.26,7.06-10.16,13.82-20.59,21.65-30.13,8.78-10.7,8.1-22.87,7.47-35.23-.06-1.12-1.83-2.99-2.9-3.06-5.08-.33-10.2-.15-15.59-.15.3,2.82.57,4.69.7,6.56.64,9.45-.34,18.52-6.32,26.41-2.16,2.85-4.57,4.69-7.41,1.19-4.12-5.08-7.94-10.35-7.63-17.5.24-5.41.05-10.85.05-16.47h-17.26Z"/>
  <path class="cls-20" d="m384.69,84.62c7.02-1.75,13.65-4.55,20.38-4.83,11.18-.48,17.79,6.78,17.94,17.96.17,12.74.08,25.48.29,38.22.08,4.69-1.52,7.06-6.54,6.77-4.12-.25-8.27-.15-12.4-.05-4.51.11-6.61-1.81-6.52-6.48.16-9.29.04-18.59.08-27.89.01-3.6-.71-6.7-5.09-6.87-3.71-.14-7.14,3.33-7.16,7.12-.05,9.3-.15,18.6.04,27.89.09,4.39-1.63,6.37-6.04,6.24-4.13-.12-8.27-.14-12.4,0-4.74.15-6.72-1.73-6.73-6.71-.05-13.93-.23-27.87-.98-41.77-.6-11.25-1-11.2,10.14-12.59,2.55-.32,5.08-.84,7.61-1.34,6.34-1.25,6.52-1.13,7.4,4.34Zm34.65,53.98c0-14.64.24-28.71-.1-42.77-.16-6.67-4.65-10.74-11.28-12.15-6.95-1.48-12.79.98-18.52,4.42-7.03,4.23-7.06,4.17-8.82-3.44-.06-.27-.42-.48-.82-.92-5.56.91-11.25,1.84-16.04,2.63v52.11h18.2c0-10.38.29-20.35-.1-30.28-.27-6.7,5.95-10.06,10.54-10.49,5.31-.5,8.81,2.94,9.34,9.34.4,4.79.24,9.62.27,14.43.04,5.6,0,11.2,0,17.12h17.31Z"/>
  <path class="cls-5" d="m479.06,117.14c2.51,4.58,4.68,8.63,6.92,12.63,1.64,2.94.85,5.14-1.74,7.1-12.23,9.24-25.61,9.41-38.94,3.71-13-5.56-18.11-16.68-17.65-30.43.78-23.67,20.7-38.14,41.96-30.57,11.45,4.08,20.19,17.54,19.28,29.55-.46,6.06-4.25,8.1-9.82,8Zm-1.48,5.71c-3.01,1.31-5.58,2.79-8.35,3.54-6.52,1.77-13.04,1.9-18.47-2.87-1.47-1.29-1.93-3.73-2.85-5.65,1.79-.7,3.54-1.82,5.39-2.02,8.72-.94,17.47-1.56,26.2-2.46,2.48-.25,5.02-.41,5.41-4.15,1.36-13.03-9.98-26.75-23.08-27.54-10.52-.63-19.56,2.44-25.39,11.6-6.46,10.14-7.11,21.15-1.96,31.96,5.94,12.47,21.1,17.89,37.02,13.95,11.86-2.94,13.12-6.2,6.09-16.36Zm-25-3.07c6.91,5.94,16.66,4.98,24.06-2.25-8.2.77-15.88,1.49-24.06,2.25Z"/>
  <path class="cls-10" d="m316.93,287.9c-21.2,12.15-42.43-.16-43.25-24.5-.32-9.62,1.79-18.34,8.38-25.67,7.82-8.71,25.57-12.48,35.3-4.97,3.45-1.01,5.9-2.4,8.25-2.26,4.24.26,8.43,1.38,12.62,2.24,2.93.6,4.03,2.2,3.92,5.47-.53,15.41-.8,30.83-1.02,46.24-.1,6.96-.75,7.8-7.89,8-3.44.1-6.89-.06-10.31.24-3.59.31-6.07-.51-6-4.8Zm2.68-47.36c-5.5-6.26-11.45-8.71-18.7-7.61-15.61,2.36-24.8,14.29-23.53,30.31.59,7.45,3.03,13.94,8.17,19.54,6.72,7.31,20.47,10.08,28.68,1.67,1.64-1.68,4.94-4.56,5.61-.06.8,5.39,3.77,4.77,7.21,4.57,3.23-.19,6.45-.46,10.08-.72v-51.62c-5.76-.37-12.8-6.9-17.53,3.94Z"/>
  <path class="cls-16" d="m377.78,227.04c5.22,1.47,10.48,2.83,15.65,4.46,3.14.99,4.2,3.28,3.08,6.49-.45,1.29-.7,2.65-1.12,3.95-1.06,3.24-1.28,7.6-3.52,9.35-1.92,1.5-6.19.08-9.41-.2-4.4-.38-8.97.15-10.26,4.75-.95,3.39-.74,7.99.88,11,2.19,4.05,6.89,4.57,11.45,3.27q8.49-2.43,10.36,6.71c2.68,13.13,2.29,13.73-10.69,16.33-17.38,3.48-34.22-7.36-37.88-24.36-3.97-18.46,6.62-36.22,24.03-40.13,2.33-.52,4.78-.47,7.18-.69.08-.31.17-.61.25-.92Zm12.22,45.35c-7.78,2.85-14.9,3.42-20.25-3.25-3.65-4.55-3.91-9.95-1.2-15.05,4.73-8.91,12.82-7.51,20.9-5.65,1-3.43,1.63-6.47,2.78-9.3,1.26-3.11-.12-4.44-2.76-5.36-6.67-2.32-13.41-2.84-20.25-.83-15.66,4.61-24.1,22.58-17.86,38.86,6.57,17.16,23.15,21,38.9,15.77.97-.32,2.29-1.94,2.18-2.79-.53-4-1.51-7.95-2.42-12.41Z"/>
  <path class="cls-19" d="m252.31,234.54c5.02-1.38,9.86-3.1,14.85-3.96,3.96-.68,6.01,1.42,5.57,5.8-.5,4.94-.77,9.93-.75,14.9.02,4.18-1.86,5.88-5.86,6.02-11.95.4-12.01.44-11.83,12.45.08,5.33.27,10.66.69,15.97.35,4.49-1.14,6.9-5.95,6.78-4.65-.12-9.3-.04-13.95-.04-4.01,0-5.92-1.79-5.83-6,.18-7.91.36-15.85,0-23.75-.37-8.21-1.1-16.43-2.21-24.58-.5-3.68-.05-5.48,3.96-5.89,4.43-.45,8.92-1.03,13.19-2.21,4.97-1.38,8.08-.69,8.1,4.5Zm-18.58,53.71h17.28c0-1.45.02-2.45,0-3.46-.21-7.38-.7-14.76-.56-22.14.13-7.12,2.82-9.4,9.92-9.5,2.53-.03,5.06,0,7.93,0v-19.86c-6.39,2.5-12.14,4.74-18.34,7.16-.69-2-1.5-4.33-2.44-7.01-5.46.94-10.92,1.87-15.47,2.65.57,17.6,1.13,34.66,1.69,52.15Z"/>
  <path class="cls-7" d="m323.87,143.68c-18.59-.03-32.48-13.93-32.22-32.26.28-19.54,13.24-32.79,32.12-32.86,18.85-.08,32.56,13.63,32.53,32.51-.04,19.02-13.58,32.63-32.44,32.61Zm.15-4.01c16.92-.03,28.34-11.56,28.35-28.61.01-16.96-11.49-28.47-28.46-28.48-17.12,0-28.38,11.56-28.35,29.12.03,16.49,11.75,28.01,28.45,27.97Z"/>
  <path class="cls-11" d="m80.73,22.88c2.56-.51,5.13.55,6.32,4.84.54,1.95,2.45,3.79,4.18,5.11,10.92,8.33,21.58,17.1,33.07,24.59,15.36,10.01,32.42,15.67,50.99,16.13,1.27.03,3.15.29,3.69,1.13,4.36,6.69,9.46,13.16,12.37,20.47,3.09,7.77-2.93,15.49-11.12,13.95-9.27-1.74-18.82-4.74-26.91-9.48-24.02-14.06-47.46-29.14-70.95-44.09-4.28-2.73-7.73-6.76-11.54-10.22-.51-.46-.92-1.02-1.34-1.57-3.38-4.52-5.14-9.47-2.86-14.95,2.38-5.71,7.79-5.39,14.1-5.91Z"/>
  <path class="cls-11" d="m20.71,86.45c4.62,6.16,8.36,11.49,12.45,16.53,13.69,16.89,31.89,27.68,51.42,36.05,8.21,3.52,11.37,8.07,9.89,16.46-.21,1.17-.17,2.42,0,3.6.57,3.96-1.22,5.2-4.99,6.62-10.22,3.85-18.97,2.55-27.95-3.62-14.55-10-29.86-18.9-44.34-28.99-4.59-3.2-8.04-8.42-11.14-13.28-4.11-6.43-3.41-13.32,1.33-19.21,3.95-4.9,8.62-9.22,13.33-14.16Z"/>
  <path class="cls-14" d="m80.36,90.05c6.51,3.68,13.02,7.36,19.52,11.05.45.25.85.58,1.29.85,4.37,2.72,10.68,4.5,12.56,8.42,1.86,3.87-1.07,9.87-1.34,14.96-.3,5.8-5.25,7.62-8.39,11.05-4.45,4.86-8.68,5.12-14.8,2.09-17.17-8.52-34.56-16.8-47.65-31.13-7.67-8.41-13.61-18.42-20.15-27.83-1.24-1.78-1.84-4.07-2.44-6.21-2.16-7.72.19-12.05,7.8-14.67.33-.11.64-.25.97-.35,6.38-2.06,11.17-1.9,16.93,3.75,9.23,9.06,20.51,16.04,30.9,23.94,1.69,1.29,3.24,2.76,4.86,4.14-4.12-1.54-8.2-3.24-12.38-4.6-8.27-2.69-15.96.5-18.87,7.66-3.98,9.79-1.93,16.24,7.3,20.3,5.92,2.6,12.22,4.49,18.51,6.07,5.99,1.5,10.49-1.69,11.72-7.74,1.41-6.94-.12-13.21-4.76-18.69-.73-.86-1.08-2.03-1.6-3.06Z"/>
  <path class="cls-2" d="m131.58,90.94c-5.05,5.75-9.69,11.03-14.8,16.84-7.32-4.38-14.71-8.62-21.92-13.15-17.17-10.81-34.97-20.83-49.24-35.57-3.25-3.36-5.99-7.61-7.73-11.95-2.8-6.98.78-13.96,8.05-15.7,5.2-1.24,10.75-1.04,16.39-1.5.04,10.99,4.99,18.53,12.83,23.85,17.63,11.97,35.57,23.48,53.38,35.18.84.55,1.68,1.11,3.04,2Z"/>
  <path class="cls-2" d="m129.3,156.44c5.59-12.12,10.72-23.59,7.76-37.81,7.33,1.88,13.35,3.5,19.41,4.96,6.5,1.56,13.05,2.85,19.53,4.49,1.42.36,3.48,1.48,3.74,2.6,1.45,6.32,3.12,12.72,3.43,19.15.44,9.24-5.86,16.29-15.21,16.8-5.86.32-12.01-.55-17.69-2.12-6.9-1.9-13.44-5.1-20.97-8.07Z"/>
  <path class="cls-23" d="m95.44,13.52c5.19,1.61,9.32,2.73,13.3,4.23,1.04.39,2.18,1.92,2.32,3.05,1.06,8.55,6.88,13.17,14.11,15.51,11.87,3.85,23.93,7.43,36.17,9.74,5.96,1.12,10.24,2.9,13.13,8.09,2,3.59,4.35,7,6.13,10.69,1.49,3.09.46,5.89-3.32,5.47-8.77-.97-17.63-1.87-26.18-3.94-14.3-3.46-26.5-11-37.32-21.02-4.36-4.04-9.84-6.85-14.63-10.46-3.13-2.36-6.51-4.75-8.7-7.89-1.52-2.18-2.27-6.04-1.39-8.42.83-2.23,4.26-3.49,6.38-5.05Z"/>
  <path class="cls-24" d="m175.45,44c-4.39-.23-8.95.23-13.13-.82-12.78-3.18-25.53-6.63-38.07-10.63-4.91-1.57-9.13-5.08-10.04-10.85-.8-5.08-1.83-10.2,2.83-14.37,4.56-4.07,9.82-4.3,14.99-2.44,4.47,1.61,8.97,3.82,12.67,6.76,9.55,7.6,18.75,15.65,27.86,23.77,1.85,1.65,2.69,4.42,4,6.67-.37.64-.73,1.27-1.1,1.91Zm-19.88-13.42c-2.8-1.91-4.36-3.14-6.06-4.11-4.44-2.54-8.92-5.02-13.43-7.44-1.28-.69-2.72-1.08-4.08-1.61.48,1.43.53,3.59,1.52,4.18,5.98,3.6,12.15,6.89,18.32,10.15.48.25,1.46-.43,3.73-1.18Z"/>
  <path class="cls-24" d="m186.3,112.49c0,2.92.78,6.09-.25,8.5-.81,1.9-4,4.24-5.84,4.01-7.95-.99-15.82-2.73-23.67-4.43-5.02-1.09-9.92-2.76-14.94-3.82-2.81-.59-4.22-1.64-4.13-4.7.16-5.65.05-11.31.05-17.41,15.44,7.49,29.39,18.8,48.78,17.85Z"/>
  <path class="cls-22" d="m71.28,171.61c-7.95,6.96-8.35,7.48-17.22,2.4-10.98-6.3-21.65-13.21-31.98-20.52-6.12-4.33-10.58-10.33-9.72-18.12,19.54,12.02,39.17,24.09,58.93,36.25Z"/>
  <path class="cls-24" d="m20.73,156.96c3.48,2.43,6.82,5.12,10.48,7.24,8.75,5.06,17.68,9.83,26.49,14.8,1.36.77,3.53,1.93,3.55,2.95.09,4.62.51,9.62-1.05,13.78-1.49,3.96-5.79,2.12-8.18.16-9.02-7.4-17.79-15.1-26.56-22.8-1.39-1.22-2.73-2.82-3.37-4.52-1.33-3.52-2.17-7.22-3.22-10.84.62-.25,1.24-.51,1.86-.76Z"/>
  <path class="cls-24" d="m128.69,159.88c11.53,4,21.82,7.57,32.21,11.18-2.03,14.03-17.57,19.03-37.32,14.5,4.31-7.92,7.81-16.03,5.11-25.68Z"/>
  <path class="cls-1" d="m87.01,249.69c.6,1.74,1.56,3.44,1.75,5.22,1.19,10.76-.51,21.23-3.44,31.57-3.19,11.24-6.39,22.48-9.31,33.79-.89,3.45-1.62,7.27-1.06,10.69.54,3.26,2.78,6.27,4.44,9.31.53.97,1.58,1.66,3.34,3.45-7.27-1.93-11.01-5.9-10.38-12.18.84-8.48,2.7-16.9,4.64-25.23,2.73-11.7,6.46-23.19,8.72-34.97,1.1-5.72-.16-11.89-.36-17.86-.04-1.09-.09-2.18-.14-3.26l1.8-.53Z"/>
  <path class="cls-3" d="m597.96,288.57h-15.39c-.21-.86-.49-1.77-.66-2.71-.72-3.86-2.54-4.8-5.51-1.93-9.48,9.16-30.78,6.98-37.4-10.5-4.13-10.9-3.52-21.66,3.35-31.43,7.59-10.8,22.18-12.74,32.59-4.7.94.73,2.77,1.47,3.48,1.04.89-.54,1.42-2.28,1.44-3.51.12-8.77.06-17.53.06-26.76,5.95-.63,12.03-1.28,18.04-1.92v82.41Zm-17.67-28.33c-.09-7.62-5.84-13.53-13.19-13.53-7.32,0-12.61,5.87-12.55,13.96.06,7.9,5.66,13.73,12.99,13.54,7.28-.19,12.83-6.27,12.74-13.97Z"/>
  <path class="cls-9" d="m521.83,272.77c.29.13.51.16.59.27,6.72,9.61,5.63,12.6-5.77,15.74-16.1,4.44-31.86-1.09-37.88-13.96-8.47-18.11.61-44.67,26.78-43.36,13.45.68,24.93,13.89,23.83,27.37-.33,4.05-3.07,4.13-5.72,4.4-8.73.89-17.48,1.51-26.2,2.42-1.71.18-3.32,1.2-4.98,1.83.71,1.8.95,4.11,2.22,5.33,5.58,5.37,12.39,5.21,19.27,3.25,2.75-.78,5.32-2.22,7.87-3.31Zm-23.37-14.46c2.17-.26,5.22-.64,8.27-1,.51-.06,1.03-.07,1.53-.17,3.22-.62,4.71-2.05,3.59-5.69-1.48-4.83-5.33-8.45-10.22-8.54-5.19-.09-8.1,3.07-9.77,7.57-2.09,5.62-.3,8.01,6.61,7.83Z"/>
  <path class="cls-3" d="m282.83,138.46h-20.36c0-3.88-.09-7.76.02-11.63.13-4.47.5-8.93.63-13.4.18-6.5-1.2-7.93-7.67-7.98-7.23-.05-14.47.08-21.7-.02-4.59-.07-6.55,2.01-6.48,6.57.13,8.59.04,17.18.04,26.35h-19.91V58.61h20.72c-.38,7.55-.76,14.89-1.13,22.22-.35,7.17.43,8.08,7.58,8.17,7.23.08,14.46.08,21.69-.03,6.64-.1,7.23-.82,7.23-7.66,0-7.51,0-15.03,0-22.8h19.33v79.95Z"/>
  <path class="cls-15" d="m214.36,233.01c-17.48-10.66-27.47-10.96-35.36-1.37-7.7,9.35-7.19,25.47,1.08,34.21,8.16,8.62,19.52,8.03,33.75-2.09,2.82,4.25,5.63,8.5,8.6,12.97-5.98,8.34-14.14,12.6-23.92,13.53-29.98,2.87-46.31-20.58-44.3-45.29,1.6-19.61,12.64-33.99,29.07-37.59,13.08-2.87,25.6-1.1,36.26,8.13,2.35,2.03,2.96,3.8,1.18,6.54-2.24,3.44-4.14,7.09-6.36,10.96Z"/>
  <path class="cls-17" d="m404.73,288.24v-80.16c5.86-.52,12.24-1.09,17.9-1.6,0,8.47,0,17.02,0,25.57,0,1.55-.24,3.13,0,4.63.28,1.72.97,3.38,1.48,5.07,1.45-.75,3.13-1.24,4.32-2.3,6.65-5.93,14.23-7.78,22.95-6.14,7.4,1.4,12.93,4.88,14.66,12.5,1.89,8.34.02,15.68-7.11,21.13q-7.41,5.65-1.99,13.17c1.76,2.44,3.56,4.86,6.04,8.23-6.26,0-11.44.6-16.37-.27-2.21-.39-4.54-3.39-5.72-5.75-3.04-6.08-7.65-8.12-14.2-7.59-3.14.26-4.33,1.23-4.18,4.3.15,2.9.03,5.81.03,9.2h-17.8Zm28.76-22.54c1.37-.27,4.16-.48,6.7-1.39,5.17-1.84,7.51-6.66,6.24-12-.99-4.15-5.33-7.04-10.46-6.24-2.95.46-5.95,1.7-8.52,3.26-4.6,2.78-6.17,7.73-4.47,12.51,1.64,4.6,5.66,3.57,10.52,3.85Z"/>
  <path class="cls-17" d="m494.34,85.74h17.26c0,5.62.19,11.06-.05,16.47-.32,7.15,3.51,12.42,7.63,17.5,2.84,3.5,5.26,1.65,7.41-1.19,5.98-7.89,6.96-16.96,6.32-26.41-.13-1.88-.39-3.75-.7-6.56,5.39,0,10.51-.18,15.59.15,1.07.07,2.85,1.95,2.9,3.06.63,12.36,1.31,24.53-7.47,35.23-7.83,9.54-14.59,19.97-21.65,30.13-2.19,3.15-4.83,4.66-8.62,4.26-.85-.09-1.72.09-2.58.09-14.58,0-9.91,2.75-15.78-11.29,3.63-.8,7.37-1.24,10.83-2.47,6.26-2.23,7.52-6.56,3.85-11.98-2.12-3.13-3.99-6.55-6.62-9.2-10.76-10.88-9.47-24.2-8.34-37.78Z"/>
  <path class="cls-9" d="m419.34,138.6h-17.31c0-5.91.03-11.51,0-17.12-.03-4.81.12-9.65-.27-14.43-.53-6.4-4.03-9.84-9.34-9.34-4.59.43-10.81,3.79-10.54,10.49.4,9.94.1,19.9.1,30.28h-18.2v-52.11c4.79-.78,10.48-1.72,16.04-2.63.4.44.76.64.82.92,1.76,7.61,1.79,7.67,8.82,3.44,5.73-3.44,11.57-5.91,18.52-4.42,6.62,1.41,11.12,5.48,11.28,12.15.34,14.06.1,28.13.1,42.77Z"/>
  <path class="cls-9" d="m477.58,122.85c7.03,10.16,5.77,13.42-6.09,16.36-15.92,3.95-31.09-1.48-37.02-13.95-5.15-10.81-4.5-21.81,1.96-31.96,5.84-9.16,14.87-12.23,25.39-11.6,13.09.79,24.43,14.51,23.08,27.54-.39,3.74-2.93,3.89-5.41,4.15-8.73.89-17.48,1.51-26.2,2.46-1.85.2-3.6,1.33-5.39,2.02.92,1.91,1.38,4.36,2.85,5.65,5.43,4.76,11.96,4.63,18.47,2.87,2.77-.75,5.34-2.24,8.35-3.54Zm-23.53-14.35c2.17-.26,5.22-.64,8.27-1.01.51-.06,1.02-.08,1.53-.17,3.3-.61,4.61-2.18,3.51-5.75-1.48-4.81-5.38-8.42-10.27-8.47-5.19-.06-8.08,3.13-9.73,7.63-2.05,5.61-.25,7.96,6.69,7.77Z"/>
  <path class="cls-9" d="m319.61,240.53c4.73-10.84,11.77-4.31,17.53-3.94v51.62c-3.64.26-6.86.53-10.08.72-3.44.2-6.41.82-7.21-4.57-.67-4.5-3.97-1.62-5.61.06-8.21,8.41-21.96,5.64-28.68-1.67-5.15-5.6-7.58-12.09-8.17-19.54-1.27-16.02,7.92-27.94,23.53-30.31,7.25-1.1,13.19,1.35,18.7,7.61Zm1.19,20.24c.04-7.94-5.71-13.8-13.51-13.78-7.58.02-13.28,5.67-13.47,13.35-.18,7.51,5.98,14.05,13.39,14.2,7.62.15,13.55-5.86,13.59-13.77Z"/>
  <path class="cls-9" d="m389.99,272.39c.92,4.46,1.89,8.4,2.42,12.41.11.85-1.21,2.46-2.18,2.79-15.75,5.23-32.33,1.39-38.9-15.77-6.24-16.28,2.2-34.25,17.86-38.86,6.84-2.02,13.58-1.49,20.25.83,2.65.92,4.02,2.25,2.76,5.36-1.15,2.83-1.78,5.87-2.78,9.3-8.08-1.86-16.17-3.26-20.9,5.65-2.71,5.1-2.45,10.5,1.2,15.05,5.35,6.67,12.47,6.1,20.25,3.25Z"/>
  <path class="cls-3" d="m233.73,288.25c-.57-17.49-1.12-34.55-1.69-52.15,4.55-.78,10.01-1.72,15.47-2.65.93,2.68,1.74,5.01,2.44,7.01,6.2-2.42,11.95-4.67,18.34-7.16v19.86c-2.87,0-5.4-.03-7.93,0-7.1.09-9.78,2.38-9.92,9.5-.14,7.37.35,14.76.56,22.14.03,1,0,2,0,3.46h-17.28Z"/>
  <path class="cls-15" d="m324.02,139.67c-16.71.03-28.42-11.48-28.45-27.97-.04-17.56,11.22-29.13,28.35-29.12,16.97,0,28.47,11.52,28.46,28.48-.01,17.05-11.43,28.58-28.35,28.61Zm-.04-42.52c-7.13.01-12.83,6.39-12.62,14.14.2,7.64,5.78,13.73,12.59,13.76,7,.03,12.79-6.5,12.59-14.22-.2-7.73-5.68-13.7-12.56-13.69Z"/>
  <path class="cls-25" d="m80.36,90.05c.52,1.03.87,2.2,1.6,3.06,4.64,5.47,6.17,11.75,4.76,18.69-1.23,6.06-5.73,9.24-11.72,7.74-6.29-1.58-12.59-3.46-18.51-6.07-9.23-4.06-11.28-10.5-7.3-20.3,2.91-7.16,10.6-10.35,18.87-7.66,4.18,1.36,8.25,3.06,12.38,4.6,0,0-.07-.07-.07-.07Zm-21.3,19.62c-5.21-9.5-.32-15.34,7.56-20.31-9.94-1.06-13.02.84-14.79,8.55-1.4,6.07.57,9.5,7.23,11.76Z"/>
  <path class="cls-18" d="m155.57,30.58c-2.28.75-3.25,1.44-3.73,1.18-6.17-3.27-12.34-6.55-18.32-10.15-.99-.6-1.04-2.75-1.52-4.18,1.37.53,2.8.92,4.08,1.61,4.51,2.42,8.99,4.89,13.43,7.44,1.7.98,3.26,2.2,6.06,4.11Z"/>
  <path class="cls-16" d="m580.29,260.23c.09,7.7-5.46,13.78-12.74,13.97-7.34.19-12.94-5.65-12.99-13.54-.06-8.09,5.23-13.97,12.55-13.96,7.35,0,13.1,5.91,13.19,13.53Zm-13.43-9.96c-4.52.03-8.66,5.03-8.6,10.38.06,5.1,4.1,9.83,8.51,9.95,5.17.14,9.97-4.91,9.85-10.38-.11-5.29-4.72-9.99-9.77-9.96Z"/>
  <path class="cls-6" d="m498.45,258.31c-6.91.18-8.7-2.21-6.61-7.83,1.67-4.5,4.58-7.66,9.77-7.57,4.89.09,8.74,3.71,10.22,8.54,1.12,3.64-.37,5.08-3.59,5.69-.5.1-1.02.11-1.53.17-3.05.37-6.1.74-8.27,1Zm10.1-5.11c-1.55-4.54-4.07-7.09-8.51-6.18-3.6.74-4.74,3.63-4.79,7.62,4.62-.5,8.8-.96,13.3-1.45Z"/>
  <path class="cls-13" d="m433.49,265.7c-4.86-.28-8.89.75-10.52-3.85-1.7-4.78-.13-9.73,4.47-12.51,2.57-1.56,5.57-2.79,8.52-3.26,5.13-.81,9.47,2.09,10.46,6.24,1.27,5.34-1.07,10.16-6.24,12-2.54.91-5.32,1.12-6.7,1.39Zm-7.75-5.11c.62.48,1.24.95,1.86,1.43,3.85-.46,7.86-.43,11.47-1.61,1.67-.55,3.17-3.33,3.61-5.35.29-1.31-1.11-3.92-2.38-4.47-4.13-1.77-8.33-.6-11.27,2.49-1.77,1.86-2.23,4.96-3.28,7.5Z"/>
  <path class="cls-6" d="m454.05,108.5c-6.95.19-8.75-2.16-6.69-7.77,1.65-4.51,4.54-7.69,9.73-7.63,4.89.05,8.8,3.66,10.27,8.47,1.1,3.57-.21,5.14-3.51,5.75-.5.09-1.02.11-1.53.17-3.05.37-6.1.74-8.27,1.01Zm10.03-5c-1.52-4.59-4.08-7.42-8.09-6.18-2.44.76-4.18,3.78-6.23,5.79.39.54.77,1.07,1.16,1.61,4.19-.39,8.38-.78,13.17-1.22Z"/>
  <path class="cls-21" d="m320.8,260.78c-.04,7.9-5.97,13.91-13.59,13.77-7.41-.14-13.58-6.68-13.39-14.2.19-7.68,5.89-13.33,13.47-13.35,7.8-.02,13.55,5.84,13.51,13.78Zm-13.34-9.77c-5.78-.05-9.72,3.74-9.8,9.45-.09,5.61,4.39,10.22,9.93,10.24,5.29.01,9.55-4.46,9.53-10-.03-5.67-3.99-9.65-9.65-9.69Z"/>
  <path class="cls-21" d="m323.99,97.15c6.89-.01,12.36,5.96,12.56,13.69.2,7.72-5.59,14.25-12.59,14.22-6.82-.03-12.39-6.13-12.59-13.76-.2-7.75,5.49-14.13,12.62-14.14Zm.04,23.9c4.96-.01,8.79-4.49,8.67-10.15-.1-5.19-4.07-9.76-8.53-9.83-5.03-.08-8.92,4.23-8.95,9.92-.03,5.65,3.84,10.07,8.81,10.06Z"/>
  <path class="cls-4" d="m59.06,109.66c-6.66-2.26-8.63-5.69-7.23-11.76,1.78-7.71,4.85-9.62,14.79-8.55-7.88,4.97-12.77,10.81-7.56,20.31Z"/>
</svg>