<?xml version="1.0" encoding="UTF-8"?>
<svg id="Layer_1" data-name="Layer 1" xmlns="http://www.w3.org/2000/svg" version="1.1" viewBox="0 0 612 792">
  <defs>
    <style>
      .cls-1 {
        fill: #231f20;
      }

      .cls-1, .cls-2, .cls-3, .cls-4 {
        stroke-width: 0px;
      }

      .cls-2 {
        fill: #cba35b;
      }

      .cls-3 {
        fill: #fcfcfc;
      }

      .cls-4 {
        fill: #cea660;
      }
    </style>
  </defs>
  <path class="cls-3" d="M540.9,329.2c0,0-.2-.2-.2-.2,0,0,.2.2.2.2Z"/>
  <path class="cls-3" d="M72.2,329c0,0-.2.2-.2.2,0,0,.2-.2.2-.2Z"/>
  <path class="cls-1" d="M439.6,374.7c1.3-.7,15.2-.6,16,0-.6.2-1.2.4-1.7.7-1.2.7-1.7,1.7-1.2,3.1,1,3.1,2,6.3,3,9.4.7,2.2,1.5,4.4,2.3,6.5.1,0,.2,0,.4,0,.4-1,.9-2,1.2-3,1.5-4.3,3-8.5,4.5-12.8.6-1.9-.4-3.4-2.4-3.7-.4,0-.8-.1-1.3-.2.8-.7,14.5-.8,15.7,0-.5.1-.9.2-1.2.2-1.4.2-2,.9-1.8,2.2.3,1.7.8,3.4,1.4,5,1.2,3.7,2.4,7.3,3.7,11,.1.4.4.8.8,1.4.8-2.2,1.4-4,2-5.9.9-2.8,1.9-5.6,2.8-8.4.1-.4.3-.9.3-1.3.4-2.9-.1-3.5-3-4.2-.1,0-.3-.1-.4-.2.8-.6,9.8-.7,10.8-.1,0,0,0,.2,0,.2-3.2.9-4.5,3.5-5.5,6.3-1.7,5.1-3.5,10.2-5.2,15.3-1.3,4-2.7,7.9-4,11.9-.1.4-.4.7-.7,1.1-.1,0-.2,0-.4,0-.4-1-.8-2-1.1-3-2.7-8-5.3-16-8-24-.1-.4-.4-.6-.7-1-.2.3-.6.6-.7,1-1.8,4.9-3.5,9.8-5.2,14.8-1.3,3.7-2.6,7.4-3.9,11-.2.4-.6.7-.8,1.1-.3-.4-.6-.7-.8-1.1-2.3-7-4.6-14-6.9-20.9-1-3-2-6.1-3.1-9.1-.6-1.7-1.9-2.7-3.6-3.1-.3,0-.6-.1-1.1-.3Z"/>
  <path class="cls-1" d="M298.6,408.9c-.4,0-.9.1-1.3.1-2.7,0-5.4,0-8.1,0-1.2,0-1.8-.4-2.3-1.5-1.8-3.5-3.6-6.9-5.5-10.3-.5-.9-1.2-1.8-1.9-2.6-1.2-1.3-2.7-1.8-4.5-1.9-.8,0-1.2.3-1.2,1.1,0,3.5,0,7.1,0,10.6,0,2,.7,3.5,3.3,3.8.2,0,.4.2.6.6h-15.8c0,0,0-.2,0-.3.2-.1.5-.3.7-.4,2.6-.6,3.4-1.5,3.4-4.3,0-3,0-6,0-8.9,0-5.1,0-10.2,0-15.2,0-2.7-.8-4.7-3.8-4.9,0,0-.2-.1-.5-.4.6-.1.9-.3,1.3-.3,5.9,0,11.7,0,17.6,0,3.1,0,6,.7,8.3,2.7,4.6,4,3.4,11.2-2.3,13.7-1.3.6-1.3.7-.3,1.7,2.4,2.1,3.7,5,5.3,7.6.9,1.5,1.7,3,2.7,4.5,1,1.6,2,3.2,4,3.7.2,0,.4.2.6.3,0,.2-.2.3-.2.5ZM273.6,383.5c0,2.1,0,4.2,0,6.3,0,.4.4,1,.7,1,4.1.3,8.3-.8,9.2-6.1.5-3.1-.7-6.1-3.3-7.5-1.9-1-3.9-1.1-6-.9-.3,0-.7.7-.7,1,0,2,0,4.1,0,6.1Z"/>
  <path class="cls-1" d="M195.9,408.6c.3-.2.5-.4.8-.5,1.1-.5,1.3-1,.7-2.1-.7-1-1.5-2-2.3-2.9-2.6-3.2-5.2-6.4-7.9-9.6-.3-.3-.6-.6-1.2-1.1,0,.8-.2,1.2-.2,1.6,0,3.3,0,6.6,0,9.9,0,2.2.8,4.2,3.4,4.4.2,0,.4.2.7.4-.8.6-14.8.6-16,.1.3-.2.4-.4.6-.4,2.9-.2,3.4-1.9,3.4-4.6,0-4.6,0-9.1,0-13.7,0-3.4,0-6.8,0-10.2,0-3.2-.8-4.6-3.8-4.9,0,0-.2-.1-.2-.2.8-.6,15-.6,16,0-.2.1-.4.2-.6.3-2.4.4-3.3,1.1-3.4,3.5-.2,3.7,0,7.4,0,11,0,.2.1.3.3.7.4-.3.8-.5,1-.8,3-3.2,6-6.3,9.1-9.5,0,0,.2-.2.2-.3.7-.9,1.6-1.9,1.1-3.1-.5-1.2-1.7-1.3-2.8-1.5-.3,0-.6-.1-.9-.2.8-.6,13.4-.7,14.5,0-.4.2-.7.3-1,.4-3.7.8-6.5,3-9.1,5.7-1.8,1.8-3.5,3.6-5.3,5.4-.7.7-.8,1.2-.1,2,4.4,5.4,8.8,10.8,13.3,16.1,1.4,1.7,2.9,3.3,5.1,3.9.2,0,.4.3.6.8h-15.7c0-.1,0-.2-.1-.4Z"/>
  <path class="cls-4" d="M496.6,399c-1.3,1.4-1.7,1.4-3,0-.5-.6-3.1-.5-3.7.1-.5.6-1,1.1-1.9.8-.8-.4-1-1.1-1-1.9,0-2.9,0-5.9,0-8.8,0-.9.3-1.5,1-1.9.8-.4,1.3.2,1.8.8.9.9,3.1.8,3.9-.2.6-.7,1.3-.9,2.1-.2.8.6,1,.5,1.4-.4,1.6-3.5,3.2-7,6-9.8,2.3-2.3,5-3.7,8.3-3.5,4.4.3,7.5,2.6,9.4,6.4,1.2,2.5,1.6,5.1,1.3,7.9,0,.6.2,1.4.6,1.9,1.7,2,1.8,5.2,0,7.1-.6.7-.7,1.4-.6,2.2.7,5.2-1.8,10.3-6.3,12.9-3.3,1.9-7.9,1.5-11.2-1-2.2-1.7-3.9-3.8-5.2-6.3-.9-1.8-1.7-3.5-2.6-5.3-.1-.2-.3-.4-.6-.6ZM512,378.5c-3.4-.2-5.4,1.7-7,4.3-.7,1.1-.7,2.4-.2,3.6,1.6,4.2,1.7,8.5.6,12.8-.4,1.4-1.2,2.7-.8,4.3.9,3.6,5.7,6.3,9.3,5.3,4.1-1.2,5.6-4.4,5.7-8,0-1.1,0-2.2-1.4-3-2.6-1.7-2.6-6.3,0-8,1-.7,1.5-1.4,1.4-2.5,0-.6,0-1.1,0-1.7-.2-3.5-3.2-7.3-7.5-6.9Z"/>
  <path class="cls-2" d="M163.4,386.8c2.9,0,5.9,0,8.8,0,1.1,0,1.5.3,1.4,1.4,0,1.5,0,3,0,4.5,0,.4-.4.8-.6,1.2-3.2,0-6.3,0-9.5,0-9.3,0-18.6,0-27.9,0-.5,0-1,.2-1.5.3-1.7,0-3.4-.1-5.1-.2-1,0-1.3.4-1.3,1.3,0,1,0,2.1,0,3.1,0,.6-.2.9-.9.9-.8,0-1.6,0-2.3,0-.3,0-.6.5-.8.7.3.3.5.7.8.8.7.1,1.4,0,2.1,0,.4,0,.8.2,1.2.3,0,1.1,0,2.2.1,3.3-.4.1-.8.3-1.3.3-1.9,0-3.9,0-5.8,0-1.8,0-3.7,0-5.5-.1,0-1.1,0-2.2.1-3.3.9,0,1.7-.2,2.6-.3.7,0,1.3-.4,1.1-1.1,0-.4-.7-.9-1.1-.9-2.3-.2-2.3-.2-2.3-2.5,0-.2,0-.5,0-.7,0-1.9-.3-2.2-2.1-2.2-.9,0-1.2-.3-1.1-1.2,0-1.2,0-2.4,0-3.6q0-1.6,1.5-1.6c6.2,0,12.4,0,18.6,0,.6,0,1.2-.2,1.8-.3,9.3,0,18.5,0,27.8,0,.4,0,.7-.2,1.1-.2Z"/>
  <path class="cls-1" d="M434.3,391.7c-.2,5.3-1.8,9.8-5.8,13.4-2.6,2.3-5.6,3.6-9.1,4.1-4.6.7-9,.2-13.1-2.1-4.5-2.5-7-6.5-8.1-11.4-1.3-5.8-.3-11.2,3.6-15.9,2.4-2.9,5.5-4.6,9.1-5.5,4.2-1,8.3-.8,12.3.7,5.4,2,8.8,5.9,10.2,11.5.4,1.7.6,3.4.8,5.1ZM405.7,391.4c.3,2.6.3,5.2,1,7.7,1,4.1,3.1,7.9,8.1,8.6,4,.5,8.4-.9,9.8-5.6,1.6-5.2,2.1-10.3,1.3-15.7-.5-3-1.2-5.8-3.2-8.2-3.6-4.2-12.4-4.2-15.3,3.6-1.1,3.1-1.5,6.3-1.6,9.6Z"/>
  <path class="cls-1" d="M321.1,408.9h-16.3c0-.1,0-.2,0-.3.4-.1.8-.3,1.2-.4,2.5-.6,3-1.4,3-3.9,0-2.8,0-5.7,0-8.5,0-5.5,0-11.1,0-16.6,0-2.3-.8-3.5-2.6-4.1-.5-.2-1.1-.2-1.7-.6.3,0,.6-.3.9-.3,6.7,0,13.3,0,20,.2,4.3.1,7.5,3.3,8.2,7.7.7,4.1-1.4,8.1-5.1,9.9-3.2,1.5-6.5,1.7-9.9,1.4-.3,0-.5,0-.8,0-.9-.1-1.3.2-1.3,1.2,0,3.1,0,6.3,0,9.4,0,2.2.6,3.9,3.4,4.3.3,0,.7.2,1,.3,0,.1,0,.2,0,.3ZM316.7,383.9c0,2.1,0,4.3,0,6.4,0,.7.2,1.1.9,1.2,1.9.2,3.8.2,5.5-1,2.9-2.1,3.4-5.1,3.1-8.3-.2-2-1.1-3.8-2.9-5-1.6-1.1-3.5-1.1-5.4-1.1-.9,0-1.2.4-1.2,1.3,0,2.1,0,4.3,0,6.4Z"/>
  <path class="cls-1" d="M255.2,408.9h-15.9c0,0,0-.2-.1-.3.4-.2.7-.3,1.1-.5,2-.5,2.5-1.5,1.8-3.4-.9-2.6-1.9-5.2-2.9-7.7-.2-.4-.8-.9-1.3-.9-2.9,0-5.7,0-8.6,0-.5,0-1.2.6-1.4,1.1-.8,2.1-1.5,4.3-2.3,6.4-.6,1.8-.4,4,2,4.5.3,0,.5.3.7.6-3.4.3-6.8.2-10.4.3.3-.5.4-.7.5-.8,2.8-.8,4.1-3,4.9-5.4,2.9-8.1,5.8-16.2,8.7-24.4.4-1.2.9-2.5,1.3-3.7.2-.7.7-1,1.5-1,3.4,0,3.4,0,4.7,3.1,2.6,6.7,5.1,13.3,7.7,20,1,2.6,2,5.2,3.1,7.8.7,1.6,1.8,2.9,3.6,3.4.5.1.9.4,1.3.6,0,.1,0,.3,0,.4ZM233.5,382.1c-.4.6-.7.8-.8,1.2-1.1,3.1-2.2,6.2-3.3,9.3-.3.9,0,1.2.9,1.2,2.1,0,4.3,0,6.4,0,.9,0,1.2-.3.9-1.2-1.3-3.4-2.6-6.8-4-10.5Z"/>
  <path class="cls-1" d="M390.8,400.3c0,.4,0,.7,0,1.1-.3,2.2-.6,4.4-.8,6.6,0,.8-.4,1.1-1.3,1.1-8.1,0-16.2,0-24.3,0-.3,0-.6,0-1-.4.2-.1.4-.4.7-.4,2.2-.2,3.3-1,3.5-4.2.1-3,0-6,0-8.9,0-5.1,0-10.1,0-15.2,0-3.2-.7-4.2-3.8-5,0,0-.2-.1-.3-.2.6-.6,15-.7,16.3,0-.5.1-.9.2-1.2.3-2.1.4-2.9,1.2-3.2,3.3,0,.5,0,.9,0,1.4,0,7.6,0,15.3,0,22.9,0,.2,0,.3,0,.5,0,2.9,1.3,4,4.2,4,1.2,0,2.4,0,3.6-.1,3.3-.4,5.3-2.3,6.5-5.3.2-.5.5-1,.7-1.5.1,0,.3,0,.4,0Z"/>
  <path class="cls-1" d="M134.2,394.2c.5,0,1-.3,1.5-.3,9.3,0,18.6,0,27.9,0,3.2,0,6.3,0,9.5,0-2.2,0-4.3.1-6.4.1-1.4,0-1.6.2-1.4,1.6.6,4.9.2,9.7-.7,14.5-1.1,5.6-3.1,10.8-6.3,15.6-3.5,5.3-8.2,9.5-13.8,12.5-6.3,3.3-13,4.9-20.1,5-3.1,0-6.2,0-9.3-.3-4.9-.4-9.5-1.8-13.9-3.9-4.4-2.1-8.4-4.9-11.7-8.5-4.1-4.4-7-9.5-9-15.1-2.3-6.6-2.9-13.4-2.3-20.3.5-5.3,2-10.5,4.4-15.3,3.6-7.1,8.9-12.7,15.9-16.6,5.1-2.8,10.5-4.6,16.3-5.2,8.1-.8,16.2-.6,24,2.3,10.9,4,18.7,11.3,23.4,21.9.6,1.4,1,3,1.5,4.5-.4,0-.7.2-1.1.2-9.3,0-18.5,0-27.8,0-.1-.2-.3-.4-.4-.6-.1-.4-.2-.9-.5-1.3-3.3-6.3-11.4-8.9-18.1-5.7-8,3.9-9.7,13.7-3.5,19.5.7.6,1.3,1.3,1.9,1.9-.3,0-.6-.1-.8-.3-1.2-1.2-2.5-2.3-3.5-3.7-2.1-3.2-2.6-6.7-1.3-10.3,1.7-4.7,5.1-7.6,9.9-8.7,3.5-.8,7-.5,10.2,1.3,2.6,1.5,4.7,3.5,5.9,6.3.4.8,1,1,1.8,1,8.3,0,16.7,0,25,0,.4,0,.7,0,1.4,0-.3-.9-.5-1.7-.8-2.4-1.9-5.1-4.8-9.6-8.6-13.5-2.9-2.9-6.1-5.3-9.8-7.2-1.8-.9-3.7-1.9-5.7-2.5-1.9-.6-3.9-.9-5.9-1.3-3.3-.7-6.6-1.2-10-1.1-2,0-4,.3-6,.4-3.5.2-7,.9-10.3,2-4.4,1.5-8.5,3.6-12.2,6.5-4.8,3.8-8.4,8.4-10.9,13.9-1.1,2.3-1.7,4.8-2.6,7.2-1.1,3-1.3,6.1-1.6,9.2-.2,2.4.2,4.9.4,7.3.1,1.6.4,3.1.7,4.6.5,2.9,1.4,5.7,2.5,8.5,2,4.9,4.8,9.2,8.5,12.9,3.9,3.9,8.6,6.8,13.8,8.9,4,1.6,8.1,2.4,12.2,2.8,4.1.3,8.2.4,12.4-.3,3.6-.6,7.1-1.3,10.5-2.5,3.2-1.2,6.3-2.7,9.1-4.7,5.4-3.8,9.4-8.7,12.1-14.6,1-2.2,1.9-4.6,2.5-7,.7-2.6,1.4-5.3,1.6-8,.3-3.2,0-6.5,0-9.8,0-.9-.3-1.2-1.2-1.2-9.2,0-18.3,0-27.5,0-.9,0-1.4.3-1.8,1.1-1.1,2.4-2.9,4.3-5.2,5.6-.7.4-.9.9-.8,1.6.4,1.6.8,3.3,1.2,4.9.5,2,1.1,3.9,1.6,5.9.5,2.1,1,4.1,1.5,6.2.8,3,1.5,5.9,2.3,8.9.3,1.1-.3,1.5-1.2,1.5-8,0-16.1,0-24.1,0-1.5,0-1.8-.6-1.3-2,.6-2,1.1-4.1,1.6-6.2.5-1.9.8-3.7,1.3-5.6.6-2.2,1.2-4.4,1.8-6.6.5-2,1.1-3.9,1.6-5.8.2-.9.7-1.9-.6-2.5,0,0,0-.3-.1-.4.4,0,.8.1,1.1.2.1.1.3.2.4.4,0,1.1,0,2.2-.1,3.3-.2.4-.6.8-.7,1.3-.9,3.5-1.8,7.1-2.7,10.7-1,3.9-2,7.8-3,11.7-.2.9,0,1.2.9,1.2,7.9,0,15.7,0,23.6,0,1,0,1.1-.5.8-1.3-.3-1.1-.6-2.1-.9-3.2-1.5-5.9-3-11.8-4.5-17.8-.2-1-.7-1.9-1-2.8,0-1.1,0-2.2-.1-3.3,3.3-1.3,5.3-3.7,6.4-6.9Z"/>
  <path class="cls-1" d="M340.6,408.6c.5-.2.9-.3,1.3-.4,1.8-.4,2.5-1.1,2.8-2.9,0-.5.1-1.1.1-1.6,0-8,0-16,0-23.9,0-.5,0-1-.1-1.5-.3-1.9-1.3-2.9-3.1-3.2-.3,0-.5-.1-.8-.4.3,0,.7-.3,1-.3,4.6,0,9.2,0,13.9,0,.3,0,.7.1,1.4.3-.5.2-.6.4-.8.4-2.8.3-3.6,1.5-3.6,4.4,0,5.7,0,11.5,0,17.2,0,2.3,0,4.6,0,7,0,3.1.6,3.9,3.6,4.7.2,0,.3.2.5.3-.7.6-14.9.7-16.1,0Z"/>
  <path class="cls-1" d="M433.3,439.2h-4.9c1.8-.9,1.5-2.6,1.5-4.1,0-2.3,0-4.6,0-6.9,0-1.4.3-3-1.9-3.4.4-.3.5-.5.6-.5,2.3.1,4.6.2,6.9.5,1.9.3,3,1.4,3.2,3.1.2,1.7-.6,2.9-1.9,3.8-.3.2-.7.3-1,.6-.2.2-.3.7-.2.9,1.1,1.4,2.1,2.9,3.4,4.1.5.5,1.4.7,2.1,1.1.3.1.4.4.7.7-.3.1-.5.3-.8.3-2.2.3-3.7-.9-4.8-2.6-.8-1.1-1.5-2.3-2.4-3.3-.3-.4-1-.5-1.5-.8-.2.5-.4.9-.5,1.4,0,.2,0,.5,0,.8.2,1.5-.4,3.4,1.9,4.1l-.3.2ZM433.4,431.6c.4.6.7,1.2,1.1,1.8,1.1,1.5,2.2,3,3.4,4.4.3.4.8.5,1.3.8-1.5-2.4-3.8-4-4.4-6.9,0,0,0,0,0-.1.2-.1.4-.3.6-.4,1.4-.7,1.9-1.6,1.8-3.2-.1-1.3-1.1-1.9-2.2-2.2-.6-.2-1.2-.1-1.8-.2-.7,0-1.2.2-1.2,1,0,.9-.1,1.8-.1,2.8,0,1.8,0,1.8,1.7,2.2ZM430.1,425.1c.8,2.3.8,8,.2,13.3h.8c.2-2.3.4-4.5.4-6.7,0-2.2-.2-4.4-.4-6.6h-1Z"/>
  <path class="cls-1" d="M277.4,424.1c4.6-.1,7.4,3.3,7.4,7.5,0,4.4-2.5,7.7-7.6,7.8-4.4,0-7.2-3-7.2-7.6,0-4.6,3-7.7,7.4-7.7ZM276.5,425.4c-.2.1-.5.3-.7.4-1.6.5-2.8,1.5-3.2,3-.4,1.5-.5,3-.4,4.5.2,2.6,2.4,4.5,5,4.6,2.4,0,4.3-1.3,5.1-3.5,1-2.9.4-6.2-1.6-7.7-.8-.6-1.7-.9-2.5-1.4.5,0,1,0,1.4.2,2.3,1,3.3,2.9,3.7,5.2.5,2.4-1.1,6.3-3.6,7.1-.2,0-.3.3-.5.5,1.8.2,3.8-1.8,4.8-4.5.9-2.6-.4-6.8-2.6-8.2-2.7-1.7-6.4-1.3-8.4.5-2.8,2.4-3.1,6.9-1.5,9.7,1.4,2.4,4.4,3.6,7.3,2.7-.7,0-1.1,0-1.6,0-1.5,0-2.9-.6-3.9-1.7-2.5-2.8-2.5-6.7-.5-9.6.8-1.2,2-2,3.6-1.8Z"/>
  <path class="cls-1" d="M343.6,436.9c.3.2.6.5,1,.7.3.2.6.5.9.7-.3.2-.6.4-.9.6-.2,0-.4,0-.7,0,0,0,0,0-.1,0-1.1-1.3-1.2-1.3-2.7-.6-.9.4-2,.6-3,.7-.7,0-1.4,0-2.2-.1-.1,0-.3,0-.4-.1-.3-.2-.6-.4-.8-.7-.5-.6-1.1-1.2-1.2-1.9-.3-1.9,0-3.7,2-4.8.2-.1.4-.3.7-.5-.5-.7-.9-1.2-1.3-1.8,0-.1,0-.3-.1-.4,0-.6,0-1.3,0-1.9,0-.1,0-.3,0-.4,2.3-2.3,3.6-2.5,6-.7,0,.1,0,.3.1.4,0,.3,0,.5,0,.8,0,0,0,.1-.1.2-.3,0-.6,0-.9,0,0,0-.1,0-.2,0,0-.2-.1-.4-.2-.6-.2-1.2-1.2-1-2-1-1.1,0-1.6.9-1.5,1.7,0,1,.3,2.1.9,2.9,1.3,1.8,2.9,3.4,4.4,5,.3.3.7.4,1.1.5,0-.3.2-.7.3-1,0-.5,0-1.1,0-1.6,0-.2,0-.3-.1-.5,0-.1-.1-.3-.2-.4-.2-.3-.4-.5-.6-.8,0-.3-.1-.5-.2-.8,0,0,0-.1.1-.2.1,0,.3,0,.4,0,1.2.1,2.4.2,3.6.3.3,0,.6.3.8.5-.1,0-.2.1-.3.2-.8,0-1.7.1-2.5.2,0,.7.1,1.3.2,2,0,.4,0,.7.1,1.1,0,0,0,0,0,0,0,.3-.2.7-.2,1,0,.1,0,.3,0,.4,0,0-.1,0-.2.2-.6.3-.6.7,0,1ZM334.7,435.8c0,.2.2.4.3.6.2.2.5.5.7.7.2.1.4.3.5.4.1,0,.3,0,.4.1,1.2.9,2.9.8,4-.3.1-.1.3-.2.4-.3.2,0,.3-.1.5-.2-.1-.2-.2-.3-.4-.5,0,0,0,0,0-.2-.6-.6-1.2-1.3-1.8-1.9-.6-.6-1.1-1.2-1.7-1.8-.3-.3-.7-.9-.9-.9-.4,0-.7.6-1.1.9-.1.1-.2.3-.3.4-.2.4-.3.7-.5,1.1,0,.2,0,.4,0,.6,0,.2,0,.5,0,.7,0,.2,0,.4,0,.6Z"/>
  <path class="cls-1" d="M378.1,426.5c-.4-.3-.8-.7-1.2-1-.2-.2-.4-.4-.7-.6.3-.2.6-.5.9-.6,1.2,0,2.5,0,3.7,0,1.4,0,2.9,0,4.3,0,.5,0,1.2.4,1.3.7.2.7,0,1.4,0,2.2-.4,0-.8-.1-1.1-.3-.4-.2-.7-.6-1.1-.7-1,0-2.1,0-3.1,0-.7,0-1.1.3-1.1,1,0,.9,0,1.9,0,2.8,0,.3.2.7.4.7,1.2,0,2.4.5,3.4-.5.2-.2.5-.2.8-.4,0,.3.3.5.3.8,0,.9,0,1.8,0,2.9-.5-.2-.8-.3-1-.5-.7-.7-2.6-1.2-3.5-.8-.2.1-.4.5-.4.7,0,1.4,0,2.7,0,4.1,0,.3.5.8.8.8,1,.1,2,.1,3,0,.9,0,1.8-.2,2.1-1.3,0-.2.4-.3.6-.4.1.2.4.4.4.6,0,.7,0,1.4-.3,2.1,0,.3-.6.6-.9.6-3,0-6,0-9.1,0,0,0-.2-.1-.4-.2.6-.6,1.2-1.2,1.8-1.8,0,.5-.1.9-.2,1.5,2.6,0,5.1,0,7.7,0,.8,0,1-.4.6-1.3-1.5,1.2-3.3,1.1-5.1,1.1-1.1,0-1.6-.5-1.6-1.5,0-1.4,0-2.9,0-4.3,0-.8.4-1.2,1.2-1.2,1.1,0,2.3.1,3.6.2,0-.2,0-.6,0-.6-1.4,0-2.6.1-3.7,0-.3,0-.9-.6-.9-.9,0-1.2,0-2.4,0-3.6,0-.9.6-1.4,1.6-1.3,1.6.1,3.2.2,4.9.3.3-.6-.3-.8-.9-.8-2.2,0-4.5,0-6.7,0-.2,0-.3.2-.4.2,0,.5.1,1,.2,1.4Z"/>
  <path class="cls-1" d="M177,435.1c.3.5.6.9.8,1.3,1,1.9,4.6,2.3,6,.6,1.2-1.6.7-3.3-1.4-4.1-1.1-.4-2.2-.8-3.2-1.2-2-.8-3-2.4-2.6-4.6.2-1.6,1.8-2.9,3.8-2.9,1.4,0,2.8.2,4.2.4.9.2,1.2,1.9.5,2.5-.2.1-.9,0-1.1-.4-1.1-1.3-3.1-1.7-4.5-.8-.8.5-1.1,1.1-1.1,2,0,.9.5,1.4,1.3,1.7,1.2.4,2.4.8,3.6,1.3,1.7.7,3,1.9,3.2,3.8.2,1.8-.6,3.1-2.1,4-1.8,1-3.8.9-5.8.5-.2,0-.4-.2-.5-.2-1.9-.4-2.5-1.2-1.1-3.8ZM183.3,438.1c-2.4.9-4.7.8-6.3-1.6-.4,1.3-.4,1.5.7,2,1.8.7,3.7.8,5.6.2,1.5-.6,2.6-1.6,2.5-3.3,0-1.8-.9-3.1-2.6-3.7-1.4-.5-2.8-1-4.2-1.6-1-.4-1.5-1.9-1.2-2.8.6-1.6,2.6-2.6,4.1-2,1,.3,1.9.8,3.1,1.4-.2-.6-.4-1.3-.6-1.3-1.7-.4-3.3-.9-5.1-.3-1.6.6-2.4,1.4-2.5,2.9-.1,1.3.6,2.5,2,3.2,1.1.5,2.3,1.1,3.5,1.5,2.9.9,3.2,4.1,1,5.6Z"/>
  <path class="cls-1" d="M467.1,427.2c-.9-1.6-2.4-1.4-3.8-1.5-.8,0-1.2.2-1.2,1,0,3.4,0,6.7,0,10.1,0,.8.9,1.6,1.4,2.4h-5.1c.1-.2.1-.4.2-.4,1.1-.4,1.5-1.2,1.5-2.3,0-3.1,0-6.3,0-9.4,0-1.2-.7-1.4-1.7-1.4-.7,0-1.4,0-1.9.2-.5.2-.9.7-1.6,1.3,0-1,0-1.7,0-2.4,0-.2.6-.6.9-.6,3.4,0,6.8,0,10.2,0,.4,0,.9.5,1.1.9.2.5,0,1.2,0,1.8-.1,0-.2.2-.3.2ZM460.4,425.1c1.1,2.1.5,4.4.6,6.6,0,2.2,0,4.5-.1,6.8h1v-13.4h-1.5Z"/>
  <path class="cls-1" d="M477.7,431.2c.5-.9,1-1.6,1.3-2.3.3-.6.7-1.2,1-1.8.3-.7.6-1.4-.5-1.8-.2,0-.4-.4-.3-.6,0-.2.3-.5.5-.5,1.4,0,2.9,0,4.3,0,.2,0,.4.3.5.5,0,.2-.1.5-.3.6-2.2.4-2.7,2.5-3.7,3.9-1.2,1.7-2.4,3.5-2.1,5.7.1.8,0,1.7.2,2.4.2.6.8,1.1,1.4,1.8-1.7.4-3.3.1-5.3.2.4-.5.7-.8.9-1.1.3-.6.7-1.1.8-1.8.8-3.8-1.6-6.5-3.4-9.4-.5-.7-1.3-1.2-2-1.8-.2-.2-.3-.4-.4-.6.2-.1.4-.3.6-.3,1.3,0,2.7-.1,4.1,0,.2,0,.5.3.7.5-.2.2-.3.4-.5.7-.2.3-.6.8-.5,1,.8,1.5,1.6,3,2.6,4.8ZM478,431.6c-1.1,0-1.2-.9-1.6-1.6-.8-1.6-2.2-3-2.1-4.9h-2c1,1.6,2.1,3.1,2.9,4.6.6,1.1,1.4,2.3,1.5,3.5.3,1.8,0,3.6,0,5.4h1.5c-.5-2.3-1-4.5-.1-6.7,1.5-2.4,3-4.7,4.5-7.1h-1.9c-.2,1-.2,1.8-.6,2.5-.7,1.4-1.5,2.8-2.3,4.1Z"/>
  <path class="cls-1" d="M298.1,423.9c1.2.2,2.1.3,3,.5.7.2,1.1.7.9,1.5-.1.4-.4.8-.5,1.2-.3-.2-.7-.4-.9-.7-1-1-3.7-1.4-5.3-.8-1.8.7-2.7,2-3.1,3.8-.5,2.2-.4,4.3,1,6.2,1.6,1.9,4.6,2.6,7.1,1.6.2,0,.3-.2.5-.2.4,0,.8,0,1.2,0-.2.4-.3,1.1-.6,1.2-2.7,1.4-5.5,1.6-8.2,0-2.3-1.4-3.5-3.5-3.5-6.3,0-3.8,1.5-6.4,4.8-7.5,1.2-.4,2.6-.4,3.5-.6ZM292.9,425.9c-2.8,2.2-3.2,5.1-2.3,8.3.6,2.2,2.2,3.7,4.3,4.3,1.8.5,3.7.5,5.5-.4-.3-.1-.3-.2-.4-.2-.3,0-.5,0-.8.2-1.8.9-3.5.1-5-.7-2.4-1.3-3.2-3.6-3-6.2,0-.7,0-1.5.2-2.1.5-1.1,1.2-2,1.8-3,2.6-1.2,5.2-1.4,7.9.1,0-.4,0-1-.3-1-2.8-.9-5.6-1-8.2.9Z"/>
  <path class="cls-1" d="M404.3,437c-.3.4-.4,1-.8,1.2-3.2,1.8-7.7,1.5-10.2-1.7-2-2.7-2-5.7-.7-8.6,1.2-2.6,3.5-3.9,6.5-3.8,1.3,0,2.7.1,4,.4,1,.3,1.3,1.7.5,2.4-.1.1-.6.1-.8,0-3.4-2.9-7.5-1.7-8.8,2.6-.9,3.1.4,6.5,3,7.6,1.8.8,3.6.6,5.4,0,.4-.1.9-.3,1.3-.5.1,0,.3.2.4.3ZM395.1,425.9c-2.6,1.6-3.5,6.1-2.1,9.2,1.4,3,5,4.2,7.2,3.5-3.3-.6-6.5-1.7-6.7-6.3,0-2.2,0-4.4,1.8-6.1,2.6-1.8,5.3-1.6,7.9,0,.4-.7.1-1.1-.6-1.2-1.5-.2-3-.5-4.5-.3-1.1.1-2.2.8-3.2,1.3ZM401,438.2c0,.1,0,.2,0,.3.4,0,.7-.2,1.1-.2,0,0,0-.2,0-.3l-1.1.2Z"/>
  <path class="cls-1" d="M204.8,439.2h-4.7c.3-.8.9-1.5.8-2.1-.3-1.4-.9-2.7-1.4-4-1.5,0-3.1-.3-4.5.1-.7.3-.9,1.9-1.3,3-.5,1.1-.3,2.1,1,2.7,0,0-.2.2-.2.2h-4.7c3.3-2.6,3.4-6.4,5-9.6.6-1.1.9-2.4,1.4-3.6.1-.3.2-.6.5-.8.5-.4,1-.9,1.5-.9.3,0,.8.8,1,1.3,1.3,3.4,2.4,6.9,3.7,10.4.5,1.2,1.4,2.2,2.1,3.4ZM196.5,426.9h0c-.2.4-.5.8-.7,1.2h0c-.4,1-.8,2-1.2,3,0,.5-.2,1.1-.3,1.6-.2.1-.5.2-.6.4-.8,1.8-1.5,3.7-2.2,5.6h1.4c-.1,0-.2-.1-.3-.2.6-1.9,1.2-3.8,1.8-5.7,1.3,0,2.6-.1,3.9-.3,1.2-.1,1.8.5,2.1,1.6.4,1.5.9,3.1,1.3,4.6h1.5c-.8-2.1-1.7-4.2-2.4-6.2-.8-2.3-1.6-4.7-2.4-7.1-.2-.7-.7-.7-1.1-.3-.3.3-.4.8-.6,1.2,0,.2-.1.5-.2.7Z"/>
  <path class="cls-1" d="M445.2,439.1c.1-.2.2-.5.4-.5,1.3-.6,1.3-1.7,1.3-2.9,0-2.6,0-5.3,0-7.9,0-1,0-2-1.2-2.5-.2,0-.4-.5-.3-.8,0-.1.4-.4.6-.4,1.4,0,2.9,0,4.3,0,.2,0,.5.3.7.5-.2.2-.3.6-.5.7-.9.4-1.1,1-1.1,1.9,0,3.2,0,6.4,0,9.5,0,.8,0,1.5,1.1,1.6.2,0,.5.4.5.5,0,.3-.3.7-.5.7-1.6,0-3.3,0-4.9-.1,0,0-.1-.2-.3-.3ZM449.1,438.8c-.6-4.8-.6-9.3,0-13.9h-1.9c.6,4.7.5,9.2,0,13.9h1.9Z"/>
  <path class="cls-1" d="M212.5,427.9c0,.8,0,1.6,0,2.4.3.2.6.7.8.7,1.3,0,2.5-.2,3.8-.3v2c-1.3-1.5-2.8-.9-4.2-.9-.1,0-.3.6-.4,1,0,1,0,1.9,0,2.9,0,1,.2,2.1.3,3.1h-2c.6-4.7.7-9.3-.1-13.9.2,0,.5,0,.7-.1,2.2,0,4.4,0,6.6,0,.4,0,.7.2,1.1.3,0,.6,0,1.2,0,1.9-.2,0-.5-.1-.6-.3-.5-1-1.4-1.1-2.4-1.1-.6,0-1.2,0-1.7,0-2,0-2.3.3-2,2.3Z"/>
  <path class="cls-1" d="M378.1,426.5c0-.4-.1-.9-.2-1.4,0,0,.2-.2.4-.2,2.2,0,4.5,0,6.7,0,.6,0,1.1.2.9.8-1.7-.1-3.3-.2-4.9-.3-.9,0-1.5.4-1.6,1.3,0,1.2-.2,2.4,0,3.6,0,.4.6.9.9.9,1.2,0,2.3,0,3.7,0,0,0,0,.4,0,.6-1.3,0-2.4-.2-3.6-.2-.8,0-1.2.4-1.2,1.2,0,1.4,0,2.9,0,4.3,0,1,.5,1.5,1.6,1.5,1.8,0,3.6.1,5.1-1.1.4.9.2,1.3-.6,1.3-2.6,0-5.1,0-7.7,0,0-.6.2-1,.2-1.5,0-3.6,0-7.2,0-10.8Z"/>
  <path class="cls-1" d="M219.2,425c-.4,0-.7-.3-1.1-.3-2.2,0-4.4,0-6.6,0-.3,0-.6,0-.7.1.8,4.7.7,9.2.1,13.9h2c0-1.1-.2-2.1-.3-3.1,0,.2.2.3.3.5,0,1.1.5,2,1.7,2.3.2,0,.3.3.4.4-.8.9-4.4,1.1-6,.2.2-.2.3-.6.6-.7,1.1-.4,1.1-1.2,1.1-2.1,0-3.1,0-6.1,0-9.2,0-.8,0-1.5-1.1-1.7-.2,0-.5-.5-.5-.8,0-.2.4-.5.6-.5,3,0,6,0,9,0,.5,0,.9.2.6.9Z"/>
  <path class="cls-1" d="M233.7,424.9c0,.2,0,.4,0,.6,0,.4,0,.7-.1,1.1-.2,0-.3,0-.5,0-.3-.3-.7-.6-1-.9,0-.1-.2-.3-.2-.3-1.4,0-2.8,0-4.2,0,0,0-.2.2-.2.3,0,0-.2.1-.3.2,0,.4-.1.8-.2,1.2,0,1.2,0,2.3,0,3.5,0,.2.2.5.3.7,0,0,0,.1,0,.2,0,.2-.2.5-.2.7,0,1.6,0,3.3,0,4.9,0,.2,0,.4.1.5l.3.4c.3.1.6.4.9.4,1.7,0,3.4-.2,5.1-.3,0,0,0,.3,0,.6h0c-2.7,0-5.4,0-8,0,0-.7,0-1.2.1-1.7,0-3.6,0-7.1,0-10.7,0-.4,0-.8-.2-1.5h8.1s0,0,0,0Z"/>
  <path class="cls-1" d="M370.7,433.4c0,.1,0,.3.1.4,0,.3-.2.6-.2.8.2,2-.2,3-2,3.9-.2-.2-.3-.3-.5-.5,1.2-.8,1.8-1.9,1.5-3.2-.3-1.2-1.1-1.9-2.3-2.4-1.4-.5-2.7-1.1-4-1.8-1.5-.7-1.6-2.1-1.4-3.5.2-1.1,1-1.8,2.1-2.2,2.1-.8,4,0,6,.3,0,.2,0,.5,0,.7-.1,0-.3.2-.4.2,0,.1-.1.2-.2.3-.7-.5-1.1-1.5-2.2-1.2-.7,0-1.3,0-2,0-1.2-.3-2.1.5-2.3,1.3-.3.8,0,1.9.4,2.7.4.7,1.3,1.4,2.4,1,0,0,.1,0,.2,0,.4.2.8.5,1.1.7,0,0,.2.1.2.2.7.2,1.4.4,2,.6.3.3.6.5.9.8.2.3.4.5.6.8Z"/>
  <path class="cls-1" d="M264.7,436.9c0,0,0-.1,0-.2.7-.2.7.3.7.7-.1.8-.1,1.7-1.3,1.8-2.3,0-4.6,0-6.9,0-.8,0-.9-.4-.6-1,0,0,0,0,0,0,.2-.4.6-.8.6-1.2,0-3.4,0-6.8,0-10.2,0-.4-.4-.8-.6-1.2,0,0,0,0,0,0,.1-.3.3-.8.4-.8.8,0,1.6,0,2.6,0-.3.8-.7,1.4-.7,2,0,3.4,0,6.9,0,10.3,0,.7.4,1.2,1.3,1.2,1,0,1.9,0,2.9,0,.7,0,1.5-.2,1.6-1.2ZM257.7,425.1c0,4.6.3,9.1-.1,13.7,2.1,0,4.3,0,6.5,0,.2,0,.4-.3.5-.3-1.2,0-2.4.1-3.6.1-2.2,0-2.4-.3-2.4-2.5,0-3.6,0-7.3,0-11h-.9Z"/>
  <path class="cls-1" d="M417.5,437.7c.1,0,.3,0,.4,0,1.1,0,1.6-.7,1.9-1.6,0-.3.2-.6.3-.9.1-.4.4-.8.4-1.1,0-2.2,0-4.5,0-6.7,0-.3-.2-.7-.3-1,0-.3-.1-.5-.2-.8.1-.2.3-.5.4-.7.4,0,.9,0,1.3,0,0,.3.1.5.2.8-.1,2.8-.3,5.6-.4,8.4,0,4.3-3.5,6.5-7.5,4.9.3-.2.6-.5.9-.7,0,0,.2-.1.2-.2.1,0,.3,0,.4,0,0,.1,0,.2,0,.3-.2.9.5.4.8.4.2,0,.4-.3.6-.4,0-.1,0-.2,0-.3.1-.1.3-.2.4-.3Z"/>
  <path class="cls-1" d="M233.7,424.9s0,0,0,0c0,0,0,0,0,0-.2-.1-.3-.3-.5-.3-2.8,0-5.5,0-8.3,0-.1,0-.3,0-.4.2.5.6.9,1.1,1.3,1.7,0,3.6,0,7.1,0,10.7-.3.6-.7,1.2-1.2,2.1h9c-.3.1-.6.4-.9.4-2.7,0-5.3,0-8,0-.4,0-.8-.3-1.2-.5.3-.3.6-.6.8-.9.3-.6.8-1.2.8-1.9,0-3,0-6,0-8.9,0-.8,0-1.8-1.3-2-.2,0-.5-.5-.4-.7,0-.3.4-.6.7-.6,3.1,0,6.1,0,9.2,0,.2,0,.3.5.5.8Z"/>
  <path class="cls-1" d="M421.6,424.7c-.4,0-.9,0-1.3,0-.3,0-.6,0-1,0,.3.4.4.6.5.8-.5-.1-1-.2-1.4-.3-.1,0-.2-.6-.2-.6.3-.2.7-.3,1-.3,1.2,0,2.4,0,3.6,0,.3,0,.6.3.9.4-.2.3-.4.8-.6.8-1,.2-1,.9-1,1.6,0,2.4,0,4.8,0,7.2-.1,3.2-2.1,5.4-5.6,5.5-1.1,0-2.3.4-3-.8.2,0,.3,0,.5,0,4,1.6,7.4-.6,7.5-4.9,0-2.8.2-5.6.4-8.4.2-.2.5-.4.7-.6,0,0,0-.1,0-.2h-.8Z"/>
  <path class="cls-1" d="M370,425.3c-2-.4-3.9-1.1-6-.3-1.1.4-1.9,1.1-2.1,2.2-.3,1.4,0,2.8,1.4,3.5,1.3.7,2.7,1.3,4,1.8,1.2.5,2,1.2,2.3,2.4.3,1.4-.3,2.5-1.5,3.2-.5,0-1,.1-1.5.2.7-.5,1.7-.8,2.2-1.4,1-1.4.3-3.2-1.5-3.9-1.1-.4-2.2-.8-3.2-1.2-2.1-.9-3.1-2.4-2.7-4.4.4-1.9,1.9-3,4.1-3.1,1.6,0,3.3-.2,4.7.9,0,0,0,0,0,.1,0,0,0,.1-.1.2Z"/>
  <path class="cls-1" d="M411.2,436.9c-.3-.7-.8-1.4-.8-2.1-.1-2.1,0-4.3,0-6.4,0-.8-.1-1.5-.3-2.3,0-.3-.4-.4-.7-.7-.2-.3-.4-.6-.7-.8.3-.2.6-.5.9-.5,1.3,0,2.6,0,3.8,0,.3,0,.6.1,1.1.3-.3.4-.4.7-.6.8-1.2.5-1.2,1.5-1.2,2.6,0,1.6,0,3.3,0,4.9,0,1.4.3,2.7.4,4.1-.2-.3-.4-.5-.7-.8,0-2.3-.2-4.5-.3-6.8,0-1.6-.4-3.2,1.1-4.5h-3.5c.2.7.6,1.3.6,2,.1,2.5.1,5,.2,7.5,0,.4.1.9.2,1.3,0,.1,0,.3,0,.4,0,.3,0,.7.1,1Z"/>
  <path class="cls-1" d="M316.4,435.8c0,0,.1.1.2.2.5.6,1.1,1.1,1.6,1.7.1.1.2.2.3.4,0,.3.5.8-.2.9-.2,0-.5,0-.7,0-.3-.2-.6-.3-.9-.5-.4-.4-.8-.8-1.2-1.2,0,0-.1-.2-.2-.2-.8-1.1-1.6-2.1-2.4-3.2h0c-.4-.7-.9-1.3-1.3-2,0-.4,0-.7,0-1.1.2-.1.3-.3.5-.4.3.3.6.6.9.9,1.2,1.5,2.3,3,3.5,4.4Z"/>
  <path class="cls-1" d="M264.7,436.9c0,1-.8,1.1-1.6,1.2-1,0-1.9,0-2.9,0-.9,0-1.3-.4-1.3-1.2,0-3.4,0-6.9,0-10.3,0-.6.4-1.2.7-2-.9,0-1.7,0-2.6,0-.2,0-.3.5-.4.8-.4,0-.8,0-1.1-.2-.2,0-.3-.5-.3-.7,0-.1.3-.4.5-.4,1.5,0,3.1,0,4.6,0,.2,0,.5.4.5.5,0,.3-.3.6-.5.7-1.1.3-1.1,1-1.1,1.9,0,3,0,6,0,9.1,0,1,.4,1.4,1.4,1.3,1.4-.1,2.8.3,4-.8Z"/>
  <path class="cls-1" d="M411,435.9c0-.1,0-.3,0-.4,0-.4.2-.7.2-1.1,0-3.1,0-6.2-.1-9.3h1.2c-.1.5-.3,1-.3,1.5,0,2.6,0,5.3,0,7.9,0,.5.4,1,.6,1.5.2.3.4.5.7.8.1.1.2.2.3.3,0,.1,0,.2.1.3.4.2.8.5,1.2.7-.3.2-.6.5-.9.7-.2,0-.3,0-.5,0-.1,0-.3-.1-.4-.2,0,0,0-.1,0-.2-.3-.2-.5-.4-.8-.6-.2-.2-.3-.3-.5-.5-.3-.5-.5-1-.8-1.5Z"/>
  <path class="cls-1" d="M308.4,438.1c.1-.3.2-.5.4-.8,0-.2.2-.5.2-.7,0-3.2,0-6.4,0-9.6,0-.3-.2-.6-.3-.9,0-.1,0-.2-.1-.4-.1-.3-.3-.6-.5-1.1,1,0,1.9,0,2.7,0,.2,0,.3.5.5.8,0,0,0,0,0,0-.3.6-.6,1.1-.8,1.7v-2h-1.2c.3,4.6.3,9,0,13.5h1c0-.7,0-1.4.1-2,.3.7.5,1.5.9,2.3h-3.2c.2-.4.2-.6.3-.8Z"/>
  <path class="cls-1" d="M312.9,431.3c-.3-.3-.6-.6-.9-.9,0-.2.1-.3.2-.5,0,0,0,0,0,0,.3-.3.6-.6,1-.9.5-.6,1.1-1.1,1.6-1.7.2-.2.3-.4.5-.7,0,0,0-.1,0-.2,0-.6.1-1.2.2-1.8h3c-.7.8-1.3,1.5-1.9,2.1-.4.4-.8.8-1.1,1.2-.2.3-.5.6-.7.9-.6.7-1.1,1.4-1.7,2.1,0,0-.1.2-.2.3Z"/>
  <path class="cls-1" d="M308.4,438.1c0,.2-.2.4-.3.8h3.2c-.3-.8-.6-1.6-.9-2.3,0-1.3,0-2.6,0-4,0-.2.1-.3.2-.5,0,0,0,0,.1-.2.3,0,.6-.1.9-.2.4.7.9,1.3,1.3,2-.4-.3-.7-.7-1.1-1-.2-.2-.5-.4-.7-.3-.2,0-.4.4-.4.6,0,1.2,0,2.5.2,3.7,0,.5.7,1,1.1,1.4.2.2.5.4.5.7,0,.2-.3.5-.5.5-1.6,0-3.2,0-4.8-.1-.1,0-.2-.2-.6-.5.7-.3,1.2-.6,1.8-.8Z"/>
  <path class="cls-1" d="M342.8,434.3c0,.3-.2.7-.3,1-.4-.2-.8-.3-1.1-.5-1.5-1.6-3.1-3.3-4.4-5-.6-.8-.9-1.9-.9-2.9,0-.8.4-1.7,1.5-1.7.8,0,1.7-.2,2,1-.1,0-.3-.1-.4-.1-.7,0-1.8-.4-2-.1-.4.6-.5,1.6-.3,2.2.3.9.9,1.7,1.5,2.5,1,1.2,2.1,2.2,3.1,3.4.5.5.8.5,1.3.2Z"/>
  <path class="cls-1" d="M227.5,438.1c-.1-.1-.2-.3-.3-.4,0-.2,0-.4-.1-.5,0-1.6,0-3.3,0-4.9.1,0,.2,0,.4-.1,0,0,0,0,.1.1,0,1.3,0,2.7,0,4,0,.9.4,1.3,1.3,1.3.7,0,1.5,0,2.2,0,.9,0,1.8-.1,2.3-1.2.1-.3.6-.4,1-.6.1.4.4.7.4,1.1,0,.8.2,1.8-1,2.1,0,0,0-.1,0-.2,0,0,0,0,0,0,.6-.7.7-1.4.4-2.6-.9,1.9-2.3,2-3.8,1.9-.9,0-1.8,0-2.7,0Z"/>
  <path class="cls-1" d="M256.7,438.1c-.3.7-.1,1,.6,1,2.3,0,4.6,0,6.9,0,1.1,0,1.1-1,1.3-1.8,0-.5,0-.9-.7-.7.1-.2.3-.4.4-.7.2.2.5.3.6.6.6,1.5-.5,3.1-2.1,3.1-2.3,0-4.6,0-7,0-.5,0-1-.2-1.4-.3,0-.2,0-.3,0-.5l1.5-.7Z"/>
  <path class="cls-1" d="M212.5,432.8c.1-.3.3-1,.4-1,1.4,0,3-.6,4.2.9v-2c-1.3.1-2.6.3-3.8.3-.3,0-.5-.5-.8-.7,1.4.7,3.1.4,4.2-.5.1-.1.5-.3.6-.2.2.1.4.4.4.6,0,.9,0,1.8,0,2.7,0,.2-.2.5-.4.6-.2,0-.5-.1-.7-.3-.4-.3-.7-.9-1.1-.9-1,0-2.2-.5-3,.5Z"/>
  <path class="cls-1" d="M334.9,429c.4.5.8,1.1,1.3,1.8-.3.2-.5.4-.7.5-1.9,1.1-2.2,2.9-2,4.8,0,.7.8,1.3,1.2,1.9.2.3.6.5.8.7-.2,0-.4.1-.5,0-2.9-1.6-2.8-4.6-1.1-6.8.7-.9,1.7-1.5.8-2.8,0,0,.1-.2.2-.2Z"/>
  <path class="cls-1" d="M366.6,438.2c.5,0,1-.1,1.5-.2.2.2.3.3.5.5-.6.2-1.3.5-1.9.7-.6,0-1.2,0-1.8,0-.8-.2-1.5-.4-2.2-.7-1.4-.6-1.6-1-.8-2.4,1.3,1.8,1.9,2.1,3.3,2.1.5,0,.9,0,1.4,0Z"/>
  <path class="cls-1" d="M420.1,426.2c.1.3.3.7.3,1,0,2.2,0,4.5,0,6.7,0,.4-.2.8-.4,1.1,0-.2-.2-.3-.2-.5,0-2.6,0-5.2,0-7.8,0-.2.2-.4.3-.6Z"/>
  <path class="cls-1" d="M256.7,425.4c.2.4.6.8.6,1.2,0,3.4,0,6.8,0,10.2,0,.4-.4.8-.6,1.2,0-4.2,0-8.4,0-12.7Z"/>
  <path class="cls-1" d="M316.7,426.9c.6-.7,1.2-1.3,1.9-2.1h-3c0,.6-.1,1.2-.2,1.8-.2-.4-.4-.8-.6-1.2-.1-.3-.4-.6-.3-.8,0-.2.5-.4.7-.4,1.2,0,2.4,0,3.6,0,.3,0,.6.4.8.6-.2.3-.4.6-.7.8-.8.5-1.5.9-2.3,1.4Z"/>
  <path class="cls-1" d="M212.5,427.9c-.3-2,0-2.3,2-2.3.6,0,1.2,0,1.7,0,1,0,1.9,0,2.4,1.1,0,.1.4.2.6.3,0,.2-.1.5-.3.6-.2,0-.5,0-.6-.2-.4-1.3-1.5-1.1-2.5-1.1,0,0-.2,0-.2,0-1.5-.2-2.7,0-3.1,1.7Z"/>
  <path class="cls-1" d="M308.7,426.1c.1.3.3.6.3.9,0,3.2,0,6.4,0,9.6,0,.2-.2.5-.2.7,0-.2-.2-.4-.2-.6,0-3.4,0-6.7,0-10.1,0-.2,0-.4.1-.6Z"/>
  <path class="cls-1" d="M227.2,425.9c0,0,.2-.1.3-.2,1.6,0,3.1,0,4.7,0,.3.3.7.6,1,.9,0,.2,0,.3,0,.5,0,0,0,0-.1.1-.8-.8-4-1.5-4.9-.9-.4.3-.6,1-.6,1.5-.1,1,0,1.9,0,2.9-.1,0-.3,0-.4,0,0-1.2,0-2.3,0-3.5,0-.4.1-.8.2-1.2Z"/>
  <path class="cls-1" d="M365.2,438.2c-1.4,0-2-.3-3.3-2.1-.8,1.4-.7,1.9.8,2.4.7.3,1.5.5,2.2.7-1.1-.3-2.3-.5-3.4-.9-.9-.4-.6-2.1.5-3,.4,1.8,1.7,2.4,3.2,2.9Z"/>
  <path class="cls-1" d="M365.6,430.3c-1.1.4-2-.3-2.4-1-.4-.7-.6-1.9-.4-2.7.3-.8,1.1-1.7,2.3-1.3-.1,0-.2.2-.3.3-1,.4-1.7,1.1-1.6,2.1,0,1,.6,1.7,1.6,2,.3.1.6.4.8.6Z"/>
  <path class="cls-1" d="M233.6,438.8c0,0,0,.1,0,.2,0,0,0,.1-.1.2-2.9,0-5.8,0-9,0,.5-.9.8-1.5,1.2-2.1,0,.5,0,.9-.1,1.7h8Z"/>
  <path class="cls-1" d="M311.3,425.4c-.2-.3-.3-.8-.5-.8-.9,0-1.7,0-2.7,0,.2.5.4.8.5,1.1-.5-.4-1.1-.7-1.6-1.1.6-.2,1.2-.4,1.8-.5.9,0,1.8,0,2.7,0,.4,0,.8.2,1.2.4,0,.2,0,.3,0,.5-.5.1-1,.3-1.5.4Z"/>
  <path class="cls-1" d="M366.7,439.3c.6-.2,1.3-.5,1.9-.7,1.8-.9,2.3-1.9,2-3.9,0-.3,0-.6.2-.8,1.1,1.4.2,4.3-1.7,5-.7.3-1.5.3-2.3.5Z"/>
  <path class="cls-1" d="M336,438.8c.7,0,1.5.2,2.2.1,1-.1,2.1-.3,3-.7,1.5-.7,1.6-.7,2.7.6-1.5-.7-2.8,0-4.1.4-1.3.4-2.6.6-3.7-.5Z"/>
  <path class="cls-1" d="M340.8,425.5c-2.4-1.8-3.7-1.6-6,.7,0-.2-.2-.4-.1-.6.9-1.9,4.6-2.4,6-.8.1.1,0,.5.1.7Z"/>
  <path class="cls-1" d="M345.5,438.4c-.3-.2-.6-.5-.9-.7.9.3,1.7.5,2.5.8.1,0,.2.6,0,.8-.5.7-2.7.5-3.2-.3.2,0,.4,0,.7,0,.7,0,1.3,0,2,.1,0-.2,0-.3,0-.5-.4,0-.8-.1-1.1-.2Z"/>
  <path class="cls-1" d="M312.2,429.9c0,.2-.1.3-.2.5-.2.1-.3.3-.5.4-.4,0-.8,0-1.1,0,0-1.2,0-2.5,0-3.7.3-.6.6-1.1.8-1.7-.2,1.7-.3,3.3-.5,5.1.7-.2,1.1-.4,1.5-.6Z"/>
  <path class="cls-1" d="M312.9,431.3c0,0,.1-.2.2-.3,1.1,1.6,2.2,3.1,3.3,4.7-1.2-1.5-2.3-3-3.5-4.4Z"/>
  <path class="cls-1" d="M317.6,439c.2,0,.5,0,.7,0,.5,0,1,0,1.5,0,0-.1,0-.2,0-.3-.3-.2-.6-.4-.9-.7.5,0,1.1-.1,1.4.1.3.2.4,1,.2,1.3-.4.6-2.5.2-3-.5Z"/>
  <path class="cls-1" d="M241.4,439.2c0,.1-.1.3-.2.4,0,.1-.2.3-.2.4-.1,0-.2.2-.4.3-.2-.2-.4-.4-.6-.6,0-.3,0-.6,0-.9,0-.4,0-.7,0-1.1,0,0,0-.1.1-.2.4,0,.8,0,1.2,0,0,0,0,0,0,0,0,.4,0,.9,0,1.3,0,.1,0,.3,0,.4Z"/>
  <path class="cls-1" d="M346.7,430.8c-.3-.2-.6-.4-.8-.5-1.2-.1-2.4-.2-3.6-.3,0-.1,0-.2,0-.3.5,0,.9,0,1.4,0,1,0,2,.2,2.9,0,.6,0,.8,0,.8.6l-.7.4Z"/>
  <path class="cls-1" d="M231.5,429.9c.5-.5.9-.4.9.2,0,.9,0,1.9,0,2.9,0,.6-.4.9-1,.3,0,0,0,0,.1-.1.1-.4.2-.7.4-1.1,0-.5,0-.9,0-1.4-.1-.2-.3-.5-.4-.7Z"/>
  <path class="cls-1" d="M369.6,426.2c.1,0,.3-.2.4-.2,0,.4-.1.8-.2,1.2-.3-.2-.7-.3-1-.5-.6-.4-1.1-.9-1.7-1.3,1.1-.4,1.5.7,2.2,1.2,0,0,.2,0,.3,0,0-.1,0-.2,0-.4Z"/>
  <path class="cls-1" d="M369.2,431.8c-.7-.2-1.4-.4-2-.6,0,0-.2-.1-.2-.2-.4-.2-.8-.5-1.1-.7,1.3,0,2.5.4,3.4,1.4Z"/>
  <path class="cls-1" d="M231.4,433.2c-1-1.5-2.5-.9-3.9-1,0,0,0,0-.1-.1,0-.1,0-.2.1-.4.9,0,1.9,0,2.8,0l.5.2c.2.2.4.4.6.6,0,.2,0,.4,0,.6,0,0,0,0-.1.1Z"/>
  <path class="cls-1" d="M347.4,430.4c0-.6-.2-.6-.8-.6-1,0-2,0-2.9,0,1.2-.1,2.4-.3,3.7-.4.1,0,.4.3.4.4,0,.2-.2.5-.4.7Z"/>
  <path class="cls-1" d="M312.9,433.9c.8,1.1,1.6,2.1,2.4,3.2-1.4-.6-1.9-1.9-2.4-3.2Z"/>
  <path class="cls-1" d="M344,433.2c0-.7-.1-1.3-.2-2,.8,0,1.7-.1,2.5-.2,0,.1,0,.2-.1.3-.7.2-1.4.3-2.1.5,0,.4,0,.8.1,1.1,0,.1-.1.2-.2.3Z"/>
  <path class="cls-1" d="M227,430.6c.1,0,.3,0,.4,0,1,0,2.1,0,3.1,0,0,0,0,.1,0,.2-.2.1-.5.3-.7.3-.8,0-1.7,0-2.5,0,0-.2-.2-.5-.3-.7Z"/>
  <path class="cls-1" d="M341.8,431c.2.3.4.5.6.8-.4,0-.7,0-1.1,0-.3,0-.6-.3-.9-.5.2-.3.4-.6.7-.8,0,1,0,1,.7.6Z"/>
  <path class="cls-1" d="M419.8,435.9c-.3.9-.8,1.6-1.9,1.6.6-.6,1.2-1.1,1.9-1.6Z"/>
  <path class="cls-1" d="M318.3,437.7c-.5-.6-1.1-1.1-1.6-1.7.5.6,1.1,1.1,1.6,1.7Z"/>
  <path class="cls-1" d="M319,438c.3.2.6.4.9.7,0,.1,0,.2,0,.3-.5,0-1,0-1.5,0,.7-.1.3-.6.2-.9.2,0,.3,0,.5,0Z"/>
  <path class="cls-1" d="M415.6,438c-.1,0-.3,0-.4,0,0,0,0-.2,0-.3.8,0,1.6,0,2.3,0-.1.1-.3.2-.4.3-.5,0-1,0-1.5,0Z"/>
  <path class="cls-1" d="M339.8,426.9c0,0,.1,0,.2,0,.1.6.4.7,1,.5-.2.2-.5.7-.6.6-.5-.1-1-.4-.6-1.1Z"/>
  <path class="cls-1" d="M344.1,431.8c.7-.2,1.4-.3,2.1-.5-.7.2-1.4.3-2.1.5Z"/>
  <path class="cls-1" d="M411.8,437.4c.2.2.3.3.5.5,0,.2.1.3.2.5-.8,0-1.2-.3-1.1-1.1.2,0,.3.1.5.2Z"/>
  <path class="cls-1" d="M240.3,440.8l-1,.4c0-.4.2-.7.2-1.1.2.2.5.5.7.7Z"/>
  <path class="cls-1" d="M334.8,426.6c0,.6,0,1.3,0,1.9-.6-.6-.6-1.3,0-1.9Z"/>
  <path class="cls-1" d="M233.7,426.6c0-.4,0-.7.1-1.1.7.5.6,1.1,0,1.7,0,0,0,0-.1-.1,0-.2,0-.3,0-.5Z"/>
  <path class="cls-1" d="M411.8,437.4c-.2,0-.3-.1-.5-.2,0-.1-.1-.2-.2-.3,0-.3,0-.7-.1-1,.3.5.5,1,.8,1.5Z"/>
  <path class="cls-1" d="M315.5,437.3c.4.4.8.8,1.2,1.2-.8,0-1.2-.4-1.2-1.2Z"/>
  <path class="cls-1" d="M415.2,437.6c0,0,0,.2,0,.3,0,0-.2.1-.2.2-.4-.2-.8-.5-1.2-.7.2,0,.3,0,.5,0,.3,0,.6.2.9.2Z"/>
  <path class="cls-1" d="M341.8,431c-.7.4-.7.3-.7-.6.2,0,.4,0,.5-.1,0,.3.1.5.2.8Z"/>
  <path class="cls-1" d="M344,433.2c0-.1.1-.2.2-.3.5.5.6,1-.1,1.4,0-.4,0-.7-.1-1.1Z"/>
  <path class="cls-1" d="M240.3,440.8c-.2-.2-.5-.5-.7-.7,0-.1.2-.2.3-.3.2.2.4.4.6.6,0,.2-.1.3-.2.5Z"/>
  <path class="cls-1" d="M419.8,425.4c-.1-.2-.3-.4-.5-.8.5,0,.8,0,1,0-.1.2-.3.5-.4.7,0,0,0,0,0,0Z"/>
  <path class="cls-1" d="M313.2,429c-.3.3-.6.6-1,.9.3-.3.6-.6,1-.9Z"/>
  <path class="cls-1" d="M241.4,438.8c0-.4,0-.9,0-1.3.1.4.3.8.4,1.2-.1,0-.2,0-.4,0Z"/>
  <path class="cls-1" d="M340.9,427.4c-.5.3-.8.1-1-.5.3,0,.6,0,.9,0,0,.2,0,.3,0,.5Z"/>
  <path class="cls-1" d="M241.3,437.5c-.4,0-.8,0-1.2,0,0,0,0-.2,0-.3.2,0,.3-.2.5-.3.2,0,.4,0,.5,0,0,.2.2.3.3.5Z"/>
  <path class="cls-1" d="M370.7,433.4c-.2-.3-.4-.5-.6-.8.2.3.4.5.6.8Z"/>
  <path class="cls-1" d="M412.5,438.4c0-.2-.1-.3-.2-.5.3.2.5.4.8.6-.2,0-.3,0-.5,0,0,0-.1,0-.2,0Z"/>
  <path class="cls-1" d="M343.6,436.9c-.6-.3-.6-.7,0-1,0,.3,0,.7,0,1Z"/>
  <path class="cls-1" d="M231.5,429.9c.1.2.3.5.4.7-.2,0-.4,0-.6,0,0-.2,0-.3,0-.5,0,0,.1-.2.2-.2Z"/>
  <path class="cls-1" d="M343.8,435.3c0-.3.2-.7.2-1,0,.3,0,.7,0,1-.1,0-.2,0-.3,0Z"/>
  <path class="cls-1" d="M314.8,429c.2-.3.5-.6.7-.9-.2.3-.5.6-.7.9Z"/>
  <path class="cls-1" d="M231.2,430.1c0,.2,0,.3,0,.5-.2.1-.5.2-.7.4,0,0,0-.1,0-.2.2-.2.5-.4.7-.6Z"/>
  <path class="cls-1" d="M342.3,429.7c0,.1,0,.2,0,.3-.1,0-.3,0-.4,0,.2-.1.3-.3.5-.4Z"/>
  <path class="cls-1" d="M233.9,427.2c-.3.6-.5.5-.8,0,0,0,0,0,.1-.1.2,0,.4,0,.6,0,0,0,0,0,.1.1Z"/>
  <path class="cls-1" d="M240,437.3c0,0,0,.2,0,.3,0,0,0,.1-.1.2-.1,0-.2,0-.4,0,.1-.2.3-.3.4-.5Z"/>
  <path class="cls-1" d="M239.6,437.8c.1,0,.2,0,.4,0,0,.4,0,.7,0,1.1,0,0-.1,0-.2,0,0-.2,0-.3-.1-.5,0-.2,0-.3,0-.5Z"/>
  <path class="cls-1" d="M341,426.7c0-.3,0-.5,0-.8,0,.3,0,.5,0,.8Z"/>
  <path class="cls-1" d="M241.4,438.8c.1,0,.2,0,.4,0-.1.2-.2.3-.4.5,0-.1,0-.3,0-.4Z"/>
  <path class="cls-1" d="M343.8,435.3c.1,0,.2,0,.3,0-.1.2-.2.3-.3.5,0-.1,0-.3,0-.4Z"/>
  <path class="cls-1" d="M315.3,426.7c-.2.2-.3.4-.5.7.2-.2.3-.4.5-.7Z"/>
  <path class="cls-1" d="M342.7,432.2c0,.2,0,.3.1.5-.1,0-.2-.1-.4-.2,0,0,.2-.2.3-.3Z"/>
  <path class="cls-1" d="M241.1,437.1c-.2,0-.4,0-.5,0,.2,0,.4,0,.5,0Z"/>
  <path class="cls-1" d="M239.6,438.3c0,.2,0,.3.1.5,0-.2,0-.3-.1-.5Z"/>
  <path class="cls-1" d="M414.2,437.4c-.2,0-.3,0-.5,0,0-.1,0-.2-.1-.3.2.1.4.2.6.3Z"/>
  <path class="cls-1" d="M412.6,438.5c.2,0,.3,0,.5,0,0,0,0,.1,0,.2-.2,0-.3-.1-.5-.2Z"/>
  <path class="cls-1" d="M240.9,440.1c0-.1.2-.3.2-.4,0,0,.1.2.2.3-.2,0-.3,0-.5.1Z"/>
  <path class="cls-2" d="M115.4,401.3c-.1-.1-.3-.2-.4-.4.7-1,1.8-.4,2.7-.6.3,0,.6-.3.8-.5-.3-.1-.5-.4-.8-.4-2.7-.2-2.7-.2-2.7-2.9,0-.1,0-.2,0-.3,0-1.8,0-1.9-1.9-1.9-.8,0-1.2-.3-1.2-1.2,0-1.6,0-3.2,0-4.8q0-1.8,1.7-1.8c6,0,12.1,0,18.1,0,.7,0,1.5-.1,2.2-.2.1.2.3.4.4.6-.6,0-1.2.3-1.8.3-6.2,0-12.4,0-18.6,0q-1.5,0-1.5,1.6c0,1.2,0,2.4,0,3.6,0,.9.3,1.2,1.1,1.2,1.8,0,2.1.3,2.1,2.2,0,.2,0,.5,0,.7,0,2.3,0,2.3,2.3,2.5.4,0,1,.5,1.1.9.2.7-.4,1.1-1.1,1.1-.9,0-1.8.2-2.6.3Z"/>
  <path class="cls-1" d="M405.7,391.4c.1-3.3.4-6.5,1.6-9.6,2.9-7.8,11.7-7.7,15.3-3.6,2,2.3,2.8,5.2,3.2,8.2.8,5.3.3,10.5-1.3,15.7-1.5,4.7-5.9,6.1-9.8,5.6-5-.6-7.1-4.4-8.1-8.6-.6-2.5-.7-5.1-1-7.7ZM416.3,406.9c2.9.3,5.5-.5,6.8-3.1,1.1-2,1.8-4.4,2.1-6.7.4-2.8.3-5.6.3-8.4,0-2.3-.4-4.5-1.2-6.6-1.3-3.1-3.2-5.6-6.8-5.8-1.5,0-3.1-.1-4.5.4-3.6,1.3-5.2,4.5-5.8,7.9-.5,3.3-.6,6.7-.5,10,0,2.4.4,4.8,1.4,7.1,1.7,3.5,4,5.8,8.2,5.3Z"/>
  <path class="cls-1" d="M113.9,400.8c0,.1,0,.4.1.4,1.2.6.8,1.6.6,2.5-.5,2-1.1,3.9-1.6,5.8-.6,2.2-1.2,4.4-1.8,6.6-.5,1.9-.8,3.7-1.3,5.6-.5,2.1-1,4.2-1.6,6.2-.4,1.4-.2,2,1.3,2,8,0,16.1,0,24.1,0,.9,0,1.5-.3,1.2-1.5-.8-3-1.6-5.9-2.3-8.9-.5-2.1-1-4.1-1.5-6.2-.5-2-1.1-3.9-1.6-5.9-.4-1.6-.9-3.2-1.2-4.9-.2-.7,0-1.2.8-1.6,2.3-1.3,4.1-3.2,5.2-5.6.3-.7.9-1.1,1.8-1.1,9.2,0,18.3,0,27.5,0,.9,0,1.2.3,1.2,1.2,0,3.3.2,6.5,0,9.8-.2,2.7-.9,5.4-1.6,8-.7,2.4-1.5,4.8-2.5,7-2.7,5.9-6.8,10.9-12.1,14.6-2.8,2-5.8,3.5-9.1,4.7-3.4,1.3-6.9,1.9-10.5,2.5-4.1.7-8.3.6-12.4.3-4.1-.3-8.2-1.2-12.2-2.8-5.2-2.1-9.8-4.9-13.8-8.9-3.7-3.7-6.5-8.1-8.5-12.9-1.1-2.7-2-5.6-2.5-8.5-.3-1.5-.5-3.1-.7-4.6-.2-2.4-.6-4.9-.4-7.3.3-3.1.5-6.2,1.6-9.2.9-2.4,1.5-4.9,2.6-7.2,2.5-5.5,6.2-10.1,10.9-13.9,3.7-2.9,7.8-5,12.2-6.5,3.3-1.1,6.7-1.9,10.3-2,2,0,4-.3,6-.4,3.4-.1,6.7.4,10,1.1,2,.4,4,.7,5.9,1.3,2,.7,3.8,1.6,5.7,2.5,3.6,1.9,6.9,4.2,9.8,7.2,3.8,3.9,6.7,8.4,8.6,13.5.3.7.5,1.5.8,2.4-.7,0-1,0-1.4,0-8.3,0-16.7,0-25,0-.8,0-1.4-.1-1.8-1-1.2-2.8-3.3-4.8-5.9-6.3-3.2-1.8-6.7-2.1-10.2-1.3-4.8,1.1-8.2,4-9.9,8.7-1.3,3.6-.8,7.1,1.3,10.3.9,1.4,2.3,2.5,3.5,3.7.2.2.6.2.8.3,0,0,0,0,0,0Z"/>
  <path class="cls-1" d="M430.1,425.1h1c.1,2.2.4,4.4.4,6.6,0,2.2-.3,4.4-.4,6.7h-.8c.7-5.4.6-11-.2-13.3Z"/>
  <path class="cls-1" d="M433.4,431.6c.5,0,.9,0,1.4,0,0,0,0,0,0,.1.5,2.9,2.8,4.5,4.4,6.9-.4-.2-1-.4-1.3-.8-1.2-1.4-2.3-2.9-3.4-4.4-.4-.6-.7-1.2-1.1-1.8Z"/>
  <path class="cls-1" d="M278.2,425.4c-.6,0-1.1,0-1.7,0-1.6-.2-2.8.6-3.6,1.8-2,2.8-2,6.8.5,9.6,1,1.1,2.4,1.7,3.9,1.7.4,0,.8,0,1.6,0-2.9.9-5.9-.2-7.3-2.7-1.6-2.8-1.3-7.2,1.5-9.7,2-1.8,5.7-2.2,8.4-.5,2.2,1.4,3.6,5.6,2.6,8.2-1,2.7-3,4.6-4.8,4.5.2-.2.3-.4.5-.5,2.5-.8,4.1-4.7,3.6-7.1-.4-2.3-1.4-4.3-3.7-5.2-.4-.2-.9-.1-1.4-.2Z"/>
  <path class="cls-1" d="M336.7,437.7c1.3,0,2.7-.2,4-.3-1.1,1.1-2.8,1.2-4,.3Z"/>
  <path class="cls-1" d="M345.5,438.4c.4,0,.8.1,1.1.2,0,.2,0,.3,0,.5-.7,0-1.3,0-2-.1.3-.2.6-.4.9-.6Z"/>
  <path class="cls-1" d="M341.1,436.2c-.6-.6-1.2-1.3-1.8-1.9.6.6,1.2,1.3,1.8,1.9Z"/>
  <path class="cls-1" d="M337.6,432.5c-.7-.6-1.3-.4-2,0,.4-.3.7-.8,1.1-.9.3,0,.6.6.9.9Z"/>
  <path class="cls-1" d="M335.3,432.9c-.2.4-.3.7-.5,1.1.2-.4.3-.7.5-1.1Z"/>
  <path class="cls-1" d="M341.1,437.1c0-.2,0-.5.1-.7.1.2.2.3.4.5-.2,0-.3.1-.5.2Z"/>
  <path class="cls-1" d="M334.7,434.6c0,.2,0,.5,0,.7,0-.2,0-.5,0-.7Z"/>
  <path class="cls-1" d="M335.8,437.2c.2.1.4.3.5.4-.2-.1-.4-.3-.5-.4Z"/>
  <path class="cls-1" d="M334.7,435.8c0,.2.2.4.3.6,0-.2-.2-.4-.3-.6Z"/>
  <path class="cls-1" d="M183.3,438.1c2.2-1.5,1.9-4.7-1-5.6-1.2-.4-2.4-.9-3.5-1.5-1.4-.7-2.2-1.9-2-3.2.2-1.5.9-2.3,2.5-2.9,1.8-.6,3.4-.2,5.1.3.3,0,.4.8.6,1.3-1.2-.6-2.1-1.1-3.1-1.4-1.6-.6-3.6.4-4.1,2-.3.9.2,2.4,1.2,2.8,1.4.6,2.8,1.1,4.2,1.6,1.7.6,2.6,2,2.6,3.7,0,1.7-1,2.7-2.5,3.3,0-.2,0-.4,0-.5Z"/>
  <path class="cls-1" d="M183.3,438.1c0,.2,0,.4,0,.5-1.9.6-3.8.5-5.6-.2-1.1-.4-1.1-.6-.7-2,1.6,2.5,3.9,2.5,6.3,1.6Z"/>
  <path class="cls-1" d="M460.4,425.1h1.5v13.4h-1c0-2.3.2-4.6.1-6.8,0-2.2.5-4.5-.6-6.6Z"/>
  <path class="cls-1" d="M478.3,432c-.9,2.2-.4,4.4.1,6.7h-1.5c0-1.8.2-3.7,0-5.4-.2-1.2-.9-2.4-1.5-3.5-.9-1.6-1.9-3-2.9-4.6h2c0,2,1.3,3.3,2.1,4.9.3.7.5,1.6,1.6,1.6,0,.1.2.3.3.4Z"/>
  <path class="cls-1" d="M478.3,432c0-.1-.2-.3-.3-.4.8-1.4,1.6-2.7,2.3-4.1.3-.7.4-1.6.6-2.5h1.9c-1.5,2.4-3,4.7-4.5,7.1Z"/>
  <path class="cls-1" d="M293.4,426c-.6,1-1.3,2-1.8,3-.3.6-.2,1.4-.2,2.1-.2,2.7.6,4.9,3,6.2,1.5.8,3.1,1.6,5,.7.2-.1.5-.1.8-.2,0,0,.1,0,.4.2-1.9,1-3.8.9-5.5.4-2.2-.6-3.7-2.1-4.3-4.3-.9-3.2-.5-6.1,2.3-8.3.2,0,.4,0,.5,0Z"/>
  <path class="cls-1" d="M293.4,426c-.2,0-.4,0-.5,0,2.6-1.8,5.3-1.7,8.2-.9.2,0,.3.6.3,1-2.7-1.5-5.3-1.4-7.9-.1Z"/>
  <path class="cls-1" d="M395.4,426.2c-1.7,1.7-1.9,3.9-1.8,6.1.2,4.6,3.4,5.7,6.7,6.3-2.2.7-5.8-.5-7.2-3.5-1.5-3.1-.6-7.5,2.1-9.2.1.1.2.2.3.3Z"/>
  <path class="cls-1" d="M395.4,426.2c-.1,0-.2-.2-.3-.3,1.1-.5,2.1-1.2,3.2-1.3,1.5-.1,3,.2,4.5.3.7,0,.9.5.6,1.2-2.7-1.6-5.3-1.7-7.9,0Z"/>
  <path class="cls-1" d="M401,438.2l1.1-.2c0,0,0,.2,0,.3-.4,0-.7.2-1.1.2,0-.1,0-.2,0-.3Z"/>
  <path class="cls-1" d="M196.7,426.2c.2-.4.3-.9.6-1.2.4-.4.8-.4,1.1.3.8,2.4,1.6,4.7,2.4,7.1.7,2.1,1.6,4.1,2.4,6.2h-1.5c-.4-1.6-.9-3.1-1.3-4.6-.3-1.1-.9-1.7-2.1-1.6-1.3.1-2.6.2-3.9.3,0,0,0,0,0,0,0-.5.2-1.1.3-1.6.1,0,.3.2.4.2.3.3.6.8.9.9.8.1,1.6,0,2.4,0,1,0,1.1-.6.6-1.4,0-.1,0-.2,0-.4-.1-.3-.3-.7-.4-1,0-.1,0-.2,0-.3-.2-.7-.2-1.4-.5-2-.1-.3-.6-.4-.9-.6,0,0-.2-.2-.3-.2Z"/>
  <path class="cls-1" d="M194.5,432.7c-.6,1.9-1.2,3.8-1.8,5.7.1,0,.2.1.3.2h-1.4c.7-1.9,1.5-3.7,2.2-5.6,0-.2.4-.3.6-.4,0,0,0,0,0,0Z"/>
  <path class="cls-1" d="M197,426.4c.3.2.8.3.9.6.3.6.4,1.4.5,2-.4-.7-.8-1.3-1.3-2.2-.6,1.4-1.2,2.5-1.7,3.6.1-.8.2-1.6.3-2.3,0,0,0,0,0,0,.2-.4.5-.8.7-1.2,0,0,0,0,0,0,.2-.2.3-.3.5-.5Z"/>
  <path class="cls-1" d="M195.9,428.2c-.1.8-.2,1.6-.3,2.3,0,.2,0,.4-.1.6,0,0-.2.2-.3.3-.1,0-.3-.2-.4-.2.4-1,.8-1.9,1.2-2.9Z"/>
  <path class="cls-1" d="M196.6,426.9c-.2.4-.5.8-.7,1.2.2-.4.5-.8.7-1.2Z"/>
  <path class="cls-1" d="M197,426.4c-.2.2-.3.3-.5.5,0-.2.1-.5.2-.7,0,0,.2.2.3.2Z"/>
  <path class="cls-1" d="M449.1,438.8h-1.9c.5-4.7.5-9.2,0-13.9h1.9c-.5,4.6-.6,9.2,0,13.9Z"/>
  <path class="cls-1" d="M225.7,426.4c-.4-.5-.9-1.1-1.3-1.7.1,0,.3-.2.4-.2,2.8,0,5.5,0,8.3,0,.2,0,.3.2.5.3-2.7,0-5.4,0-8.1,0,0,.7.1,1.1.2,1.5Z"/>
  <path class="cls-1" d="M227.5,438.1c.9,0,1.8,0,2.7,0,1.5,0,2.9,0,3.8-1.9.3,1.2.3,1.9-.4,2.6,0-.3,0-.6,0-.6-1.8.1-3.5.2-5.1.3-.3,0-.6-.3-.9-.4Z"/>
  <path class="cls-1" d="M230.5,431c.2-.1.5-.2.7-.4.2,0,.4,0,.6,0,0,.5,0,.9,0,1.4-.1.2-.3.3-.4.5-.2-.2-.4-.4-.6-.6-.2,0-.3-.1-.5-.2-.9,0-1.9,0-2.8,0,0,0-.2-.2-.2-.2,0,0,0-.1,0-.2.8,0,1.7,0,2.5,0,.3,0,.5-.2.7-.3Z"/>
  <path class="cls-1" d="M232.2,425.7c-1.6,0-3.1,0-4.7,0,0-.1.1-.3.2-.3,1.4,0,2.8,0,4.2,0,0,0,.2.2.2.3Z"/>
  <path class="cls-1" d="M227.2,425.9c0,.4-.1.8-.2,1.2,0-.4.1-.8.2-1.2Z"/>
  <path class="cls-1" d="M227.3,431.5c0,0,.2.2.2.2,0,.1,0,.2-.1.4-.1,0-.2,0-.4.1,0-.2.2-.5.2-.7Z"/>
  <path class="cls-1" d="M233.7,427.1c-.2,0-.4,0-.6,0,0-.2,0-.3,0-.5.2,0,.3,0,.5,0,0,.2,0,.3,0,.5Z"/>
  <path class="cls-1" d="M227,437.1c0,.2,0,.4.1.5,0-.2,0-.4-.1-.5Z"/>
  <path class="cls-1" d="M369.6,426.2c0,.1,0,.2,0,.4,0,0-.2,0-.3,0,0-.1.1-.2.2-.3Z"/>
  <path class="cls-1" d="M367,431.1c0,0,.2.1.2.2,0,0-.2-.1-.2-.2Z"/>
  <path class="cls-1" d="M257.7,425.1h.9c0,3.7,0,7.3,0,11,0,2.2.3,2.5,2.4,2.5,1.2,0,2.4,0,3.6-.1,0,0-.3.3-.5.3-2.2,0-4.4,0-6.5,0,.4-4.6.2-9,.1-13.7Z"/>
  <path class="cls-1" d="M417,438.3c-.2.2-.4.5-.6.4-.3,0-1,.5-.8-.4.5,0,.9,0,1.4,0Z"/>
  <path class="cls-1" d="M421.6,424.7h.8c0,0,0,.1,0,.2-.2.2-.5.4-.7.6,0-.3-.1-.5-.2-.8Z"/>
  <path class="cls-1" d="M417,438.3c-.5,0-.9,0-1.4,0,0-.1,0-.2,0-.3.5,0,1,0,1.5,0,0,.1,0,.2,0,.3Z"/>
  <path class="cls-1" d="M412.6,436c-.2-.5-.6-1-.6-1.5,0-2.6,0-5.3,0-7.9,0-.5.2-1,.3-1.5h-1.2c0,3.2.1,6.2.1,9.3,0,.4-.1.7-.2,1.1,0-.4-.2-.9-.2-1.3,0-2.5,0-5-.2-7.5,0-.6-.4-1.2-.6-2h3.5c-1.5,1.2-1.1,2.9-1.1,4.5,0,2.3.2,4.5.3,6.8Z"/>
  <path class="cls-1" d="M310.4,430.8c.4,0,.8,0,1.1,0,0,.4,0,.7,0,1.1-.3,0-.6.1-.9.2-.1-.4-.2-.8-.3-1.2Z"/>
  <path class="cls-1" d="M310.4,430.8c.1.4.2.8.3,1.2,0,0,0,.1-.1.2,0,.2-.1.3-.2.5,0,1.3,0,2.6,0,4,0,.6,0,1.3-.1,2h-1c.3-4.5.3-9,0-13.5h1.2c0,.7,0,1.3,0,2,0,1.2,0,2.5,0,3.7Z"/>
  <path class="cls-1" d="M310.4,432.7c0-.2.1-.3.2-.5,0,.2-.1.3-.2.5Z"/>
  <path class="cls-1" d="M231.4,432.5c.1-.2.3-.3.4-.5-.1.4-.2.7-.4,1.1,0-.2,0-.4,0-.6Z"/>
  <path class="cls-1" d="M230.3,431.8c.2,0,.3.1.5.2-.2,0-.3-.1-.5-.2Z"/>
  <path class="cls-1" d="M195.4,431.1c.3.2.6.6.9.6.6.1,1.2,0,1.7,0,.8.1.9-.4,1-.9.5.8.4,1.3-.6,1.4-.8,0-1.6,0-2.4,0-.3,0-.6-.6-.9-.9,0,0,.2-.2.3-.3Z"/>
  <path class="cls-1" d="M199,430.5c-.1-.3-.3-.7-.4-1,.1.3.3.7.4,1Z"/>
</svg>