<?xml version="1.0" encoding="UTF-8"?>
<svg id="Layer_1" data-name="Layer 1" xmlns="http://www.w3.org/2000/svg" viewBox="0 0 536.88 639.63">
  <defs>
    <style>
      .cls-1 {
        stroke-width: 0px;
      }
    </style>
  </defs>
  <path class="cls-1" d="m219.7,150.2c1.47.08,3.41.04,5.31.31,1.67.24,2.61-.57,3.39-1.77,2.01-3.1,4.84-4.78,8.37-5.89,4.51-1.42,9.05-.94,13.59-1.15,2.03-.1,2.37-.4,2.94-2.36.79-2.72,2.41-4.85,4.97-6.24,4.73-2.58,9.51-1.86,14.34-.35,1.89.59,3.8,1.1,5.69,1.68.57.17,1.13.4,1.65.69,1.44.8,2.63.35,2.73-1.25.4-6.26,4.17-10.07,9.33-12.75,3.5-1.81,7.32-2.14,11.24-1.82,5.05.4,9.55,2.28,13.88,4.72,11.29,6.36,20.79,15.04,30.42,23.55,3.54,3.13,6.96,6.38,10.46,9.56,1.33,1.21,3.08,2.11,4.01,3.56,1.59,2.5,2.59,8.56-.44,10.89-1.05.8-2.38,1.29-3.65,1.73-1.31.45-1.56.84-.79,1.94,2.51,3.6,5.17,7.1,7.5,10.81,2.18,3.46,4.41,6.95,4.38,11.34-.02,2.04-.5,3.81-1.94,5.26-.87.87-.84,1.47.02,2.48,4.27,5.01,8.47,10.09,11.47,16,2.78,5.48,3.54,11.38,2.47,17.33-.63,3.52-2.51,6.68-5.52,8.9-1.06.78-1.06,1.68-.98,2.88.25,4.05.65,8.14.32,12.16-.21,2.59-2.25,4.53-4.68,5.8-2.45,1.28-2.81,2.79-2.14,5.46,1.28,5.15,2.59,10.32,3.34,15.56.49,3.39.44,6.99-.14,10.37-.95,5.56-3.86,10.11-8.46,13.58-2.86,2.16-6.15,3.34-9.44,4.46-1.78.6-3.8.52-5.72.67-1.22.1-1.63.6-1.99,1.87-.71,2.56-1.67,5.11-2.94,7.44-1.77,3.23-4.05,6.16-7.13,8.29-2.84,1.97-5.87,3.47-9.26,4.45-4.1,1.19-8.26,1.67-12.46,2.03-.62.05-1.35.29-1.79.7-3.43,3.24-6.88,6.48-10.17,9.86-2.6,2.67-5.15,5.42-7.41,8.36-3.7,4.81-7.41,9.66-10.63,14.79-2.43,3.87-4.36,8.12-6.04,12.39-1.35,3.44-2.1,7.14-2.93,10.77-.78,3.42-1.57,6.86-1.93,10.34-.46,4.43-.65,8.91-.67,13.37-.02,5.34-.09,10.73.52,16.02.68,5.87,1.82,11.73,3.27,17.47,1.46,5.78,3.51,11.41,5.37,17.08,1.4,4.27,3.09,8.46,4.33,12.77.92,3.21,1.37,6.55,1.91,9.86.31,1.89.42,3.82.51,5.74.2,4.12-.43,8.14-2.06,11.93-1.72,4-4.63,7.03-8.47,9.06-2.31,1.22-4.71,2.36-7.2,3.13-2.86.88-5.83,1.61-8.79,1.86-4.89.42-9.8.29-14.58-1.16-5.08-1.53-9.64-3.85-11.96-8.93-.89-1.95-1.4-4.2-1.53-6.34-.2-3.34-.06-6.73.2-10.07.15-1.94.75-3.87,1.28-5.76,1.13-4.01,2.27-8.02,3.58-11.98.92-2.79,2.16-5.48,3.16-8.24.59-1.63,1-3.32,1.51-4.98.72-2.35,1.52-4.68,2.18-7.04.59-2.09,1.1-4.21,1.56-6.34.76-3.54,1.46-7.09,2.18-10.64.11-.54.24-1.08.3-1.62,1.03-9.42,1.82-18.87.95-28.34-.65-7.05-1.28-14.14-2.56-21.09-1.06-5.73-2.79-11.37-4.73-16.88-2.42-6.86-6.7-12.54-12.82-16.59-1.83-1.21-4.1-1.73-6.1-2.71-3.18-1.54-6.57-2.56-9.38-4.95-3.33-2.82-7.06-5.17-10.57-7.79-7.75-5.8-15.22-11.95-21.81-19.05-2.88-3.11-5.56-6.53-7.69-10.19-2.99-5.13-3.89-10.84-2.3-16.68.41-1.5-.23-2.4-1.04-3.21-3-2.99-5.28-6.49-6.79-10.36-1.32-3.39-2.09-7.14-1.07-10.69.93-3.23-.22-5.36-2.18-7.54-2.95-3.29-5.11-7.11-6.74-11.19-1.66-4.16-2.12-8.65-1.18-12.96.7-3.17,2.23-6.3,3.96-9.09,3.9-6.27,9.59-10.94,14.99-15.86.89-.81,1.75-1.68,2.42-2.67.34-.5.47-1.42.25-1.98-.86-2.23-1.98-4.35-2.84-6.58-1.76-4.55-2.56-9.33-1.48-14.1.79-3.46,3.22-6.08,6.32-7.91,3.33-1.98,6.94-3.2,10.73-3.9,2.05-.38,4.1-.78,6.15-1.18,1.23-.24,1.74-1.38.97-2.71-2.57-4.47-2.96-9.32-2.1-14.2.62-3.54,2.62-6.57,5.48-8.89,4.49-3.64,9.69-5.22,15.42-5.26,1.82,0,3.64,0,5.92,0Zm27.39-5.05c-.02-.14-.04-.27-.06-.41-3.36.53-6.76.88-10.07,1.65-2.13.5-3.95,1.81-5.28,3.7-3.24,4.59-2.61,9.46-.7,14.18,1.91,4.69,5.25,8.49,8.99,11.86,8.6,7.76,18.46,13.74,28.22,19.87,5.07,3.19,10.48,5.76,15.17,9.68,4.25,3.55,9.35,6.09,14.09,9.05,3.62,2.27,7.25,4.53,10.89,6.76,3.69,2.26,7.38,4.52,11.12,6.69,4.03,2.33,8.09,4.6,12.19,6.8,3.52,1.89,7.05,3.79,10.69,5.44,3.83,1.73,7.75,3.27,11.71,4.68,2.2.78,4.53,1.34,6.85,1.62,2.22.28,4.54.31,6.76,0,1.73-.24,3.57-.85,5.02-1.82,3.68-2.45,5.31-6.14,5.4-10.52.05-2.48-.22-4.85-1-7.29-1.05-3.29-2.5-6.35-4.46-9.09-2.93-4.09-6.21-7.93-9.3-11.91-.85-1.1-1.88-1.56-3.28-1.48-1.75.11-3.53.24-5.26.04-4.09-.46-8.18-1.03-12.24-1.69-2.59-.42-5.18-.98-7.71-1.68-3.31-.92-6.58-2.03-9.85-3.09-2.86-.93-5.83-1.62-8.52-2.91-5.31-2.54-10.52-5.32-15.66-8.18-5.73-3.18-10.58-7.58-15.52-11.82-2.62-2.25-5.06-4.8-7.96-6.62-5.8-3.63-11.71-7.08-16.94-11.52-3.33-2.83-6.22-6-7.3-10.47-.16-.64-1.27-1.33-2.04-1.48-1.28-.24-2.63-.07-3.95-.07Zm-1.96,173.6c3.49-.73,6.99-1.45,10.48-2.21,2.46-.53,4.89-1.26,7.37-1.65,2.84-.44,3.47-.99,3.58-3.85.25-6.82.55-13.63.71-20.45.02-.66-.64-1.65-1.25-1.95-2.98-1.47-6.06-2.76-9.1-4.13-2.04-.92-4.1-1.81-6.11-2.81-2.93-1.46-5.81-3.01-8.73-4.49-2.73-1.38-5.56-2.56-8.2-4.1-4.48-2.62-8.97-5.25-13.22-8.22-5.38-3.76-10.73-7.6-15.71-11.86-6.21-5.32-11.92-11.23-16.83-17.8-3.11-4.16-6.06-8.44-8.88-12.8-1.37-2.12-1.87-2.45-3.71-.81-5.26,4.67-10.7,9.16-14.73,15.03-2.45,3.57-4.11,7.45-4.33,11.87-.2,3.87,1.25,7.34,2.84,10.66,2.5,5.2,6.31,9.51,10.47,13.45,5.83,5.54,12.32,10.25,18.99,14.71,3.87,2.58,7.8,5.09,11.79,7.49,4.55,2.74,9.19,5.32,13.8,7.97,3.99,2.29,7.96,4.61,11.98,6.85,4.39,2.45,8.79,4.91,13.27,7.21,1.7.87,3.26,2.45,5.53,1.89Zm-71.48-120.42c.07.82,0,1.69.24,2.46,1.07,3.45,2,6.96,3.41,10.27,1.55,3.61,3.3,7.19,5.46,10.46,3.41,5.16,7.01,10.23,10.94,15,6.7,8.13,14.34,15.36,22.99,21.41,4.71,3.29,9.5,6.49,14.4,9.48,3.78,2.31,7.76,4.31,11.71,6.33,3.8,1.94,7.66,3.75,11.51,5.59,3.95,1.89,7.88,3.82,11.9,5.54.88.38,2.24.25,3.13-.17,1.46-.7,2.73-1.83,4.06-2.79,3.07-2.22,6.05-4.58,9.22-6.64,2.53-1.63,4.06-3.6,3.94-6.71-.05-1.2.1-2.42.23-3.62.44-4.43.91-8.85,1.37-13.27.03-.27.06-.55.15-.81.66-1.93.41-2.4-1.28-3.38-3.83-2.22-7.61-4.52-11.4-6.81-3.74-2.26-7.48-4.53-11.21-6.8-3.64-2.22-7.3-4.4-10.9-6.68-4.11-2.6-8.17-5.29-12.24-7.94-4.08-2.66-8.22-5.22-12.2-8.01-4.3-3.01-8.51-6.17-12.64-9.4-6.02-4.7-11.98-9.5-16.58-15.7-1.12-1.5-2.4-2.06-4.23-1.68-4.77.97-9.58,1.61-14.12,3.62-4.52,1.99-7.77,5.09-7.85,10.27Zm43.99-44.5c0-.07,0-.13,0-.2-1.21,0-2.43,0-3.64,0-4.46,0-8.59,1.1-12.26,3.67-2.89,2.02-4.95,4.79-5.66,8.19-.73,3.48-.38,7.13,1.38,10.27,1.98,3.52,4.14,7,6.71,10.1,4.69,5.65,10.39,10.29,16.3,14.61,6.51,4.75,13.06,9.47,19.75,13.97,6,4.03,12.21,7.77,18.35,11.59,6.56,4.07,13.14,8.11,19.74,12.12,3.6,2.19,7.27,4.27,10.9,6.43,2.06,1.23,2.19,1.21,3.7-.6,4.76-5.68,9.55-11.34,14.27-17.05.28-.34.33-1.2.09-1.56-.36-.56-1.03-.96-1.63-1.33-2.93-1.81-5.9-3.56-8.82-5.39-3.66-2.3-7.31-4.61-10.91-6.99-3.78-2.49-7.46-5.13-11.25-7.6-2.7-1.75-5.56-3.25-8.26-5.01-6.83-4.44-13.71-8.82-20.38-13.5-5.31-3.73-10.28-7.92-14.2-13.18-3.58-4.8-6.24-9.92-5.69-16.18.13-1.46-.52-2.34-2.06-2.36-2.15-.02-4.3,0-6.45,0Zm126.47,160.99c8.39-.05,6.59.23,12.7-2.43,7.25-3.14,11.08-8.87,11.38-16.81.14-3.74,0-7.45-1.05-11.13-1.2-4.21-2.04-8.52-3.04-12.78-.42-1.79-1.3-2.97-3.4-2.86-1.14.06-2.32-.1-3.45-.3-2.98-.51-5.96-1.01-8.91-1.68-2.5-.56-4.95-1.37-7.42-2.03-3.55-.95-7.11-1.85-10.65-2.81-2.38-.64-4.73-1.4-7.11-2.02-3.07-.8-6.17-1.49-9.25-2.25-.87-.22-1.78-.34-2.03.74-.45,1.96-1.03,3.95-1.03,5.93,0,2.79.23,5.63.81,8.35.77,3.64.27,6.91-1.42,10.18-1.22,2.37-2.08,4.93-3.1,7.4-1.13,2.73-2.19,5.49-3.39,8.19-.76,1.7-.23,2.98,1.65,3.78,3.42,1.45,6.81,2.99,10.23,4.47,2.36,1.02,4.71,2.09,7.13,2.94,2.99,1.06,6.08,1.85,9.09,2.87,4.14,1.4,8.34,2.32,12.28,2.24Zm11.78-113.32c.01-.11.02-.21.04-.32,1.49,0,2.98,0,4.46,0,.49,0,.99-.06,1.48-.12,3.21-.41,4.74-2.45,3.6-5.42-1.08-2.84-2.42-5.64-4.07-8.19-2.79-4.32-5.96-8.39-8.86-12.63-.72-1.06-1.54-1.3-2.71-1.46-6.09-.83-12.2-1.61-18.24-2.75-4.35-.82-8.63-2.08-12.9-3.28-4-1.12-8-2.25-11.9-3.68-3.94-1.44-7.84-3.06-11.58-4.95-7.06-3.57-11.83-8.93-12.28-17.28-.07-1.31-.69-2.11-2-2.49-3.16-.91-6.38-1.69-9.41-2.92-3.01-1.22-6.02-1.15-9.09-.9-2.37.19-5.53,3.21-5.98,5.52-.82,4.19.36,7.78,3.21,10.93,4.23,4.67,9.56,7.85,14.77,11.21,2.58,1.66,5.32,3.1,7.74,4.97,2.69,2.08,5.07,4.56,7.62,6.84,7.62,6.82,16.13,12.29,25.46,16.43,4.24,1.88,8.64,3.47,13.07,4.87,4.59,1.46,9.26,2.76,13.98,3.72,4.46.91,9.04,1.29,13.56,1.9Zm-69.76-64.39c0,1.08-.05,1.91,0,2.73.36,5.47,2.21,10.23,7,13.32,2.79,1.79,5.71,3.43,8.71,4.83,3.02,1.4,6.19,2.51,9.35,3.56,3.27,1.08,6.6,2.01,9.93,2.88,4.3,1.13,8.6,2.28,12.95,3.17,3.92.8,7.9,1.37,11.89,1.81,3.33.37,6.69.48,10.04.58.83.03,1.8-.25,2.48-.72.55-.38,1.13-1.28,1.08-1.89-.23-2.75-1.14-5.28-3.3-7.15-9.9-8.59-19.75-17.23-29.75-25.7-2.95-2.5-6.21-4.72-9.57-6.63-3.16-1.79-6.56-3.25-10.01-4.41-4.57-1.53-9.29-1.46-13.61.89-5.06,2.75-8.21,6.78-7.19,12.74Zm76.41,128.83c.03-.18.06-.36.09-.55,1.38,0,2.76.07,4.13-.01,2.5-.15,4.8-1.98,4.92-4.49.15-3-.18-6.02-.42-9.03-.12-1.56-1.08-2.07-2.67-1.81-5.33.88-10.51,0-15.61-1.51-1.42-.42-2.85-.83-4.2-1.42-3.39-1.48-6.77-3-10.1-4.6-2.9-1.39-5.75-2.9-8.59-4.4-2.6-1.38-5.19-2.79-7.76-4.24-2.43-1.37-4.81-2.82-7.24-4.17-.57-.31-1.42-.65-1.9-.44-.47.21-.84,1.09-.9,1.71-.59,6.24-1.12,12.49-1.65,18.73-.06.65-.07,1.32,0,1.98.13,1.53.97,2.27,2.52,2.56,3.07.56,6.12,1.25,9.15,2.01,3.34.84,6.63,1.86,9.97,2.72,5.46,1.42,10.92,2.85,16.42,4.13,4.59,1.06,9.23,1.9,13.84,2.84Zm-187.14,39.8c-.09.02-.19.04-.28.05.46,2.36.55,4.88,1.44,7.06,2.03,4.99,5.34,9.24,9.26,12.85,6.34,5.83,12.78,11.59,19.51,16.96,5.41,4.32,10.8,8.83,17.72,10.81,1.34.38,1.92.12,2.13-1.08.33-1.88.65-3.78.77-5.69.26-4.12.43-8.24.55-12.37.04-1.51-.2-3.04-1.84-3.76-2.1-.92-4.25-1.71-6.33-2.65-3.88-1.75-7.79-3.43-11.56-5.4-3.48-1.81-6.83-3.88-10.15-5.98-3.42-2.16-6.77-4.44-10.06-6.79-2.94-2.1-5.73-4.41-8.63-6.56-.53-.39-1.29-.47-1.95-.69-.19.64-.43,1.26-.56,1.91-.09.42-.02.88-.02,1.32Zm51.21,21.77c.03-.07.05-.14.08-.2.33-.02.71.06.98-.08,2.28-1.17,4.55-2.37,6.82-3.57.9-.48,1.79-.97,2.7-1.44.51-.26,1.05-.49,1.57-.73-.32-.53-.6-1.11-.98-1.59-.23-.28-.62-.43-.96-.61-2.65-1.41-5.33-2.77-7.96-4.23-4.06-2.25-8.08-4.57-12.12-6.86-4.66-2.64-9.4-5.15-13.99-7.92-5.75-3.48-11.53-6.96-17.03-10.81-5.64-3.95-10.96-8.36-16.44-12.55-.42-.32-1.13-.75-1.47-.59-.39.18-.71.93-.74,1.45-.34,5.57,1.31,10.47,4.95,14.73,6.46,7.57,14.49,13.2,22.72,18.6,2.93,1.92,5.88,3.84,8.92,5.58,3.42,1.96,6.93,3.75,10.45,5.54,2.24,1.14,4.52,2.2,6.84,3.18,1.85.79,3.78,1.41,5.67,2.11Zm85.03,11.35c5.73-.23,11.32-.5,16.63-2.97,2.82-1.31,5.45-2.77,7.65-5,2.88-2.92,4.44-6.61,6.2-10.19.83-1.69.15-2.48-1.71-2.75-2.87-.41-5.79-.74-8.55-1.57-4.23-1.27-8.38-2.83-12.49-4.46-4.86-1.94-9.65-4.08-14.46-6.15-1.36-.59-2.65-.28-2.65.81,0,2.8-.12,5.65.34,8.39.45,2.7,0,5.21-.91,7.59-1.64,4.29-3.6,8.46-5.41,12.69-.41.95-.15,1.62.97,1.77,4.79.61,9.59,1.22,14.38,1.84Zm-14.02,2.06c-1.19-.2-1.7.77-1.24,2.01.37,1.01.57,2.08.92,3.1.29.88.57,1.79,1.08,2.54.21.32,1.2.53,1.47.32,2.1-1.58,4.16-3.23,6.12-4.97,1.06-.94.75-2.17-.5-2.31-2.61-.29-5.24-.47-7.86-.69Z"/>
  <path class="cls-1" d="m111.29,36.86c5.46,0,10.91.02,16.37,0,2.38-.01,3.41-1.04,3.33-3.45-.29-8.42-.65-16.85-.98-25.27-.06-1.54-.1-3.09-.1-4.63,0-2.42,1.13-3.57,3.57-3.45,2.14.11,4.28.6,6.41.59,4.51-.03,9.01-.28,13.52-.44.22,0,.44-.06.66-.08,4.15-.34,5.06-.03,4.93,4.38-.26,8.82.05,17.67-.61,26.45-.92,12.24-.79,24.45-.29,36.68.41,9.85.68,19.71.99,29.57.02.71.09,1.49-.15,2.12-.18.48-.81,1.12-1.24,1.12-8.42.1-16.85.17-25.27.1-2.73-.02-2.85-.27-2.77-3.08.27-9.64.62-19.28.86-28.92.04-1.74-.2-3.5-.5-5.22-.3-1.71-1.5-2.41-3.24-2.4-7.72.01-15.44-.03-23.15-.04-2.48,0-4.97.14-7.44.01-2.38-.12-4.24,1.81-4.14,4.18.41,9.69.67,19.39.9,29.09.04,1.71-.23,3.46-.62,5.13-.12.5-1.07,1.11-1.68,1.16-8.42.62-16.84.63-25.26.03-1.51-.11-2.28-1.05-2.21-2.9.18-5.34.55-10.68.65-16.02.27-13.55.67-27.11.58-40.67-.09-12.45-.71-24.9-1.2-37.35-.11-2.73,1.16-3.69,3.77-3.55,5.82.3,11.65.48,17.48.56,2.08.03,4.16-.43,6.25-.54,1.88-.1,2.65.71,2.54,2.57-.49,8.64-1.05,17.27-1.5,25.9-.11,2.13.08,4.27.19,6.41.07,1.44.94,1.95,2.32,1.95,5.68-.03,11.35-.01,17.03-.01,0,0,0,0,0,0Z"/>
  <path class="cls-1" d="m525.09,637.49c-3.63-.2-7.25-.42-10.88-.58-1.4-.06-1.9-.86-2.04-2.1-.14-1.31-.22-2.64-.5-3.93-.23-1.08-.68-1.65-1.92-.65-2.19,1.76-4.38,3.72-6.9,4.84-4.64,2.05-9.62,3.23-14.76,2.49-3.51-.51-7.14-1.01-10.37-2.35-3.45-1.44-6.87-3.36-9.35-6.39-2.03-2.48-4.24-4.88-5.79-7.65-1.41-2.51-2.03-5.47-3.02-8.22-2.19-6.05-1.3-12.3-1.04-18.46.11-2.74,1.37-5.43,2.13-8.14,1.03-3.69,3.07-6.87,5.42-9.77,2.34-2.89,5.04-5.56,8.51-7.14,2.8-1.27,5.69-2.36,8.53-3.53.15-.06.32-.13.47-.13,4.29-.02,8.67-.55,12.86.12,4.04.65,7.81,2.63,10.7,5.86.46.52,1.36.64,2.06.94.28-.76.83-1.53.81-2.28-.24-9.03-.56-18.07-.85-27.1-.05-1.6-.06-3.2-.03-4.79.04-1.7.88-2.4,2.56-2.52,4.22-.31,8.44-.65,12.65-1.09,3.44-.36,6.86-.91,10.29-1.33,2.03-.25,2.39.03,2.22,2.1-.24,2.8-.81,5.57-.96,8.36-.31,5.78-.32,11.57-.67,17.35-1.09,18.07-.89,36.14-.27,54.21.18,5.12.47,10.24.78,15.35.08,1.31.32,2.63.66,3.9.36,1.32-.12,1.9-1.38,1.96-3.3.18-6.6.33-9.9.49,0,.06,0,.12,0,.18Zm-14.64-37.06c-.31-1.06-.77-2.78-1.3-4.48-1.33-4.2-4.33-7.13-8.26-8.45-3.3-1.11-6.94-1.13-10.34.83-3.82,2.21-5.92,5.6-6.66,9.64-.76,4.15-.22,8.29,2.31,12,3.76,5.53,9.62,7,15.32,4.72,5.71-2.29,8.42-7.33,8.94-14.26Z"/>
  <path class="cls-1" d="m300.38,603.21c-.21-10.19-.41-20.39-.64-30.58-.26-11.29-.57-22.58-.84-33.87-.07-2.83-.03-2.82,2.78-2.83,3.47-.02,6.95.1,10.41-.14,4-.28,7.97-.92,11.96-1.34,2.34-.24,2.86.19,2.73,2.45-.16,2.74-.51,5.47-.76,8.2-.14,1.48-.32,2.96-.35,4.45-.19,8.04-.34,16.09-.49,24.13,0,.49-.02,1,.06,1.48.24,1.33,1.03,1.59,2.04.69,1.5-1.34,2.88-2.87,4.53-4,2.39-1.64,4.9-3.05,7.72-4.02,4.99-1.71,10.01-2.6,15.22-1.85,6.87.99,13.42,2.89,18.11,8.47,1.58,1.88,2.77,4.02,3.61,6.48,1.46,4.27,1.3,8.53,1.09,12.85-.28,5.74-2.68,10.59-6.86,14.4-2.55,2.32-5.54,4.18-8.42,6.13-1.32.9-1.18,2.07-.59,3.01,1.65,2.62,3.49,5.14,5.31,7.65,2.24,3.09,4.54,6.14,6.8,9.22.48.65.44,1.28-.4,1.58-.92.33-1.87.78-2.82.8-6.5.1-13,.04-19.5.14-2.36.04-3.79-1.25-4.95-2.97-2.55-3.79-4.97-7.68-7.56-11.43-.49-.7-1.53-1.36-2.37-1.42-3.18-.23-6.38-.23-9.58-.26-1.25-.01-1.66.69-1.61,1.94.16,3.85.22,7.71.27,11.56.02,1.7-.89,2.81-2.56,2.81-6.94,0-13.87-.1-20.81-.18-1.41-.02-1.68-.96-1.68-2.13,0-4.46-.02-8.93-.02-13.39,0-6.01,0-12.02,0-18.02.06,0,.11,0,.17,0Zm34.1,1.91s0,.03,0,.05c1.38,0,2.76.04,4.13,0,3.04-.09,5.76-1.26,8.13-3.02,4.21-3.12,4.46-13.05-1.67-15.24-2.93-1.04-5.75-1.25-8.48-.52-2.45.65-4.75,2.1-6.91,3.53-2.48,1.64-4.41,3.85-4.43,7.1,0,1.43.16,2.86.27,4.28.18,2.49,1.3,3.66,3.83,3.81,1.7.1,3.41.02,5.12.02Z"/>
  <path class="cls-1" d="m49.79,639.63c-4.56-.62-9.12-.99-13.55-1.94-2.88-.62-5.58-2.05-8.34-3.17-7.21-2.93-12.56-8.2-17.26-14.15-2.41-3.05-4.59-6.32-5.8-10.11-.99-3.11-2.13-6.17-3.19-9.26-.09-.26-.19-.53-.22-.8-.7-5.95-1.98-11.89-1.17-17.91.61-4.56,1.23-9.18,2.55-13.56,1.47-4.86,3.86-9.37,6.71-13.67,3.26-4.92,7.42-8.9,11.91-12.54,2.19-1.78,4.89-3,7.5-4.17,2.91-1.3,5.95-2.37,9-3.3,1.49-.45,3.18-.22,4.74-.5,5.79-1.03,11.58-.18,17.29.43,3.48.37,6.87,1.95,10.18,3.27,2.55,1.02,5.01,2.36,7.36,3.8,3.04,1.86,5.9,4.07,7.91,7.04.6.89.71,2.57.29,3.58-1.1,2.65-2.57,5.16-3.98,7.68-1.41,2.51-2.91,4.97-4.38,7.45-.19.33-.39.65-.64.94-2.58,2.97-2.53,2.9-5.66.49-2.85-2.19-5.62-4.66-8.82-6.17-4.87-2.3-10.11-3.78-15.64-2.6-6.83,1.45-11.78,5.44-15.15,11.49-3.35,6.03-4.3,12.55-3.28,19.23,1.01,6.62,3.73,12.59,9.11,16.92,1.83,1.47,3.87,2.6,6.18,3.5,4.14,1.6,8.26.89,12.37.82,1.66-.03,3.33-.93,4.96-1.53,4.45-1.63,7.98-4.66,11.56-7.62.98-.81,1.89-1.03,2.76.25,1.93,2.83,3.98,5.59,5.9,8.42,1.59,2.34,3.06,4.76,4.6,7.13.85,1.31.51,3.28-1.05,5.07-3.41,3.89-7.29,7.29-11.84,9.72-3.73,1.99-7.64,3.73-11.96,4.23-3.64.42-7.26,1.01-10.96,1.54Z"/>
  <path class="cls-1" d="m452.15,46.82c0-3.97.04-7.93-.02-11.9-.02-1.33.35-1.79,1.77-1.8,6.5-.06,13-.26,19.51-.38.82-.01,1.64.12,2.45.26,1.05.18,1.54.83,1.72,1.91,1.76,10.7,1.69,21.4-.15,32.06-.33,1.88-1.7,3.61-2.73,5.33-2.24,3.73-4.54,7.43-6.88,11.09-1.93,3.03-3.93,6.02-5.96,8.98-2.5,3.64-4.98,7.29-7.61,10.84-3.47,4.7-7.04,9.32-10.62,13.93-1.61,2.07-3.32,4.06-5.1,5.98-.45.49-1.32.79-2.02.82-6.28.28-12.56.53-18.84.67-1.52.03-3.07-.27-4.56-.61-.54-.12-1.21-.69-1.4-1.21-.62-1.74-.98-3.56-1.58-5.31-.44-1.28-1.14-2.46-1.64-3.72-.78-1.96-1.53-3.94-2.21-5.94-.42-1.24.11-1.75,1.45-1.87,3.78-.33,7.61-.53,11.29-1.35,2.54-.56,5.04-1.79,6.84-3.92,1.24-1.47,1.35-4.41.12-6.18-2.99-4.3-6.1-8.51-9.05-12.83-3.45-5.04-7.05-10-10.03-15.31-1.21-2.16-1.23-5.14-1.27-7.75-.1-6.28.1-12.56.19-18.84.02-1.21.09-2.42.09-3.64,0-2.74.6-3.42,3.39-3.39,2.87.03,5.73.19,8.59.25,3.69.08,7.39.12,11.08.15,2.59.03,2.83.19,2.78,2.85-.09,5.46-.32,10.91-.37,16.36-.02,2.64.09,5.3.45,7.92.21,1.53.81,3.09,1.6,4.42,1.84,3.15,3.84,6.21,5.91,9.21.56.81,1.52,1.4,2.42,1.89,1.28.7,2.1-.54,2.56-1.24,1.96-3,3.58-6.22,5.53-9.23,2.52-3.89,2.41-8.21,2.43-12.54,0-1.98,0-3.97,0-5.95-.05,0-.1,0-.15,0Z"/>
  <path class="cls-1" d="m206.69,637.62c-1.6,0-3.21.12-4.79-.06-.66-.07-1.6-.62-1.81-1.19-.55-1.46-.75-3.05-1.13-4.58-.19-.76-.47-1.49-.71-2.23-.67.31-1.42.53-2,.96-1.76,1.3-3.46,2.68-5.19,4.03-3.76,2.95-8.14,3.75-12.77,3.6-1.76-.05-3.6.12-5.26-.32-2.66-.71-5.29-1.66-7.78-2.84-3.39-1.61-6.22-4.08-8.6-6.97-2.42-2.94-4.45-6.11-6.05-9.64-2.06-4.56-2.47-9.38-3.18-14.18-.13-.91-.05-1.86.05-2.79.24-2.3.48-4.6.85-6.88.37-2.32.53-4.76,1.43-6.88,1.37-3.22,2.95-6.46,5.07-9.21,2.09-2.71,4.77-5.07,7.54-7.12,2.12-1.57,4.42-3.06,7.26-3.46,2.97-.42,5.87-1.25,8.82-1.84,3.16-.63,6.2.04,9.31.64,3.23.62,5.93,2.11,8.53,3.91.84.58,1.43,1.52,2.25,2.13.58.43,1.39.83,2.05.77.33-.03.6-1.11.83-1.74.5-1.37.77-2.89,1.54-4.09.33-.51,1.7-.65,2.52-.51,4.27.7,8.52,1.52,12.76,2.36,1.6.32,3.19.75,4.75,1.22,1.11.33,1.66,1.03,1.53,2.34-.86,9.03-1.8,18.06-2.37,27.11-.24,3.77.39,7.58.54,11.38.28,7.16.51,14.32.73,21.48.02.65-.24,1.29-.28,1.95-.08,1.37-.9,1.71-2.1,1.77-4.78.25-9.57.54-14.35.81v.08Zm-35.33-36.45c.7,7.68,4.98,14.46,14.05,14.69,7.45.19,13.78-4.83,13.99-14.05.2-8.57-5.6-14.03-12.82-14.46-9.34-.56-14.45,5.61-15.22,13.82Z"/>
  <path class="cls-1" d="m321.9,72.84c0,8.38,0,16.76,0,25.13,0,2.25-.11,2.58-2.4,2.6-6.99.07-13.98-.02-20.98-.09-1.34-.01-1.98-.83-1.98-2.15,0-2.59.02-5.18.02-7.77,0-9.59,0-19.18,0-28.77,0-2.77-.49-5.37-2.39-7.5-2.11-2.37-4.8-2.83-7.85-2.39-3.76.54-6.24,2.93-8.53,5.59-.47.54-.53,1.54-.54,2.34-.06,2.92-.03,5.84-.03,8.76,0,9.31.01,18.63,0,27.94,0,2.76-.83,4.27-3.9,4.21-6.17-.12-12.34-.11-18.5-.23-2.68-.05-2.85-.28-2.85-3.04-.02-6.17.02-12.35.02-18.52,0-7.28.14-14.56-.08-21.82-.15-4.67-.77-9.32-1.33-13.97-.27-2.22-.88-4.4-1.35-6.59-.38-1.76-.04-2.33,1.75-2.56,2.61-.34,5.25-.52,7.84-.96,3.45-.59,6.87-1.4,10.31-2.05,1.62-.3,3.26-.51,4.9-.59.36-.02,1,.65,1.1,1.09.43,1.98.68,4,1.06,6,.11.59.29,1.46.68,1.64.46.21,1.28-.06,1.81-.36,3.88-2.19,7.6-4.72,11.63-6.6,4.43-2.06,9.23-2.72,14.12-1.75,2.18.43,4.44.74,6.47,1.58,4.25,1.75,7.8,4.59,9.49,8.93.97,2.5,1.29,5.37,1.34,8.08.17,7.93.06,15.87.06,23.81h.09Z"/>
  <path class="cls-1" d="m205.37,29.49c2.31,0,4.64-.17,6.93.05,1.82.18,3.7.62,5.37,1.35,3.22,1.4,6.51,2.8,9.43,4.71,3.66,2.4,6.74,5.63,9,9.39,1.43,2.38,2.19,5.18,3.25,7.79,1.53,3.77,2.31,7.72,2.14,11.75-.17,3.94-.42,7.96-1.38,11.76-1.82,7.23-5.6,13.37-11.55,18.12-3.43,2.74-7.27,4.55-11.34,5.94-5.19,1.78-10.59,1.42-15.97,1.35-4.03-.05-7.84-1.16-11.41-2.71-6.32-2.74-11.5-7.14-15.15-13.01-2.03-3.26-3.37-6.88-4.31-10.7-.98-3.99-1.34-7.97-.94-11.96.36-3.52,1.38-6.96,2.04-10.45.59-3.12,2.13-5.82,3.75-8.45,2.38-3.87,5.58-7.13,9.3-9.58,3.02-1.99,6.43-3.42,10.08-4.42,3.61-.99,7.17-.8,10.75-.94Zm-.09,50.66c3.45.12,6.15-1.4,8.56-3.59,2.82-2.57,4.02-6.01,4.43-9.61.55-4.81-1.25-9-4.52-12.52-3.93-4.22-10.52-4.59-15.13-1.4-3.9,2.7-5.41,6.73-6.11,11.11-.52,3.24.64,6.24,2.09,9.11,2.22,4.41,5.95,6.44,10.68,6.9Z"/>
  <path class="cls-1" d="m384.41,602.11c0-1.93-.23-3.89.06-5.78.4-2.63,1.06-5.24,1.87-7.78.8-2.52,1.64-5.1,2.96-7.36,1.45-2.47,3.31-4.76,5.3-6.83,2.06-2.14,4.28-4.15,7.05-5.53,2.84-1.41,5.72-2.47,8.75-3.39,4.68-1.42,9.38-1.13,14.08-.9,2.07.1,4.18.81,6.14,1.56,2.28.87,4.61,1.83,6.58,3.22,2.49,1.76,4.82,3.82,6.88,6.07,1.81,1.98,3.4,4.26,4.64,6.64,1.26,2.43,2.27,5.07,2.85,7.74.7,3.2,1.02,6.51,1.14,9.78.08,2.08-.85,4.04-2.46,5.51-.31.28-.71.57-1.11.63-2.94.46-5.87.97-8.82,1.28-6.46.66-12.93,1.23-19.4,1.8-3.45.3-6.92.49-10.37.82-.68.07-1.76.41-1.89.85-.19.68.04,1.77.51,2.3,1.39,1.57,2.86,3.13,4.55,4.35,1.15.83,2.67,1.33,4.09,1.54,3.98.6,8.09.94,11.97-.1,3.09-.83,5.94-2.6,8.85-4.03.96-.47,1.75-1.3,2.72-1.74.36-.17,1.27.14,1.5.51,1.77,2.87,3.47,5.78,5.12,8.72.61,1.09.98,2.31,1.56,3.42,1.28,2.46,1.16,3.33-1.02,5.01-2.66,2.07-5.35,4.03-8.58,5.26-7.16,2.71-14.46,3.86-22.07,2.79-.87-.12-1.75-.25-2.62-.34-4.2-.44-8.11-1.66-11.95-3.52-5.55-2.68-9.91-6.59-13.27-11.59-1.51-2.24-2.39-4.91-3.49-7.42-1.89-4.3-2.55-8.83-2.13-13.5Zm27.84-5.57s0,.07.01.11c3.87-.45,7.73-1.08,11.62-1.31,4.36-.27,4.54-3.01,3.14-6.14-1.19-2.65-3.16-4.82-6.13-6.11-3.21-1.39-7.26-.84-9.68,1.33-2.84,2.56-4.43,5.75-4.27,9.7.08,1.86.48,2.36,2.33,2.42.99.03,1.98,0,2.97,0Z"/>
  <path class="cls-1" d="m366.93,28.22c1.05,0,2.09.03,3.14,0,3.04-.09,5.73,1.15,8.51,2.1,4.61,1.57,8.48,4.26,11.73,7.79,2.31,2.51,4.53,5.17,5.82,8.42,1.14,2.88,2.74,5.71,3.18,8.7.6,4.04,1.42,8.32-.76,12.26-.64,1.15-1.56,2.06-3.02,2.21-3.99.41-7.98.88-11.97,1.3-6.89.74-13.78,1.49-20.68,2.18-1.97.2-3.96.13-5.94.26-1.47.09-1.98,1.13-1.21,2.4,1.67,2.74,3.96,4.54,7.04,5.74,4.8,1.88,9.67,1.63,14.41.71,3.03-.59,5.81-2.55,8.66-3.97.86-.43,1.55-1.2,2.42-1.62.4-.19,1.3-.09,1.52.21,1.31,1.8,2.59,3.63,3.7,5.56,1.25,2.2,2.29,4.52,3.46,6.77.75,1.44.55,3.15-.66,4.32-2.61,2.53-5.6,4.41-8.95,5.89-5.5,2.42-11.32,3.13-17.15,3.25-4.45.09-8.92-.7-13.33-1.85-4.03-1.05-7.64-2.76-10.95-5.13-4.2-3.01-7.71-6.62-10.11-11.34-4.34-8.51-5.55-17.34-3.59-26.65.48-2.3.92-4.6,1.52-6.87.29-1.09.85-2.12,1.35-3.15,2.79-5.77,6.74-10.62,12.09-14.13,3.13-2.05,6.54-3.69,10.37-4.23,3.13-.45,6.24-1.04,9.36-1.56.02.15.05.3.07.45Zm2.58,30.65c.02.07.03.13.05.2.39,0,.77-.01,1.16,0,1.7.07,3.6-.26,4.01-1.91.35-1.43-.08-3.34-.8-4.7-1.36-2.56-3.29-4.65-6.21-5.76-2.08-.79-4.17-.97-6.12-.33-4.39,1.44-7.91,6.78-7.62,11.4.12,1.84.67,2.54,2.51,2.53,2.42-.01,4.86-.03,7.26-.28,1.94-.2,3.84-.76,5.76-1.16Z"/>
  <path class="cls-1" d="m290.02,630.88c-.18,2.94-1.05,3.71-3.82,4.72-4.97,1.8-10.11,2.64-15.3,2.69-3.83.04-7.7-.09-11.54-1.23-3.13-.93-5.97-2.21-8.73-3.83-3.88-2.28-7.16-5.24-9.66-8.97-1.74-2.6-3.74-5.24-4.63-8.16-1.86-6.12-3.55-12.39-2.19-18.94.65-3.16,1.24-6.33,1.97-9.47.24-1.03.84-1.99,1.33-2.95,2.77-5.44,6.55-10.1,11.51-13.61,2.8-1.98,5.86-3.58,9.3-4.56,4.76-1.36,9.54-2.32,14.44-1.89,3.23.28,6.44,1.12,9.57,2.01,2.21.63,4.3,1.71,6.42,2.65,1.24.55,1.78,1.41,1.37,2.9-.66,2.42-1.02,4.92-1.67,7.34-.74,2.79-1.61,5.54-2.51,8.29-.55,1.68-2.01,1.99-3.84,1.3-3.82-1.45-7.81-2.6-11.87-1.71-3.77.83-7.12,2.65-9.03,6.39-1.42,2.78-2.37,5.66-2.08,8.79.42,4.61,2.4,8.57,6.42,10.88,3.34,1.93,7.04,3.02,11.15,1.94,2.65-.69,5.3-1.21,7.72-2.55.77-.43,1.39-.13,1.6.79.89,3.88,1.76,7.76,2.66,11.63.43,1.86.92,3.71,1.38,5.56Z"/>
  <path class="cls-1" d="m95.18,611.16c0-6.06.11-12.13-.04-18.19-.08-3.17-.53-6.35-.96-9.5-.52-3.79-1.2-7.56-1.82-11.34-.19-1.14.26-1.8,1.38-2.04.86-.18,1.71-.43,2.58-.55,3.81-.52,7.63-.96,11.43-1.53,2.54-.38,5.07-.88,7.59-1.42.96-.2,1.53,0,1.73.94.36,1.76.74,3.53.97,5.32.22,1.73.6,2.15,2.2,1.45,1.93-.85,3.76-1.93,5.61-2.97,4.6-2.59,9.5-3.8,14.79-3.25,1.43.15,1.91,1.15,1.68,2.35-1.34,7-.68,14.07-.76,21.11-.03,2.66-.54,3.2-3.21,3.2-3.64,0-7.28-.12-10.91-.01-3.84.11-7.04,2.8-6.95,7.08.23,10.85.3,21.71.46,32.56.02,1.68-.46,2.39-2.08,2.39-7.04,0-14.09-.02-21.13-.1-1.93-.02-2.52-.7-2.52-2.68-.02-7.61,0-15.21,0-22.82Z"/>
  <path class="cls-1" d="m243.17,259.17c-3.49-.87-7.01-1.65-10.47-2.63-2.89-.82-5.7-1.9-8.57-2.8-4.29-1.34-8.23-3.32-11.61-6.3-2.67-2.34-3.83-5.33-3.97-8.9-.15-3.7.58-7.2,1.7-10.66,1.72-5.3,6.83-9.16,12.49-9.44,2.14-.11,4.3-.44,6.4-.22,2.09.22,4.16.91,6.18,1.59,3.92,1.31,7.58,3.15,10.82,5.75,4.52,3.61,7.37,8.18,7.99,14.03.22,2.11.93,4.24.78,6.31-.29,4.05-1.15,7.99-4.55,10.84-2.1,1.77-4.48,2.18-7.09,1.95-.03.16-.07.33-.1.49Zm-17.38-36.47s0,.01,0,.02c-.88,0-1.76-.03-2.64,0-3.24.15-5.78,1.53-7.48,4.35-1.67,2.77-2.37,5.81-2.76,9-.78,6.44,3.43,9.41,8.09,11.78.26.13.84.02,1.02-.19.18-.21.16-.74.03-1.04-.45-1.05-1.11-2.03-1.48-3.11-1.17-3.36-1.38-6.89,0-10.13,1.71-4.02,5.17-6.57,8.84-8.79.41-.25.68-.72,1.01-1.1-.44-.27-.87-.72-1.34-.77-1.09-.12-2.2-.04-3.3-.04Z"/>
  <path class="cls-1" d="m331.83,155.7c-1.84-.85-3.42-1.58-5-2.33-3.25-1.56-6.52-3.08-9.74-4.7-3.23-1.63-6.41-3.34-8.73-6.25-.24-.3-.5-.6-.63-.95-.44-1.16-.89-2.51.39-3.29,1.26-.76,2.16.12,3.01,1.18,2.25,2.8,5.32,4.53,8.49,6.09,4.23,2.08,8.49,4.1,12.66,6.3.64.34,1.16,1.49,1.16,2.27,0,.54-.99,1.08-1.6,1.68Z"/>
</svg>