<?xml version="1.0" encoding="UTF-8"?>
<svg id="Layer_1" data-name="Layer 1" xmlns="http://www.w3.org/2000/svg" viewBox="0 0 527.23 257.22">
  <defs>
    <style>
      .cls-1 {
        fill: #000;
        stroke-width: 0px;
      }
    </style>
  </defs>
  <path class="cls-1" d="M120.47,198.14c2.46.54,4.91,1.09,7.55,1.67-.71,3.86-1.42,7.77-2.15,11.76h-61.22c.67-3.69,1.29-7.3,2.04-10.89.09-.42.9-.81,1.45-.99,1.72-.57,3.48-1.02,5.23-1.52,8.67-2.49,14.5-8.11,16.98-16.65,3.09-10.64,5.85-21.39,8.3-32.2,7.76-34.27,15.32-68.59,22.94-102.9.64-2.87,1.27-5.75,1.72-8.66,1.2-7.78-3.11-13.08-11.01-13.66-3.44-.25-6.87-.52-10.44-.8.75-3.75,1.49-7.36,2.18-10.98.25-1.29,1.18-1.05,2.03-1.05,14.1,0,28.19,0,42.29,0q3.74,0,5.08,3.48c17.01,43.93,34.01,87.86,51.02,131.78.18.45.41.88.61,1.33,1.51-.19,2.16-.85,2.45-2.37,5.35-28.13,10.78-56.24,16.18-84.36.96-4.99,2.01-9.96,2.76-14.98.79-5.35.1-10.54-2.84-15.23-2.89-4.6-7.14-6.91-12.53-7.22-1.81-.1-3.62-.29-5.66-.45.83-4,1.65-7.9,2.48-11.89h54.54c-.81,3.7-1.57,7.35-2.45,10.97-.11.44-.78.88-1.28,1.06-2.01.71-4.1,1.19-6.07,1.99-6,2.44-9.53,7.26-11.2,13.18-2.56,9.03-4.91,18.15-6.76,27.35-4.2,20.88-8.04,41.84-12.01,62.77-.75,3.93-1.46,7.86-2.28,12.27,22.4-10.59,44.35-20.97,66.42-31.41-.31-.56-.49-1.05-.8-1.41-6.66-7.67-10.01-16.71-11.07-26.7-1.25-11.73-.86-23.36,2.75-34.68,4.33-13.61,11.64-25.12,23.96-33,8.4-5.37,17.65-7.28,27.46-7.25,14.2.04,25.87,5.87,35.89,15.52,1.45,1.4,2.87,2.82,4.26,4.28.9.96,1.65,1.14,2.64.05,2.45-2.7,5.08-5.24,7.44-8.02,1.9-2.24,4.19-3.28,7.04-3.3,1.75-.01,3.5,0,5.53,0-2.84,16.22-5.65,32.23-8.52,48.57,1.16-.44,2.09-.74,2.97-1.15,5.86-2.71,11.76-5.35,17.54-8.23,1.8-.9,3.49-2.26,4.86-3.74,1.77-1.91,3.18-4.16,4.85-6.4-3.02-1.88-5.89-3.66-9.1-5.66,3.08-1.91,5.97-3.69,9.03-5.59-2.12-2.99-4.17-5.88-6.37-8.97,3.5-.5,6.75-.97,10.23-1.47-.88-3.63-1.75-7.17-2.68-11.02,3.47.99,6.73,1.92,10.06,2.87.46-3.81.91-7.45,1.39-11.4,2.82,2.36,5.45,4.56,8.27,6.93,1.78-3.25,3.5-6.41,5.35-9.79,1.83,3.35,3.55,6.51,5.35,9.79,2.74-2.28,5.42-4.51,8.31-6.91.49,3.92.93,7.5,1.41,11.34,3.31-.93,6.56-1.84,10.04-2.81-.91,3.79-1.75,7.3-2.64,10.99,3.38.48,6.65.94,10.22,1.45-2.13,3.01-4.2,5.92-6.37,8.98,2.97,1.86,5.82,3.65,8.94,5.61-3.01,1.89-5.85,3.67-8.91,5.6,2.07,2.96,4.1,5.85,6.27,8.96-3.47.51-6.71,1-10.14,1.5.86,3.64,1.7,7.19,2.61,11.01-3.47-.99-6.7-1.91-10.03-2.85-.46,3.73-.91,7.33-1.41,11.3-2.83-2.33-5.5-4.54-8.32-6.86-1.79,3.33-3.52,6.54-5.33,9.92-1.81-3.35-3.53-6.55-5.36-9.92-2.76,2.3-5.43,4.53-8.29,6.91-.48-3.9-.93-7.55-1.4-11.34-3.21.92-6.32,1.81-9.76,2.79.14-1.45.26-2.65.41-4.09-3.5,1.61-6.85,3.14-10.18,4.68-7.58,3.49-15.14,7.01-22.73,10.45-1.1.5-1.63,1.13-1.8,2.34-.25,1.73-.73,3.43-1.15,5.34-2.7,0-5.4.09-8.08-.06-.63-.04-1.22-.87-2.08-1.54-7.8,3.61-15.86,7.34-24.26,11.23.78.56,1.33.98,1.91,1.36,4.91,3.25,10.19,6.08,14.68,9.84,9.27,7.75,14.1,18.21,15.87,29.98,2.2,14.58,1.32,28.97-4.43,42.75-7.83,18.78-21.01,31.84-41.28,36.29-16.92,3.71-33.4,2.42-48.45-7.21-5.53-3.53-10.57-7.68-14.76-13.13-.92,1.12-1.84,2.13-2.65,3.22-1.8,2.42-3.38,5.03-5.38,7.26-.98,1.09-2.64,1.89-4.1,2.13-2.2.35-4.49.09-7.02.09,4.12-24.01,8.2-47.81,12.28-71.62h9.24c.2,3.36.42,6.67.57,9.98.54,11.35,2.07,22.48,6.81,32.97,6.7,14.84,18.2,23.29,34.27,25.17,16.28,1.91,31.88-8.25,37.4-23.91,3.09-8.76,3.43-17.56.08-26.34-2.17-5.69-6.02-9.91-11.4-12.81-13.92-7.5-27.81-15.06-41.75-22.54-.65-.35-1.72-.49-2.35-.2-24.41,11.18-48.77,22.45-73.19,33.61-2.71,1.24-3.75,3.14-4.25,5.86-3.32,17.8-6.75,35.58-10.05,53.38-.28,1.5-.84,1.79-2.18,1.76-2.96-.08-5.92-.1-8.87.01-1.31.05-1.83-.44-2.29-1.61-4.8-12.45-9.65-24.88-14.5-37.31-.25-.64-.53-1.26-.89-2.1-19.36,8.93-38.65,17.83-57.93,26.72-.02.25-.04.49-.06.74ZM132.98,53.45c-.18.01-.36.03-.54.04-.3,1-.68,1.98-.9,3-2.28,10.2-4.51,20.42-6.79,30.62-5.11,22.85-10.3,45.68-15.3,68.55-1.39,6.35-2.57,12.79-3.22,19.25-.56,5.57.71,10.97,4,15.75.96,1.39,1.76,1.63,3.35.88,19.64-9.36,39.31-18.64,58.97-27.95.88-.42,1.76-.84,2.72-1.3-14.15-36.42-28.22-72.63-42.3-108.84ZM331.24,18.38c-10.34-.37-23.97,5.9-29.35,20.15-2.42,6.43-3,13.04-2.25,19.82.81,7.29,3.98,13.25,10.37,17.05,7.12,4.22,14.41,8.14,21.66,12.14.44.24,1.23.18,1.71-.05,11.69-5.49,23.36-11.03,35.05-16.52.9-.42,1.18-.87,1.05-1.84-.57-4.16-.87-8.37-1.63-12.49-1.74-9.44-5.13-18.24-11.33-25.73-6.55-7.92-14.93-12.26-25.29-12.53ZM457.64,34.52c1.35-1.98,2.64-3.86,4.07-5.96-2.34-.45-4.4-.85-6.68-1.3.41-2.33.81-4.59,1.23-6.99-2.31.57-4.33,1.08-6.42,1.6-.4-2.42-.75-4.59-1.16-7.06-1.93,1.54-3.57,2.85-5.3,4.24-1.21-2.08-2.33-3.99-3.59-6.16-1.21,2.2-2.26,4.11-3.41,6.19-1.79-1.39-3.5-2.71-5.39-4.18-.44,2.48-.84,4.71-1.25,7.01-2.23-.59-4.2-1.1-6.45-1.69.5,2.53.94,4.75,1.39,7.07-1.89.35-3.55.63-5.19,1-.39.09-.71.53-1.06.82.33.31.6.8.98.9.96.25,1.97.44,2.96.45,6.54.06,13.08.05,19.62.1.65,0,1.48.07,1.92.46,2.93,2.64,5.77,5.38,8.71,8.16-5.31,8.65-14.53,11.27-22.77,15.35.35,2.5.68,4.89,1.04,7.56,1.98-1.51,3.69-2.81,5.47-4.17,1.21,2.07,2.3,3.95,3.53,6.06,1.22-2.17,2.31-4.09,3.46-6.13,1.82,1.44,3.48,2.75,5.38,4.25.42-2.53.8-4.77,1.18-7.07,2.23.56,4.24,1.07,6.49,1.64-.51-2.56-.95-4.79-1.4-7.06,2.35-.45,4.41-.84,6.76-1.28-1.46-2.11-2.76-3.99-4.12-5.96,2.03-1.31,3.95-2.55,6.07-3.92-2.12-1.38-4.04-2.62-6.07-3.93ZM419.66,46.15c2.13.22,13.85-5.51,14.25-6.83h-15.32c-.07.12-.14.25-.21.37,1.13.9,2.26,1.81,3.44,2.75-.68,1.17-1.36,2.34-2.16,3.71Z"/>
  <path class="cls-1" d="M399.59,96.86c.92-3.87,1.77-7.59,2.73-11.27.12-.45.89-1.02,1.38-1.05,12.05-.69,24.1-1.31,36.15-1.95,3.38-.18,6.76-.37,10.49-.58-.34,2.06-.57,3.95-.96,5.81-5.05,23.71-10.15,47.41-15.2,71.11-2.19,10.3-4.4,20.59-6.38,30.93-.37,1.94.07,4.11.46,6.12.31,1.61,1.77,2.22,3.21,1.33,1.8-1.11,3.64-2.32,5.04-3.86,6.64-7.3,10.88-16.07,14.91-24.95.54-1.19,1.11-2.36,1.78-3.78,2.4,1.72,4.7,3.31,6.92,5.01.28.21.39,1.03.22,1.41-5.47,12.24-11.29,24.28-20.82,34.03-4.59,4.7-9.71,8.53-16.31,9.96-11.11,2.41-19-2.56-21.67-13.63-1.71-7.09-.96-14.07.5-21.08,4.13-19.86,8.23-39.74,12.32-59.61.98-4.78,2.02-9.56,2.75-14.38.91-6.03-2.99-9.93-9.14-9.6-2.74.15-5.49.02-8.36.02Z"/>
  <path class="cls-1" d="M118.08,233.03c-.97,1.87-2.02,3.89-3.26,6.27-1.14-2.75-3.25-3.64-5.36-3.98-2.49-.41-5.08-.32-7.62-.18-.8.04-1.72.78-2.31,1.44-.94,1.05-.61,2.48.73,2.9,1.53.48,3.16.61,4.76.86,2.54.4,5.14.56,7.6,1.21,3.51.93,5.42,3.49,5.54,6.78.11,3.07-1.7,5.88-4.86,7.18-5.87,2.4-11.67,1.76-17.38-.67-.96-.41-2-.63-3.29-1.03.85-1.86,1.81-3.94,2.89-6.31,2.15,4.99,12.23,6.04,15.12,3.75.78-.62,1.53-1.82,1.5-2.72-.02-.62-1.36-1.56-2.23-1.71-3.08-.55-6.23-.75-9.32-1.22-2.84-.43-5.35-1.52-6.55-4.41-1.04-2.52-.78-4.97.85-7.14,2.03-2.7,4.99-3.62,8.22-3.88,3.9-.31,7.61.43,11.23,1.88,1.09.44,2.29.61,3.75.99Z"/>
  <path class="cls-1" d="M402.85,256.59c-2.51-4.39-4.96-8.65-7.4-12.91-.07,4.24-.94,8.46.18,12.7h-6.87c1.84-1.4,1.34-3.32,1.35-5.11.03-4.09.06-8.18-.02-12.26-.03-1.2-.46-2.39-.73-3.7h8.8c-1.63,1.68-.4,3.07.4,4.5,1.5,2.68,3.04,5.34,4.72,8.29,1.16-1.98,2.23-3.78,3.28-5.58.76-1.3,1.48-2.63,2.29-3.89.7-1.1,1.05-2.12-.43-3.32h8.81c-.21,1.43-.57,2.86-.6,4.3-.08,4.34-.08,8.68,0,13.02.02,1.25.41,2.49.64,3.83h-6.77c.24-1.59.62-3.18.69-4.79.12-2.68.03-5.37-.34-8.21-2.64,4.34-5.29,8.69-8.01,13.15Z"/>
  <path class="cls-1" d="M353.47,247.64c1.13,1.64,2.35,3.4,3.39,4.91-1.67.74-3.28,1.34-4.79,2.13-4.93,2.57-10.07,2.95-15.35,1.5-6.19-1.7-10.16-7.05-9.88-13.07.3-6.36,4.65-11.34,11.02-12.56,5.36-1.03,10.47-.41,15.26,2.37,1.07.62,2.35.91,3.8,1.45-1.09,1.59-2.31,3.39-3.77,5.52-.51-2.72-2.46-3.38-4.3-4.14-2.94-1.22-5.96-1.41-9.05-.69-4.09.96-6.77,4.26-6.84,8.36-.07,4.06,2.58,7.53,6.62,8.55,4.1,1.03,8,.42,11.57-1.83.87-.55,1.45-1.55,2.31-2.5Z"/>
  <path class="cls-1" d="M263.38,235.26h7.47c.16.92.02,1.87.43,2.28,3.6,3.6,7.29,7.1,10.98,10.65.96-2.46.46-11.26-.77-12.9h6.93c-.29,1.24-.75,2.36-.78,3.49-.08,4.71-.09,9.43,0,14.14.02,1.12.51,2.24.8,3.46h-7.57c1.09-1.02.72-1.74-.16-2.57-3.8-3.55-7.54-7.18-11.36-10.83-.98,3.71-.41,11.87,1.07,13.37h-7.46c1.7-1.45,1.07-3.43,1.1-5.26.06-4.21.06-8.42-.01-12.64-.02-1.01-.41-2.01-.67-3.2Z"/>
  <path class="cls-1" d="M494.83,248.58c0-4.04.05-7.55-.04-11.06-.02-.7-.61-1.39-1-2.21h6.66c-.23,1.36-.63,2.67-.65,3.98-.08,4.59-.08,9.18,0,13.77.02,1.07.49,2.12.78,3.3h-7.4c.23-.4.47-.82.81-1.43-4.12-3.95-8.27-7.92-12.78-12.25,0,4.25-.05,7.99.05,11.73.02.62.67,1.22,1.13,1.99h-7.34c1.77-1.45,1.19-3.37,1.21-5.15.04-4.15.06-8.3-.02-12.45-.02-1.13-.42-2.26-.67-3.51h7.98c-1.31,1.28-.43,2.03.45,2.88,3.5,3.33,6.97,6.69,10.83,10.41Z"/>
  <path class="cls-1" d="M372.68,257.1c-1.4-.22-2.91-.31-4.35-.7-5.56-1.5-8.53-5.62-8.34-11.42.16-4.77,3.83-9.01,9.13-9.78,2.78-.4,5.81-.34,8.53.32,5.42,1.3,8.18,5.52,8,11.22-.14,4.62-3.73,8.67-8.75,9.78-1.34.3-2.72.38-4.22.58ZM372.77,252.8c4.27.02,7.41-2.88,7.43-6.85.02-4.1-3.09-7.07-7.43-7.07-4.21,0-7.34,2.96-7.34,6.97,0,4.01,3.09,6.94,7.34,6.96Z"/>
  <path class="cls-1" d="M246.3,257.16c-1.61-.4-3.82-.67-5.82-1.49-4.44-1.82-6.94-6.17-6.45-10.67.56-5.19,3.86-9.02,9.14-9.8,2.78-.41,5.8-.34,8.53.31,5.23,1.24,8.2,5.51,8.08,10.64-.12,5.1-3.55,9.19-8.78,10.36-1.34.3-2.72.38-4.69.65ZM246.82,252.8c4.26.02,7.4-2.84,7.44-6.79.04-4.15-2.93-7.04-7.32-7.1-4.25-.06-7.38,2.8-7.42,6.78-.05,4.15,2.97,7.09,7.3,7.11Z"/>
  <path class="cls-1" d="M133.47,257.12c-1.48-.29-3.25-.46-4.9-1-5-1.64-7.95-6.06-7.55-11.09.4-5.07,3.98-9.13,9.32-9.86,2.73-.37,5.68-.31,8.34.33,5.46,1.31,8.24,5.51,8.02,11.19-.18,4.8-3.72,8.78-8.85,9.86-1.34.28-2.73.37-4.38.59ZM126.58,245.84c0,4.05,2.99,6.93,7.23,6.96,4.3.03,7.54-2.96,7.51-6.94-.03-4.06-3.16-6.97-7.5-6.97-4.21,0-7.24,2.91-7.24,6.95Z"/>
  <path class="cls-1" d="M57.82,235.22c.3-.02.94-.09,1.59-.09,5.53,0,11.06.03,16.59-.04.94-.01,1.87-.45,2.93-.72v5.51c-1.16-.22-2.35-.62-3.54-.65-3.75-.09-7.51-.03-11.35-.03v4.55c3.29-.51,6.67.91,9.93-1.05v5.87c-3.15-2.14-6.56-.52-9.91-1.16v5.01c4.58,0,9.08.04,13.59-.05.62-.01,1.24-.64,2-1.06v5.9c-1.5-.22-3-.6-4.51-.62-5.34-.08-10.69-.03-16.03-.03-.59,0-1.18-.06-1.39-.07.32-1.34.81-2.52.84-3.7.09-4.65.08-9.3,0-13.95-.02-1.13-.46-2.26-.75-3.62Z"/>
  <path class="cls-1" d="M310.87,242.4c-1.24-2.3-3.11-2.98-5.06-3.18-2.09-.22-4.23-.17-6.32,0-1.16.1-2.64.71-2.21,2.19.21.71,1.63,1.35,2.59,1.51,2.66.43,5.39.45,8.05.87,4.25.68,6.42,3.3,6.03,7.01-.32,3-2.44,4.48-4.97,5.3-4.65,1.52-9.29,1.03-13.85-.59-.92-.32-1.89-.5-3.07-.81.63-1.5,1.34-3.17,2.17-5.13,1.46,2.49,3.84,2.88,6.06,3.09,2.27.22,4.62-.07,6.88-.44.62-.1,1.07-1.29,1.59-1.99-.77-.53-1.48-1.4-2.31-1.53-2.66-.42-5.37-.54-8.05-.84-4.13-.46-6.36-3.04-6.01-6.92.25-2.71,2-4.23,4.35-5.18,4.33-1.74,8.6-1.26,12.84.42,1.22.48,2.49.81,3.93,1.27-.75,1.4-1.61,3.01-2.64,4.93Z"/>
  <path class="cls-1" d="M36.14,256.44h-7.13c.2-1.53.55-3.08.57-4.63.08-4.4.07-8.79,0-13.19-.02-1.07-.42-2.14-.67-3.32h7.24c-2,2.53-.86,5.25-1.08,7.94h11.91c-.4-2.65,1-5.4-1.16-7.96h7.4c-.27,1.31-.73,2.6-.76,3.89-.09,4.65-.09,9.3,0,13.94.02,1.05.51,2.09.82,3.25h-7.36c2.16-2.78.51-5.9,1.21-9.07-3.93,0-7.62-.03-11.3.05-.28,0-.76.75-.78,1.17-.09,1.82-.15,3.65.01,5.46.07.81.68,1.58,1.08,2.46Z"/>
  <path class="cls-1" d="M427.99,248.08c.57,2.75-1.08,5.71,1.43,8.33h-7.47c.25-1.25.66-2.43.68-3.62.08-4.72.07-9.43,0-14.15-.02-1.06-.4-2.12-1.03-3.15.07-.1.13-.28.2-.28,5.78.07,11.57-.02,17.34.28,3.63.19,5.74,2.69,5.75,6.02,0,3.25-1.97,5.56-5.6,5.96-3.61.39-7.27.41-11.29.61ZM428.15,243.73c3.09,0,6.02.05,8.95-.03,1.22-.03,2.11-.61,2.18-2.07.07-1.53-.79-2.29-2.1-2.34-2.98-.11-5.96-.04-9.04-.04v4.47Z"/>
  <path class="cls-1" d="M172.8,235.22h6.94c-.23,1.55-.59,3.05-.65,4.55-.1,2.83-.05,5.66,0,8.49.05,2.52.94,3.68,3.43,4.2,1.33.28,2.76.39,4.1.21,3.13-.41,4.2-1.78,4.21-4.93,0-3.14.06-6.29-.03-9.43-.03-.95-.44-1.89-.71-2.98h6.37c-.22,1.43-.6,2.86-.65,4.3-.1,3.2,0,6.41-.06,9.62-.08,4.04-1.72,6.17-5.66,7.12-3.72.9-7.47.88-11.18-.15-3.12-.86-5.05-2.75-5.15-6.11-.11-3.77-.08-7.54-.22-11.31-.04-1.14-.46-2.26-.75-3.59Z"/>
  <path class="cls-1" d="M10.2,234.9c-3.56.73-6.99-.95-10.2,1.29v-6.24c1.69.21,3.31.56,4.93.57,5.97.07,11.95.06,17.92,0,1.06-.01,2.12-.41,3.38-.67v6.25c-3.18-2.08-6.62-.53-10.12-1.14,0,2.72,0,5.15,0,7.59,0,3.39-.07,6.79.04,10.18.04,1.19.52,2.36.83,3.65h-8.46c2.14-1.27,1.68-3.08,1.69-4.75.01-4.78,0-9.55,0-14.33,0-.68,0-1.36,0-2.39Z"/>
  <path class="cls-1" d="M453.21,256.41h-7.28c.89-1.42,1.86-2.76,2.61-4.2,2.26-4.33,4.42-8.71,6.66-13.04.67-1.29,1.22-2.49-.65-3.85h9.03c-1.79,1.55-.85,2.93-.07,4.35,2.56,4.67,5.06,9.37,7.66,14.02.52.94,1.35,1.71,2.12,2.67h-8.93c1.05-.93,1.54-1.82.73-3.26-.78-1.39-1.58-1.99-3.2-1.86-2.06.16-4.16.21-6.21,0-1.98-.21-2.32,1.21-2.72,2.42-.24.73.13,1.67.26,2.75ZM462.26,248c-1.19-2.24-2.21-4.17-3.39-6.38-1.15,2.34-2.09,4.27-3.13,6.38h6.52Z"/>
  <path class="cls-1" d="M518.95,256.46h-7.46c2.19-2.82.87-6.04,1.14-9.07.01-.12-.04-.26-.11-.35-3.06-3.69-5.12-8.2-9.13-11.12-.13-.09-.19-.29-.39-.63h10.07c-2.26,1.58-.85,2.76.11,4.01.83,1.08,1.64,2.18,2.53,3.38,1.02-1.41,1.9-2.71,2.85-3.95.86-1.11,1.72-2.16-.76-3.41h9.44c-2.8,3.63-5.7,7.34-8.53,11.11-.37.49-.48,1.26-.5,1.91-.07,1.69-.1,3.4,0,5.08.06.95.45,1.88.75,3.03Z"/>
  <path class="cls-1" d="M198.93,234.39c1.05.26,2.03.69,3.01.71,5.28.07,10.57.07,15.86,0,.95-.01,1.89-.47,2.96-.76v5.98c-2.45-2.08-5.31-.71-8.29-1.19v5.02c0,2.83-.08,5.66.04,8.49.05,1.25.49,2.48.77,3.79h-7.45c1.74-1.41,1.21-3.26,1.23-4.98.04-4.01.01-8.02.01-12.29-2.76.47-5.54-.9-8.14,1.14v-5.92Z"/>
  <path class="cls-1" d="M156.51,252.43c4.17,0,8.07.05,11.96-.05.69-.02,1.37-.63,2.19-1.03v5.86c-1.51-.22-3.01-.6-4.52-.62-5.33-.08-10.66-.03-15.61-.03.23-1.69.59-3.24.62-4.81.09-4.15.08-8.3,0-12.44-.02-1.31-.38-2.62-.6-4.01h6.71c-.27,1.32-.7,2.51-.72,3.71-.08,4.39-.03,8.77-.03,13.41Z"/>
  <path class="cls-1" d="M223.38,235.23h6.95c-.23,1.5-.62,2.94-.64,4.38-.08,4.4-.08,8.8,0,13.19.02,1.18.45,2.36.71,3.63h-6.93c.24-1.31.65-2.6.67-3.89.08-4.52.08-9.05,0-13.57-.02-1.18-.47-2.36-.76-3.74Z"/>
</svg>