<?xml version="1.0" encoding="UTF-8"?>
<svg id="Layer_1" data-name="Layer 1" xmlns="http://www.w3.org/2000/svg" version="1.1" viewBox="0 0 841.9 595.3">
  <defs>
    <style>
      .cls-1 {
        fill: #000;
        stroke-width: 0px;
      }
    </style>
  </defs>
  <path class="cls-1" d="M134.1,181c205.8,0,411.5,0,617.3,0,.5.2,1,.5,1.6.6,11.9,2.1,21.3,8.1,27.6,18.2,2.8,4.4,4.3,9.6,6.3,14.4v159.2c-1.4,3.6-2.4,7.4-4.3,10.8-7.7,13.8-19.2,21.9-35.6,21.9-203.3,0-406.6,0-609.9,0-1.4,0-2.9,0-4.3-.1-19.3-3-34.3-20.6-34.3-40.1,0-48-.2-96,0-144,0-17.3,8.8-29.8,24.4-37.3,3.5-1.7,7.3-2.4,11-3.6ZM564.7,203.3c-1.7,0-3,0-4.3,0-139.6,0-279.2,0-418.7-.1-11.9,0-20.9,8.9-20.8,20.7.3,46.6.1,93.2.1,139.7,0,12.7,8,20.7,20.8,20.7,140,0,279.9,0,419.9,0h3.1v-181ZM587.4,203.3v181c1.4,0,2.5,0,3.6,0,27.5,0,55.1,0,82.6,0,23.8,0,47.6,0,71.4,0,11.7,0,20.2-8.3,20.2-19.6,0-47.3,0-94.7,0-142,0-11.2-8.4-19.4-19.7-19.4-51.6,0-103.2,0-154.8,0h-3.3Z"/>
  <path class="cls-1" d="M348.1,335.5v37.5h-26.7v-98.4c.9,0,1.7-.2,2.5-.2,12.3,0,24.7,0,37,0,6.5,0,12.9,1.1,19,3.7,10.3,4.4,15.8,12.1,16.5,23.3.7,11-2,20.5-11.3,27.2-2.9,2.1-6.6,3.2-10.2,4.8,10.2,12.9,20.6,26,31.4,39.6-1.2,0-2,.2-2.8.2-9.3,0-18.5,0-27.8,0-2,0-3.1-.7-4.1-2.3-7.1-10.9-14.4-21.8-21.6-32.7-.5-.7-1-1.4-1.9-2.8ZM348.2,318.5c5.5.7,10.5,0,15.3-2.2,4-1.9,5.2-5.4,5.3-9.4,0-4.1-.9-7.8-5-9.9-4.9-2.4-10.1-3.1-15.6-2.5v23.9Z"/>
  <path class="cls-1" d="M313.2,373.3c-3.9,0-7.5,0-11.1,0-5,0-9.9,0-14.9,0-1.9,0-2.7-.7-3.3-2.3-1.5-4.3-3.3-8.5-4.9-12.8-.5-1.5-1.3-2-2.9-2-10.7,0-21.4,0-32.1,0-1.6,0-2.4.5-2.9,2-1.7,4.4-3.5,8.8-5.5,13.2-.4.8-1.5,1.8-2.3,1.9-8.7.1-17.4,0-26.6,0,.5-1.3.8-2.4,1.2-3.4,12.3-31,24.7-62.1,37-93.1.7-1.8,1.5-2.4,3.5-2.4,8.1.1,16.2,0,24.4,0,1.6,0,2.4.5,3,1.9,12.2,31.6,24.5,63.1,36.8,94.7.2.6.4,1.2.7,2.2ZM260.3,305.1c-3.8,10.9-7.3,20.9-10.8,30.9h21.4c-3.5-10.2-7-20.1-10.7-30.9Z"/>
  <path class="cls-1" d="M163.3,340.7v32.3h-26.6v-98.5c.9,0,1.9-.1,2.9-.1,12.4,0,24.8-.2,37.3,0,4.9.1,10,.7,14.7,1.9,14.6,3.8,21.8,12.7,22.6,27.8.2,4.8-.2,9.8-1.2,14.4-2.8,12.3-12.7,20.3-26.5,21.4-6.5.5-13,.4-19.5.6-1.1,0-2.3,0-3.8,0ZM163.5,320.2c5.9-.6,11.6-1,17.2-1.9,3.5-.6,5.6-4,5.7-8.3,0-4.8.8-10.3-4.9-12.6-5.7-2.4-11.9-2.1-18.1-1.9v24.7Z"/>
  <path class="cls-1" d="M480.5,364.7c3.9-7.1,7.6-13.9,11.4-20.8,2.6,1.8,5,3.6,7.5,5.2,6.3,4,13.1,6.3,20.7,4.4,1.5-.4,3.1-1.1,4.4-1.9,5-3.2,5.4-10.4.2-13.2-4.8-2.6-10.2-4-15.3-6-4-1.5-8-3-12-4.6-7.5-3.1-11.5-8.7-12.4-16.8-1.9-17,4.8-30.7,21.4-36.7,8.7-3.1,17.7-2.6,26.6-.7,6.5,1.4,12.9,3.3,19,6.7-1.8,3.4-3.5,6.7-5.3,9.9-1.7,3.3-3.5,6.6-4.9,9.3-4.7-1.8-9.1-4-13.7-5.2-4.3-1.2-8.7-.6-12.6,2.2-4,2.9-4.3,8-.1,10.5,4,2.4,8.6,3.9,13.1,5.3,6.3,1.9,12.4,4.3,17.9,8,8,5.3,10,13.1,9.7,21.9,0,2.9-.6,5.9-1.2,8.8-3,13.8-12.6,20.7-25.5,23.6-17.2,3.9-33.1.3-47.9-9-.3-.2-.6-.4-1-.7Z"/>
  <path class="cls-1" d="M453.9,373.1h-26.6v-76.6h-21.8v-21.9h70.4v4.7c0,4.7-.1,9.4,0,14,0,2.4-.5,3.4-3.1,3.3-5.2-.2-10.5,0-15.8,0-.9,0-1.9,0-3.1,0v76.6Z"/>
  <path class="cls-1" d="M259.2,264c-4.2,0-8.3,0-12.4,0-.6,0-1.5-1-1.8-1.7-1-2-1.2-5.1-2.8-6.1-1.8-1.1-4.8-.4-7.2-.5-2.6,0-5.2,0-7.7,0-1.6,0-2.7.4-2.9,2-1,5.5-4.2,6.9-9.6,6.6-10.4-.5-20.8-.2-31.2-.2h-3.2v-47.9c3.8,0,7.7,0,11.6.1.5,0,1.2,1.7,1.2,2.6,0,10.3,0,20.6,0,30.9,0,1,0,2.1,0,3.4h15.1v7.8c.2,0,.5.1.7.2.4-.8.8-1.6,1.1-2.4,5.3-13.3,10.7-26.7,15.9-40.1.7-1.9,1.6-2.7,3.7-2.6,3.1.2,6.3,0,9.5.1.9,0,2.2.8,2.5,1.5,5.9,14.9,11.8,29.9,17.6,44.9.1.3,0,.7.1,1.4ZM233.7,231.7c-1.6,4.7-3.1,8.9-4.5,13.1,0,.3,0,.5-.1.9h9.8c-1.5-4.4-2.9-8.5-4.3-12.6-.1-.3-.4-.6-.8-1.3Z"/>
  <path class="cls-1" d="M499.7,216.1c4,0,7.8-.1,11.6,0,.7,0,1.6,1.2,1.9,2,3,7.5,5.9,15,9.1,23,2.1-4.9,3.9-9.3,5.7-13.6,1.3-3.2,2.7-6.3,3.9-9.5.5-1.4,1.2-2.1,2.9-2.1,3,.2,5.9,0,8.9.1.8,0,2.1.8,2.2,1.4,2.4,14.9,4.7,29.9,7,44.9,0,.4,0,.8,0,1.3h-12.8c-1.1-8.7-2.3-17.3-3.5-26.6-.6,1.1-1,1.8-1.3,2.5-3.2,7.3-6.4,14.6-9.4,22-.8,2.1-2.1,2.2-4,2.3-1.9,0-2.7-.6-3.3-2.3-2.8-7.1-5.8-14.1-8.7-21.1-.4-1-.9-2-1.6-3.6-1.4,9.3-2.7,18.1-4.1,26.8h-13c2.8-16,5.6-31.8,8.4-47.8Z"/>
  <path class="cls-1" d="M276.6,263.8h-13v-47.7c3.9,0,7.9,0,11.9,0,.7,0,1.6.9,2.1,1.6,6.5,8,13,16,19.4,24.1.6.8,1.3,1.5,2.5,2.9,0-2.4,0-4.1,0-5.7,0-6.8,0-13.6,0-20.3,0-1.9.4-2.8,2.5-2.7,3.4.2,6.8,0,10.4,0v47.9c-4.1,0-8.1,0-12.2,0-.7,0-1.5-1.1-2-1.8-7.1-8.8-14.1-17.5-21.6-26.9v28.6Z"/>
  <path class="cls-1" d="M417,214.5c12.6.1,24.2,8.1,26.5,19.2,3.9,18.4-9,30.1-22.1,31.6-10,1.1-18.9-.9-25.7-8.7-12.9-14.9-5.3-36.8,14.2-41.1,2.3-.5,4.7-.7,7.1-1ZM416.8,253.3c7.7,0,14-6.3,13.9-14,0-6.6-6.5-12.5-13.8-12.5-7.5,0-13.8,5.8-13.8,12.7,0,7.8,6,13.8,13.6,13.8Z"/>
  <path class="cls-1" d="M462.9,263.9h-12.9c0-1-.2-1.9-.2-2.8,0-14,0-28,0-42,0-2.4.6-3.1,3-3,7,.3,14-.2,20.9.6,10.8,1.2,16.1,12.1,10.8,21.6-1.8,3.3-4.6,5.3-8.7,6.2,5.1,6.5,10,12.7,15.3,19.4-5.6,0-10.5,0-15.4,0-.7,0-1.5-1-2-1.7-2.9-4.3-5.7-8.6-8.5-12.9-.6-.9-1.2-1.8-2.4-3.4v18ZM462.9,237.5c3.6-.2,7.3.3,9.1-3.2.8-1.6.6-4.6-.5-6-2-2.7-5.4-2.6-8.6-2.3v11.6Z"/>
  <path class="cls-1" d="M150,248v15.8h-12.7v-47.4c.3,0,.6-.3,1-.3,7.6.1,15.3-.1,22.9.5,8.7.7,13.9,7.1,13.6,15.7-.3,9.7-5.1,15-14.3,15.6-3.3.2-6.6,0-10.5,0ZM150.2,237.9c3.7-.3,7.6,1.1,10.1-2.3,1.5-2.1,1.5-5-.2-7-2.6-3-6.4-2-9.9-2.3v11.6Z"/>
  <path class="cls-1" d="M349.1,226.8h-15.2v7.5h14v10.9h-14.1v7.9h14.9v10.7h-27.9c0-1-.2-1.8-.2-2.7,0-14,0-28,0-42.1,0-2.4.6-3.1,3-3.1,7.5.1,15.1.1,22.6,0,2.1,0,2.9.6,2.8,2.7-.2,2.5,0,5.1,0,8.1Z"/>
  <path class="cls-1" d="M369.7,245.2v18.6h-12.7v-47.7c1,0,2.1,0,3.3,0,7.5,0,14.9,0,22.4,0,1.9,0,2.8.4,2.7,2.5-.2,2.6,0,5.3,0,8.2h-15.3v7.6h13.5v10.8h-13.8Z"/>
  <path class="cls-1" d="M598,243.7c3.8-1.9,7.1-3.9,10.6-5,1.9-.6,4.5-.1,6.3.8,15.2,7.2,30.2,14.6,45.4,21.8,1.1.5,2.8.7,3.9.3,11.6-4.5,23.1-9,34.5-13.7,1.7-.7,3.2-2,4.9-3,4.6,3.3,5,3.9,3.8,6.5,14-13.3,27.3-27.5,45.9-34.7-7.3,18.5-21.3,31.7-35.1,45.8,4.3-1.8,4.6,2.2,6.6,3.3-6.5,12.6-11.3,25.7-16.3,38.7-.9,2.3-.7,4,.4,6.2,6.9,14,13.6,28.1,20.6,42.1,2.4,4.8,2.4,9.1-.4,13.5-1,1.7-2.2,3.3-3.5,5.2-4.9-5.5-9.6-10.6-14.2-15.8-9.7-10.8-19.5-21.5-29.1-32.3-1.1-1.2-1.8-2.8-2.6-4.1-6.5,4.1-6.9,11.3-7.7,18.4-1,9-2.3,18-3.4,26.9-.3,2.5-1.6,3.7-4.4,3.9-3.4.2-5.6-.6-7.3-3.9-2.1-4.1-4.6-7.9-7.2-11.7-1.5-2.1-1.8-4-.4-6.2.4-.5.5-1.2.8-1.9-2.4-.3-4.6,1.3-6.8-1.2-1.9-2.1-2.7-3.8-1.2-6.3-3.6-2-5.6.9-8.3,2.4-.7-.6-1.5-1.2-2.3-1.8-1.4-1.2-1.9-2.5-.3-4.1,1.7-1.7,2.4-3.6.8-6.2-.9.3-2.1.7-3.2,1.1-1.4-1.6-2.9-3.2-4.6-4.9.2-1.1.5-2.5.8-4-.5,0-.7-.2-.8-.1-3.3,2.3-6.2,1.4-9.3-.8-3.7-2.7-7.7-5-11.6-7.3-3.2-1.8-2.2-4.8-2.1-7.3,0-2.4,2.1-3,4.1-3.3,9.5-1.2,18.9-2.4,28.4-3.6,3-.4,6.1-.5,9.1-1.3,1.5-.4,2.7-1.8,4.1-2.9,1.3-1,2.6-2.1,3.7-3.1-1.6-1.1-3.3-1.9-4.7-3.1-15.1-13.5-30.1-27-45.2-40.6-.8-.7-1.5-1.4-2.9-2.8Z"/>
</svg>