<?xml version="1.0" encoding="UTF-8"?>
<svg id="Layer_1" data-name="Layer 1" xmlns="http://www.w3.org/2000/svg" version="1.1" xmlns:xlink="http://www.w3.org/1999/xlink" viewBox="0 0 612 792">
  <defs>
    <style>
      .cls-1 {
        fill: #19994c;
      }

      .cls-1, .cls-2, .cls-3, .cls-4, .cls-5, .cls-6, .cls-7, .cls-8, .cls-9, .cls-10, .cls-11, .cls-12, .cls-13, .cls-14, .cls-15, .cls-16, .cls-17, .cls-18 {
        stroke-width: 0px;
      }

      .cls-2 {
        fill: #231f20;
      }

      .cls-3 {
        fill: #97979a;
      }

      .cls-4 {
        fill: #97999c;
      }

      .cls-5 {
        fill: #cb2128;
      }

      .cls-6 {
        fill: #1b984c;
      }

      .cls-7 {
        fill: #19974a;
      }

      .cls-8 {
        fill: #96989b;
      }

      .cls-9 {
        fill: #119447;
      }

      .cls-10 {
        fill: none;
      }

      .cls-11 {
        fill: #989a9d;
      }

      .cls-19 {
        clip-path: url(#clippath-1);
      }

      .cls-20 {
        stroke: #010101;
        stroke-miterlimit: 10;
        stroke-width: .2px;
      }

      .cls-20, .cls-12 {
        fill: #010101;
      }

      .cls-13 {
        fill: #98999c;
      }

      .cls-21 {
        clip-path: url(#clippath);
      }

      .cls-14 {
        fill: #9d9ea1;
      }

      .cls-15 {
        fill: #949699;
      }

      .cls-16 {
        fill: #999a9d;
      }

      .cls-17 {
        fill: #2aace3;
      }

      .cls-18 {
        fill: #1e9c52;
      }
    </style>
    <clipPath id="clippath">
      <rect class="cls-10" x="161.7" y="493.7" width="157" height="48.9"/>
    </clipPath>
    <clipPath id="clippath-1">
      <rect class="cls-10" x="161.7" y="493.7" width="157" height="48.9"/>
    </clipPath>
  </defs>
  <g>
    <path class="cls-9" d="M353.1,345.1c10.4,6.4,21.1,12.2,33,15.4,4.4,1.2,9,2,13.7,3.1h-201.3c0-.1,0-.2,0-.3,2.9-.5,5.8-1,8.7-1.6,13.5-3,25.6-9.3,37.3-16.5.3-.2.4-.6.7-.8,1.8-1,3.6-2,5.4-3.1,3.9-2.4,7.9-4.9,11.8-7.2,8.5-5.1,17.2-9.7,27.1-11.5,1.5-.3,3-.5,4.5-.7v-14.8c-12.3-1.6-22.7-6.7-31-15.9-8.3-9.2-12.5-20.1-12.5-32.6,13,.4,24,4.8,33.2,13.5,9.2,8.7,14.2,19.5,15.4,32.2,1.5-12.6,6.4-23.6,15.7-32.3,9.3-8.7,20.5-13.1,33.4-13.3,0,9.5-2.4,18.1-7.4,25.9-8.5,13.3-20.9,20.7-36.6,22.7v14.7c.3.1.6.2.9.3,9.5,1.2,18.1,5,26.3,9.7,5.4,3.1,10.8,6.4,16.1,9.7,1.9,1.3,3.9,2.5,5.8,3.8h0Z"/>
    <path class="cls-15" d="M353.1,345.1c-1.9-1.3-3.9-2.5-5.8-3.8,4.7-4.1,10-7.7,14.2-12.3,22.2-24.4,29-52.9,19.3-84.3-12.9-41.9-54.9-66.7-98-58.5-38.1,7.2-66.7,38.9-69.6,78.3-1.1,15.3,1.8,30,8.6,43.8,6.7,13.5,16.3,24.4,28.6,33-1.8,1-3.6,2-5.4,3.1-3.1-2.4-6.4-4.6-9.2-7.3-15.3-14.6-24.9-32.4-27.7-53.4-4.2-31.7,5.5-58.8,28.8-80.7,14.6-13.7,32.2-21.5,52.2-23.5,21.2-2.2,40.9,2.3,58.9,13.7,16.3,10.3,28.1,24.4,35.6,42.1,4.8,11.4,7.3,23.2,7.1,35.5-.5,29.8-12.6,54-36,72.6-.7.5-1.1,1.3-1.7,1.9h0Z"/>
    <path class="cls-7" d="M374.1,390.4c-1,0-1.6,0-2.4-.1v-14.9c-.1,0-.2,0-.3-.1-.2.5-.5.9-.7,1.4-1.7,4.1-3.3,8.2-5,12.2-.3.6-1.1,1.4-1.8,1.4-.5,0-1.3-.8-1.5-1.5-1.8-4.4-3.5-8.8-5.7-13.1v14.5h-2.5c0-5.6,0-11.2,0-16.8,0-.5.8-1.3,1.3-1.4,1.4-.3,2.8-.1,3.5,1.6,1.3,3.6,2.8,7.1,4.2,10.6.3.7.6,1.3,1,2.3,1.9-4.5,3.5-8.6,5.3-12.6.4-.8,1.3-1.7,2.1-1.9,1.6-.5,2.6,0,2.6,2.1-.1,5.3,0,10.6,0,16.2h0Z"/>
    <path class="cls-16" d="M307.7,379.5c1,4.4-1.4,7-6.1,6.2-.5,0-1.1.3-1.6.4.4.4.8,1.2,1.3,1.3,1.2.2,2.5.2,3.8.3,2.5.1,4,1.3,4.2,3.2.2,2-1.1,3.8-3.4,4.3-1.4.3-2.8.5-4.2.3-4.6-.6-5.5-2.6-3.1-6.5-.2,0-.4,0-.6-.1.2-1.4.4-2.8.6-4.2,0-.5,0-1,0-1.4-1.3-3.9,1.3-7.1,5.4-6.6,1.2.1,2.4,0,3.6.3.6,0,1.3.4,1.9.7-.4.5-.9,1.1-1.6,1.9h0ZM303.5,393.6c.3,0,1.2.1,1.7-.3.7-.7,1-1.7,1.5-2.6-1.2-.4-2.4-1.1-3.6-1.2-1,0-2.5.4-3,1.2-1.2,1.6.1,2.8,3.4,2.9ZM305.6,380.9c0-1.4-.9-2.4-2.7-2.3-1.7,0-2.6.9-2.7,2.6,0,1.7.9,2.7,2.6,2.8,1.6.1,2.8-1.1,2.8-3.1Z"/>
    <path class="cls-11" d="M226,379.3c1,4.8-1.2,7.1-6.2,6.3-.5,0-1,.3-1.5.4.4.5.7,1.2,1.2,1.3,1.2.3,2.4.2,3.6.3,2.8.1,4.4,1.3,4.5,3.4.1,2.2-1.4,3.9-4,4.2-1.7.2-3.6.2-5.3-.1-2.4-.5-3.4-2.7-2.1-4.8.6-1,.8-1.8.1-2.8,0-.1-.2-.3-.1-.4,1.2-2.3,0-4.7.4-7,.3-2.2,2.8-3.7,5.3-3.5,1.3.1,2.5.1,3.8.3.7.1,1.3.5,2,.8-.5.5-1,1-1.6,1.6h0ZM221,389.4c-.4,0-1.4,0-1.9.5-.6.5-1.1,2-.9,2.2.8.7,1.9,1.3,2.9,1.4,1.7.2,3.9.2,3.9-2.1,0-2.1-2.2-1.8-4-2h0ZM221.1,384c1.8,0,2.9-1.2,2.9-2.9,0-1.6-.8-2.5-2.5-2.5-1.9,0-2.8,1-2.8,2.7,0,1.7,1,2.5,2.5,2.7Z"/>
    <path class="cls-13" d="M254.6,377.3c1.8-.8,2.5-.3,2.9,1.2.8,2.8,1.6,5.5,2.9,8.2.7-2.5,1.3-5.1,2.1-7.6.3-.8,1.1-1.5,1.6-2.2.6.7,1.5,1.3,1.8,2.1.9,2.6,1.6,5.3,2.7,7.9.8-2.8,1.7-5.7,2.5-8.5.4-1.4,1-1.9,2.7-1.2-.4,1.4-.8,2.9-1.2,4.4-.8,2.5-1.5,5-2.4,7.4-.2.6-1.2,1.3-1.9,1.3-.6,0-1.6-.7-1.8-1.4-.9-2.4-1.5-4.9-2.6-7.3-.7,2.5-1.3,5-2,7.5-.2.5-.9,1.1-1.5,1.2-.6.1-1.8-.2-1.9-.6-1.4-4.1-2.7-8.3-4-12.5h0Z"/>
    <path class="cls-18" d="M350,390.4c-2.9,0-5.7,0-8.4,0-1.2,0-1.6-.5-1.6-1.6,0-5.1,0-10.1,0-15.2,0-.5,1-1.5,1.5-1.5,2.4-.2,4.8-.1,7.2,0,.5,0,.9.6,1.4,1-.5.4-1,1-1.5,1.1-1.9.1-3.9,0-6.1,0v5.6c1.7,0,3.4,0,5.1,0,.5,0,1,.7,1.5,1.1-.5.3-1,.8-1.5.9-1.6.1-3.3,0-5,0v6.5c2,0,3.9,0,5.9,0,1.5,0,1.5,0,1.4,2.1h0Z"/>
    <path class="cls-1" d="M311.5,387.2c1.7.5,3.3,1,4.9,1.2,1.6.2,3-.5,3.4-2.2.5-1.7-.5-2.7-1.9-3.4-1.1-.6-2.3-1.1-3.4-1.7-2.4-1.4-3.4-3.4-2.8-5.7.6-2.3,2.5-3.6,5.3-3.6.9,0,1.8.1,2.6.4,1.5.4,2.2,1.2,1.5,2.9-1.1-.4-2.2-.9-3.3-1.2-1.5-.3-2.9,0-3.5,1.7-.6,1.5.3,2.6,1.6,3.3,1.3.7,2.7,1.3,4,2,2,1.1,2.9,2.8,2.6,5-.3,2.3-1.6,4-3.9,4.3-2,.3-4.1,0-6.1-.5-1.4-.3-1.4-.8-1-2.6h0Z"/>
    <path class="cls-1" d="M377.8,387.2c1.7.5,3.1,1.1,4.6,1.3,1.6.2,3.2-.3,3.7-2.2.5-1.8-.5-2.8-2-3.6-1.2-.7-2.6-1.2-3.8-1.9-2-1.3-2.8-3.3-2.3-5.4.5-2.1,2.1-3.4,4.6-3.5,1.2,0,2.4.1,3.5.4,1.4.3,2,1.2,1.3,2.8-1-.4-1.9-.8-2.8-1.1-1.6-.4-3.3-.3-4,1.5-.7,1.7.4,2.8,1.8,3.6,1.3.7,2.6,1.2,3.8,1.9,1.9,1.1,2.6,2.7,2.4,4.9-.2,2.1-1.3,3.5-3.2,4.2-2.3.9-4.5.8-6.7-.2-1.3-.6-1.4-.8-1.1-2.7h0Z"/>
    <path class="cls-11" d="M240,383.8c0-4.6,2.3-7.2,6.4-7.3,4,0,6.3,2.4,6.3,6.8,0,4.6-2.5,7.4-6.6,7.4-4,0-6.1-2.4-6.1-6.9h0ZM242.4,384c0,.1,0,.7.1,1.2.4,2,1.3,3.4,3.7,3.4,2.2,0,3.5-1,3.8-3.5.2-1.3.1-2.7-.2-3.9-.4-1.6-1.6-2.4-3.3-2.5-2.6,0-4.1,1.8-4.2,5.3h0Z"/>
    <path class="cls-8" d="M292.1,389.9c0-2.5,0-5.1,0-7.6,0-2.4-1.1-3.7-2.7-3.6-1.7,0-3.5,2-3.5,3.9,0,2,0,4,0,6,0,1.6-.6,2-2.2,1.5v-13.6c1,.5,1.7.8,2.7,1.3.3-.1.9-.6,1.5-.9,2.9-1.3,6.1.3,6.3,3.4.2,2.9.2,5.8,0,8.7,0,.5-1,.9-1.6,1.4-.2-.2-.4-.4-.6-.7h0Z"/>
    <path class="cls-6" d="M331.9,390.3h-2.4v-16.2c-1.6,0-3,0-4.4,0-.5,0-1-.6-1.5-.9.5-.4,1-1.1,1.5-1.1,3.6,0,7.2,0,10.9,0,.5,0,1,.7,1.5,1.1-.5.3-1,.9-1.6,1-1.3.1-2.5,0-4,0v16.2Z"/>
    <path class="cls-4" d="M233,390.1c-1.5.4-2.3.4-2.3-1.2,0-3.9,0-7.7,0-12.3,1.1.6,1.9.9,2.3,1.2,1.4-.3,2.9-.7,4.4-.8.3,0,.6,1.1,1,1.9-4.8.6-5.5,1.4-5.5,5.9v5.4Z"/>
    <path class="cls-3" d="M276.8,390.2c0-4.2,0-8.1,0-12,0-.4.7-.9,1-1.3.4.5,1.2.9,1.2,1.4,0,3.6,0,7.1,0,10.7,0,1.7-1,1.5-2.3,1.2h0Z"/>
    <path class="cls-14" d="M278.1,370.7c.7,1.3,1.4,1.9,1.3,2.5,0,.5-1,1.3-1.4,1.3-.6-.1-1.3-.9-1.4-1.4,0-.5.7-1.1,1.5-2.3h0Z"/>
    <path class="cls-17" d="M300.4,204c-.5,7.7,3.5,12.9,7.8,18,2.6,3.1,4.9,6.4,7.3,9.6,7.3,10,.6,24.2-11,27-12.4,3.1-24.4-7.2-23-19.9.2-1.9,1-4,2.1-5.6,3.1-4.5,6.4-9,9.9-13.2,3.3-4,5.2-8.5,5.9-13.5,0-.5.2-1,.3-1.5,0-.1.2-.2.7-.8h0Z"/>
  </g>
  <g>
    <path class="cls-12" d="M317.7,465.5c.8.2,1.5.3,2.3.5-.2,1.2-.4,2.4-.7,3.7h-18.8c.2-1.2.4-2.3.6-3.4,0-.1.3-.3.4-.3.5-.2,1.1-.3,1.6-.5,2.7-.8,4.5-2.5,5.2-5.2,1-3.3,1.8-6.7,2.6-10.1,2.4-10.7,4.7-21.4,7.1-32.2.2-.9.4-1.8.5-2.7.4-2.4-1-4.1-3.4-4.3-1.1,0-2.1-.2-3.2-.3.2-1.2.5-2.3.7-3.4,0-.4.4-.3.6-.3h13s1.3.6,1.6,1.4c5.2,13.7,10.4,27.4,15.7,41,0,.1.1.3.2.4.5,0,.7-.3.8-.7,1.6-8.8,3.3-17.5,5-26.3.3-1.6.6-3.1.8-4.7.2-1.7,0-3.3-.9-4.7-.9-1.4-2.2-2.2-3.8-2.2-.6,0-1.1,0-1.7-.1.3-1.2.8-3.7.8-3.7h16.8c-.2,1.1-.5,2.3-.8,3.4,0,.1-.2.3-.4.3-.6.2-1.3.4-1.9.6-1.8.8-2.9,2.3-3.4,4.1-.8,2.8-1.5,5.6-2.1,8.5-1.3,6.5-2.5,13-3.7,19.5-.2,1.2-.4,2.4-.7,3.8,6.9-3.3,13.6-6.5,20.3-9.8,0-.2-.2-.3-.2-.4-2-2.4-3.1-5.2-3.4-8.3-.4-3.6-.3-7.3.8-10.8,1.3-4.2,3.6-7.8,7.3-10.2,2.6-1.7,5.4-2.3,8.4-2.3,4.3,0,7.9,1.8,11,4.8.4.4.9.9,1.3,1.3.3.3.5.4.8,0,.8-.8,1.6-1.6,2.3-2.5.6-.7,1.3-1,2.2-1,.5,0,1.1,0,1.7,0-.9,5-1.7,10-2.6,15.1.4-.1.6-.2.9-.4,1.8-.8,3.6-1.7,5.4-2.6.6-.3,1.1-.7,1.5-1.2.5-.6,1-1.3,1.5-2-.9-.6-1.8-1.1-2.8-1.8.9-.6,1.8-1.1,2.8-1.7-.6-.9-1.3-1.8-2-2.8,1.1-.2,2.1-.3,3.1-.5-.3-1.1-.5-2.2-.8-3.4,1.1.3,2.1.6,3.1.9.1-1.2.3-2.3.4-3.5.9.7,1.7,1.4,2.5,2.2.5-1,1.1-2,1.6-3,.6,1,1.1,2,1.6,3,.8-.7,1.7-1.4,2.5-2.1.2,1.2.3,2.3.4,3.5,1-.3,2-.6,3.1-.9-.3,1.2-.5,2.3-.8,3.4,1,.1,2,.3,3.1.5-.7.9-1.3,1.8-2,2.8.9.6,1.8,1.1,2.7,1.7-.9.6-1.8,1.1-2.7,1.7.6.9,1.3,1.8,1.9,2.8-1.1.2-2.1.3-3.1.5.3,1.1.5,2.2.8,3.4-1.1-.3-2.1-.6-3.1-.9-.1,1.2-.3,2.3-.4,3.5-.9-.7-1.7-1.4-2.5-2.1-.5,1-1.1,2-1.6,3.1-.6-1-1.1-2-1.6-3.1-.8.7-1.7,1.4-2.5,2.1-.1-1.2-.3-2.3-.4-3.5-1,.3-1.9.6-3,.9,0-.5,0-.8.1-1.3-1.1.5-2.1,1-3.1,1.5-2.3,1.1-4.6,2.2-7,3.2-.3.2-.5.4-.6.7,0,.5-.2,1.1-.4,1.7-.8,0-1.7,0-2.5,0-.2,0-.4-.3-.6-.5-2.4,1.1-4.9,2.3-7.4,3.5.2.2.4.3.6.4,1.5,1,3.1,1.9,4.5,3.1,2.8,2.4,4.3,5.7,4.9,9.3.7,4.5.4,9-1.4,13.3-2.4,5.8-6.4,9.9-12.6,11.3-5.2,1.2-10.2.8-14.8-2.2-1.7-1.1-3.2-2.4-4.5-4.1-.3.3-.6.7-.8,1-.6.8-1,1.6-1.6,2.3-.3.3-.8.6-1.3.7-.7.1-1.4,0-2.1,0,1.3-7.5,2.5-14.8,3.8-22.2h2.8c0,1,.1,2.1.2,3.1.2,3.5.6,7,2.1,10.3,2.1,4.6,5.6,7.3,10.6,7.9,5,.6,9.8-2.6,11.5-7.5,1-2.7,1.1-5.5,0-8.2-.7-1.8-1.9-3.1-3.5-4-4.3-2.3-8.6-4.7-12.9-7-.2-.1-.5-.2-.7,0-7.5,3.5-15,7-22.5,10.5-.8.4-1.2,1-1.3,1.8-1,5.6-2.1,11.1-3.1,16.7,0,.5-.3.6-.7.5-.9,0-1.8,0-2.7,0-.4,0-.6-.1-.7-.5-1.5-3.9-3-7.8-4.5-11.6,0-.2-.2-.4-.3-.7-6,2.8-11.9,5.6-17.8,8.3,0,0,0,.2,0,.2h0ZM321.6,420.5c0,0-.1,0-.2,0,0,.3-.2.6-.3.9-.7,3.2-1.4,6.4-2.1,9.5-1.6,7.1-3.2,14.2-4.7,21.4-.4,2-.8,4-1,6-.2,1.7.2,3.4,1.2,4.9.3.4.5.5,1,.3,6-2.9,12.1-5.8,18.1-8.7.3-.1.5-.3.8-.4-4.3-11.3-8.7-22.6-13-33.9h0ZM382.5,409.6c-3.2-.1-7.4,1.8-9,6.3-.7,2-.9,4.1-.7,6.2.2,2.3,1.2,4.1,3.2,5.3,2.2,1.3,4.4,2.5,6.7,3.8.1,0,.4,0,.5,0,3.6-1.7,7.2-3.4,10.8-5.1.3-.1.4-.3.3-.6-.2-1.3-.3-2.6-.5-3.9-.5-2.9-1.6-5.7-3.5-8-2-2.5-4.6-3.8-7.8-3.9h0ZM421.3,414.6c.4-.6.8-1.2,1.3-1.9-.7-.1-1.4-.3-2.1-.4.1-.7.2-1.4.4-2.2-.7.2-1.3.3-2,.5-.1-.8-.2-1.4-.4-2.2-.6.5-1.1.9-1.6,1.3-.4-.6-.7-1.2-1.1-1.9-.4.7-.7,1.3-1,1.9-.5-.4-1.1-.8-1.7-1.3-.1.8-.3,1.5-.4,2.2-.7-.2-1.3-.3-2-.5.2.8.3,1.5.4,2.2-.6.1-1.1.2-1.6.3-.1,0-.2.2-.3.3.1,0,.2.2.3.3.3,0,.6.1.9.1,2,0,4,0,6,0,.2,0,.5,0,.6.1.9.8,1.8,1.7,2.7,2.5-1.6,2.7-4.5,3.5-7,4.8.1.8.2,1.5.3,2.4.6-.5,1.1-.9,1.7-1.3.4.6.7,1.2,1.1,1.9.4-.7.7-1.3,1.1-1.9.6.4,1.1.9,1.7,1.3.1-.8.2-1.5.4-2.2.7.2,1.3.3,2,.5-.2-.8-.3-1.5-.4-2.2.7-.1,1.4-.3,2.1-.4-.4-.7-.8-1.2-1.3-1.9.6-.4,1.2-.8,1.9-1.2-.7-.4-1.2-.8-1.9-1.2h0ZM409.7,418.3c.7,0,4.3-1.7,4.4-2.1h-4.7c0,0,0,0,0,.1.3.3.7.6,1,.8-.2.4-.4.7-.7,1.2Z"/>
    <path class="cls-12" d="M403.5,434.1c.3-1.2.5-2.4.8-3.5,0-.1.3-.3.4-.3,3.7-.2,7.4-.4,11.1-.6,1,0,2.1-.1,3.2-.2-.1.6-.2,1.2-.3,1.8-1.6,7.4-3.1,14.8-4.7,22.1-.7,3.2-1.4,6.4-2,9.6-.1.6,0,1.3.1,1.9,0,.5.5.7,1,.4.6-.3,1.1-.7,1.5-1.2,2-2.3,3.3-5,4.6-7.8.2-.4.3-.7.5-1.2.7.5,1.4,1,2.1,1.6,0,0,.1.3,0,.4-1.7,3.8-3.5,7.6-6.4,10.6-1.4,1.5-3,2.7-5,3.1-3.4.8-5.8-.8-6.7-4.2-.5-2.2-.3-4.4.2-6.6,1.3-6.2,2.5-12.4,3.8-18.6.3-1.5.6-3,.8-4.5.3-1.9-.9-3.1-2.8-3-.8,0-1.7,0-2.6,0h0Z"/>
    <path class="cls-12" d="M317,476.5c-.3.6-.6,1.2-1,2-.4-.9-1-1.1-1.6-1.2-.8-.1-1.6,0-2.3,0-.2,0-.5.2-.7.4-.3.3-.2.8.2.9.5.1,1,.2,1.5.3.8.1,1.6.2,2.3.4,1.1.3,1.7,1.1,1.7,2.1,0,1-.5,1.8-1.5,2.2-1.8.7-3.6.5-5.3-.2-.3-.1-.6-.2-1-.3.3-.6.6-1.2.9-2,.7,1.6,3.8,1.9,4.6,1.2.2-.2.5-.6.5-.8,0-.2-.4-.5-.7-.5-.9-.2-1.9-.2-2.9-.4-.9-.1-1.6-.5-2-1.4-.3-.8-.2-1.5.3-2.2.6-.8,1.5-1.1,2.5-1.2,1.2,0,2.3.1,3.4.6.3.1.7.2,1.2.3h0Z"/>
    <path class="cls-12" d="M404.5,483.8c-.8-1.4-1.5-2.7-2.3-4,0,1.3,0,4.3,0,4.3h-2.1c.6-.5.4-1.1.4-1.7,0-1.3,0-2.7,0-4,0-.4-.1-.8-.2-1.2h2.7c-.5.5-.1.9.1,1.4.5.8.9,1.7,1.4,2.6.4-.6.7-1.2,1-1.7.2-.4.5-.8.7-1.2.2-.3.3-.7-.1-1h2.7c0,.4-.2.9-.2,1.3,0,1.3,0,2.7,0,4,0,.4.1.8.2,1.2h-2.1s.2-1,.2-1.5c0-.8,0-1.7-.1-2.6-.8,1.4-1.6,2.7-2.5,4.1h0Z"/>
    <path class="cls-12" d="M389.3,480.9c.3.5.7,1.1,1,1.5-.5.2-1,.4-1.5.7-1.5.8-3.1.9-4.7.5-1.9-.5-3.1-2.2-3-4.1,0-2,1.4-3.5,3.4-3.9,1.6-.3,3.2-.1,4.7.7.3.2.7.3,1.2.5-.3.5-.7,1.1-1.2,1.7-.2-.8-.8-1.1-1.3-1.3-.9-.4-1.8-.4-2.8-.2-1.3.3-2.1,1.3-2.1,2.6,0,1.3.8,2.3,2,2.7,1.3.3,2.5.1,3.6-.6.3-.2.4-.5.7-.8h0Z"/>
    <path class="cls-12" d="M361.7,476.9h2.2c0,.6,0,.9.1,1,1.1,1.1,2.2,2.2,3.4,3.3.3-.8-.2-4-.2-4h2.1c0,.4-.2.7-.2,1,0,1.4,0,2.8,0,4.2,0,.3.1.7.2,1h-2.3s.2-.2,0-.5c-1.2-1.1-2.3-2.2-3.5-3.4-.3,1.2-.1,3.7.3,4.2h-2.3c.5-.5.3-1.1.3-1.7,0-1.3,0-2.6,0-3.9,0-.3-.1-1-.1-1v-.3Z"/>
    <path class="cls-12" d="M432.8,481.3c0-1.3,0-2.4,0-3.4,0-.2-.3-.7-.3-.7h2c0,.4-.2.8-.2,1.2,0,1.4,0,2.7,0,4.1,0,.3.1.6.2,1h-2.3s.1,0,.2-.1c-1.3-1.2-2.5-2.5-3.9-3.8,0,1.3,0,2.5,0,3.7,0,.2.3.6.3.6h-2.3c.6-.5.4-1.1.4-1.7,0-1.3,0-2.7,0-4,0-.4-.1-.7-.2-1.1h2.5s-.1.9.1,1.2c1.1,1,2.1,2.1,3.3,3.2h0Z"/>
    <path class="cls-12" d="M395.2,484c-.4,0-.9,0-1.3-.2-1.7-.5-2.6-1.8-2.6-3.6,0-1.5,1.2-2.8,2.8-3,.9-.1,1.8-.1,2.6,0,1.7.4,2.5,1.7,2.5,3.5,0,1.4-1.1,2.7-2.7,3-.4,0-.8.1-1.3.2ZM395.2,482.6c1.3,0,2.3-.9,2.3-2.1,0-1.3-.9-2.2-2.3-2.2s-2.3.9-2.3,2.2.9,2.2,2.3,2.2h0Z"/>
    <path class="cls-12" d="M356.4,484.1c-.5-.1-1.2-.2-1.8-.5-1.4-.6-2.1-1.9-2-3.3.2-1.6,1.2-2.8,2.8-3.1.9-.1,1.8-.1,2.6,0,1.6.4,2.5,1.7,2.5,3.3,0,1.6-1.1,2.9-2.7,3.2-.4,0-.8.1-1.4.2h0ZM356.6,482.6c1.3,0,2.3-.9,2.3-2.1,0-1.3-.9-2.2-2.2-2.2-1.3,0-2.3.9-2.3,2.1,0,1.3.9,2.2,2.2,2.2Z"/>
    <path class="cls-12" d="M321.8,484c-.5,0-1-.1-1.5-.3-1.5-.5-2.4-1.9-2.3-3.5.1-1.6,1.2-2.8,2.9-3.1.8-.1,1.7,0,2.6.1,1.7.4,2.5,1.7,2.5,3.5,0,1.5-1.1,2.7-2.7,3.1-.4,0-.8.1-1.3.2h0ZM319.6,480.5c0,1.3.9,2.2,2.2,2.2,1.3,0,2.3-.9,2.3-2.2,0-1.3-1-2.2-2.3-2.2s-2.2.9-2.2,2.2Z"/>
    <path class="cls-12" d="M298.4,477.2c0,0,.3,0,.5,0,1.7,0,3.4,0,5.1,0,.3,0,.6-.1.9-.2v1.7c-.4,0-.7-.2-1.1-.2-1.2,0-2.3,0-3.5,0v1.4c1-.2,2.1.3,3.1-.3v1.8c-1-.7-2-.2-3.1-.4v1.6c1.4,0,2.9,0,4.3,0,.2,0,.4-.2.6-.3v1.8c-.5,0-.9-.2-1.4-.2-1.7,0-3.4,0-5.1,0s-.4,0-.4,0c.1-.4.3-.8.3-1.2,0-1.4,0-2.9,0-4.3,0-.4-.1-.7-.2-1.1h0Z"/>
    <path class="cls-12" d="M376.2,479.4c-.4-.7-1-.9-1.6-1-.6,0-1.3,0-1.9,0-.4,0-.8.2-.7.7,0,.2.5.4.8.5.8.1,1.7.1,2.5.3,1.3.2,2,1,1.9,2.2,0,.9-.7,1.4-1.5,1.7-1.4.5-2.9.3-4.3-.2-.3,0-.6-.2-.9-.3.2-.5.4-1,.7-1.6.4.8,1.2.9,1.9,1,.7,0,1.4,0,2.1-.1.2,0,.3-.4.5-.6-.2-.2-.5-.4-.7-.5-.8-.1-1.6-.2-2.5-.3-1.3-.1-2-.9-1.8-2.2,0-.8.6-1.3,1.3-1.6,1.3-.5,2.6-.4,3.9.1.4.1.8.3,1.2.4-.2.4-.5.9-.8,1.5h0Z"/>
    <path class="cls-12" d="M292,483.7h-2.2c0-.5.2-1,.2-1.4,0-1.4,0-2.7,0-4.1,0-.3-.1-.7-.2-1h2.1c-.6.8-.3,1.6-.3,2.5h3.7c-.1-.8.3-1.7-.4-2.5h2.4c0,.4-.2.8-.2,1.2,0,1.4,0,2.9,0,4.3,0,.3.2.6.3,1h-2.3c.7-.9.2-1.8.4-2.8-1.2,0-2.3,0-3.5,0,0,0-.2.2-.2.4,0,.6,0,1.1,0,1.7,0,.3.2.5.3.8h0Z"/>
    <path class="cls-12" d="M412.3,481.3c.2.8-.3,1.7.4,2.5h-2.2c0-.4.2-.7.2-1.1,0-1.4,0-2.8,0-4.2,0-.3-.1-.6-.3-.9,0,0,0,0,0,0,1.7,0,3.4,0,5.1,0,1.1,0,1.7.8,1.7,1.8,0,1-.6,1.7-1.7,1.8-1.1.1-2.1.1-3.3.2h0ZM412.4,479.8c.9,0,1.8,0,2.7,0,.4,0,.6-.2.7-.6,0-.5-.2-.7-.6-.7-.9,0-1.8,0-2.8,0v1.4h0Z"/>
    <path class="cls-12" d="M333.8,476.9h2.1c0,.7-.2,1.2-.2,1.7,0,.9,0,1.8,0,2.6,0,.8.3,1.1,1.1,1.3.4,0,.8.1,1.3,0,1-.1,1.3-.6,1.3-1.5,0-1,0-2,0-2.9,0-.3-.1-.6-.2-.9h2c0,.4-.2.9-.2,1.3,0,1,0,2,0,3,0,1.3-.5,1.9-1.7,2.2-1.1.3-2.3.3-3.4,0-1-.3-1.6-.9-1.6-1.9,0-1.2,0-2.3,0-3.5,0-.4-.1-.7-.2-1.1v-.3Z"/>
    <path class="cls-12" d="M284,477.1c-1.1.2-2.1-.3-3.1.4v-1.9c.5,0,1,.2,1.5.2,1.8,0,3.6,0,5.5,0,.3,0,.6-.1,1-.2v2c-1-.6-2-.2-3.1-.4v2.4c0,1.1,0,2.1,0,3.2,0,.4.2.7.3,1.1h-2.6c.6-.4.5-1,.5-1.5,0-1.5,0-3,0-4.5v-.7h0Z"/>
    <path class="cls-12" d="M420,483.7h-2.2c.3-.4.6-.9.8-1.3.7-1.3,1.4-2.7,2-4,.2-.4.4-.8-.2-1.2h2.8c-.5.5-.2.9,0,1.3.7,1.4,1.5,2.8,2.2,4.2.2.3.4.5.6.8h-2.7s.5-.3.2-.7c-.2-.4-.5-.6-1-.6-.6,0-1.3,0-1.9,0-.6,0-.7.4-.8.8,0,.2,0,.5,0,.9h0ZM422.8,481.3c-.4-.7-.7-1.3-1-2-.4.7-.6,1.3-1,2h2Z"/>
    <path class="cls-12" d="M440.2,483.7h-2.3c.7-.9.3-2,.4-2.9,0,0,0,0,0-.1-1-1.2-1.6-2.7-2.9-3.6,0,0,0,0-.1-.2h3.2s-.3,1.1,0,1.5c.3.3.5.7.8,1.1.3-.4.6-.8.9-1.2.3-.3-.2-1-.2-1h2.9c-.9,1.1-1.7,2.3-2.6,3.4-.1.2-.1.4-.2.6,0,.5,0,1.1,0,1.6,0,.3.1.6.2.9h0Z"/>
    <path class="cls-12" d="M341.8,476.9c.3,0,.6.2.9.2,1.6,0,3.3,0,4.9,0,.3,0,.6-.1.9-.2v1.9c-.7-.6-1.6-.2-2.5-.4v1.6c0,.9,0,1.8,0,2.6,0,.4.1.8.2,1.2h-2.4c.5-.4.4-1,.4-1.6,0-1.2,0-2.5,0-3.8-.9.1-1.7-.3-2.5.4v-1.8h0Z"/>
    <path class="cls-12" d="M328.9,482.5c1.3,0,2.5,0,3.6,0,.2,0,.4-.2.7-.3v1.8c-.5,0-.9-.2-1.4-.2-1.6,0-3.2,0-4.7,0,0-.5.2-1,.2-1.5,0-1.3,0-2.6,0-3.9,0-.4-.1-.8-.2-1.2h2c0,.4-.2.8-.2,1.2,0,1.4,0,2.7,0,4.2h0Z"/>
    <path class="cls-12" d="M349.4,477.2h2.1c0,.5-.2.9-.2,1.4,0,1.4,0,2.7,0,4.1,0,.4.1.7.2,1.1h-2.1c0-.4.2-.8.2-1.2,0-1.4,0-2.8,0-4.2,0-.4-.1-.7-.2-1.2h0Z"/>
  </g>
  <g>
    <path class="cls-12" d="M220.1,550.3h172.7c.1,0,.3.1.4.2,3.3.6,6,2.3,7.7,5.1.8,1.2,1.2,2.7,1.8,4v44.5c-.4,1-.7,2.1-1.2,3-2.2,3.9-5.4,6.1-10,6.1h-170.6c-.4,0-.8,0-1.2,0-5.4-.8-9.6-5.8-9.6-11.2,0-13.4,0-26.9,0-40.3,0-4.8,2.5-8.3,6.8-10.4,1-.5,2-.7,3.1-1h0ZM340.6,556.5h-1.2c-39.1,0-78.1,0-117.2,0-3.3,0-5.8,2.5-5.8,5.8,0,13,0,26.1,0,39.1s2.2,5.8,5.8,5.8h118.4v-50.7h0ZM347,556.5v50.7h44.2c3.3,0,5.7-2.3,5.7-5.5v-39.7c0-3.1-2.4-5.4-5.5-5.4h-44.3Z"/>
    <path class="cls-12" d="M280.1,593.5v10.6h-7.6v-27.6c.3,0,.5,0,.7,0h10.5c1.8,0,3.7.3,5.4,1,2.9,1.2,4.5,3.4,4.7,6.5.2,3.1-.6,5.7-3.2,7.6-.8.6-1.9.9-2.9,1.3,2.9,3.6,5.8,7.3,8.9,11.1-.3,0-.6,0-.8,0h-7.9c-.6,0-.9-.2-1.2-.6-2-3.1-4.1-6.1-6.1-9.2-.1-.2-.3-.4-.5-.8h0ZM280.1,588.7c1.5.2,2.9,0,4.3-.6,1.1-.5,1.5-1.5,1.5-2.6,0-1.1-.3-2.2-1.4-2.8-1.4-.7-2.8-.9-4.4-.7v6.7h0Z"/>
    <path class="cls-12" d="M270.2,604h-7.2c-.5,0-.8-.2-.9-.6-.4-1.2-.9-2.4-1.4-3.6-.1-.4-.4-.6-.8-.6h-9c-.4,0-.6.1-.8.6-.5,1.2-1,2.4-1.5,3.7-.1.2-.4.5-.6.5-2.4,0-4.8,0-7.4,0,.1-.4.2-.7.3-.9,3.4-8.6,6.9-17.3,10.3-25.9.2-.5.4-.7,1-.7,2.3,0,4.5,0,6.8,0s.7.1.8.5c3.4,8.8,6.8,17.6,10.2,26.3,0,.2.1.3.2.6h0ZM255.5,585c-1.1,3.1-2,5.9-3,8.7h6c-1-2.9-2-5.6-3-8.7h0Z"/>
    <path class="cls-12" d="M228.4,594.9v9.2h-7.6v-28c.3,0,.5,0,.8,0,3.5,0,7,0,10.6,0,1.4,0,2.8.2,4.2.5,4.1,1.1,6.2,3.6,6.4,7.9,0,1.4,0,2.8-.3,4.1-.8,3.5-3.6,5.8-7.5,6.1-1.8.1-3.7.1-5.5.2h-1.1,0ZM228.4,589.2c1.7-.2,3.2-.3,4.8-.5,1-.2,1.6-1.1,1.6-2.3,0-1.3.2-2.9-1.4-3.5-1.6-.7-3.3-.6-5.1-.5v6.9h0Z"/>
    <path class="cls-12" d="M317.1,601.6c1.1-2,2.1-3.9,3.2-5.8.7.5,1.4,1,2.1,1.5,1.8,1.1,3.7,1.8,5.8,1.2.4-.1.9-.3,1.2-.5,1.4-.9,1.5-2.9,0-3.7-1.3-.7-2.9-1.1-4.3-1.7-1.1-.4-2.2-.8-3.4-1.3-2.1-.9-3.2-2.4-3.5-4.7-.5-4.8,1.3-8.6,6-10.3,2.4-.9,5-.7,7.4-.2,1.8.4,3.6.9,5.3,1.9-.5,1-1,1.9-1.5,2.8-.5.9-1,1.8-1.4,2.6-1.3-.5-2.5-1.1-3.8-1.5-1.2-.3-2.4-.2-3.5.6-1.1.8-1.2,2.2,0,2.9,1.1.7,2.4,1.1,3.7,1.5,1.8.5,3.5,1.2,5,2.2,2.2,1.5,2.8,3.7,2.7,6.1,0,.8-.2,1.7-.3,2.5-.8,3.9-3.5,5.8-7.1,6.6-4.8,1.1-9.3,0-13.4-2.5,0,0-.2-.1-.3-.2h0Z"/>
    <path class="cls-12" d="M309.5,604h-7.3v-21.5h-6.2v-6.2h19.6v1.3c0,1.3,0,2.6,0,3.9,0,.7-.1,1-.9.9-1.5,0-2.9,0-4.4,0h-.9v21.6h0Z"/>
    <path class="cls-12" d="M255.2,573.3h-3.5c-.2,0-.4-.3-.5-.5-.3-.5-.3-1.4-.8-1.6-.5-.3-1.3-.1-1.9-.1h-2c-.5,0-.8.1-.8.5-.3,1.5-1.2,1.8-2.7,1.8-3-.1-5.9,0-8.9,0h-.9v-12.8c1.1,0,2.2,0,3.3,0,.1,0,.3.5.3.7v9.2h4.2v2.1s.1,0,.2,0c.1-.2.2-.4.3-.7,1.5-3.7,3-7.5,4.4-11.2.2-.5.4-.8,1-.7.9,0,1.8,0,2.7,0,.3,0,.6.2.7.4,1.7,4.2,3.3,8.4,4.9,12.6,0,0,0,.2,0,.3h0ZM248,564.3c-.4,1.3-.9,2.5-1.3,3.7,0,0,0,.1,0,.3h2.7c-.4-1.2-.8-2.4-1.2-3.5,0,0-.1-.2-.2-.4h0Z"/>
    <path class="cls-12" d="M322.3,560c1.1,0,2.2,0,3.2,0,.2,0,.4.3.5.6.8,2.1,1.7,4.2,2.5,6.4.6-1.4,1.1-2.6,1.6-3.8.4-.9.8-1.8,1.1-2.7.1-.4.3-.6.8-.6.8,0,1.7,0,2.5,0,.2,0,.6.2.6.4.7,4.2,1.3,8.4,2,12.6v.4h-3.6c-.3-2.4-.6-4.8-1-7.4-.2.3-.3.5-.4.7-.9,2-1.8,4.1-2.6,6.2-.2.6-.6.6-1.1.6-.5,0-.8-.2-.9-.6-.8-2-1.6-3.9-2.4-5.9-.1-.3-.3-.6-.4-1-.4,2.6-.8,5.1-1.1,7.5h-3.6c.8-4.5,1.6-8.9,2.4-13.4h0Z"/>
    <path class="cls-12" d="M260,573.3h-3.6v-13.4h3.3c.2,0,.5.3.6.4,1.8,2.2,3.7,4.5,5.5,6.7.2.2.4.4.7.8v-7.3c0-.5.1-.8.7-.8,1,0,1.9,0,2.9,0v13.5h-3.4c-.2.1-.4-.2-.6-.4-2-2.5-3.9-4.9-6.1-7.5v8h0Z"/>
    <path class="cls-12" d="M299.3,559.6c3.5,0,6.8,2.3,7.4,5.4,1.1,5.1-2.5,8.4-6.2,8.8-2.8.3-5.3-.3-7.2-2.4-3.6-4.2-1.5-10.3,4-11.5.6-.1,1.3-.2,2-.3h0ZM299.3,570.5c2.2,0,3.9-1.8,3.9-3.9,0-1.8-1.8-3.5-3.9-3.5s-3.9,1.6-3.9,3.6,1.7,3.9,3.8,3.9h0Z"/>
    <path class="cls-12" d="M312.1,573.3h-3.6c0-.3,0-.5,0-.8v-11.8c0-.7.2-.9.8-.8,2,0,3.9,0,5.8.2,3,.3,4.5,3.4,3,6-.5.9-1.3,1.5-2.4,1.7,1.4,1.8,2.8,3.6,4.3,5.4h-4.3c-.2,0-.4-.3-.6-.5-.8-1.2-1.6-2.4-2.4-3.6-.2-.3-.3-.5-.7-1v5h0ZM312,566c1,0,2,0,2.5-.9.2-.4.2-1.3-.1-1.7-.6-.8-1.5-.7-2.4-.6v3.2h0Z"/>
    <path class="cls-12" d="M224.7,568.8v4.4h-3.6v-13.3c0,0,.2,0,.3,0,2.2,0,4.4,0,6.6.1,2.5.2,4,2,3.9,4.4,0,2.7-1.5,4.2-4.1,4.4-.9,0-1.9,0-3,0h0ZM224.7,566.1c1,0,2.1.3,2.8-.6.4-.6.4-1.4,0-2-.7-.8-1.8-.6-2.8-.6v3.2h0Z"/>
    <path class="cls-12" d="M280.2,562.9h-4.3v2.2h3.9v3.1h-3.9v2.2h4.2v2.8h-7.8c0-.3,0-.5,0-.8v-11.8c0-.7.2-.9.8-.9,2.1,0,4.2,0,6.3,0,.6,0,.8.2.8.8,0,.7,0,1.4,0,2.3h0Z"/>
    <path class="cls-12" d="M286,568.2v5.3h-3.6v-13.7h7.1c.5,0,.8.1.7.7,0,.7,0,1.5,0,2.4h-4.2v2.2h3.9v3.1h-3.9Z"/>
    <path class="cls-12" d="M350,567.7c1.1-.5,2-1.1,3-1.4.5-.2,1.3,0,1.8.2,4.3,2,8.5,4.1,12.7,6.1.3.1.8.2,1.1,0,3.2-1.3,6.5-2.5,9.7-3.8.5-.2.9-.6,1.4-.8,1.3.9,1.4,1.1,1.1,1.8,3.9-3.7,7.6-7.7,12.8-9.7-2,5.2-6,8.9-9.8,12.8,1.2-.5,1.3.6,1.8.9-1.8,3.5-3.2,7.2-4.6,10.8-.3.6-.2,1.1.1,1.7,1.9,3.9,3.8,7.9,5.8,11.8.7,1.3.7,2.5-.1,3.8-.3.5-.6.9-1,1.5-1.4-1.5-2.7-3-4-4.4-2.7-3-5.5-6-8.1-9-.3-.3-.5-.8-.7-1.1-1.8,1.1-1.9,3.2-2.2,5.1-.3,2.5-.6,5-1,7.5,0,.7-.4,1-1.2,1.1-1,0-1.6-.2-2-1.1-.6-1.1-1.3-2.2-2-3.3-.4-.6-.5-1.1-.1-1.7.1-.1.1-.3.2-.5-.7,0-1.3.4-1.9-.3-.5-.6-.8-1.1-.3-1.8-1-.6-1.6.3-2.3.7-.2-.2-.4-.3-.6-.5-.4-.3-.5-.7,0-1.1.5-.5.7-1,.2-1.7-.3,0-.6.2-.9.3-.4-.4-.8-.9-1.3-1.4,0-.3.1-.7.2-1.1-.1,0-.2,0-.2,0-.9.6-1.7.4-2.6-.2-1-.8-2.2-1.4-3.2-2-.9-.5-.6-1.3-.6-2,0-.7.6-.8,1.1-.9,2.7-.3,5.3-.7,7.9-1,.8-.1,1.7-.1,2.5-.4s.8-.5,1.1-.8c.4-.3.7-.6,1-.9-.4-.3-.9-.5-1.3-.9-4.2-3.8-8.4-7.6-12.6-11.4-.2-.2-.4-.4-.8-.8h0Z"/>
  </g>
  <g>
    <g>
      <polygon class="cls-20" points="350.4 523.8 358.8 535.9 370.1 535.9 361.7 523.8 350.4 523.8"/>
      <path class="cls-20" d="M340.5,512.7v-13.4h8.5c3.2,0,5.6.7,7.2,2,1.6,1.4,2.5,3.3,2.5,5.8s-.8,4.3-2.3,5.6h11.9c.6-1.7.9-3.6.9-5.6,0-3.3-.8-6.2-2.4-8.7-1.6-2.4-3.9-4.3-6.8-5.6-2.9-1.3-6.4-2-10.5-2h-19.6v21.9h10.5Z"/>
      <rect class="cls-20" x="330" y="523.8" width="10.5" height="12.1"/>
    </g>
    <g>
      <path class="cls-20" d="M393.4,512.7c-.6-.4-1.3-.8-1.9-1.2,8.7-8.3,17.1-16.4,25.5-24.4-.1-.2-.3-.4-.4-.7-14.6,8.6-29.2,17.1-44.3,25.9.2.1.4.3.6.4h20.6Z"/>
      <path class="cls-20" d="M392,523.9c-4.5,4.3-9,8.6-13.5,12.9-4.4,4.2-8.8,8.4-13.2,12.7.1.2.2.3.3.5,14.9-8.7,29.8-17.4,44.7-26.1-6.1,0-12.2,0-18.3,0Z"/>
    </g>
    <g>
      <polygon class="cls-20" points="427.1 523.8 416.6 523.8 416.6 535.9 449.5 535.9 449.5 527.2 427.1 527.2 427.1 523.8"/>
      <rect class="cls-20" x="416.6" y="490.9" width="10.5" height="21.9"/>
    </g>
    <g>
      <path class="cls-20" d="M333.8,519c.4-.2.7-.4.9-.7.2-.3.3-.7.3-1.1s-.1-.8-.3-1.1c-.2-.3-.5-.6-.9-.7-.4-.2-.8-.3-1.3-.3h-2.5v5.8h1.3v-1.6h1.1s0,0,0,0l1.1,1.6h1.5l-1.3-1.9s0,0,0,0ZM333.4,516.4c.2.2.3.4.3.8s-.1.6-.3.8c-.2.2-.5.3-1,.3h-1.1v-2.1h1.1c.4,0,.8,0,1,.3Z"/>
      <path class="cls-20" d="M341.4,515.9c-.3-.3-.6-.5-1-.6-.4-.1-.8-.2-1.3-.2s-.9,0-1.3.2-.7.4-1,.6-.5.6-.7,1c-.2.4-.2.8-.2,1.2s0,.8.2,1.2c.2.4.4.7.7,1s.6.5,1,.6c.4.2.8.2,1.3.2s.9,0,1.3-.2c.4-.2.7-.4,1-.6.3-.3.5-.6.7-1,.2-.4.2-.8.2-1.2s0-.9-.2-1.2c-.2-.4-.4-.7-.7-1ZM340.8,518.9c0,.2-.2.4-.4.6-.2.2-.4.3-.6.4s-.5.1-.7.1-.5,0-.7-.1c-.2,0-.4-.2-.6-.4-.2-.2-.3-.4-.4-.6,0-.2-.1-.5-.1-.8s0-.5.1-.8c0-.2.2-.4.4-.6.2-.2.4-.3.6-.4.2,0,.5-.1.7-.1s.5,0,.7.1.4.2.6.4c.2.2.3.4.4.6,0,.2.1.5.1.8s0,.5-.1.8Z"/>
      <path class="cls-20" d="M348,518.1c0,0-.1,0-.2,0,.2-.1.4-.3.6-.5.2-.2.2-.5.2-.8,0-.5-.2-.9-.6-1.1s-1-.4-1.7-.4h-3v6.1h3.1c.8,0,1.4-.1,1.8-.4.4-.3.6-.7.6-1.2s0-.6-.3-.9c-.2-.2-.4-.4-.7-.6ZM346,516.2c.3,0,.6,0,.7.2.2.1.3.3.3.5s0,.4-.3.5c-.2.1-.4.2-.7.2h-1.3v-1.3h1.3ZM347.3,519.9c-.2.1-.5.2-.9.2h-1.7v-1.6h1.7c.4,0,.7,0,.9.2s.3.3.3.6,0,.5-.3.6Z"/>
      <path class="cls-20" d="M355,515.9c-.3-.3-.6-.5-1-.6-.4-.1-.8-.2-1.3-.2s-.9,0-1.3.2-.7.4-1,.6-.5.6-.7,1c-.2.4-.2.8-.2,1.2s0,.8.2,1.2c.2.4.4.7.7,1,.3.3.6.5,1,.6.4.2.8.2,1.3.2s.9,0,1.3-.2c.4-.2.7-.4,1-.6.3-.3.5-.6.7-1,.2-.4.2-.8.2-1.2s0-.9-.2-1.2c-.2-.4-.4-.7-.7-1ZM354.4,518.9c0,.2-.2.4-.4.6-.2.2-.4.3-.6.4s-.5.1-.7.1-.5,0-.7-.1c-.2,0-.4-.2-.6-.4-.2-.2-.3-.4-.4-.6,0-.2-.1-.5-.1-.8s0-.5.1-.8c0-.2.2-.4.4-.6.2-.2.4-.3.6-.4.2,0,.5-.1.7-.1s.5,0,.7.1.4.2.6.4.3.4.4.6c0,.2.1.5.1.8s0,.5-.1.8Z"/>
      <polygon class="cls-20" points="356.3 516.2 358.1 516.2 358.1 520.9 359.4 520.9 359.4 516.2 361.6 516.2 361.6 515.1 356.3 515.1 356.3 516.2"/>
    </g>
    <g>
      <path class="cls-20" d="M368.3,518.1c-.2-.1-.4-.2-.7-.3s-.5-.1-.7-.2c-.2,0-.5-.1-.7-.2-.2,0-.4-.1-.5-.2-.1,0-.2-.2-.2-.4s0-.2.1-.3c0-.1.2-.2.4-.2.2,0,.4,0,.7,0s.5,0,.8.1c.3,0,.6.2.8.3l.4-1c-.3-.2-.6-.3-1-.4s-.7-.1-1.1-.1c-.6,0-1,0-1.4.3-.4.2-.6.4-.8.7-.2.3-.3.6-.3.9s0,.6.2.8.3.4.5.5.4.2.7.3c.2,0,.5.1.7.2.2,0,.5.1.7.2.2,0,.4.1.5.2s.2.2.2.4,0,.2-.1.3-.2.2-.4.2c-.2,0-.4,0-.7,0s-.7,0-1.1-.2-.6-.3-.9-.4l-.5,1c.3.2.6.4,1.1.5s.9.2,1.4.2,1,0,1.4-.3c.4-.2.7-.4.8-.7.2-.3.3-.6.3-.9s0-.6-.2-.8c-.1-.2-.3-.4-.5-.5Z"/>
      <polygon class="cls-20" points="373.3 518.7 371.1 515.1 370 515.1 370 520.9 371 520.9 371 517.6 372.9 520.4 373.5 520.4 375.2 517.5 375.2 520.9 376.6 520.9 376.6 515.1 375.4 515.1 373.3 518.7"/>
      <path class="cls-20" d="M379.8,515.1l-2.7,6.1h1.4l.5-1.3h2.8l.5,1.3h1.4l-2.7-6.1h-1.4ZM379.6,518.8l.9-2.3.9,2.3h-1.9Z"/>
      <path class="cls-20" d="M388.2,518.1c-.2-.1-.4-.2-.7-.3s-.5-.1-.7-.2c-.2,0-.5-.1-.7-.2-.2,0-.4-.1-.5-.2-.1,0-.2-.2-.2-.4s0-.2.1-.3c0-.1.2-.2.4-.2.2,0,.4,0,.7,0s.5,0,.8.1c.3,0,.6.2.8.3l.4-1c-.3-.2-.6-.3-1-.4s-.7-.1-1.1-.1c-.6,0-1,0-1.4.3-.4.2-.6.4-.8.7-.2.3-.3.6-.3.9s0,.6.2.8.3.4.5.5.4.2.7.3c.2,0,.5.1.7.2.2,0,.5.1.7.2.2,0,.4.1.5.2.1,0,.2.2.2.4s0,.2-.1.3-.2.2-.4.2c-.2,0-.4,0-.7,0s-.7,0-1.1-.2-.6-.3-.9-.4l-.5,1c.3.2.6.4,1.1.5s.9.2,1.4.2,1,0,1.4-.3c.4-.2.7-.4.8-.7.2-.3.3-.6.3-.9s0-.6-.2-.8c-.1-.2-.3-.4-.5-.5Z"/>
      <polygon class="cls-20" points="393.9 517.5 391.3 517.5 391.3 515.1 390 515.1 390 521.2 391.3 521.2 391.3 518.8 393.9 518.8 393.9 521.2 395.3 521.2 395.3 515.1 393.9 515.1 393.9 517.5"/>
      <rect class="cls-20" x="396.8" y="515.1" width="1.3" height="6.1"/>
      <polygon class="cls-20" points="403.7 518.8 400.8 515.1 399.5 515.1 399.5 521.2 400.8 521.2 400.8 517.5 403.7 521.2 405 521.2 405 515.1 403.7 515.1 403.7 518.8"/>
      <path class="cls-20" d="M407.7,516.7c.2-.2.4-.3.6-.4s.5-.1.8-.1.6,0,.9.2.5.3.7.5l.9-.8c-.3-.3-.7-.6-1.1-.8-.4-.2-.9-.3-1.5-.3s-1,0-1.4.2c-.4.2-.8.4-1.1.6-.3.3-.5.6-.7,1-.2.4-.3.8-.3,1.2s0,.9.3,1.2c.2.4.4.7.7,1,.3.3.7.5,1.1.6.4.1.9.2,1.4.2s.9,0,1.3-.2c.4-.1.8-.3,1.2-.6v-2.4h-1.3v1.7c0,0-.2,0-.3.1-.3,0-.5.1-.8.1s-.6,0-.8-.1-.5-.2-.6-.4c-.2-.2-.3-.4-.4-.6s-.1-.5-.1-.8,0-.5.1-.8.2-.4.4-.6Z"/>
    </g>
    <g>
      <polygon class="cls-20" points="416.6 515.1 415.3 515.1 415.3 521.2 419.5 521.2 419.5 519.9 416.6 519.9 416.6 515.1"/>
      <polygon class="cls-20" points="421.9 518.5 424.5 518.5 424.5 517.5 421.9 517.5 421.9 516.2 424.7 516.2 424.7 515.1 420.5 515.1 420.5 521.2 425 521.2 425 519.9 421.9 519.9 421.9 518.5"/>
      <path class="cls-20" d="M427.9,515.1l-2.7,6.1h1.4l.5-1.3h2.8l.5,1.3h1.4l-2.7-6.1h-1.4ZM427.6,518.8l.9-2.3.9,2.3h-1.9Z"/>
      <path class="cls-20" d="M433.8,516.7c.2-.2.4-.3.6-.4s.5-.1.8-.1.6,0,.9.2.5.3.7.5l.9-.8c-.3-.3-.7-.6-1.1-.8-.4-.2-.9-.3-1.5-.3s-1,0-1.4.2c-.4.2-.8.4-1.1.6-.3.3-.5.6-.7,1-.2.4-.3.8-.3,1.2s0,.9.3,1.2c.2.4.4.7.7,1,.3.3.7.5,1.1.6.4.1.9.2,1.4.2s.9,0,1.3-.2c.4-.1.8-.3,1.2-.6v-2.4h-1.3v1.7c0,0-.2,0-.3.1-.3,0-.5.1-.8.1s-.6,0-.8-.1-.5-.2-.6-.4c-.2-.2-.3-.4-.4-.6s-.1-.5-.1-.8,0-.5.1-.8c0-.2.2-.4.4-.6Z"/>
      <path class="cls-20" d="M442.9,518.4c0,.6-.1,1-.3,1.2-.2.3-.6.4-1,.4s-.7-.1-1-.4c-.2-.3-.3-.7-.3-1.2v-3.3h-1.3v3.3c0,.9.2,1.5.7,2,.5.5,1.1.7,1.9.7s1.5-.2,1.9-.7.7-1.1.7-2v-3.3h-1.3v3.3Z"/>
      <polygon class="cls-20" points="447.1 520.1 447.1 518.5 449.8 518.5 449.8 517.5 446.9 517.5 446.9 516.2 450 516.2 450 515.1 445.6 515.1 445.6 521.2 450.3 521.2 450.3 520.1 447.1 520.1"/>
    </g>
  </g>
  <g class="cls-21">
    <rect class="cls-2" x="189.6" y="493.7" width="104.7" height="4.5"/>
    <g class="cls-19">
      <path class="cls-2" d="M221.4,516c0,1.9,0,3.7,0,5.6,0,.1,0,.2,0,.3,0,.1,0,.2.2.2,0,0,.1,0,.2,0,.7,0,1.4,0,2.1,0,0,0,.1,0,.2,0,.1,0,.2,0,.2-.2,0-.1,0-.2,0-.3,0-1,0-2,0-3,0-2.6,0-5.1,0-7.7,0-.2,0-.4,0-.7,0-.4.3-.6.7-.7.2,0,.3,0,.5,0,1.7,0,3.3,0,5,0,.1,0,.3,0,.4,0,.4.1.6.4.7.8,0,.2,0,.3,0,.5,0,1.1,0,2.2,0,3.4,0,.1,0,.3,0,.4,0,.5-.3.8-.9.9-.1,0-.3,0-.4,0-1.5,0-2.9,0-4.4,0-.1,0-.2,0-.3,0-.1,0-.2,0-.2.2,0,0,0,.2,0,.3,0,.6,0,1.1,0,1.7,0,.1,0,.3,0,.4,0,.2,0,.3.3.3.2,0,.3,0,.5,0,1.4,0,2.8,0,4.2,0,.5,0,1,0,1.5-.2,1.3-.5,2.2-1.4,2.5-2.8,0-.3.1-.7.1-1,0-1.2,0-2.4,0-3.6,0-.4,0-.8-.2-1.2-.4-1.4-1.3-2.4-2.7-2.8-.4-.1-.8-.1-1.2-.1-1.1,0-2.2,0-3.2,0s-1.1,0-1.7,0c-.6,0-1.1,0-1.7.3-1.2.5-2,1.4-2.3,2.6,0,.4-.1.8-.1,1.2,0,1.7,0,3.5,0,5.2"/>
      <path class="cls-2" d="M253.1,518.2c.5.2,1,.2,1.5.2,1.2,0,2.4,0,3.6,0,.5,0,1.1,0,1.6,0,1.5,0,2.5-.8,3.2-2.1.3-.6.4-1.2.4-1.9,0-1.3,0-2.6,0-4,0-.4,0-.8-.2-1.2-.4-1.1-1.1-1.9-2.2-2.4-.5-.2-1.1-.3-1.7-.3-.9,0-1.8,0-2.7,0s-2,0-2.9,0c-.1,0-.2,0-.3,0,0,0-.1,0-.1.1,0,0,0,.1,0,.2,0,.7,0,1.3,0,2,0,0,0,.1,0,.2,0,0,0,0,0,0,0,0,.2,0,.3,0,.4,0,.8,0,1.1,0,1.5,0,3,0,4.5,0,.2,0,.4,0,.6,0,.5.2.7.5.8.9,0,.1,0,.2,0,.4,0,1.2,0,2.4,0,3.6,0,.1,0,.2,0,.4,0,.5-.4.9-.9,1-.1,0-.3,0-.4,0-1.6,0-3.2,0-4.8,0-.2,0-.4,0-.5,0-.5-.1-.7-.4-.8-.9,0-.3,0-.5.1-.8.2-.4.5-.6.9-.6.2,0,.3,0,.5,0,1.4,0,2.9,0,4.3,0,.1,0,.2,0,.3,0,.1,0,.1,0,.2-.2,0,0,0-.1,0-.2,0-.6,0-1.3,0-1.9,0-.4,0-.4-.4-.4-1.6,0-3.2,0-4.7,0-.2,0-.4,0-.7,0-1.2.2-2.1.8-2.7,1.9-.4.7-.5,1.4-.5,2.2,0,1.6,1.1,2.9,2.5,3.4"/>
      <path class="cls-2" d="M239.1,518.1c.5.2,1,.3,1.6.3,1.5,0,3,0,4.5,0,0,0,.2,0,.3,0,0,0,.1,0,.1-.1,0,0,0-.2,0-.3,0-.6,0-1.2,0-1.8,0-.5,0-.5-.5-.5-1.4,0-2.9,0-4.3,0-.2,0-.4,0-.6,0-.5-.1-.8-.4-.8-.9,0-.2,0-.3,0-.5,0-.9,0-1.8,0-2.6,0-.4,0-.7,0-1.1,0-.8.5-1.2,1.3-1.2,1.6,0,3.3,0,4.9,0,.2,0,.3,0,.5,0,.4.1.6.4.7.8,0,.3,0,.6,0,.8-.2.4-.4.6-.9.7-.2,0-.4,0-.6,0-1.4,0-2.8,0-4.3,0-.1,0-.2,0-.4,0,0,0-.1,0-.1.1,0,0,0,.1,0,.2,0,.6,0,1.3,0,1.9,0,.4,0,.4.4.4,1.5,0,3.1,0,4.6,0,.3,0,.5,0,.8,0,1-.1,1.9-.6,2.5-1.5.8-1.1,1-2.4.5-3.7-.3-1.1-1.1-1.8-2.1-2.2-.5-.2-1.1-.3-1.7-.3-.8,0-1.7,0-2.5,0-.3,0-.6,0-.9,0-.7,0-1.4,0-2,0-1.1,0-2,.5-2.7,1.4-.5.7-.8,1.5-.8,2.3,0,1.5,0,2.9,0,4.4,0,1.6,1,2.9,2.5,3.4"/>
      <path class="cls-2" d="M206.7,514.9c0,1.3.7,2.3,1.8,3,.7.4,1.4.6,2.2.6.7,0,1.5,0,2.2,0h0c.8,0,1.6,0,2.4,0,0,0,.2,0,.3,0,.2,0,.2,0,.2-.2,0,0,0,0,0,0,0-.7,0-1.4,0-2.1,0,0,0-.1,0-.2,0,0,0,0,0,0-.1,0-.2,0-.4,0-1.5,0-2.9,0-4.4,0-.2,0-.4,0-.6,0-.4-.1-.7-.4-.8-.9,0-.1,0-.2,0-.3,0-1.3,0-2.5,0-3.8,0-.2,0-.3,0-.5.1-.4.4-.6.7-.7.2,0,.3,0,.5,0,1.6,0,3.3,0,4.9,0,.2,0,.3,0,.5,0,.4.1.7.4.7.8,0,.2,0,.5,0,.7-.2.4-.5.7-.9.7-.2,0-.3,0-.5,0-1.4,0-2.8,0-4.3,0-.1,0-.2,0-.4,0-.1,0-.2,0-.2.2,0,0,0,.2,0,.3,0,.6,0,1.2,0,1.9,0,.4,0,.4.4.4,1.5,0,3,0,4.6,0,.3,0,.5,0,.8,0,1-.1,1.8-.6,2.4-1.4.7-1,.9-2.1.7-3.3-.3-1.3-1.1-2.2-2.3-2.7-.5-.2-1.1-.3-1.7-.3-1.6,0-3.2,0-4.8,0-.2,0-.4,0-.6,0-.4,0-.9.1-1.3.3-1.1.5-1.7,1.3-2,2.5-.1.4-.2.8-.2,1.3,0,1,0,2,0,3,0,.4,0,.7,0,1.1"/>
      <path class="cls-2" d="M265.4,509.5c1,0,1.9,0,2.9,0,.5,0,.5,0,.5.5,0,2.6,0,5.2,0,7.9s0,.2,0,.3c0,.2,0,.2.2.2,0,0,0,0,.1,0,.7,0,1.4,0,2.1,0,.4,0,.4,0,.4-.4,0-1.3,0-2.7,0-4s0-2.7,0-4.1c0-.4,0-.4.4-.4,1.3,0,2.7,0,4,0,.1,0,.2,0,.3,0,.1,0,.2,0,.2-.2,0,0,0-.2,0-.3,0-.6,0-1.3,0-1.9,0-.5,0-.5-.5-.5-1.3,0-2.6,0-3.9,0-.7,0-.6,0-.6-.6,0-.9,0-1.9,0-2.8,0-.1,0-.2,0-.3,0,0,0-.1-.1-.1,0,0,0,0-.1,0-.8,0-1.6,0-2.4,0-.2,0-.3,0-.3.3,0,0,0,.2,0,.3,0,.9,0,1.8,0,2.7,0,.7,0,.6-.6.6-.9,0-1.8,0-2.6,0-.1,0-.2,0-.3,0,0,0-.1,0-.1.1,0,0,0,.1,0,.2,0,.7,0,1.4,0,2.2,0,.3,0,.3.3.3"/>
      <path class="cls-2" d="M225.5,526.4c0,1.9,0,3.8,0,5.7,0,.2,0,.5,0,.7.1,1.4.8,2.4,2,3,.7.4,1.4.5,2.1.5,1.6,0,3.3,0,4.9,0,.2,0,.4,0,.6,0,1.1-.1,2-.6,2.7-1.5.5-.7.8-1.5.8-2.4,0-1.3,0-2.7,0-4,0-.3,0-.5,0-.8-.2-1-.7-1.7-1.5-2.3-.7-.5-1.6-.7-2.5-.7-1.5,0-3.1,0-4.6,0,0,0-.2,0-.3,0,0,0-.1,0-.1.1,0,0,0,0,0,.1,0,.8,0,1.6,0,2.4,0,.2,0,.2.2.2.1,0,.2,0,.3,0,1.4,0,2.9,0,4.3,0,.1,0,.2,0,.4,0,.6,0,1,.4,1,1,0,0,0,.1,0,.2,0,1.2,0,2.4,0,3.6,0,.1,0,.3,0,.4-.1.4-.4.7-.8.8-.1,0-.3,0-.4,0-1.6,0-3.3,0-4.9,0,0,0-.2,0-.3,0-.6,0-.9-.5-1-1,0-.1,0-.3,0-.4,0-3.9,0-7.9,0-11.8s0-.2,0-.4c0-.2,0-.2-.2-.2,0,0-.1,0-.2,0-.6,0-1.3,0-1.9,0-.5,0-.5,0-.5.5,0,2.1,0,4.2,0,6.3"/>
      <path class="cls-2" d="M240.7,532.9c.1,1.1.6,1.9,1.5,2.6.7.6,1.6.8,2.5.8,1.7,0,3.4,0,5.2,0,.4,0,.8,0,1.2-.2,1.1-.3,1.9-.9,2.4-2,.2-.5.4-1.1.4-1.6,0-1.4,0-2.7,0-4.1,0-.6-.2-1.2-.5-1.8-.2-.4-.5-.8-.9-1.2-.7-.6-1.4-.9-2.3-.9-.9,0-1.9,0-2.8,0h0c-.8,0-1.7,0-2.5,0-.6,0-1.1,0-1.7.3-1.2.5-2,1.4-2.3,2.7,0,.4-.1.8-.1,1.2,0,1.1,0,2.1,0,3.2,0,.3,0,.6,0,1M243.6,528.1c.1-.3.3-.5.6-.5.2,0,.3,0,.5,0,1.7,0,3.4,0,5,0,.2,0,.3,0,.5,0,.3,0,.5.3.6.6,0,.2,0,.3,0,.5,0,1.2,0,2.5,0,3.7,0,.2,0,.3,0,.5,0,.3-.3.5-.6.6-.2,0-.4,0-.6,0-.8,0-1.6,0-2.4,0-.8,0-1.6,0-2.4,0-.2,0-.3,0-.5,0-.4-.1-.7-.4-.7-.9,0,0,0-.2,0-.3,0-1.3,0-2.5,0-3.8,0-.2,0-.3,0-.5"/>
      <path class="cls-2" d="M210.1,532.6c0,.2,0,.4,0,.6.3,1.6,1.2,2.5,2.7,3,.4.1.8.2,1.3.2.6,0,1.2,0,1.8,0,1,0,2.1,0,3.1,0,.5,0,1,0,1.5-.2,1.2-.4,2-1.2,2.4-2.4.2-.5.2-1,.2-1.5,0-1.2,0-2.4,0-3.6,0-.3,0-.7,0-1-.2-.9-.6-1.7-1.4-2.3-.6-.5-1.3-.8-2.1-.8-.9,0-1.9,0-2.8,0h0c-.8,0-1.6,0-2.4,0-.3,0-.6,0-1,0-1.9.3-3.2,1.9-3.2,3.7,0,1.4,0,2.8,0,4.2M212.9,528.5c0,0,0-.1,0-.2,0-.5.3-.8.8-.9.2,0,.3,0,.5,0,.8,0,1.6,0,2.4,0s1.6,0,2.4,0c.2,0,.4,0,.5,0,.3.1.5.3.6.6,0,.1,0,.3,0,.4,0,1.3,0,2.5,0,3.8,0,0,0,0,0,.1,0,.6-.4,1-1,1-.1,0-.2,0-.3,0-1.6,0-3.1,0-4.7,0s-.4,0-.6,0c-.3-.1-.5-.3-.6-.7,0-.1,0-.3,0-.4,0-1.3,0-2.6,0-3.9"/>
      <path class="cls-2" d="M289.9,531.2c.4,0,.7.1,1.1.1,1.3,0,2.6,0,4,0,.2,0,.3,0,.5,0,.4,0,.7.3.8.7,0,.2,0,.3,0,.5,0,.6-.4,1-1,1-.1,0-.3,0-.4,0-2.3,0-4.5,0-6.8,0-.1,0-.2,0-.4,0-.1,0-.1,0-.2.2,0,0,0,.1,0,.2,0,.7,0,1.4,0,2,0,.4,0,.4.4.4,1.2,0,2.5,0,3.7,0s2.3,0,3.4,0c.5,0,1,0,1.5-.2,1.3-.5,2.2-1.4,2.5-2.7.2-.9.1-1.9-.3-2.8-.5-1.1-1.4-1.9-2.6-2.1-.4,0-.7,0-1.1,0-1.3,0-2.7,0-4,0-.1,0-.3,0-.4,0,0,0-.2,0-.2-.1-.2-.3,0-.8.3-.8.1,0,.3,0,.4,0,2.1,0,4.1,0,6.2,0,.1,0,.2,0,.4,0,0,0,.1,0,.1-.1,0,0,0-.1,0-.2,0-.7,0-1.4,0-2.2,0,0,0-.1,0-.2,0-.1,0-.1-.2-.2,0,0-.1,0-.2,0-2.2,0-4.4,0-6.5,0-.3,0-.6,0-.9,0-1,.2-1.8.8-2.2,1.7-.4.7-.5,1.5-.3,2.3.3,1.3,1.1,2.1,2.4,2.5"/>
      <path class="cls-2" d="M273.9,533.2c.3,1.5,1.2,2.5,2.7,2.9.5.1.9.2,1.4.2,2.3,0,4.7,0,7,0,0,0,.2,0,.3,0,0,0,.1,0,.1-.1,0,0,0-.2,0-.3,0-.7,0-1.3,0-2s0-.4-.4-.4c-1.8,0-3.5,0-5.3,0-.6,0-1.2,0-1.9,0-.2,0-.3,0-.5,0-.3,0-.6-.3-.7-.6,0-.1,0-.3,0-.4,0-1.3,0-2.5,0-3.8,0,0,0-.2,0-.3,0-.4.3-.7.7-.8.2,0,.4,0,.6,0,2.3,0,4.6,0,7,0,.1,0,.2,0,.4,0,0,0,.1,0,.1-.1,0,0,0-.2,0-.3,0-.7,0-1.4,0-2,0-.4,0-.4-.4-.4-1.3,0-2.5,0-3.8,0s-2.2,0-3.3,0c-.4,0-.8,0-1.1,0-1,.2-1.9.8-2.4,1.7-.4.7-.6,1.5-.6,2.3,0,1.2,0,2.4,0,3.6,0,.3,0,.6,0,.9"/>
      <path class="cls-2" d="M255.6,527.4c.9,0,1.9,0,2.8,0s.2,0,.3,0c.2,0,.2,0,.2.2,0,.1,0,.2,0,.4,0,2.6,0,5.2,0,7.7,0,.1,0,.3,0,.4,0,.1,0,.2.2.2,0,0,.2,0,.3,0,.7,0,1.3,0,2,0,.4,0,.4,0,.4-.4,0-1.3,0-2.7,0-4,0-1.3,0-2.6,0-3.9,0-.6,0-.6.5-.6,1.3,0,2.6,0,3.9,0,.1,0,.2,0,.3,0,0,0,.1,0,.1-.1,0,0,0,0,0-.1,0-.8,0-1.6,0-2.4,0-.2,0-.2-.2-.2-.1,0-.2,0-.3,0-1.3,0-2.6,0-4,0-.4,0-.4,0-.4-.4,0-1,0-1.9,0-2.9,0,0,0-.2,0-.3,0-.2,0-.2-.2-.2,0,0-.1,0-.2,0-.7,0-1.3,0-2,0-.5,0-.5,0-.5.5,0,1,0,1.9,0,2.9,0,.1,0,.2,0,.3,0,0,0,.1-.1.1-.1,0-.2,0-.3,0-.9,0-1.8,0-2.7,0-.1,0-.2,0-.3,0,0,0-.1,0-.1.1,0,0,0,.2,0,.3,0,.7,0,1.4,0,2s0,.4.4.4"/>
      <path class="cls-2" d="M268.6,530.5c0,1.9,0,3.7,0,5.6,0,.3,0,.3.3.3.7,0,1.5,0,2.2,0s0,0,.1,0c.2,0,.2,0,.2-.2,0-.1,0-.2,0-.4,0-2.8,0-5.7,0-8.5s0-1.5,0-2.2c0-.1,0-.2,0-.3,0,0,0,0,0,0,0,0-.2,0-.3,0-.7,0-1.3,0-2,0-.5,0-.4,0-.4.4,0,1.8,0,3.6,0,5.4"/>
      <rect class="cls-2" x="268.6" y="520.8" width="2.8" height="1.9"/>
      <path class="cls-5" d="M190.1,496.7c0,.1.1.2.2.3,0-.1-.1-.2-.2-.3"/>
      <path class="cls-5" d="M189.6,495.8c.2.3.4.5.5.8-.1-.3-.3-.5-.5-.8"/>
      <path class="cls-5" d="M190.4,497.5c0,.2.1.5.2.7,0-.2,0-.5-.2-.7"/>
      <path class="cls-2" d="M189.1,495.3c.1.1.3.3.4.4,0,0,0,0,0,.1v-2.1c0,0-.2,0-.2,0h-4.2c1,0,1.9.2,2.6.6.5.3,1,.6,1.4,1"/>
      <path class="cls-2" d="M178.2,534.6c-.6-.5-1.3-.9-1.8-1.5h0c-.1-.2-.2-.3-.3-.4-.1-.1-.2-.2-.4-.4h0c0,0-.2-.2-.3-.3,0-.1-.2-.2-.3-.3,0,0,0-.1-.1-.2,0,0,0,0,0,0-3-3.3-4.9-7.5-5.2-12h3.5l-3.4-5-2.3-3.4-2.3,3.4-3.4,4.9h3.5c.4,6,3,11.6,7.3,15.9,3.9,3.9,8.9,6.3,14.2,6.9.9.1,1.9.2,2.9.2v-4.5c-3.2,0-6.4-.8-9.3-2.4h0c-.7-.4-1.4-.8-2-1.2"/>
      <path class="cls-5" d="M189.6,498.2h1c0-.2,0-.5-.2-.7,0-.2-.1-.3-.2-.5,0-.1-.1-.2-.2-.3,0,0,0,0,0,0-.1-.3-.3-.5-.5-.8,0,0,0,0,0,0v2.4Z"/>
      <path class="cls-2" d="M189.6,542.6s0,0,0,0h0s0,0,0,0Z"/>
      <rect class="cls-2" x="189.6" y="538.1" width="104.7" height="4.5"/>
      <path class="cls-2" d="M294.3,493.8v4.5c11,0,20,8.9,20,20s-8.9,20-20,20v4.5c13.5,0,24.4-10.9,24.4-24.4s-10.9-24.4-24.4-24.4"/>
      <path class="cls-5" d="M194.4,526c.7,0,1.4,0,2.1-.2.8-.2,1.5-.4,2.2-.7.7-.3,1.4-.8,2.1-1.3.7-.5,1.3-1.2,1.8-1.9.5-.8.9-1.6,1.2-2.5.3-1,.4-2,.4-3.2v-3.4c0-.7-.1-1.4-.3-2.1-.2-.8-.6-1.5-1.1-2.1-.5-.6-1.2-1.2-2-1.6-.8-.4-1.8-.6-3-.6h-7.9c.2-.4.3-.8.4-1.1.3-.8.4-1.8.4-2.8v-3c0-.4,0-.7-.1-1.1,0,0,0,0,0,0h-1v-2.4s0,0,0-.1c-.1-.1-.2-.3-.4-.4-.4-.4-.9-.7-1.4-1-.7-.4-1.6-.6-2.6-.6h-17.6c-.3,0-.6,0-.9.2-.3.1-.5.3-.7.5-.2.2-.4.5-.5.8-.1.3-.2.6-.2.9v18.6l2.3-3.4,2.3,3.4v-16.3h15.3c.1,0,.2,0,.3,0,.1,0,.2,0,.3.1.1,0,.2.2.3.3,0,.1,0,.3,0,.6v2.9c0,.6,0,1.1-.3,1.6-.2.5-.5.9-.8,1.2-.4.3-.8.6-1.3.8-.5.2-1,.3-1.6.4h-10.5v4.6h3.3v20.7h0s0,0,0,0c0,0,0,.1.1.2,0,.1.2.2.3.3,0,0,.2.2.3.3.1.1.2.2.4.4.1.1.2.2.3.3h0c.6.6,1.2,1.1,1.8,1.5.6.5,1.3.9,2,1.2h0v-20.3l4.4,3.8h7.2l-8.9-7.7h14.9c.1,0,.2,0,.4,0,.3,0,.5.2.7.5,0,.2.1.4.1.7v3.3c0,.7-.1,1.3-.3,1.8-.2.5-.5,1-.9,1.4-.4.4-.9.7-1.4.9-.6.2-1.2.4-1.8.4h-12v5.3h3.8l11.7,10.3h0s8.5,0,8.5,0l-12-10.3Z"/>
    </g>
  </g>
  <g id="layer1">
    <path id="path1" class="cls-12" d="M228.8,484.2c-6.5-.4-10.3-.9-15-2.2-16.4-4.3-26.5-15.2-26.5-28.3s1.2-19.7,1.4-21.3c1.4-10.8,10.3-19.9,23.5-24.2,14.2-4.6,32.7-3.4,45.7,3,2,1,2.7,1.4,3.4,2.1,1.1,1,1.6,2.2,1.6,3.5,0,.5-.3,4.8-.6,9.6-.7,9.6-.6,9.4-1.4,10.7-.4.7-3.7,4.2-4.9,5.1-1.6,1.4-3.8,2-6,1.7-1.3-.2-2-.4-4.3-1.4-4.1-1.8-7.7-2.8-11.5-3.2-1.4-.2-5.6-.2-7.1,0-3.9.4-7.3,1.4-9.7,2.9-1.2.7-2.2,1.5-2.2,1.7,0,0,.4.5.8.9,3.1,2.9,7,4.6,12.6,5.4,1.9.3,6.2.3,8,0,3.5-.5,6.3-1.2,9.8-2.7,2.6-1.1,3.5-1.3,5.2-1.3,2,0,3.3.4,4.7,1.5.7.5,4.2,4.2,4.7,5.1.5.7.9,1.7,1,2.3.2.9-1.1,19.1-1.4,19.9-.6,1.6-1.5,2.5-3.8,3.6-5.7,2.8-12.8,4.7-20.1,5.3-1.8.2-7,.3-8.4.2h0ZM235,480.2c7.4-.5,14.4-2.2,20.1-4.9,1.5-.7,2-1,2.2-1.5,0-.2.1-.3.1-.3s-.5.2-1,.4c-.5.2-1.4.6-1.9.8-.9.3-1,.4-1.3.3-.8-.2-1.2-1.1-.8-1.9.2-.3.3-.4,2.3-1.3,2.6-1.1,2.9-1.4,2.9-2.2s0-.5-.1-.5c0,0-.8.3-1.6.7-2.8,1.2-6.5,2.5-7.3,2.5-.5,0-.8-.2-1-.6-.4-.6-.2-1.5.3-1.8.1,0,1-.4,2-.7,2.6-.9,5.9-2.2,7.1-2.9.7-.4.9-.6.9-1.2v-.5l-1,.5c-2.4,1.1-5.8,2.3-8.8,3.1-2,.5-4.8,1.1-5.3,1.1-.4,0-1-.3-1.1-.6-.2-.3-.2-1,0-1.3.3-.4.6-.6,2.1-.9,4.1-.8,8.6-2.2,12.2-3.9l.9-.4-.2-.3c0-.1-.2-.3-.3-.3s-.9.3-1.8.7c-4.9,1.9-10,3.1-16.1,3.8-1.4.1-2.8.2-6.1.2-4.6,0-5.8,0-9.5-.5-10.8-1.4-20-5.2-26.3-11-.5-.5-.5-.5.1.3,3.4,3.9,8.7,7.3,15.2,9.5,1.9.6,2.2.9,2.2,1.6s-.5,1.4-1.3,1.4-1-.2-1.7-.5c-7.1-2.4-13-6.2-16.7-10.7-1-1.2-1-1.2-.7-.6,1.5,2.7,4.5,5.8,7.7,8.1,4.6,3.2,10.8,5.7,17.5,6.9,1,.2,1.9.4,2.1.4.7.3,1,1.4.4,2-.4.5-.8.6-2.3.3-8.7-1.6-16.1-4.8-21.4-9.3-1-.8-3-2.9-3.9-3.9-.5-.5-.5-.5-.2-.1,1.5,2.7,4.7,6,8,8.3,2.1,1.4,5,3,7.8,4.1,5.2,2.1,10.9,3.2,17.9,3.7h2c0,.1.4.5.4.5.3.3.4.5.4.9s0,.5-.4.9l-.4.4h-1.3c-2.5,0-6.9-.6-10-1.2-8.5-1.6-16.2-5.1-21.2-9.6-.5-.4-.8-.7-.8-.6,0,.2,2.5,2.6,3.6,3.5,5.5,4.4,12.8,7.3,21.8,8.6,1.7.2,4.8.5,6.5.6,1.7,0,5.3,0,6.9,0h0ZM239.4,462.6c6.2-.7,11.3-2.1,16.3-4.3,1.8-.8,2.6-1.3,2.8-1.8.2-.3.2-.4,0-.8-.1-.3-.4-.7-.7-1-1.5-1.7-3.2-3.5-3.7-3.8-1.3-1-3.2-1-5.6,0-8.1,3.5-16.6,4.3-24.5,2.4-3.3-.8-6.2-2.1-8.6-3.9-1.3-1-3.3-3-4.3-4.4-1.1-1.7-2-3.7-2.5-5.9-.3-1.2-.3-4.2-.1-5.7.7-4.5,3.2-8.4,7.1-11,3.1-2.1,7-3.4,11.7-4,1.9-.2,6.7-.3,8.5,0,4.5.5,8.6,1.7,13.1,3.7.7.3,1.4.6,1.6.7,1.9.5,3.2.2,4.5-1,1.3-1.2,3.8-4,3.9-4.3.2-.8-.3-1.3-2.6-2.4-5.6-2.8-11.8-4.5-19.5-5.2-2.3-.2-7.7-.3-10.1-.2-14.3.9-25.7,6.3-31.3,14.7-2.4,3.6-3.6,7.5-3.6,11.8s2.3,11.3,6.8,15.8c1.5,1.5,2.6,2.4,4.5,3.7,6.2,4.2,14.2,6.6,24.3,7.4.6,0,3.1,0,5.5,0,3.6,0,4.6,0,6.2-.3h0ZM252.8,440c.4-.2.9-.6,1.3-1l.6-.6-.9.3c-.8.3-1,.3-2.4.3-1.7,0-2.4-.2-4-.8-.7-.3-1-.5-1.1-.7-.4-.7,0-1.7.7-2,.4-.1.3-.2,2.4.6.6.2.9.3,2,.3,1.2,0,1.3,0,2-.3.7-.3,1-.6,2.8-2.4,2.1-2.2,2.9-3.2,1-1.3-1.2,1.2-2,1.7-3.2,2.1-.7.3-1,.3-2.1.3-1.6,0-2.7-.3-5.1-1.3-1-.4-2.2-.9-2.8-1.1-1.1-.4-1.4-.6-1.6-1.1-.3-.7.2-1.6,1-1.7.4,0,1.4.2,3.5,1.1,2.6,1.1,2.9,1.2,3.7,1.4,1.2.3,2.2.2,3.1-.3.6-.3,1-.6,2.2-1.8,1.5-1.5,1.9-2,.9-1.1-.7.6-1.7,1.1-2.7,1.5-1.5.5-3.8.3-5.8-.6-1-.4-1.4-.7-1.6-1.1-.2-.5-.2-.7,0-1.2.4-.8,1.3-1,2.3-.5,1,.5,2.1.7,3.1.7,1,0,1.5-.2,2.3-.7.6-.4,1.3-1.1,1-1-1.3.5-1.5.5-3.1.5-1.9,0-2.5-.2-5.5-1.4-4.3-1.8-8.1-2.8-12.1-3.2-1.8-.1-5.7,0-7.3.2-3.8.5-7,1.6-9.3,3.2-.9.6-2.3,1.8-1.6,1.4.8-.5,3.4-1.7,4.3-2,2.2-.8,4.8-1.3,7.4-1.5,1.4-.1,1.6-.1,1.9,0,1,.5,1.1,2.1,0,2.5-.2,0-.8.2-1.4.2-6.5.5-11.7,2.7-14.5,6.3l-.5.7,1-.7c2.5-1.9,5.8-3.3,9.4-4,2.3-.5,3.7-.6,6.5-.7,3.1,0,3.3,0,3.7.6.4.6.2,1.3-.4,1.7-.3.2-.5.2-3.2.3-3.6,0-5.3.3-8,1-3,.8-5.5,2.2-7.4,4-.8.8-1.9,2.1-1.9,2.2s.2-.1.5-.4c.7-.6,2.5-1.8,3.5-2.3,3.5-1.8,7.4-2.7,12.5-2.9,2.8-.1,7.3.3,8.3.7.9.4,1,1.4.3,2.1-.4.4-.5.4-3,0-1.9-.3-6.8-.3-8.8,0-4.9.7-8.9,2.3-11.4,4.7-.6.5-.5.5.5,0,2.4-1.5,6-2.7,9.7-3.2,1.9-.3,6.8-.4,8.9-.2,4.4.4,9.3,1.7,13.5,3.7.8.4,1.8.8,2.5.9.1,0,.6,0,1.1,0,.7,0,1,0,1.5-.4h0Z"/>
  </g>
</svg>