<?xml version="1.0" encoding="UTF-8"?>
<svg id="Layer_1" data-name="Layer 1" xmlns="http://www.w3.org/2000/svg" viewBox="0 0 1684.17 1998.11">
  <defs>
    <style>
      .cls-1 {
        fill: #f9e5a1;
      }

      .cls-1, .cls-2, .cls-3, .cls-4, .cls-5, .cls-6, .cls-7, .cls-8, .cls-9, .cls-10, .cls-11, .cls-12, .cls-13, .cls-14, .cls-15, .cls-16, .cls-17, .cls-18, .cls-19, .cls-20, .cls-21, .cls-22 {
        stroke-width: 0px;
      }

      .cls-2 {
        fill: #191811;
      }

      .cls-3 {
        fill: #fcbc1d;
      }

      .cls-4 {
        fill: #f7ae25;
      }

      .cls-5 {
        fill: #232116;
      }

      .cls-6 {
        fill: #fae5a3;
      }

      .cls-7 {
        fill: #f9e6a2;
      }

      .cls-8 {
        fill: #242113;
      }

      .cls-9 {
        fill: #252117;
      }

      .cls-10 {
        fill: #fff1d2;
      }

      .cls-11 {
        fill: #242215;
      }

      .cls-12 {
        fill: #f8c918;
      }

      .cls-13 {
        fill: #222015;
      }

      .cls-14 {
        fill: #eddb9b;
      }

      .cls-15 {
        fill: #282414;
      }

      .cls-16 {
        fill: #facb16;
      }

      .cls-17 {
        fill: #232017;
      }

      .cls-18 {
        fill: #f7e4a1;
      }

      .cls-19 {
        fill: #262318;
      }

      .cls-20 {
        fill: #272316;
      }

      .cls-21 {
        fill: #f5e2a1;
      }

      .cls-22 {
        fill: #faca16;
      }
    </style>
  </defs>
  <g>
    <g>
      <path class="cls-22" d="m1666.75,1974.26h-57.26c-.78-3.2-1.82-6.59-2.46-10.08-2.68-14.36-9.45-17.86-20.5-7.18-35.27,34.08-114.51,25.97-139.14-39.06-15.37-40.55-13.1-80.58,12.46-116.93,28.24-40.18,82.52-47.4,121.25-17.49,3.5,2.72,10.31,5.47,12.95,3.87,3.31-2.01,5.28-8.48,5.36-13.06.45-32.63.22-65.22.22-99.56,22.14-2.34,44.76-4.76,67.12-7.14v306.63Zm-66.3-104.17c-.33-28.35-21.73-50.34-49.07-50.34s-46.91,21.84-46.69,51.94c.22,29.39,21.06,51.08,48.33,50.37,27.08-.71,47.73-23.33,47.4-51.97h.04Z"/>
      <path class="cls-12" d="m1382.96,1917.12c1.08.48,1.9.6,2.2,1,25,35.75,20.95,46.88-21.47,58.56-59.9,16.52-118.53-4.06-140.93-51.94-31.51-67.38,2.27-166.19,99.63-161.32,50.04,2.53,92.75,51.68,88.66,101.83-1.23,15.07-11.42,15.37-21.28,16.37-32.48,3.31-65.03,5.62-97.47,9-6.36.67-12.35,4.46-18.53,6.81,2.64,6.7,3.53,15.29,8.26,19.83,20.76,19.98,46.1,19.38,71.69,12.09,10.23-2.9,19.79-8.26,29.28-12.31l-.04.07Zm-86.95-54.47c8.07-.97,19.42-2.38,30.77-3.72,1.9-.22,3.83-.26,5.69-.63,11.98-2.31,17.52-7.63,13.36-21.17-5.51-17.97-19.83-31.44-38.02-31.77-19.31-.33-30.14,11.42-36.35,28.16-7.78,20.91-1.12,29.8,24.59,29.13h-.04Z"/>
      <path class="cls-16" d="m239.06,1769.2c-65.03-39.66-102.2-40.78-131.55-5.1-28.65,34.79-26.75,94.76,4.02,127.27,30.36,32.07,72.62,29.87,125.56-7.78,10.49,15.81,20.95,31.62,32,48.25-22.25,31.03-52.61,46.88-88.99,50.34-111.54,10.68-172.29-76.57-164.81-168.5,5.95-72.96,47.03-126.46,108.15-139.85,48.66-10.68,95.24-4.09,134.9,30.25,8.74,7.55,11.01,14.14,4.39,24.33-8.33,12.8-15.4,26.38-23.66,40.78h0Z"/>
      <path class="cls-16" d="m948.72,1974.29v-298.23c21.92-1.93,45.79-4.06,66.97-5.95v95.13c0,5.77-.9,11.64,0,17.23,1.05,6.4,3.63,12.57,5.54,18.86,5.42-2.79,11.71-4.61,16.16-8.56,24.88-22.06,53.24-28.94,85.86-22.84,27.68,5.21,48.37,18.16,54.85,46.5,7.07,31.03.07,58.34-26.6,78.61-18.48,14.01-20.96,30.35-7.44,49,6.58,9.08,13.32,18.08,22.6,30.62-23.42,0-42.8,2.23-61.24-1-8.27-1.45-16.98-12.61-21.4-21.39-11.37-22.62-28.62-30.21-53.12-28.24-11.75.97-16.2,4.58-15.64,16,.56,10.79.11,21.62.11,34.23h-66.59l-.04.04Zm105.59-83.48c5.1-1,15.48-1.79,24.93-5.17,19.23-6.85,27.94-24.78,23.22-44.64-3.68-15.44-19.83-26.19-38.92-23.22-10.98,1.71-22.14,6.32-31.7,12.13-17.11,10.34-22.95,28.76-16.63,46.54,6.1,17.11,21.06,13.28,39.14,14.32l-.04.04Z"/>
      <path class="cls-12" d="m630.51,1797.17c17.6-40.33,43.79-16.03,65.22-14.66v192.05c-13.54.97-25.52,1.97-37.5,2.68-12.8.74-23.85,3.05-26.82-17-2.49-16.74-14.77-6.03-20.87.22-30.54,31.29-81.7,20.98-106.7-6.21-19.16-20.83-28.2-44.98-30.4-72.7-4.72-59.6,29.47-103.95,87.54-112.76,26.97-4.09,49.07,5.02,69.57,28.31l-.04.07Zm4.54,75.3c.15-29.54-21.24-51.34-50.26-51.27-28.2.07-49.41,21.09-50.11,49.67-.67,27.94,22.25,52.27,49.82,52.83,28.35.56,50.41-21.8,50.56-51.23h0Z"/>
      <path class="cls-12" d="m892.47,1915.7c3.42,16.59,7.03,31.25,9,46.17.41,3.16-4.5,9.15-8.11,10.38-58.6,19.46-120.28,5.17-144.72-58.67-23.22-60.57,8.18-127.42,66.45-144.57,25.45-7.52,50.52-5.54,75.34,3.09,9.86,3.42,14.96,8.37,10.27,19.94-4.28,10.53-6.62,21.84-10.34,34.6-30.06-6.92-60.16-12.13-77.76,21.02-10.08,18.97-9.11,39.06,4.46,55.99,19.9,24.81,46.39,22.69,75.34,12.09l.07-.04Z"/>
      <path class="cls-22" d="m310.45,1974.22c-2.12-65.07-4.17-128.54-6.29-194.02,16.93-2.9,37.24-6.4,57.55-9.86,3.46,9.97,6.47,18.64,9.08,26.08,23.07-9,44.46-17.37,68.23-26.64v73.89c-10.68,0-20.09-.11-29.5,0-26.41.33-36.39,8.85-36.91,35.34-.52,27.42,1.3,54.91,2.08,82.37.11,3.72,0,7.44,0,12.87h-64.29l.04-.04Z"/>
      <path class="cls-17" d="m1583.45,1767.34c0-28.83.86-56.18-.3-83.45-.74-17.86,6.62-23.62,23.51-24.11,19.76-.56,39.73-2.05,59.12-5.73,15.89-3.01,19.09,2.46,18.27,16.67-2.46,44.09-5.8,88.21-5.8,132.33,0,56.29,2.6,112.54,4.91,168.79.56,13.39-3.68,18.97-17.08,18.68-17.3-.37-34.71,1.26-51.86-.3-8.71-.78-16.96-6.59-29.61-11.87-29.84,17.75-66.52,20.05-103.13.93-36.68-19.16-52.27-52.46-57.22-92.23-11.64,3.39-22.92,6.66-34.15,9.9,8.15,14.88,16.41,30.21,24.89,45.43,6.1,10.9,3.31,19.12-6.36,26.45-45.5,34.41-95.28,35.08-144.87,13.88-48.4-20.69-67.41-62.02-65.74-113.17,2.86-88.1,77.23-142.53,156-113.51,38.02,13.99,59.82,43.71,71.17,87.21,11.2-37.35,27.87-66.19,60.75-80.84,32.52-14.47,65.4-15.55,97.55,4.99l-.04-.04Zm83.3,206.88v-306.6c-22.36,2.38-44.98,4.76-67.12,7.14,0,34.34.19,66.97-.22,99.56-.07,4.58-2.08,11.05-5.36,13.06-2.64,1.6-9.45-1.15-12.95-3.87-38.73-29.91-93.01-22.73-121.25,17.49-25.56,36.35-27.83,76.38-12.46,116.93,24.63,64.99,103.87,73.11,139.14,39.06,11.01-10.64,17.82-7.18,20.5,7.18.63,3.5,1.67,6.88,2.46,10.08h57.26v-.04Zm-283.79-57.1c-9.49,4.06-19.05,9.41-29.28,12.31-25.6,7.25-50.93,7.85-71.69-12.09-4.72-4.54-5.62-13.1-8.26-19.83,6.18-2.34,12.2-6.18,18.53-6.81,32.44-3.39,65.03-5.73,97.47-9,9.86-1,20.05-1.3,21.28-16.37,4.13-50.15-38.58-99.33-88.66-101.83-97.36-4.91-131.14,93.94-99.63,161.32,22.4,47.88,80.99,68.45,140.93,51.94,42.41-11.68,46.5-22.81,21.47-58.56-.3-.45-1.08-.52-2.2-1l.04-.07Zm-92.79-11.91c27.49,22.28,64.7,18.34,89.4-8.18-29.58,2.72-57.81,5.28-89.4,8.18h0Z"/>
      <path class="cls-9" d="m160.52,1655.46c42.52,0,80.29,12.24,111.95,41.85,10.57,9.9,13.28,19.42,5.88,31.92-8.11,13.73-15.48,27.9-23.92,41.41-11.68,18.64-15.96,19.27-32.66,5.32-17.11-14.29-35.38-25.78-58.67-23.77-9.26.78-19.12,2.94-27.31,7.14-32.63,16.82-44.42,69.61-24.78,107.18,17.04,32.59,54.95,42.45,91,23.7,2.83-1.49,5.65-2.98,8.33-4.76,20.91-13.91,38.3-10.54,52.16,10.12,1.41,2.12,2.86,4.24,4.28,6.36,22.25,33.82,21.58,38.25-9.86,63.99-80.69,66.04-215.89,25.34-246.25-75.64-22.17-73.7-11.2-141.75,46.47-197.22,28.24-27.16,62.06-38.36,103.46-37.65l-.07.04Zm78.54,113.73c8.26-14.36,15.37-27.98,23.66-40.78,6.62-10.19,4.35-16.78-4.39-24.33-39.66-34.34-86.24-40.92-134.9-30.25-61.13,13.43-102.2,66.93-108.15,139.85-7.48,91.93,53.28,179.17,164.81,168.5,36.39-3.5,66.78-19.31,88.99-50.34-11.05-16.63-21.5-32.44-32-48.25-52.98,37.69-95.2,39.88-125.56,7.78-30.77-32.52-32.66-92.49-4.02-127.27,29.39-35.68,66.52-34.56,131.55,5.1h0Z"/>
      <path class="cls-5" d="m1140.88,1919.2c11.98,16.33,23.33,31.73,34.64,47.25,8.26,11.31,6.92,19.68-8.37,20.72-22.28,1.53-44.64,2.86-66.97,2.38-18.53-.41-24.37-17.45-31.36-30.4-9.38-17.41-21.91-23.22-41.33-17.37,0,9.11-.26,18.56.07,27.98.48,14.25-5.62,21.35-20.42,20.87-13.43-.45-26.9,0-40.33-.07-30.21-.15-33.04-2.9-33.04-32.4-.04-44.16.45-88.32-.22-132.45-.67-46.69-1.75-93.42-4.02-140.03-.97-19.53,7.81-25.41,25.22-25.93,17.19-.52,34.34-2.31,51.49-3.65,23.7-1.9,28.05,2.98,26.3,26.64-2.34,31.18-3.72,62.43-5.73,97.44,26.71-19.76,53.5-28.01,83.75-25.37,30.4,2.64,56.18,12.5,71.88,40.18,23.81,41.93,9.19,86.39-41.48,124.26l-.07-.04Zm-192.12,55.06h66.59c0-12.61.45-23.44-.11-34.23-.6-11.42,3.89-15.03,15.64-16,24.5-1.97,41.75,5.62,53.12,28.24,4.41,8.78,13.13,19.94,21.4,21.39,18.44,3.24,37.86,1,61.24,1-9.24-12.54-15.97-21.54-22.6-30.62-13.52-18.63-11.04-34.96,7.44-49,26.71-20.24,33.71-47.58,26.6-78.61-6.47-28.35-27.12-41.33-54.85-46.5-32.66-6.14-60.98.78-85.86,22.84-4.41,3.91-10.74,5.77-16.16,8.56-1.91-6.29-4.49-12.43-5.54-18.86-.9-5.62,0-11.5,0-17.23v-95.13c-21.14,1.86-45.01,3.98-66.97,5.95v298.23l.04-.04Z"/>
      <path class="cls-13" d="m621.32,1973.41c-78.87,45.2-157.86-.6-160.91-91.15-1.19-35.79,6.66-68.23,31.18-95.5,29.09-32.4,95.13-46.43,131.33-18.49,12.84-3.76,21.95-8.93,30.69-8.41,15.77.97,31.36,5.13,46.95,8.33,10.9,2.23,14.99,8.18,14.58,20.35-1.97,57.33-2.98,114.7-3.79,172.03-.37,25.89-2.79,29.02-29.35,29.76-12.8.37-25.63-.22-38.36.89-13.36,1.15-22.58-1.9-22.32-17.86v.04Zm9.23-176.2c-20.46-23.29-42.6-32.4-69.57-28.31-58.07,8.78-92.27,53.16-87.54,112.76,2.2,27.72,11.27,51.86,30.4,72.7,25,27.2,76.16,37.5,106.7,6.21,6.1-6.25,18.38-16.96,20.87-.22,2.98,20.05,14.03,17.75,26.82,17,12.02-.71,24-1.71,37.5-2.68v-192.05c-21.43-1.38-47.62-25.67-65.22,14.66l.04-.07Z"/>
      <path class="cls-5" d="m848.27,1746.99c19.42,5.47,38.99,10.53,58.22,16.59,11.68,3.68,15.63,12.2,11.46,24.15-1.67,4.8-2.6,9.86-4.17,14.7-3.94,12.05-4.76,28.27-13.1,34.79-7.14,5.58-23.03.3-35.01-.74-16.37-1.41-33.37.56-38.17,17.67-3.53,12.61-2.75,29.73,3.27,40.92,8.15,15.07,25.63,17,42.6,12.17,21.06-6.03,33.9,2.29,38.54,24.96,9.97,48.85,8.52,51.08-39.77,60.75-64.66,12.95-127.31-27.38-140.93-90.63-14.77-68.68,24.63-134.75,89.4-149.3,8.67-1.93,17.78-1.75,26.71-2.57.3-1.15.63-2.27.93-3.42v-.04Zm44.24,168.72c-28.94,10.6-55.43,12.72-75.34-12.09-13.58-16.93-14.55-37.02-4.46-55.99,17.6-33.15,47.7-27.94,77.76-21.02,3.72-12.76,6.06-24.07,10.34-34.6,4.69-11.57-.45-16.52-10.27-19.94-24.81-8.63-49.89-10.57-75.34-3.09-58.26,17.15-89.66,84.01-66.45,144.57,24.44,63.84,86.13,78.13,144.72,58.67,3.61-1.19,8.52-7.22,8.11-10.38-1.97-14.88-5.62-29.58-9-46.17l-.07.04Z"/>
      <path class="cls-15" d="m380.24,1774.89c18.68-5.13,36.68-11.53,55.25-14.73,14.73-2.53,22.36,5.28,20.72,21.58-1.86,18.38-2.86,36.94-2.79,55.43.07,15.55-6.92,21.88-21.8,22.4-44.46,1.49-44.68,1.64-44.01,46.32.3,19.83,1,39.66,2.57,59.41,1.3,16.7-4.24,25.67-22.14,25.22-17.3-.45-34.6-.15-51.9-.15-14.92,0-22.02-6.66-21.69-22.32.67-29.43,1.34-58.97,0-88.36-1.38-30.54-4.09-61.13-8.22-91.45-1.86-13.69-.19-20.39,14.73-21.91,16.48-1.67,33.19-3.83,49.07-8.22,18.49-5.13,30.06-2.57,30.14,16.74l.07.04Zm-69.83,199.37h64.29c0-5.39.07-9.11,0-12.87-.78-27.46-2.6-54.91-2.08-82.37.48-26.49,10.49-34.97,36.91-35.34,9.41-.11,18.83,0,29.5,0v-73.89c-23.77,9.3-45.17,17.63-68.23,26.64-2.57-7.44-5.58-16.11-9.08-26.08-20.31,3.5-40.63,6.96-57.55,9.86,2.12,65.48,4.2,128.95,6.29,194.02l-.04.04Z"/>
    </g>
    <path class="cls-5" d="m1600.45,1870.09c.33,28.65-20.31,51.27-47.4,51.97-27.31.71-48.14-21.02-48.33-50.37-.22-30.1,19.46-51.97,46.69-51.94,27.34,0,48.74,21.99,49.07,50.34h-.04Zm-49.96-36.68c-16.82.11-32.22,18.71-32,38.62.22,18.97,15.25,36.57,31.66,37.02,19.23.52,37.09-18.27,36.65-38.62-.41-19.68-17.56-37.17-36.35-37.05l.04.04Z"/>
    <path class="cls-11" d="m1295.98,1862.65c-25.71.67-32.37-8.22-24.59-29.13,6.21-16.74,17.04-28.5,36.35-28.16,18.19.33,32.52,13.8,38.02,31.77,4.17,13.54-1.38,18.9-13.36,21.17-1.86.37-3.79.41-5.69.63-11.35,1.38-22.69,2.75-30.77,3.72h.04Zm35.94-18.34c-5.77-16.89-15.14-26.38-31.66-22.99-13.39,2.75-17.63,13.5-17.82,28.35,17.19-1.86,32.74-3.57,49.48-5.39v.04Z"/>
    <path class="cls-19" d="m1054.3,1890.82c-18.08-1.04-33.07,2.79-39.14-14.32-6.32-17.78-.48-36.2,16.63-46.54,9.56-5.8,20.72-10.38,31.7-12.13,19.09-3.01,35.23,7.78,38.92,23.22,4.72,19.87-3.98,37.8-23.22,44.64-9.45,3.39-19.79,4.17-24.93,5.17l.04-.04Zm-28.83-19.01c2.31,1.79,4.61,3.53,6.92,5.32,14.32-1.71,29.24-1.6,42.67-5.99,6.21-2.05,11.79-12.39,13.43-19.9,1.08-4.87-4.13-14.58-8.85-16.63-15.37-6.59-30.99-2.23-41.93,9.26-6.59,6.92-8.3,18.45-12.2,27.9l-.04.04Z"/>
    <path class="cls-20" d="m635.05,1872.51c-.15,29.39-22.21,51.75-50.56,51.23-27.57-.52-50.52-24.85-49.82-52.83.71-28.57,21.91-49.59,50.11-49.67,29.02-.07,50.41,21.73,50.26,51.27h0Zm-49.63-35.91c-21.5-.19-36.16,13.91-36.46,35.16-.33,20.87,16.33,38.02,36.94,38.1,19.68.04,35.53-16.59,35.46-37.2-.11-21.09-14.84-35.9-35.9-36.05h-.04Z"/>
  </g>
  <g>
    <path class="cls-22" d="m502.87,316.2h-76.82s-.33-27.64.07-42.03c.48-16.63,1.86-33.22,2.34-49.85.67-24.18-4.46-29.5-28.54-29.69-26.9-.19-53.83.3-80.73-.07-17.08-.26-24.37,7.48-24.11,24.44.48,31.96.15,100.93.15,100.93h-75.15V18.57h78.34c-1.44,28.53-2.87,56.27-4.27,83.97-1.32,27.1,2.31,23.86,29.34,24.2,27.33.3,53.67-.58,81-1,25.1-.38,20,5.85,20-20,0-28.38,4-65.07,4-94h76l-1.65,304.46h.04Z"/>
    <path class="cls-16" d="m1288.69,118.74h64.21c0,20.91.71,41.15-.19,61.27-1.19,26.6,13.06,46.21,28.39,65.11,10.57,13.02,19.57,6.14,27.57-4.43,22.25-29.35,25.89-63.1,23.51-98.26-.48-6.99-1.45-13.95-2.6-24.41,20.05,0,39.1-.67,58,.56,3.98.26,10.6,7.25,10.79,11.38,2.34,45.98,4.87,91.26-27.79,131.07-29.13,35.49-54.28,74.3-80.55,112.09-8.15,11.72-17.97,17.34-32.07,15.85-3.16-.33-6.4.33-9.6.33-54.24,0-36.87,10.23-58.71-42,13.5-2.98,27.42-4.61,40.29-9.19,23.29-8.3,27.98-24.41,14.32-44.57-7.89-11.64-14.84-24.37-24.63-34.23-40.03-40.48-35.23-90.03-31.03-140.56l.07-.04Z"/>
    <path class="cls-12" d="m1009.48,320.74h-67c0-20.23,2.89-49.61,2.77-70.48-.11-17.89.45-35.9-1-53.68-1.97-23.81-14.99-36.61-34.75-34.75-17.08,1.6-40.22,14.1-39.21,39.03,1.49,36.98.37,74.04.37,115.06h-66.48V119.64c16.59-2.9,37.76-6.4,58.45-9.78,1.49,1.64,2.83,2.38,3.05,3.42,6.55,28.31,6.66,28.54,32.81,12.8,21.32-12.8,43.04-21.99,68.9-16.44,24.63,5.25,41.37,20.39,41.97,45.2,1.26,52.31,6.12,103.2,6.12,155.91l-6,10Z"/>
    <path class="cls-12" d="m1226.33,256.4c26.15,37.8,21.47,49.93-22.66,60.87-59.23,14.7-115.67-5.51-137.73-51.9-19.16-40.22-16.74-81.14,7.29-118.9,21.73-34.08,55.32-45.5,94.46-43.16,48.7,2.94,90.89,53.98,85.87,102.46-1.45,13.91-10.9,14.47-20.13,15.44-32.48,3.31-65.03,5.62-97.47,9.15-6.88.74-13.39,4.95-20.05,7.52,3.42,7.11,5.13,16.22,10.6,21.02,20.2,17.71,44.5,17.23,68.72,10.68,10.31-2.79,19.87-8.33,31.07-13.17h.04Zm-87.54-54.42c8.07-.97,19.42-2.38,30.77-3.76,1.9-.22,3.79-.3,5.69-.63,12.28-2.27,17.15-8.11,13.06-21.39-5.51-17.89-20.02-31.33-38.21-31.51-19.31-.22-30.06,11.64-36.2,28.39-7.63,20.87-.93,29.61,24.89,28.91Z"/>
    <path class="cls-16" d="m655.03,319.64c-62.17.11-105.73-42.71-105.84-104.06-.15-65.33,41.74-108.37,105.47-108.34,63.13,0,105.92,42.86,105.88,105.96-.04,63.43-42.52,106.33-105.47,106.44h-.04Zm.33-159.9c-26.53.04-47.73,23.77-46.95,52.61.74,28.42,21.5,51.08,46.84,51.19,26.04.11,47.58-24.18,46.84-52.9-.74-28.76-21.13-50.97-46.73-50.93v.04Z"/>
    <path class="cls-11" d="m306.34,115.02h107.58c0-31.41.11-61.04,0-90.71-.11-22.23,1.85-24.08,24.5-23.82,19.48.23,39.03.94,58.43-.3,17.55-1.13,24.95,4.76,24.05,22.99-2,40.2-4,80.44-3.81,120.64.23,55.15,1.85,110.34,4.08,165.45.75,18.38-6.42,24.27-23.71,23.59-21.4-.83-42.88-.3-64.32-.11-15.4.11-22.23-6.87-21.97-22.61.53-33.52.15-67.08.15-102.11h-100.86c0,29.56-.26,57.94.08,86.29.42,38.28.6,38.31-38.58,38.54-14.31.08-28.57.08-42.88-.15-23.48-.38-26.69-3.66-26.05-27.67,1.36-51.86,3.93-103.73,4.15-155.63.19-40.2-2.53-80.44-3.66-120.68-.26-8.87.75-17.78,1.28-28.57,32.95,0,64.09-.68,95.12.79,4.19.19,11.25,11.32,11.17,17.29-.45,31.1-2.83,62.13-4.72,96.71l-.04.08Zm196.49,198.41V14.57h-74.41v86.24c1.45,25.45-.71,28.13-25.45,28.5-26.9.41-53.8.41-80.69.11-26.6-.3-29.5-3.68-28.2-30.4,1.34-27.31,2.75-54.58,4.2-80.74h-74.48v293.91h71.47c0-33.33.33-65.29-.15-97.24-.26-16.96,7.03-24.7,24.11-24.44,26.9.37,53.8-.11,80.73.07,24.07.19,29.2,5.54,28.54,29.69-.45,16.63-1.86,33.22-2.34,49.85-.41,14.4-.07,28.83-.07,45.79h75.75l1-2.49Z"/>
    <path class="cls-19" d="m1392.45,235.05c28.39-30.4,27.64-66.67,24.85-103.17-2.12-27.75-1.71-28.72,26.97-29.28,15.37-.3,30.73-.15,46.1-.71,12.13-.45,19.68,3.87,21.02,16.7,5.13,49.29,9.08,97.73-24.15,141.15-30.66,40.03-58.97,81.85-87.95,123.14-9.67,13.8-21.73,21.06-38.88,19.27-4.43-.45-8.97.04-13.43.11-35.59.47-59.33-16.31-71.21-50.34-5.92-17-2.49-21.62,15.14-23.14,11.98-1.04,24.18-2.49,35.57-6.1,10.83-3.42,14.7-11.12,6.62-22.1-14.4-19.53-27.72-39.92-42.26-59.34-14.03-18.71-20.61-38.88-18.94-62.5,1.38-19.12.41-38.39.45-57.59,0-13.28,5.77-19.94,19.87-19.38,19.2.74,38.43.78,57.63.48,13.17-.19,18.71,6.21,18.49,18.68-.33,18.53-.45,37.09-1.19,55.62-.97,23.55,11.2,40.92,25.34,58.41l-.04.07Zm-103.76-116.27c-4.2,50.52-9,100.08,31.03,140.56,9.78,9.9,16.74,22.58,24.63,34.23,13.65,20.16,8.93,36.27-14.32,44.57-12.87,4.58-26.79,6.21-40.29,9.19,21.84,52.23,4.46,42,58.71,42,3.2,0,6.44-.67,9.6-.33,14.14,1.49,23.92-4.13,32.07-15.85,26.27-37.8,51.42-76.6,80.55-112.09,32.66-39.81,30.13-85.08,27.79-131.07-.22-4.17-6.81-11.12-10.79-11.38-18.9-1.23-37.95-.56-58-.56,1.12,10.49,2.12,17.45,2.6,24.41,2.38,35.16-1.27,68.9-23.51,98.26-8.04,10.6-17,17.45-27.57,4.43-15.33-18.9-29.54-38.51-28.39-65.11.89-20.13.19-40.37.19-61.27h-64.21l-.07.04Z"/>
    <path class="cls-8" d="m880.75,113.13c26.12-6.51,50.78-16.93,75.82-17.97,41.59-1.79,66.19,25.22,66.74,66.82.63,47.4.3,94.8,1.08,142.19.3,17.45-5.65,26.27-24.33,25.19-15.33-.93-30.77-.56-46.13-.19-16.78.41-24.59-6.73-24.26-24.11.6-34.56.15-69.16.3-103.76.04-13.39-2.64-24.93-18.94-25.56-13.8-.52-26.56,12.39-26.64,26.49-.19,34.6-.56,69.2.15,103.76.33,16.33-6.06,23.7-22.47,23.22-15.37-.45-30.77-.52-46.13,0-17.63.56-25-6.44-25.04-24.96-.19-51.82-.86-103.69-3.65-155.4-2.23-41.85-3.72-41.67,37.72-46.84,9.49-1.19,18.9-3.13,28.31-4.99,23.59-4.65,24.26-4.2,27.53,16.15l-.07-.04Zm128.91,202.79c0-56.43.89-108.78-.37-161.09-.6-24.81-17.3-39.96-41.97-45.2-25.86-5.51-47.58,3.65-68.9,16.44-26.15,15.74-26.27,15.51-32.81-12.8-.22-1-1.56-1.79-3.05-3.42-20.69,3.39-41.85,6.85-58.37,9.78v192.56h66.41c0-37.31,1.08-74.4-.37-111.34-1-24.93,22.14-37.43,39.21-39.03,19.76-1.86,32.78,10.94,34.75,34.75,1.49,17.82.89,35.79,1,53.68.15,20.83,0,41.67,0,65.66h64.47Z"/>
    <path class="cls-9" d="m654.47,334.52c-69.16-.11-120.84-51.82-119.87-120.02,1.04-72.7,49.26-121.99,119.5-122.25,70.13-.3,121.14,50.71,121.02,120.95-.15,70.76-50.52,121.4-120.69,121.32h.04Zm.56-14.88c62.95-.11,105.44-43.01,105.47-106.44.04-63.1-42.75-105.92-105.88-105.96-63.69,0-105.58,43.01-105.47,108.34.11,61.35,43.71,104.21,105.84,104.06h.04Z"/>
    <path class="cls-17" d="m1231.84,234.12c9.34,17.04,17.41,32.11,25.75,46.99,6.1,10.94,3.16,19.12-6.47,26.41-45.5,34.38-95.28,35.01-144.87,13.8-48.36-20.69-67.38-62.06-65.66-113.21,2.9-88.06,77.01-141.9,156.11-113.73,42.6,15.18,75.11,65.26,71.73,109.94-1.71,22.55-15.81,30.14-36.53,29.76l-.04.04Zm-5.51,22.28c-11.2,4.87-20.76,10.38-31.07,13.17-24.26,6.59-48.51,7.07-68.72-10.68-5.47-4.8-7.18-13.88-10.6-21.02,6.66-2.6,13.17-6.77,20.05-7.52,32.44-3.5,64.99-5.8,97.47-9.15,9.23-.93,18.68-1.53,20.13-15.44,5.06-48.48-37.13-99.52-85.87-102.46-39.14-2.34-72.77,9.08-94.46,43.16-24.03,37.72-26.45,78.69-7.29,118.9,22.1,46.39,78.5,66.56,137.73,51.9,44.12-10.94,48.81-23.07,22.66-60.87h-.04Zm-93.01-12.46c25.71,22.1,61.98,18.53,89.51-8.37-30.51,2.86-59.08,5.54-89.51,8.37Z"/>
    <path class="cls-11" d="m1138.79,201.97c-25.86.71-32.55-8.04-24.89-28.91,6.14-16.78,16.89-28.61,36.2-28.39,18.19.19,32.74,13.62,38.21,31.51,4.09,13.28-.78,19.12-13.06,21.39-1.86.33-3.79.41-5.69.63-11.35,1.38-22.69,2.75-30.77,3.76Zm37.32-19.98c-5.65-17.08-15.18-27.61-30.1-22.99-9.08,2.83-15.55,14.06-23.18,21.54,1.45,2.01,2.86,3.98,4.32,5.99,15.59-1.45,31.18-2.9,49-4.54h-.04Z"/>
    <path class="cls-20" d="m655.37,159.75c25.63-.04,45.98,22.17,46.73,50.93.74,28.72-20.8,53.02-46.84,52.9-25.37-.11-46.1-22.81-46.84-51.19-.74-28.83,20.42-52.57,46.95-52.61v-.04Zm-.3,88.92c18.45-.04,32.7-16.7,32.26-37.76-.37-19.31-15.14-36.31-31.73-36.57-18.71-.3-33.19,15.74-33.3,36.91-.11,21.02,14.29,37.46,32.78,37.43Z"/>
  </g>
  <g>
    <g>
      <g>
        <path class="cls-2" d="m662.44,1125.51c-37.02-31.36-74.93-61.8-110.76-94.53-18.49-16.89-26.41-39.85-25-66.04.48-8.93-3.76-19.49-9.08-27.05-11.94-16.89-18.12-34.45-17.89-55.36.11-9.86-2.98-21.54-8.71-29.43-34.19-46.95-33.71-87.17,8.74-126.38,25.15-23.22,40.55-42.3,24.81-79.43-12.02-28.35,2.27-48.77,31.44-60.2,14.06-5.51,29.17-8.48,43.83-12.61-21.02-60.31,4.28-96.17,67.56-95.76,19.09.11,35.16-.26,51.12-15.74,9.64-9.34,29.61-9.11,45.2-10.9,10.75-1.23,18.34-2.12,23.85-13.8,8.04-17.11,24.7-21.65,42.45-18.64,14.99,2.53,29.61,7.11,44.42,10.75,15.25-45.35,49.11-64.18,92.56-42.93,36.79,17.97,69.27,45.13,102.5,69.79,19.94,14.84,37.69,32.63,56.33,49.22,16.82,14.99,12.46,37.2-9.82,50.93,28.45,45.54,38.67,76.18,30.66,91.93,12.35,18.6,26.15,35.72,35.94,54.91,14.51,28.54,17.19,57.37-7.81,83.37-3.39,3.53-3.46,11.72-2.68,17.41,2.72,20.02,2.68,38.13-17.23,50.89-3.42,2.2-4.24,11.27-3.42,16.78,2.05,13.88,6.06,27.46,8.59,41.3,9.45,51.53-13.69,86.95-64.33,97.44-9.71,2.01-15.51,4.99-19.12,14.99-13.84,38.62-43.34,57.85-83,60.53-22.51,1.53-35.19,14.1-46.5,30.88-2.12,3.16-6.59,4.8-9.97,7.14-4.76-9.04-8.48-18.83-14.47-26.94-11.2-15.1-12.17-29.32-2.08-45.5,12.84-20.61,16.63-43.23,15.29-67.79-.82-14.62,1.64-31.1,8.04-44.09,19.57-39.66,26.41-80.81,22.47-124.41-1.26-13.95-.52-28.13-.63-42.19-.07-13.69,0-27.42,0-41.12-2.95-.89-2.75-.83-5.69-1.71-19.41,28.21-56.65,45.38-58.07,84.27-1.6,44.64-24.18,72.81-59.6,94.5-.56.33-1.3.6-1.53,1.12-3.46,6.88-9.41,13.65-9.78,20.72-1.26,22.77-.48,45.65-.48,68.23-39.32,8.93-77.46,14.66-108.86,39.66-8.56,6.81-14.51,12.46-14.73,24.37-.33,19.64-2.72,39.21-4.46,61.46h-40.14l.07-.07Zm103.09-413.22l.26.26c-6.03-5.13-11.79-10.64-18.08-15.4-38.65-29.39-80.62-55.32-114.96-89.07-21.43-21.02-39.25-21.62-62.99-13.95-1.23.41-2.38.89-3.61,1.3-28.31,9.75-37.05,25.86-29.02,54.58,2.23,7.96,4.46,16.48,9.08,23.1,24.37,35.01,46.43,72.25,74.97,103.54,48.66,53.31,113.36,84.12,177.28,115.82,22.73,11.27,38.51,10.31,55.06-7.78,11.68-12.76,30.1-19.53,31.21-41.11.97-18.94,11.87-41.26,4.99-55.66-6.99-14.55-30.47-21.21-46.73-31.33-1.64-1-3.13-2.23-4.8-3.16-24.18-13.73-48.4-27.42-72.62-41.11l-.04-.04Zm1.41-249.86c-23.48,1.93-43.64.74-52.46,21.99-8.48,20.39-1.93,38.8,10.64,55.62,1.53,2.05,3.09,4.17,4.99,5.84,14.17,12.84,27.01,27.87,42.93,38.02,87.39,55.66,174.6,111.72,263.96,164.03,30.1,17.63,65.63,28.8,100.12,35.27,30.47,5.73,52.87-23.03,41.37-51.9-10.83-27.2-29.8-51.27-46.02-76.16-2.01-3.13-9-4.09-13.73-4.2-69.09-1.67-132.56-22.77-189.7-60.01-42.75-27.87-82.41-60.46-123.03-91.48-6.44-4.91-13.5-11.76-15.55-19.01-4.43-15.96-13.99-19.9-23.51-18.01h0Zm-223.3,236.47c-17.49,18.38-34.9,34.45-49.59,52.68-17.63,21.91-20.28,47.55-4.95,71.47,11.53,18.04,24.37,37.5,41.44,49.41,53.87,37.58,110.83,70.69,164.96,107.85,33.41,22.95,66,27.79,103.98,13.47,14.03-5.28,20.65-9.9,18.56-24.63-.63-4.39-.74-9.04,0-13.39,5.51-31.21-6.25-48.14-36.79-61.24-72.66-31.14-140.37-71.28-191.3-134.12-15.22-18.75-29.13-38.58-46.32-61.5Zm412.48,16.7c-5.06-3.31-8.18-5.39-11.31-7.44-66.26-43.53-133.04-86.31-198.59-130.88-29.17-19.79-47.55-47.88-47.73-88.73-20.98,1.71-41.63.97-60.98,5.58-27.05,6.47-40.37,32.44-29.95,58.41,6.47,16.15,16.67,31.96,28.76,44.46,53.13,54.84,119.31,92.12,183.19,132.33,26.79,16.89,54.32,32.63,81.55,48.92,19.01-21.62,36.27-41.3,55.06-62.65Zm-8.48,243.68c28.01,11.05,52.35,22.95,78.02,30.02,21.13,5.84,44.01,9.08,65.81,7.89,34.79-1.93,58.22-28.13,56.59-62.5-1.15-23.92-7.37-47.73-12.76-71.25-.97-4.17-8.63-8.33-13.91-9.67-24.07-6.1-48.48-10.94-72.66-16.7-22.55-5.39-44.94-11.46-72.21-18.45,11.01,52.9-8.07,95.58-28.87,140.67h0Zm-126.01-531.68c-7.89,5.8-20.65,10.53-23.74,18.79-3.27,8.85-.48,23.22,5.17,31.33,8.11,11.64,20.69,20.57,32.37,29.35,17.82,13.43,38.21,23.88,54.43,38.92,40.29,37.28,85.64,65.33,138.84,78.2,31.81,7.7,64.77,11.05,97.4,14.66,14.1,1.56,17.89-8.85,12.35-20.35-6.62-13.73-15.37-26.41-22.81-39.77-10.75-19.31-26.68-25.89-48.85-30.1-45.54-8.59-90.41-21.88-134.57-36.24-26.94-8.74-48.55-25.89-52.49-57.7-.52-4.2-4.76-9.9-8.63-11.35-14.81-5.62-30.17-9.75-49.48-15.74Zm297.63,113.87l4.1-7.09c-4.88-8.37-8.01-18.69-14.89-24.84-33.89-30.21-68.12-60.16-103.65-88.43-13.73-10.94-30.47-19.16-47.14-25.15-19.2-6.92-38.8-6.06-55.77,9.08-17.34,15.51-13.5,34.56-10.53,53.46,3.39,21.47,19.09,34.56,37.35,40.37,46.69,14.88,94.09,27.72,141.63,39.55,15.55,3.87,32.52,2.2,48.85,3.05h.04Zm40.37,254.37c-72.14,3.53-124.04-38.54-181.48-66.41,0,22.73.41,43.75-.19,64.77-.33,11.38,4.91,15.29,15.37,17.49,18.71,3.94,36.91,10.16,55.58,14.21,29.2,6.32,58.48,12.8,88.06,16.48,6.85.86,18.71-7.85,21.73-14.92,3.79-8.97.93-20.76.93-31.62Zm-427.95,219.91c-73.51-45.24-146.55-90.14-219.24-134.86-3.2,29.02,13.39,51.3,36.16,67.41,38.43,27.2,78.17,52.9,118.98,76.34,33,18.94,34.49,16.96,64.06-8.93l.04.04Zm-186.58-54.5c-2.31.93-4.61,1.9-6.92,2.83,3.87,13.5,7.03,27.27,11.98,40.33,2.38,6.32,7.33,12.28,12.54,16.82,32.63,28.61,65.26,57.29,98.81,84.82,8.93,7.29,24.89,14.14,30.43-.6,5.84-15.48,4.24-34.08,3.91-51.27-.07-3.76-8.15-8.11-13.21-10.98-32.78-18.49-66-36.2-98.55-55.06-13.62-7.89-26.04-17.89-38.99-26.94v.04Zm400.16,10.86c10.04,35.9-2.98,66.07-19.01,95.54,73.44,16.85,131.29-1.79,138.84-53.95-38.65-13.39-76.94-26.71-119.83-41.59Z"/>
        <path class="cls-3" d="m789,1672.97c-49.96-.33-76.01-28.57-66.78-77.2,6.51-34.34,16.85-68.16,28.31-101.23,20.87-60.23,28.24-121.66,22.88-184.9-.26-3.16,0-6.36,0-9.56,3.91-7.18,11.61-14.7,11.01-21.5-2.05-22.58-2.68-46.88-11.83-66.86-17.97-39.21-35.5-77.55-32.11-121.97,1.12-14.44,6.39-24.64,19-30,24.27-11.49,47.93-22.36,72-34,20.05-9.71,28.5-21.4,27.54-43.8-.63-14.66-3.19-31.78,3.46-44.2,8.18-15.29,21.72-30.24,35-42,16.48-14.58,26.08-30.12,24-53-1.38-15.18,7.55-34.44,26-44,2.12,37.28,7.48,77.17-12.38,111.1-14.81,25.26-20.52,53.17-17.62,83.9.93,9.93-7.01,21.02-10.06,31.25-5.99,20.02-13.36,39.7-18.01,59.97-4.54,19.72-4.35,40.66-10.01,59.97-8.56,29.2-21.65,57.07-30.58,86.2-26.9,87.5-24.85,174.11,8.3,260.2,10.23,26.56,16.82,54.84,22.29,82.85,3.68,18.9,1.23,39.44-15.63,52.12-16.41,12.35-35.23,21.39-52.87,32.11-7.48,4.54-14.58,9.64-21.84,14.47l-.07.07Zm1.26-366.72l-6.7,1.97c.19,4.06.41,8.11.52,12.13.74,22.21,5.39,45.17,1.34,66.45-8.41,43.83-22.29,86.57-32.44,130.1-7.22,30.99-14.14,62.32-17.26,93.87-2.34,23.36,11.57,38.1,38.62,45.31-6.55-6.62-10.45-9.19-12.43-12.84-6.18-11.27-14.51-22.51-16.52-34.64-2.08-12.72.6-26.94,3.94-39.77,10.86-42.08,22.81-83.89,34.64-125.71,10.9-38.47,17.23-77.42,12.8-117.45-.74-6.62-4.28-12.95-6.51-19.42h0Z"/>
        <path class="cls-4" d="m788.91,1672.48c7.32-4.85,14.44-9.97,21.91-14.52,17.69-10.75,36.62-19.86,53.04-32.21,16.95-12.77,19.41-33.33,15.68-52.29-5.49-28.11-12.09-56.47-22.36-83.12-33.26-86.33-35.31-173.26-8.32-261.05,9-29.23,22.1-57.18,30.68-86.48,5.67-19.37,5.49-40.39,10.04-60.17,4.7-20.38,12.06-40.12,18.07-60.17,3.06-10.26,8.96-20.9,7.99-30.87-2.91-30.83,4.93-59.31,19.78-84.65,19.93-34,12.35-68.57,10.23-106-18.51,9.59-22.47,25.6-21.09,40.83,2.13,22.99-6.42,38.71-22.95,53.34-13.32,11.79-27.06,24.82-35.27,40.16-6.68,12.5-7.88,29.3-7.24,44.01.97,22.47-4.67,37.74-24.78,47.48-24.15,11.68-48.67,22.58-73.34,33.07-12.65,5.37-17.8,13.06-18.92,27.51-3.43,44.57,12.32,83.08,30.35,122.46,9.18,20.04,11.09,46.29,13.11,68.94.6,6.79-8.08,14.76-12,22-7.32-30.31-13.09-63.51-22.75-93.03-10.53-32.17-27.92-59.87-64.24-70.13-9-2.54-16.5-10.34-24.67-11.83h40.27c1.72-26.16,4.14-45.83,4.48-65.54.19-11.94,6.2-17.62,14.78-24.45,31.5-25.08,69.76-30.83,109.21-39.79,0-22.66-.78-45.61.49-68.45.41-7.09,6.35-13.88,9.82-20.79.26-.52,1.01-.78,1.53-1.12,35.5-21.8,58.19-50.02,59.79-94.8,1.39-38.99,38.81-56.22,58.28-84.57,2.95.88,2.75.83,5.7,1.71,0,13.75-.07,27.53,0,41.28.07,14.11-.63,28.33.63,42.33,3.96,43.78-1.69,86.41-21.32,126.2-6.42,13.03-10.11,28.18-9.29,42.85,1.34,24.63-.84,48.48-13.71,69.15-10.12,16.24-10.77,29.35.46,44.5,6.01,8.14,9.8,21.43,14.54,30.5-17.09,22.99-35.96,41.42-50.97,65.72-34.67,55.99-41.69,118.24-38.71,182.82,2.58,55.43,23.59,105.78,39.3,157.7,4.59,15.19,7.2,31.09,9.93,46.81,11.91,68.42-43.67,93.95-89.13,96.37-6.31.34-12.73-1.08-19.07-1.68h.07Z"/>
      </g>
      <path class="cls-6" d="m766.9,462.43c9.52-1.9,19.09,2.05,23.51,18.01,2.01,7.25,9.11,14.1,15.55,19.01,40.63,30.99,80.29,63.62,123.03,91.48,57.14,37.24,120.61,58.3,189.7,60.01,4.72.11,11.72,1.08,13.73,4.2,16.22,24.89,35.19,48.96,46.02,76.16,11.5,28.91-10.9,57.63-41.37,51.9-34.49-6.47-70.02-17.63-100.12-35.27-89.36-52.31-176.57-108.41-263.96-164.03-15.92-10.16-28.76-25.15-42.93-38.02-1.9-1.71-3.42-3.79-4.99-5.84-12.57-16.82-19.12-35.23-10.64-55.62,8.85-21.24,28.98-20.05,52.46-21.99Z"/>
      <path class="cls-6" d="m543.61,698.94c17.19,22.92,31.1,42.75,46.32,61.5,50.93,62.84,118.64,102.98,191.3,134.12,30.54,13.1,42.3,30.02,36.79,61.24-.78,4.35-.63,9,0,13.39,2.12,14.73-4.54,19.35-18.56,24.63-38.02,14.32-70.58,9.49-103.98-13.47-54.13-37.2-111.09-70.32-164.96-107.85-17.08-11.91-29.91-31.33-41.44-49.41-15.29-23.92-12.69-49.56,4.95-71.47,14.7-18.23,32.07-34.3,49.59-52.68Z"/>
      <path class="cls-18" d="m765.53,712.62c24.22,13.69,48.44,27.38,72.62,41.11,1.67.93,3.16,2.16,4.8,3.16,16.26,10.12,39.73,16.74,46.73,31.33,6.92,14.4-3.98,36.72-4.99,55.66-1.12,21.58-19.53,28.35-31.21,41.11-16.56,18.08-32.29,19.05-55.06,7.78-63.88-31.7-128.58-62.5-177.28-115.82-28.54-31.29-50.63-68.53-74.97-103.54-4.61-6.62-6.85-15.14-9.08-23.1-8.04-28.72.71-44.83,29.02-54.58,1.23-.41,2.38-.93,3.61-1.3,23.74-7.66,41.56-7.07,62.99,13.95,34.34,33.71,76.3,59.67,114.96,89.07,6.29,4.8,12.05,10.27,18.08,15.4-15.33-5.73-30.51-12.05-46.06-17.11-30.77-10.01-59.38,1.86-70.2,28.5-14.81,36.42-7.18,60.42,27.16,75.52,22.02,9.67,45.46,16.7,68.86,22.58,22.29,5.58,39.03-6.29,43.6-28.8,5.25-25.82-.45-49.15-17.71-69.53-2.72-3.2-4.02-7.55-5.95-11.38h.07Z"/>
      <path class="cls-7" d="m956.08,715.64c-18.79,21.39-36.05,41.04-55.06,62.65-27.23-16.3-54.73-32.07-81.55-48.92-63.88-40.22-130.1-77.5-183.19-132.33-12.09-12.5-22.29-28.31-28.76-44.46-10.42-25.97,2.9-51.94,29.95-58.41,19.35-4.61,39.99-3.87,60.98-5.58.15,40.89,18.56,68.94,47.73,88.73,65.59,44.53,132.33,87.35,198.59,130.88,3.13,2.05,6.25,4.13,11.31,7.44h0Z"/>
      <path class="cls-7" d="m947.6,959.33c20.8-45.09,39.88-87.76,28.87-140.67,27.27,6.99,49.67,13.02,72.21,18.45,24.18,5.8,48.55,10.6,72.66,16.7,5.28,1.34,12.95,5.51,13.91,9.67,5.39,23.51,11.61,47.32,12.76,71.25,1.64,34.38-21.8,60.6-56.59,62.5-21.8,1.19-44.68-2.05-65.81-7.89-25.67-7.07-50-18.97-78.02-30.02h0Z"/>
      <path class="cls-1" d="m821.63,427.61c19.31,5.99,34.67,10.16,49.48,15.74,3.87,1.45,8.11,7.14,8.63,11.35,3.94,31.81,25.6,49,52.49,57.7,44.16,14.32,89.03,27.64,134.57,36.24,22.17,4.17,38.1,10.79,48.85,30.1,7.44,13.36,16.18,26.04,22.81,39.77,5.54,11.5,1.71,21.91-12.35,20.35-32.63-3.61-65.59-6.96-97.4-14.66-53.2-12.87-98.59-40.92-138.84-78.2-16.22-15.03-36.61-25.48-54.43-38.92-11.64-8.78-24.22-17.67-32.37-29.35-5.65-8.11-8.45-22.47-5.17-31.33,3.09-8.3,15.85-12.98,23.74-18.79Z"/>
      <path class="cls-18" d="m1119.3,541.49c-16.33-.86-33.3.86-48.85-3.05-47.55-11.83-94.98-24.67-141.63-39.55-18.27-5.84-33.97-18.9-37.35-40.37-2.98-18.9-6.81-37.95,10.53-53.46,16.96-15.14,36.53-16,55.77-9.08,16.63,5.99,33.37,14.21,47.14,25.15,35.53,28.27,69.76,58.22,103.65,88.43,6.89,6.14,10.01,16.46,14.89,24.83l-4.1,7.09h-.04Zm-75.67-50.4c-10.42-7.11-16.22-11.68-22.55-15.29-16.52-9.45-33.19-18.68-49.96-27.68-4.76-2.57-10.12-4.02-15.18-5.99,1.79,5.32,1.97,13.36,5.65,15.55,22.25,13.39,45.2,25.63,68.16,37.76,1.79.93,5.43-1.6,13.88-4.39v.04Z"/>
      <path class="cls-18" d="m1159.66,795.82c0,10.86,2.9,22.66-.93,31.62-3.01,7.07-14.88,15.77-21.73,14.92-29.58-3.68-58.86-10.16-88.06-16.48-18.68-4.06-36.91-10.27-55.58-14.21-10.45-2.2-15.7-6.1-15.37-17.49.6-21.02.19-42.08.19-64.77,57.44,27.87,109.34,69.94,181.48,66.41Z"/>
      <path class="cls-21" d="m731.75,1015.77c-29.58,25.89-31.07,27.83-64.06,8.93-40.85-23.44-80.55-49.15-118.98-76.34-22.77-16.11-39.36-38.43-36.16-67.41,72.7,44.72,145.73,89.62,219.24,134.86l-.04-.04Z"/>
      <path class="cls-18" d="m545.09,961.26c12.95,9.04,25.37,19.05,38.99,26.94,32.55,18.83,65.78,36.57,98.55,55.06,5.06,2.86,13.13,7.18,13.21,10.98.33,17.19,1.9,35.79-3.91,51.27-5.54,14.73-21.54,7.89-30.43.6-33.56-27.53-66.19-56.18-98.81-84.82-5.17-4.54-10.16-10.49-12.54-16.82-4.95-13.1-8.07-26.86-11.98-40.33,2.31-.93,4.61-1.9,6.92-2.83v-.04Z"/>
      <path class="cls-18" d="m945.33,972.13c42.9,14.88,81.18,28.16,119.83,41.59-7.55,52.2-65.37,70.8-138.84,53.95,16.03-29.47,29.06-59.64,19.01-95.54h0Z"/>
      <path class="cls-10" d="m790.27,1306.25c2.23,6.47,5.8,12.8,6.51,19.42,4.43,40.03-1.9,78.98-12.8,117.45-11.87,41.82-23.77,83.63-34.64,125.71-3.31,12.84-6.03,27.05-3.94,39.77,2.01,12.13,10.34,23.33,16.52,34.64,1.97,3.61,5.88,6.18,12.43,12.84-27.05-7.18-40.96-21.95-38.62-45.31,3.13-31.55,10.04-62.87,17.26-93.87,10.16-43.53,24.03-86.28,32.44-130.1,4.09-21.28-.6-44.24-1.34-66.45-.15-4.06-.33-8.11-.52-12.13l6.7-1.97h0Z"/>
      <path class="cls-2" d="m765.53,712.33c1.93,3.83,3.24,8.18,5.95,11.38,17.26,20.35,22.95,43.71,17.71,69.53-4.58,22.55-21.32,34.38-43.6,28.8-23.4-5.88-46.84-12.87-68.86-22.58-34.34-15.1-41.97-39.06-27.16-75.52,10.83-26.64,39.44-38.51,70.2-28.5,15.55,5.06,30.69,11.38,46.06,17.11l-.26-.26-.04.04Zm-79.24,72.99c-19.38-35.34-1.19-57.07,28.13-75.56-36.98-3.94-48.44,3.13-55.02,31.81-5.21,22.58,2.12,35.34,26.9,43.75Z"/>
      <path class="cls-2" d="m1043.62,491.08c-8.48,2.79-12.09,5.36-13.88,4.39-22.95-12.17-45.91-24.37-68.16-37.76-3.68-2.23-3.87-10.23-5.65-15.55,5.1,1.97,10.42,3.42,15.18,5.99,16.78,9,33.45,18.19,49.96,27.68,6.32,3.65,12.13,8.18,22.55,15.29v-.04Z"/>
    </g>
    <path class="cls-14" d="m686.28,785.29c-24.78-8.41-32.11-21.17-26.9-43.75,6.62-28.68,18.04-35.79,55.02-31.81-29.32,18.49-47.51,40.22-28.13,75.56Z"/>
  </g>
</svg>