0
SECTION
2
HEADER
9
$INSUNITS
70
1
9
$ACADVER
1
AC1014
9
$HANDSEED
5
FFFF
0
ENDSEC
0
SECTION
2
TABLES
0
TABLE
2
VPORT
5
8
100
AcDbSymbolTable
0
ENDTAB
0
TABLE
2
LTYPE
5
5
100
AcDbSymbolTable
0
LTYPE
5
14
100
AcDbSymbolTableRecord
100
AcDbLinetypeTableRecord
2
BYBLOCK
70
0
0
LTYPE
5
15
100
AcDbSymbolTableRecord
100
AcDbLinetypeTableRecord
2
BYLAYER
70
0
0
ENDTAB
0
TABLE
2
LAYER
5
2
100
AcDbSymbolTable
70
2
0
LAYER
5
50
100
AcDbSymbolTableRecord
100
AcDbLayerTableRecord
2
0
70
0
6
CONTINUOUS
0
ENDTAB
0
TABLE
2
STYLE
5
3
100
AcDbSymbolTable
70
1
0
STYLE
5
11
100
AcDbSymbolTableRecord
100
AcDbTextStyleTableRecord
2
STANDARD
70
0
0
ENDTAB
0
TABLE
2
VIEW
5
6
100
AcDbSymbolTable
70
0
0
ENDTAB
0
TABLE
2
UCS
5
7
100
AcDbSymbolTable
70
0
0
ENDTAB
0
TABLE
2
APPID
5
9
100
AcDbSymbolTable
70
2
0
APPID
5
12
100
AcDbSymbolTableRecord
100
AcDbRegAppTableRecord
2
ACAD
70
0
0
ENDTAB
0
TABLE
2
DIMSTYLE
5
A
100
AcDbSymbolTable
70
1
0
ENDTAB
0
TABLE
2
BLOCK_RECORD
5
1
100
AcDbSymbolTable
70
1
0
BLOCK_RECORD
5
1F
100
AcDbSymbolTableRecord
100
AcDbBlockTableRecord
2
*MODEL_SPACE
0
BLOCK_RECORD
5
1B
100
AcDbSymbolTableRecord
100
AcDbBlockTableRecord
2
*PAPER_SPACE
0
ENDTAB
0
ENDSEC
0
SECTION
2
BLOCKS
0
BLOCK
5
20
100
AcDbEntity
100
AcDbBlockBegin
2
*MODEL_SPACE
0
ENDBLK
5
21
100
AcDbEntity
100
AcDbBlockEnd
0
BLOCK
5
1C
100
AcDbEntity
100
AcDbBlockBegin
2
*PAPER_SPACE
0
ENDBLK
5
1D
100
AcDbEntity
100
AcDbBlockEnd
0
ENDSEC
0
SECTION
2
ENTITIES
0
LWPOLYLINE
5
100
100
AcDbEntity
8
0
100
AcDbPolyline
90
8
70
1
43
0.0
10
-1.4369499308397549
20
-2.5616742369512218
10
-2.1073434582317909
20
-2.9487261204539963
42
-0.34302316783493242
10
-2.9111791392930155
20
-2.8376663939485858
42
-0.40674297132614157
10
-2.9111791392930093
20
2.8376663939485924
42
-0.34302316783493203
10
-2.1073434582317851
20
2.9487261204539998
10
-1.4369499308397491
20
2.5616742369512249
42
-0.51160816297636114
10
-1.3284103200599398
20
1.4951006727168066
42
0.44919361765765692
10
-1.3284103200599431
20
-1.4951006727168037
42
-0.51160816297636103
0
CIRCLE
5
101
100
AcDbEntity
8
0
100
AcDbCircle
10
6.9935308637805131e-16
20
-1.7483827159451283e-16
30
0
40
5.125
210
-0
220
0
230
1
0
CIRCLE
5
102
100
AcDbEntity
8
0
100
AcDbCircle
10
-4.1136206679760701
20
2.3749999999999853
30
0
40
0.18999999999999986
210
0
220
-0
230
1
0
CIRCLE
5
103
100
AcDbEntity
8
0
100
AcDbCircle
10
-4.1136206679760647
20
-2.3749999999999925
30
0
40
0.18999999999999986
210
0
220
-0
230
1
0
CIRCLE
5
104
100
AcDbEntity
8
0
100
AcDbCircle
10
0.56250000000000044
20
0.97427857925749273
30
0
40
0.12499999999999994
210
0
220
-0
230
1
0
LWPOLYLINE
5
105
100
AcDbEntity
8
0
100
AcDbPolyline
90
36
70
1
43
0.0
10
0.37687692307692422
20
-0.81797871333982164
42
0.29271653339770148
10
0.30999999999999989
20
-0.9224256829821037
10
0.30999999999999978
20
-1.1249999999999993
42
-0.99999999999999989
10
-0.30999999999999978
20
-1.1249999999999998
10
-0.30999999999999983
20
-0.92242568298210303
42
0.29271653339769438
10
-0.37687692307692405
20
-0.81797871333982186
42
-0.045956322694574302
10
-0.51995188396873337
20
-0.73537434615464015
42
0.29271653339769593
10
-0.64384407456571291
20
-0.72968071666422729
10
-0.81927857925749326
20
-0.83096787517317594
42
-0.99999999999999989
10
-1.1292785792574931
20
-0.29403212482682356
10
-0.95384407456571274
20
-0.19274496631787538
42
0.29271653339769865
10
-0.8968288070456566
20
-0.082604367185181257
42
-0.045956322694574524
10
-0.89682880704565637
20
0.082604367185182312
42
0.29271653339769793
10
-0.9538440745657123
20
0.19274496631787646
10
-1.1292785792574931
20
0.29403212482682456
42
-0.99999999999999989
10
-0.81927857925749292
20
0.83096787517317672
10
-0.64384407456571235
20
0.72968071666422807
42
0.29271653339769521
10
-0.5199518839687326
20
0.73537434615464059
42
-0.045956322694574302
10
-0.37687692307692316
20
0.81797871333982197
42
0.29271653339769604
10
-0.30999999999999978
20
0.92242568298210281
10
-0.30999999999999978
20
1.1249999999999993
42
-0.99999999999999989
10
0.30999999999999994
20
1.1249999999999998
10
0.30999999999999994
20
0.92242568298210303
42
0.29271653339769726
10
0.37687692307692311
20
0.81797871333982197
42
-0.045956322694574746
10
0.51995188396873382
20
0.73537434615464004
42
0.2927165333976961
10
0.6438440745657128
20
0.72968071666422718
10
0.81927857925749359
20
0.83096787517317583
42
-0.99999999999999989
10
1.1292785792574935
20
0.29403212482682373
10
0.95384407456571241
20
0.19274496631787552
42
0.29271653339769921
10
0.89682880704565626
20
0.082604367185180869
42
-0.045956322694574302
10
0.89682880704565604
20
-0.082604367185181576
42
0.29271653339769776
10
0.9538440745657123
20
-0.19274496631787613
10
1.1292785792574931
20
-0.29403212482682489
42
-0.99999999999999989
10
0.81927857925749292
20
-0.83096787517317594
10
0.64384407456571224
20
-0.72968071666422774
42
0.29271653339769776
10
0.51995188396873326
20
-0.73537434615464059
42
-0.045956322694574191
0
CIRCLE
5
106
100
AcDbEntity
8
0
100
AcDbCircle
10
1.1249999999999996
20
-1.7483827159451283e-16
30
0
40
0.12499999999999994
210
0
220
-0
230
1
0
CIRCLE
5
107
100
AcDbEntity
8
0
100
AcDbCircle
10
-0.56249999999999989
20
0.97427857925749306
30
0
40
0.12499999999999994
210
0
220
-0
230
1
0
CIRCLE
5
108
100
AcDbEntity
8
0
100
AcDbCircle
10
-0.56249999999999989
20
-0.97427857925749306
30
0
40
0.12499999999999994
210
0
220
-0
230
1
0
CIRCLE
5
109
100
AcDbEntity
8
0
100
AcDbCircle
10
0.56249999999999989
20
-0.97427857925749306
30
0
40
0.12499999999999994
210
0
220
-0
230
1
0
CIRCLE
5
110
100
AcDbEntity
8
0
100
AcDbCircle
10
-1.1249999999999996
20
0
30
0
40
0.12499999999999994
210
0
220
-0
230
1
0
CIRCLE
5
111
100
AcDbEntity
8
0
100
AcDbCircle
10
4.1136206679760647
20
-2.3749999999999867
30
0
40
0.18999999999999986
210
0
220
-0
230
1
0
CIRCLE
5
112
100
AcDbEntity
8
0
100
AcDbCircle
10
3.7351812567918261e-16
20
-4.7499999999999787
30
0
40
0.19
210
0
220
-0
230
1
0
CIRCLE
5
113
100
AcDbEntity
8
0
100
AcDbCircle
10
-3.3855047136028435e-15
20
4.7499999999999787
30
0
40
0.19
210
0
220
-0
230
1
0
CIRCLE
5
114
100
AcDbEntity
8
0
100
AcDbCircle
10
4.1136206679760621
20
2.3749999999999925
30
0
40
0.18999999999999986
210
0
220
-0
230
1
0
ENDSEC
0
SECTION
2
OBJECTS
0
DICTIONARY
5
C
100
AcDbDictionary
3
ACAD_GROUP
350
D
3
ACAD_MLINESTYLE
350
17
0
DICTIONARY
5
D
100
AcDbDictionary
0
DICTIONARY
5
1A
330
C
100
AcDbDictionary
0
DICTIONARY
5
17
100
AcDbDictionary
0
ENDSEC
0
EOF
