0
SECTION
2
HEADER
9
$INSUNITS
70
1
9
$ACADVER
1
AC1014
9
$HANDSEED
5
FFFF
0
ENDSEC
0
SECTION
2
TABLES
0
TABLE
2
VPORT
5
8
100
AcDbSymbolTable
0
ENDTAB
0
TABLE
2
LTYPE
5
5
100
AcDbSymbolTable
0
LTYPE
5
14
100
AcDbSymbolTableRecord
100
AcDbLinetypeTableRecord
2
BYBLOCK
70
0
0
LTYPE
5
15
100
AcDbSymbolTableRecord
100
AcDbLinetypeTableRecord
2
BYLAYER
70
0
0
ENDTAB
0
TABLE
2
LAYER
5
2
100
AcDbSymbolTable
70
2
0
LAYER
5
50
100
AcDbSymbolTableRecord
100
AcDbLayerTableRecord
2
0
70
0
6
CONTINUOUS
0
ENDTAB
0
TABLE
2
STYLE
5
3
100
AcDbSymbolTable
70
1
0
STYLE
5
11
100
AcDbSymbolTableRecord
100
AcDbTextStyleTableRecord
2
STANDARD
70
0
0
ENDTAB
0
TABLE
2
VIEW
5
6
100
AcDbSymbolTable
70
0
0
ENDTAB
0
TABLE
2
UCS
5
7
100
AcDbSymbolTable
70
0
0
ENDTAB
0
TABLE
2
APPID
5
9
100
AcDbSymbolTable
70
2
0
APPID
5
12
100
AcDbSymbolTableRecord
100
AcDbRegAppTableRecord
2
ACAD
70
0
0
ENDTAB
0
TABLE
2
DIMSTYLE
5
A
100
AcDbSymbolTable
70
1
0
ENDTAB
0
TABLE
2
BLOCK_RECORD
5
1
100
AcDbSymbolTable
70
1
0
BLOCK_RECORD
5
1F
100
AcDbSymbolTableRecord
100
AcDbBlockTableRecord
2
*MODEL_SPACE
0
BLOCK_RECORD
5
1B
100
AcDbSymbolTableRecord
100
AcDbBlockTableRecord
2
*PAPER_SPACE
0
ENDTAB
0
ENDSEC
0
SECTION
2
BLOCKS
0
BLOCK
5
20
100
AcDbEntity
100
AcDbBlockBegin
2
*MODEL_SPACE
0
ENDBLK
5
21
100
AcDbEntity
100
AcDbBlockEnd
0
BLOCK
5
1C
100
AcDbEntity
100
AcDbBlockBegin
2
*PAPER_SPACE
0
ENDBLK
5
1D
100
AcDbEntity
100
AcDbBlockEnd
0
ENDSEC
0
SECTION
2
ENTITIES
0
CIRCLE
5
100
100
AcDbEntity
8
0
100
AcDbCircle
10
-0.078206810725806722
20
0.21487144651671475
30
0
40
0.041338582677165357
210
0
220
0
230
1
0
CIRCLE
5
101
100
AcDbEntity
8
0
100
AcDbCircle
10
-0.14698072586848093
20
-0.17516480809586724
30
0
40
0.041338582677165343
210
0
220
0
230
1
0
CIRCLE
5
102
100
AcDbEntity
8
0
100
AcDbCircle
10
0.22518753659428764
20
-0.039706638420847554
30
0
40
0.041338582677165343
210
0
220
0
230
1
0
LWPOLYLINE
5
103
100
AcDbEntity
8
0
100
AcDbPolyline
90
4
70
1
43
0.0
10
4.3709567898628207e-17
20
0.44527559055118132
42
0.17632698070846436
10
-0.28621763250215593
20
0.34110089179825365
10
-0.20087112802704057
20
0.23938888847467771
42
-0.17632698070846384
10
2.1854783949314103e-16
20
0.31249999999999595
0
LWPOLYLINE
5
104
100
AcDbEntity
8
0
100
AcDbPolyline
90
4
70
1
43
0.0
10
0.38561997310244078
20
0.22263779527559063
42
0.17632698070846445
10
0.1522932212997368
20
0.41842218665703224
10
0.10688129478927683
20
0.29365394399561034
42
-0.17632698070846431
10
0.27063293868265098
20
0.15625000000000797
0
LWPOLYLINE
5
105
100
AcDbEntity
8
0
100
AcDbPolyline
90
4
70
1
43
0.0
10
0.38561997310244095
20
-0.2226377952755908
42
0.17632698070846542
10
0.43851085380189275
20
0.077321294858778741
10
0.30775242281633386
20
0.054265055520918648
42
-0.17632698070846534
10
0.27063293868265437
20
-0.15625000000001024
0
LWPOLYLINE
5
106
100
AcDbEntity
8
0
100
AcDbPolyline
90
4
70
1
43
0.0
10
-0.38561997310244112
20
0.22263779527559058
42
0.17632698070846467
10
-0.43851085380189275
20
-0.077321294858778949
10
-0.30775242281629622
20
-0.054265055520912181
42
-0.1763269807084642
10
-0.27063293868261956
20
0.15624999999998992
0
LWPOLYLINE
5
107
100
AcDbEntity
8
0
100
AcDbPolyline
90
4
70
1
43
0.0
10
-4.3709567898628207e-17
20
-0.44527559055118116
42
0.17632698070846559
10
0.28621763250215593
20
-0.34110089179825365
10
0.2008711280270461
20
-0.23938888847468379
42
-0.17632698070846603
10
-2.1854783949314103e-16
20
-0.312500000000004
0
LWPOLYLINE
5
108
100
AcDbEntity
8
0
100
AcDbPolyline
90
4
70
1
43
0.0
10
-0.38561997310244078
20
-0.22263779527559074
42
0.17632698070846511
10
-0.1522932212997368
20
-0.41842218665703235
10
-0.10688129478926656
20
-0.2936539439955822
42
-0.17632698070846545
10
-0.27063293868262328
20
-0.15624999999999173
0
CIRCLE
5
109
100
AcDbEntity
8
0
100
AcDbCircle
10
6.9935308637805131e-16
20
-1.6172540122492437e-15
30
0
40
0.17999999999999999
210
0
220
0
230
1
0
LWPOLYLINE
5
110
100
AcDbEntity
8
0
100
AcDbPolyline
90
60
70
1
43
0.0
10
-0.66474523328321822
20
0.11721251992518229
10
-0.56794657351251088
20
0.022242663335320958
42
-0.18726410998468296
10
-0.54446735009902769
20
-0.029677842358940384
42
0.016407632382536778
10
-0.54134917088225254
20
-0.065318793896067373
42
-0.18726410998467055
10
-0.55545579093720143
20
-0.12052763480287317
10
-0.63429251903047013
20
-0.23086359674482279
10
-0.50297749232181244
20
-0.26471057526005592
42
-0.1872641099846763
10
-0.45668363553747615
20
-0.29793544046187759
42
0.016407632382532969
10
-0.43616273735363859
20
-0.32724232029968287
42
-0.18726410998467
10
-0.4207750082293566
20
-0.38210788906594451
10
-0.43388163653839956
20
-0.51707999910530889
10
-0.30323599825243974
20
-0.48073482898651437
42
-0.18726410998466952
10
-0.24653190963713689
20
-0.48636147789643663
42
0.016407632382523657
10
-0.21410685058257442
20
-0.50148153124970651
42
-0.18726410998466828
10
-0.17334790187126223
20
-0.54130264303222997
10
-0.11721251992516518
20
-0.6647452332832432
10
-0.022242663335276948
20
-0.56794657351250855
42
-0.1872641099846647
10
0.029677842358978818
20
-0.5444673500990258
42
0.016407632382513495
10
0.065318793896053787
20
-0.54134917088225432
42
-0.18726410998466411
10
0.12052763480285762
20
-0.55545579093720354
10
0.23086359674483992
20
-0.63429251903049522
10
0.26471057526008429
20
-0.50297749232179401
42
-0.18726410998466228
10
0.2979354404619024
20
-0.45668363553746005
42
0.016407632382505026
10
0.32724232029965844
20
-0.4361627373536569
42
-0.18726410998465642
10
0.38210788906591675
20
-0.42077500822937741
10
0.51707999910532576
20
-0.43388163653842465
10
0.48073482898652076
20
-0.30323599825242703
42
-0.18726410998466356
10
0.48636147789644213
20
-0.2465319096371259
42
0.01640763238250037
10
0.50148153124969153
20
-0.21410685058260992
42
-0.18726410998464987
10
0.54130264303221265
20
-0.17334790187130286
10
0.66474523328326007
20
-0.11721251992519034
10
0.56794657351250888
20
-0.022242663335286059
42
-0.18726410998466839
10
0.54446735009902603
20
0.029677842358970846
42
0.01640763238250037
10
0.54134917088225865
20
0.06531879389601751
42
-0.18726410998464654
10
0.55545579093720843
20
0.12052763480281603
10
0.63429251903051198
20
0.23086359674481466
10
0.50297749232181022
20
0.26471057526005926
42
-0.18726410998467458
10
0.45668363553747421
20
0.29793544046188053
42
0.016407632382505449
10
0.43616273735367173
20
0.32724232029963868
42
-0.18726410998464471
10
0.4207750082293944
20
0.38210788906589416
10
0.43388163653844153
20
0.51707999910530089
10
0.30323599825246489
20
0.48073482898650172
42
-0.18726410998468113
10
0.2465319096371589
20
0.48636147789642542
42
0.016407632382514342
10
0.21410685058261586
20
0.50148153124968897
42
-0.18726410998464724
10
0.17334790187130955
20
0.54130264303220976
10
0.11721251992520712
20
0.66474523328323498
10
0.022242663335329864
20
0.56794657351251132
42
-0.18726410998468665
10
-0.029677842358932567
20
0.54446735009902825
42
0.016407632382524504
10
-0.065318793896030916
20
0.54134917088225698
42
-0.18726410998465276
10
-0.12052763480283127
20
0.55545579093720665
10
-0.2308635967447977
20
0.63429251903048711
10
-0.26471057526003122
20
0.50297749232182853
42
-0.18726410998468873
10
-0.29793544046185605
20
0.45668363553749014
42
0.016407632382532546
10
-0.32724232029966227
20
0.43616273735365402
42
-0.18726410998465975
10
-0.38210788906592141
20
0.42077500822937391
10
-0.51707999910528379
20
0.43388163653841672
10
-0.48073482898649517
20
0.30323599825247782
42
-0.18726410998468712
10
-0.48636147789641965
20
0.24653190963717025
42
0.016407632382537202
10
-0.50148153124970407
20
0.21410685058258039
42
-0.18726410998466492
10
-0.54130264303222708
20
0.17334790187126914
0
ENDSEC
0
SECTION
2
OBJECTS
0
DICTIONARY
5
C
100
AcDbDictionary
3
ACAD_GROUP
350
D
3
ACAD_MLINESTYLE
350
17
0
DICTIONARY
5
D
100
AcDbDictionary
0
DICTIONARY
5
1A
330
C
100
AcDbDictionary
0
DICTIONARY
5
17
100
AcDbDictionary
0
ENDSEC
0
EOF
