<?xml version="1.0" encoding="UTF-8" standalone="no"?>
<!-- Created with Inkscape (http://www.inkscape.org/) -->

<svg
   width="20mm"
   height="20mm"
   viewBox="0 0 20.000001 20"
   version="1.1"
   id="svg1"
   inkscape:version="1.3 (0e150ed6c4, 2023-07-21)"
   sodipodi:docname="Pride.svg"
   inkscape:export-filename="Pride.pdf"
   inkscape:export-xdpi="2540"
   inkscape:export-ydpi="2540"
   xmlns:inkscape="http://www.inkscape.org/namespaces/inkscape"
   xmlns:sodipodi="http://sodipodi.sourceforge.net/DTD/sodipodi-0.dtd"
   xmlns="http://www.w3.org/2000/svg"
   xmlns:svg="http://www.w3.org/2000/svg">
  <sodipodi:namedview
     id="namedview1"
     pagecolor="#ffffff"
     bordercolor="#000000"
     borderopacity="0.25"
     inkscape:showpageshadow="2"
     inkscape:pageopacity="0.0"
     inkscape:pagecheckerboard="0"
     inkscape:deskcolor="#d1d1d1"
     inkscape:document-units="mm"
     inkscape:zoom="5.9515614"
     inkscape:cx="35.116835"
     inkscape:cy="36.377008"
     inkscape:window-width="2560"
     inkscape:window-height="1377"
     inkscape:window-x="2552"
     inkscape:window-y="-8"
     inkscape:window-maximized="1"
     inkscape:current-layer="layer1" />
  <defs
     id="defs1">
    <clipPath
       clipPathUnits="userSpaceOnUse"
       id="clipPath6382-5">
      <path
         d="M 0,800 H 800 V 0 H 0 Z"
         id="path6380-0" />
    </clipPath>
    <clipPath
       clipPathUnits="userSpaceOnUse"
       id="clipPath6406-3">
      <path
         d="M 284.941,580.678 H 452.529 V 376.758 H 284.941 Z"
         id="path6404-2" />
    </clipPath>
    <clipPath
       clipPathUnits="userSpaceOnUse"
       id="clipPath6422-1">
      <path
         d="M 155.926,390.276 H 298.601 V 173.023 H 155.926 Z"
         id="path6420-3" />
    </clipPath>
    <clipPath
       clipPathUnits="userSpaceOnUse"
       id="clipPath6438-1">
      <path
         d="m 553.411,592.406 h 93.656 V 420.223 h -93.656 z"
         id="path6436-4" />
    </clipPath>
    <clipPath
       clipPathUnits="userSpaceOnUse"
       id="clipPath6454-8">
      <path
         d="m 553.778,309.675 h 95.314 V 168.291 h -95.314 z"
         id="path6452-5" />
    </clipPath>
    <clipPath
       clipPathUnits="userSpaceOnUse"
       id="clipPath4">
      <path
         d="M 0,216 H 216 V 0 H 0 Z"
         transform="translate(-50.771902,-121.00131)"
         id="path4" />
    </clipPath>
    <clipPath
       clipPathUnits="userSpaceOnUse"
       id="clipPath6">
      <path
         d="M 0,216 H 216 V 0 H 0 Z"
         transform="translate(-149.7024,-150.3123)"
         id="path6" />
    </clipPath>
    <clipPath
       clipPathUnits="userSpaceOnUse"
       id="clipPath8">
      <path
         d="M 0,216 H 216 V 0 H 0 Z"
         transform="translate(-50.771902,-121.00131)"
         id="path8" />
    </clipPath>
    <clipPath
       clipPathUnits="userSpaceOnUse"
       id="clipPath11">
      <g
         id="g59"
         transform="matrix(1.6004879,0,0,-1.6004879,93.057656,-98.896264)">
        <path
           d="M -110.4646,-128.42594 H 24.494244 V 6.5329077 H -110.4646 Z"
           id="path59"
           style="stroke-width:0.624809" />
      </g>
    </clipPath>
    <clipPath
       clipPathUnits="userSpaceOnUse"
       id="clipPath60">
      <g
         id="g61"
         transform="matrix(1.6004879,0,0,-1.6004879,102.56046,-50.169159)">
        <path
           d="M -110.4646,-128.42594 H 24.494244 V 6.5329077 H -110.4646 Z"
           id="path60"
           style="stroke-width:0.624809" />
      </g>
    </clipPath>
    <clipPath
       clipPathUnits="userSpaceOnUse"
       id="clipPath64">
      <g
         id="g65"
         transform="matrix(1.6004879,0,0,-1.6004879,41.467157,-102.51976)">
        <path
           d="M -110.4646,-128.42594 H 24.494244 V 6.5329077 H -110.4646 Z"
           id="path64"
           style="stroke-width:0.624809" />
      </g>
    </clipPath>
    <clipPath
       clipPathUnits="userSpaceOnUse"
       id="clipPath62">
      <g
         id="g63"
         transform="matrix(1.6004879,0,0,-1.6004879,43.740753,-71.856963)">
        <path
           d="M -110.4646,-128.42594 H 24.494244 V 6.5329077 H -110.4646 Z"
           id="path62"
           style="stroke-width:0.624809" />
      </g>
    </clipPath>
    <clipPath
       clipPathUnits="userSpaceOnUse"
       id="clipPath22">
      <path
         d="M 0,216 H 216 V 0 H 0 Z"
         transform="translate(-51.445601,-114.4146)"
         id="path22" />
    </clipPath>
    <clipPath
       clipPathUnits="userSpaceOnUse"
       id="clipPath24">
      <path
         d="M 0,216 H 216 V 0 H 0 Z"
         transform="translate(-148.00611,-146.2229)"
         id="path24" />
    </clipPath>
    <clipPath
       clipPathUnits="userSpaceOnUse"
       id="clipPath26">
      <path
         d="M 0,216 H 216 V 0 H 0 Z"
         transform="translate(-51.445601,-109.97601)"
         id="path26" />
    </clipPath>
    <clipPath
       clipPathUnits="userSpaceOnUse"
       id="clipPath28">
      <path
         d="M 0,216 H 216 V 0 H 0 Z"
         transform="translate(-148.00611,-141.7842)"
         id="path28" />
    </clipPath>
    <clipPath
       clipPathUnits="userSpaceOnUse"
       id="clipPath30">
      <path
         d="M 0,216 H 216 V 0 H 0 Z"
         transform="translate(-51.445601,-105.5085)"
         id="path30" />
    </clipPath>
    <clipPath
       clipPathUnits="userSpaceOnUse"
       id="clipPath32">
      <path
         d="M 0,216 H 216 V 0 H 0 Z"
         transform="translate(-148.00611,-137.3167)"
         id="path32" />
    </clipPath>
    <clipPath
       clipPathUnits="userSpaceOnUse"
       id="clipPath34">
      <path
         d="M 0,216 H 216 V 0 H 0 Z"
         transform="translate(-51.445601,-101.0542)"
         id="path34" />
    </clipPath>
    <clipPath
       clipPathUnits="userSpaceOnUse"
       id="clipPath36">
      <path
         d="M 0,216 H 216 V 0 H 0 Z"
         transform="translate(-148.00611,-132.8625)"
         id="path36" />
    </clipPath>
    <clipPath
       clipPathUnits="userSpaceOnUse"
       id="clipPath38">
      <path
         d="M 0,216 H 216 V 0 H 0 Z"
         transform="translate(-51.445601,-96.586802)"
         id="path38" />
    </clipPath>
    <clipPath
       clipPathUnits="userSpaceOnUse"
       id="clipPath40">
      <path
         d="M 0,216 H 216 V 0 H 0 Z"
         transform="translate(-148.00611,-128.395)"
         id="path40" />
    </clipPath>
    <clipPath
       clipPathUnits="userSpaceOnUse"
       id="clipPath42">
      <path
         d="m 85.929,158.482 c -7.252,-2.098 -13.479,-4.968 -18.682,-8.611 v 0 c -5.203,-3.643 -9.25,-7.932 -12.139,-12.862 v 0 c -2.893,-4.931 -4.336,-10.266 -4.336,-16.008 v 0 c 0,-5.889 1.365,-11.315 4.099,-16.283 v 0 c 2.732,-4.968 6.674,-9.293 11.824,-12.972 v 0 c 5.148,-3.681 11.376,-6.552 18.683,-8.611 v 0 c 7.304,-2.06 15.475,-3.092 24.516,-3.092 v 0 c 4.729,0 9.117,0.314 13.164,0.939 v 0 c 4.045,0.625 7.726,1.397 11.037,2.318 v 0 c 3.31,0.919 6.227,1.932 8.749,3.036 v 0 c 2.523,1.104 4.676,2.134 6.464,3.092 v 0 c 2.102,1.176 3.232,2.501 3.39,3.974 v 0 c 0.158,1.472 -0.5,2.981 -1.97,4.526 v 0 l -4.415,4.306 c -3.154,3.163 -7.201,3.532 -12.14,1.104 v 0 c -2.734,-1.326 -6.07,-2.595 -10.011,-3.809 v 0 c -3.942,-1.215 -8.277,-1.821 -13.007,-1.821 v 0 c -5.466,0 -10.196,0.679 -14.189,2.042 v 0 c -3.996,1.361 -7.307,3.163 -9.932,5.409 v 0 c -2.629,2.244 -4.572,4.783 -5.834,7.617 v 0 c -1.261,2.834 -1.892,5.723 -1.892,8.667 v 0 c 0,2.87 0.604,5.648 1.814,8.335 v 0 c 1.206,2.686 3.098,5.078 5.675,7.176 v 0 c 2.574,2.098 5.858,3.79 9.853,5.079 v 0 c 3.993,1.287 8.829,1.932 14.505,1.932 v 0 c 4.203,0 8.092,-0.48 11.667,-1.436 v 0 c 3.571,-0.957 6.674,-1.951 9.302,-2.98 v 0 c 2.416,-1.032 4.623,-1.436 6.621,-1.215 v 0 c 1.995,0.221 3.73,1.177 5.203,2.871 v 0 l 3.941,4.526 c 1.471,1.618 2.074,3.146 1.813,4.582 v 0 c -0.263,1.434 -1.497,2.704 -3.705,3.808 v 0 c -1.682,0.809 -3.68,1.656 -5.99,2.539 v 0 c -2.313,0.883 -4.993,1.692 -8.041,2.429 v 0 c -3.05,0.735 -6.412,1.342 -10.09,1.822 v 0 c -3.681,0.477 -7.674,0.717 -11.982,0.717 v 0 c -8.726,0 -16.712,-1.048 -23.965,-3.146"
         id="path42" />
    </clipPath>
    <clipPath
       clipPathUnits="userSpaceOnUse"
       id="clipPath44">
      <path
         d="m 85.929,158.482 c -7.252,-2.098 -13.479,-4.968 -18.682,-8.611 v 0 c -5.203,-3.643 -9.25,-7.932 -12.139,-12.862 v 0 c -2.893,-4.931 -4.336,-10.266 -4.336,-16.008 v 0 c 0,-5.889 1.365,-11.315 4.099,-16.283 v 0 c 2.732,-4.968 6.674,-9.293 11.824,-12.972 v 0 c 5.148,-3.681 11.376,-6.552 18.683,-8.611 v 0 c 7.304,-2.06 15.475,-3.092 24.516,-3.092 v 0 c 4.729,0 9.117,0.314 13.164,0.939 v 0 c 4.045,0.625 7.726,1.397 11.037,2.318 v 0 c 3.31,0.919 6.227,1.932 8.749,3.036 v 0 c 2.523,1.104 4.676,2.134 6.464,3.092 v 0 c 2.102,1.176 3.232,2.501 3.39,3.974 v 0 c 0.158,1.472 -0.5,2.981 -1.97,4.526 v 0 l -4.415,4.306 c -3.154,3.163 -7.201,3.532 -12.14,1.104 v 0 c -2.734,-1.326 -6.07,-2.595 -10.011,-3.809 v 0 c -3.942,-1.215 -8.277,-1.821 -13.007,-1.821 v 0 c -5.466,0 -10.196,0.679 -14.189,2.042 v 0 c -3.996,1.361 -7.307,3.163 -9.932,5.409 v 0 c -2.629,2.244 -4.572,4.783 -5.834,7.617 v 0 c -1.261,2.834 -1.892,5.723 -1.892,8.667 v 0 c 0,2.87 0.604,5.648 1.814,8.335 v 0 c 1.206,2.686 3.098,5.078 5.675,7.176 v 0 c 2.574,2.098 5.858,3.79 9.853,5.079 v 0 c 3.993,1.287 8.829,1.932 14.505,1.932 v 0 c 4.203,0 8.092,-0.48 11.667,-1.436 v 0 c 3.571,-0.957 6.674,-1.951 9.302,-2.98 v 0 c 2.416,-1.032 4.623,-1.436 6.621,-1.215 v 0 c 1.995,0.221 3.73,1.177 5.203,2.871 v 0 l 3.941,4.526 c 1.471,1.618 2.074,3.146 1.813,4.582 v 0 c -0.263,1.434 -1.497,2.704 -3.705,3.808 v 0 c -1.682,0.809 -3.68,1.656 -5.99,2.539 v 0 c -2.313,0.883 -4.993,1.692 -8.041,2.429 v 0 c -3.05,0.735 -6.412,1.342 -10.09,1.822 v 0 c -3.681,0.477 -7.674,0.717 -11.982,0.717 v 0 c -8.726,0 -16.712,-1.048 -23.965,-3.146"
         id="path44" />
    </clipPath>
    <clipPath
       clipPathUnits="userSpaceOnUse"
       id="clipPath46">
      <path
         d="m 85.929,158.482 c -7.252,-2.098 -13.479,-4.968 -18.682,-8.611 v 0 c -5.203,-3.643 -9.25,-7.932 -12.139,-12.862 v 0 c -2.893,-4.931 -4.336,-10.266 -4.336,-16.008 v 0 c 0,-5.889 1.365,-11.315 4.099,-16.283 v 0 c 2.732,-4.968 6.674,-9.293 11.824,-12.972 v 0 c 5.148,-3.681 11.376,-6.552 18.683,-8.611 v 0 c 7.304,-2.06 15.475,-3.092 24.516,-3.092 v 0 c 4.729,0 9.117,0.314 13.164,0.939 v 0 c 4.045,0.625 7.726,1.397 11.037,2.318 v 0 c 3.31,0.919 6.227,1.932 8.749,3.036 v 0 c 2.523,1.104 4.676,2.134 6.464,3.092 v 0 c 2.102,1.176 3.232,2.501 3.39,3.974 v 0 c 0.158,1.472 -0.5,2.981 -1.97,4.526 v 0 l -4.415,4.306 c -3.154,3.163 -7.201,3.532 -12.14,1.104 v 0 c -2.734,-1.326 -6.07,-2.595 -10.011,-3.809 v 0 c -3.942,-1.215 -8.277,-1.821 -13.007,-1.821 v 0 c -5.466,0 -10.196,0.679 -14.189,2.042 v 0 c -3.996,1.361 -7.307,3.163 -9.932,5.409 v 0 c -2.629,2.244 -4.572,4.783 -5.834,7.617 v 0 c -1.261,2.834 -1.892,5.723 -1.892,8.667 v 0 c 0,2.87 0.604,5.648 1.814,8.335 v 0 c 1.206,2.686 3.098,5.078 5.675,7.176 v 0 c 2.574,2.098 5.858,3.79 9.853,5.079 v 0 c 3.993,1.287 8.829,1.932 14.505,1.932 v 0 c 4.203,0 8.092,-0.48 11.667,-1.436 v 0 c 3.571,-0.957 6.674,-1.951 9.302,-2.98 v 0 c 2.416,-1.032 4.623,-1.436 6.621,-1.215 v 0 c 1.995,0.221 3.73,1.177 5.203,2.871 v 0 l 3.941,4.526 c 1.471,1.618 2.074,3.146 1.813,4.582 v 0 c -0.263,1.434 -1.497,2.704 -3.705,3.808 v 0 c -1.682,0.809 -3.68,1.656 -5.99,2.539 v 0 c -2.313,0.883 -4.993,1.692 -8.041,2.429 v 0 c -3.05,0.735 -6.412,1.342 -10.09,1.822 v 0 c -3.681,0.477 -7.674,0.717 -11.982,0.717 v 0 c -8.726,0 -16.712,-1.048 -23.965,-3.146"
         id="path46" />
    </clipPath>
    <clipPath
       clipPathUnits="userSpaceOnUse"
       id="clipPath48">
      <path
         d="m 85.929,158.482 c -7.252,-2.098 -13.479,-4.968 -18.682,-8.611 v 0 c -5.203,-3.643 -9.25,-7.932 -12.139,-12.862 v 0 c -2.893,-4.931 -4.336,-10.266 -4.336,-16.008 v 0 c 0,-5.889 1.365,-11.315 4.099,-16.283 v 0 c 2.732,-4.968 6.674,-9.293 11.824,-12.972 v 0 c 5.148,-3.681 11.376,-6.552 18.683,-8.611 v 0 c 7.304,-2.06 15.475,-3.092 24.516,-3.092 v 0 c 4.729,0 9.117,0.314 13.164,0.939 v 0 c 4.045,0.625 7.726,1.397 11.037,2.318 v 0 c 3.31,0.919 6.227,1.932 8.749,3.036 v 0 c 2.523,1.104 4.676,2.134 6.464,3.092 v 0 c 2.102,1.176 3.232,2.501 3.39,3.974 v 0 c 0.158,1.472 -0.5,2.981 -1.97,4.526 v 0 l -4.415,4.306 c -3.154,3.163 -7.201,3.532 -12.14,1.104 v 0 c -2.734,-1.326 -6.07,-2.595 -10.011,-3.809 v 0 c -3.942,-1.215 -8.277,-1.821 -13.007,-1.821 v 0 c -5.466,0 -10.196,0.679 -14.189,2.042 v 0 c -3.996,1.361 -7.307,3.163 -9.932,5.409 v 0 c -2.629,2.244 -4.572,4.783 -5.834,7.617 v 0 c -1.261,2.834 -1.892,5.723 -1.892,8.667 v 0 c 0,2.87 0.604,5.648 1.814,8.335 v 0 c 1.206,2.686 3.098,5.078 5.675,7.176 v 0 c 2.574,2.098 5.858,3.79 9.853,5.079 v 0 c 3.993,1.287 8.829,1.932 14.505,1.932 v 0 c 4.203,0 8.092,-0.48 11.667,-1.436 v 0 c 3.571,-0.957 6.674,-1.951 9.302,-2.98 v 0 c 2.416,-1.032 4.623,-1.436 6.621,-1.215 v 0 c 1.995,0.221 3.73,1.177 5.203,2.871 v 0 l 3.941,4.526 c 1.471,1.618 2.074,3.146 1.813,4.582 v 0 c -0.263,1.434 -1.497,2.704 -3.705,3.808 v 0 c -1.682,0.809 -3.68,1.656 -5.99,2.539 v 0 c -2.313,0.883 -4.993,1.692 -8.041,2.429 v 0 c -3.05,0.735 -6.412,1.342 -10.09,1.822 v 0 c -3.681,0.477 -7.674,0.717 -11.982,0.717 v 0 c -8.726,0 -16.712,-1.048 -23.965,-3.146"
         id="path48" />
    </clipPath>
    <clipPath
       clipPathUnits="userSpaceOnUse"
       id="clipPath50">
      <path
         d="m 85.929,158.482 c -7.252,-2.098 -13.479,-4.968 -18.682,-8.611 v 0 c -5.203,-3.643 -9.25,-7.932 -12.139,-12.862 v 0 c -2.893,-4.931 -4.336,-10.266 -4.336,-16.008 v 0 c 0,-5.889 1.365,-11.315 4.099,-16.283 v 0 c 2.732,-4.968 6.674,-9.293 11.824,-12.972 v 0 c 5.148,-3.681 11.376,-6.552 18.683,-8.611 v 0 c 7.304,-2.06 15.475,-3.092 24.516,-3.092 v 0 c 4.729,0 9.117,0.314 13.164,0.939 v 0 c 4.045,0.625 7.726,1.397 11.037,2.318 v 0 c 3.31,0.919 6.227,1.932 8.749,3.036 v 0 c 2.523,1.104 4.676,2.134 6.464,3.092 v 0 c 2.102,1.176 3.232,2.501 3.39,3.974 v 0 c 0.158,1.472 -0.5,2.981 -1.97,4.526 v 0 l -4.415,4.306 c -3.154,3.163 -7.201,3.532 -12.14,1.104 v 0 c -2.734,-1.326 -6.07,-2.595 -10.011,-3.809 v 0 c -3.942,-1.215 -8.277,-1.821 -13.007,-1.821 v 0 c -5.466,0 -10.196,0.679 -14.189,2.042 v 0 c -3.996,1.361 -7.307,3.163 -9.932,5.409 v 0 c -2.629,2.244 -4.572,4.783 -5.834,7.617 v 0 c -1.261,2.834 -1.892,5.723 -1.892,8.667 v 0 c 0,2.87 0.604,5.648 1.814,8.335 v 0 c 1.206,2.686 3.098,5.078 5.675,7.176 v 0 c 2.574,2.098 5.858,3.79 9.853,5.079 v 0 c 3.993,1.287 8.829,1.932 14.505,1.932 v 0 c 4.203,0 8.092,-0.48 11.667,-1.436 v 0 c 3.571,-0.957 6.674,-1.951 9.302,-2.98 v 0 c 2.416,-1.032 4.623,-1.436 6.621,-1.215 v 0 c 1.995,0.221 3.73,1.177 5.203,2.871 v 0 l 3.941,4.526 c 1.471,1.618 2.074,3.146 1.813,4.582 v 0 c -0.263,1.434 -1.497,2.704 -3.705,3.808 v 0 c -1.682,0.809 -3.68,1.656 -5.99,2.539 v 0 c -2.313,0.883 -4.993,1.692 -8.041,2.429 v 0 c -3.05,0.735 -6.412,1.342 -10.09,1.822 v 0 c -3.681,0.477 -7.674,0.717 -11.982,0.717 v 0 c -8.726,0 -16.712,-1.048 -23.965,-3.146"
         id="path50" />
    </clipPath>
    <clipPath
       clipPathUnits="userSpaceOnUse"
       id="clipPath52">
      <path
         d="m 85.929,158.482 c -7.252,-2.098 -13.479,-4.968 -18.682,-8.611 v 0 c -5.203,-3.643 -9.25,-7.932 -12.139,-12.862 v 0 c -2.893,-4.931 -4.336,-10.266 -4.336,-16.008 v 0 c 0,-5.889 1.365,-11.315 4.099,-16.283 v 0 c 2.732,-4.968 6.674,-9.293 11.824,-12.972 v 0 c 5.148,-3.681 11.376,-6.552 18.683,-8.611 v 0 c 7.304,-2.06 15.475,-3.092 24.516,-3.092 v 0 c 4.729,0 9.117,0.314 13.164,0.939 v 0 c 4.045,0.625 7.726,1.397 11.037,2.318 v 0 c 3.31,0.919 6.227,1.932 8.749,3.036 v 0 c 2.523,1.104 4.676,2.134 6.464,3.092 v 0 c 2.102,1.176 3.232,2.501 3.39,3.974 v 0 c 0.158,1.472 -0.5,2.981 -1.97,4.526 v 0 l -4.415,4.306 c -3.154,3.163 -7.201,3.532 -12.14,1.104 v 0 c -2.734,-1.326 -6.07,-2.595 -10.011,-3.809 v 0 c -3.942,-1.215 -8.277,-1.821 -13.007,-1.821 v 0 c -5.466,0 -10.196,0.679 -14.189,2.042 v 0 c -3.996,1.361 -7.307,3.163 -9.932,5.409 v 0 c -2.629,2.244 -4.572,4.783 -5.834,7.617 v 0 c -1.261,2.834 -1.892,5.723 -1.892,8.667 v 0 c 0,2.87 0.604,5.648 1.814,8.335 v 0 c 1.206,2.686 3.098,5.078 5.675,7.176 v 0 c 2.574,2.098 5.858,3.79 9.853,5.079 v 0 c 3.993,1.287 8.829,1.932 14.505,1.932 v 0 c 4.203,0 8.092,-0.48 11.667,-1.436 v 0 c 3.571,-0.957 6.674,-1.951 9.302,-2.98 v 0 c 2.416,-1.032 4.623,-1.436 6.621,-1.215 v 0 c 1.995,0.221 3.73,1.177 5.203,2.871 v 0 l 3.941,4.526 c 1.471,1.618 2.074,3.146 1.813,4.582 v 0 c -0.263,1.434 -1.497,2.704 -3.705,3.808 v 0 c -1.682,0.809 -3.68,1.656 -5.99,2.539 v 0 c -2.313,0.883 -4.993,1.692 -8.041,2.429 v 0 c -3.05,0.735 -6.412,1.342 -10.09,1.822 v 0 c -3.681,0.477 -7.674,0.717 -11.982,0.717 v 0 c -8.726,0 -16.712,-1.048 -23.965,-3.146"
         id="path52" />
    </clipPath>
    <clipPath
       clipPathUnits="userSpaceOnUse"
       id="clipPath54">
      <path
         d="M 0,216 H 216 V 0 H 0 Z"
         transform="translate(-152.69781,-93.4018)"
         id="path54" />
    </clipPath>
    <clipPath
       clipPathUnits="userSpaceOnUse"
       id="clipPath56">
      <path
         d="M 0,216 H 216 V 0 H 0 Z"
         transform="translate(-84.475405,-108.6286)"
         id="path56" />
    </clipPath>
    <clipPath
       clipPathUnits="userSpaceOnUse"
       id="clipPath58">
      <path
         d="M 0,216 H 216 V 0 H 0 Z"
         transform="translate(-50.771902,-121.00131)"
         id="path58" />
    </clipPath>
  </defs>
  <g
     inkscape:label="Layer 1"
     inkscape:groupmode="layer"
     id="layer1"
     transform="translate(-98.160416,-141.2875)">
    <g
       id="g2"
       transform="matrix(1.6878503,0,0,1.6878503,-9.479898,-107.85139)">
      <path
         id="path3"
         d="m 0,0 17.491,-19.209 29.254,-10.215 55.181,1.824 v -26.158 c -0.158,-1.474 -1.288,-2.798 -3.39,-3.975 -1.788,-0.957 -3.941,-1.987 -6.464,-3.091 -2.522,-1.104 -5.439,-2.117 -8.75,-3.036 -3.31,-0.921 -6.991,-1.694 -11.036,-2.318 -4.047,-0.625 -8.435,-0.939 -13.164,-0.939 -9.041,0 -17.212,1.032 -24.516,3.092 -7.307,2.059 -13.534,4.93 -18.683,8.611 -5.151,3.679 -9.092,8.003 -11.824,12.971 C 1.365,-37.475 0,-32.048 0,-26.159 Z"
         style="fill:#ac3724;fill-opacity:1;fill-rule:nonzero;stroke:none"
         transform="matrix(0.07768898,0,0,-0.07768898,65.738212,152.50293)"
         clip-path="url(#clipPath4)" />
      <path
         id="path5"
         d="m 0,0 -40.731,1.476 c -8.726,0 -21.693,-6.415 -28.945,-8.513 -7.252,-2.097 -7.576,-15.92 -12.779,-19.563 l 13.874,-20.093 c 1.207,2.686 3.099,5.078 5.675,7.176 2.575,2.098 5.858,3.79 9.854,5.078 3.993,1.287 8.829,1.932 14.505,1.932 4.202,0 8.092,-0.479 11.666,-1.435 3.572,-0.957 6.674,-1.951 9.302,-2.981 2.417,-1.031 4.624,-1.435 6.622,-1.214 1.995,0.221 3.729,1.176 5.202,2.87 l 3.942,4.527 c 1.471,1.618 2.074,3.146 1.813,4.581 z"
         style="fill:#ac3724;fill-opacity:1;fill-rule:nonzero;stroke:none"
         transform="matrix(0.07768898,0,0,-0.07768898,73.424021,150.22578)"
         clip-path="url(#clipPath6)" />
      <path
         id="path7"
         d="m 0,0 c 0,5.741 1.444,11.076 4.336,16.008 2.889,4.93 6.937,9.218 12.139,12.861 5.203,3.644 11.43,6.514 18.683,8.612 7.252,2.097 15.238,3.146 23.964,3.146 4.308,0 8.302,-0.24 11.982,-0.718 3.678,-0.479 7.04,-1.087 10.09,-1.821 3.047,-0.737 5.728,-1.546 8.041,-2.429 2.31,-0.883 4.308,-1.73 5.99,-2.539 2.208,-1.104 3.442,-2.374 3.705,-3.809 0.262,-1.435 -0.342,-2.963 -1.813,-4.582 l -3.941,-4.526 c -1.473,-1.694 -3.207,-2.65 -5.203,-2.87 -1.998,-0.221 -4.205,0.182 -6.622,1.214 -2.628,1.03 -5.729,2.024 -9.301,2.981 -3.575,0.956 -7.464,1.435 -11.667,1.435 -5.676,0 -10.511,-0.645 -14.505,-1.932 C 41.883,19.742 38.599,18.05 36.025,15.953 33.448,13.855 31.556,11.462 30.349,8.777 29.14,6.089 28.536,3.312 28.536,0.442 c 0,-2.945 0.631,-5.834 1.892,-8.667 1.261,-2.834 3.205,-5.373 5.833,-7.617 2.626,-2.246 5.937,-4.049 9.933,-5.41 3.993,-1.362 8.723,-2.042 14.189,-2.042 4.73,0 9.065,0.607 13.007,1.822 3.941,1.214 7.277,2.483 10.011,3.808 4.939,2.429 8.987,2.06 12.14,-1.104 l 4.414,-4.305 c 1.471,-1.546 2.129,-3.055 1.971,-4.527 -0.158,-1.473 -1.288,-2.798 -3.39,-3.974 -1.788,-0.957 -3.941,-1.987 -6.464,-3.091 -2.522,-1.104 -5.439,-2.117 -8.75,-3.036 -3.31,-0.921 -6.991,-1.694 -11.036,-2.318 -4.047,-0.625 -8.435,-0.939 -13.164,-0.939 -9.041,0 -17.212,1.032 -24.516,3.091 -7.307,2.06 -13.534,4.93 -18.683,8.611 -5.151,3.68 -9.092,8.004 -11.824,12.972 C 1.365,-11.316 0,-5.889 0,0"
         style="fill:#f27121;fill-opacity:1;fill-rule:nonzero;stroke:none"
         transform="matrix(0.07768898,0,0,-0.07768898,65.738212,152.50293)"
         clip-path="url(#clipPath8)" />
      <path
         d="m 0,0 -2.196,1.455 c -2.318,3.748 -3.737,5.292 -3.651,9.728 0.131,6.827 3.213,13.04 8.68,17.493 5.104,4.153 16.253,5.848 24.803,6.618 C 24.491,33.68 24.638,31.674 19.642,30.179 13.961,28.479 7.537,18.387 14.827,12.345 18.447,9.347 18.891,8.772 19.752,7.079 14.915,7.607 5.208,3.132 2.519,0.512"
         style="opacity:0.630005;fill:#3c2215;fill-opacity:1;fill-rule:nonzero;stroke:none"
         transform="matrix(0.07768898,0,0,-0.07768898,68.299438,153.40794)"
         clip-path="url(#clipPath11)"
         id="path10" />
      <path
         d="m 0,0 c 14.058,-3.85 -14.853,26.852 6.499,23.724 l -16.342,8.79 -12.739,15.892 2.693,-12.792 c -0.658,-1.261 -1.339,-7.673 -0.842,-9.005 l -2.237,4.615 0.496,-10.74 7.989,-8.494 5.905,-4.947 C -8.576,7.043 -5.959,4.062 0,0"
         style="opacity:0.630005;fill:#3c2215;fill-opacity:1;fill-rule:nonzero;stroke:none"
         transform="matrix(0.07768898,0,0,-0.07768898,67.561175,157.1935)"
         clip-path="url(#clipPath60)"
         id="path13" />
      <path
         d="M 0,0 C 0,0 10.536,13.01 -1.459,26.463 L 5.405,24.004 15.278,34.194 15.261,6.972 5.516,-1.389 Z"
         style="opacity:0.630005;fill:#3c2215;fill-opacity:1;fill-rule:nonzero;stroke:none"
         transform="matrix(0.07768898,0,0,-0.07768898,72.307451,153.12643)"
         clip-path="url(#clipPath64)"
         id="path16" />
      <path
         d="m 0,0 c 0,0 13.955,-17.581 7.21,-22.322 l 11.261,6.077 0.766,24.725 z"
         style="opacity:0.630005;fill:#3c2215;fill-opacity:1;fill-rule:nonzero;stroke:none"
         transform="matrix(0.07768898,0,0,-0.07768898,72.130818,155.5086)"
         clip-path="url(#clipPath62)"
         id="path19" />
      <path
         id="path21"
         d="m 0,0 c -0.002,-0.626 0.005,-1.42 0.041,-2.34 0.01,-0.277 0.05,-1.266 0.135,-2.278 0.126,-1.499 0.327,-2.96 0.631,-4.389 0.525,-2.462 1.353,-4.829 2.618,-7.129 2.732,-4.968 6.674,-9.292 11.825,-12.972 5.148,-3.681 11.376,-6.551 18.682,-8.611 7.304,-2.059 15.475,-3.091 24.516,-3.091 4.73,0 9.117,0.314 13.165,0.939 4.045,0.624 7.725,1.397 11.036,2.318 3.311,0.919 6.227,1.932 8.75,3.036 2.522,1.104 4.675,2.134 6.464,3.091 2.101,1.177 1.546,2.037 1.704,3.51 l 0.317,1.414 -0.138,2.052 -0.179,0.994 c -0.158,-1.473 0.397,-2.333 -1.704,-3.51 -1.789,-0.957 -3.942,-1.987 -6.464,-3.091 -2.523,-1.104 -5.439,-2.117 -8.75,-3.036 -3.311,-0.921 -6.991,-1.694 -11.036,-2.318 -4.048,-0.625 -8.435,-0.939 -13.165,-0.939 -9.041,0 -17.212,1.032 -24.516,3.092 -7.306,2.059 -13.534,4.93 -18.682,8.611 -5.151,3.679 -9.093,8.003 -11.825,12.971 -1.012,1.839 -1.744,3.72 -2.264,5.659 -0.347,1.292 -0.601,2.61 -0.78,3.958 C 0.205,-0.742 0.135,0.311 0.092,1.025 -0.027,2.996 0.004,4.46 0,4.46 -0.003,4.46 -0.005,3.674 0,0"
         style="fill:#55cdfd;fill-opacity:1;fill-rule:nonzero;stroke:#55cdfd;stroke-width:0.205;stroke-linecap:round;stroke-linejoin:round;stroke-miterlimit:10;stroke-dasharray:none;stroke-opacity:1"
         transform="matrix(0.07768898,0,0,-0.07768898,65.790549,153.01464)"
         clip-path="url(#clipPath22)" />
      <path
         id="path23"
         d="m 0,0 c -0.006,-0.012 0.04,-0.757 0.04,-0.757 0,0 -0.083,-0.183 -0.101,-0.475 -0.017,-0.292 0.209,-0.715 -0.385,-1.677 -0.667,-1.081 -3.612,-4.081 -3.612,-4.081 -1.585,-1.634 -3.208,-2.65 -5.203,-2.871 -1.998,-0.221 -4.205,0.183 -6.622,1.214 -2.628,1.03 -5.73,2.024 -9.301,2.981 -3.575,0.956 -7.465,1.436 -11.667,1.436 -5.676,0 -10.512,-0.646 -14.505,-1.932 -5.342,-1.722 -8.436,-3.942 -9.853,-5.079 -1.418,-1.136 -2.151,-1.97 -2.322,-2.166 -2.093,-2.41 -3.033,-5.079 -3.471,-7.144 -0.074,-0.348 -0.134,-0.679 -0.182,-0.988 -0.041,-0.262 -0.074,-0.509 -0.101,-0.738 -0.138,-1.174 -0.142,-4.457 0,-4.46 0.06,-0.001 0.052,0.576 0.27,1.665 0.037,0.184 0.205,1.007 0.539,1.998 0.047,0.138 1.046,3.023 2.945,5.207 0.022,0.025 0.044,0.049 0.047,0.053 0,0 0.981,1.117 2.275,2.113 4.275,3.294 9.853,5.078 9.853,5.078 6.193,1.982 11.369,1.967 14.505,1.933 3.136,-0.035 6.949,-0.077 11.667,-1.436 1.512,-0.435 5.385,-1.66 9.301,-2.981 3.297,-1.112 4.683,-1.637 6.622,-1.214 1.805,0.394 3.819,1.552 5.203,2.871 0.292,0.278 0.176,0.201 1.556,1.635 1.386,1.44 1.752,1.776 2.056,2.446 0.436,0.96 0.391,2.006 0.391,2.007 -0.001,0.115 -0.005,0.094 -0.01,0.269 -0.002,0.063 -0.077,1.344 0.156,2.053 0.37,1.125 1.638,1.21 1.555,1.737 C 1.556,-0.728 0.063,0.129 0,0"
         style="fill:#55cdfd;fill-opacity:1;fill-rule:nonzero;stroke:#55cdfd;stroke-width:0.205;stroke-linecap:round;stroke-linejoin:miter;stroke-miterlimit:10;stroke-dasharray:none;stroke-opacity:1"
         transform="matrix(0.07768898,0,0,-0.07768898,73.292236,150.54349)"
         clip-path="url(#clipPath24)" />
      <path
         id="path25"
         d="m 0,0 c -0.002,-0.626 0.005,-1.42 0.041,-2.34 0.01,-0.277 0.05,-1.266 0.135,-2.278 0.126,-1.499 0.327,-2.96 0.631,-4.389 0.525,-2.462 1.353,-4.829 2.618,-7.129 2.732,-4.968 6.674,-9.292 11.825,-12.972 5.148,-3.681 11.376,-6.551 18.682,-8.611 7.304,-2.059 15.475,-3.091 24.516,-3.091 4.73,0 9.117,0.314 13.165,0.939 4.045,0.624 7.725,1.397 11.036,2.318 3.311,0.919 6.227,1.932 8.75,3.036 2.522,1.104 4.675,2.134 6.464,3.091 2.101,1.177 1.546,2.037 1.704,3.51 l 0.317,1.414 -0.138,2.052 -0.179,0.994 c -0.158,-1.473 0.397,-2.333 -1.704,-3.51 -1.789,-0.957 -3.942,-1.987 -6.464,-3.091 -2.523,-1.104 -5.439,-2.117 -8.75,-3.036 -3.311,-0.921 -6.991,-1.694 -11.036,-2.318 -4.048,-0.625 -8.435,-0.939 -13.165,-0.939 -9.041,0 -17.212,1.032 -24.516,3.092 -7.306,2.059 -13.534,4.93 -18.682,8.611 -5.151,3.679 -9.093,8.003 -11.825,12.971 -1.012,1.839 -1.744,3.72 -2.264,5.659 -0.347,1.292 -0.601,2.61 -0.78,3.958 C 0.205,-0.742 0.135,0.311 0.092,1.025 -0.027,2.996 0.004,4.46 0,4.46 -0.003,4.46 -0.005,3.674 0,0"
         style="fill:#f6aab7;fill-opacity:1;fill-rule:nonzero;stroke:#f6aab7;stroke-width:0.205;stroke-linecap:round;stroke-linejoin:round;stroke-miterlimit:10;stroke-dasharray:none;stroke-opacity:1"
         transform="matrix(0.07768898,0,0,-0.07768898,65.790549,153.35947)"
         clip-path="url(#clipPath26)" />
      <path
         id="path27"
         d="m 0,0 c -0.006,-0.012 0.04,-0.757 0.04,-0.757 0,0 -0.083,-0.183 -0.101,-0.475 -0.017,-0.292 0.209,-0.715 -0.385,-1.677 -0.667,-1.081 -3.612,-4.081 -3.612,-4.081 -1.585,-1.634 -3.208,-2.65 -5.203,-2.871 -1.998,-0.221 -4.205,0.183 -6.622,1.214 -2.628,1.03 -5.73,2.024 -9.301,2.981 -3.575,0.956 -7.465,1.436 -11.667,1.436 -5.676,0 -10.512,-0.646 -14.505,-1.932 -5.342,-1.722 -8.436,-3.942 -9.853,-5.079 -1.418,-1.136 -2.151,-1.97 -2.322,-2.166 -2.093,-2.41 -3.033,-5.079 -3.471,-7.144 -0.074,-0.348 -0.134,-0.679 -0.182,-0.988 -0.041,-0.262 -0.074,-0.509 -0.101,-0.738 -0.138,-1.174 -0.142,-4.457 0,-4.46 0.06,-0.001 0.052,0.576 0.27,1.665 0.037,0.184 0.205,1.007 0.539,1.998 0.047,0.138 1.046,3.023 2.945,5.207 0.022,0.025 0.044,0.049 0.047,0.053 0,0 0.981,1.117 2.275,2.113 4.275,3.294 9.853,5.078 9.853,5.078 6.193,1.982 11.369,1.967 14.505,1.933 3.136,-0.035 6.949,-0.077 11.667,-1.436 1.512,-0.435 5.385,-1.66 9.301,-2.981 3.297,-1.112 4.683,-1.637 6.622,-1.214 1.805,0.394 3.819,1.552 5.203,2.871 0.292,0.278 0.176,0.201 1.556,1.635 1.386,1.44 1.752,1.776 2.056,2.446 0.436,0.96 0.391,2.006 0.391,2.007 -0.001,0.115 -0.005,0.094 -0.01,0.269 -0.002,0.063 -0.077,1.344 0.156,2.053 0.37,1.126 1.638,1.21 1.555,1.737 C 1.556,-0.728 0.063,0.129 0,0"
         style="fill:#f6aab7;fill-opacity:1;fill-rule:nonzero;stroke:#f6aab7;stroke-width:0.205;stroke-linecap:round;stroke-linejoin:miter;stroke-miterlimit:10;stroke-dasharray:none;stroke-opacity:1"
         transform="matrix(0.07768898,0,0,-0.07768898,73.292236,150.88832)"
         clip-path="url(#clipPath28)" />
      <path
         id="path29"
         d="m 0,0 c -0.002,-0.626 0.005,-1.42 0.041,-2.34 0.01,-0.277 0.05,-1.266 0.135,-2.278 0.126,-1.499 0.327,-2.96 0.631,-4.389 0.525,-2.462 1.353,-4.829 2.618,-7.129 2.732,-4.968 6.674,-9.292 11.825,-12.972 5.148,-3.681 11.376,-6.551 18.682,-8.611 7.304,-2.059 15.475,-3.091 24.516,-3.091 4.73,0 9.117,0.314 13.165,0.939 4.045,0.624 7.725,1.397 11.036,2.318 3.311,0.919 6.227,1.932 8.75,3.036 2.522,1.104 4.675,2.134 6.464,3.091 2.101,1.177 1.546,2.037 1.704,3.51 l 0.317,1.414 -0.138,2.052 -0.179,0.994 c -0.158,-1.473 0.397,-2.333 -1.704,-3.51 -1.789,-0.957 -3.942,-1.987 -6.464,-3.091 -2.523,-1.104 -5.439,-2.117 -8.75,-3.036 -3.311,-0.921 -6.991,-1.694 -11.036,-2.318 -4.048,-0.625 -8.435,-0.939 -13.165,-0.939 -9.041,0 -17.212,1.032 -24.516,3.092 -7.306,2.059 -13.534,4.93 -18.682,8.611 -5.151,3.679 -9.093,8.003 -11.825,12.971 -1.012,1.839 -1.744,3.72 -2.264,5.659 -0.347,1.292 -0.601,2.61 -0.78,3.958 C 0.205,-0.742 0.135,0.311 0.092,1.025 -0.027,2.996 0.004,4.46 0,4.46 -0.003,4.46 -0.005,3.674 0,0"
         style="fill:#ffffff;fill-opacity:1;fill-rule:nonzero;stroke:#ffffff;stroke-width:0.205;stroke-linecap:round;stroke-linejoin:round;stroke-miterlimit:10;stroke-dasharray:none;stroke-opacity:1"
         transform="matrix(0.07768898,0,0,-0.07768898,65.790549,153.70655)"
         clip-path="url(#clipPath30)" />
      <path
         id="path31"
         d="m 0,0 c -0.006,-0.012 0.04,-0.757 0.04,-0.757 0,0 -0.083,-0.183 -0.101,-0.475 -0.017,-0.292 0.209,-0.715 -0.385,-1.677 -0.667,-1.081 -3.612,-4.081 -3.612,-4.081 -1.585,-1.634 -3.208,-2.65 -5.203,-2.871 -1.998,-0.221 -4.205,0.183 -6.622,1.214 -2.628,1.03 -5.73,2.024 -9.301,2.981 -3.575,0.956 -7.465,1.436 -11.667,1.436 -5.676,0 -10.512,-0.646 -14.505,-1.932 -5.342,-1.722 -8.436,-3.942 -9.853,-5.079 -1.418,-1.136 -2.151,-1.97 -2.322,-2.166 -2.093,-2.41 -3.033,-5.079 -3.471,-7.144 -0.074,-0.348 -0.134,-0.679 -0.182,-0.988 -0.041,-0.262 -0.074,-0.509 -0.101,-0.738 -0.138,-1.174 -0.142,-4.457 0,-4.46 0.06,-0.001 0.052,0.576 0.27,1.665 0.037,0.184 0.205,1.007 0.539,1.998 0.047,0.138 1.046,3.023 2.945,5.207 0.022,0.025 0.044,0.049 0.047,0.053 0,0 0.981,1.117 2.275,2.113 4.275,3.294 9.853,5.078 9.853,5.078 6.193,1.982 11.369,1.967 14.505,1.933 3.136,-0.035 6.949,-0.077 11.667,-1.436 1.512,-0.435 5.385,-1.66 9.301,-2.981 3.297,-1.112 4.683,-1.637 6.622,-1.214 1.805,0.394 3.819,1.552 5.203,2.871 0.292,0.278 0.176,0.201 1.556,1.635 1.386,1.44 1.752,1.776 2.056,2.446 0.436,0.96 0.391,2.006 0.391,2.007 -0.001,0.115 -0.005,0.094 -0.01,0.269 -0.002,0.063 -0.077,1.344 0.156,2.053 0.37,1.126 1.638,1.21 1.555,1.737 C 1.556,-0.728 0.063,0.129 0,0"
         style="fill:#ffffff;fill-opacity:1;fill-rule:nonzero;stroke:#ffffff;stroke-width:0.205;stroke-linecap:round;stroke-linejoin:miter;stroke-miterlimit:10;stroke-dasharray:none;stroke-opacity:1"
         transform="matrix(0.07768898,0,0,-0.07768898,73.292236,151.2354)"
         clip-path="url(#clipPath32)" />
      <path
         id="path33"
         d="m 0,0 c -0.002,-0.626 0.005,-1.42 0.041,-2.34 0.01,-0.277 0.05,-1.266 0.135,-2.278 0.126,-1.499 0.327,-2.96 0.631,-4.389 0.525,-2.462 1.353,-4.829 2.618,-7.129 2.732,-4.968 6.674,-9.292 11.825,-12.972 5.148,-3.681 11.376,-6.551 18.682,-8.611 7.304,-2.059 15.475,-3.091 24.516,-3.091 4.73,0 9.117,0.314 13.165,0.939 4.045,0.624 7.725,1.397 11.036,2.318 3.311,0.919 6.227,1.932 8.75,3.036 2.522,1.104 4.675,2.134 6.464,3.091 2.101,1.177 1.546,2.037 1.704,3.51 l 0.317,1.414 -0.138,2.052 -0.179,0.994 c -0.158,-1.473 0.397,-2.333 -1.704,-3.51 -1.789,-0.957 -3.942,-1.987 -6.464,-3.091 -2.523,-1.104 -5.439,-2.117 -8.75,-3.036 -3.311,-0.921 -6.991,-1.694 -11.036,-2.318 -4.048,-0.625 -8.435,-0.939 -13.165,-0.939 -9.041,0 -17.212,1.032 -24.516,3.092 -7.306,2.059 -13.534,4.93 -18.682,8.611 -5.151,3.679 -9.093,8.003 -11.825,12.971 -1.012,1.839 -1.744,3.72 -2.264,5.659 -0.347,1.292 -0.601,2.61 -0.78,3.958 C 0.205,-0.742 0.135,0.311 0.092,1.025 -0.027,2.996 0.004,4.46 0,4.46 -0.003,4.46 -0.005,3.674 0,0"
         style="fill:#f6aab7;fill-opacity:1;fill-rule:nonzero;stroke:#f6aab7;stroke-width:0.205;stroke-linecap:round;stroke-linejoin:round;stroke-miterlimit:10;stroke-dasharray:none;stroke-opacity:1"
         transform="matrix(0.07768898,0,0,-0.07768898,65.790549,154.0526)"
         clip-path="url(#clipPath34)" />
      <path
         id="path35"
         d="m 0,0 c -0.006,-0.012 0.04,-0.757 0.04,-0.757 0,0 -0.083,-0.183 -0.101,-0.475 -0.017,-0.292 0.209,-0.715 -0.385,-1.677 -0.667,-1.081 -3.612,-4.081 -3.612,-4.081 -1.585,-1.634 -3.208,-2.65 -5.203,-2.871 -1.998,-0.221 -4.205,0.183 -6.622,1.214 -2.628,1.03 -5.73,2.024 -9.301,2.981 -3.575,0.956 -7.465,1.436 -11.667,1.436 -5.676,0 -10.512,-0.646 -14.505,-1.932 -5.342,-1.722 -8.436,-3.942 -9.853,-5.079 -1.418,-1.136 -2.151,-1.97 -2.322,-2.166 -2.093,-2.41 -3.033,-5.079 -3.471,-7.144 -0.074,-0.348 -0.134,-0.679 -0.182,-0.988 -0.041,-0.262 -0.074,-0.509 -0.101,-0.738 -0.138,-1.174 -0.142,-4.457 0,-4.46 0.06,-0.001 0.052,0.576 0.27,1.665 0.037,0.184 0.205,1.007 0.539,1.998 0.047,0.138 1.046,3.023 2.945,5.207 0.022,0.025 0.044,0.049 0.047,0.053 0,0 0.981,1.117 2.275,2.113 4.275,3.294 9.853,5.078 9.853,5.078 6.193,1.982 11.369,1.967 14.505,1.933 3.136,-0.035 6.949,-0.077 11.667,-1.436 1.512,-0.435 5.385,-1.66 9.301,-2.981 3.297,-1.112 4.683,-1.637 6.622,-1.214 1.805,0.394 3.819,1.552 5.203,2.871 0.292,0.278 0.176,0.201 1.556,1.635 1.386,1.44 1.752,1.776 2.056,2.446 0.436,0.96 0.391,2.006 0.391,2.007 -0.001,0.115 -0.005,0.094 -0.01,0.269 -0.002,0.063 -0.077,1.344 0.156,2.053 0.37,1.125 1.638,1.21 1.555,1.737 C 1.556,-0.728 0.063,0.129 0,0"
         style="fill:#f6aab7;fill-opacity:1;fill-rule:nonzero;stroke:#f6aab7;stroke-width:0.205;stroke-linecap:round;stroke-linejoin:miter;stroke-miterlimit:10;stroke-dasharray:none;stroke-opacity:1"
         transform="matrix(0.07768898,0,0,-0.07768898,73.292236,151.58144)"
         clip-path="url(#clipPath36)" />
      <path
         id="path37"
         d="m 0,0 c -0.002,-0.626 0.005,-1.42 0.041,-2.34 0.01,-0.277 0.05,-1.266 0.135,-2.278 0.126,-1.499 0.327,-2.96 0.631,-4.389 0.525,-2.462 1.353,-4.829 2.618,-7.129 2.732,-4.968 6.674,-9.292 11.825,-12.972 5.148,-3.681 11.376,-6.551 18.682,-8.611 7.304,-2.059 15.475,-3.091 24.516,-3.091 4.73,0 9.117,0.314 13.165,0.939 4.045,0.624 7.725,1.397 11.036,2.318 3.311,0.919 6.227,1.932 8.75,3.036 2.522,1.104 4.675,2.134 6.464,3.091 2.101,1.177 1.546,2.037 1.704,3.51 l 0.317,1.414 -0.138,2.052 -0.179,0.994 c -0.158,-1.473 0.397,-2.333 -1.704,-3.51 -1.789,-0.957 -3.942,-1.987 -6.464,-3.091 -2.523,-1.104 -5.439,-2.117 -8.75,-3.036 -3.311,-0.921 -6.991,-1.694 -11.036,-2.318 -4.048,-0.625 -8.435,-0.939 -13.165,-0.939 -9.041,0 -17.212,1.032 -24.516,3.092 -7.306,2.059 -13.534,4.93 -18.682,8.611 -5.151,3.679 -9.093,8.003 -11.825,12.971 -1.012,1.839 -1.744,3.72 -2.264,5.659 -0.347,1.292 -0.601,2.61 -0.78,3.958 C 0.205,-0.742 0.135,0.311 0.092,1.025 -0.027,2.996 0.004,4.46 0,4.46 -0.003,4.46 -0.005,3.674 0,0"
         style="fill:#55cdfd;fill-opacity:1;fill-rule:nonzero;stroke:#55cdfd;stroke-width:0.205;stroke-linecap:round;stroke-linejoin:round;stroke-miterlimit:10;stroke-dasharray:none;stroke-opacity:1"
         transform="matrix(0.07768898,0,0,-0.07768898,65.790549,154.39966)"
         clip-path="url(#clipPath38)" />
      <path
         id="path39"
         d="m 0,0 c -0.006,-0.012 0.04,-0.757 0.04,-0.757 0,0 -0.083,-0.183 -0.101,-0.475 -0.017,-0.292 0.209,-0.715 -0.385,-1.677 -0.667,-1.081 -3.612,-4.081 -3.612,-4.081 -1.585,-1.634 -3.208,-2.65 -5.203,-2.871 -1.998,-0.221 -4.205,0.183 -6.622,1.214 -2.628,1.03 -5.73,2.024 -9.301,2.981 -3.575,0.956 -7.465,1.436 -11.667,1.436 -5.676,0 -10.512,-0.646 -14.505,-1.932 -5.342,-1.722 -8.436,-3.942 -9.853,-5.079 -1.418,-1.136 -2.151,-1.97 -2.322,-2.166 -2.093,-2.41 -3.033,-5.079 -3.471,-7.144 -0.074,-0.348 -0.134,-0.679 -0.182,-0.988 -0.041,-0.262 -0.074,-0.509 -0.101,-0.738 -0.138,-1.174 -0.142,-4.457 0,-4.46 0.06,-0.001 0.052,0.576 0.27,1.665 0.037,0.184 0.205,1.007 0.539,1.998 0.047,0.138 1.046,3.023 2.945,5.207 0.022,0.025 0.044,0.049 0.047,0.053 0,0 0.981,1.117 2.275,2.113 4.275,3.294 9.853,5.078 9.853,5.078 6.193,1.982 11.369,1.967 14.505,1.933 3.136,-0.035 6.949,-0.077 11.667,-1.436 1.512,-0.435 5.385,-1.66 9.301,-2.981 3.297,-1.112 4.683,-1.637 6.622,-1.214 1.805,0.394 3.819,1.552 5.203,2.871 0.292,0.278 0.176,0.201 1.556,1.635 1.386,1.44 1.752,1.776 2.056,2.446 0.436,0.96 0.391,2.006 0.391,2.007 -0.001,0.115 -0.005,0.094 -0.01,0.269 -0.002,0.063 -0.077,1.344 0.156,2.053 0.37,1.125 1.638,1.21 1.555,1.737 C 1.556,-0.728 0.063,0.129 0,0"
         style="fill:#55cdfd;fill-opacity:1;fill-rule:nonzero;stroke:#55cdfd;stroke-width:0.205;stroke-linecap:round;stroke-linejoin:miter;stroke-miterlimit:10;stroke-dasharray:none;stroke-opacity:1"
         transform="matrix(0.07768898,0,0,-0.07768898,73.292236,151.92852)"
         clip-path="url(#clipPath40)" />
      <path
         id="path41"
         d="M 152.726,120.823 H 50.772 v 13.596 h 101.954 z"
         style="fill:#ffff00;fill-opacity:1;fill-rule:nonzero;stroke:none"
         transform="matrix(0.07768898,0,0,-0.07768898,61.793794,161.90339)"
         clip-path="url(#clipPath42)" />
      <path
         id="path43"
         d="M 152.726,134.418 H 50.772 v 13.596 h 101.954 z"
         style="fill:#fe941e;fill-opacity:1;fill-rule:nonzero;stroke:none"
         transform="matrix(0.07768898,0,0,-0.07768898,61.793794,161.90339)"
         clip-path="url(#clipPath44)" />
      <path
         id="path45"
         d="M 152.726,148.014 H 50.772 v 13.596 h 101.954 z"
         style="fill:#ff1e26;fill-opacity:1;fill-rule:nonzero;stroke:none"
         transform="matrix(0.07768898,0,0,-0.07768898,61.793794,161.90339)"
         clip-path="url(#clipPath46)" />
      <path
         id="path47"
         d="M 152.726,80.035 H 50.772 v 13.596 h 101.954 z"
         style="fill:#760088;fill-opacity:1;fill-rule:nonzero;stroke:none"
         transform="matrix(0.07768898,0,0,-0.07768898,61.793794,161.90339)"
         clip-path="url(#clipPath48)" />
      <path
         id="path49"
         d="M 152.726,93.631 H 50.772 v 13.596 h 101.954 z"
         style="fill:#001a98;fill-opacity:1;fill-rule:nonzero;stroke:none"
         transform="matrix(0.07768898,0,0,-0.07768898,61.793794,161.90339)"
         clip-path="url(#clipPath50)" />
      <path
         id="path51"
         d="M 152.726,107.227 H 50.772 v 13.596 h 101.954 z"
         style="fill:#06bd00;fill-opacity:1;fill-rule:nonzero;stroke:none"
         transform="matrix(0.07768898,0,0,-0.07768898,61.793794,161.90339)"
         clip-path="url(#clipPath52)" />
      <path
         id="path53"
         d="m 0,0 v -26.159 c -0.158,-1.473 -1.288,-2.798 -3.39,-3.974 -1.788,-0.957 -3.941,-1.987 -6.463,-3.091 -2.523,-1.104 -5.44,-2.117 -8.75,-3.036 -3.311,-0.921 -6.992,-1.694 -11.037,-2.319 -4.047,-0.624 -8.434,-0.938 -13.164,-0.938 -9.041,0 -17.212,1.031 -24.516,3.091 -7.306,2.06 -13.534,4.93 -18.682,8.611 -5.151,3.68 -9.093,8.004 -11.825,12.972 -2.734,4.968 -4.099,10.395 -4.099,16.284 V 27.6"
         style="fill:none;stroke:#3c2215;stroke-width:3.828;stroke-linecap:round;stroke-linejoin:round;stroke-miterlimit:10;stroke-dasharray:none;stroke-opacity:1"
         transform="matrix(0.07768898,0,0,-0.07768898,73.65673,154.6471)"
         clip-path="url(#clipPath54)" />
      <path
         id="path55"
         d="m 0,0 c 0.7,0.754 1.473,1.476 2.321,2.167 2.575,2.097 5.858,3.789 9.854,5.078 3.993,1.287 8.829,1.932 14.505,1.932 4.202,0 8.092,-0.48 11.666,-1.435 3.572,-0.958 6.674,-1.951 9.302,-2.981 2.417,-1.032 4.624,-1.435 6.622,-1.214 1.995,0.22 3.729,1.176 5.202,2.87 l 3.942,4.526 c 1.471,1.618 2.074,3.147 1.813,4.582 v 26.159"
         style="fill:none;stroke:#3c2215;stroke-width:3.828;stroke-linecap:round;stroke-linejoin:miter;stroke-miterlimit:10;stroke-dasharray:none;stroke-opacity:1"
         transform="matrix(0.07768898,0,0,-0.07768898,68.356601,153.46415)"
         clip-path="url(#clipPath56)" />
      <path
         id="path57"
         d="m 0,0 c 0,5.741 1.444,11.076 4.336,16.008 2.889,4.93 6.937,9.218 12.139,12.861 5.203,3.644 11.43,6.514 18.683,8.612 7.252,2.097 15.238,3.146 23.964,3.146 4.308,0 8.302,-0.24 11.982,-0.718 3.678,-0.479 7.04,-1.087 10.09,-1.821 3.047,-0.737 5.728,-1.546 8.041,-2.429 2.31,-0.883 4.308,-1.73 5.99,-2.539 2.208,-1.104 3.442,-2.374 3.705,-3.809 0.262,-1.435 -0.342,-2.963 -1.813,-4.582 l -3.941,-4.526 c -1.473,-1.694 -3.207,-2.65 -5.203,-2.87 -1.998,-0.221 -4.205,0.182 -6.622,1.214 -2.628,1.03 -5.729,2.024 -9.301,2.981 -3.575,0.956 -7.464,1.435 -11.667,1.435 -5.676,0 -10.511,-0.645 -14.505,-1.932 C 41.883,19.742 38.599,18.05 36.025,15.953 33.448,13.855 31.556,11.462 30.349,8.777 29.14,6.089 28.536,3.312 28.536,0.442 c 0,-2.945 0.631,-5.834 1.892,-8.667 1.261,-2.834 3.205,-5.373 5.833,-7.617 2.626,-2.246 5.937,-4.049 9.933,-5.41 3.993,-1.362 8.723,-2.042 14.189,-2.042 4.73,0 9.065,0.607 13.007,1.822 3.941,1.214 7.277,2.483 10.011,3.808 4.939,2.429 8.987,2.06 12.14,-1.104 l 4.414,-4.305 c 1.471,-1.546 2.129,-3.055 1.971,-4.527 -0.158,-1.473 -1.288,-2.798 -3.39,-3.974 -1.788,-0.957 -3.941,-1.987 -6.464,-3.091 -2.522,-1.104 -5.439,-2.117 -8.75,-3.036 -3.31,-0.921 -6.991,-1.694 -11.036,-2.318 -4.047,-0.625 -8.435,-0.939 -13.164,-0.939 -9.041,0 -17.212,1.032 -24.516,3.091 -7.307,2.06 -13.534,4.93 -18.683,8.611 -5.151,3.68 -9.092,8.004 -11.824,12.972 C 1.365,-11.316 0,-5.889 0,0 Z"
         style="fill:none;stroke:#3c2215;stroke-width:3.827;stroke-linecap:butt;stroke-linejoin:miter;stroke-miterlimit:10;stroke-dasharray:none;stroke-opacity:1"
         transform="matrix(0.07768898,0,0,-0.07768898,65.738212,152.50293)"
         clip-path="url(#clipPath58)" />
    </g>
  </g>
</svg>
