<?xml version="1.0" encoding="UTF-8" standalone="no"?>
<!-- Created with Inkscape (http://www.inkscape.org/) -->

<svg
   width="20mm"
   height="20mm"
   viewBox="0 0 20.000001 20"
   version="1.1"
   id="svg1"
   xmlns="http://www.w3.org/2000/svg"
   xmlns:svg="http://www.w3.org/2000/svg">
  <defs
     id="defs1" />
  <g
     id="layer1"
     transform="translate(-98.160416,-141.2875)">
    <path
       style="fill:#000000;stroke-width:0.0263718"
       d="m 108.85173,158.59779 c -1.20527,-0.0716 -1.90902,-0.1744 -2.78882,-0.4073 -3.04611,-0.80637 -4.93483,-2.81696 -4.93483,-5.25327 0,-0.29015 0.22059,-3.66467 0.25823,-3.95037 0.26472,-2.00921 1.91105,-3.70182 4.37484,-4.49784 2.64706,-0.85523 6.08576,-0.63261 8.49355,0.54986 0.36863,0.18103 0.50593,0.26478 0.64051,0.39067 0.1993,0.18641 0.29767,0.40057 0.29754,0.64769 0,0.0882 -0.0499,0.89417 -0.11087,1.79105 -0.12145,1.78758 -0.11597,1.74606 -0.26211,1.9872 -0.0734,0.12109 -0.68761,0.77158 -0.90245,0.95574 -0.30506,0.26149 -0.70104,0.37715 -1.10645,0.3232 -0.23386,-0.0311 -0.37668,-0.0775 -0.79462,-0.25815 -0.76223,-0.32944 -1.43973,-0.51751 -2.14591,-0.59568 -0.26557,-0.0294 -1.03278,-0.0294 -1.31529,2e-5 -0.72609,0.0756 -1.3477,0.26108 -1.80109,0.53751 -0.21498,0.13109 -0.40189,0.27343 -0.40332,0.30717 -5.4e-4,0.0121 0.068,0.0878 0.15235,0.16812 0.56939,0.54244 1.30899,0.85685 2.34874,0.99846 0.35565,0.0484 1.14698,0.0494 1.49331,0.002 0.64679,-0.0889 1.1618,-0.22918 1.82954,-0.49837 0.4903,-0.19767 0.64593,-0.23553 0.96917,-0.23586 0.37387,-2.8e-4 0.60761,0.0743 0.88073,0.2815 0.13001,0.0986 0.77178,0.78595 0.87665,0.93889 0.0857,0.12502 0.16477,0.30775 0.18839,0.43553 0.0324,0.17501 -0.19861,3.55017 -0.25268,3.69246 -0.11216,0.29518 -0.28619,0.45947 -0.70415,0.66472 -1.05909,0.5201 -2.37075,0.86734 -3.72832,0.987 -0.33078,0.0292 -1.30271,0.0531 -1.55264,0.0383 z m 1.17684,-0.70121 c 1.37078,-0.0851 2.67063,-0.402 3.73675,-0.9111 0.27592,-0.13176 0.36357,-0.19113 0.40746,-0.276 0.0166,-0.0321 0.0267,-0.0583 0.0225,-0.0583 -0.004,0 -0.0868,0.0367 -0.18347,0.0815 -0.0967,0.0448 -0.25557,0.11244 -0.35304,0.15023 -0.15867,0.0615 -0.1849,0.0664 -0.25072,0.0467 -0.15013,-0.045 -0.22011,-0.21357 -0.14718,-0.35459 0.0322,-0.0623 0.0592,-0.0773 0.43666,-0.24131 0.48111,-0.20912 0.54392,-0.25533 0.54392,-0.40013 0,-0.0706 -0.007,-0.0946 -0.0247,-0.0868 -0.0136,0.006 -0.14488,0.0637 -0.29174,0.12828 -0.51451,0.22637 -1.20451,0.46245 -1.34886,0.46151 -0.0944,-6.5e-4 -0.14721,-0.0299 -0.19487,-0.10809 -0.0659,-0.10807 -0.0355,-0.27875 0.0586,-0.32911 0.0206,-0.011 0.19182,-0.0702 0.38053,-0.13141 0.48892,-0.1587 1.09922,-0.40628 1.31924,-0.53516 0.13784,-0.0807 0.16116,-0.11302 0.16116,-0.22305 v -0.0976 l -0.18296,0.0854 c -0.451,0.21042 -1.07495,0.43099 -1.62681,0.57509 -0.37897,0.099 -0.89485,0.20716 -0.98708,0.20705 -0.0724,0 -0.17815,-0.0599 -0.20953,-0.11858 -0.0331,-0.0618 -0.029,-0.19075 0.008,-0.24689 0.0539,-0.0823 0.10984,-0.10517 0.3878,-0.15882 0.75918,-0.14653 1.60495,-0.41563 2.26048,-0.71922 l 0.17388,-0.0805 -0.0328,-0.05 c -0.018,-0.0275 -0.0398,-0.05 -0.0484,-0.05 -0.009,0 -0.16112,0.0569 -0.33892,0.12651 -0.91567,0.35836 -1.86706,0.58096 -2.98351,0.69806 -0.25168,0.0264 -0.5119,0.0344 -1.13728,0.035 -0.84813,9.6e-4 -1.07601,-0.0119 -1.76032,-0.0985 -2.01352,-0.25468 -3.72355,-0.97076 -4.88421,-2.04528 -0.0939,-0.0869 -0.0929,-0.0849 0.0255,0.0515 0.63582,0.7326 1.62259,1.34925 2.82715,1.76672 0.34399,0.11921 0.39978,0.16096 0.39978,0.29914 0,0.14851 -0.0975,0.25462 -0.23392,0.25462 -0.0318,0 -0.17691,-0.0408 -0.32239,-0.0906 -1.31252,-0.44945 -2.41249,-1.15191 -3.10695,-1.98416 -0.18644,-0.22343 -0.18976,-0.22638 -0.12445,-0.11084 0.28557,0.50518 0.83888,1.08678 1.43403,1.50732 0.84653,0.59818 2.00451,1.05921 3.24373,1.29145 0.1795,0.0336 0.35106,0.0708 0.38126,0.0826 0.13482,0.0527 0.17966,0.25442 0.0823,0.37015 -0.0804,0.0955 -0.14618,0.10318 -0.4367,0.0507 -1.60864,-0.29032 -2.99079,-0.88918 -3.98261,-1.72559 -0.18439,-0.15551 -0.56152,-0.53098 -0.72939,-0.7262 -0.0841,-0.0978 -0.0846,-0.098 -0.0402,-0.0198 0.28472,0.50283 0.88041,1.12039 1.48174,1.53613 0.38949,0.26929 0.92831,0.55079 1.44379,0.75431 0.97304,0.38417 2.02429,0.60314 3.3311,0.69387 l 0.37416,0.026 0.0659,0.0719 c 0.0544,0.0594 0.0659,0.0876 0.0659,0.16152 0,0.0745 -0.0114,0.102 -0.0679,0.16347 l -0.0679,0.0739 -0.23369,-0.004 c -0.45966,-0.009 -1.27418,-0.10314 -1.85462,-0.21507 -1.58913,-0.30641 -3.00751,-0.9522 -3.93198,-1.79024 -0.0843,-0.0764 -0.15328,-0.13053 -0.15328,-0.12023 0,0.0345 0.46688,0.48913 0.6704,0.65285 1.01809,0.81891 2.37411,1.35178 4.05767,1.5945 0.31883,0.046 0.89882,0.10187 1.20559,0.11622 0.32339,0.0151 0.98909,0.0116 1.28562,-0.007 z m 0.80105,-3.32058 c 1.14512,-0.1371 2.10703,-0.39282 3.03503,-0.80683 0.33662,-0.15017 0.47558,-0.23743 0.52537,-0.32988 0.0348,-0.0647 0.0349,-0.0712 0.002,-0.1579 -0.019,-0.0497 -0.076,-0.1374 -0.12674,-0.19482 -0.28377,-0.32127 -0.59585,-0.64768 -0.68103,-0.7123 -0.24239,-0.18389 -0.59675,-0.1789 -1.04357,0.0147 -1.50709,0.65293 -3.07926,0.80617 -4.54645,0.44315 -0.60802,-0.15044 -1.15321,-0.39854 -1.60565,-0.73069 -0.24503,-0.17989 -0.61425,-0.56278 -0.79115,-0.82044 -0.21178,-0.30847 -0.37214,-0.68802 -0.46384,-1.09788 -0.0513,-0.22948 -0.0625,-0.789 -0.021,-1.05374 0.13121,-0.83679 0.59195,-1.55379 1.31807,-2.05122 0.56758,-0.38882 1.29471,-0.63771 2.17399,-0.74414 0.35559,-0.043 1.24566,-0.0491 1.57242,-0.0107 0.8358,0.0983 1.59352,0.31359 2.43896,0.6931 0.12305,0.0552 0.25994,0.11018 0.3042,0.1221 0.35412,0.0954 0.59455,0.0411 0.84543,-0.19068 0.24865,-0.22974 0.70955,-0.73785 0.73257,-0.80759 0.0463,-0.14044 -0.0618,-0.24147 -0.48406,-0.45232 -1.04774,-0.52316 -2.19344,-0.8314 -3.61953,-0.97381 -0.42919,-0.0429 -1.43399,-0.0597 -1.8691,-0.0314 -2.66444,0.17353 -4.77579,1.16799 -5.81799,2.74028 -0.44964,0.67834 -0.66948,1.39971 -0.66948,2.19675 0,1.11328 0.42686,2.10516 1.26416,2.93749 0.2802,0.27854 0.48124,0.44133 0.84229,0.68201 1.16166,0.77439 2.64432,1.2261 4.50958,1.37387 0.11966,0.009 0.57804,0.0146 1.01861,0.0113 0.67075,-0.005 0.85896,-0.0128 1.15706,-0.0485 z m 2.4853,-4.19012 c 0.0752,-0.0372 0.172,-0.10912 0.24158,-0.17965 l 0.11606,-0.11764 -0.16551,0.0612 c -0.15616,0.0577 -0.18118,0.0612 -0.44242,0.0607 -0.31171,-6.5e-4 -0.4428,-0.028 -0.74866,-0.15675 -0.13305,-0.056 -0.18406,-0.0885 -0.21254,-0.13519 -0.0813,-0.13339 -0.0176,-0.31515 0.12728,-0.36291 0.0801,-0.0264 0.0505,-0.0338 0.43834,0.1091 0.11893,0.0438 0.17193,0.0512 0.3758,0.0524 0.22853,0.001 0.2425,-9.6e-4 0.3758,-0.0636 0.12383,-0.0582 0.17861,-0.10621 0.51869,-0.45491 0.39732,-0.40739 0.5298,-0.59198 0.17852,-0.24874 -0.22863,0.22339 -0.36929,0.31615 -0.5985,0.39469 -0.13865,0.0475 -0.18718,0.0541 -0.39539,0.0534 -0.30628,-9.7e-4 -0.50004,-0.0511 -0.9395,-0.24288 -0.17949,-0.0783 -0.4109,-0.17383 -0.51425,-0.21221 -0.20166,-0.0749 -0.26018,-0.11522 -0.29735,-0.20497 -0.0514,-0.12404 0.0438,-0.29478 0.17942,-0.32191 0.076,-0.0152 0.25111,0.0422 0.64207,0.21052 0.4746,0.20429 0.53404,0.22679 0.69239,0.26202 0.21555,0.048 0.40484,0.0317 0.5788,-0.0497 0.10874,-0.0509 0.18216,-0.11141 0.41411,-0.34138 0.28023,-0.27784 0.35997,-0.37991 0.16045,-0.20537 -0.12486,0.10922 -0.31171,0.20992 -0.50079,0.2699 -0.28351,0.0899 -0.70398,0.0499 -1.07413,-0.10239 -0.1945,-0.08 -0.25879,-0.12544 -0.29285,-0.20694 -0.0358,-0.0858 -0.0346,-0.13483 0.006,-0.21956 0.0694,-0.14633 0.23249,-0.1819 0.43116,-0.094 0.19138,0.0846 0.39753,0.132 0.5721,0.13142 0.17734,-6.4e-4 0.28642,-0.0317 0.4265,-0.12157 0.10559,-0.0678 0.25059,-0.2129 0.18875,-0.18893 -0.23542,0.0912 -0.27532,0.098 -0.57359,0.0973 -0.36103,-9.7e-4 -0.46535,-0.0283 -1.01811,-0.26808 -0.79176,-0.34346 -1.49711,-0.52891 -2.25409,-0.59265 -0.32731,-0.0276 -1.05073,-0.0111 -1.35476,0.0309 -0.70277,0.097 -1.29565,0.29905 -1.73329,0.59076 -0.17411,0.11604 -0.43299,0.33635 -0.29534,0.25132 0.14128,-0.0873 0.62882,-0.31626 0.80105,-0.37625 0.40788,-0.14207 0.89316,-0.24171 1.36911,-0.28112 0.25332,-0.021 0.28823,-0.02 0.35121,0.01 0.19294,0.092 0.19773,0.38549 0.008,0.47327 -0.0366,0.0169 -0.15117,0.0368 -0.25451,0.0443 -1.21072,0.0868 -2.17012,0.50553 -2.69799,1.17747 l -0.0971,0.12356 0.18038,-0.13695 c 0.46933,-0.35633 1.07005,-0.61404 1.742,-0.74732 0.42618,-0.0845 0.68659,-0.11099 1.20891,-0.12275 0.56742,-0.0128 0.61837,-0.004 0.69175,0.11613 0.072,0.11804 0.0431,0.24607 -0.073,0.32435 -0.0595,0.0401 -0.0932,0.0431 -0.60296,0.0535 -0.66934,0.0137 -0.98671,0.055 -1.47941,0.1928 -0.56078,0.1568 -1.02934,0.40769 -1.37853,0.73812 -0.15248,0.14429 -0.36201,0.38603 -0.36201,0.41765 0,0.008 0.0423,-0.0236 0.0939,-0.0691 0.12606,-0.11117 0.47273,-0.34171 0.64207,-0.42699 0.65695,-0.33084 1.37414,-0.49499 2.3297,-0.53324 0.52123,-0.0209 1.3516,0.0499 1.53847,0.13102 0.16197,0.0703 0.18797,0.26648 0.052,0.39202 -0.0828,0.0764 -0.0864,0.0765 -0.56193,0.009 -0.34995,-0.0493 -1.26807,-0.0491 -1.63176,2.8e-4 -0.90619,0.12343 -1.6592,0.42955 -2.12622,0.8644 -0.10827,0.1008 -0.10037,0.0992 0.09,-0.0179 0.4457,-0.27408 1.11597,-0.49643 1.80793,-0.59973 0.34739,-0.0519 1.25904,-0.0727 1.64596,-0.0377 0.81063,0.0735 1.72594,0.32438 2.51076,0.68831 0.14986,0.0695 0.34054,0.13982 0.46245,0.17058 0.0218,0.005 0.11214,0.008 0.20085,0.005 0.13467,-0.004 0.18199,-0.0153 0.28679,-0.0671 z"
       id="path1" />
  </g>
</svg>
