0
SECTION
2
HEADER
9
$INSUNITS
70
1
9
$ACADVER
1
AC1014
9
$HANDSEED
5
FFFF
0
ENDSEC
0
SECTION
2
TABLES
0
TABLE
2
VPORT
5
8
100
AcDbSymbolTable
0
ENDTAB
0
TABLE
2
LTYPE
5
5
100
AcDbSymbolTable
0
LTYPE
5
14
100
AcDbSymbolTableRecord
100
AcDbLinetypeTableRecord
2
BYBLOCK
70
0
0
LTYPE
5
15
100
AcDbSymbolTableRecord
100
AcDbLinetypeTableRecord
2
BYLAYER
70
0
0
ENDTAB
0
TABLE
2
LAYER
5
2
100
AcDbSymbolTable
70
2
0
LAYER
5
50
100
AcDbSymbolTableRecord
100
AcDbLayerTableRecord
2
0
70
0
6
CONTINUOUS
0
ENDTAB
0
TABLE
2
STYLE
5
3
100
AcDbSymbolTable
70
1
0
STYLE
5
11
100
AcDbSymbolTableRecord
100
AcDbTextStyleTableRecord
2
STANDARD
70
0
0
ENDTAB
0
TABLE
2
VIEW
5
6
100
AcDbSymbolTable
70
0
0
ENDTAB
0
TABLE
2
UCS
5
7
100
AcDbSymbolTable
70
0
0
ENDTAB
0
TABLE
2
APPID
5
9
100
AcDbSymbolTable
70
2
0
APPID
5
12
100
AcDbSymbolTableRecord
100
AcDbRegAppTableRecord
2
ACAD
70
0
0
ENDTAB
0
TABLE
2
DIMSTYLE
5
A
100
AcDbSymbolTable
70
1
0
ENDTAB
0
TABLE
2
BLOCK_RECORD
5
1
100
AcDbSymbolTable
70
1
0
BLOCK_RECORD
5
1F
100
AcDbSymbolTableRecord
100
AcDbBlockTableRecord
2
*MODEL_SPACE
0
BLOCK_RECORD
5
1B
100
AcDbSymbolTableRecord
100
AcDbBlockTableRecord
2
*PAPER_SPACE
0
ENDTAB
0
ENDSEC
0
SECTION
2
BLOCKS
0
BLOCK
5
20
100
AcDbEntity
100
AcDbBlockBegin
2
*MODEL_SPACE
0
ENDBLK
5
21
100
AcDbEntity
100
AcDbBlockEnd
0
BLOCK
5
1C
100
AcDbEntity
100
AcDbBlockBegin
2
*PAPER_SPACE
0
ENDBLK
5
1D
100
AcDbEntity
100
AcDbBlockEnd
0
ENDSEC
0
SECTION
2
ENTITIES
0
CIRCLE
5
100
100
AcDbEntity
8
0
100
AcDbCircle
10
-4.0000001077107576
20
0.75000004787145558
30
0
40
0.25149999999999978
210
0
220
-0
230
1
0
CIRCLE
5
101
100
AcDbEntity
8
0
100
AcDbCircle
10
-1.6406250809326632
20
-1.3124999713394643
30
0
40
0.099750000000000019
210
-3.0814879110195774e-33
220
-9.1097524117498059e-68
230
1
0
CIRCLE
5
102
100
AcDbEntity
8
0
100
AcDbCircle
10
-1.0781250809326648
20
-1.3124999798665655
30
0
40
0.099750000000000019
210
-3.0814879110195774e-33
220
-5.9451932850870359e-68
230
1
0
CIRCLE
5
103
100
AcDbEntity
8
0
100
AcDbCircle
10
-2.2031250809326623
20
-1.312499962812363
30
0
40
0.099750000000000186
210
-0
220
0
230
1
0
CIRCLE
5
104
100
AcDbEntity
8
0
100
AcDbCircle
10
-0.51562508093266612
20
-1.3124999883936666
30
0
40
0.099750000000000102
210
-0
220
0
230
1
0
LWPOLYLINE
5
105
100
AcDbEntity
8
0
100
AcDbPolyline
90
21
70
1
43
0.0
10
0.24999999343659723
20
-0.36332147248623359
10
-0.70695929847344929
20
0.92690065688337087
10
-3.673500212169952
20
1.8265792684640894
42
0.89643804503380087
10
-4.55182579716472
20
-0.2303638684670942
42
0.27039311141740352
10
-4.4258554383663888
20
-0.22841375177833459
42
-0.38210309003592491
10
-4.2620298763122761
20
-0.25929778208356069
10
-4.1850004088876442
20
-0.35968454180457526
10
-5.6710883782168873
20
-1.4999999095056018
10
-4.9288041492179042
20
-1.499999920850233
10
-4.9288041492179042
20
-1.624999920850233
10
-4.4288041492179051
20
-1.624999920850233
10
-4.4288041492179051
20
-1.499999920850233
10
-3.4288041492179051
20
-1.4999999999999996
10
-3.4288041492179051
20
-1.6249999999999998
10
-2.9288041492179056
20
-1.6249999999999998
10
-2.9288041492179056
20
-1.4999999999999996
10
-1.7500000239357223
20
-1.4999999999999996
10
-1.7500000239357223
20
-1.6249999999999998
10
-1.2500000239357223
20
-1.6249999999999998
10
-1.2500000239357223
20
-1.4999999999999996
10
0.24999997606427773
20
-1.4999999999999996
0
CIRCLE
5
106
100
AcDbEntity
8
0
100
AcDbCircle
10
-4.3582724411777365
20
-0.72897941878294359
30
0
40
0.098000000000000004
210
0
220
-0
230
1
0
CIRCLE
5
107
100
AcDbEntity
8
0
100
AcDbCircle
10
-3.019488663043739
20
0.29830547130609636
30
0
40
0.098000000000000004
210
0
220
-0
230
1
0
CIRCLE
5
108
100
AcDbEntity
8
0
100
AcDbCircle
10
-3.9120111817997367
20
-0.38655112208659687
30
0
40
0.098000000000000004
210
0
220
-0
230
1
0
CIRCLE
5
109
100
AcDbEntity
8
0
100
AcDbCircle
10
-3.4657499224217383
20
-0.044122825390250267
30
0
40
0.098000000000000004
210
0
220
-0
230
1
0
LWPOLYLINE
5
110
100
AcDbEntity
8
0
100
AcDbPolyline
90
4
70
1
43
0.0
10
-1.170685998994947
20
0.21369894694154887
10
-1.0206859989949471
20
0.11369894694154918
42
-0.99999999999999989
10
-1.0743870927948604
20
0.033147306241675896
10
-1.2243870927948615
20
0.13314730624167631
42
-0.99999999999999989
0
LWPOLYLINE
5
111
100
AcDbEntity
8
0
100
AcDbPolyline
90
4
70
1
43
0.0
10
-0.84114235384371605
20
-0.47495921666171276
10
-0.99114235764048053
20
-0.37495921413053623
42
-0.99999998946328783
10
-0.75091785941546707
20
-0.014622475019339375
10
-0.60091785941546727
20
-0.11462247501933935
42
-0.99999999999999989
0
LWPOLYLINE
5
112
100
AcDbEntity
8
0
100
AcDbPolyline
90
4
70
1
43
0.0
10
-0.46803803448112369
20
-0.086921772348825019
10
-0.61803803508127997
20
0.013078228051279304
42
-0.9999999925494194
10
-0.56433694068120877
20
0.093629868351047391
10
-0.41433694068120874
20
-0.0063701316489525473
42
-0.99999999999999989
0
LWPOLYLINE
5
113
100
AcDbEntity
8
0
100
AcDbPolyline
90
4
70
1
43
0.0
10
-1.027723272577975
20
-0.58321156003209917
10
-1.1777232725779743
20
-0.4832115600320997
42
-0.99999999999999989
10
-1.1240221787780598
20
-0.40265991933222706
10
-0.97402217937821611
20
-0.50265991893212303
42
-1.0000000074505806
0
LWPOLYLINE
5
114
100
AcDbEntity
8
0
100
AcDbPolyline
90
4
70
1
43
0.0
10
-0.4213742142642366
20
-0.70328063862260093
10
-0.57137421426423662
20
-0.60328063862260084
42
-0.99999999999999989
10
-0.51767312046432168
20
-0.52272899792272842
10
-0.36767311986416551
20
-0.62272899832283268
42
-0.9999999925494194
0
ENDSEC
0
SECTION
2
OBJECTS
0
DICTIONARY
5
C
100
AcDbDictionary
3
ACAD_GROUP
350
D
3
ACAD_MLINESTYLE
350
17
0
DICTIONARY
5
D
100
AcDbDictionary
0
DICTIONARY
5
1A
330
C
100
AcDbDictionary
0
DICTIONARY
5
17
100
AcDbDictionary
0
ENDSEC
0
EOF
