0
SECTION
2
HEADER
9
$INSUNITS
70
1
9
$ACADVER
1
AC1014
9
$HANDSEED
5
FFFF
0
ENDSEC
0
SECTION
2
TABLES
0
TABLE
2
VPORT
5
8
100
AcDbSymbolTable
0
ENDTAB
0
TABLE
2
LTYPE
5
5
100
AcDbSymbolTable
0
LTYPE
5
14
100
AcDbSymbolTableRecord
100
AcDbLinetypeTableRecord
2
BYBLOCK
70
0
0
LTYPE
5
15
100
AcDbSymbolTableRecord
100
AcDbLinetypeTableRecord
2
BYLAYER
70
0
0
ENDTAB
0
TABLE
2
LAYER
5
2
100
AcDbSymbolTable
70
2
0
LAYER
5
50
100
AcDbSymbolTableRecord
100
AcDbLayerTableRecord
2
0
70
0
6
CONTINUOUS
0
ENDTAB
0
TABLE
2
STYLE
5
3
100
AcDbSymbolTable
70
1
0
STYLE
5
11
100
AcDbSymbolTableRecord
100
AcDbTextStyleTableRecord
2
STANDARD
70
0
0
ENDTAB
0
TABLE
2
VIEW
5
6
100
AcDbSymbolTable
70
0
0
ENDTAB
0
TABLE
2
UCS
5
7
100
AcDbSymbolTable
70
0
0
ENDTAB
0
TABLE
2
APPID
5
9
100
AcDbSymbolTable
70
2
0
APPID
5
12
100
AcDbSymbolTableRecord
100
AcDbRegAppTableRecord
2
ACAD
70
0
0
ENDTAB
0
TABLE
2
DIMSTYLE
5
A
100
AcDbSymbolTable
70
1
0
ENDTAB
0
TABLE
2
BLOCK_RECORD
5
1
100
AcDbSymbolTable
70
1
0
BLOCK_RECORD
5
1F
100
AcDbSymbolTableRecord
100
AcDbBlockTableRecord
2
*MODEL_SPACE
0
BLOCK_RECORD
5
1B
100
AcDbSymbolTableRecord
100
AcDbBlockTableRecord
2
*PAPER_SPACE
0
ENDTAB
0
ENDSEC
0
SECTION
2
BLOCKS
0
BLOCK
5
20
100
AcDbEntity
100
AcDbBlockBegin
2
*MODEL_SPACE
0
ENDBLK
5
21
100
AcDbEntity
100
AcDbBlockEnd
0
BLOCK
5
1C
100
AcDbEntity
100
AcDbBlockBegin
2
*PAPER_SPACE
0
ENDBLK
5
1D
100
AcDbEntity
100
AcDbBlockEnd
0
ENDSEC
0
SECTION
2
ENTITIES
0
LWPOLYLINE
5
100
100
AcDbEntity
8
0
100
AcDbPolyline
90
16
70
1
43
0.0
10
1.0750000000000162
20
0.68691999999999986
10
0.76192000000001625
20
0.99999999999999989
10
-3.4785799999995879
20
0.99999999999999944
42
-0.36437762252419553
10
-4.1153402671880377
20
1.5350863638872028
10
-4.1153402671880377
20
1.6012033984999614
42
0.41421356237309426
10
-4.5141368686880377
20
1.9999999999999607
10
-5.7358631313110715
20
1.9999999999999607
42
0.41421356237309631
10
-6.1346597328110706
20
1.601203398499961
10
-6.1346597328110706
20
-1.6012033985000393
42
0.41421356237309631
10
-5.7358631313110715
20
-2.0000000000000395
10
-4.5141368686880368
20
-2.0000000000000391
42
0.41421356237309964
10
-4.1153402671880368
20
-1.6012033985000351
10
-4.1153402671880368
20
-1.5350863638872028
42
-0.36437762252419525
10
-3.4785799999995892
20
-0.99999999999999956
10
0.76192000000001692
20
-0.99999999999999989
10
1.0750000000000164
20
-0.68691999999999975
0
CIRCLE
5
101
100
AcDbEntity
8
0
100
AcDbCircle
10
-4.5062815664613609
20
0.61871843353822831
30
0
40
0.099999999999999811
210
1.2621774483536189e-29
220
-0
230
1
0
CIRCLE
5
102
100
AcDbEntity
8
0
100
AcDbCircle
10
-4.5062815664613618
20
-0.61871843353822908
30
0
40
0.099999999999999811
210
1.2621774483536189e-29
220
-0
230
1
0
CIRCLE
5
103
100
AcDbEntity
8
0
100
AcDbCircle
10
-5.699025148547225
20
1.38581929876693
30
0
40
0.049999999999999559
210
0
220
-0
230
1
0
CIRCLE
5
104
100
AcDbEntity
8
0
100
AcDbCircle
10
-5.7437184335378184
20
0.61871843353822897
30
0
40
0.099999999999999811
210
1.2621774483536189e-29
220
-0
230
1
0
CIRCLE
5
105
100
AcDbEntity
8
0
100
AcDbCircle
10
-5.1249999999995897
20
0
30
0
40
0.27999999999999992
210
0
220
-0
230
1
0
CIRCLE
5
106
100
AcDbEntity
8
0
100
AcDbCircle
10
-5.1249999999995897
20
-1.5
30
0
40
0.049999999999999559
210
0
220
-0
230
1
0
CIRCLE
5
107
100
AcDbEntity
8
0
100
AcDbCircle
10
-0.52499999999998392
20
0.60000000000000053
30
0
40
0.090000000000000052
210
0
220
-0
230
1
0
CIRCLE
5
108
100
AcDbEntity
8
0
100
AcDbCircle
10
-0.52499999999998426
20
-0.60000000000000053
30
0
40
0.090000000000000052
210
0
220
-0
230
1
0
CIRCLE
5
109
100
AcDbEntity
8
0
100
AcDbCircle
10
0.67500000000001703
20
0.60000000000000009
30
0
40
0.090000000000000052
210
0
220
-0
230
1
0
CIRCLE
5
110
100
AcDbEntity
8
0
100
AcDbCircle
10
0.67500000000001659
20
-0.60000000000000064
30
0
40
0.089999999999999955
210
0
220
-0
230
1
0
CIRCLE
5
111
100
AcDbEntity
8
0
100
AcDbCircle
10
-5.699025148547225
20
-1.38581929876693
30
0
40
0.049999999999999559
210
0
220
-0
230
1
0
CIRCLE
5
112
100
AcDbEntity
8
0
100
AcDbCircle
10
-5.5312499999995897
20
0
30
0
40
0.084999999999999812
210
0
220
-0
230
1
0
CIRCLE
5
113
100
AcDbEntity
8
0
100
AcDbCircle
10
-4.7187499999995897
20
-4.9751276215361191e-17
30
0
40
0.084999999999999812
210
0
220
-0
230
1
0
CIRCLE
5
114
100
AcDbEntity
8
0
100
AcDbCircle
10
0.075000000000016345
20
0
30
0
40
0.375
210
0
220
-0
230
1
0
CIRCLE
5
115
100
AcDbEntity
8
0
100
AcDbCircle
10
-5.1249999999995897
20
1.5
30
0
40
0.049999999999999559
210
0
220
-0
230
1
0
CIRCLE
5
116
100
AcDbEntity
8
0
100
AcDbCircle
10
-4.5509748514519544
20
1.3858192987669298
30
0
40
0.05000000000000026
210
0
220
-0
230
1
0
CIRCLE
5
117
100
AcDbEntity
8
0
100
AcDbCircle
10
-4.5509748514519552
20
-1.38581929876693
30
0
40
0.05000000000000026
210
0
220
-0
230
1
0
ENDSEC
0
SECTION
2
OBJECTS
0
DICTIONARY
5
C
100
AcDbDictionary
3
ACAD_GROUP
350
D
3
ACAD_MLINESTYLE
350
17
0
DICTIONARY
5
D
100
AcDbDictionary
0
DICTIONARY
5
1A
330
C
100
AcDbDictionary
0
DICTIONARY
5
17
100
AcDbDictionary
0
ENDSEC
0
EOF
