0
SECTION
2
HEADER
9
$INSUNITS
70
1
9
$ACADVER
1
AC1014
9
$HANDSEED
5
FFFF
0
ENDSEC
0
SECTION
2
TABLES
0
TABLE
2
VPORT
5
8
100
AcDbSymbolTable
0
ENDTAB
0
TABLE
2
LTYPE
5
5
100
AcDbSymbolTable
0
LTYPE
5
14
100
AcDbSymbolTableRecord
100
AcDbLinetypeTableRecord
2
BYBLOCK
70
0
0
LTYPE
5
15
100
AcDbSymbolTableRecord
100
AcDbLinetypeTableRecord
2
BYLAYER
70
0
0
ENDTAB
0
TABLE
2
LAYER
5
2
100
AcDbSymbolTable
70
2
0
LAYER
5
50
100
AcDbSymbolTableRecord
100
AcDbLayerTableRecord
2
0
70
0
6
CONTINUOUS
0
ENDTAB
0
TABLE
2
STYLE
5
3
100
AcDbSymbolTable
70
1
0
STYLE
5
11
100
AcDbSymbolTableRecord
100
AcDbTextStyleTableRecord
2
STANDARD
70
0
0
ENDTAB
0
TABLE
2
VIEW
5
6
100
AcDbSymbolTable
70
0
0
ENDTAB
0
TABLE
2
UCS
5
7
100
AcDbSymbolTable
70
0
0
ENDTAB
0
TABLE
2
APPID
5
9
100
AcDbSymbolTable
70
2
0
APPID
5
12
100
AcDbSymbolTableRecord
100
AcDbRegAppTableRecord
2
ACAD
70
0
0
ENDTAB
0
TABLE
2
DIMSTYLE
5
A
100
AcDbSymbolTable
70
1
0
ENDTAB
0
TABLE
2
BLOCK_RECORD
5
1
100
AcDbSymbolTable
70
1
0
BLOCK_RECORD
5
1F
100
AcDbSymbolTableRecord
100
AcDbBlockTableRecord
2
*MODEL_SPACE
0
BLOCK_RECORD
5
1B
100
AcDbSymbolTableRecord
100
AcDbBlockTableRecord
2
*PAPER_SPACE
0
ENDTAB
0
ENDSEC
0
SECTION
2
BLOCKS
0
BLOCK
5
20
100
AcDbEntity
100
AcDbBlockBegin
2
*MODEL_SPACE
0
ENDBLK
5
21
100
AcDbEntity
100
AcDbBlockEnd
0
BLOCK
5
1C
100
AcDbEntity
100
AcDbBlockBegin
2
*PAPER_SPACE
0
ENDBLK
5
1D
100
AcDbEntity
100
AcDbBlockEnd
0
ENDSEC
0
SECTION
2
ENTITIES
0
LWPOLYLINE
5
100
100
AcDbEntity
8
0
100
AcDbPolyline
90
15
70
1
43
0.0
10
-2.1986200766592066
20
-1.1441053816673716
42
0.11632073893113046
10
-1.8435456245001443
20
-1.0603673172879546
42
-0.11632073893113086
10
-1.5875701338656689
20
-1.0000000000000857
10
3.417499999999448
20
-1.0000000000000859
10
3.417499999999448
20
0.99999999999991462
10
-0.98261881990054856
20
0.99999999999991407
42
-0.4142135623730952
10
-1.9675000000005491
20
1.9848811800999147
10
-1.9675000000005491
20
2.6738446183326294
42
0.41421356237309559
10
-2.1495500000005485
20
2.8558946183326288
10
-2.2737751890499176
20
2.8558946183326288
42
0.071764056134737436
10
-2.4345120178557167
20
2.8327049360085357
42
0.12400610411598426
10
-3.6101778284254538
20
2.138612893154777
42
0.20029747089525207
10
-3.9675000000005491
20
1.2824195164198995
10
-3.9675000000005496
20
-0.99844538166737129
42
0.4142135623730982
10
-3.8218400000005501
20
-1.1441053816673716
0
CIRCLE
5
101
100
AcDbEntity
8
0
100
AcDbCircle
10
0.49999999999997485
20
-0.49999999999996081
30
0
40
0.062499999999999972
210
0
220
0
230
1
0
CIRCLE
5
102
100
AcDbEntity
8
0
100
AcDbCircle
10
2.9174999999994489
20
-0.50000000000002165
30
0
40
0.062500000000000153
210
0
220
0
230
1
0
CIRCLE
5
103
100
AcDbEntity
8
0
100
AcDbCircle
10
0.49999999999999994
20
0.49999999999993577
30
0
40
0.062499999999999972
210
0
220
0
230
1
0
CIRCLE
5
104
100
AcDbEntity
8
0
100
AcDbCircle
10
2.9174999999994742
20
0.49999999999987493
30
0
40
0.062500000000000153
210
0
220
0
230
1
0
CIRCLE
5
105
100
AcDbEntity
8
0
100
AcDbCircle
10
-2.3675000000005495
20
1.6058946183326293
30
0
40
0.062500000000000153
210
0
220
0
230
1
0
CIRCLE
5
106
100
AcDbEntity
8
0
100
AcDbCircle
10
-2.9675000000005487
20
0.85589461833262892
30
0
40
0.30000000000000016
210
0
220
0
230
1
0
CIRCLE
5
107
100
AcDbEntity
8
0
100
AcDbCircle
10
-3.5675000000005475
20
0.10589461833262953
30
0
40
0.062499999999999799
210
0
220
0
230
1
0
CIRCLE
5
108
100
AcDbEntity
8
0
100
AcDbCircle
10
-2.2175000000005496
20
2.355894618332627
30
0
40
0.062500000000000153
210
0
220
0
230
1
0
CIRCLE
5
109
100
AcDbEntity
8
0
100
AcDbCircle
10
-2.3675000000005499
20
0.10589461833262957
30
0
40
0.062500000000000153
210
0
220
0
230
1
0
CIRCLE
5
110
100
AcDbEntity
8
0
100
AcDbCircle
10
1.6674999999994495
20
0.049999999999913496
30
0
40
0.56500000000000006
210
0
220
0
230
1
0
CIRCLE
5
111
100
AcDbEntity
8
0
100
AcDbCircle
10
1.0674999999994494
20
0.64999999999991354
30
0
40
0.075000000000000039
210
0
220
0
230
1
0
CIRCLE
5
112
100
AcDbEntity
8
0
100
AcDbCircle
10
-3.4675000000005483
20
0.85589461833262892
30
0
40
0.090000000000000052
210
0
220
0
230
1
0
CIRCLE
5
113
100
AcDbEntity
8
0
100
AcDbCircle
10
-2.4675000000005491
20
0.85589461833262881
30
0
40
0.090000000000000052
210
0
220
0
230
1
0
CIRCLE
5
114
100
AcDbEntity
8
0
100
AcDbCircle
10
-3.5675000000005488
20
1.6058946183326297
30
0
40
0.062499999999999799
210
0
220
0
230
1
0
CIRCLE
5
115
100
AcDbEntity
8
0
100
AcDbCircle
10
1.0674999999994499
20
-0.55000000000008642
30
0
40
0.075000000000000039
210
0
220
0
230
1
0
CIRCLE
5
116
100
AcDbEntity
8
0
100
AcDbCircle
10
-2.2175000000005487
20
-0.64410538166737319
30
0
40
0.062500000000000153
210
0
220
0
230
1
0
CIRCLE
5
117
100
AcDbEntity
8
0
100
AcDbCircle
10
-3.7175000000005483
20
-0.64410538166737297
30
0
40
0.062500000000000486
210
0
220
0
230
1
0
CIRCLE
5
118
100
AcDbEntity
8
0
100
AcDbCircle
10
2.267499999999449
20
0.64999999999991354
30
0
40
0.075000000000000039
210
0
220
0
230
1
0
CIRCLE
5
119
100
AcDbEntity
8
0
100
AcDbCircle
10
2.2674999999994494
20
-0.55000000000008642
30
0
40
0.075000000000000039
210
0
220
0
230
1
0
ENDSEC
0
SECTION
2
OBJECTS
0
DICTIONARY
5
C
100
AcDbDictionary
3
ACAD_GROUP
350
D
3
ACAD_MLINESTYLE
350
17
0
DICTIONARY
5
D
100
AcDbDictionary
0
DICTIONARY
5
1A
330
C
100
AcDbDictionary
0
DICTIONARY
5
17
100
AcDbDictionary
0
ENDSEC
0
EOF
