0
SECTION
2
HEADER
9
$INSUNITS
70
1
9
$ACADVER
1
AC1014
9
$HANDSEED
5
FFFF
0
ENDSEC
0
SECTION
2
TABLES
0
TABLE
2
VPORT
5
8
100
AcDbSymbolTable
0
ENDTAB
0
TABLE
2
LTYPE
5
5
100
AcDbSymbolTable
0
LTYPE
5
14
100
AcDbSymbolTableRecord
100
AcDbLinetypeTableRecord
2
BYBLOCK
70
0
0
LTYPE
5
15
100
AcDbSymbolTableRecord
100
AcDbLinetypeTableRecord
2
BYLAYER
70
0
0
ENDTAB
0
TABLE
2
LAYER
5
2
100
AcDbSymbolTable
70
2
0
LAYER
5
50
100
AcDbSymbolTableRecord
100
AcDbLayerTableRecord
2
0
70
0
6
CONTINUOUS
0
ENDTAB
0
TABLE
2
STYLE
5
3
100
AcDbSymbolTable
70
1
0
STYLE
5
11
100
AcDbSymbolTableRecord
100
AcDbTextStyleTableRecord
2
STANDARD
70
0
0
ENDTAB
0
TABLE
2
VIEW
5
6
100
AcDbSymbolTable
70
0
0
ENDTAB
0
TABLE
2
UCS
5
7
100
AcDbSymbolTable
70
0
0
ENDTAB
0
TABLE
2
APPID
5
9
100
AcDbSymbolTable
70
2
0
APPID
5
12
100
AcDbSymbolTableRecord
100
AcDbRegAppTableRecord
2
ACAD
70
0
0
ENDTAB
0
TABLE
2
DIMSTYLE
5
A
100
AcDbSymbolTable
70
1
0
ENDTAB
0
TABLE
2
BLOCK_RECORD
5
1
100
AcDbSymbolTable
70
1
0
BLOCK_RECORD
5
1F
100
AcDbSymbolTableRecord
100
AcDbBlockTableRecord
2
*MODEL_SPACE
0
BLOCK_RECORD
5
1B
100
AcDbSymbolTableRecord
100
AcDbBlockTableRecord
2
*PAPER_SPACE
0
ENDTAB
0
ENDSEC
0
SECTION
2
BLOCKS
0
BLOCK
5
20
100
AcDbEntity
100
AcDbBlockBegin
2
*MODEL_SPACE
0
ENDBLK
5
21
100
AcDbEntity
100
AcDbBlockEnd
0
BLOCK
5
1C
100
AcDbEntity
100
AcDbBlockBegin
2
*PAPER_SPACE
0
ENDBLK
5
1D
100
AcDbEntity
100
AcDbBlockEnd
0
ENDSEC
0
SECTION
2
ENTITIES
0
CIRCLE
5
100
100
AcDbEntity
8
0
100
AcDbCircle
10
-0.99882285215697064
20
0.7290000007841605
30
0
40
0.15599999999999986
210
0
220
-0
230
1
0
CIRCLE
5
101
100
AcDbEntity
8
0
100
AcDbCircle
10
-0.49882285154148392
20
1.3540000359984823
30
0
40
0.10999999999999995
210
5.5133854806393694e-79
220
1.6543612251060553e-24
230
1
0
CIRCLE
5
102
100
AcDbEntity
8
0
100
AcDbCircle
10
-1.4988228515414836
20
1.3540000359984823
30
0
40
0.10999999999999995
210
5.5133854806393694e-79
220
1.6543612251060553e-24
230
1
0
LWPOLYLINE
5
103
100
AcDbEntity
8
0
100
AcDbPolyline
90
34
70
1
43
0.0
10
2.4407271484585542
20
-1.8789145879052644
42
0.41421356237309503
10
2.563677148458555
20
-1.7559645879052643
10
2.5636771484585577
20
0.070454266616259711
42
0.41421356237309254
10
2.4407271484585591
20
0.1934042666162602
10
2.0336771484585143
20
0.1934042666162592
10
2.0336771484585139
20
1.4826942666162581
10
2.4407271484585134
20
1.4826942666162579
42
0.4142135623730942
10
2.5636771484585137
20
1.60564426661626
10
2.5636771484585137
20
2.8167131193785511
42
0.4142135623730917
10
2.4407271484585134
20
2.9396631193785514
10
0.65662714845853531
20
2.9396631193785505
42
0.41421356237309381
10
0.53367714845853564
20
2.8167131193785511
10
0.53367714845853442
20
2.1605899999999552
10
0.15662714845853407
20
2.1605899999999574
42
0.41421356237309553
10
0.033677148458533368
20
2.0376399999999579
10
0.033677148458531557
20
1.7210400000000021
42
-0.41421356237309354
10
-0.083362851541468441
20
1.604000000000003
10
-1.9142828515414827
20
1.6040000000000043
42
-0.41421356237309503
10
-2.0313228515414825
20
1.7210400000000043
10
-2.0313228515414825
20
2.0376399999999664
42
0.41421356237309342
10
-2.154272851541482
20
2.1605899999999658
10
-2.531322851541483
20
2.1605899999999658
10
-2.5313228515414794
20
2.8167131193785697
42
0.41421356237309087
10
-2.6542728515414824
20
2.9396631193785696
10
-4.4383728515414616
20
2.9396631193785687
42
0.41421356237308754
10
-4.5613228515414619
20
2.8167131193785702
10
-4.5613228515414699
20
1.6056442666162785
42
0.41421356237309587
10
-4.4383728515414695
20
1.4826942666162779
10
-4.0313228515414705
20
1.4826942666162746
10
-4.0313228515414181
20
0.19340426661625967
10
-4.438372851541418
20
0.19340426661626214
42
0.41421356237309293
10
-4.5613228515414184
20
0.070454266616263361
10
-4.5613228515414175
20
-1.7559645879052614
42
0.41421356237309254
10
-4.4383728515414269
20
-1.878914587905262
0
CIRCLE
5
104
100
AcDbEntity
8
0
100
AcDbCircle
10
2.3136771484585092
20
2.2111786936550795
30
-8.7419135797256413e-17
40
0.11000000000000029
210
0
220
-0
230
1
0
CIRCLE
5
105
100
AcDbEntity
8
0
100
AcDbCircle
10
-1.9988228515414426
20
-1.6289145772254834
30
0
40
0.11000000000000011
210
0
220
-1.6543612251060557e-24
230
1
0
CIRCLE
5
106
100
AcDbEntity
8
0
100
AcDbCircle
10
-4.3113228515414379
20
2.2111786936550426
30
-8.7419135797256413e-17
40
0.11000000000000029
210
0
220
-0
230
1
0
CIRCLE
5
107
100
AcDbEntity
8
0
100
AcDbCircle
10
0.0011771484585568837
20
-1.628914577225461
30
0
40
0.11000000000000011
210
0
220
-1.6543612251060557e-24
230
1
0
CIRCLE
5
108
100
AcDbEntity
8
0
100
AcDbCircle
10
-2.281322851541483
20
1.6605900106797242
30
0
40
0.11000000000000029
210
0
220
-0
230
1
0
CIRCLE
5
109
100
AcDbEntity
8
0
100
AcDbCircle
10
2.2986771484585042
20
-0.59275514996466883
30
0
40
0.10999999999999996
210
0
220
-0
230
1
0
CIRCLE
5
110
100
AcDbEntity
8
0
100
AcDbCircle
10
-3.4988228515414423
20
-1.628914577225498
30
0
40
0.10999999999999996
210
0
220
-0
230
1
0
CIRCLE
5
111
100
AcDbEntity
8
0
100
AcDbCircle
10
-4.2963228515414009
20
-0.59275514996474266
30
0
40
0.10999999999999996
210
0
220
-0
230
1
0
CIRCLE
5
112
100
AcDbEntity
8
0
100
AcDbCircle
10
1.501177148458557
20
-1.6289145772254421
30
0
40
0.10999999999999996
210
0
220
-0
230
1
0
CIRCLE
5
113
100
AcDbEntity
8
0
100
AcDbCircle
10
0.2836771484585604
20
1.6605900106797529
30
0
40
0.11000000000000029
210
0
220
-0
230
1
0
ENDSEC
0
SECTION
2
OBJECTS
0
DICTIONARY
5
C
100
AcDbDictionary
3
ACAD_GROUP
350
D
3
ACAD_MLINESTYLE
350
17
0
DICTIONARY
5
D
100
AcDbDictionary
0
DICTIONARY
5
1A
330
C
100
AcDbDictionary
0
DICTIONARY
5
17
100
AcDbDictionary
0
ENDSEC
0
EOF
