<?xml version="1.0" encoding="UTF-8"?>
<svg id="Layer_1" data-name="Layer 1" xmlns="http://www.w3.org/2000/svg" viewBox="0 0 1626.15 1751.18">
  <defs>
    <style>
      .cls-1 {
        fill: #999a9d;
      }

      .cls-1, .cls-2, .cls-3, .cls-4, .cls-5, .cls-6, .cls-7, .cls-8, .cls-9, .cls-10, .cls-11, .cls-12, .cls-13, .cls-14 {
        stroke-width: 0px;
      }

      .cls-2 {
        fill: #96989b;
      }

      .cls-3 {
        fill: #98999c;
      }

      .cls-4 {
        fill: #97999c;
      }

      .cls-5 {
        fill: #0c9444;
      }

      .cls-6 {
        fill: #02aeee;
      }

      .cls-7 {
        fill: #17994d;
      }

      .cls-8 {
        fill: #1d9b52;
      }

      .cls-9 {
        fill: #9d9ea1;
      }

      .cls-10 {
        fill: #14974b;
      }

      .cls-11 {
        fill: #949699;
      }

      .cls-12 {
        fill: #989a9d;
      }

      .cls-13 {
        fill: #96979a;
      }

      .cls-14 {
        fill: #16984c;
      }
    </style>
  </defs>
  <path class="cls-5" d="m1248.82,1343.84c84.03,51.55,170.47,98.18,266.36,124.11,35.87,9.7,72.6,16.25,110.97,24.68H.21c-.07-.58-.14-1.16-.21-1.74,23.32-4.37,46.78-8.09,69.92-13.23,109.34-24.29,206.97-75.08,301.14-133.53,2.31-1.43,3.62-4.48,5.39-6.78,14.4-8.27,28.81-16.53,43.22-24.79,31.86-19.53,63.59-39.3,95.62-58.55,68.5-41.18,138.9-78.07,218.57-93.15,12.21-2.31,24.53-4.05,36.5-6.01v-119.91c-99.62-12.54-184.03-54.25-250.81-128.6-66.96-74.55-100.67-162.09-101.24-263.5,105.15,3.31,194.26,38.45,268.28,108.71,74.01,70.24,114.37,157.28,124.46,259.73,12.13-102.17,51.32-190.47,126.52-260.8,75.39-70.52,165.24-105.47,269.92-107.48.18,76.83-19.49,146.11-59.76,208.84-69.04,107.55-168.78,167.6-295.6,183.76v118.84c2.75.84,4.92,1.84,7.18,2.14,76.83,10.07,146.27,40.26,212.5,78.63,43.82,25.38,86.88,52.07,130.27,78.17,15.58,10.16,31.15,20.32,46.73,30.48Z"/>
  <path class="cls-11" d="m1248.82,1343.84c-15.58-10.16-31.15-20.32-46.73-30.48,38.35-32.98,80.64-62.39,114.39-99.52,179.31-197.26,234.06-427.13,156.25-680.95C1368.89,194.14,1029.26-6.07,680.96,59.93,373.5,118.19,142.14,373.87,118.95,692.09c-9.02,123.75,14.44,242.35,69.64,354,53.78,108.8,131.84,196.83,231.08,266.46-14.41,8.26-28.81,16.52-43.22,24.79-24.98-19.65-51.81-37.39-74.64-59.28-123.47-118.32-201.34-261.39-223.73-431.42-33.77-256.43,44.19-475.28,232.99-652.26C429.18,83.67,571.28,21.06,732.72,4.35c171.16-17.71,330.41,18.56,475.9,110.56,131.38,83.07,227.09,196.93,287.64,340.06,38.8,91.71,58.92,187.59,57.2,286.87-4.16,240.91-101.98,436.44-290.91,586.56-5.31,4.22-9.19,10.25-13.73,15.44Z"/>
  <path class="cls-10" d="m1418.25,1709.96c-8.01-.4-13.15-.65-19.29-.96v-120.09c-.94-.33-1.87-.66-2.81-.98-1.96,3.7-4.25,7.27-5.82,11.13-13.43,32.86-26.35,65.92-40.44,98.49-2.27,5.25-9.24,10.94-14.61,11.56-3.73.43-10.34-6.69-12.4-11.75-14.36-35.35-27.87-71.04-45.56-105.93v117.21h-20.42c0-45.49-.26-90.56.46-135.62.06-3.87,6.17-10.22,10.28-10.97,11.64-2.12,22.7-.93,28.01,13.08,10.87,28.69,22.46,57.1,33.82,85.6,2.17,5.43,4.68,10.73,8.25,18.89,14.95-36.03,28.21-69.35,42.85-102.07,2.93-6.54,10.34-13.51,17.07-15.41,12.9-3.65,21.28.72,20.92,17.33-.92,42.69-.31,85.42-.31,130.49Z"/>
  <path class="cls-1" d="m881.43,1621.78c8.04,35.89-11.16,56.42-49.23,50.48-4.11-.64-8.76,2.13-13.16,3.31,3.37,3.6,6.28,9.59,10.2,10.35,9.94,1.92,20.33,1.42,30.53,2.03,20.17,1.21,32.65,10.61,34.13,25.6,1.6,16.16-8.87,30.46-27.72,34.72-10.92,2.47-22.79,3.75-33.8,2.3-36.96-4.88-44.14-20.91-24.76-52.35-1.69-.33-3.37-.66-5.06-.99,1.54-11.2,3.26-22.38,4.52-33.61.42-3.74.47-7.87-.69-11.37-10.52-31.85,10.35-57.16,43.76-53.13,9.53,1.15,19.25.71,28.74,2.04,5.24.73,10.18,3.61,15.26,5.52-3.6,4.26-7.19,8.53-12.74,15.11Zm-33.89,113.92c2.13-.26,10.08,1.09,13.61-2.23,5.61-5.29,8.28-13.69,12.19-20.78-9.74-3.38-19.4-9.08-29.25-9.43-8.22-.29-19.98,3.32-24.33,9.39-9.46,13.2,1.09,22.92,27.78,23.05Zm17.44-102.32c-.73-11.42-7.02-19.05-21.43-18.77-14,.27-21.35,7.45-21.62,21.05-.27,13.53,7.09,21.45,20.6,22.49,12.84.99,22.45-9.13,22.45-24.77Z"/>
  <path class="cls-12" d="m221.47,1620.38c7.96,38.41-9.95,57.12-50.16,51.02-3.69-.56-7.9,2.3-11.87,3.57,3.1,3.75,5.67,9.95,9.42,10.77,9.3,2.02,19.12,1.68,28.75,2.11,22.77,1.02,35.63,10.53,36.43,27.08.86,17.52-11.23,31.65-32.59,34.26-14.06,1.72-28.97,1.61-42.8-1.17-19.72-3.97-27.08-21.61-16.72-38.69,5.04-8.31,6.77-14.7.86-22.51-.68-.91-1.42-2.61-1.02-3.37,9.77-18.52.3-38,2.94-56.64,2.56-18.06,22.51-29.85,42.92-28.13,10.19.86,20.51.88,30.57,2.49,5.59.89,10.78,4.27,16.14,6.53-4.09,4.02-8.17,8.03-12.89,12.66Zm-40.19,81.6c-3.51.74-11.62.14-15.67,3.9-4.53,4.21-8.97,16.54-7.2,18.06,6.5,5.55,15.32,10.21,23.77,11.27,13.91,1.75,31.63,1.22,31.74-17.36.1-17.32-17.45-14.14-32.63-15.87Zm.75-43.73c14.28.04,23.6-9.83,23.03-23.42-.54-12.61-6.55-19.97-20.08-20.24-15.17-.3-22.36,8.14-22.78,21.9-.42,13.55,7.95,20.51,19.83,21.76Z"/>
  <path class="cls-3" d="m453.1,1603.94c14.17-6.11,20.53-2.63,23.82,9.41,6.09,22.29,12.96,44.37,23.68,66.57,5.55-20.49,10.43-41.2,17.02-61.36,2.18-6.67,8.74-11.92,13.29-17.82,4.86,5.59,11.94,10.42,14.17,16.91,7.19,20.93,12.6,42.48,22.05,64.18,6.73-22.93,13.76-45.79,20.08-68.84,2.99-10.91,8.36-15.29,21.92-9.44-3.24,11.64-6.3,23.54-9.87,35.29-6.12,20.13-11.85,40.42-19.35,60.03-1.86,4.87-9.95,10.31-15.04,10.18-5.11-.13-12.78-5.91-14.59-10.91-7.02-19.43-12.15-39.54-21.38-59.04-5.35,20.11-10.19,40.37-16.45,60.19-1.37,4.33-7.42,9.18-11.98,9.98-4.89.85-14.26-1.53-15.34-4.67-11.41-33.29-21.55-67.02-32.05-100.67Z"/>
  <path class="cls-8" d="m1223.12,1709.66c-23.43,0-45.76-.3-68.07.14-9.45.19-12.96-3.66-12.93-12.72.15-40.96-.32-81.93.64-122.87.1-4.36,7.86-11.87,12.48-12.2,19.21-1.39,38.6-1.02,57.88-.21,3.8.16,7.4,5.1,11.09,7.83-4.06,2.99-7.96,8.29-12.2,8.57-15.6,1.04-31.31.41-48.3.41v45.64c13.25,0,26.88-.72,40.36.42,4.31.36,8.21,5.64,12.29,8.67-3.96,2.45-7.79,6.72-11.9,7-13.15.91-26.41.34-40.84.34v52.43c16.25,0,32.32-.21,48.38.07,12.37.21,12.37.49,11.11,16.48Z"/>
  <path class="cls-7" d="m912.43,1684.47c14,3.64,26.45,8.37,39.27,9.79,12.86,1.43,23.92-4.14,27.69-18.01,3.7-13.6-4.44-21.66-15.06-27.58-8.92-4.97-18.55-8.68-27.42-13.73-19.71-11.24-27.3-27.44-22.43-46.35,4.76-18.45,19.8-28.94,42.63-28.86,7.14.02,14.42,1.21,21.36,2.95,11.82,2.96,17.58,9.9,11.93,23.27-8.94-3.23-17.59-7.62-26.75-9.34-11.99-2.26-23.67.41-28.4,13.37-4.46,12.23,2.36,21.04,12.55,26.89,10.41,5.98,21.52,10.75,32.04,16.55,15.87,8.75,23.13,22.3,20.95,40.45-2.27,18.89-13.12,32.56-31.28,34.96-16.01,2.12-33.19-.21-49.17-3.71-11.15-2.45-11.24-6.47-7.93-20.65Z"/>
  <path class="cls-7" d="m1448.12,1684.02c13.38,3.82,25.14,8.74,37.33,10.23,13.21,1.62,25.55-2.38,29.63-17.55,3.88-14.41-4.44-22.66-15.93-28.75-10.09-5.34-20.82-9.64-30.42-15.72-16.19-10.24-22.64-26.66-18.44-43.36,4.25-16.86,17.14-27.54,37.14-28.65,9.41-.52,19.14,1.06,28.43,3.07,11.48,2.48,15.9,9.87,10.87,22.79-7.69-2.96-15.08-6.66-22.9-8.64-13.2-3.35-26.47-2.37-32.09,12.08-5.31,13.64,3.07,22.85,14.83,29,10.12,5.3,20.61,9.92,30.53,15.56,15.17,8.62,21.36,21.99,19.71,39.36-1.59,16.75-10.61,27.89-25.66,34.08-18.24,7.5-36.62,6.16-54.4-1.78-10.65-4.75-11.16-6.83-8.63-21.74Z"/>
  <path class="cls-12" d="m335.03,1656.74c-.01-37.33,18.6-58.53,51.49-58.65,32.35-.12,50.6,19.61,50.74,54.87.15,37.07-20,59.74-52.94,59.57-31.98-.16-49.28-19.74-49.29-55.8Zm19.04,1.48c.12,1.17.2,5.4,1.06,9.47,3.41,16.11,10.89,27.78,29.79,27.6,17.86-.17,28.18-8.3,30.89-28.13,1.42-10.37.81-21.57-1.62-31.75-3.07-12.83-12.8-19.7-26.54-20.1-20.8-.62-33.5,14.39-33.58,42.92Z"/>
  <path class="cls-2" d="m756.06,1706.31c0-20.44.37-40.89-.11-61.32-.45-19.6-8.49-29.76-22.01-29.41-14.13.37-28.23,15.86-28.4,31.54-.17,16.26-.53,32.55.11,48.78.5,12.68-4.51,16.41-17.46,12.1v-109.46c8.02,3.9,13.96,6.79,22.15,10.78,2.05-1.2,7-4.68,12.41-7.15,23.61-10.8,48.98,2.13,51.13,27.72,1.96,23.33,1.28,46.97.18,70.4-.19,3.98-8.38,7.59-12.87,11.37-1.71-1.78-3.43-3.57-5.14-5.35Z"/>
  <path class="cls-14" d="m1076.85,1709.34h-18.83v-130.55c-12.81,0-24.03.69-35.09-.36-4.1-.39-7.81-4.86-11.69-7.47,3.95-3.16,7.82-8.94,11.85-9.05,28.97-.79,57.98-.78,86.95-.02,4.12.11,8.1,5.63,12.15,8.65-4.3,2.75-8.39,7.33-12.96,7.88-10.07,1.2-20.39.37-32.38.37v130.55Z"/>
  <path class="cls-4" d="m278.12,1707.77c-12.14,3.5-18.86,2.99-18.71-9.99.37-31.23.12-62.47.12-99.37,9.11,4.54,15.08,7.53,18.78,9.37,11.62-2.38,23.54-5.66,35.65-6.57,2.24-.17,5.21,9.2,8.45,15.32-38.52,4.62-44.29,11.3-44.29,47.32,0,14.36,0,28.73,0,43.92Z"/>
  <path class="cls-13" d="m632.41,1708.41c0-33.61-.27-65.33.38-97.03.07-3.57,5.41-7.03,8.3-10.54,3.29,3.73,9.33,7.38,9.43,11.2.8,28.74.2,57.52.54,86.28.17,13.78-7.78,11.84-18.66,10.09Z"/>
  <path class="cls-9" d="m642.29,1550.57c5.75,10.18,11.02,15.35,10.55,19.93-.41,4-8.04,10.82-11.14,10.16-4.69-1-10.8-7.05-11.46-11.65-.57-4.03,5.53-9.01,12.04-18.45Z"/>
  <path class="cls-6" d="m822.39,204.36c-3.91,62.15,28.67,103.82,63.28,145.06,20.88,24.88,39.98,51.3,59.16,77.55,58.89,80.58,4.46,195.13-88.79,218.23-100.13,24.8-196.91-57.76-185.62-160.56,1.71-15.56,7.96-32.21,16.83-45.11,25.21-36.66,51.55-72.73,79.96-106.96,26.8-32.29,42.11-68.31,47.26-109.34.52-4.15,1.5-8.26,2.5-12.34.24-1,1.4-1.77,5.41-6.54Z"/>
</svg>