0
SECTION
2
HEADER
9
$INSUNITS
70
1
9
$ACADVER
1
AC1014
9
$HANDSEED
5
FFFF
0
ENDSEC
0
SECTION
2
TABLES
0
TABLE
2
VPORT
5
8
100
AcDbSymbolTable
0
ENDTAB
0
TABLE
2
LTYPE
5
5
100
AcDbSymbolTable
0
LTYPE
5
14
100
AcDbSymbolTableRecord
100
AcDbLinetypeTableRecord
2
BYBLOCK
70
0
0
LTYPE
5
15
100
AcDbSymbolTableRecord
100
AcDbLinetypeTableRecord
2
BYLAYER
70
0
0
ENDTAB
0
TABLE
2
LAYER
5
2
100
AcDbSymbolTable
70
2
0
LAYER
5
50
100
AcDbSymbolTableRecord
100
AcDbLayerTableRecord
2
0
70
0
6
CONTINUOUS
0
ENDTAB
0
TABLE
2
STYLE
5
3
100
AcDbSymbolTable
70
1
0
STYLE
5
11
100
AcDbSymbolTableRecord
100
AcDbTextStyleTableRecord
2
STANDARD
70
0
0
ENDTAB
0
TABLE
2
VIEW
5
6
100
AcDbSymbolTable
70
0
0
ENDTAB
0
TABLE
2
UCS
5
7
100
AcDbSymbolTable
70
0
0
ENDTAB
0
TABLE
2
APPID
5
9
100
AcDbSymbolTable
70
2
0
APPID
5
12
100
AcDbSymbolTableRecord
100
AcDbRegAppTableRecord
2
ACAD
70
0
0
ENDTAB
0
TABLE
2
DIMSTYLE
5
A
100
AcDbSymbolTable
70
1
0
ENDTAB
0
TABLE
2
BLOCK_RECORD
5
1
100
AcDbSymbolTable
70
1
0
BLOCK_RECORD
5
1F
100
AcDbSymbolTableRecord
100
AcDbBlockTableRecord
2
*MODEL_SPACE
0
BLOCK_RECORD
5
1B
100
AcDbSymbolTableRecord
100
AcDbBlockTableRecord
2
*PAPER_SPACE
0
ENDTAB
0
ENDSEC
0
SECTION
2
BLOCKS
0
BLOCK
5
20
100
AcDbEntity
100
AcDbBlockBegin
2
*MODEL_SPACE
0
ENDBLK
5
21
100
AcDbEntity
100
AcDbBlockEnd
0
BLOCK
5
1C
100
AcDbEntity
100
AcDbBlockBegin
2
*PAPER_SPACE
0
ENDBLK
5
1D
100
AcDbEntity
100
AcDbBlockEnd
0
ENDSEC
0
SECTION
2
ENTITIES
0
LWPOLYLINE
5
100
100
AcDbEntity
8
0
100
AcDbPolyline
90
39
70
1
43
0.0
10
3.0100047941380539
20
1.0350093885946037
42
0.41727871439970859
10
2.934438923263945
20
1.1113693626684937
10
2.3849979641693309
20
1.1113693626684937
10
2.3849979641693313
20
1.3127828393073513
10
1.8949979641693311
20
1.3127828393073513
10
1.8949979641693311
20
1.1086706328577158
42
0.26794919243112264
10
1.9074979641693306
20
1.0870199977631048
42
-1.3032253728412218
10
1.8733473290747196
20
1.0528693626684935
42
0.26794919243112286
10
1.8516966939801085
20
1.0653693626684935
10
1.543299234358553
20
1.0653693626684935
42
0.26794919243111981
10
1.5216485992639426
20
1.0528693626684931
42
-1.3032253728411975
10
1.4874979641693313
20
1.0870199977631045
42
0.26794919243112547
10
1.4999979641693315
20
1.1086706328577158
10
1.4999979641693315
20
1.3318438187710022
10
-1.4800020358306698
20
1.3318438187710022
10
-1.4800020358306689
20
1.1086706328577158
42
0.2679491924311333
10
-1.4675020358306687
20
1.0870199977631041
42
-1.303225372841214
10
-1.5016526709252795
20
1.0528693626684928
42
0.26794919243112264
10
-1.5233033060198904
20
1.0653693626684928
10
-1.8317007656414463
20
1.0653693626684928
42
0.26794919243112691
10
-1.8533514007360579
20
1.0528693626684931
42
-1.3032253728412255
10
-1.8875020358306691
20
1.0870199977631041
42
0.26794919243112358
10
-1.8750020358306696
20
1.1086706328577149
10
-1.8750020358306694
20
1.3127828393073513
10
-2.3650020358306687
20
1.3127828393073513
10
-2.3650020358306687
20
1.1113693626684937
10
-2.914442994925281
20
1.1113693626684937
42
0.41727871439970732
10
-2.9900088657993904
20
1.0350093885946048
42
-0.0026134387348115415
10
-2.9900020358306683
20
1.033702696001825
10
-2.9900020358306678
20
-1.2426306373315061
10
-3.6658930817932771
20
-1.2426306373315061
42
0.73797782485048646
10
-3.7222370179636539
20
-1.42524637951681
10
-2.8649644795246743
20
-2.0099062507321936
10
2.8849604078633377
20
-2.0099062507321936
10
3.7422329463023174
20
-1.4252463795168098
42
0.73797782485048824
10
3.6858890101319415
20
-1.2426306373315061
10
3.1349979641693331
20
-1.2426306373315061
42
-0.41421356237309875
10
3.0099979641693317
20
-1.1176306373315064
10
3.0099979641693322
20
1.033702696001827
42
-0.0026134387348142061
0
CIRCLE
5
101
100
AcDbEntity
8
0
100
AcDbCircle
10
0.0099979641693314445
20
0.91636936266849356
30
0
40
0.099999999999999992
210
-2.1382117620026179e-50
220
1.5407439555097887e-33
230
1
0
CIRCLE
5
102
100
AcDbEntity
8
0
100
AcDbCircle
10
-2.8025020358306687
20
-1.4871306373315074
30
0
40
0.10000000000000017
210
-2.1382117620026179e-50
220
1.5407439555097887e-33
230
1
0
CIRCLE
5
103
100
AcDbEntity
8
0
100
AcDbCircle
10
2.8224979641693309
20
-1.4871306373315074
30
0
40
0.10000000000000017
210
-2.1382117620026179e-50
220
1.5407439555097887e-33
230
1
0
CIRCLE
5
104
100
AcDbEntity
8
0
100
AcDbCircle
10
0.0099979641693313959
20
-1.7996306373315074
30
0
40
0.099999999999999992
210
-2.1382117620026179e-50
220
1.5407439555097887e-33
230
1
0
ENDSEC
0
SECTION
2
OBJECTS
0
DICTIONARY
5
C
100
AcDbDictionary
3
ACAD_GROUP
350
D
3
ACAD_MLINESTYLE
350
17
0
DICTIONARY
5
D
100
AcDbDictionary
0
DICTIONARY
5
1A
330
C
100
AcDbDictionary
0
DICTIONARY
5
17
100
AcDbDictionary
0
ENDSEC
0
EOF
