0
SECTION
2
HEADER
9
$INSUNITS
70
1
9
$ACADVER
1
AC1014
9
$HANDSEED
5
FFFF
0
ENDSEC
0
SECTION
2
TABLES
0
TABLE
2
VPORT
5
8
100
AcDbSymbolTable
0
ENDTAB
0
TABLE
2
LTYPE
5
5
100
AcDbSymbolTable
0
LTYPE
5
14
100
AcDbSymbolTableRecord
100
AcDbLinetypeTableRecord
2
BYBLOCK
70
0
0
LTYPE
5
15
100
AcDbSymbolTableRecord
100
AcDbLinetypeTableRecord
2
BYLAYER
70
0
0
ENDTAB
0
TABLE
2
LAYER
5
2
100
AcDbSymbolTable
70
2
0
LAYER
5
50
100
AcDbSymbolTableRecord
100
AcDbLayerTableRecord
2
0
70
0
6
CONTINUOUS
0
ENDTAB
0
TABLE
2
STYLE
5
3
100
AcDbSymbolTable
70
1
0
STYLE
5
11
100
AcDbSymbolTableRecord
100
AcDbTextStyleTableRecord
2
STANDARD
70
0
0
ENDTAB
0
TABLE
2
VIEW
5
6
100
AcDbSymbolTable
70
0
0
ENDTAB
0
TABLE
2
UCS
5
7
100
AcDbSymbolTable
70
0
0
ENDTAB
0
TABLE
2
APPID
5
9
100
AcDbSymbolTable
70
2
0
APPID
5
12
100
AcDbSymbolTableRecord
100
AcDbRegAppTableRecord
2
ACAD
70
0
0
ENDTAB
0
TABLE
2
DIMSTYLE
5
A
100
AcDbSymbolTable
70
1
0
ENDTAB
0
TABLE
2
BLOCK_RECORD
5
1
100
AcDbSymbolTable
70
1
0
BLOCK_RECORD
5
1F
100
AcDbSymbolTableRecord
100
AcDbBlockTableRecord
2
*MODEL_SPACE
0
BLOCK_RECORD
5
1B
100
AcDbSymbolTableRecord
100
AcDbBlockTableRecord
2
*PAPER_SPACE
0
ENDTAB
0
ENDSEC
0
SECTION
2
BLOCKS
0
BLOCK
5
20
100
AcDbEntity
100
AcDbBlockBegin
2
*MODEL_SPACE
0
ENDBLK
5
21
100
AcDbEntity
100
AcDbBlockEnd
0
BLOCK
5
1C
100
AcDbEntity
100
AcDbBlockBegin
2
*PAPER_SPACE
0
ENDBLK
5
1D
100
AcDbEntity
100
AcDbBlockEnd
0
ENDSEC
0
SECTION
2
ENTITIES
0
CIRCLE
5
100
100
AcDbEntity
8
0
100
AcDbCircle
10
-2.7398301521370025
20
-2.5000000000000004
30
0
40
0.098000000000000004
210
0
220
-0
230
1
0
CIRCLE
5
101
100
AcDbEntity
8
0
100
AcDbCircle
10
-2.7398301521370025
20
2.4999999999999991
30
0
40
0.098000000000000004
210
0
220
-0
230
1
0
CIRCLE
5
102
100
AcDbEntity
8
0
100
AcDbCircle
10
1.3466926626569269
20
-2.5000000000000004
30
0
40
0.098000000000000004
210
0
220
-0
230
1
0
CIRCLE
5
103
100
AcDbEntity
8
0
100
AcDbCircle
10
1.3466926626569269
20
-6.9935308637805131e-16
30
0
40
0.098000000000000004
210
0
220
-0
230
1
0
CIRCLE
5
104
100
AcDbEntity
8
0
100
AcDbCircle
10
1.3466926626569269
20
2.4999999999999991
30
0
40
0.098000000000000004
210
0
220
-0
230
1
0
CIRCLE
5
105
100
AcDbEntity
8
0
100
AcDbCircle
10
0.60638449838715913
20
1.2243283311213098
30
0
40
0.24999999999999989
210
0
220
-0
230
1
0
CIRCLE
5
106
100
AcDbEntity
8
0
100
AcDbCircle
10
-4.0079854930054939
20
0.34798562066267136
30
0
40
0.078740157480314668
210
0
220
-0
230
1
0
CIRCLE
5
107
100
AcDbEntity
8
0
100
AcDbCircle
10
-3.6599998723428224
20
1.8576566356916988e-16
30
0
40
0.18750000000000008
210
0
220
-0
230
1
0
CIRCLE
5
108
100
AcDbEntity
8
0
100
AcDbCircle
10
-3.3120142516801514
20
0.34798562066267114
30
0
40
0.078740157480314668
210
0
220
-0
230
1
0
CIRCLE
5
109
100
AcDbEntity
8
0
100
AcDbCircle
10
-4.0079854930054939
20
-0.34798562066267086
30
0
40
0.078740157480314668
210
0
220
-0
230
1
0
CIRCLE
5
110
100
AcDbEntity
8
0
100
AcDbCircle
10
-3.3120142516801514
20
-0.34798562066267108
30
0
40
0.078740157480314668
210
0
220
-0
230
1
0
ARC
5
111
100
AcDbEntity
8
0
100
AcDbCircle
10
-3.0636530437465361
20
-1.6781000000000121
30
0
40
1.4366799999999877
210
0
220
0
230
1
100
AcDbArc
50
248.44358236847194
51
270.00000000000006
0
LINE
5
112
100
AcDbEntity
8
0
100
AcDbLine
10
-3.0636530437465344
20
-3.1147800000000001
30
0
11
-2.3026298755222183
21
-3.1147799999999997
31
0
0
LINE
5
113
100
AcDbEntity
8
0
100
AcDbLine
10
-2.3026298755222188
20
-3.1147795275590564
30
0
11
-2.1173143195725062
21
-3.1147795275590564
31
0
0
ARC
5
114
100
AcDbEntity
8
0
100
AcDbCircle
10
-2.117314319572507
20
-2.8587895275590536
30
0
40
0.25599000000000277
210
0
220
0
230
1
100
AcDbArc
50
270.00000000000023
51
318.66530954689057
0
ARC
5
115
100
AcDbEntity
8
0
100
AcDbCircle
10
-1.7328867694445074
20
-3.1969300000000009
30
0
40
0.25599
210
0
220
0
230
1
100
AcDbArc
50
90.000000000000057
51
138.66530954689097
0
LINE
5
116
100
AcDbEntity
8
0
100
AcDbLine
10
-1.7328867694445076
20
-2.9409400000000012
30
0
11
1.4489032861429478
21
-2.9409400000000003
31
0
0
ARC
5
117
100
AcDbEntity
8
0
100
AcDbCircle
10
1.4489032861429476
20
-2.7133000000000003
30
0
40
0.22764000000000015
210
0
220
0
230
1
100
AcDbArc
50
-89.999999999999943
51
0
0
LINE
5
118
100
AcDbEntity
8
0
100
AcDbLine
10
1.6765432861429477
20
-2.7133000000000003
30
0
11
1.6765432861429477
21
2.7132999999999989
31
0
0
ARC
5
119
100
AcDbEntity
8
0
100
AcDbCircle
10
1.4489032861429476
20
2.7132999999999989
30
0
40
0.22763999999999998
210
0
220
0
230
1
100
AcDbArc
50
0
51
90
0
LINE
5
120
100
AcDbEntity
8
0
100
AcDbLine
10
1.4489032861429476
20
2.940939999999999
30
0
11
-1.7328867694445067
21
2.9409399999999981
31
0
0
ARC
5
121
100
AcDbEntity
8
0
100
AcDbCircle
10
-1.7328867694445069
20
3.1969299999999983
30
0
40
0.25598999999999988
210
0
220
0
230
1
100
AcDbArc
50
221.33469045310889
51
270.00000000000006
0
ARC
5
122
100
AcDbEntity
8
0
100
AcDbCircle
10
-2.1173143195725057
20
2.8587895275590554
30
0
40
0.25598999999999911
210
0
220
-0
230
1
100
AcDbArc
50
41.334690453108962
51
90.000000000000199
0
LINE
5
123
100
AcDbEntity
8
0
100
AcDbLine
10
-2.1173143195725066
20
3.1147795275590546
30
0
11
-2.3026298755222188
21
3.1147795275590551
31
0
0
LINE
5
124
100
AcDbEntity
8
0
100
AcDbLine
10
-2.3026298755222183
20
3.1147799999999983
30
0
11
-3.063653043746533
21
3.1147799999999983
31
0
0
ARC
5
125
100
AcDbEntity
8
0
100
AcDbCircle
10
-3.063653043746533
20
1.6780999999999942
30
0
40
1.4366800000000044
210
0
220
-0
230
1
100
AcDbArc
50
90
51
111.55641763152792
0
LINE
5
126
100
AcDbEntity
8
0
100
AcDbLine
10
-3.5915139957717779
20
3.0142931887743623
30
0
11
-8.8674170786972297
21
0.93005623296375362
31
0
0
ARC
5
127
100
AcDbEntity
8
0
100
AcDbCircle
10
-8.4999998723428227
20
1.8576566356916988e-16
30
0
40
1.000000000000002
210
0
220
0
230
1
100
AcDbArc
50
111.55641763152813
51
248.44358236847205
0
LINE
5
128
100
AcDbEntity
8
0
100
AcDbLine
10
-8.8674170786972262
20
-0.93005623296375139
30
0
11
-3.5915139957717783
21
-3.014293188774364
31
0
0
CIRCLE
5
129
100
AcDbEntity
8
0
100
AcDbCircle
10
-8.4999998723428227
20
1.8576566356916988e-16
30
0
40
0.19000000000000056
210
0
220
-0
230
1
0
ENDSEC
0
SECTION
2
OBJECTS
0
DICTIONARY
5
C
100
AcDbDictionary
3
ACAD_GROUP
350
D
3
ACAD_MLINESTYLE
350
17
0
DICTIONARY
5
D
100
AcDbDictionary
0
DICTIONARY
5
1A
330
C
100
AcDbDictionary
0
DICTIONARY
5
17
100
AcDbDictionary
0
ENDSEC
0
EOF
