0
SECTION
2
HEADER
9
$INSUNITS
70
1
9
$ACADVER
1
AC1014
9
$HANDSEED
5
FFFF
0
ENDSEC
0
SECTION
2
TABLES
0
TABLE
2
VPORT
5
8
100
AcDbSymbolTable
0
ENDTAB
0
TABLE
2
LTYPE
5
5
100
AcDbSymbolTable
0
LTYPE
5
14
100
AcDbSymbolTableRecord
100
AcDbLinetypeTableRecord
2
BYBLOCK
70
0
0
LTYPE
5
15
100
AcDbSymbolTableRecord
100
AcDbLinetypeTableRecord
2
BYLAYER
70
0
0
ENDTAB
0
TABLE
2
LAYER
5
2
100
AcDbSymbolTable
70
2
0
LAYER
5
50
100
AcDbSymbolTableRecord
100
AcDbLayerTableRecord
2
0
70
0
6
CONTINUOUS
0
ENDTAB
0
TABLE
2
STYLE
5
3
100
AcDbSymbolTable
70
1
0
STYLE
5
11
100
AcDbSymbolTableRecord
100
AcDbTextStyleTableRecord
2
STANDARD
70
0
0
ENDTAB
0
TABLE
2
VIEW
5
6
100
AcDbSymbolTable
70
0
0
ENDTAB
0
TABLE
2
UCS
5
7
100
AcDbSymbolTable
70
0
0
ENDTAB
0
TABLE
2
APPID
5
9
100
AcDbSymbolTable
70
2
0
APPID
5
12
100
AcDbSymbolTableRecord
100
AcDbRegAppTableRecord
2
ACAD
70
0
0
ENDTAB
0
TABLE
2
DIMSTYLE
5
A
100
AcDbSymbolTable
70
1
0
ENDTAB
0
TABLE
2
BLOCK_RECORD
5
1
100
AcDbSymbolTable
70
1
0
BLOCK_RECORD
5
1F
100
AcDbSymbolTableRecord
100
AcDbBlockTableRecord
2
*MODEL_SPACE
0
BLOCK_RECORD
5
1B
100
AcDbSymbolTableRecord
100
AcDbBlockTableRecord
2
*PAPER_SPACE
0
ENDTAB
0
ENDSEC
0
SECTION
2
BLOCKS
0
BLOCK
5
20
100
AcDbEntity
100
AcDbBlockBegin
2
*MODEL_SPACE
0
ENDBLK
5
21
100
AcDbEntity
100
AcDbBlockEnd
0
BLOCK
5
1C
100
AcDbEntity
100
AcDbBlockBegin
2
*PAPER_SPACE
0
ENDBLK
5
1D
100
AcDbEntity
100
AcDbBlockEnd
0
ENDSEC
0
SECTION
2
ENTITIES
0
CIRCLE
5
100
100
AcDbEntity
8
0
100
AcDbCircle
10
-0.11069450536277955
20
1.2030451153999959
30
0
40
0.24999999999999994
210
0
220
-0
230
1
0
CIRCLE
5
101
100
AcDbEntity
8
0
100
AcDbCircle
10
-0.18944011996269219
20
0.15972497241351089
30
0
40
0.072047562322439723
210
0
220
-0
230
1
0
CIRCLE
5
102
100
AcDbEntity
8
0
100
AcDbCircle
10
-0.18943511992366668
20
1.7739145709664685
30
0
40
0.072047562322439723
210
0
220
-0
230
1
0
LWPOLYLINE
5
103
100
AcDbEntity
8
0
100
AcDbPolyline
90
6
70
1
43
0.0
10
-2.8832633713534359
20
-1.2849320774272706
10
-2.7071559883949803
20
-1.3889977495584702
10
-2.707157890725072
20
-1.5931233829395368
10
-2.883267194663532
20
-1.6951845349380577
10
-3.0613761859497162
20
-1.5931200818346716
10
-3.0613742836196254
20
-1.3889944484536045
0
LWPOLYLINE
5
104
100
AcDbEntity
8
0
100
AcDbPolyline
90
6
70
1
43
0.0
10
-3.2935160400617822
20
-1.2849282541152085
10
-3.1154074428882788
20
-1.38899394489654
10
-3.11540934521837
20
-1.5931195782776069
10
-3.2935198633718792
20
-1.6951807116259952
10
-3.4716284791957341
20
-1.5931162585261085
10
-3.4716265768656429
20
-1.3889906251450417
0
LWPOLYLINE
5
105
100
AcDbEntity
8
0
100
AcDbPolyline
90
6
70
1
43
0.0
10
-3.4996396431209735
20
-0.9267058910761159
10
-3.32153065183457
20
-1.0287703207131063
10
-3.3215325728147942
20
-1.234897168309222
10
-3.4996434664308516
20
-1.3369583251205073
10
-3.6757508680394393
20
-1.2348938672043566
10
-3.6757489470592151
20
-1.028767019608241
0
LWPOLYLINE
5
106
100
AcDbEntity
8
0
100
AcDbPolyline
90
6
70
1
43
0.0
10
-3.9078907221519423
20
-0.92670208641768492
10
-3.7317833205429176
20
-1.0287664974010442
10
-3.7317852415231414
20
-1.23489334499716
10
-3.9078945454618204
20
-1.3369545204620763
10
-4.0860031612854568
20
-1.2348900438957937
10
-4.086001240305233
20
-1.0287631962996779
0
LWPOLYLINE
5
107
100
AcDbEntity
8
0
100
AcDbPolyline
90
6
70
1
43
0.0
10
-4.1140143252102588
20
-0.56847962951300979
10
-3.9359057093870589
20
-0.67054415301208348
10
-3.9359076303672826
20
-0.87667100060819925
10
-4.1140181485205733
20
-0.97873211049019226
10
-4.2901255501295976
20
-0.87666769950683288
10
-4.2901236291493747
20
-0.67054085191071711
0
LWPOLYLINE
5
108
100
AcDbEntity
8
0
100
AcDbPolyline
90
6
70
1
43
0.0
10
-4.5242666184562763
20
-0.56847580620444682
10
-4.3461580026330768
20
-0.67054032970352051
10
-4.3461599236133006
20
-0.87666717729963628
10
-4.5242704417665909
20
-0.97872828718162919
10
-4.700377843375616
20
-0.87666387619826991
10
-4.7003759223953923
20
-0.67053702860215414
0
LWPOLYLINE
5
109
100
AcDbEntity
8
0
100
AcDbPolyline
90
6
70
1
43
0.0
10
-4.728388819570128
20
-0.21025355568281789
10
-4.5502802037451788
20
-0.3123178914507268
10
-4.5502821060761454
20
-0.51644361869737598
10
-4.7283926428795677
20
-0.62050594279441806
10
-4.90650124005351
20
-0.51644029894587762
10
-4.9064993377225434
20
-0.3123145716992286
0
LWPOLYLINE
5
110
100
AcDbEntity
8
0
100
AcDbPolyline
90
6
70
1
43
0.0
10
-5.1386413005473104
20
-0.21024973237250524
10
-4.9605326847223621
20
-0.31231406814041457
10
-4.9605345870533277
20
-0.51643979538706353
10
-5.1386451238567501
20
-0.62050211948410561
10
-5.314752506815644
20
-0.51643649428569716
10
-5.3147506044846766
20
-0.31231076703904814
0
LWPOLYLINE
5
111
100
AcDbEntity
8
0
100
AcDbPolyline
90
6
70
1
43
0.0
10
-5.5488937815244928
20
-0.21024590906219276
10
-5.3707851656995445
20
-0.31231024483010195
10
-5.3707870680305101
20
-0.51643597207675096
10
-5.5488976048339325
20
-0.62049829617379304
10
-5.7250051755239904
20
-0.5164326709736351
10
-5.7250032731930247
20
-0.31230694372698609
0
LWPOLYLINE
5
112
100
AcDbEntity
8
0
100
AcDbPolyline
90
6
70
1
43
0.0
10
-3.4996185472147863
20
1.3369471055796669
10
-3.3215095559275092
20
1.2348827698082585
10
-3.3215114769086069
20
1.0287558283465603
10
-3.4996223705251013
20
0.92669462460248397
10
-3.675729772133252
20
1.0287591294514258
10
-3.6757278511521529
20
1.234886070913124
0
LWPOLYLINE
5
113
100
AcDbEntity
8
0
100
AcDbPolyline
90
6
70
1
43
0.0
10
-3.7037405605974736
20
1.6951693560995464
10
-3.5256319447725248
20
1.5931050203316368
10
-3.5256338657536235
20
1.3869780788699386
10
-3.7037443839060389
20
1.2849170628535278
10
-3.8818529997309881
20
1.3869813986214372
10
-3.8818510787498899
20
1.5931083400831352
0
LWPOLYLINE
5
114
100
AcDbEntity
8
0
100
AcDbPolyline
90
6
70
1
43
0.0
10
-4.1139999061090862
20
0.97873248302678117
10
-3.9358913089360188
20
0.87466674531265842
10
-3.9358932112669858
20
0.67054101806600941
10
-4.1140037294194007
20
0.56848000204959881
10
-4.2901111310293008
20
0.670544319167376
10
-4.2901092286983351
20
0.87467004641402479
0
LWPOLYLINE
5
115
100
AcDbEntity
8
0
100
AcDbPolyline
90
6
70
1
43
0.0
10
-4.3181219194917739
20
1.3369547335466605
10
-4.1400133036668247
20
1.2348903977787513
10
-4.1400152246479225
20
1.0287634563170531
10
-4.3181257428020876
20
0.9267022525694778
10
-4.4962343586252871
20
1.0287667760685517
10
-4.4962324376441893
20
1.2348937175302497
0
LWPOLYLINE
5
116
100
AcDbEntity
8
0
100
AcDbPolyline
90
6
70
1
43
0.0
10
-4.7283810959241022
20
0.61851645852593262
10
-4.5502724801009036
20
0.51645193502685915
10
-4.5502743824301204
20
0.31232639551137459
10
-4.7283849005842855
20
0.21026519176379926
10
-4.906493516407485
20
0.31232971526287312
10
-4.9064916140782673
20
0.5164552547783573
0
LWPOLYLINE
5
117
100
AcDbEntity
8
0
100
AcDbPolyline
90
6
70
1
43
0.0
10
-4.9325034661172378
20
0.97874011099552471
10
-4.7563958954280547
20
0.87467439192978413
10
-4.7563977977590213
20
0.67054866468313545
10
-4.9325072894275523
20
0.56848763001834224
10
-5.1106159052525006
20
0.67055196578625109
10
-5.110614002921535
20
0.87467769303290033
0
LWPOLYLINE
5
118
100
AcDbEntity
8
0
100
AcDbPolyline
90
6
70
1
43
0.0
10
-5.3427557593632553
20
0.97874393430408768
10
-5.1646471621901879
20
0.87467819658996471
10
-5.1646490645211545
20
0.67055246934331569
10
-5.3427595826735699
20
0.56849145332690498
10
-5.520868386229683
20
0.67055578909656388
10
-5.5208664838987174
20
0.87468151634321289
0
LWPOLYLINE
5
119
100
AcDbEntity
8
0
100
AcDbPolyline
90
6
70
1
43
0.0
10
-5.1386335769012854
20
0.6185202818362453
10
-4.9605249610780859
20
0.51645575833717139
10
-4.9605268634073028
20
0.31233021882168721
10
-5.1386373815614679
20
0.21026901507411186
10
-5.3147447831696182
20
0.31233351992305336
10
-5.3147428808404014
20
0.51645905943853798
0
LWPOLYLINE
5
120
100
AcDbEntity
8
0
100
AcDbPolyline
90
6
70
1
43
0.0
10
-4.7283744004689554
20
1.3369585568569735
10
-4.5502657846440071
20
1.2348942210890634
10
-4.5502677056251057
20
1.0287672796273657
10
-4.7283782237792709
20
0.92670607587979048
10
-4.9064868396024695
20
1.0287705993788643
10
-4.9064849186213717
20
1.2348975408405622
0
LWPOLYLINE
5
121
100
AcDbEntity
8
0
100
AcDbPolyline
90
6
70
1
43
0.0
10
-4.5242521993551046
20
0.97873630633534403
10
-4.3461436021820372
20
0.87467056862122128
10
-4.3461455045130037
20
0.67054484137457226
10
-4.5242560226654192
20
0.56848382535816155
10
-4.7003634242753192
20
0.67054814247593886
10
-4.7003615219443518
20
0.87467386972258765
0
LWPOLYLINE
5
122
100
AcDbEntity
8
0
100
AcDbPolyline
90
6
70
1
43
0.0
10
-4.1139932293058203
20
1.6951731794116085
10
-3.935884613480872
20
1.5931088436436989
10
-3.9358865344619711
20
1.3869819021820007
10
-4.1139970526143861
20
1.2849208861655899
10
-4.2901044542242861
20
1.3869852032833672
10
-4.2901025332431884
20
1.5931121447450654
0
LWPOLYLINE
5
123
100
AcDbEntity
8
0
100
AcDbPolyline
90
6
70
1
43
0.0
10
-3.9078696262457555
20
1.3369509102380972
10
-3.7317622246358559
20
1.2348865931203201
10
-3.7317641456169541
20
1.0287596516586224
10
-3.9078734495560701
20
0.92669842926091506
10
-4.0859820653792696
20
1.0287629527599886
10
-4.0859801443981709
20
1.2348898942216868
0
LWPOLYLINE
5
124
100
AcDbEntity
8
0
100
AcDbPolyline
90
6
70
1
43
0.0
10
-3.2934882673514556
20
1.6951655327909831
10
-3.1153796515265073
20
1.5931011970230737
10
-3.1153815725076055
20
1.3869742555613762
10
-3.2934920906600209
20
1.2849132395449654
10
-3.4716007064849701
20
1.3869775753128739
10
-3.4715987855038719
20
1.5931045167745721
0
LWPOLYLINE
5
125
100
AcDbEntity
8
0
100
AcDbPolyline
90
6
70
1
43
0.0
10
-2.8832355986431089
20
1.6951617094789215
10
-2.7071281970332088
20
1.593097392361144
10
-2.7071301180143075
20
1.386970450899446
10
-2.8832394219516742
20
1.2849094162329033
10
-3.0613484132389526
20
1.3869737520043108
10
-3.0613464922578544
20
1.5931006934660095
0
LWPOLYLINE
5
126
100
AcDbEntity
8
0
100
AcDbPolyline
90
6
70
1
43
0.0
10
-5.5488860578784678
20
0.61852410514655776
10
-5.3707774420552683
20
0.51645958164748407
10
-5.3707793443844851
20
0.31233404213199945
10
-5.5488898625386502
20
0.21027283838442412
10
-5.7249974518779645
20
0.31233734323511553
10
-5.7249955495487486
20
0.51646288275060004
0
LWPOLYLINE
5
127
100
AcDbEntity
8
0
100
AcDbPolyline
90
6
70
1
43
0.0
10
-5.342770178464427
20
-0.5684681782357035
10
-5.1646615626412284
20
-0.67053270173477708
10
-5.1646634836214513
20
-0.87665954933089274
10
-5.3427740017747416
20
-0.97872065921288576
10
-5.5208828053299808
20
-0.87665622957764477
10
-5.5208808843497579
20
-0.67052938198152923
0
LWPOLYLINE
5
128
100
AcDbEntity
8
0
100
AcDbPolyline
90
6
70
1
43
0.0
10
-4.9325178852184095
20
-0.56847200154426636
10
-4.7564102958790944
20
-0.67053650639495754
10
-4.7564122168593181
20
-0.87666335399107342
10
-4.9325217085287241
20
-0.97872448252144895
10
-5.1106303243527984
20
-0.87666005288795745
10
-5.1106284033725755
20
-0.67053320529184168
0
LWPOLYLINE
5
129
100
AcDbEntity
8
0
100
AcDbPolyline
90
6
70
1
43
0.0
10
-4.7283954963751418
20
-0.9266944397988095
10
-4.5502868805510692
20
-1.0287588694323009
10
-4.5502888015312921
20
-1.2348857170284167
10
-4.7283993196850203
20
-1.3369468738432007
10
-4.9065079355086567
20
-1.2348823972769183
10
-4.9065060145284329
20
-1.0287555496808025
0
LWPOLYLINE
5
130
100
AcDbEntity
8
0
100
AcDbPolyline
90
6
70
1
43
0.0
10
-4.3181430153979603
20
-0.92669826310912184
10
-4.1400343995738851
20
-1.0287626927426132
10
-4.1400363205541097
20
-1.234889540338729
10
-4.3181468387078379
20
-1.3369506971535132
10
-4.4962554545314735
20
-1.2348862205872309
10
-4.4962535335512515
20
-1.0287593729911149
0
LWPOLYLINE
5
131
100
AcDbEntity
8
0
100
AcDbPolyline
90
6
70
1
43
0.0
10
-4.1140210020161474
20
-1.2849206074945836
10
-3.9359124048426435
20
-1.3889862982759151
10
-3.9359143071727352
20
-1.5931119316569819
10
-4.1140248253262444
20
-1.6951730650053707
10
-4.2901322269350493
20
-1.5931086305556157
10
-4.2901303246049594
20
-1.3889829971745489
0
LWPOLYLINE
5
132
100
AcDbEntity
8
0
100
AcDbPolyline
90
6
70
1
43
0.0
10
-3.7037683333078002
20
-1.2849244308066456
10
-3.5256597361342967
20
-1.3889901215879772
10
-3.525661638464388
20
-1.593115754969044
10
-3.7037721566178972
20
-1.6951768883174327
10
-3.8818807724417521
20
-1.5931124352175452
10
-3.8818788701116609
20
-1.3889868018364788
0
CIRCLE
5
133
100
AcDbEntity
8
0
100
AcDbCircle
10
0.90871798337867948
20
0
30
0
40
0.099999999999999992
210
0
220
-0
230
1
0
CIRCLE
5
134
100
AcDbEntity
8
0
100
AcDbCircle
10
-5.2908914904416644
20
1.3999999999999997
30
0
40
0.099999999999999811
210
0
220
-0
230
1
0
CIRCLE
5
135
100
AcDbEntity
8
0
100
AcDbCircle
10
-5.2908914904416644
20
0
30
0
40
0.099999999999999811
210
0
220
-0
230
1
0
CIRCLE
5
136
100
AcDbEntity
8
0
100
AcDbCircle
10
-2.0345025677172126
20
-1.7500000000000007
30
0
40
0.099999999999999811
210
0
220
-0
230
1
0
CIRCLE
5
137
100
AcDbEntity
8
0
100
AcDbCircle
10
0.90871798337867948
20
1.75
30
0
40
0.099999999999999992
210
0
220
-0
230
1
0
CIRCLE
5
138
100
AcDbEntity
8
0
100
AcDbCircle
10
-5.2908914904416644
20
-1.3999999999999997
30
0
40
0.099999999999999811
210
0
220
-0
230
1
0
CIRCLE
5
139
100
AcDbEntity
8
0
100
AcDbCircle
10
-2.0345025677172139
20
1.7499999999999993
30
0
40
0.099999999999999811
210
0
220
-0
230
1
0
CIRCLE
5
140
100
AcDbEntity
8
0
100
AcDbCircle
10
0.90871798337867948
20
-1.75
30
0
40
0.099999999999999992
210
0
220
-0
230
1
0
CIRCLE
5
141
100
AcDbEntity
8
0
100
AcDbCircle
10
-3.4588771111043375
20
0.34798562066267102
30
0
40
0.062499999999999799
210
0
220
-0
230
1
0
CIRCLE
5
142
100
AcDbEntity
8
0
100
AcDbCircle
10
-3.1108914904416665
20
-7.855674365533722e-18
30
0
40
0.18750000000000008
210
0
220
-0
230
1
0
CIRCLE
5
143
100
AcDbEntity
8
0
100
AcDbCircle
10
-2.7629058697789954
20
0.34798562066267097
30
0
40
0.062500000000000153
210
0
220
-0
230
1
0
CIRCLE
5
144
100
AcDbEntity
8
0
100
AcDbCircle
10
-3.4588771111043375
20
-0.34798562066267102
30
0
40
0.062499999999999799
210
0
220
-0
230
1
0
CIRCLE
5
145
100
AcDbEntity
8
0
100
AcDbCircle
10
-2.7629058697789954
20
-0.34798562066267108
30
0
40
0.062500000000000153
210
0
220
-0
230
1
0
CIRCLE
5
146
100
AcDbEntity
8
0
100
AcDbCircle
10
-8.5408914904416644
20
0
30
0
40
0.19000000000000056
210
0
220
-0
230
1
0
LWPOLYLINE
5
147
100
AcDbEntity
8
0
100
AcDbPolyline
90
18
70
1
43
0.0
10
-2.6939516759731865
20
-2.3153181646850562
42
0.054390801297790163
10
-2.3841434205195977
20
-2.3491195999999994
10
-1.6925864979282188
20
-2.3491195999999999
10
-1.5381798207273771
20
-2.3491192125984264
42
0.22335194105058814
10
-1.3865874574577695
20
-2.2778472015789997
42
-0.22335194105058725
10
-1.2349950941881618
20
-2.2065748031580004
10
0.95155549463721645
20
-2.2065748031579999
42
0.41421356237309459
10
1.1791954946372163
20
-1.9789348031580001
10
1.1791954946372167
20
1.9789348031579987
42
0.41421356237309437
10
0.95155549463721645
20
2.206574803157999
10
-1.3102334023368261
20
2.2065748031579986
42
-0.22335160567113635
10
-1.4618256051459226
20
2.2778470078782123
42
0.22335160567113901
10
-1.6134178079550197
20
2.3491192125984259
10
-1.6925864979282192
20
2.3491192125984259
10
-2.384145174757434
20
2.3491195999999994
42
0.054390801297789386
10
-2.6939534302110228
20
2.3153177772834823
10
-8.7565332864251761
20
0.97647253715862736
42
0.80325679849516174
10
-8.7565332864251832
20
-0.9764725371586247
0
ENDSEC
0
SECTION
2
OBJECTS
0
DICTIONARY
5
C
100
AcDbDictionary
3
ACAD_GROUP
350
D
3
ACAD_MLINESTYLE
350
17
0
DICTIONARY
5
D
100
AcDbDictionary
0
DICTIONARY
5
1A
330
C
100
AcDbDictionary
0
DICTIONARY
5
17
100
AcDbDictionary
0
ENDSEC
0
EOF
