0
SECTION
2
HEADER
9
$INSUNITS
70
1
9
$ACADVER
1
AC1014
9
$HANDSEED
5
FFFF
0
ENDSEC
0
SECTION
2
TABLES
0
TABLE
2
VPORT
5
8
100
AcDbSymbolTable
0
ENDTAB
0
TABLE
2
LTYPE
5
5
100
AcDbSymbolTable
0
LTYPE
5
14
100
AcDbSymbolTableRecord
100
AcDbLinetypeTableRecord
2
BYBLOCK
70
0
0
LTYPE
5
15
100
AcDbSymbolTableRecord
100
AcDbLinetypeTableRecord
2
BYLAYER
70
0
0
ENDTAB
0
TABLE
2
LAYER
5
2
100
AcDbSymbolTable
70
2
0
LAYER
5
50
100
AcDbSymbolTableRecord
100
AcDbLayerTableRecord
2
0
70
0
6
CONTINUOUS
0
ENDTAB
0
TABLE
2
STYLE
5
3
100
AcDbSymbolTable
70
1
0
STYLE
5
11
100
AcDbSymbolTableRecord
100
AcDbTextStyleTableRecord
2
STANDARD
70
0
0
ENDTAB
0
TABLE
2
VIEW
5
6
100
AcDbSymbolTable
70
0
0
ENDTAB
0
TABLE
2
UCS
5
7
100
AcDbSymbolTable
70
0
0
ENDTAB
0
TABLE
2
APPID
5
9
100
AcDbSymbolTable
70
2
0
APPID
5
12
100
AcDbSymbolTableRecord
100
AcDbRegAppTableRecord
2
ACAD
70
0
0
ENDTAB
0
TABLE
2
DIMSTYLE
5
A
100
AcDbSymbolTable
70
1
0
ENDTAB
0
TABLE
2
BLOCK_RECORD
5
1
100
AcDbSymbolTable
70
1
0
BLOCK_RECORD
5
1F
100
AcDbSymbolTableRecord
100
AcDbBlockTableRecord
2
*MODEL_SPACE
0
BLOCK_RECORD
5
1B
100
AcDbSymbolTableRecord
100
AcDbBlockTableRecord
2
*PAPER_SPACE
0
ENDTAB
0
ENDSEC
0
SECTION
2
BLOCKS
0
BLOCK
5
20
100
AcDbEntity
100
AcDbBlockBegin
2
*MODEL_SPACE
0
ENDBLK
5
21
100
AcDbEntity
100
AcDbBlockEnd
0
BLOCK
5
1C
100
AcDbEntity
100
AcDbBlockBegin
2
*PAPER_SPACE
0
ENDBLK
5
1D
100
AcDbEntity
100
AcDbBlockEnd
0
ENDSEC
0
SECTION
2
ENTITIES
0
CIRCLE
5
100
100
AcDbEntity
8
0
100
AcDbCircle
10
0.28124999999999972
20
-0.48713928962874703
30
0
40
0.084999999999999978
210
0
220
0
230
1
0
LWPOLYLINE
5
101
100
AcDbEntity
8
0
100
AcDbPolyline
90
36
70
1
43
0.0
10
-0.42213928962874642
20
0.39383330249197723
42
1.0000000105367122
10
-0.55213928725623096
20
0.16866669613825086
10
-0.4701851428668134
20
0.12135044881381517
42
-0.27212390124430197
10
-0.40495094838666568
20
0.0063031262671858629
42
0.0077821086323028735
10
-0.40495094838666545
20
-0.0063031262671848429
42
-0.27212390124430325
10
-0.4701851428668134
20
-0.12135044881381479
10
-0.55213928962874659
20
-0.16866669750802296
42
0.99999999999999989
10
-0.42213928962874703
20
-0.39383330249197696
10
-0.34018514286681356
20
-0.34651705379776865
42
-0.27212390124430147
10
-0.20793414166397672
20
-0.34754624545586077
42
0.0077821086323100084
10
-0.19701680672268967
20
-0.35384937172304604
42
-0.2721239012443028
10
-0.12999999999999995
20
-0.46786750261158339
10
-0.12999999999999992
20
-0.56250000000000011
42
0.99999999999999989
10
0.12999999999999995
20
-0.56250000000000011
10
0.12999999999999978
20
-0.4678675026115835
42
-0.27212390124430169
10
0.19701680672268915
20
-0.35384937172304626
42
0.0077821086323144675
10
0.20793414166397378
20
-0.34754624545586238
42
-0.27212390124430741
10
0.34018514286681323
20
-0.34651705379776876
10
0.42213928962874664
20
-0.39383330249197723
42
1.0000000074505806
10
0.55213928962874681
20
-0.16866669750802338
10
0.47018514286681329
20
-0.121350448813815
42
-0.27212390124430136
10
0.40495094838666568
20
-0.006303126267185993
42
0.0077821086323117926
10
0.40495094838666557
20
0.0063031262671846893
42
-0.27212390124430352
10
0.47018514286681345
20
0.12135044881381468
10
0.5521392896287467
20
0.16866669750802277
42
0.99999999999999989
10
0.42213928962874714
20
0.3938333024919769
10
0.34018514286681356
20
0.34651705379776876
42
-0.27212390124430147
10
0.20793414166397667
20
0.34754624545586071
42
0.0077821086323046577
10
0.19701680672268704
20
0.35384937172304748
42
-0.27212390124429692
10
0.12999999999999989
20
0.4678675026115835
10
0.12999999999999989
20
0.56249999999999989
42
0.99999999999999989
10
-0.12999999999999989
20
0.56249999999999989
10
-0.12999999999999998
20
0.46786750261158339
42
-0.27212390124430125
10
-0.19701680672268901
20
0.35384937172304642
42
0.0077821086322984144
10
-0.20793414166397842
20
0.34754624545585949
42
-0.27212390124429608
10
-0.34018514286681323
20
0.34651705379776876
0
CIRCLE
5
102
100
AcDbEntity
8
0
100
AcDbCircle
10
0.56249999999999989
20
-5.2452385169590263e-16
30
0
40
0.084999999999999978
210
0
220
0
230
1
0
CIRCLE
5
103
100
AcDbEntity
8
0
100
AcDbCircle
10
-0.28125000000000017
20
-0.48713928962874653
30
0
40
0.084999999999999978
210
0
220
0
230
1
0
CIRCLE
5
104
100
AcDbEntity
8
0
100
AcDbCircle
10
-0.28124999999999978
20
0.48713928962874686
30
0
40
0.084999999999999978
210
0
220
0
230
1
0
CIRCLE
5
105
100
AcDbEntity
8
0
100
AcDbCircle
10
0.28125000000000056
20
0.48713928962874636
30
0
40
0.084999999999999978
210
0
220
0
230
1
0
CIRCLE
5
106
100
AcDbEntity
8
0
100
AcDbCircle
10
-0.56249999999999989
20
2.1852955792556852e-16
30
0
40
0.084999999999999978
210
0
220
0
230
1
0
LWPOLYLINE
5
107
100
AcDbEntity
8
0
100
AcDbPolyline
90
7
70
1
43
0.0
10
-0.097810290360869426
20
2.3597562697686199
42
0.20183970770826498
10
-0.31035098459340799
20
2.5583866297255864
42
0.52189800436591938
10
-0.40624999999999911
20
2.4915361357895982
10
-0.40624999999999956
20
1.0175222663411352
42
0.51075253711206003
10
-0.3127187864643764
20
0.94984575621099221
42
-0.13650253349710256
10
0.22271862755071833
20
0.97488276881988467
42
0.53967119228559868
10
0.30863309568822533
20
1.0573874436194146
42
0.059262351855691897
0
LWPOLYLINE
5
108
100
AcDbEntity
8
0
100
AcDbPolyline
90
7
70
1
43
0.0
10
0.097810290360869606
20
-2.3597562697686185
42
0.20183970770826473
10
0.31035098459340793
20
-2.5583866297255855
42
0.52189800436592027
10
0.4062499999999995
20
-2.4915361357895969
10
0.40624999999999972
20
-1.0175222663411352
42
0.51075253711206137
10
0.31271878646444368
20
-0.94984575621119782
42
-0.13650253349720942
10
-0.22271862755071839
20
-0.97488276881988434
42
0.5396711922856009
10
-0.30863309568822395
20
-1.0573874436194146
42
0.059262351855691182
0
LWPOLYLINE
5
109
100
AcDbEntity
8
0
100
AcDbPolyline
90
14
70
1
43
0.0
10
-0.24446206390636099
20
-2.5129706147379034
42
0.350019615309827
10
0.58677685950413316
20
-2.9420558997324409
42
0.016649630551122944
10
0.78124999999999944
20
-2.8964889845293733
10
0.78124999999999889
20
-1.1541862663799127
42
-0.09392768912464565
10
0.93064978378583996
20
-0.36591116399936308
42
0.2144900807121343
10
0.89132214880009608
20
0.45337051851479737
42
-0.074509013301464685
10
0.68937810956269718
20
1.0591027561050659
42
0.062037321567800854
10
0.24446206390635969
20
2.5129706147379038
42
0.35001961530982723
10
-0.58677685950413339
20
2.9420558997324417
42
0.016649630551117522
10
-0.78124999999999911
20
2.8964889845293733
10
-0.78124999999999889
20
1.1541862663799127
42
-0.09392768912464565
10
-0.93064978378583996
20
0.36591116399936291
42
0.21449008071204753
10
-0.89132214880009653
20
-0.45337051851479615
42
-0.074509013301464797
10
-0.68937810956269718
20
-1.0591027561050654
42
0.062037321567800514
0
ENDSEC
0
SECTION
2
OBJECTS
0
DICTIONARY
5
C
100
AcDbDictionary
3
ACAD_GROUP
350
D
3
ACAD_MLINESTYLE
350
17
0
DICTIONARY
5
D
100
AcDbDictionary
0
DICTIONARY
5
1A
330
C
100
AcDbDictionary
0
DICTIONARY
5
17
100
AcDbDictionary
0
ENDSEC
0
EOF
