0
SECTION
2
HEADER
9
$INSUNITS
70
1
9
$ACADVER
1
AC1014
9
$HANDSEED
5
FFFF
0
ENDSEC
0
SECTION
2
TABLES
0
TABLE
2
VPORT
5
8
100
AcDbSymbolTable
0
ENDTAB
0
TABLE
2
LTYPE
5
5
100
AcDbSymbolTable
0
LTYPE
5
14
100
AcDbSymbolTableRecord
100
AcDbLinetypeTableRecord
2
BYBLOCK
70
0
0
LTYPE
5
15
100
AcDbSymbolTableRecord
100
AcDbLinetypeTableRecord
2
BYLAYER
70
0
0
ENDTAB
0
TABLE
2
LAYER
5
2
100
AcDbSymbolTable
70
2
0
LAYER
5
50
100
AcDbSymbolTableRecord
100
AcDbLayerTableRecord
2
0
70
0
6
CONTINUOUS
0
ENDTAB
0
TABLE
2
STYLE
5
3
100
AcDbSymbolTable
70
1
0
STYLE
5
11
100
AcDbSymbolTableRecord
100
AcDbTextStyleTableRecord
2
STANDARD
70
0
0
ENDTAB
0
TABLE
2
VIEW
5
6
100
AcDbSymbolTable
70
0
0
ENDTAB
0
TABLE
2
UCS
5
7
100
AcDbSymbolTable
70
0
0
ENDTAB
0
TABLE
2
APPID
5
9
100
AcDbSymbolTable
70
2
0
APPID
5
12
100
AcDbSymbolTableRecord
100
AcDbRegAppTableRecord
2
ACAD
70
0
0
ENDTAB
0
TABLE
2
DIMSTYLE
5
A
100
AcDbSymbolTable
70
1
0
ENDTAB
0
TABLE
2
BLOCK_RECORD
5
1
100
AcDbSymbolTable
70
1
0
BLOCK_RECORD
5
1F
100
AcDbSymbolTableRecord
100
AcDbBlockTableRecord
2
*MODEL_SPACE
0
BLOCK_RECORD
5
1B
100
AcDbSymbolTableRecord
100
AcDbBlockTableRecord
2
*PAPER_SPACE
0
ENDTAB
0
ENDSEC
0
SECTION
2
BLOCKS
0
BLOCK
5
20
100
AcDbEntity
100
AcDbBlockBegin
2
*MODEL_SPACE
0
ENDBLK
5
21
100
AcDbEntity
100
AcDbBlockEnd
0
BLOCK
5
1C
100
AcDbEntity
100
AcDbBlockBegin
2
*PAPER_SPACE
0
ENDBLK
5
1D
100
AcDbEntity
100
AcDbBlockEnd
0
ENDSEC
0
SECTION
2
ENTITIES
0
CIRCLE
5
100
100
AcDbEntity
8
0
100
AcDbCircle
10
4.0801270189221883
20
-4.8080524688491025e-16
30
0
40
0.099999999999999811
210
0
220
0
230
1
0
CIRCLE
5
101
100
AcDbEntity
8
0
100
AcDbCircle
10
-4.0801270189221883
20
-4.8080524688491025e-16
30
0
40
0.099999999999999811
210
0
220
0
230
1
0
LWPOLYLINE
5
102
100
AcDbEntity
8
0
100
AcDbPolyline
90
24
70
1
43
0.0
10
1.2810889132455299
20
-3.7499999999999978
42
0.13165249758739186
10
1.5310889132455301
20
-3.6830127018922165
10
2.4240381056766536
20
-3.1674682452694487
42
0.13165249758739678
10
2.6070508075688723
20
-2.9844555433772295
10
3.8881397208144084
20
-0.76554445662276838
42
0.13165249758738948
10
3.9551270189221888
20
-0.5155444566227676
10
3.9551270189221879
20
0.51554445662276793
42
0.13165249758739508
10
3.8881397208144075
20
0.76554445662276693
10
2.6070508075688759
20
2.9844555433772282
42
0.13165249758739095
10
2.4240381056766567
20
3.1674682452694469
10
1.5310889132455328
20
3.6830127018922152
42
0.13165249758739417
10
1.2810889132455332
20
3.7499999999999956
10
-1.2810889132455314
20
3.7499999999999978
42
0.13165249758739225
10
-1.5310889132455319
20
3.6830127018922152
10
-2.4240381056766549
20
3.1674682452694483
42
0.13165249758739592
10
-2.6070508075688745
20
2.9844555433772295
10
-3.8881397208144084
20
0.76554445662276904
42
0.13165249758739481
10
-3.9551270189221888
20
0.51554445662276871
10
-3.9551270189221879
20
-0.51554445662276727
42
0.13165249758739542
10
-3.8881397208144084
20
-0.76554445662276693
10
-2.6070508075688763
20
-2.9844555433772273
42
0.13165249758739406
10
-2.4240381056766571
20
-3.167468245269446
10
-1.5310889132455339
20
-3.6830127018922139
42
0.13165249758739248
10
-1.2810889132455341
20
-3.7499999999999951
0
LWPOLYLINE
5
103
100
AcDbEntity
8
0
100
AcDbPolyline
90
18
70
1
43
0.0
10
-5.6058735957608228
20
0.14805715451624996
42
0.20676059457589147
10
-5.763139720814408
20
-0.21599434041848525
10
-5.763139720814408
20
-0.49324271075402537
10
-5.1831629432197124
20
-0.20717339279883162
42
-0.39519372567036976
10
-4.5289708063298439
20
-0.4055924574405137
10
-2.3815698604072066
20
-4.1249999999999938
10
2.3815698604072004
20
-4.1249999999999982
10
3.4988439957584951
20
-2.1898244315889719
42
-0.073117790609936895
10
3.6794016496501061
20
-1.9617214417195026
10
5.6058735957608228
20
-0.14805715451624929
42
0.20676059457589174
10
5.763139720814408
20
0.21599434041848647
10
5.763139720814408
20
0.49324271075402626
10
5.1831629432197124
20
0.20717339279883215
42
-0.3951937256703702
10
4.5289708063298439
20
0.40559245744051442
10
2.3815698604072066
20
4.124999999999992
10
-2.3815698604072009
20
4.1249999999999947
10
-3.4988439957584969
20
2.1898244315889706
42
-0.07311779060993466
10
-3.6794016496501061
20
1.9617214417195028
0
ENDSEC
0
SECTION
2
OBJECTS
0
DICTIONARY
5
C
100
AcDbDictionary
3
ACAD_GROUP
350
D
3
ACAD_MLINESTYLE
350
17
0
DICTIONARY
5
D
100
AcDbDictionary
0
DICTIONARY
5
1A
330
C
100
AcDbDictionary
0
DICTIONARY
5
17
100
AcDbDictionary
0
ENDSEC
0
EOF
