0
SECTION
2
HEADER
9
$INSUNITS
70
4
9
$ACADVER
1
AC1014
9
$HANDSEED
5
FFFF
0
ENDSEC
0
SECTION
2
TABLES
0
TABLE
2
VPORT
5
8
100
AcDbSymbolTable
0
ENDTAB
0
TABLE
2
LTYPE
5
5
100
AcDbSymbolTable
0
LTYPE
5
14
100
AcDbSymbolTableRecord
100
AcDbLinetypeTableRecord
2
BYBLOCK
70
0
0
LTYPE
5
15
100
AcDbSymbolTableRecord
100
AcDbLinetypeTableRecord
2
BYLAYER
70
0
0
ENDTAB
0
TABLE
2
LAYER
5
2
100
AcDbSymbolTable
70
2
0
LAYER
5
50
100
AcDbSymbolTableRecord
100
AcDbLayerTableRecord
2
0
70
0
6
CONTINUOUS
0
ENDTAB
0
TABLE
2
STYLE
5
3
100
AcDbSymbolTable
70
1
0
STYLE
5
11
100
AcDbSymbolTableRecord
100
AcDbTextStyleTableRecord
2
STANDARD
70
0
0
ENDTAB
0
TABLE
2
VIEW
5
6
100
AcDbSymbolTable
70
0
0
ENDTAB
0
TABLE
2
UCS
5
7
100
AcDbSymbolTable
70
0
0
ENDTAB
0
TABLE
2
APPID
5
9
100
AcDbSymbolTable
70
2
0
APPID
5
12
100
AcDbSymbolTableRecord
100
AcDbRegAppTableRecord
2
ACAD
70
0
0
ENDTAB
0
TABLE
2
DIMSTYLE
5
A
100
AcDbSymbolTable
70
1
0
ENDTAB
0
TABLE
2
BLOCK_RECORD
5
1
100
AcDbSymbolTable
70
1
0
BLOCK_RECORD
5
1F
100
AcDbSymbolTableRecord
100
AcDbBlockTableRecord
2
*MODEL_SPACE
0
BLOCK_RECORD
5
1B
100
AcDbSymbolTableRecord
100
AcDbBlockTableRecord
2
*PAPER_SPACE
0
ENDTAB
0
ENDSEC
0
SECTION
2
BLOCKS
0
BLOCK
5
20
100
AcDbEntity
100
AcDbBlockBegin
2
*MODEL_SPACE
0
ENDBLK
5
21
100
AcDbEntity
100
AcDbBlockEnd
0
BLOCK
5
1C
100
AcDbEntity
100
AcDbBlockBegin
2
*PAPER_SPACE
0
ENDBLK
5
1D
100
AcDbEntity
100
AcDbBlockEnd
0
ENDSEC
0
SECTION
2
ENTITIES
0
LWPOLYLINE
5
100
100
AcDbEntity
8
0
100
AcDbPolyline
90
60
70
1
43
0.0
10
28.000000000000004
20
0
10
29.732137494637023
20
3.9999999999999929
10
27.816523036502176
20
3.2001634582852083
42
0.073762110275839399
10
25.689897323708561
20
11.136838667113377
10
27.748786379167484
20
11.401967132180735
10
24.248711305964296
20
13.999999999999982
10
23.748786379167491
20
18.330170362456247
10
22.489733865423339
20
16.679684369388724
42
0.073762110275839787
10
16.679684369388777
20
22.489733865423304
10
18.330170362456283
20
23.74878637916747
10
14.000000000000014
20
24.248711305964278
10
11.401967132180772
20
27.74878637916747
10
11.136838667113443
20
25.689897323708539
42
0.073762110275839593
10
3.2001634582852514
20
27.816523036502169
10
4.0000000000000018
20
29.73213749463703
10
1.6653345369377348e-15
20
28.000000000000004
10
-3.9999999999999987
20
29.732137494637023
10
-3.2001634582852141
20
27.816523036502176
42
0.073762110275839787
10
-11.136838667113407
20
25.689897323708554
10
-11.401967132180754
20
27.74878637916748
10
-13.999999999999995
20
24.248711305964289
10
-18.330170362456265
20
23.748786379167477
10
-16.679684369388742
20
22.489733865423332
42
0.073762110275839787
10
-22.489733865423311
20
16.679684369388767
10
-23.748786379167473
20
18.330170362456272
10
-24.248711305964289
20
14
10
-27.748786379167477
20
11.401967132180761
10
-25.689897323708539
20
11.136838667113437
42
0.07376211027583969
10
-27.816523036502169
20
3.200163458285247
10
-29.732137494637026
20
4.0000000000000027
10
-28.000000000000004
20
3.3306690738754696e-15
10
-29.732137494637023
20
-3.9999999999999973
10
-27.816523036502176
20
-3.2001634582852061
42
0.073762110275839884
10
-25.689897323708557
20
-11.1368386671134
10
-27.748786379167477
20
-11.401967132180751
10
-24.248711305964292
20
-13.999999999999988
10
-23.748786379167477
20
-18.330170362456258
10
-22.489733865423336
20
-16.679684369388749
42
0.07376211027583969
10
-16.679684369388788
20
-22.4897338654233
10
-18.330170362456279
20
-23.74878637916747
10
-14.000000000000007
20
-24.248711305964285
10
-11.401967132180769
20
-27.74878637916747
10
-11.136838667113441
20
-25.689897323708539
42
0.073762110275839593
10
-3.2001634582852514
20
-27.816523036502169
10
-4.0000000000000053
20
-29.73213749463703
10
-4.4408920985006262e-15
20
-28.000000000000004
10
3.9999999999999951
20
-29.732137494637023
10
3.2001634582852114
20
-27.816523036502176
42
0.073762110275839593
10
11.136838667113377
20
-25.689897323708554
10
11.401967132180745
20
-27.74878637916748
10
13.999999999999993
20
-24.248711305964289
10
18.330170362456258
20
-23.74878637916748
10
16.679684369388738
20
-22.489733865423336
42
0.073762110275839787
10
22.489733865423304
20
-16.679684369388777
10
23.74878637916747
20
-18.330170362456283
10
24.248711305964278
20
-14.000000000000011
10
27.74878637916747
20
-11.401967132180772
10
25.689897323708536
20
-11.136838667113445
42
0.073762110275839884
10
27.816523036502172
20
-3.2001634582852558
10
29.73213749463703
20
-4.0000000000000071
0
CIRCLE
5
101
100
AcDbEntity
8
0
100
AcDbCircle
10
18.836052532311534
20
10.875000000000004
30
0
40
1.8414999999999981
210
0
220
0
230
1
0
CIRCLE
5
102
100
AcDbEntity
8
0
100
AcDbCircle
10
-18.836052532311548
20
10.874999999999982
30
0
40
1.8415000000000001
210
2.4651903288156624e-32
220
0
230
1
0
CIRCLE
5
103
100
AcDbEntity
8
0
100
AcDbCircle
10
-18.836052532311534
20
-10.875000000000005
30
0
40
1.8415000000000001
210
2.4651903288156624e-32
220
0
230
1
0
CIRCLE
5
104
100
AcDbEntity
8
0
100
AcDbCircle
10
18.836052532311541
20
-10.874999999999993
30
0
40
1.8414999999999981
210
0
220
0
230
1
0
CIRCLE
5
105
100
AcDbEntity
8
0
100
AcDbCircle
10
-2.0367230629309519e-15
20
21.75
30
0
40
1.841499999999999
210
0
220
0
230
1
0
CIRCLE
5
106
100
AcDbEntity
8
0
100
AcDbCircle
10
4.9050135080126477e-15
20
-21.75
30
0
40
1.841499999999999
210
0
220
0
230
1
0
LWPOLYLINE
5
107
100
AcDbEntity
8
0
100
AcDbPolyline
90
24
70
1
43
0.0
10
-22.392373701776251
20
7.6249999999999822
42
0.1655903341932802
10
-22.392373701776236
20
-7.6250000000000071
10
-18.836052532311545
20
-7.6250000000000009
42
-0.57735026918962673
10
-16.021469970012106
20
-12.500000000000009
10
-17.799630554744461
20
-15.579864476772826
42
0.16559033419328026
10
-4.5927431470317712
20
-23.204864476772809
10
-2.8145825622994258
20
-20.125000000000007
42
-0.57735026918962673
10
2.8145825622994303
20
-20.124999999999996
10
4.5927431470317783
20
-23.204864476772819
42
0.16559033419328043
10
17.799630554744464
20
-15.579864476772801
10
16.02146997001212
20
-12.500000000000002
42
-0.57735026918962729
10
18.836052532311541
20
-7.6249999999999929
10
22.392373701776243
20
-7.6249999999999831
42
0.16559033419328026
10
22.392373701776233
20
7.6250000000000036
10
18.836052584517301
20
7.6250000000000036
42
-0.57735027454406307
10
16.021469970012109
20
12.500000000000002
10
17.799630554744461
20
15.579864476772823
42
0.16559033419328031
10
4.5927431470317748
20
23.204864476772809
10
2.8145825622994303
20
20.125
42
-0.57735026918962673
10
-2.8145825622994289
20
20.124999999999996
10
-4.5927431470317766
20
23.204864476772819
42
0.16559033419328062
10
-17.799630554744482
20
15.579864476772798
10
-16.021469970012131
20
12.499999999999991
42
-0.57735026918962706
10
-18.836052532311548
20
7.6249999999999822
0
ENDSEC
0
SECTION
2
OBJECTS
0
DICTIONARY
5
C
100
AcDbDictionary
3
ACAD_GROUP
350
D
3
ACAD_MLINESTYLE
350
17
0
DICTIONARY
5
D
100
AcDbDictionary
0
DICTIONARY
5
1A
330
C
100
AcDbDictionary
0
DICTIONARY
5
17
100
AcDbDictionary
0
ENDSEC
0
EOF
