0
SECTION
2
HEADER
9
$INSUNITS
70
4
9
$ACADVER
1
AC1014
9
$HANDSEED
5
FFFF
0
ENDSEC
0
SECTION
2
TABLES
0
TABLE
2
VPORT
5
8
100
AcDbSymbolTable
0
ENDTAB
0
TABLE
2
LTYPE
5
5
100
AcDbSymbolTable
0
LTYPE
5
14
100
AcDbSymbolTableRecord
100
AcDbLinetypeTableRecord
2
BYBLOCK
70
0
0
LTYPE
5
15
100
AcDbSymbolTableRecord
100
AcDbLinetypeTableRecord
2
BYLAYER
70
0
0
ENDTAB
0
TABLE
2
LAYER
5
2
100
AcDbSymbolTable
70
2
0
LAYER
5
50
100
AcDbSymbolTableRecord
100
AcDbLayerTableRecord
2
0
70
0
6
CONTINUOUS
0
ENDTAB
0
TABLE
2
STYLE
5
3
100
AcDbSymbolTable
70
1
0
STYLE
5
11
100
AcDbSymbolTableRecord
100
AcDbTextStyleTableRecord
2
STANDARD
70
0
0
ENDTAB
0
TABLE
2
VIEW
5
6
100
AcDbSymbolTable
70
0
0
ENDTAB
0
TABLE
2
UCS
5
7
100
AcDbSymbolTable
70
0
0
ENDTAB
0
TABLE
2
APPID
5
9
100
AcDbSymbolTable
70
2
0
APPID
5
12
100
AcDbSymbolTableRecord
100
AcDbRegAppTableRecord
2
ACAD
70
0
0
ENDTAB
0
TABLE
2
DIMSTYLE
5
A
100
AcDbSymbolTable
70
1
0
ENDTAB
0
TABLE
2
BLOCK_RECORD
5
1
100
AcDbSymbolTable
70
1
0
BLOCK_RECORD
5
1F
100
AcDbSymbolTableRecord
100
AcDbBlockTableRecord
2
*MODEL_SPACE
0
BLOCK_RECORD
5
1B
100
AcDbSymbolTableRecord
100
AcDbBlockTableRecord
2
*PAPER_SPACE
0
ENDTAB
0
ENDSEC
0
SECTION
2
BLOCKS
0
BLOCK
5
20
100
AcDbEntity
100
AcDbBlockBegin
2
*MODEL_SPACE
0
ENDBLK
5
21
100
AcDbEntity
100
AcDbBlockEnd
0
BLOCK
5
1C
100
AcDbEntity
100
AcDbBlockBegin
2
*PAPER_SPACE
0
ENDBLK
5
1D
100
AcDbEntity
100
AcDbBlockEnd
0
ENDSEC
0
SECTION
2
ENTITIES
0
CIRCLE
5
100
100
AcDbEntity
8
0
100
AcDbCircle
10
133.68180102363357
20
-3.439470930288735e-12
30
0
40
2.5399999999999956
210
0
220
-0
230
1
0
CIRCLE
5
101
100
AcDbEntity
8
0
100
AcDbCircle
10
-133.68180102363289
20
-3.4283687000424834e-12
30
0
40
2.5399999999999956
210
0
220
-0
230
1
0
LWPOLYLINE
5
102
100
AcDbEntity
8
0
100
AcDbPolyline
90
24
70
1
43
0.0
10
-77.668044962734498
20
-128.17499999999993
42
0.26794919243112558
10
-72.168783648703311
20
-131.34999999999994
10
72.168783648703098
20
-131.35000000000002
42
0.26794919243112303
10
77.668044962734285
20
-128.17500000000001
10
105.12168495340771
20
-80.623900683448966
42
-0.080663526416487039
10
125.39268004493482
20
-55.789910412652262
42
0.052894708784285732
10
176.6260401278146
20
0.33521464858125677
42
0.33576749808597178
10
176.60949826719528
20
1.5420950337475263
10
175.79000019132818
20
2.5945585476054411
42
0.31829714321665348
10
174.68317095200797
20
2.928344978487857
42
-0.072478904541983732
10
157.85152513620579
20
-0.11214012207118929
42
-0.27708289482421228
10
148.8512470222642
20
4.8820773874527292
10
77.668044962734541
20
128.17499999999987
42
0.26794919243112209
10
72.168783648703354
20
131.34999999999988
10
-72.168783648703197
20
131.35000000000002
42
0.26794919243112464
10
-77.668044962734399
20
128.17500000000001
10
-105.12168495340771
20
80.623900683449222
42
-0.080663526416487386
10
-125.39268004493488
20
55.789910412652368
42
0.05289470878428653
10
-176.62604012781512
20
-0.3352146485817542
42
0.33576749808594231
10
-176.60949826719553
20
-1.5420950337478092
10
-175.79000019132855
20
-2.5945585476056188
42
0.31829714321663188
10
-174.68317095200837
20
-2.9283449784879956
42
-0.072478904541984746
10
-157.85152513620582
20
0.11214012207120261
42
-0.27708289482421244
10
-148.85124702226423
20
-4.8820773874527141
0
LWPOLYLINE
5
103
100
AcDbEntity
8
0
100
AcDbPolyline
90
24
70
1
43
0.0
10
-36.296699951598555
20
118.65000000000002
42
0.13165249758739475
10
-48.996699951598558
20
115.24704525612476
10
-75.308518927099584
20
100.05590948775057
42
0.13165249758739614
10
-84.605564183224317
20
90.758864231625836
10
-120.90226413482296
20
27.891135768374255
42
0.13165249758739625
10
-124.30521887869823
20
15.191135768374251
10
-124.30521887869818
20
-15.191135768374167
42
0.13165249758739644
10
-120.90226413482293
20
-27.891135768374156
10
-84.605564183224402
20
-90.758864231625694
42
0.13165249758739639
10
-75.308518927099669
20
-100.05590948775044
10
-48.9966999515986
20
-115.24704525612471
42
0.13165249758739575
10
-36.29669995159859
20
-118.64999999999998
10
36.296699951598498
20
-118.65000000000002
42
0.13165249758739547
10
48.996699951598465
20
-115.24704525612478
10
75.308518927099527
20
-100.05590948775058
42
0.13165249758739767
10
84.605564183224288
20
-90.758864231625864
10
120.90226413482291
20
-27.89113576837434
42
0.13165249758739661
10
124.30521887869818
20
-15.191135768374373
10
124.30521887869821
20
15.191135768374089
42
0.13165249758739694
10
120.90226413482299
20
27.89113576837412
10
84.605564183224431
20
90.758864231625722
42
0.13165249758739547
10
75.308518927099669
20
100.05590948775048
10
48.996699951598671
20
115.24704525612466
42
0.13165249758739739
10
36.296699951598683
20
118.64999999999993
0
ENDSEC
0
SECTION
2
OBJECTS
0
DICTIONARY
5
C
100
AcDbDictionary
3
ACAD_GROUP
350
D
3
ACAD_MLINESTYLE
350
17
0
DICTIONARY
5
D
100
AcDbDictionary
0
DICTIONARY
5
1A
330
C
100
AcDbDictionary
0
DICTIONARY
5
17
100
AcDbDictionary
0
ENDSEC
0
EOF
