0
SECTION
2
HEADER
9
$INSUNITS
70
1
9
$ACADVER
1
AC1014
9
$HANDSEED
5
FFFF
0
ENDSEC
0
SECTION
2
TABLES
0
TABLE
2
VPORT
5
8
100
AcDbSymbolTable
0
ENDTAB
0
TABLE
2
LTYPE
5
5
100
AcDbSymbolTable
0
LTYPE
5
14
100
AcDbSymbolTableRecord
100
AcDbLinetypeTableRecord
2
BYBLOCK
70
0
0
LTYPE
5
15
100
AcDbSymbolTableRecord
100
AcDbLinetypeTableRecord
2
BYLAYER
70
0
0
ENDTAB
0
TABLE
2
LAYER
5
2
100
AcDbSymbolTable
70
2
0
LAYER
5
50
100
AcDbSymbolTableRecord
100
AcDbLayerTableRecord
2
0
70
0
6
CONTINUOUS
0
ENDTAB
0
TABLE
2
STYLE
5
3
100
AcDbSymbolTable
70
1
0
STYLE
5
11
100
AcDbSymbolTableRecord
100
AcDbTextStyleTableRecord
2
STANDARD
70
0
0
ENDTAB
0
TABLE
2
VIEW
5
6
100
AcDbSymbolTable
70
0
0
ENDTAB
0
TABLE
2
UCS
5
7
100
AcDbSymbolTable
70
0
0
ENDTAB
0
TABLE
2
APPID
5
9
100
AcDbSymbolTable
70
2
0
APPID
5
12
100
AcDbSymbolTableRecord
100
AcDbRegAppTableRecord
2
ACAD
70
0
0
ENDTAB
0
TABLE
2
DIMSTYLE
5
A
100
AcDbSymbolTable
70
1
0
ENDTAB
0
TABLE
2
BLOCK_RECORD
5
1
100
AcDbSymbolTable
70
1
0
BLOCK_RECORD
5
1F
100
AcDbSymbolTableRecord
100
AcDbBlockTableRecord
2
*MODEL_SPACE
0
BLOCK_RECORD
5
1B
100
AcDbSymbolTableRecord
100
AcDbBlockTableRecord
2
*PAPER_SPACE
0
ENDTAB
0
ENDSEC
0
SECTION
2
BLOCKS
0
BLOCK
5
20
100
AcDbEntity
100
AcDbBlockBegin
2
*MODEL_SPACE
0
ENDBLK
5
21
100
AcDbEntity
100
AcDbBlockEnd
0
BLOCK
5
1C
100
AcDbEntity
100
AcDbBlockBegin
2
*PAPER_SPACE
0
ENDBLK
5
1D
100
AcDbEntity
100
AcDbBlockEnd
0
ENDSEC
0
SECTION
2
ENTITIES
0
CIRCLE
5
100
100
AcDbEntity
8
0
100
AcDbCircle
10
1.9999999999999996
20
1.5500000494671617
30
0
40
0.099999999999999992
210
0
220
-0
230
1
0
CIRCLE
5
101
100
AcDbEntity
8
0
100
AcDbCircle
10
6.8296199841606573e-19
20
1.5500000494671617
30
0
40
0.099999999999999992
210
0
220
-0
230
1
0
CIRCLE
5
102
100
AcDbEntity
8
0
100
AcDbCircle
10
-1.9999999999999998
20
1.5500000494671617
30
0
40
0.099999999999999992
210
0
220
-0
230
1
0
LWPOLYLINE
5
103
100
AcDbEntity
8
0
100
AcDbPolyline
90
6
70
1
43
0.0
10
0.072168783648703203
20
-2.6750000813814596
10
-0.072168783648703189
20
-2.6750000813814596
10
-0.14433756729740635
20
-2.5500000813814596
10
-0.072168783648703161
20
-2.4250000813814596
10
0.072168783648703203
20
-2.4250000813814596
10
0.14433756729740641
20
-2.5500000813814596
0
CIRCLE
5
104
100
AcDbEntity
8
0
100
AcDbCircle
10
0.13999999830807283
20
-0.91999998888162149
30
0
40
0.29999999999999999
210
0
220
-0
230
1
0
LWPOLYLINE
5
105
100
AcDbEntity
8
0
100
AcDbPolyline
90
6
70
1
43
0.0
10
-2.1088328232413041
20
-1.6116577584800043
10
-2.0096085019881875
20
-1.7164807874631034
10
-2.0507757473626254
20
-1.8548230848331202
10
-2.1911673139901802
20
-1.8883423532200376
10
-2.2903916352432971
20
-1.7835193242369385
10
-2.2492243898688589
20
-1.6451770268669217
0
LWPOLYLINE
5
106
100
AcDbEntity
8
0
100
AcDbPolyline
90
6
70
1
43
0.0
10
-3.2721687449760832
20
-0.12500000000000003
10
-3.3443375286247865
20
0
10
-3.2721687449760832
20
0.12500000000000003
10
-3.1278311776786767
20
0.12500000000000003
10
-3.0556623940299734
20
0
10
-3.1278311776786767
20
-0.12499999999999999
0
LWPOLYLINE
5
107
100
AcDbEntity
8
0
100
AcDbPolyline
90
6
70
1
43
0.0
10
3.3440193165450345
20
-0.0095812566368370308
10
3.2637120998876892
20
-0.12951492282812632
10
3.1196928898683574
20
-0.11993366619128928
10
3.0559808965063704
20
0.0095812566368370846
10
3.1362881131637157
20
0.12951492282812641
10
3.2803073231830475
20
0.11993366619128945
0
LWPOLYLINE
5
108
100
AcDbEntity
8
0
100
AcDbPolyline
90
6
70
1
43
0.0
10
2.2682680486125069
20
-1.7914158326725889
10
2.1632668299065263
20
-1.890451570684643
10
2.024998755552557
20
-1.849035716862965
10
1.9917318999045688
20
-1.7085841250292328
10
2.0967331186105493
20
-1.6095483870171787
10
2.2350011929645186
20
-1.6509642408388567
0
LWPOLYLINE
5
109
100
AcDbEntity
8
0
100
AcDbPolyline
90
18
70
1
43
0.0
10
3.4181352621119592
20
0.32525000952965172
10
2.5181352621119477
20
0.32525000952965222
10
2.5181352621119459
20
1.7000000542543088
10
-2.5218647378880537
20
1.7000000542543037
10
-2.5218647378880532
20
0.3252500095296515
10
-3.4218647378880536
20
0.32525000952965188
10
-3.4218647378880536
20
0.0080528727270929041
10
-3.397226912434423
20
-0.033189301845921892
42
0.18806288756835304
10
-3.3227041974186444
20
-0.15793565286299049
10
-2.3449593920477683
20
-1.7946191348065217
42
0.17918330106982924
10
-2.2688931306035633
20
-1.9108243071654256
42
0.17051484451781532
10
-0.087065429473724226
20
-2.7300545481146021
42
0.2309474798007124
10
0.088336057082354438
20
-2.7294345848058104
42
0.16738194160595546
10
2.2314944390661773
20
-1.922333590237115
42
0.21462415627902587
10
2.3262912253422146
20
-1.7883372289871022
10
3.3129020843911308
20
-0.16508526098375462
42
0.21566461940095352
10
3.3985302588247603
20
-0.024202864047727816
10
3.4181352621119618
20
0.0080528727270929041
0
ENDSEC
0
SECTION
2
OBJECTS
0
DICTIONARY
5
C
100
AcDbDictionary
3
ACAD_GROUP
350
D
3
ACAD_MLINESTYLE
350
17
0
DICTIONARY
5
D
100
AcDbDictionary
0
DICTIONARY
5
1A
330
C
100
AcDbDictionary
0
DICTIONARY
5
17
100
AcDbDictionary
0
ENDSEC
0
EOF
