solid ASCII
  facet normal 0.000000e+00 0.000000e+00 -1.000000e+00
    outer loop
      vertex   3.175000e+00 6.350000e+00 -8.428674e+00
      vertex   3.175000e+00 8.791177e+00 -8.428674e+00
      vertex   5.397500e+01 6.350000e+00 -8.428674e+00
    endloop
  endfacet
  facet normal 0.000000e+00 0.000000e+00 -1.000000e+00
    outer loop
      vertex   5.397500e+01 6.350000e+00 -8.428674e+00
      vertex   3.175000e+00 8.791177e+00 -8.428674e+00
      vertex   5.397500e+01 8.791177e+00 -8.428674e+00
    endloop
  endfacet
  facet normal 0.000000e+00 -2.182992e-15 -1.000000e+00
    outer loop
      vertex   3.175000e+00 -8.791177e+00 -8.428674e+00
      vertex   3.175000e+00 -6.350000e+00 -8.428674e+00
      vertex   5.397500e+01 -8.791177e+00 -8.428674e+00
    endloop
  endfacet
  facet normal 0.000000e+00 -2.182992e-15 -1.000000e+00
    outer loop
      vertex   5.397500e+01 -8.791177e+00 -8.428674e+00
      vertex   3.175000e+00 -6.350000e+00 -8.428674e+00
      vertex   5.397500e+01 -6.350000e+00 -8.428674e+00
    endloop
  endfacet
  facet normal -0.000000e+00 0.000000e+00 1.000000e+00
    outer loop
      vertex   3.175000e+00 -6.350000e+00 3.065367e+01
      vertex   3.175000e+00 -8.791177e+00 3.065367e+01
      vertex   5.397500e+01 -6.350000e+00 3.065367e+01
    endloop
  endfacet
  facet normal 0.000000e+00 0.000000e+00 1.000000e+00
    outer loop
      vertex   5.397500e+01 -6.350000e+00 3.065367e+01
      vertex   3.175000e+00 -8.791177e+00 3.065367e+01
      vertex   5.397500e+01 -8.791177e+00 3.065367e+01
    endloop
  endfacet
  facet normal -0.000000e+00 1.455328e-15 1.000000e+00
    outer loop
      vertex   3.175000e+00 8.791177e+00 3.065367e+01
      vertex   3.175000e+00 6.350000e+00 3.065367e+01
      vertex   5.397500e+01 8.791177e+00 3.065367e+01
    endloop
  endfacet
  facet normal 0.000000e+00 1.455328e-15 1.000000e+00
    outer loop
      vertex   5.397500e+01 8.791177e+00 3.065367e+01
      vertex   3.175000e+00 6.350000e+00 3.065367e+01
      vertex   5.397500e+01 6.350000e+00 3.065367e+01
    endloop
  endfacet
  facet normal -0.000000e+00 -9.374414e-01 -3.481432e-01
    outer loop
      vertex   5.397500e+01 -8.791177e+00 -8.428674e+00
      vertex   2.857500e+01 -9.053144e+00 -7.723279e+00
      vertex   3.175000e+00 -8.791177e+00 -8.428674e+00
    endloop
  endfacet
  facet normal 0.000000e+00 -9.374414e-01 -3.481432e-01
    outer loop
      vertex   3.175000e+00 -8.791177e+00 -8.428674e+00
      vertex   2.857500e+01 -9.053144e+00 -7.723279e+00
      vertex   1.587500e+01 -9.053144e+00 -7.723279e+00
    endloop
  endfacet
  facet normal 0.000000e+00 -9.374414e-01 -3.481432e-01
    outer loop
      vertex   3.175000e+00 -8.791177e+00 -8.428674e+00
      vertex   1.587500e+01 -9.053144e+00 -7.723279e+00
      vertex   3.175000e+00 -9.053144e+00 -7.723279e+00
    endloop
  endfacet
  facet normal 0.000000e+00 -9.619977e-01 -2.730574e-01
    outer loop
      vertex   3.175000e+00 -9.053144e+00 -7.723279e+00
      vertex   1.587500e+01 -9.053144e+00 -7.723279e+00
      vertex   3.175000e+00 -9.258611e+00 -6.999405e+00
    endloop
  endfacet
  facet normal 0.000000e+00 -9.619977e-01 -2.730574e-01
    outer loop
      vertex   3.175000e+00 -9.258611e+00 -6.999405e+00
      vertex   1.587500e+01 -9.053144e+00 -7.723279e+00
      vertex   1.587500e+01 -9.258611e+00 -6.999405e+00
    endloop
  endfacet
  facet normal 0.000000e+00 -9.805504e-01 -1.962674e-01
    outer loop
      vertex   3.175000e+00 -9.258611e+00 -6.999405e+00
      vertex   1.587500e+01 -9.258611e+00 -6.999405e+00
      vertex   3.175000e+00 -9.406296e+00 -6.261571e+00
    endloop
  endfacet
  facet normal 0.000000e+00 -9.805504e-01 -1.962674e-01
    outer loop
      vertex   3.175000e+00 -9.406296e+00 -6.261571e+00
      vertex   1.587500e+01 -9.258611e+00 -6.999405e+00
      vertex   1.587500e+01 -9.406296e+00 -6.261571e+00
    endloop
  endfacet
  facet normal 0.000000e+00 -9.929836e-01 -1.182526e-01
    outer loop
      vertex   3.175000e+00 -9.406296e+00 -6.261571e+00
      vertex   1.587500e+01 -9.406296e+00 -6.261571e+00
      vertex   3.175000e+00 -9.495278e+00 -5.514382e+00
    endloop
  endfacet
  facet normal 0.000000e+00 -9.929836e-01 -1.182526e-01
    outer loop
      vertex   3.175000e+00 -9.495278e+00 -5.514382e+00
      vertex   1.587500e+01 -9.406296e+00 -6.261571e+00
      vertex   1.587500e+01 -9.495278e+00 -5.514382e+00
    endloop
  endfacet
  facet normal 0.000000e+00 -9.992196e-01 -3.949969e-02
    outer loop
      vertex   3.175000e+00 -9.495278e+00 -5.514382e+00
      vertex   1.587500e+01 -9.495278e+00 -5.514382e+00
      vertex   3.175000e+00 -9.525000e+00 -4.762500e+00
    endloop
  endfacet
  facet normal 5.445768e-18 -9.992196e-01 -3.949969e-02
    outer loop
      vertex   3.175000e+00 -9.525000e+00 -4.762500e+00
      vertex   1.587500e+01 -9.495278e+00 -5.514382e+00
      vertex   2.857500e+01 -9.495278e+00 -5.514382e+00
    endloop
  endfacet
  facet normal -6.906057e-19 -9.992196e-01 -3.949969e-02
    outer loop
      vertex   3.175000e+00 -9.525000e+00 -4.762500e+00
      vertex   2.857500e+01 -9.495278e+00 -5.514382e+00
      vertex   5.397500e+01 -9.525000e+00 -4.762500e+00
    endloop
  endfacet
  facet normal 0.000000e+00 -9.992196e-01 -3.949969e-02
    outer loop
      vertex   5.397500e+01 -9.525000e+00 -4.762500e+00
      vertex   2.857500e+01 -9.495278e+00 -5.514382e+00
      vertex   4.127500e+01 -9.495278e+00 -5.514382e+00
    endloop
  endfacet
  facet normal 0.000000e+00 -9.992196e-01 -3.949969e-02
    outer loop
      vertex   5.397500e+01 -9.525000e+00 -4.762500e+00
      vertex   4.127500e+01 -9.495278e+00 -5.514382e+00
      vertex   5.397500e+01 -9.495278e+00 -5.514382e+00
    endloop
  endfacet
  facet normal -0.000000e+00 -9.929836e-01 -1.182526e-01
    outer loop
      vertex   5.397500e+01 -9.495278e+00 -5.514382e+00
      vertex   4.127500e+01 -9.495278e+00 -5.514382e+00
      vertex   5.397500e+01 -9.406296e+00 -6.261571e+00
    endloop
  endfacet
  facet normal -0.000000e+00 -9.929836e-01 -1.182526e-01
    outer loop
      vertex   5.397500e+01 -9.406296e+00 -6.261571e+00
      vertex   4.127500e+01 -9.495278e+00 -5.514382e+00
      vertex   4.127500e+01 -9.406296e+00 -6.261571e+00
    endloop
  endfacet
  facet normal -0.000000e+00 -9.805504e-01 -1.962674e-01
    outer loop
      vertex   5.397500e+01 -9.406296e+00 -6.261571e+00
      vertex   4.127500e+01 -9.406296e+00 -6.261571e+00
      vertex   5.397500e+01 -9.258611e+00 -6.999405e+00
    endloop
  endfacet
  facet normal -0.000000e+00 -9.805504e-01 -1.962674e-01
    outer loop
      vertex   5.397500e+01 -9.258611e+00 -6.999405e+00
      vertex   4.127500e+01 -9.406296e+00 -6.261571e+00
      vertex   4.127500e+01 -9.258611e+00 -6.999405e+00
    endloop
  endfacet
  facet normal -0.000000e+00 -9.619977e-01 -2.730574e-01
    outer loop
      vertex   5.397500e+01 -9.258611e+00 -6.999405e+00
      vertex   4.127500e+01 -9.258611e+00 -6.999405e+00
      vertex   5.397500e+01 -9.053144e+00 -7.723279e+00
    endloop
  endfacet
  facet normal -0.000000e+00 -9.619977e-01 -2.730574e-01
    outer loop
      vertex   5.397500e+01 -9.053144e+00 -7.723279e+00
      vertex   4.127500e+01 -9.258611e+00 -6.999405e+00
      vertex   4.127500e+01 -9.053144e+00 -7.723279e+00
    endloop
  endfacet
  facet normal -0.000000e+00 -9.374414e-01 -3.481432e-01
    outer loop
      vertex   5.397500e+01 -9.053144e+00 -7.723279e+00
      vertex   4.127500e+01 -9.053144e+00 -7.723279e+00
      vertex   5.397500e+01 -8.791177e+00 -8.428674e+00
    endloop
  endfacet
  facet normal 0.000000e+00 -9.374414e-01 -3.481432e-01
    outer loop
      vertex   5.397500e+01 -8.791177e+00 -8.428674e+00
      vertex   4.127500e+01 -9.053144e+00 -7.723279e+00
      vertex   2.857500e+01 -9.053144e+00 -7.723279e+00
    endloop
  endfacet
  facet normal 0.000000e+00 -9.619977e-01 -2.730574e-01
    outer loop
      vertex   1.587500e+01 -9.258611e+00 -6.999405e+00
      vertex   1.587500e+01 -9.053144e+00 -7.723279e+00
      vertex   2.857500e+01 -9.053144e+00 -7.723279e+00
    endloop
  endfacet
  facet normal 0.000000e+00 -9.619977e-01 -2.730574e-01
    outer loop
      vertex   2.857500e+01 -9.053144e+00 -7.723279e+00
      vertex   4.127500e+01 -9.053144e+00 -7.723279e+00
      vertex   2.857500e+01 -9.258611e+00 -6.999405e+00
    endloop
  endfacet
  facet normal 0.000000e+00 -9.619977e-01 -2.730574e-01
    outer loop
      vertex   2.857500e+01 -9.258611e+00 -6.999405e+00
      vertex   4.127500e+01 -9.053144e+00 -7.723279e+00
      vertex   4.127500e+01 -9.258611e+00 -6.999405e+00
    endloop
  endfacet
  facet normal 0.000000e+00 -9.805504e-01 -1.962674e-01
    outer loop
      vertex   2.857500e+01 -9.258611e+00 -6.999405e+00
      vertex   4.127500e+01 -9.258611e+00 -6.999405e+00
      vertex   2.857500e+01 -9.406296e+00 -6.261571e+00
    endloop
  endfacet
  facet normal 0.000000e+00 -9.805504e-01 -1.962674e-01
    outer loop
      vertex   2.857500e+01 -9.406296e+00 -6.261571e+00
      vertex   4.127500e+01 -9.258611e+00 -6.999405e+00
      vertex   4.127500e+01 -9.406296e+00 -6.261571e+00
    endloop
  endfacet
  facet normal 0.000000e+00 -9.929836e-01 -1.182526e-01
    outer loop
      vertex   2.857500e+01 -9.406296e+00 -6.261571e+00
      vertex   4.127500e+01 -9.406296e+00 -6.261571e+00
      vertex   2.857500e+01 -9.495278e+00 -5.514382e+00
    endloop
  endfacet
  facet normal 0.000000e+00 -9.929836e-01 -1.182526e-01
    outer loop
      vertex   2.857500e+01 -9.495278e+00 -5.514382e+00
      vertex   4.127500e+01 -9.406296e+00 -6.261571e+00
      vertex   4.127500e+01 -9.495278e+00 -5.514382e+00
    endloop
  endfacet
  facet normal 0.000000e+00 -9.805504e-01 -1.962674e-01
    outer loop
      vertex   1.587500e+01 -9.406296e+00 -6.261571e+00
      vertex   1.587500e+01 -9.258611e+00 -6.999405e+00
      vertex   2.857500e+01 -9.258611e+00 -6.999405e+00
    endloop
  endfacet
  facet normal -0.000000e+00 -9.619977e-01 -2.730574e-01
    outer loop
      vertex   2.857500e+01 -9.258611e+00 -6.999405e+00
      vertex   1.587500e+01 -9.258611e+00 -6.999405e+00
      vertex   2.857500e+01 -9.053144e+00 -7.723279e+00
    endloop
  endfacet
  facet normal 0.000000e+00 -9.805504e-01 -1.962674e-01
    outer loop
      vertex   1.587500e+01 -9.406296e+00 -6.261571e+00
      vertex   2.857500e+01 -9.258611e+00 -6.999405e+00
      vertex   2.857500e+01 -9.406296e+00 -6.261571e+00
    endloop
  endfacet
  facet normal 0.000000e+00 -9.929836e-01 -1.182526e-01
    outer loop
      vertex   1.587500e+01 -9.495278e+00 -5.514382e+00
      vertex   1.587500e+01 -9.406296e+00 -6.261571e+00
      vertex   2.857500e+01 -9.406296e+00 -6.261571e+00
    endloop
  endfacet
  facet normal 1.654006e-17 -9.929836e-01 -1.182526e-01
    outer loop
      vertex   1.587500e+01 -9.495278e+00 -5.514382e+00
      vertex   2.857500e+01 -9.406296e+00 -6.261571e+00
      vertex   2.857500e+01 -9.495278e+00 -5.514382e+00
    endloop
  endfacet
  facet normal 0.000000e+00 9.374414e-01 3.481432e-01
    outer loop
      vertex   5.397500e+01 8.791177e+00 3.065367e+01
      vertex   2.857500e+01 9.053144e+00 2.994828e+01
      vertex   3.175000e+00 8.791177e+00 3.065367e+01
    endloop
  endfacet
  facet normal 0.000000e+00 9.374414e-01 3.481432e-01
    outer loop
      vertex   3.175000e+00 8.791177e+00 3.065367e+01
      vertex   2.857500e+01 9.053144e+00 2.994828e+01
      vertex   1.587500e+01 9.053144e+00 2.994828e+01
    endloop
  endfacet
  facet normal -1.306984e-16 9.374414e-01 3.481432e-01
    outer loop
      vertex   3.175000e+00 8.791177e+00 3.065367e+01
      vertex   1.587500e+01 9.053144e+00 2.994828e+01
      vertex   3.175000e+00 9.053144e+00 2.994828e+01
    endloop
  endfacet
  facet normal -1.345552e-16 9.619977e-01 2.730574e-01
    outer loop
      vertex   3.175000e+00 9.053144e+00 2.994828e+01
      vertex   1.587500e+01 9.053144e+00 2.994828e+01
      vertex   3.175000e+00 9.258611e+00 2.922441e+01
    endloop
  endfacet
  facet normal 1.527708e-16 9.619977e-01 2.730574e-01
    outer loop
      vertex   3.175000e+00 9.258611e+00 2.922441e+01
      vertex   1.587500e+01 9.053144e+00 2.994828e+01
      vertex   1.587500e+01 9.258611e+00 2.922441e+01
    endloop
  endfacet
  facet normal 1.098082e-16 9.805504e-01 1.962674e-01
    outer loop
      vertex   3.175000e+00 9.258611e+00 2.922441e+01
      vertex   1.587500e+01 9.258611e+00 2.922441e+01
      vertex   3.175000e+00 9.406296e+00 2.848657e+01
    endloop
  endfacet
  facet normal 5.490409e-17 9.805504e-01 1.962674e-01
    outer loop
      vertex   3.175000e+00 9.406296e+00 2.848657e+01
      vertex   1.587500e+01 9.258611e+00 2.922441e+01
      vertex   1.587500e+01 9.406296e+00 2.848657e+01
    endloop
  endfacet
  facet normal 3.308011e-17 9.929836e-01 1.182526e-01
    outer loop
      vertex   3.175000e+00 9.406296e+00 2.848657e+01
      vertex   1.587500e+01 9.406296e+00 2.848657e+01
      vertex   3.175000e+00 9.495278e+00 2.773938e+01
    endloop
  endfacet
  facet normal 3.308011e-17 9.929836e-01 1.182526e-01
    outer loop
      vertex   3.175000e+00 9.495278e+00 2.773938e+01
      vertex   1.587500e+01 9.406296e+00 2.848657e+01
      vertex   1.587500e+01 9.495278e+00 2.773938e+01
    endloop
  endfacet
  facet normal 1.104969e-17 9.992196e-01 3.949969e-02
    outer loop
      vertex   3.175000e+00 9.495278e+00 2.773938e+01
      vertex   1.587500e+01 9.495278e+00 2.773938e+01
      vertex   3.175000e+00 9.525000e+00 2.698750e+01
    endloop
  endfacet
  facet normal 0.000000e+00 9.992196e-01 3.949969e-02
    outer loop
      vertex   3.175000e+00 9.525000e+00 2.698750e+01
      vertex   1.587500e+01 9.495278e+00 2.773938e+01
      vertex   2.857500e+01 9.495278e+00 2.773938e+01
    endloop
  endfacet
  facet normal -0.000000e+00 9.992196e-01 3.949969e-02
    outer loop
      vertex   3.175000e+00 9.525000e+00 2.698750e+01
      vertex   2.857500e+01 9.495278e+00 2.773938e+01
      vertex   5.397500e+01 9.525000e+00 2.698750e+01
    endloop
  endfacet
  facet normal 0.000000e+00 9.992196e-01 3.949969e-02
    outer loop
      vertex   5.397500e+01 9.525000e+00 2.698750e+01
      vertex   2.857500e+01 9.495278e+00 2.773938e+01
      vertex   4.127500e+01 9.495278e+00 2.773938e+01
    endloop
  endfacet
  facet normal 0.000000e+00 9.992196e-01 3.949969e-02
    outer loop
      vertex   5.397500e+01 9.525000e+00 2.698750e+01
      vertex   4.127500e+01 9.495278e+00 2.773938e+01
      vertex   5.397500e+01 9.495278e+00 2.773938e+01
    endloop
  endfacet
  facet normal 0.000000e+00 9.929836e-01 1.182526e-01
    outer loop
      vertex   5.397500e+01 9.495278e+00 2.773938e+01
      vertex   4.127500e+01 9.495278e+00 2.773938e+01
      vertex   5.397500e+01 9.406296e+00 2.848657e+01
    endloop
  endfacet
  facet normal 0.000000e+00 9.929836e-01 1.182526e-01
    outer loop
      vertex   5.397500e+01 9.406296e+00 2.848657e+01
      vertex   4.127500e+01 9.495278e+00 2.773938e+01
      vertex   4.127500e+01 9.406296e+00 2.848657e+01
    endloop
  endfacet
  facet normal 0.000000e+00 9.805504e-01 1.962674e-01
    outer loop
      vertex   5.397500e+01 9.406296e+00 2.848657e+01
      vertex   4.127500e+01 9.406296e+00 2.848657e+01
      vertex   5.397500e+01 9.258611e+00 2.922441e+01
    endloop
  endfacet
  facet normal 0.000000e+00 9.805504e-01 1.962674e-01
    outer loop
      vertex   5.397500e+01 9.258611e+00 2.922441e+01
      vertex   4.127500e+01 9.406296e+00 2.848657e+01
      vertex   4.127500e+01 9.258611e+00 2.922441e+01
    endloop
  endfacet
  facet normal 0.000000e+00 9.619977e-01 2.730574e-01
    outer loop
      vertex   5.397500e+01 9.258611e+00 2.922441e+01
      vertex   4.127500e+01 9.258611e+00 2.922441e+01
      vertex   5.397500e+01 9.053144e+00 2.994828e+01
    endloop
  endfacet
  facet normal 7.638541e-17 9.619977e-01 2.730574e-01
    outer loop
      vertex   5.397500e+01 9.053144e+00 2.994828e+01
      vertex   4.127500e+01 9.258611e+00 2.922441e+01
      vertex   4.127500e+01 9.053144e+00 2.994828e+01
    endloop
  endfacet
  facet normal 9.739002e-17 9.374414e-01 3.481432e-01
    outer loop
      vertex   5.397500e+01 9.053144e+00 2.994828e+01
      vertex   4.127500e+01 9.053144e+00 2.994828e+01
      vertex   5.397500e+01 8.791177e+00 3.065367e+01
    endloop
  endfacet
  facet normal 0.000000e+00 9.374414e-01 3.481432e-01
    outer loop
      vertex   5.397500e+01 8.791177e+00 3.065367e+01
      vertex   4.127500e+01 9.053144e+00 2.994828e+01
      vertex   2.857500e+01 9.053144e+00 2.994828e+01
    endloop
  endfacet
  facet normal 0.000000e+00 9.619977e-01 2.730574e-01
    outer loop
      vertex   1.587500e+01 9.258611e+00 2.922441e+01
      vertex   1.587500e+01 9.053144e+00 2.994828e+01
      vertex   2.857500e+01 9.053144e+00 2.994828e+01
    endloop
  endfacet
  facet normal -0.000000e+00 9.619977e-01 2.730574e-01
    outer loop
      vertex   2.857500e+01 9.053144e+00 2.994828e+01
      vertex   4.127500e+01 9.053144e+00 2.994828e+01
      vertex   2.857500e+01 9.258611e+00 2.922441e+01
    endloop
  endfacet
  facet normal -0.000000e+00 9.619977e-01 2.730574e-01
    outer loop
      vertex   2.857500e+01 9.258611e+00 2.922441e+01
      vertex   4.127500e+01 9.053144e+00 2.994828e+01
      vertex   4.127500e+01 9.258611e+00 2.922441e+01
    endloop
  endfacet
  facet normal -0.000000e+00 9.805504e-01 1.962674e-01
    outer loop
      vertex   2.857500e+01 9.258611e+00 2.922441e+01
      vertex   4.127500e+01 9.258611e+00 2.922441e+01
      vertex   2.857500e+01 9.406296e+00 2.848657e+01
    endloop
  endfacet
  facet normal -0.000000e+00 9.805504e-01 1.962674e-01
    outer loop
      vertex   2.857500e+01 9.406296e+00 2.848657e+01
      vertex   4.127500e+01 9.258611e+00 2.922441e+01
      vertex   4.127500e+01 9.406296e+00 2.848657e+01
    endloop
  endfacet
  facet normal -0.000000e+00 9.929836e-01 1.182526e-01
    outer loop
      vertex   2.857500e+01 9.406296e+00 2.848657e+01
      vertex   4.127500e+01 9.406296e+00 2.848657e+01
      vertex   2.857500e+01 9.495278e+00 2.773938e+01
    endloop
  endfacet
  facet normal -0.000000e+00 9.929836e-01 1.182526e-01
    outer loop
      vertex   2.857500e+01 9.495278e+00 2.773938e+01
      vertex   4.127500e+01 9.406296e+00 2.848657e+01
      vertex   4.127500e+01 9.495278e+00 2.773938e+01
    endloop
  endfacet
  facet normal 0.000000e+00 9.805504e-01 1.962674e-01
    outer loop
      vertex   1.587500e+01 9.406296e+00 2.848657e+01
      vertex   1.587500e+01 9.258611e+00 2.922441e+01
      vertex   2.857500e+01 9.258611e+00 2.922441e+01
    endloop
  endfacet
  facet normal 0.000000e+00 9.619977e-01 2.730574e-01
    outer loop
      vertex   2.857500e+01 9.258611e+00 2.922441e+01
      vertex   1.587500e+01 9.258611e+00 2.922441e+01
      vertex   2.857500e+01 9.053144e+00 2.994828e+01
    endloop
  endfacet
  facet normal -0.000000e+00 9.805504e-01 1.962674e-01
    outer loop
      vertex   1.587500e+01 9.406296e+00 2.848657e+01
      vertex   2.857500e+01 9.258611e+00 2.922441e+01
      vertex   2.857500e+01 9.406296e+00 2.848657e+01
    endloop
  endfacet
  facet normal 0.000000e+00 9.929836e-01 1.182526e-01
    outer loop
      vertex   1.587500e+01 9.495278e+00 2.773938e+01
      vertex   1.587500e+01 9.406296e+00 2.848657e+01
      vertex   2.857500e+01 9.406296e+00 2.848657e+01
    endloop
  endfacet
  facet normal -0.000000e+00 9.929836e-01 1.182526e-01
    outer loop
      vertex   1.587500e+01 9.495278e+00 2.773938e+01
      vertex   2.857500e+01 9.406296e+00 2.848657e+01
      vertex   2.857500e+01 9.495278e+00 2.773938e+01
    endloop
  endfacet
  facet normal 0.000000e+00 -9.374414e-01 3.481432e-01
    outer loop
      vertex   3.175000e+00 -8.791177e+00 3.065367e+01
      vertex   2.857500e+01 -9.053144e+00 2.994828e+01
      vertex   5.397500e+01 -8.791177e+00 3.065367e+01
    endloop
  endfacet
  facet normal 0.000000e+00 -9.374414e-01 3.481432e-01
    outer loop
      vertex   5.397500e+01 -8.791177e+00 3.065367e+01
      vertex   2.857500e+01 -9.053144e+00 2.994828e+01
      vertex   4.127500e+01 -9.053144e+00 2.994828e+01
    endloop
  endfacet
  facet normal 1.306984e-16 -9.374414e-01 3.481432e-01
    outer loop
      vertex   5.397500e+01 -8.791177e+00 3.065367e+01
      vertex   4.127500e+01 -9.053144e+00 2.994828e+01
      vertex   5.397500e+01 -9.053144e+00 2.994828e+01
    endloop
  endfacet
  facet normal 1.345552e-16 -9.619977e-01 2.730574e-01
    outer loop
      vertex   5.397500e+01 -9.053144e+00 2.994828e+01
      vertex   4.127500e+01 -9.053144e+00 2.994828e+01
      vertex   5.397500e+01 -9.258611e+00 2.922441e+01
    endloop
  endfacet
  facet normal 0.000000e+00 -9.619977e-01 2.730574e-01
    outer loop
      vertex   5.397500e+01 -9.258611e+00 2.922441e+01
      vertex   4.127500e+01 -9.053144e+00 2.994828e+01
      vertex   4.127500e+01 -9.258611e+00 2.922441e+01
    endloop
  endfacet
  facet normal 0.000000e+00 -9.805504e-01 1.962674e-01
    outer loop
      vertex   5.397500e+01 -9.258611e+00 2.922441e+01
      vertex   4.127500e+01 -9.258611e+00 2.922441e+01
      vertex   5.397500e+01 -9.406296e+00 2.848657e+01
    endloop
  endfacet
  facet normal 0.000000e+00 -9.805504e-01 1.962674e-01
    outer loop
      vertex   5.397500e+01 -9.406296e+00 2.848657e+01
      vertex   4.127500e+01 -9.258611e+00 2.922441e+01
      vertex   4.127500e+01 -9.406296e+00 2.848657e+01
    endloop
  endfacet
  facet normal 0.000000e+00 -9.929836e-01 1.182526e-01
    outer loop
      vertex   5.397500e+01 -9.406296e+00 2.848657e+01
      vertex   4.127500e+01 -9.406296e+00 2.848657e+01
      vertex   5.397500e+01 -9.495278e+00 2.773938e+01
    endloop
  endfacet
  facet normal 0.000000e+00 -9.929836e-01 1.182526e-01
    outer loop
      vertex   5.397500e+01 -9.495278e+00 2.773938e+01
      vertex   4.127500e+01 -9.406296e+00 2.848657e+01
      vertex   4.127500e+01 -9.495278e+00 2.773938e+01
    endloop
  endfacet
  facet normal 0.000000e+00 -9.992196e-01 3.949969e-02
    outer loop
      vertex   5.397500e+01 -9.495278e+00 2.773938e+01
      vertex   4.127500e+01 -9.495278e+00 2.773938e+01
      vertex   5.397500e+01 -9.525000e+00 2.698750e+01
    endloop
  endfacet
  facet normal 0.000000e+00 -9.992196e-01 3.949969e-02
    outer loop
      vertex   5.397500e+01 -9.525000e+00 2.698750e+01
      vertex   4.127500e+01 -9.495278e+00 2.773938e+01
      vertex   2.857500e+01 -9.495278e+00 2.773938e+01
    endloop
  endfacet
  facet normal 0.000000e+00 -9.992196e-01 3.949969e-02
    outer loop
      vertex   5.397500e+01 -9.525000e+00 2.698750e+01
      vertex   2.857500e+01 -9.495278e+00 2.773938e+01
      vertex   3.175000e+00 -9.525000e+00 2.698750e+01
    endloop
  endfacet
  facet normal 0.000000e+00 -9.992196e-01 3.949969e-02
    outer loop
      vertex   3.175000e+00 -9.525000e+00 2.698750e+01
      vertex   2.857500e+01 -9.495278e+00 2.773938e+01
      vertex   1.587500e+01 -9.495278e+00 2.773938e+01
    endloop
  endfacet
  facet normal 0.000000e+00 -9.992196e-01 3.949969e-02
    outer loop
      vertex   3.175000e+00 -9.525000e+00 2.698750e+01
      vertex   1.587500e+01 -9.495278e+00 2.773938e+01
      vertex   3.175000e+00 -9.495278e+00 2.773938e+01
    endloop
  endfacet
  facet normal 0.000000e+00 -9.929836e-01 1.182526e-01
    outer loop
      vertex   3.175000e+00 -9.495278e+00 2.773938e+01
      vertex   1.587500e+01 -9.495278e+00 2.773938e+01
      vertex   3.175000e+00 -9.406296e+00 2.848657e+01
    endloop
  endfacet
  facet normal 0.000000e+00 -9.929836e-01 1.182526e-01
    outer loop
      vertex   3.175000e+00 -9.406296e+00 2.848657e+01
      vertex   1.587500e+01 -9.495278e+00 2.773938e+01
      vertex   1.587500e+01 -9.406296e+00 2.848657e+01
    endloop
  endfacet
  facet normal 0.000000e+00 -9.805504e-01 1.962674e-01
    outer loop
      vertex   3.175000e+00 -9.406296e+00 2.848657e+01
      vertex   1.587500e+01 -9.406296e+00 2.848657e+01
      vertex   3.175000e+00 -9.258611e+00 2.922441e+01
    endloop
  endfacet
  facet normal -5.490409e-17 -9.805504e-01 1.962674e-01
    outer loop
      vertex   3.175000e+00 -9.258611e+00 2.922441e+01
      vertex   1.587500e+01 -9.406296e+00 2.848657e+01
      vertex   1.587500e+01 -9.258611e+00 2.922441e+01
    endloop
  endfacet
  facet normal -7.638541e-17 -9.619977e-01 2.730574e-01
    outer loop
      vertex   3.175000e+00 -9.258611e+00 2.922441e+01
      vertex   1.587500e+01 -9.258611e+00 2.922441e+01
      vertex   3.175000e+00 -9.053144e+00 2.994828e+01
    endloop
  endfacet
  facet normal -7.638541e-17 -9.619977e-01 2.730574e-01
    outer loop
      vertex   3.175000e+00 -9.053144e+00 2.994828e+01
      vertex   1.587500e+01 -9.258611e+00 2.922441e+01
      vertex   1.587500e+01 -9.053144e+00 2.994828e+01
    endloop
  endfacet
  facet normal -9.739002e-17 -9.374414e-01 3.481432e-01
    outer loop
      vertex   3.175000e+00 -9.053144e+00 2.994828e+01
      vertex   1.587500e+01 -9.053144e+00 2.994828e+01
      vertex   3.175000e+00 -8.791177e+00 3.065367e+01
    endloop
  endfacet
  facet normal 0.000000e+00 -9.374414e-01 3.481432e-01
    outer loop
      vertex   3.175000e+00 -8.791177e+00 3.065367e+01
      vertex   1.587500e+01 -9.053144e+00 2.994828e+01
      vertex   2.857500e+01 -9.053144e+00 2.994828e+01
    endloop
  endfacet
  facet normal 0.000000e+00 -9.619977e-01 2.730574e-01
    outer loop
      vertex   4.127500e+01 -9.258611e+00 2.922441e+01
      vertex   4.127500e+01 -9.053144e+00 2.994828e+01
      vertex   2.857500e+01 -9.053144e+00 2.994828e+01
    endloop
  endfacet
  facet normal 0.000000e+00 -9.619977e-01 2.730574e-01
    outer loop
      vertex   2.857500e+01 -9.053144e+00 2.994828e+01
      vertex   1.587500e+01 -9.053144e+00 2.994828e+01
      vertex   2.857500e+01 -9.258611e+00 2.922441e+01
    endloop
  endfacet
  facet normal 0.000000e+00 -9.619977e-01 2.730574e-01
    outer loop
      vertex   2.857500e+01 -9.258611e+00 2.922441e+01
      vertex   1.587500e+01 -9.053144e+00 2.994828e+01
      vertex   1.587500e+01 -9.258611e+00 2.922441e+01
    endloop
  endfacet
  facet normal 0.000000e+00 -9.805504e-01 1.962674e-01
    outer loop
      vertex   2.857500e+01 -9.258611e+00 2.922441e+01
      vertex   1.587500e+01 -9.258611e+00 2.922441e+01
      vertex   2.857500e+01 -9.406296e+00 2.848657e+01
    endloop
  endfacet
  facet normal 0.000000e+00 -9.805504e-01 1.962674e-01
    outer loop
      vertex   2.857500e+01 -9.406296e+00 2.848657e+01
      vertex   1.587500e+01 -9.258611e+00 2.922441e+01
      vertex   1.587500e+01 -9.406296e+00 2.848657e+01
    endloop
  endfacet
  facet normal 0.000000e+00 -9.929836e-01 1.182526e-01
    outer loop
      vertex   2.857500e+01 -9.406296e+00 2.848657e+01
      vertex   1.587500e+01 -9.406296e+00 2.848657e+01
      vertex   2.857500e+01 -9.495278e+00 2.773938e+01
    endloop
  endfacet
  facet normal 0.000000e+00 -9.929836e-01 1.182526e-01
    outer loop
      vertex   2.857500e+01 -9.495278e+00 2.773938e+01
      vertex   1.587500e+01 -9.406296e+00 2.848657e+01
      vertex   1.587500e+01 -9.495278e+00 2.773938e+01
    endloop
  endfacet
  facet normal -5.518378e-17 -9.805504e-01 1.962674e-01
    outer loop
      vertex   4.127500e+01 -9.406296e+00 2.848657e+01
      vertex   4.127500e+01 -9.258611e+00 2.922441e+01
      vertex   2.857500e+01 -9.258611e+00 2.922441e+01
    endloop
  endfacet
  facet normal -7.638541e-17 -9.619977e-01 2.730574e-01
    outer loop
      vertex   2.857500e+01 -9.258611e+00 2.922441e+01
      vertex   4.127500e+01 -9.258611e+00 2.922441e+01
      vertex   2.857500e+01 -9.053144e+00 2.994828e+01
    endloop
  endfacet
  facet normal 0.000000e+00 -9.805504e-01 1.962674e-01
    outer loop
      vertex   4.127500e+01 -9.406296e+00 2.848657e+01
      vertex   2.857500e+01 -9.258611e+00 2.922441e+01
      vertex   2.857500e+01 -9.406296e+00 2.848657e+01
    endloop
  endfacet
  facet normal 0.000000e+00 -9.929836e-01 1.182526e-01
    outer loop
      vertex   4.127500e+01 -9.495278e+00 2.773938e+01
      vertex   4.127500e+01 -9.406296e+00 2.848657e+01
      vertex   2.857500e+01 -9.406296e+00 2.848657e+01
    endloop
  endfacet
  facet normal 0.000000e+00 -9.929836e-01 1.182526e-01
    outer loop
      vertex   4.127500e+01 -9.495278e+00 2.773938e+01
      vertex   2.857500e+01 -9.406296e+00 2.848657e+01
      vertex   2.857500e+01 -9.495278e+00 2.773938e+01
    endloop
  endfacet
  facet normal 0.000000e+00 9.374414e-01 -3.481432e-01
    outer loop
      vertex   3.175000e+00 8.791177e+00 -8.428674e+00
      vertex   2.857500e+01 9.053144e+00 -7.723279e+00
      vertex   5.397500e+01 8.791177e+00 -8.428674e+00
    endloop
  endfacet
  facet normal 0.000000e+00 9.374414e-01 -3.481432e-01
    outer loop
      vertex   5.397500e+01 8.791177e+00 -8.428674e+00
      vertex   2.857500e+01 9.053144e+00 -7.723279e+00
      vertex   4.127500e+01 9.053144e+00 -7.723279e+00
    endloop
  endfacet
  facet normal 0.000000e+00 9.374414e-01 -3.481432e-01
    outer loop
      vertex   5.397500e+01 8.791177e+00 -8.428674e+00
      vertex   4.127500e+01 9.053144e+00 -7.723279e+00
      vertex   5.397500e+01 9.053144e+00 -7.723279e+00
    endloop
  endfacet
  facet normal 0.000000e+00 9.619977e-01 -2.730574e-01
    outer loop
      vertex   5.397500e+01 9.053144e+00 -7.723279e+00
      vertex   4.127500e+01 9.053144e+00 -7.723279e+00
      vertex   5.397500e+01 9.258611e+00 -6.999405e+00
    endloop
  endfacet
  facet normal 0.000000e+00 9.619977e-01 -2.730574e-01
    outer loop
      vertex   5.397500e+01 9.258611e+00 -6.999405e+00
      vertex   4.127500e+01 9.053144e+00 -7.723279e+00
      vertex   4.127500e+01 9.258611e+00 -6.999405e+00
    endloop
  endfacet
  facet normal 0.000000e+00 9.805504e-01 -1.962674e-01
    outer loop
      vertex   5.397500e+01 9.258611e+00 -6.999405e+00
      vertex   4.127500e+01 9.258611e+00 -6.999405e+00
      vertex   5.397500e+01 9.406296e+00 -6.261571e+00
    endloop
  endfacet
  facet normal 0.000000e+00 9.805504e-01 -1.962674e-01
    outer loop
      vertex   5.397500e+01 9.406296e+00 -6.261571e+00
      vertex   4.127500e+01 9.258611e+00 -6.999405e+00
      vertex   4.127500e+01 9.406296e+00 -6.261571e+00
    endloop
  endfacet
  facet normal 0.000000e+00 9.929836e-01 -1.182526e-01
    outer loop
      vertex   5.397500e+01 9.406296e+00 -6.261571e+00
      vertex   4.127500e+01 9.406296e+00 -6.261571e+00
      vertex   5.397500e+01 9.495278e+00 -5.514382e+00
    endloop
  endfacet
  facet normal 0.000000e+00 9.929836e-01 -1.182526e-01
    outer loop
      vertex   5.397500e+01 9.495278e+00 -5.514382e+00
      vertex   4.127500e+01 9.406296e+00 -6.261571e+00
      vertex   4.127500e+01 9.495278e+00 -5.514382e+00
    endloop
  endfacet
  facet normal 0.000000e+00 9.992196e-01 -3.949969e-02
    outer loop
      vertex   5.397500e+01 9.495278e+00 -5.514382e+00
      vertex   4.127500e+01 9.495278e+00 -5.514382e+00
      vertex   5.397500e+01 9.525000e+00 -4.762500e+00
    endloop
  endfacet
  facet normal 0.000000e+00 9.992196e-01 -3.949969e-02
    outer loop
      vertex   5.397500e+01 9.525000e+00 -4.762500e+00
      vertex   4.127500e+01 9.495278e+00 -5.514382e+00
      vertex   2.857500e+01 9.495278e+00 -5.514382e+00
    endloop
  endfacet
  facet normal -3.563097e-17 9.992196e-01 -3.949969e-02
    outer loop
      vertex   5.397500e+01 9.525000e+00 -4.762500e+00
      vertex   2.857500e+01 9.495278e+00 -5.514382e+00
      vertex   3.175000e+00 9.525000e+00 -4.762500e+00
    endloop
  endfacet
  facet normal 0.000000e+00 9.992196e-01 -3.949969e-02
    outer loop
      vertex   3.175000e+00 9.525000e+00 -4.762500e+00
      vertex   2.857500e+01 9.495278e+00 -5.514382e+00
      vertex   1.587500e+01 9.495278e+00 -5.514382e+00
    endloop
  endfacet
  facet normal 0.000000e+00 9.992196e-01 -3.949969e-02
    outer loop
      vertex   3.175000e+00 9.525000e+00 -4.762500e+00
      vertex   1.587500e+01 9.495278e+00 -5.514382e+00
      vertex   3.175000e+00 9.495278e+00 -5.514382e+00
    endloop
  endfacet
  facet normal 0.000000e+00 9.929836e-01 -1.182526e-01
    outer loop
      vertex   3.175000e+00 9.495278e+00 -5.514382e+00
      vertex   1.587500e+01 9.495278e+00 -5.514382e+00
      vertex   3.175000e+00 9.406296e+00 -6.261571e+00
    endloop
  endfacet
  facet normal 0.000000e+00 9.929836e-01 -1.182526e-01
    outer loop
      vertex   3.175000e+00 9.406296e+00 -6.261571e+00
      vertex   1.587500e+01 9.495278e+00 -5.514382e+00
      vertex   1.587500e+01 9.406296e+00 -6.261571e+00
    endloop
  endfacet
  facet normal 0.000000e+00 9.805504e-01 -1.962674e-01
    outer loop
      vertex   3.175000e+00 9.406296e+00 -6.261571e+00
      vertex   1.587500e+01 9.406296e+00 -6.261571e+00
      vertex   3.175000e+00 9.258611e+00 -6.999405e+00
    endloop
  endfacet
  facet normal 0.000000e+00 9.805504e-01 -1.962674e-01
    outer loop
      vertex   3.175000e+00 9.258611e+00 -6.999405e+00
      vertex   1.587500e+01 9.406296e+00 -6.261571e+00
      vertex   1.587500e+01 9.258611e+00 -6.999405e+00
    endloop
  endfacet
  facet normal 0.000000e+00 9.619977e-01 -2.730574e-01
    outer loop
      vertex   3.175000e+00 9.258611e+00 -6.999405e+00
      vertex   1.587500e+01 9.258611e+00 -6.999405e+00
      vertex   3.175000e+00 9.053144e+00 -7.723279e+00
    endloop
  endfacet
  facet normal 0.000000e+00 9.619977e-01 -2.730574e-01
    outer loop
      vertex   3.175000e+00 9.053144e+00 -7.723279e+00
      vertex   1.587500e+01 9.258611e+00 -6.999405e+00
      vertex   1.587500e+01 9.053144e+00 -7.723279e+00
    endloop
  endfacet
  facet normal 0.000000e+00 9.374414e-01 -3.481432e-01
    outer loop
      vertex   3.175000e+00 9.053144e+00 -7.723279e+00
      vertex   1.587500e+01 9.053144e+00 -7.723279e+00
      vertex   3.175000e+00 8.791177e+00 -8.428674e+00
    endloop
  endfacet
  facet normal 0.000000e+00 9.374414e-01 -3.481432e-01
    outer loop
      vertex   3.175000e+00 8.791177e+00 -8.428674e+00
      vertex   1.587500e+01 9.053144e+00 -7.723279e+00
      vertex   2.857500e+01 9.053144e+00 -7.723279e+00
    endloop
  endfacet
  facet normal 0.000000e+00 9.619977e-01 -2.730574e-01
    outer loop
      vertex   4.127500e+01 9.258611e+00 -6.999405e+00
      vertex   4.127500e+01 9.053144e+00 -7.723279e+00
      vertex   2.857500e+01 9.053144e+00 -7.723279e+00
    endloop
  endfacet
  facet normal 0.000000e+00 9.619977e-01 -2.730574e-01
    outer loop
      vertex   2.857500e+01 9.053144e+00 -7.723279e+00
      vertex   1.587500e+01 9.053144e+00 -7.723279e+00
      vertex   2.857500e+01 9.258611e+00 -6.999405e+00
    endloop
  endfacet
  facet normal 0.000000e+00 9.619977e-01 -2.730574e-01
    outer loop
      vertex   2.857500e+01 9.258611e+00 -6.999405e+00
      vertex   1.587500e+01 9.053144e+00 -7.723279e+00
      vertex   1.587500e+01 9.258611e+00 -6.999405e+00
    endloop
  endfacet
  facet normal 0.000000e+00 9.805504e-01 -1.962674e-01
    outer loop
      vertex   2.857500e+01 9.258611e+00 -6.999405e+00
      vertex   1.587500e+01 9.258611e+00 -6.999405e+00
      vertex   2.857500e+01 9.406296e+00 -6.261571e+00
    endloop
  endfacet
  facet normal 0.000000e+00 9.805504e-01 -1.962674e-01
    outer loop
      vertex   2.857500e+01 9.406296e+00 -6.261571e+00
      vertex   1.587500e+01 9.258611e+00 -6.999405e+00
      vertex   1.587500e+01 9.406296e+00 -6.261571e+00
    endloop
  endfacet
  facet normal 0.000000e+00 9.929836e-01 -1.182526e-01
    outer loop
      vertex   2.857500e+01 9.406296e+00 -6.261571e+00
      vertex   1.587500e+01 9.406296e+00 -6.261571e+00
      vertex   2.857500e+01 9.495278e+00 -5.514382e+00
    endloop
  endfacet
  facet normal 0.000000e+00 9.929836e-01 -1.182526e-01
    outer loop
      vertex   2.857500e+01 9.495278e+00 -5.514382e+00
      vertex   1.587500e+01 9.406296e+00 -6.261571e+00
      vertex   1.587500e+01 9.495278e+00 -5.514382e+00
    endloop
  endfacet
  facet normal 0.000000e+00 9.805504e-01 -1.962674e-01
    outer loop
      vertex   4.127500e+01 9.406296e+00 -6.261571e+00
      vertex   4.127500e+01 9.258611e+00 -6.999405e+00
      vertex   2.857500e+01 9.258611e+00 -6.999405e+00
    endloop
  endfacet
  facet normal 0.000000e+00 9.619977e-01 -2.730574e-01
    outer loop
      vertex   2.857500e+01 9.258611e+00 -6.999405e+00
      vertex   4.127500e+01 9.258611e+00 -6.999405e+00
      vertex   2.857500e+01 9.053144e+00 -7.723279e+00
    endloop
  endfacet
  facet normal 0.000000e+00 9.805504e-01 -1.962674e-01
    outer loop
      vertex   4.127500e+01 9.406296e+00 -6.261571e+00
      vertex   2.857500e+01 9.258611e+00 -6.999405e+00
      vertex   2.857500e+01 9.406296e+00 -6.261571e+00
    endloop
  endfacet
  facet normal 0.000000e+00 9.929836e-01 -1.182526e-01
    outer loop
      vertex   4.127500e+01 9.495278e+00 -5.514382e+00
      vertex   4.127500e+01 9.406296e+00 -6.261571e+00
      vertex   2.857500e+01 9.406296e+00 -6.261571e+00
    endloop
  endfacet
  facet normal 0.000000e+00 9.929836e-01 -1.182526e-01
    outer loop
      vertex   4.127500e+01 9.495278e+00 -5.514382e+00
      vertex   2.857500e+01 9.406296e+00 -6.261571e+00
      vertex   2.857500e+01 9.495278e+00 -5.514382e+00
    endloop
  endfacet
  facet normal 0.000000e+00 -1.000000e+00 -1.118965e-15
    outer loop
      vertex   3.175000e+00 -9.525000e+00 2.698750e+01
      vertex   3.175000e+00 -9.525000e+00 -4.762500e+00
      vertex   5.397500e+01 -9.525000e+00 2.698750e+01
    endloop
  endfacet
  facet normal -1.252083e-31 -1.000000e+00 -1.118965e-15
    outer loop
      vertex   5.397500e+01 -9.525000e+00 2.698750e+01
      vertex   3.175000e+00 -9.525000e+00 -4.762500e+00
      vertex   5.397500e+01 -9.525000e+00 -4.762500e+00
    endloop
  endfacet
  facet normal -1.000000e+00 -3.638321e-16 1.351185e-16
    outer loop
      vertex   3.175000e+00 8.791177e+00 -8.428674e+00
      vertex   3.175000e+00 6.350000e+00 -8.428674e+00
      vertex   3.175000e+00 9.053144e+00 -7.723279e+00
    endloop
  endfacet
  facet normal -1.000000e+00 -3.548567e-16 1.007240e-16
    outer loop
      vertex   3.175000e+00 9.053144e+00 -7.723279e+00
      vertex   3.175000e+00 6.350000e+00 -8.428674e+00
      vertex   3.175000e+00 9.258611e+00 -6.999405e+00
    endloop
  endfacet
  facet normal -1.000000e+00 -3.386726e-16 6.778886e-17
    outer loop
      vertex   3.175000e+00 9.258611e+00 -6.999405e+00
      vertex   3.175000e+00 6.350000e+00 -8.428674e+00
      vertex   3.175000e+00 9.406296e+00 -6.261571e+00
    endloop
  endfacet
  facet normal -1.000000e+00 -3.174083e-16 3.779957e-17
    outer loop
      vertex   3.175000e+00 9.406296e+00 -6.261571e+00
      vertex   3.175000e+00 6.350000e+00 -8.428674e+00
      vertex   3.175000e+00 9.495278e+00 -5.514382e+00
    endloop
  endfacet
  facet normal -1.000000e+00 -2.931210e-16 1.158723e-17
    outer loop
      vertex   3.175000e+00 9.495278e+00 -5.514382e+00
      vertex   3.175000e+00 6.350000e+00 -8.428674e+00
      vertex   3.175000e+00 9.525000e+00 -4.762500e+00
    endloop
  endfacet
  facet normal -1.000000e+00 -2.797412e-16 -2.033129e-31
    outer loop
      vertex   3.175000e+00 9.525000e+00 -4.762500e+00
      vertex   3.175000e+00 6.350000e+00 -8.428674e+00
      vertex   3.175000e+00 6.350000e+00 -1.096326e+00
    endloop
  endfacet
  facet normal -1.000000e+00 -2.797412e-16 0.000000e+00
    outer loop
      vertex   3.175000e+00 9.525000e+00 -4.762500e+00
      vertex   3.175000e+00 6.350000e+00 -1.096326e+00
      vertex   3.175000e+00 6.350000e+00 2.332133e+01
    endloop
  endfacet
  facet normal -1.000000e+00 0.000000e+00 -0.000000e+00
    outer loop
      vertex   3.175000e+00 6.350000e+00 2.332133e+01
      vertex   3.175000e+00 6.350000e+00 -1.096326e+00
      vertex   3.175000e+00 1.110223e-15 1.965515e+01
    endloop
  endfacet
  facet normal -1.000000e+00 0.000000e+00 0.000000e+00
    outer loop
      vertex   3.175000e+00 1.110223e-15 1.965515e+01
      vertex   3.175000e+00 6.350000e+00 -1.096326e+00
      vertex   3.175000e+00 1.110223e-15 2.569848e+00
    endloop
  endfacet
  facet normal -1.000000e+00 -0.000000e+00 -0.000000e+00
    outer loop
      vertex   3.175000e+00 1.110223e-15 1.965515e+01
      vertex   3.175000e+00 1.110223e-15 2.569848e+00
      vertex   3.175000e+00 -6.350000e+00 2.332133e+01
    endloop
  endfacet
  facet normal -1.000000e+00 0.000000e+00 0.000000e+00
    outer loop
      vertex   3.175000e+00 -6.350000e+00 2.332133e+01
      vertex   3.175000e+00 1.110223e-15 2.569848e+00
      vertex   3.175000e+00 -6.350000e+00 -1.096326e+00
    endloop
  endfacet
  facet normal -1.000000e+00 2.797412e-16 0.000000e+00
    outer loop
      vertex   3.175000e+00 -6.350000e+00 2.332133e+01
      vertex   3.175000e+00 -6.350000e+00 -1.096326e+00
      vertex   3.175000e+00 -9.525000e+00 2.698750e+01
    endloop
  endfacet
  facet normal -1.000000e+00 2.797412e-16 3.130206e-31
    outer loop
      vertex   3.175000e+00 -9.525000e+00 2.698750e+01
      vertex   3.175000e+00 -6.350000e+00 -1.096326e+00
      vertex   3.175000e+00 -9.525000e+00 -4.762500e+00
    endloop
  endfacet
  facet normal -1.000000e+00 2.797412e-16 2.033129e-31
    outer loop
      vertex   3.175000e+00 -9.525000e+00 -4.762500e+00
      vertex   3.175000e+00 -6.350000e+00 -1.096326e+00
      vertex   3.175000e+00 -6.350000e+00 -8.428674e+00
    endloop
  endfacet
  facet normal -1.000000e+00 2.931210e-16 1.158723e-17
    outer loop
      vertex   3.175000e+00 -9.525000e+00 -4.762500e+00
      vertex   3.175000e+00 -6.350000e+00 -8.428674e+00
      vertex   3.175000e+00 -9.495278e+00 -5.514382e+00
    endloop
  endfacet
  facet normal -1.000000e+00 3.174083e-16 3.779957e-17
    outer loop
      vertex   3.175000e+00 -9.495278e+00 -5.514382e+00
      vertex   3.175000e+00 -6.350000e+00 -8.428674e+00
      vertex   3.175000e+00 -9.406296e+00 -6.261571e+00
    endloop
  endfacet
  facet normal -1.000000e+00 3.386726e-16 6.778886e-17
    outer loop
      vertex   3.175000e+00 -9.406296e+00 -6.261571e+00
      vertex   3.175000e+00 -6.350000e+00 -8.428674e+00
      vertex   3.175000e+00 -9.258611e+00 -6.999405e+00
    endloop
  endfacet
  facet normal -1.000000e+00 3.548567e-16 1.007240e-16
    outer loop
      vertex   3.175000e+00 -9.258611e+00 -6.999405e+00
      vertex   3.175000e+00 -6.350000e+00 -8.428674e+00
      vertex   3.175000e+00 -9.053144e+00 -7.723279e+00
    endloop
  endfacet
  facet normal -1.000000e+00 3.638321e-16 1.351185e-16
    outer loop
      vertex   3.175000e+00 -9.053144e+00 -7.723279e+00
      vertex   3.175000e+00 -6.350000e+00 -8.428674e+00
      vertex   3.175000e+00 -8.791177e+00 -8.428674e+00
    endloop
  endfacet
  facet normal -1.000000e+00 2.797412e-16 -2.033129e-31
    outer loop
      vertex   3.175000e+00 -6.350000e+00 2.332133e+01
      vertex   3.175000e+00 -9.525000e+00 2.698750e+01
      vertex   3.175000e+00 -6.350000e+00 3.065367e+01
    endloop
  endfacet
  facet normal -1.000000e+00 2.931210e-16 -1.158723e-17
    outer loop
      vertex   3.175000e+00 -6.350000e+00 3.065367e+01
      vertex   3.175000e+00 -9.525000e+00 2.698750e+01
      vertex   3.175000e+00 -9.495278e+00 2.773938e+01
    endloop
  endfacet
  facet normal -1.000000e+00 3.174083e-16 -3.779957e-17
    outer loop
      vertex   3.175000e+00 -6.350000e+00 3.065367e+01
      vertex   3.175000e+00 -9.495278e+00 2.773938e+01
      vertex   3.175000e+00 -9.406296e+00 2.848657e+01
    endloop
  endfacet
  facet normal -1.000000e+00 3.386726e-16 -6.778886e-17
    outer loop
      vertex   3.175000e+00 -9.406296e+00 2.848657e+01
      vertex   3.175000e+00 -9.258611e+00 2.922441e+01
      vertex   3.175000e+00 -6.350000e+00 3.065367e+01
    endloop
  endfacet
  facet normal -1.000000e+00 3.548567e-16 -1.007240e-16
    outer loop
      vertex   3.175000e+00 -6.350000e+00 3.065367e+01
      vertex   3.175000e+00 -9.258611e+00 2.922441e+01
      vertex   3.175000e+00 -9.053144e+00 2.994828e+01
    endloop
  endfacet
  facet normal -1.000000e+00 3.638321e-16 -1.351185e-16
    outer loop
      vertex   3.175000e+00 -6.350000e+00 3.065367e+01
      vertex   3.175000e+00 -9.053144e+00 2.994828e+01
      vertex   3.175000e+00 -8.791177e+00 3.065367e+01
    endloop
  endfacet
  facet normal -1.000000e+00 -2.797412e-16 3.286717e-31
    outer loop
      vertex   3.175000e+00 9.525000e+00 -4.762500e+00
      vertex   3.175000e+00 6.350000e+00 2.332133e+01
      vertex   3.175000e+00 9.525000e+00 2.698750e+01
    endloop
  endfacet
  facet normal -1.000000e+00 -2.797412e-16 2.033129e-31
    outer loop
      vertex   3.175000e+00 9.525000e+00 2.698750e+01
      vertex   3.175000e+00 6.350000e+00 2.332133e+01
      vertex   3.175000e+00 6.350000e+00 3.065367e+01
    endloop
  endfacet
  facet normal -1.000000e+00 -2.931210e-16 -1.158723e-17
    outer loop
      vertex   3.175000e+00 9.525000e+00 2.698750e+01
      vertex   3.175000e+00 6.350000e+00 3.065367e+01
      vertex   3.175000e+00 9.495278e+00 2.773938e+01
    endloop
  endfacet
  facet normal -1.000000e+00 -3.174083e-16 -3.779957e-17
    outer loop
      vertex   3.175000e+00 9.495278e+00 2.773938e+01
      vertex   3.175000e+00 6.350000e+00 3.065367e+01
      vertex   3.175000e+00 9.406296e+00 2.848657e+01
    endloop
  endfacet
  facet normal -1.000000e+00 -3.386726e-16 -6.778886e-17
    outer loop
      vertex   3.175000e+00 9.406296e+00 2.848657e+01
      vertex   3.175000e+00 6.350000e+00 3.065367e+01
      vertex   3.175000e+00 9.258611e+00 2.922441e+01
    endloop
  endfacet
  facet normal -1.000000e+00 -3.548567e-16 -1.007240e-16
    outer loop
      vertex   3.175000e+00 9.258611e+00 2.922441e+01
      vertex   3.175000e+00 6.350000e+00 3.065367e+01
      vertex   3.175000e+00 9.053144e+00 2.994828e+01
    endloop
  endfacet
  facet normal -1.000000e+00 -3.638321e-16 -1.351185e-16
    outer loop
      vertex   3.175000e+00 9.053144e+00 2.994828e+01
      vertex   3.175000e+00 6.350000e+00 3.065367e+01
      vertex   3.175000e+00 8.791177e+00 3.065367e+01
    endloop
  endfacet
  facet normal 0.000000e+00 1.000000e+00 -7.267890e-16
    outer loop
      vertex   5.397500e+01 -6.350000e+00 3.065367e+01
      vertex   5.397500e+01 -6.350000e+00 2.332133e+01
      vertex   3.175000e+00 -6.350000e+00 3.065367e+01
    endloop
  endfacet
  facet normal 0.000000e+00 1.000000e+00 -7.267890e-16
    outer loop
      vertex   3.175000e+00 -6.350000e+00 3.065367e+01
      vertex   5.397500e+01 -6.350000e+00 2.332133e+01
      vertex   3.175000e+00 -6.350000e+00 2.332133e+01
    endloop
  endfacet
  facet normal 0.000000e+00 5.000000e-01 8.660254e-01
    outer loop
      vertex   5.397500e+01 -6.350000e+00 2.332133e+01
      vertex   5.397500e+01 1.110223e-15 1.965515e+01
      vertex   3.175000e+00 -6.350000e+00 2.332133e+01
    endloop
  endfacet
  facet normal 0.000000e+00 5.000000e-01 8.660254e-01
    outer loop
      vertex   3.175000e+00 -6.350000e+00 2.332133e+01
      vertex   5.397500e+01 1.110223e-15 1.965515e+01
      vertex   3.175000e+00 1.110223e-15 1.965515e+01
    endloop
  endfacet
  facet normal 0.000000e+00 -5.000000e-01 8.660254e-01
    outer loop
      vertex   5.397500e+01 1.110223e-15 1.965515e+01
      vertex   5.397500e+01 6.350000e+00 2.332133e+01
      vertex   3.175000e+00 1.110223e-15 1.965515e+01
    endloop
  endfacet
  facet normal 0.000000e+00 -5.000000e-01 8.660254e-01
    outer loop
      vertex   3.175000e+00 1.110223e-15 1.965515e+01
      vertex   5.397500e+01 6.350000e+00 2.332133e+01
      vertex   3.175000e+00 6.350000e+00 2.332133e+01
    endloop
  endfacet
  facet normal 0.000000e+00 -1.000000e+00 7.267890e-16
    outer loop
      vertex   5.397500e+01 6.350000e+00 2.332133e+01
      vertex   5.397500e+01 6.350000e+00 3.065367e+01
      vertex   3.175000e+00 6.350000e+00 2.332133e+01
    endloop
  endfacet
  facet normal 0.000000e+00 -1.000000e+00 7.267890e-16
    outer loop
      vertex   3.175000e+00 6.350000e+00 2.332133e+01
      vertex   5.397500e+01 6.350000e+00 3.065367e+01
      vertex   3.175000e+00 6.350000e+00 3.065367e+01
    endloop
  endfacet
  facet normal 0.000000e+00 1.000000e+00 7.267890e-16
    outer loop
      vertex   5.397500e+01 -6.350000e+00 -1.096326e+00
      vertex   5.397500e+01 -6.350000e+00 -8.428674e+00
      vertex   3.175000e+00 -6.350000e+00 -1.096326e+00
    endloop
  endfacet
  facet normal 0.000000e+00 1.000000e+00 7.267890e-16
    outer loop
      vertex   3.175000e+00 -6.350000e+00 -1.096326e+00
      vertex   5.397500e+01 -6.350000e+00 -8.428674e+00
      vertex   3.175000e+00 -6.350000e+00 -8.428674e+00
    endloop
  endfacet
  facet normal -0.000000e+00 -1.000000e+00 -7.267890e-16
    outer loop
      vertex   5.397500e+01 6.350000e+00 -8.428674e+00
      vertex   5.397500e+01 6.350000e+00 -1.096326e+00
      vertex   3.175000e+00 6.350000e+00 -8.428674e+00
    endloop
  endfacet
  facet normal 0.000000e+00 -1.000000e+00 -7.267890e-16
    outer loop
      vertex   3.175000e+00 6.350000e+00 -8.428674e+00
      vertex   5.397500e+01 6.350000e+00 -1.096326e+00
      vertex   3.175000e+00 6.350000e+00 -1.096326e+00
    endloop
  endfacet
  facet normal -0.000000e+00 -5.000000e-01 -8.660254e-01
    outer loop
      vertex   5.397500e+01 6.350000e+00 -1.096326e+00
      vertex   5.397500e+01 1.110223e-15 2.569848e+00
      vertex   3.175000e+00 6.350000e+00 -1.096326e+00
    endloop
  endfacet
  facet normal 0.000000e+00 -5.000000e-01 -8.660254e-01
    outer loop
      vertex   3.175000e+00 6.350000e+00 -1.096326e+00
      vertex   5.397500e+01 1.110223e-15 2.569848e+00
      vertex   3.175000e+00 1.110223e-15 2.569848e+00
    endloop
  endfacet
  facet normal 0.000000e+00 5.000000e-01 -8.660254e-01
    outer loop
      vertex   5.397500e+01 1.110223e-15 2.569848e+00
      vertex   5.397500e+01 -6.350000e+00 -1.096326e+00
      vertex   3.175000e+00 1.110223e-15 2.569848e+00
    endloop
  endfacet
  facet normal 0.000000e+00 5.000000e-01 -8.660254e-01
    outer loop
      vertex   3.175000e+00 1.110223e-15 2.569848e+00
      vertex   5.397500e+01 -6.350000e+00 -1.096326e+00
      vertex   3.175000e+00 -6.350000e+00 -1.096326e+00
    endloop
  endfacet
  facet normal 0.000000e+00 1.000000e+00 -1.118965e-15
    outer loop
      vertex   5.397500e+01 9.525000e+00 2.698750e+01
      vertex   5.397500e+01 9.525000e+00 -4.762500e+00
      vertex   3.175000e+00 9.525000e+00 2.698750e+01
    endloop
  endfacet
  facet normal -3.496765e-17 1.000000e+00 -1.174913e-15
    outer loop
      vertex   3.175000e+00 9.525000e+00 2.698750e+01
      vertex   5.397500e+01 9.525000e+00 -4.762500e+00
      vertex   3.175000e+00 9.525000e+00 -4.762500e+00
    endloop
  endfacet
  facet normal 1.000000e+00 -0.000000e+00 -0.000000e+00
    outer loop
      vertex   5.397500e+01 -8.791177e+00 -8.428674e+00
      vertex   5.397500e+01 -6.350000e+00 -8.428674e+00
      vertex   5.397500e+01 -9.053144e+00 -7.723279e+00
    endloop
  endfacet
  facet normal 1.000000e+00 -0.000000e+00 -0.000000e+00
    outer loop
      vertex   5.397500e+01 -9.053144e+00 -7.723279e+00
      vertex   5.397500e+01 -6.350000e+00 -8.428674e+00
      vertex   5.397500e+01 -9.258611e+00 -6.999405e+00
    endloop
  endfacet
  facet normal 1.000000e+00 -0.000000e+00 -0.000000e+00
    outer loop
      vertex   5.397500e+01 -9.258611e+00 -6.999405e+00
      vertex   5.397500e+01 -6.350000e+00 -8.428674e+00
      vertex   5.397500e+01 -9.406296e+00 -6.261571e+00
    endloop
  endfacet
  facet normal 1.000000e+00 -0.000000e+00 -0.000000e+00
    outer loop
      vertex   5.397500e+01 -9.406296e+00 -6.261571e+00
      vertex   5.397500e+01 -6.350000e+00 -8.428674e+00
      vertex   5.397500e+01 -9.495278e+00 -5.514382e+00
    endloop
  endfacet
  facet normal 1.000000e+00 -0.000000e+00 -0.000000e+00
    outer loop
      vertex   5.397500e+01 -9.495278e+00 -5.514382e+00
      vertex   5.397500e+01 -6.350000e+00 -8.428674e+00
      vertex   5.397500e+01 -9.525000e+00 -4.762500e+00
    endloop
  endfacet
  facet normal 1.000000e+00 -0.000000e+00 0.000000e+00
    outer loop
      vertex   5.397500e+01 -9.525000e+00 -4.762500e+00
      vertex   5.397500e+01 -6.350000e+00 -8.428674e+00
      vertex   5.397500e+01 -6.350000e+00 -1.096326e+00
    endloop
  endfacet
  facet normal 1.000000e+00 0.000000e+00 0.000000e+00
    outer loop
      vertex   5.397500e+01 -9.525000e+00 -4.762500e+00
      vertex   5.397500e+01 -6.350000e+00 -1.096326e+00
      vertex   5.397500e+01 -6.350000e+00 2.332133e+01
    endloop
  endfacet
  facet normal 1.000000e+00 0.000000e+00 0.000000e+00
    outer loop
      vertex   5.397500e+01 -6.350000e+00 2.332133e+01
      vertex   5.397500e+01 -6.350000e+00 -1.096326e+00
      vertex   5.397500e+01 1.110223e-15 1.965515e+01
    endloop
  endfacet
  facet normal 1.000000e+00 0.000000e+00 0.000000e+00
    outer loop
      vertex   5.397500e+01 1.110223e-15 1.965515e+01
      vertex   5.397500e+01 -6.350000e+00 -1.096326e+00
      vertex   5.397500e+01 1.110223e-15 2.569848e+00
    endloop
  endfacet
  facet normal 1.000000e+00 -0.000000e+00 0.000000e+00
    outer loop
      vertex   5.397500e+01 1.110223e-15 1.965515e+01
      vertex   5.397500e+01 1.110223e-15 2.569848e+00
      vertex   5.397500e+01 6.350000e+00 2.332133e+01
    endloop
  endfacet
  facet normal 1.000000e+00 0.000000e+00 0.000000e+00
    outer loop
      vertex   5.397500e+01 6.350000e+00 2.332133e+01
      vertex   5.397500e+01 1.110223e-15 2.569848e+00
      vertex   5.397500e+01 6.350000e+00 -1.096326e+00
    endloop
  endfacet
  facet normal 1.000000e+00 -0.000000e+00 0.000000e+00
    outer loop
      vertex   5.397500e+01 6.350000e+00 2.332133e+01
      vertex   5.397500e+01 6.350000e+00 -1.096326e+00
      vertex   5.397500e+01 9.525000e+00 2.698750e+01
    endloop
  endfacet
  facet normal 1.000000e+00 0.000000e+00 0.000000e+00
    outer loop
      vertex   5.397500e+01 9.525000e+00 2.698750e+01
      vertex   5.397500e+01 6.350000e+00 -1.096326e+00
      vertex   5.397500e+01 9.525000e+00 -4.762500e+00
    endloop
  endfacet
  facet normal 1.000000e+00 0.000000e+00 0.000000e+00
    outer loop
      vertex   5.397500e+01 9.525000e+00 -4.762500e+00
      vertex   5.397500e+01 6.350000e+00 -1.096326e+00
      vertex   5.397500e+01 6.350000e+00 -8.428674e+00
    endloop
  endfacet
  facet normal 1.000000e+00 0.000000e+00 0.000000e+00
    outer loop
      vertex   5.397500e+01 9.525000e+00 -4.762500e+00
      vertex   5.397500e+01 6.350000e+00 -8.428674e+00
      vertex   5.397500e+01 9.495278e+00 -5.514382e+00
    endloop
  endfacet
  facet normal 1.000000e+00 0.000000e+00 0.000000e+00
    outer loop
      vertex   5.397500e+01 9.495278e+00 -5.514382e+00
      vertex   5.397500e+01 6.350000e+00 -8.428674e+00
      vertex   5.397500e+01 9.406296e+00 -6.261571e+00
    endloop
  endfacet
  facet normal 1.000000e+00 0.000000e+00 0.000000e+00
    outer loop
      vertex   5.397500e+01 9.406296e+00 -6.261571e+00
      vertex   5.397500e+01 6.350000e+00 -8.428674e+00
      vertex   5.397500e+01 9.258611e+00 -6.999405e+00
    endloop
  endfacet
  facet normal 1.000000e+00 0.000000e+00 0.000000e+00
    outer loop
      vertex   5.397500e+01 9.258611e+00 -6.999405e+00
      vertex   5.397500e+01 6.350000e+00 -8.428674e+00
      vertex   5.397500e+01 9.053144e+00 -7.723279e+00
    endloop
  endfacet
  facet normal 1.000000e+00 0.000000e+00 0.000000e+00
    outer loop
      vertex   5.397500e+01 9.053144e+00 -7.723279e+00
      vertex   5.397500e+01 6.350000e+00 -8.428674e+00
      vertex   5.397500e+01 8.791177e+00 -8.428674e+00
    endloop
  endfacet
  facet normal 1.000000e+00 0.000000e+00 0.000000e+00
    outer loop
      vertex   5.397500e+01 6.350000e+00 2.332133e+01
      vertex   5.397500e+01 9.525000e+00 2.698750e+01
      vertex   5.397500e+01 6.350000e+00 3.065367e+01
    endloop
  endfacet
  facet normal 1.000000e+00 0.000000e+00 0.000000e+00
    outer loop
      vertex   5.397500e+01 6.350000e+00 3.065367e+01
      vertex   5.397500e+01 9.525000e+00 2.698750e+01
      vertex   5.397500e+01 9.495278e+00 2.773938e+01
    endloop
  endfacet
  facet normal 1.000000e+00 0.000000e+00 0.000000e+00
    outer loop
      vertex   5.397500e+01 6.350000e+00 3.065367e+01
      vertex   5.397500e+01 9.495278e+00 2.773938e+01
      vertex   5.397500e+01 9.406296e+00 2.848657e+01
    endloop
  endfacet
  facet normal 1.000000e+00 0.000000e+00 0.000000e+00
    outer loop
      vertex   5.397500e+01 9.406296e+00 2.848657e+01
      vertex   5.397500e+01 9.258611e+00 2.922441e+01
      vertex   5.397500e+01 6.350000e+00 3.065367e+01
    endloop
  endfacet
  facet normal 1.000000e+00 0.000000e+00 0.000000e+00
    outer loop
      vertex   5.397500e+01 6.350000e+00 3.065367e+01
      vertex   5.397500e+01 9.258611e+00 2.922441e+01
      vertex   5.397500e+01 9.053144e+00 2.994828e+01
    endloop
  endfacet
  facet normal 1.000000e+00 0.000000e+00 0.000000e+00
    outer loop
      vertex   5.397500e+01 6.350000e+00 3.065367e+01
      vertex   5.397500e+01 9.053144e+00 2.994828e+01
      vertex   5.397500e+01 8.791177e+00 3.065367e+01
    endloop
  endfacet
  facet normal 1.000000e+00 0.000000e+00 -0.000000e+00
    outer loop
      vertex   5.397500e+01 -9.525000e+00 -4.762500e+00
      vertex   5.397500e+01 -6.350000e+00 2.332133e+01
      vertex   5.397500e+01 -9.525000e+00 2.698750e+01
    endloop
  endfacet
  facet normal 1.000000e+00 -0.000000e+00 0.000000e+00
    outer loop
      vertex   5.397500e+01 -9.525000e+00 2.698750e+01
      vertex   5.397500e+01 -6.350000e+00 2.332133e+01
      vertex   5.397500e+01 -6.350000e+00 3.065367e+01
    endloop
  endfacet
  facet normal 1.000000e+00 0.000000e+00 0.000000e+00
    outer loop
      vertex   5.397500e+01 -9.525000e+00 2.698750e+01
      vertex   5.397500e+01 -6.350000e+00 3.065367e+01
      vertex   5.397500e+01 -9.495278e+00 2.773938e+01
    endloop
  endfacet
  facet normal 1.000000e+00 0.000000e+00 0.000000e+00
    outer loop
      vertex   5.397500e+01 -9.495278e+00 2.773938e+01
      vertex   5.397500e+01 -6.350000e+00 3.065367e+01
      vertex   5.397500e+01 -9.406296e+00 2.848657e+01
    endloop
  endfacet
  facet normal 1.000000e+00 0.000000e+00 0.000000e+00
    outer loop
      vertex   5.397500e+01 -9.406296e+00 2.848657e+01
      vertex   5.397500e+01 -6.350000e+00 3.065367e+01
      vertex   5.397500e+01 -9.258611e+00 2.922441e+01
    endloop
  endfacet
  facet normal 1.000000e+00 0.000000e+00 0.000000e+00
    outer loop
      vertex   5.397500e+01 -9.258611e+00 2.922441e+01
      vertex   5.397500e+01 -6.350000e+00 3.065367e+01
      vertex   5.397500e+01 -9.053144e+00 2.994828e+01
    endloop
  endfacet
  facet normal 1.000000e+00 0.000000e+00 0.000000e+00
    outer loop
      vertex   5.397500e+01 -9.053144e+00 2.994828e+01
      vertex   5.397500e+01 -6.350000e+00 3.065367e+01
      vertex   5.397500e+01 -8.791177e+00 3.065367e+01
    endloop
  endfacet
endsolid
