0
SECTION
2
HEADER
9
$INSUNITS
70
1
9
$ACADVER
1
AC1014
9
$HANDSEED
5
FFFF
0
ENDSEC
0
SECTION
2
TABLES
0
TABLE
2
VPORT
5
8
100
AcDbSymbolTable
0
ENDTAB
0
TABLE
2
LTYPE
5
5
100
AcDbSymbolTable
0
LTYPE
5
14
100
AcDbSymbolTableRecord
100
AcDbLinetypeTableRecord
2
BYBLOCK
70
0
0
LTYPE
5
15
100
AcDbSymbolTableRecord
100
AcDbLinetypeTableRecord
2
BYLAYER
70
0
0
ENDTAB
0
TABLE
2
LAYER
5
2
100
AcDbSymbolTable
70
2
0
LAYER
5
50
100
AcDbSymbolTableRecord
100
AcDbLayerTableRecord
2
0
70
0
6
CONTINUOUS
0
ENDTAB
0
TABLE
2
STYLE
5
3
100
AcDbSymbolTable
70
1
0
STYLE
5
11
100
AcDbSymbolTableRecord
100
AcDbTextStyleTableRecord
2
STANDARD
70
0
0
ENDTAB
0
TABLE
2
VIEW
5
6
100
AcDbSymbolTable
70
0
0
ENDTAB
0
TABLE
2
UCS
5
7
100
AcDbSymbolTable
70
0
0
ENDTAB
0
TABLE
2
APPID
5
9
100
AcDbSymbolTable
70
2
0
APPID
5
12
100
AcDbSymbolTableRecord
100
AcDbRegAppTableRecord
2
ACAD
70
0
0
ENDTAB
0
TABLE
2
DIMSTYLE
5
A
100
AcDbSymbolTable
70
1
0
ENDTAB
0
TABLE
2
BLOCK_RECORD
5
1
100
AcDbSymbolTable
70
1
0
BLOCK_RECORD
5
1F
100
AcDbSymbolTableRecord
100
AcDbBlockTableRecord
2
*MODEL_SPACE
0
BLOCK_RECORD
5
1B
100
AcDbSymbolTableRecord
100
AcDbBlockTableRecord
2
*PAPER_SPACE
0
ENDTAB
0
ENDSEC
0
SECTION
2
BLOCKS
0
BLOCK
5
20
100
AcDbEntity
100
AcDbBlockBegin
2
*MODEL_SPACE
0
ENDBLK
5
21
100
AcDbEntity
100
AcDbBlockEnd
0
BLOCK
5
1C
100
AcDbEntity
100
AcDbBlockBegin
2
*PAPER_SPACE
0
ENDBLK
5
1D
100
AcDbEntity
100
AcDbBlockEnd
0
ENDSEC
0
SECTION
2
ENTITIES
0
CIRCLE
5
100
100
AcDbEntity
8
0
100
AcDbCircle
10
1.5000000000000016
20
2.6435000000000191
30
0
40
0.15000000000000008
210
0
220
-0
230
1
0
CIRCLE
5
101
100
AcDbEntity
8
0
100
AcDbCircle
10
-1.5000000000000004
20
2.6435000000000195
30
0
40
0.15000000000000008
210
0
220
-0
230
1
0
LWPOLYLINE
5
102
100
AcDbEntity
8
0
100
AcDbPolyline
90
4
70
1
43
0.0
10
-2.4458661417322833
20
-0.92399999999991078
10
-2.4458661417322833
20
-0.72399999999991083
42
-0.99999999999999989
10
-2.2785433070866139
20
-0.72399999999991083
10
-2.2785433070866139
20
-0.92399999999991078
42
-0.99999999999999989
0
LWPOLYLINE
5
103
100
AcDbEntity
8
0
100
AcDbPolyline
90
4
70
1
43
0.0
10
-1.2647637795233528
20
-2.1839999999999109
10
-1.2647637795233526
20
-1.9839999999999112
42
-0.99999999999999989
10
-1.097440944886096
20
-1.9839999999999112
10
-1.0974409448860962
20
-2.1839999999999122
42
-0.99999999999999989
0
LWPOLYLINE
5
104
100
AcDbEntity
8
0
100
AcDbPolyline
90
4
70
1
43
0.0
10
0.50688976378373363
20
-2.1839999999999109
10
0.50688976378373385
20
-1.9839999999999112
42
-0.99999999999999989
10
0.67421259842099046
20
-1.9839999999999112
10
0.67421259842098979
20
-2.1839999999999113
42
-0.99999999999999989
0
LWPOLYLINE
5
105
100
AcDbEntity
8
0
100
AcDbPolyline
90
4
70
1
43
0.0
10
1.0974409448818898
20
-0.92399999999991078
10
1.0974409448818898
20
-0.72399999999991105
42
-0.99999999999999989
10
1.2647637795275588
20
-0.72399999999991083
10
1.2647637795275588
20
-0.92399999999991078
42
-0.99999999999999989
0
LWPOLYLINE
5
106
100
AcDbEntity
8
0
100
AcDbPolyline
90
4
70
1
43
0.0
10
2.2785433070908203
20
-2.1839999999999109
10
2.2785433070908203
20
-1.9839999999999112
42
-0.99999999999999989
10
2.4458661417280769
20
-1.9839999999999112
10
2.4458661417280756
20
-2.1839999999999113
42
-0.99999999999999989
0
LWPOLYLINE
5
107
100
AcDbEntity
8
0
100
AcDbPolyline
90
4
70
1
43
0.0
10
0.50688976377952755
20
-0.92399999999991078
10
0.50688976377952755
20
-0.72399999999991083
42
-0.99999999999999989
10
0.67421259842519676
20
-0.72399999999991083
10
0.67421259842519676
20
-0.92399999999991078
42
-0.99999999999999989
0
LWPOLYLINE
5
108
100
AcDbEntity
8
0
100
AcDbPolyline
90
4
70
1
43
0.0
10
1.0974409448860958
20
-2.1839999999999109
10
1.097440944886096
20
-1.9839999999999112
42
-0.99999999999999989
10
1.2647637795233526
20
-1.9839999999999112
10
1.2647637795233524
20
-2.1839999999999122
42
-0.99999999999999989
0
LWPOLYLINE
5
109
100
AcDbEntity
8
0
100
AcDbPolyline
90
4
70
1
43
0.0
10
-1.2647637795275588
20
-0.92399999999991078
10
-1.2647637795275588
20
-0.72399999999991105
42
-0.99999999999999989
10
-1.0974409448818898
20
-0.72399999999991083
10
-1.0974409448818898
20
-0.92399999999991078
42
-0.99999999999999989
0
LWPOLYLINE
5
110
100
AcDbEntity
8
0
100
AcDbPolyline
90
4
70
1
43
0.0
10
-2.4458661417280769
20
-2.1839999999999109
10
-2.4458661417280769
20
-1.9839999999999112
42
-0.99999999999999989
10
-2.2785433070908203
20
-1.9839999999999112
10
-2.2785433070908216
20
-2.1839999999999113
42
-0.99999999999999989
0
LWPOLYLINE
5
111
100
AcDbEntity
8
0
100
AcDbPolyline
90
4
70
1
43
0.0
10
-1.8553149606299213
20
-0.92399999999991078
10
-1.8553149606299213
20
-0.72399999999991083
42
-0.99999999999999989
10
-1.6879921259842516
20
-0.72399999999991083
10
-1.6879921259842516
20
-0.92399999999991078
42
-0.99999999999999989
0
LWPOLYLINE
5
112
100
AcDbEntity
8
0
100
AcDbPolyline
90
4
70
1
43
0.0
10
-0.67421259842099068
20
-2.1839999999999109
10
-0.67421259842099046
20
-1.9839999999999112
42
-0.99999999999999989
10
-0.50688976378373385
20
-1.9839999999999112
10
-0.50688976378373451
20
-2.1839999999999113
42
-0.99999999999999989
0
LWPOLYLINE
5
113
100
AcDbEntity
8
0
100
AcDbPolyline
90
4
70
1
43
0.0
10
0.083661417318628264
20
-1.9839999999999112
10
0.083661417318627654
20
-2.1839999999999113
42
-0.99999999999999989
10
-0.083661417318628514
20
-2.1839999999999109
10
-0.083661417318628445
20
-1.9839999999999112
42
-0.99999999999999989
0
LWPOLYLINE
5
114
100
AcDbEntity
8
0
100
AcDbPolyline
90
4
70
1
43
0.0
10
1.6879921259842516
20
-0.92399999999991078
10
1.6879921259842516
20
-0.72399999999991083
42
-0.99999999999999989
10
1.8553149606299213
20
-0.72399999999991083
10
1.8553149606299213
20
-0.92399999999991078
42
-0.99999999999999989
0
LWPOLYLINE
5
115
100
AcDbEntity
8
0
100
AcDbPolyline
90
4
70
1
43
0.0
10
2.2785433070866139
20
-0.92399999999991078
10
2.2785433070866139
20
-0.72399999999991083
42
-0.99999999999999989
10
2.4458661417322833
20
-0.72399999999991083
10
2.4458661417322833
20
-0.92399999999991078
42
-0.99999999999999989
0
LWPOLYLINE
5
116
100
AcDbEntity
8
0
100
AcDbPolyline
90
4
70
1
43
0.0
10
0.083661417322834608
20
-0.72399999999991083
10
0.083661417322834608
20
-0.92399999999991078
42
-0.99999999999999989
10
-0.083661417322834608
20
-0.92399999999991078
10
-0.083661417322834608
20
-0.72399999999991083
42
-0.99999999999999989
0
LWPOLYLINE
5
117
100
AcDbEntity
8
0
100
AcDbPolyline
90
4
70
1
43
0.0
10
1.687992125988458
20
-2.1839999999999109
10
1.6879921259884583
20
-1.9839999999999112
42
-0.99999999999999989
10
1.8553149606257147
20
-1.9839999999999112
10
1.8553149606257135
20
-2.1839999999999113
42
-0.99999999999999989
0
LWPOLYLINE
5
118
100
AcDbEntity
8
0
100
AcDbPolyline
90
4
70
1
43
0.0
10
-0.67421259842519676
20
-0.92399999999991078
10
-0.67421259842519676
20
-0.72399999999991083
42
-0.99999999999999989
10
-0.50688976377952755
20
-0.72399999999991083
10
-0.50688976377952755
20
-0.92399999999991078
42
-0.99999999999999989
0
LWPOLYLINE
5
119
100
AcDbEntity
8
0
100
AcDbPolyline
90
4
70
1
43
0.0
10
-1.8553149606257149
20
-2.1839999999999109
10
-1.8553149606257147
20
-1.9839999999999112
42
-0.99999999999999989
10
-1.6879921259884583
20
-1.9839999999999112
10
-1.6879921259884594
20
-2.1839999999999113
42
-0.99999999999999989
0
CIRCLE
5
120
100
AcDbEntity
8
0
100
AcDbCircle
10
-5.0750000000003794
20
-2.812500000000218
30
0
40
0.098000000000000004
210
-0
220
0
230
1
0
CIRCLE
5
121
100
AcDbEntity
8
0
100
AcDbCircle
10
-3.4967654318902565e-16
20
-2.8749999999999987
30
0
40
0.098000000000000004
210
-0
220
0
230
1
0
CIRCLE
5
122
100
AcDbEntity
8
0
100
AcDbCircle
10
3.0000000000000013
20
2.7087499999999038
30
0
40
0.098000000000000004
210
-0
220
0
230
1
0
CIRCLE
5
123
100
AcDbEntity
8
0
100
AcDbCircle
10
-3.7500974463224175
20
2.1250000000000098
30
0
40
0.098000000000000004
210
-0
220
0
230
1
0
CIRCLE
5
124
100
AcDbEntity
8
0
100
AcDbCircle
10
3.5656486558291598
20
-2.7856630123665225
30
0
40
0.098000000000000004
210
-0
220
0
230
1
0
CIRCLE
5
125
100
AcDbEntity
8
0
100
AcDbCircle
10
-3.5656486558291598
20
-2.7856630123665225
30
0
40
0.098000000000000004
210
-0
220
0
230
1
0
CIRCLE
5
126
100
AcDbEntity
8
0
100
AcDbCircle
10
3.7500974463224175
20
2.1250000000000098
30
0
40
0.098000000000000004
210
-0
220
0
230
1
0
CIRCLE
5
127
100
AcDbEntity
8
0
100
AcDbCircle
10
5.0750000000003794
20
-2.812500000000218
30
0
40
0.098000000000000004
210
-0
220
0
230
1
0
CIRCLE
5
128
100
AcDbEntity
8
0
100
AcDbCircle
10
2.1308414350581003e-16
20
2.7087499999998528
30
0
40
0.098000000000000004
210
-0
220
0
230
1
0
CIRCLE
5
129
100
AcDbEntity
8
0
100
AcDbCircle
10
-3.0000000000000013
20
2.7087499999999038
30
0
40
0.098000000000000004
210
-0
220
0
230
1
0
LWPOLYLINE
5
130
100
AcDbEntity
8
0
100
AcDbPolyline
90
12
70
1
43
0.0
10
-4.6735899999999999
20
-2.5000000000004459
42
0.41421356237309492
10
-4.0000000000000009
20
-1.8264100000004455
10
-4.0000000000000009
20
2.83023901609999
10
-3.7052390161000011
20
3.1249999999999898
10
3.7052390161000024
20
3.1249999999999898
10
4.0000000000000027
20
2.8302390160999895
10
4.0000000000000027
20
-1.8264100000004464
42
0.41421356237309476
10
4.6735900000000017
20
-2.5000000000004468
10
5.0750000000003812
20
-2.5000000000004468
42
-0.99999999999999989
10
5.0750000000003785
20
-3.1249999999999889
10
-5.0750000000003794
20
-3.1249999999999889
42
-0.99999999999999989
10
-5.0750000000003794
20
-2.5000000000004468
0
ENDSEC
0
SECTION
2
OBJECTS
0
DICTIONARY
5
C
100
AcDbDictionary
3
ACAD_GROUP
350
D
3
ACAD_MLINESTYLE
350
17
0
DICTIONARY
5
D
100
AcDbDictionary
0
DICTIONARY
5
1A
330
C
100
AcDbDictionary
0
DICTIONARY
5
17
100
AcDbDictionary
0
ENDSEC
0
EOF
