0
SECTION
2
HEADER
9
$INSUNITS
70
1
9
$ACADVER
1
AC1014
9
$HANDSEED
5
FFFF
0
ENDSEC
0
SECTION
2
TABLES
0
TABLE
2
VPORT
5
8
100
AcDbSymbolTable
0
ENDTAB
0
TABLE
2
LTYPE
5
5
100
AcDbSymbolTable
0
LTYPE
5
14
100
AcDbSymbolTableRecord
100
AcDbLinetypeTableRecord
2
BYBLOCK
70
0
0
LTYPE
5
15
100
AcDbSymbolTableRecord
100
AcDbLinetypeTableRecord
2
BYLAYER
70
0
0
ENDTAB
0
TABLE
2
LAYER
5
2
100
AcDbSymbolTable
70
2
0
LAYER
5
50
100
AcDbSymbolTableRecord
100
AcDbLayerTableRecord
2
0
70
0
6
CONTINUOUS
0
ENDTAB
0
TABLE
2
STYLE
5
3
100
AcDbSymbolTable
70
1
0
STYLE
5
11
100
AcDbSymbolTableRecord
100
AcDbTextStyleTableRecord
2
STANDARD
70
0
0
ENDTAB
0
TABLE
2
VIEW
5
6
100
AcDbSymbolTable
70
0
0
ENDTAB
0
TABLE
2
UCS
5
7
100
AcDbSymbolTable
70
0
0
ENDTAB
0
TABLE
2
APPID
5
9
100
AcDbSymbolTable
70
2
0
APPID
5
12
100
AcDbSymbolTableRecord
100
AcDbRegAppTableRecord
2
ACAD
70
0
0
ENDTAB
0
TABLE
2
DIMSTYLE
5
A
100
AcDbSymbolTable
70
1
0
ENDTAB
0
TABLE
2
BLOCK_RECORD
5
1
100
AcDbSymbolTable
70
1
0
BLOCK_RECORD
5
1F
100
AcDbSymbolTableRecord
100
AcDbBlockTableRecord
2
*MODEL_SPACE
0
BLOCK_RECORD
5
1B
100
AcDbSymbolTableRecord
100
AcDbBlockTableRecord
2
*PAPER_SPACE
0
ENDTAB
0
ENDSEC
0
SECTION
2
BLOCKS
0
BLOCK
5
20
100
AcDbEntity
100
AcDbBlockBegin
2
*MODEL_SPACE
0
ENDBLK
5
21
100
AcDbEntity
100
AcDbBlockEnd
0
BLOCK
5
1C
100
AcDbEntity
100
AcDbBlockBegin
2
*PAPER_SPACE
0
ENDBLK
5
1D
100
AcDbEntity
100
AcDbBlockEnd
0
ENDSEC
0
SECTION
2
ENTITIES
0
LWPOLYLINE
5
100
100
AcDbEntity
8
0
100
AcDbPolyline
90
15
70
1
43
0.0
10
-5.616120076658655
20
-0.14410538166728601
42
0.11632073893113085
10
-5.2610456244995927
20
-0.060367317287869392
42
-0.11632073893113108
10
-5.0050701338651171
20
0
10
0
20
0
10
0
20
2.0000000000000004
10
-4.4001188198999968
20
2.0000000000000004
42
-0.41421356237309481
10
-5.3849999999999971
20
2.9848811801000004
10
-5.3849999999999971
20
3.6738446183327147
42
0.41421356237309392
10
-5.5670499999999956
20
3.855894618332715
10
-5.6912751890493656
20
3.8558946183327145
42
0.071764056134740004
10
-5.8520120178551647
20
3.8327049360086209
42
0.12400610411598426
10
-7.0276778284249035
20
3.1386128931548627
42
0.20029747089525221
10
-7.3849999999999953
20
2.282419516419985
10
-7.384999999999998
20
0.0015546183327141882
42
0.41421356237309576
10
-7.2393399999999986
20
-0.14410538166728615
0
CIRCLE
5
101
100
AcDbEntity
8
0
100
AcDbCircle
10
-1.1499999999999986
20
0.44999999999999951
30
0
40
0.075000000000000039
210
-0
220
0
230
1
0
CIRCLE
5
102
100
AcDbEntity
8
0
100
AcDbCircle
10
-1.149999999999999
20
1.6499999999999995
30
0
40
0.075000000000000039
210
-0
220
0
230
1
0
CIRCLE
5
103
100
AcDbEntity
8
0
100
AcDbCircle
10
-7.1349999999999971
20
0.35589461833271258
30
0
40
0.062500000000000486
210
-0
220
0
230
1
0
CIRCLE
5
104
100
AcDbEntity
8
0
100
AcDbCircle
10
-5.6349999999999962
20
0.35589461833271235
30
0
40
0.062500000000000153
210
-0
220
0
230
1
0
CIRCLE
5
105
100
AcDbEntity
8
0
100
AcDbCircle
10
-2.3499999999999983
20
0.44999999999999946
30
0
40
0.075000000000000039
210
-0
220
0
230
1
0
CIRCLE
5
106
100
AcDbEntity
8
0
100
AcDbCircle
10
-6.9849999999999968
20
2.605894618332715
30
0
40
0.062499999999999799
210
-0
220
0
230
1
0
CIRCLE
5
107
100
AcDbEntity
8
0
100
AcDbCircle
10
-5.8849999999999971
20
1.8558946183327145
30
0
40
0.090000000000000052
210
-0
220
0
230
1
0
CIRCLE
5
108
100
AcDbEntity
8
0
100
AcDbCircle
10
-6.8849999999999962
20
1.8558946183327145
30
0
40
0.090000000000000052
210
-0
220
0
230
1
0
CIRCLE
5
109
100
AcDbEntity
8
0
100
AcDbCircle
10
-2.3499999999999988
20
1.6499999999999995
30
0
40
0.075000000000000039
210
-0
220
0
230
1
0
CIRCLE
5
110
100
AcDbEntity
8
0
100
AcDbCircle
10
-1.7499999999999987
20
1.0499999999999994
30
0
40
0.56500000000000006
210
-0
220
0
230
1
0
CIRCLE
5
111
100
AcDbEntity
8
0
100
AcDbCircle
10
-5.7849999999999975
20
1.1058946183327152
30
0
40
0.062500000000000153
210
-0
220
0
230
1
0
CIRCLE
5
112
100
AcDbEntity
8
0
100
AcDbCircle
10
-5.634999999999998
20
3.3558946183327123
30
0
40
0.062500000000000153
210
-0
220
0
230
1
0
CIRCLE
5
113
100
AcDbEntity
8
0
100
AcDbCircle
10
-6.9849999999999959
20
1.105894618332715
30
0
40
0.062499999999999799
210
-0
220
0
230
1
0
CIRCLE
5
114
100
AcDbEntity
8
0
100
AcDbCircle
10
-6.3849999999999971
20
1.8558946183327145
30
0
40
0.30000000000000016
210
-0
220
0
230
1
0
CIRCLE
5
115
100
AcDbEntity
8
0
100
AcDbCircle
10
-5.7849999999999975
20
2.605894618332715
30
0
40
0.062500000000000153
210
-0
220
0
230
1
0
CIRCLE
5
116
100
AcDbEntity
8
0
100
AcDbCircle
10
-0.49999999999997391
20
1.4999999999999609
30
0
40
0.062500000000000153
210
0
220
0
230
1
0
CIRCLE
5
117
100
AcDbEntity
8
0
100
AcDbCircle
10
-2.9174999999994484
20
1.5000000000000215
30
0
40
0.062499999999999972
210
0
220
0
230
1
0
CIRCLE
5
118
100
AcDbEntity
8
0
100
AcDbCircle
10
-0.49999999999999944
20
0.50000000000006428
30
0
40
0.062500000000000153
210
0
220
0
230
1
0
CIRCLE
5
119
100
AcDbEntity
8
0
100
AcDbCircle
10
-2.9174999999994733
20
0.50000000000012501
30
0
40
0.062499999999999972
210
0
220
0
230
1
0
ENDSEC
0
SECTION
2
OBJECTS
0
DICTIONARY
5
C
100
AcDbDictionary
3
ACAD_GROUP
350
D
3
ACAD_MLINESTYLE
350
17
0
DICTIONARY
5
D
100
AcDbDictionary
0
DICTIONARY
5
1A
330
C
100
AcDbDictionary
0
DICTIONARY
5
17
100
AcDbDictionary
0
ENDSEC
0
EOF
