<?xml version="1.0" encoding="UTF-8" standalone="no"?>
<!-- Created with Inkscape (http://www.inkscape.org/) -->

<svg
   width="240mm"
   height="240mm"
   viewBox="0 0 240 240.00001"
   version="1.1"
   id="svg1"
   xmlns="http://www.w3.org/2000/svg"
   xmlns:svg="http://www.w3.org/2000/svg">
  <defs
     id="defs1">
    <clipPath
       clipPathUnits="userSpaceOnUse"
       id="clipPath6382-0">
      <path
         d="M 0,800 H 800 V 0 H 0 Z"
         id="path6380-02" />
    </clipPath>
    <clipPath
       clipPathUnits="userSpaceOnUse"
       id="clipPath6406-0">
      <path
         d="M 284.941,580.678 H 452.529 V 376.758 H 284.941 Z"
         id="path6404-5" />
    </clipPath>
    <clipPath
       clipPathUnits="userSpaceOnUse"
       id="clipPath6422-9">
      <path
         d="M 155.926,390.276 H 298.601 V 173.023 H 155.926 Z"
         id="path6420-7" />
    </clipPath>
    <clipPath
       clipPathUnits="userSpaceOnUse"
       id="clipPath6438-6">
      <path
         d="m 553.411,592.406 h 93.656 V 420.223 h -93.656 z"
         id="path6436-6" />
    </clipPath>
    <clipPath
       clipPathUnits="userSpaceOnUse"
       id="clipPath6454-7">
      <path
         d="m 553.778,309.675 h 95.314 V 168.291 h -95.314 z"
         id="path6452-3" />
    </clipPath>
  </defs>
  <g
     id="layer1"
     transform="translate(-28.574991,-36.777096)">
    <g
       id="g102"
       transform="matrix(0.2917258,0,0,-0.2917258,-1576.4361,-683.56067)">
      <text
         id="text58-1-6"
         xml:space="preserve"
         transform="matrix(0.97172768,-0.23610445,-0.23610445,-0.97172768,0,0)"
         x="6384.2783"
         y="1783.6449"
         style="font-size:58.9928px;fill:#3c2215;fill-opacity:1;stroke:none;stroke-width:4.91607"><tspan
           style="font-variant:normal;font-weight:bold;font-stretch:normal;font-size:106.044px;font-family:'Museo Sans Rounded 900';writing-mode:lr-tb;fill:#3c2215;fill-opacity:1;fill-rule:nonzero;stroke:none;stroke-width:4.91607"
           x="6384.2783"
           y="1783.6449"
           id="tspan58-0-2">P</tspan></text>
      <text
         id="text59-6-7"
         xml:space="preserve"
         transform="matrix(0.99489947,-0.10087143,-0.10087143,-0.99489947,0,0)"
         x="6153.1919"
         y="2650.3096"
         style="font-size:58.9928px;fill:#3c2215;fill-opacity:1;stroke:none;stroke-width:4.91607"><tspan
           style="font-variant:normal;font-weight:bold;font-stretch:normal;font-size:106.044px;font-family:'Museo Sans Rounded 900';writing-mode:lr-tb;fill:#3c2215;fill-opacity:1;fill-rule:nonzero;stroke:none;stroke-width:4.91607"
           x="6153.1919"
           y="2650.3096"
           id="tspan59-5-6">R</tspan></text>
      <text
         id="text60-0-7"
         xml:space="preserve"
         transform="matrix(0.99971196,0.0239998,0.0239998,-0.99971196,0,0)"
         x="5849.6694"
         y="3405.6956"
         style="font-size:58.9928px;fill:#3c2215;fill-opacity:1;stroke:none;stroke-width:4.91607"><tspan
           style="font-variant:normal;font-weight:bold;font-stretch:normal;font-size:106.044px;font-family:'Museo Sans Rounded 900';writing-mode:lr-tb;fill:#3c2215;fill-opacity:1;fill-rule:nonzero;stroke:none;stroke-width:4.91607"
           x="5849.6694"
           y="3405.6956"
           id="tspan60-9-2">E</tspan></text>
      <text
         id="text61-0-6"
         xml:space="preserve"
         transform="matrix(0.98970089,0.14315078,0.14315078,-0.98970089,0,0)"
         x="5467.917"
         y="4087.1426"
         style="font-size:58.9928px;fill:#3c2215;fill-opacity:1;stroke:none;stroke-width:4.91607"><tspan
           style="font-variant:normal;font-weight:bold;font-stretch:normal;font-size:106.044px;font-family:'Museo Sans Rounded 900';writing-mode:lr-tb;fill:#3c2215;fill-opacity:1;fill-rule:nonzero;stroke:none;stroke-width:4.91607"
           x="5467.917"
           y="4087.1426"
           id="tspan61-3-4">S</tspan></text>
      <text
         id="text62-9-1"
         xml:space="preserve"
         transform="matrix(0.96377827,0.2667048,0.2667048,-0.96377827,0,0)"
         x="4976.9497"
         y="4751.5977"
         style="font-size:58.9928px;fill:#3c2215;fill-opacity:1;stroke:none;stroke-width:4.91607"><tspan
           style="font-variant:normal;font-weight:bold;font-stretch:normal;font-size:106.044px;font-family:'Museo Sans Rounded 900';writing-mode:lr-tb;fill:#3c2215;fill-opacity:1;fill-rule:nonzero;stroke:none;stroke-width:4.91607"
           x="4976.9497"
           y="4751.5977"
           id="tspan62-7-8">S</tspan></text>
      <text
         id="text64-3-2"
         xml:space="preserve"
         transform="matrix(0.99127173,0.13183455,0.13183455,-0.99127173,0,0)"
         x="5436.6411"
         y="3330.8982"
         style="font-size:58.9928px;fill:#3c2215;fill-opacity:1;stroke:none;stroke-width:4.91607"><tspan
           style="font-variant:normal;font-weight:bold;font-stretch:normal;font-size:106.044px;font-family:'Museo Sans Rounded 900';writing-mode:lr-tb;fill:#3c2215;fill-opacity:1;fill-rule:nonzero;stroke:none;stroke-width:4.91607"
           x="5436.6411"
           y="3330.8982"
           id="tspan64-4-4">O</tspan></text>
      <text
         id="text65-7-8"
         xml:space="preserve"
         transform="matrix(0.99992044,-0.01261414,-0.01261414,-0.99992044,0,0)"
         x="5943.3682"
         y="2499.2742"
         style="font-size:58.9928px;fill:#3c2215;fill-opacity:1;stroke:none;stroke-width:4.91607"><tspan
           style="font-variant:normal;font-weight:bold;font-stretch:normal;font-size:106.045px;font-family:'Museo Sans Rounded 900';writing-mode:lr-tb;fill:#3c2215;fill-opacity:1;fill-rule:nonzero;stroke:none;stroke-width:4.91607"
           x="5943.3682"
           y="2499.2742"
           id="tspan65-4-2">C</tspan></text>
      <text
         id="text66-2-2"
         xml:space="preserve"
         transform="matrix(0.99073398,-0.13581675,-0.13581675,-0.99073398,0,0)"
         x="6273.8867"
         y="1737.8652"
         style="font-size:58.9928px;fill:#3c2215;fill-opacity:1;stroke:none;stroke-width:4.91607"><tspan
           style="font-variant:normal;font-weight:bold;font-stretch:normal;font-size:106.044px;font-family:'Museo Sans Rounded 900';writing-mode:lr-tb;fill:#3c2215;fill-opacity:1;fill-rule:nonzero;stroke:none;stroke-width:4.91607"
           x="6273.8867"
           y="1737.8652"
           id="tspan66-8-6">O</tspan></text>
      <text
         id="text63-1-5"
         xml:space="preserve"
         transform="matrix(0.96394486,0.26610207,0.26610207,-0.96394486,0,0)"
         x="4862.1348"
         y="4043.583"
         style="font-size:58.9928px;fill:#3c2215;fill-opacity:1;stroke:none;stroke-width:4.91607"><tspan
           style="font-variant:normal;font-weight:bold;font-stretch:normal;font-size:106.044px;font-family:'Museo Sans Rounded 900';writing-mode:lr-tb;fill:#3c2215;fill-opacity:1;fill-rule:nonzero;stroke:none;stroke-width:4.91607"
           x="4862.1348"
           y="4043.583"
           id="tspan63-5-1">C</tspan></text>
      <text
         id="text67-7-8"
         xml:space="preserve"
         transform="matrix(0.96394334,-0.26610755,-0.26610755,-0.96394334,0,0)"
         x="6528.5645"
         y="879.28259"
         style="font-size:58.9928px;fill:#3c2215;fill-opacity:1;stroke:none;stroke-width:4.91607"><tspan
           style="font-variant:normal;font-weight:bold;font-stretch:normal;font-size:106.044px;font-family:'Museo Sans Rounded 900';writing-mode:lr-tb;fill:#3c2215;fill-opacity:1;fill-rule:nonzero;stroke:none;stroke-width:4.91607"
           x="6528.5645"
           y="879.28259"
           id="tspan67-8-9">A</tspan></text>
      <path
         style="fill:#3c2215;fill-opacity:1;stroke:none;stroke-width:0.988855"
         d="m 5927.7274,-3151.6545 c -60.9568,4.1286 -112.394,16.6156 -155.7446,37.8091 -68.9938,33.7299 -111.238,86.299 -120.867,150.4079 -2.5246,16.8087 -2.3328,24.1232 2.5124,95.8086 2.4951,36.9151 5.1935,71.7985 5.9963,77.5185 4.2945,30.5935 17.4261,60.0547 38.3384,86.0133 7.62,9.4586 25.8993,27.2698 35.4707,34.5622 33.2004,25.2949 69.795,42.2585 115.6798,53.6238 59.2372,14.6725 128.199,15.9843 195.4225,3.7173 22.668,-4.1365 52.2084,-12.6337 74.5349,-21.4397 12.1186,-4.7798 33.4307,-15.1373 39.637,-19.2632 6.3288,-4.2074 12.6254,-10.9239 15.2281,-16.2435 3.879,-7.9284 3.8832,-7.5861 -0.967,-77.972 -4.9803,-72.273 -4.5293,-69.0974 -11.2083,-78.9226 -4.0923,-6.0202 -30.103,-32.5781 -36.0151,-36.7729 -5.55,-3.9379 -9.0821,-5.7281 -15.6269,-7.9205 -4.3869,-1.4695 -6.6043,-1.7177 -15.1512,-1.6962 -12.7877,0.033 -17.1869,1.1914 -37.6136,9.9103 -41.817,17.8492 -70.592,23.7706 -110.9627,22.8345 -25.4724,-0.5907 -41.1158,-2.9638 -59.5745,-9.0375 -15.255,-5.0194 -29.7657,-12.7191 -39.5126,-20.966 l -2.5509,-2.1584 3.6634,-3.9245 c 12.1278,-12.992 31.5109,-24.6475 52.3717,-31.4924 19.497,-6.3973 37.0405,-9.2411 60.6839,-9.837 35.5741,-0.8964 64.4153,4.7292 102.1354,19.9222 17.7468,7.148 24.9688,8.9466 36.1806,9.0107 10.1638,0.058 15.5077,-1.0646 23.8732,-5.0151 8.2019,-3.8733 12.5612,-7.6219 26.693,-22.9534 17.3873,-18.8632 21.8861,-26.057 22.9401,-36.682 0.465,-4.6873 -7.363,-123.8907 -8.6214,-131.2855 -1.4679,-8.6259 -6.4056,-16.2315 -14.3962,-22.1748 -8.2761,-6.1556 -33.2228,-17.2709 -55.3094,-24.6438 -29.0595,-9.7007 -60.6674,-16.255 -94.93,-19.6851 -13.6405,-1.3655 -58.1268,-2.0129 -72.31,-1.0523 z m 59.3313,25.9474 c 48.9559,3.5293 92.4349,14.1176 133.1245,32.4196 11.0294,4.9609 16.7193,8.5184 18.198,11.378 1.5473,2.9922 1.4118,3.1099 -1.7334,1.5053 -1.55,-0.7907 -7.2817,-3.3366 -12.7372,-5.6577 -8.2303,-3.5015 -10.4218,-4.1526 -12.8725,-3.8239 -8.8068,1.1813 -10.638,13.5616 -2.5407,17.1789 1.3284,0.5934 7.4214,3.2707 13.5399,5.9495 6.1186,2.6787 12.8301,5.9993 14.9146,7.379 3.554,2.3524 3.8218,2.7485 4.3015,6.3645 0.2813,2.1208 0.3808,3.9868 0.221,4.1466 -0.1598,0.1598 -3.2635,-1.0877 -6.8973,-2.7723 -17.3678,-8.0515 -49.2674,-19.3016 -55.2153,-19.4729 -6.047,-0.174 -10.3354,4.7047 -9.2449,10.5176 0.7668,4.0872 3.6317,6.2873 11.1302,8.5474 24.286,7.3201 56.5531,20.8896 60.5541,25.4653 1.1591,1.3257 2.3904,8.4001 1.4621,8.4001 -0.2587,0 -4.5812,-1.8372 -9.6054,-4.0827 -22.1135,-9.8831 -50.2898,-19.0355 -75.4017,-24.4923 -15.9644,-3.4691 -21.6597,-3.979 -24.3985,-2.1845 -4.0963,2.6841 -5.3433,8.4061 -2.7563,12.6484 1.8156,2.9775 3.2144,3.4708 18.6259,6.5687 18.7398,3.7671 36.729,8.8411 55.2235,15.5762 9.8957,3.6037 31.5485,13.0553 31.5485,13.7713 0,0.3143 -0.5861,1.2956 -1.3026,2.1803 l -1.3026,1.6087 -8.5241,-3.437 c -38.6916,-15.6008 -79.4318,-24.7905 -126.8159,-28.6057 -13.9152,-1.1204 -51.1817,-1.1192 -66.3769,0 -90.0041,6.6418 -160.8224,32.3263 -210.9968,76.5248 l -7.0456,6.2065 3.8196,-4.4372 c 23.7812,-27.6259 63.0213,-51.9779 108.1131,-67.0938 9.4398,-3.1646 11.7679,-4.7053 13.0698,-8.65 1.7871,-5.4152 -2.6388,-11.3864 -8.4397,-11.3864 -5.2874,0 -30.0316,9.1208 -48.7027,17.9519 -32.0156,15.143 -62.2495,37.9578 -82.1596,61.9984 -2.1289,2.5706 -3.8707,4.4574 -3.8707,4.1927 0,-0.2645 1.878,-3.3689 4.1733,-6.8986 22.0158,-33.8549 56.3913,-60.737 101.8813,-79.6724 21.2074,-8.8277 43.1816,-15.3159 69.7143,-20.584 8.3619,-1.6603 15.9825,-3.5289 16.9342,-4.1522 2.4275,-1.5899 4.0634,-5.8547 3.4665,-9.0369 -0.5656,-3.0143 -3.7762,-6.5223 -6.6235,-7.2369 -2.557,-0.6418 -19.8831,2.5 -37.262,6.7567 -48.7404,11.9384 -91.2385,32.1967 -123.1137,58.6866 -7.1294,5.9249 -20.8688,19.5483 -27.9205,27.6847 l -3.5353,4.079 1.999,-3.3374 c 12.0407,-20.1025 30.943,-39.9888 52.7739,-55.5208 45.6545,-32.482 108.2273,-51.6392 184.1071,-56.3659 11.4416,-0.7128 13.9645,-1.6175 15.9031,-5.7029 1.6508,-3.4786 1.019,-7.0364 -1.8095,-10.1909 l -2.1318,-2.3775 -9.8801,0.094 c -29.8859,0.2828 -75.5168,7.7306 -108.8892,17.7724 -43.5371,13.1005 -82.8123,34.3174 -109.7064,59.2648 -7.1728,6.6536 -3.4262,1.9198 6.0731,-7.6731 42.1824,-42.5983 109.0425,-69.4242 191.5178,-76.8417 6.9344,-0.6237 14.6103,-1.2401 17.0578,-1.3699 11.1154,-0.5897 46.9848,-0.4382 56.3647,0.238 z m 16.9399,123.4495 c 46.7545,4.1904 93.5137,16.5059 130.0295,34.2475 10.3026,5.0055 13.9734,8.5424 13.3888,12.9004 -0.5183,3.864 -3.1256,7.3503 -15.8614,21.2086 -12.7538,13.8779 -14.2251,15.1915 -19.9519,17.8133 -9.0871,4.1603 -18.472,3.071 -36.1681,-4.1975 -26.9352,-11.0635 -51.4688,-17.7483 -77.9939,-21.251 -12.1492,-1.6044 -45.0382,-1.83 -57.1063,-0.3918 -38.6693,4.6086 -67.4584,14.7318 -92.5769,32.553 -8.2806,5.875 -23.568,21.3053 -29.6032,29.8799 -14.196,20.1691 -21.4001,44.78 -20.3854,69.6405 0.8722,21.3678 6.8876,39.9023 18.6724,57.5336 12.1424,18.1662 28.0853,31.7183 49.729,42.2712 26.9761,13.1531 57.1363,19.1809 95.6717,19.1214 41.4352,-0.064 74.4217,-7.6571 119.775,-27.5701 15.397,-6.7604 23.9246,-7.5035 33.3739,-2.9083 4.0822,1.9853 6.922,4.4938 18.541,16.3782 19.7351,20.1862 20.5254,21.6992 14.4303,27.6229 -6.356,6.1775 -32.7739,18.3818 -57.8163,26.7098 -42.8926,14.264 -85.3285,20.7038 -136.462,20.7086 -48.0084,0 -85.1699,-5.5935 -124.9723,-18.8259 -41.0581,-13.6498 -72.5131,-32.2626 -98.3007,-58.1674 -24.9426,-25.0559 -39.956,-53.6333 -45.2881,-86.2041 -1.621,-9.9017 -1.8084,-32.2103 -0.3574,-42.5536 11.9121,-84.9164 92.7539,-146.644 214.0371,-163.4304 26.795,-3.7086 46.4309,-4.9212 73.0516,-4.511 10.8094,0.1665 25.2741,0.8065 32.1436,1.4222 z m 102.4254,157.9389 c 2.3804,1.1646 6.5335,4.2415 9.229,6.8374 l 4.9011,4.72 -3.7018,-1.5389 c -8.8988,-3.6995 -21.8257,-4.7472 -32.0455,-2.5974 -5.8099,1.2221 -14.6011,4.2623 -19.587,6.7736 -6.4692,3.2583 -7.6603,10.2482 -2.5503,14.9662 3.4519,3.1871 6.1844,3.141 14.6531,-0.2473 9.5374,-3.8158 18.0268,-5.2496 24.5055,-4.1386 5.7414,0.9845 10.791,3.3085 15.0628,6.9324 5.0391,4.2747 27.7665,27.8843 27.7665,28.8443 0,0.5031 -3.4208,-2.4052 -7.6018,-6.463 -8.6079,-8.3541 -13.9001,-11.8531 -22.4418,-14.8374 -5.3952,-1.885 -6.8229,-2.0664 -15.9381,-2.0248 -12.121,0.055 -17.2997,1.411 -34.8572,9.1249 -6.3225,2.7779 -14.9358,6.3208 -19.1407,7.8732 -9.2265,3.4062 -11.2666,5.3278 -11.2666,10.6123 0,1.9589 0.5071,4.2103 1.1575,5.1389 1.531,2.1858 4.8972,3.869 7.7378,3.869 2.8308,0 13.045,-3.7759 28.2533,-10.4443 15.4565,-6.7771 21.1796,-8.306 29.8708,-7.9798 9.5101,0.357 14.4528,2.7764 23.5174,11.5116 3.7337,3.5978 8.5023,8.5324 10.597,10.9655 l 3.8084,4.4239 -4.7043,-3.8931 c -14.5022,-12.0014 -32.1567,-14.8969 -52.2085,-8.5625 -14.2257,4.4939 -18.3675,7.6518 -18.35,13.9908 0.011,3.8429 1.2626,6.2263 4.3712,8.3212 3.2714,2.2046 6.4736,2.1361 12.1389,-0.2599 18.821,-7.9598 31.2423,-6.9658 43.0251,3.4431 1.9553,1.7272 3.4448,3.2505 3.3102,3.3852 -0.1347,0.1347 -2.4691,-0.5626 -5.1876,-1.5493 -7.0084,-2.544 -16.1727,-3.55 -23.7542,-2.6079 -9.1729,1.1398 -15.3861,3.1058 -30.7446,9.7284 -24.2882,10.4731 -49.0707,17.9289 -69.9204,21.0358 -33.9198,5.0544 -74.9675,2.0569 -102.6307,-7.4948 -9.4789,-3.2729 -21.0178,-8.7341 -28.0062,-13.2549 -4.9133,-3.1784 -15.4664,-11.3916 -15.4664,-12.0372 0,-0.1457 1.4184,0.6052 3.152,1.6686 6.0965,3.7399 20.288,10.5995 27.5198,13.3018 14.6493,5.4742 34.7209,9.749 54.3942,11.5848 6.704,0.6256 9.7017,0.6286 11.5718,0.011 7.1819,-2.3702 9.0985,-11.3559 3.555,-16.6668 -1.8232,-1.7468 -3.1214,-2.1922 -7.9845,-2.7392 -21.7069,-2.4416 -26.7545,-3.1538 -34.3603,-4.8475 -27.453,-6.1135 -47.4627,-16.3356 -63.4736,-32.4261 -9.9447,-9.9942 -12.222,-13.4043 -5.3702,-8.0413 22.3274,17.4754 51.3114,28.2854 86.8487,32.3913 12.1022,1.3983 35.7166,2.2536 42.4026,1.5358 4.4735,-0.4802 5.4788,-0.8769 7.6018,-3 1.9815,-1.9816 2.4466,-3.0315 2.4466,-5.5241 0,-1.6926 -0.5063,-4.0565 -1.125,-5.2531 -2.0463,-3.957 -4.0558,-4.4247 -19.0479,-4.4333 -45.8048,-0.026 -81.0724,-9.7648 -107.0185,-29.5528 -5.4056,-4.1225 -14.6362,-13.4634 -18.161,-18.378 -2.8889,-4.0278 -3.2587,-4.2165 6.015,3.0693 14.4709,11.3688 35.7763,21.0174 58.1277,26.3241 20.3333,4.8276 35.961,6.2376 63.5533,5.7342 21.9139,-0.3998 38.9783,-2.2205 43.7009,-4.6626 4.5514,-2.3537 5.8487,-9.5707 2.4472,-13.6132 -2.797,-3.324 -5.1568,-3.6431 -15.8134,-2.1386 -48.3235,6.8225 -96.2951,0.096 -128.4056,-18.0055 -6.6961,-3.7748 -18.4362,-12.4362 -21.1055,-15.5708 l -1.4833,-1.7419 1.8541,1.1629 c 7.1798,4.5033 10.3317,6.2441 17.8609,9.8645 19.5295,9.391 43.1245,15.1788 71.5069,17.5409 12.9132,1.0747 42.6704,0.427 54.5106,-1.1864 28.4407,-3.8755 55.1529,-11.7083 85.2391,-24.9946 13.1374,-5.8016 16.0261,-6.5542 24.1945,-6.3038 5.625,0.1725 7.4195,0.55 11.0442,2.3235 z"
         id="path102" />
    </g>
  </g>
</svg>
