  0
SECTION
  2
HEADER
  9
$ACADVER
  1
AC1015
  9
$ACADMAINTVER
 70
     6
  9
$DWGCODEPAGE
  3
ANSI_1252
  9
$INSBASE
 10
0.0
 20
0.0
 30
0.0
  9
$EXTMIN
 10
2.25
 20
0.125
 30
0.0
  9
$EXTMAX
 10
7.6410864624
 20
4.3275044431
 30
0.0
  9
$LIMMIN
 10
0.0
 20
0.0
  9
$LIMMAX
 10
12.0
 20
9.0
  9
$ORTHOMODE
 70
     0
  9
$REGENMODE
 70
     1
  9
$FILLMODE
 70
     1
  9
$QTEXTMODE
 70
     0
  9
$MIRRTEXT
 70
     1
  9
$LTSCALE
 40
1.0
  9
$ATTMODE
 70
     1
  9
$TEXTSIZE
 40
0.125
  9
$TRACEWID
 40
0.05
  9
$TEXTSTYLE
  7
Standard
  9
$CLAYER
  8
0
  9
$CELTYPE
  6
ByLayer
  9
$CECOLOR
 62
   256
  9
$CELTSCALE
 40
1.0
  9
$DISPSILH
 70
     0
  9
$DIMSCALE
 40
1.0
  9
$DIMASZ
 40
0.13
  9
$DIMEXO
 40
0.0
  9
$DIMDLI
 40
0.38
  9
$DIMRND
 40
0.0
  9
$DIMDLE
 40
0.0
  9
$DIMEXE
 40
0.125
  9
$DIMTP
 40
0.0
  9
$DIMTM
 40
0.0
  9
$DIMTXT
 40
0.125
  9
$DIMCEN
 40
0.09
  9
$DIMTSZ
 40
0.0
  9
$DIMTOL
 70
     0
  9
$DIMLIM
 70
     0
  9
$DIMTIH
 70
     1
  9
$DIMTOH
 70
     1
  9
$DIMSE1
 70
     0
  9
$DIMSE2
 70
     0
  9
$DIMTAD
 70
     0
  9
$DIMZIN
 70
     0
  9
$DIMBLK
  1

  9
$DIMASO
 70
     1
  9
$DIMSHO
 70
     1
  9
$DIMPOST
  1

  9
$DIMAPOST
  1

  9
$DIMALT
 70
     0
  9
$DIMALTD
 70
     2
  9
$DIMALTF
 40
25.4
  9
$DIMLFAC
 40
1.0
  9
$DIMTOFL
 70
     0
  9
$DIMTVP
 40
0.0
  9
$DIMTIX
 70
     0
  9
$DIMSOXD
 70
     0
  9
$DIMSAH
 70
     0
  9
$DIMBLK1
  1

  9
$DIMBLK2
  1

  9
$DIMSTYLE
  2
Standard
  9
$DIMCLRD
 70
     0
  9
$DIMCLRE
 70
     0
  9
$DIMCLRT
 70
     0
  9
$DIMTFAC
 40
1.0
  9
$DIMGAP
 40
0.06
  9
$DIMJUST
 70
     0
  9
$DIMSD1
 70
     0
  9
$DIMSD2
 70
     0
  9
$DIMTOLJ
 70
     1
  9
$DIMTZIN
 70
     0
  9
$DIMALTZ
 70
     0
  9
$DIMALTTZ
 70
     0
  9
$DIMUPT
 70
     0
  9
$DIMDEC
 70
     3
  9
$DIMTDEC
 70
     3
  9
$DIMALTU
 70
     2
  9
$DIMALTTD
 70
     2
  9
$DIMTXSTY
  7
Standard
  9
$DIMAUNIT
 70
     0
  9
$DIMADEC
 70
     2
  9
$DIMALTRND
 40
0.0
  9
$DIMAZIN
 70
     0
  9
$DIMDSEP
 70
    46
  9
$DIMATFIT
 70
     3
  9
$DIMFRAC
 70
     0
  9
$DIMLDRBLK
  1

  9
$DIMLUNIT
 70
     2
  9
$DIMLWD
 70
    -2
  9
$DIMLWE
 70
    -2
  9
$DIMTMOVE
 70
     0
  9
$LUNITS
 70
     2
  9
$LUPREC
 70
     6
  9
$SKETCHINC
 40
0.1
  9
$FILLETRAD
 40
0.0
  9
$AUNITS
 70
     0
  9
$AUPREC
 70
     2
  9
$MENU
  1
.
  9
$ELEVATION
 40
0.0
  9
$PELEVATION
 40
0.0
  9
$THICKNESS
 40
0.0
  9
$LIMCHECK
 70
     0
  9
$CHAMFERA
 40
0.0
  9
$CHAMFERB
 40
0.0
  9
$CHAMFERC
 40
0.0
  9
$CHAMFERD
 40
0.0
  9
$SKPOLY
 70
     0
  9
$TDCREATE
 40
2460300.945459884
  9
$TDUCREATE
 40
2460301.153793218
  9
$TDUPDATE
 40
2460300.945488519
  9
$TDUUPDATE
 40
2460301.153821852
  9
$TDINDWG
 40
0.0000000116
  9
$TDUSRTIMER
 40
0.0000000116
  9
$USRTIMER
 70
     1
  9
$ANGBASE
 50
0.0
  9
$ANGDIR
 70
     0
  9
$PDMODE
 70
     0
  9
$PDSIZE
 40
-1.0
  9
$PLINEWID
 40
0.0
  9
$SPLFRAME
 70
     0
  9
$SPLINETYPE
 70
     6
  9
$SPLINESEGS
 70
     8
  9
$HANDSEED
  5
129
  9
$SURFTAB1
 70
     6
  9
$SURFTAB2
 70
     6
  9
$SURFTYPE
 70
     6
  9
$SURFU
 70
     6
  9
$SURFV
 70
     6
  9
$UCSBASE
  2

  9
$UCSNAME
  2

  9
$UCSORG
 10
0.0
 20
0.0
 30
0.0
  9
$UCSXDIR
 10
1.0
 20
0.0
 30
0.0
  9
$UCSYDIR
 10
0.0
 20
1.0
 30
0.0
  9
$UCSORTHOREF
  2

  9
$UCSORTHOVIEW
 70
     0
  9
$UCSORGTOP
 10
0.0
 20
0.0
 30
0.0
  9
$UCSORGBOTTOM
 10
0.0
 20
0.0
 30
0.0
  9
$UCSORGLEFT
 10
0.0
 20
0.0
 30
0.0
  9
$UCSORGRIGHT
 10
0.0
 20
0.0
 30
0.0
  9
$UCSORGFRONT
 10
0.0
 20
0.0
 30
0.0
  9
$UCSORGBACK
 10
0.0
 20
0.0
 30
0.0
  9
$PUCSBASE
  2

  9
$PUCSNAME
  2

  9
$PUCSORG
 10
0.0
 20
0.0
 30
0.0
  9
$PUCSXDIR
 10
1.0
 20
0.0
 30
0.0
  9
$PUCSYDIR
 10
0.0
 20
1.0
 30
0.0
  9
$PUCSORTHOREF
  2

  9
$PUCSORTHOVIEW
 70
     0
  9
$PUCSORGTOP
 10
0.0
 20
0.0
 30
0.0
  9
$PUCSORGBOTTOM
 10
0.0
 20
0.0
 30
0.0
  9
$PUCSORGLEFT
 10
0.0
 20
0.0
 30
0.0
  9
$PUCSORGRIGHT
 10
0.0
 20
0.0
 30
0.0
  9
$PUCSORGFRONT
 10
0.0
 20
0.0
 30
0.0
  9
$PUCSORGBACK
 10
0.0
 20
0.0
 30
0.0
  9
$USERI1
 70
     0
  9
$USERI2
 70
     0
  9
$USERI3
 70
     0
  9
$USERI4
 70
     0
  9
$USERI5
 70
     0
  9
$USERR1
 40
0.0
  9
$USERR2
 40
0.0
  9
$USERR3
 40
0.0
  9
$USERR4
 40
0.0
  9
$USERR5
 40
0.0
  9
$WORLDVIEW
 70
     1
  9
$SHADEDGE
 70
     3
  9
$SHADEDIF
 70
    70
  9
$TILEMODE
 70
     1
  9
$MAXACTVP
 70
    64
  9
$PINSBASE
 10
0.0
 20
0.0
 30
0.0
  9
$PLIMCHECK
 70
     0
  9
$PEXTMIN
 10
1.0000000000E+20
 20
1.0000000000E+20
 30
1.0000000000E+20
  9
$PEXTMAX
 10
-1.0000000000E+20
 20
-1.0000000000E+20
 30
-1.0000000000E+20
  9
$PLIMMIN
 10
0.0
 20
0.0
  9
$PLIMMAX
 10
12.0
 20
9.0
  9
$UNITMODE
 70
     0
  9
$VISRETAIN
 70
     1
  9
$PLINEGEN
 70
     0
  9
$PSLTSCALE
 70
     1
  9
$TREEDEPTH
 70
  3020
  9
$CMLSTYLE
  2
Standard
  9
$CMLJUST
 70
     0
  9
$CMLSCALE
 40
1.0
  9
$PROXYGRAPHICS
 70
     1
  9
$MEASUREMENT
 70
     0
  9
$CELWEIGHT
370
    -1
  9
$ENDCAPS
280
     0
  9
$JOINSTYLE
280
     0
  9
$LWDISPLAY
290
     1
  9
$INSUNITS
 70
     1
  9
$HYPERLINKBASE
  1

  9
$STYLESHEET
  1

  9
$XEDIT
290
     1
  9
$CEPSNTYPE
380
     0
  9
$PSTYLEMODE
290
     1
  9
$FINGERPRINTGUID
  2
{e1ff2998-518a-4c73-bc21-8c2b4f202c6a}
  9
$VERSIONGUID
  2
{FAEB1C32-E019-11D5-929B-00C0DF256EC4}
  9
$EXTNAMES
290
     1
  9
$PSVPSCALE
 40
0.0
  9
$OLESTARTUP
290
     0
  0
ENDSEC
  0
SECTION
  2
CLASSES
  0
CLASS
  1
ACDBDICTIONARYWDFLT
  2
AcDbDictionaryWithDefault
  3
ObjectDBX Classes
 90
        0
280
     0
281
     0
  0
CLASS
  1
VISUALSTYLE
  2
AcDbVisualStyle
  3
ObjectDBX Classes
 90
     4095
280
     0
281
     0
  0
CLASS
  1
MATERIAL
  2
AcDbMaterial
  3
ObjectDBX Classes
 90
     1153
280
     0
281
     0
  0
CLASS
  1
SCALE
  2
AcDbScale
  3
ObjectDBX Classes
 90
     1153
280
     0
281
     0
  0
CLASS
  1
TABLESTYLE
  2
AcDbTableStyle
  3
ObjectDBX Classes
 90
     4095
280
     0
281
     0
  0
CLASS
  1
MLEADERSTYLE
  2
AcDbMLeaderStyle
  3
ACDB_MLEADERSTYLE_CLASS
 90
     4095
280
     0
281
     0
  0
CLASS
  1
SUN
  2
AcDbSun
  3
SCENEOE
 90
     1153
280
     0
281
     0
  0
CLASS
  1
ACDBPLACEHOLDER
  2
AcDbPlaceHolder
  3
ObjectDBX Classes
 90
        0
280
     0
281
     0
  0
CLASS
  1
LAYOUT
  2
AcDbLayout
  3
ObjectDBX Classes
 90
        0
280
     0
281
     0
  0
ENDSEC
  0
SECTION
  2
TABLES
  0
TABLE
  2
VPORT
  5
8
330
0
100
AcDbSymbolTable
 70
     1
  0
VPORT
  5
29
330
8
100
AcDbSymbolTableRecord
100
AcDbViewportTableRecord
  2
*Active
 70
     0
 10
0.0
 20
0.0
 11
1.0
 21
1.0
 12
4.9455432312
 22
2.2262522215
 13
0.0
 23
0.0
 14
0.5
 24
0.5
 15
0.5
 25
0.5
 16
0.0
 26
0.0
 36
1.0
 17
0.0
 27
0.0
 37
0.0
 40
4.2865545319
 41
1.2828270703
 42
50.0
 43
0.0
 44
0.0
 50
0.0
 51
0.0
 71
     0
 72
   100
 73
     1
 74
     3
 75
     0
 76
     0
 77
     0
 78
     0
281
     0
 65
     1
110
0.0
120
0.0
130
0.0
111
1.0
121
0.0
131
0.0
112
0.0
122
1.0
132
0.0
 79
     0
146
0.0
  0
ENDTAB
  0
TABLE
  2
LTYPE
  5
5
330
0
100
AcDbSymbolTable
 70
     6
  0
LTYPE
  5
14
330
5
100
AcDbSymbolTableRecord
100
AcDbLinetypeTableRecord
  2
ByBlock
 70
     0
  3

 72
    65
 73
     0
 40
0.0
  0
LTYPE
  5
15
330
5
100
AcDbSymbolTableRecord
100
AcDbLinetypeTableRecord
  2
ByLayer
 70
     0
  3

 72
    65
 73
     0
 40
0.0
  0
LTYPE
  5
16
330
5
100
AcDbSymbolTableRecord
100
AcDbLinetypeTableRecord
  2
Continuous
 70
     0
  3
Solid line
 72
    65
 73
     0
 40
0.0
  0
LTYPE
  5
5E
330
5
100
AcDbSymbolTableRecord
100
AcDbLinetypeTableRecord
  2
HIDDEN
 70
     0
  3
Hidden __ __ __ __ __ __ __ __ __ __ __ __ __ __
 72
    65
 73
     2
 40
0.075
 49
0.05
 74
     0
 49
-0.025
 74
     0
  0
LTYPE
  5
5F
330
5
100
AcDbSymbolTableRecord
100
AcDbLinetypeTableRecord
  2
PHANTOM
 70
     0
  3
Phantom ______  __  __  ______  __  __  ______
 72
    65
 73
     6
 40
0.5
 49
0.25
 74
     0
 49
-0.05
 74
     0
 49
0.05
 74
     0
 49
-0.05
 74
     0
 49
0.05
 74
     0
 49
-0.05
 74
     0
  0
LTYPE
  5
60
330
5
100
AcDbSymbolTableRecord
100
AcDbLinetypeTableRecord
  2
CENTER
 70
     0
  3
Center ____ _ ____ _ ____ _ ____ _ ____ _ ____
 72
    65
 73
     4
 40
0.4
 49
0.25
 74
     0
 49
-0.05
 74
     0
 49
0.05
 74
     0
 49
-0.05
 74
     0
  0
LTYPE
  5
61
330
5
100
AcDbSymbolTableRecord
100
AcDbLinetypeTableRecord
  2
CENTERX2
 70
     0
  3
Center (2x) ________  __  ________  __  _____
 72
    65
 73
     4
 40
0.8
 49
0.5
 74
     0
 49
-0.1
 74
     0
 49
0.1
 74
     0
 49
-0.1
 74
     0
  0
LTYPE
  5
62
330
5
100
AcDbSymbolTableRecord
100
AcDbLinetypeTableRecord
  2
DOT2
 70
     0
  3
Dot (.5x) ........................................
 72
    65
 73
     2
 40
0.025
 49
0.0
 74
     0
 49
-0.025
 74
     0
  0
ENDTAB
  0
TABLE
  2
LAYER
  5
2
330
0
100
AcDbSymbolTable
 70
     1
  0
LAYER
  5
10
330
2
100
AcDbSymbolTableRecord
100
AcDbLayerTableRecord
  2
0
 70
     0
 62
     7
  6
Continuous
370
    -3
390
F
  0
ENDTAB
  0
TABLE
  2
STYLE
  5
3
330
0
100
AcDbSymbolTable
 70
     2
  0
STYLE
  5
11
330
3
100
AcDbSymbolTableRecord
100
AcDbTextStyleTableRecord
  2
Standard
 70
     0
 40
0.0
 41
1.0
 50
0.0
 71
     0
 42
0.125
  3
txt
  4

  0
STYLE
  5
125
330
3
100
AcDbSymbolTableRecord
100
AcDbTextStyleTableRecord
  2
SLDTEXTSTYLE0
 70
     0
 40
0.0
 41
0.7
 50
0.0
 71
     0
 42
0.125
  3
TXT
  4

  0
ENDTAB
  0
TABLE
  2
VIEW
  5
6
330
0
100
AcDbSymbolTable
 70
     0
  0
ENDTAB
  0
TABLE
  2
UCS
  5
7
330
0
100
AcDbSymbolTable
 70
     0
  0
ENDTAB
  0
TABLE
  2
APPID
  5
9
330
0
100
AcDbSymbolTable
 70
     1
  0
APPID
  5
12
330
9
100
AcDbSymbolTableRecord
100
AcDbRegAppTableRecord
  2
ACAD
 70
     0
  0
ENDTAB
  0
TABLE
  2
DIMSTYLE
  5
A
330
0
100
AcDbSymbolTable
 70
     1
100
AcDbDimStyleTable
  0
DIMSTYLE
105
27
330
A
100
AcDbSymbolTableRecord
100
AcDbDimStyleTableRecord
  2
Standard
 70
     0
178
     0
340
11
  0
ENDTAB
  0
TABLE
  2
BLOCK_RECORD
  5
1
330
0
100
AcDbSymbolTable
 70
     1
  0
BLOCK_RECORD
  5
1F
330
1
100
AcDbSymbolTableRecord
100
AcDbBlockTableRecord
  2
*Model_Space
340
22
  0
BLOCK_RECORD
  5
1B
330
1
100
AcDbSymbolTableRecord
100
AcDbBlockTableRecord
  2
*Paper_Space
340
1E
  0
BLOCK_RECORD
  5
23
330
1
100
AcDbSymbolTableRecord
100
AcDbBlockTableRecord
  2
*Paper_Space0
340
26
  0
ENDTAB
  0
ENDSEC
  0
SECTION
  2
BLOCKS
  0
BLOCK
  5
20
330
1F
100
AcDbEntity
  8
0
100
AcDbBlockBegin
  2
*Model_Space
 70
     0
 10
0.0
 20
0.0
 30
0.0
  3
*Model_Space
  1

  0
ENDBLK
  5
21
330
1F
100
AcDbEntity
  8
0
100
AcDbBlockEnd
  0
BLOCK
  5
1C
330
1B
100
AcDbEntity
 67
     1
  8
0
100
AcDbBlockBegin
  2
*Paper_Space
 70
     0
 10
0.0
 20
0.0
 30
0.0
  3
*Paper_Space
  1

  0
ENDBLK
  5
1D
330
1B
100
AcDbEntity
 67
     1
  8
0
100
AcDbBlockEnd
  0
BLOCK
  5
24
330
23
100
AcDbEntity
  8
0
100
AcDbBlockBegin
  2
*Paper_Space0
 70
     0
 10
0.0
 20
0.0
 30
0.0
  3
*Paper_Space0
  1

  0
ENDBLK
  5
25
330
23
100
AcDbEntity
  8
0
100
AcDbBlockEnd
  0
ENDSEC
  0
SECTION
  2
ENTITIES
  0
SPLINE
  5
64
330
1F
100
AcDbEntity
  8
0
  6
Continuous
 62
     7
370
    25
100
AcDbSpline
210
0.0
220
0.0
230
1.0
 70
     8
 71
     3
 72
    38
 73
    34
 74
     0
 42
0.00000001
 43
0.00000001
 40
0.0
 40
0.0
 40
0.0
 40
0.0
 40
0.0624999999999999
 40
0.0624999999999999
 40
0.1249999999999999
 40
0.1249999999999999
 40
0.1874999999999998
 40
0.1874999999999998
 40
0.2499999999999997
 40
0.2499999999999997
 40
0.3124999999999997
 40
0.3124999999999997
 40
0.3749999999999996
 40
0.3749999999999996
 40
0.4374999999999995
 40
0.4374999999999995
 40
0.4999999999999994
 40
0.4999999999999994
 40
0.5624999999999993
 40
0.5624999999999993
 40
0.6249999999999994
 40
0.6249999999999994
 40
0.6874999999999994
 40
0.6874999999999994
 40
0.7499999999999994
 40
0.7499999999999994
 40
0.8124999999999997
 40
0.8124999999999997
 40
0.8749999999999998
 40
0.8749999999999998
 40
0.9375
 40
0.9375
 40
1.0
 40
1.0
 40
1.0
 40
1.0
 10
6.947702616364065
 20
0.4545000000000003
 30
0.0
 10
6.940096783147122
 20
0.4544999999304196
 30
0.0
 10
6.932266639729673
 20
0.4533848806192104
 30
0.0
 10
6.917165878861097
 20
0.4488238885798821
 30
0.0
 10
6.909910073787906
 20
0.4453794853828756
 30
0.0
 10
6.896907033323267
 20
0.436655145460541
 30
0.0
 10
6.891248794891251
 20
0.4315069941306126
 30
0.0
 10
6.881415371730916
 20
0.4195654073155701
 30
0.0
 10
6.877279982564255
 20
0.4127282321893395
 30
0.0
 10
6.871228405515163
 20
0.3981184325089381
 30
0.0
 10
6.869317954455738
 20
0.3903596578714911
 30
0.0
 10
6.867827257857612
 20
0.3749624006687468
 30
0.0
 10
6.86818794401076
 20
0.3673211291741463
 30
0.0
 10
6.871213442400166
 20
0.3519575511862489
 30
0.0
 10
6.873908510623234
 20
0.3443913613945137
 30
0.0
 10
6.881361252827105
 20
0.3304884026992126
 30
0.0
 10
6.886109491980179
 20
0.3241631468533155
 30
0.0
 10
6.896865764508142
 20
0.3134068744237517
 30
0.0
 10
6.903191020416657
 20
0.3086586353152292
 30
0.0
 10
6.917093979189222
 20
0.3012058932397392
 30
0.0
 10
6.924660169005108
 20
0.2985108250904004
 30
0.0
 10
6.940023747007107
 20
0.2954853268485118
 30
0.0
 10
6.947665018492519
 20
0.2951246407648756
 30
0.0
 10
6.963062275702765
 20
0.296615337508312
 30
0.0
 10
6.970821050327585
 20
0.2985257886436701
 30
0.0
 10
6.985430849950433
 20
0.3045773658317028
 30
0.0
 10
6.992268025031894
 20
0.3087127550609859
 30
0.0
 10
7.004209611738885
 20
0.3185461783187715
 30
0.0
 10
7.009357763026159
 20
0.3242044168064365
 30
0.0
 10
7.01808210283421
 20
0.3372074573654141
 30
0.0
 10
7.021526505962007
 20
0.3444632624736572
 30
0.0
 10
7.026087497855927
 20
0.3595640233783793
 30
0.0
 10
7.027202617091356
 20
0.3673941667968958
 30
0.0
 10
7.027202617091356
 20
0.3750000000000002
 30
0.0
  0
SPLINE
  5
65
330
1F
100
AcDbEntity
  8
0
  6
Continuous
 62
     7
370
    25
100
AcDbSpline
210
0.0
220
0.0
230
1.0
 70
     8
 71
     3
 72
    22
 73
    18
 74
     0
 42
0.00000001
 43
0.00000001
 40
0.0
 40
0.0
 40
0.0
 40
0.0
 40
0.1250000000000002
 40
0.1250000000000002
 40
0.2500000000000003
 40
0.2500000000000003
 40
0.3750000000000005
 40
0.3750000000000005
 40
0.5000000000000007
 40
0.5000000000000007
 40
0.6250000000000009
 40
0.6250000000000009
 40
0.7500000000000006
 40
0.7500000000000006
 40
0.8750000000000002
 40
0.8750000000000002
 40
1.0
 40
1.0
 40
1.0
 40
1.0
 10
6.908648723220549
 20
0.280715557523838
 30
0.0
 10
6.915904334738358
 20
0.2786471285870654
 30
0.0
 10
6.923276737711034
 20
0.2774104164249543
 30
0.0
 10
6.938250904217931
 20
0.2765703566880889
 30
0.0
 10
6.945805594259734
 20
0.276967446091842
 30
0.0
 10
6.960447127382532
 20
0.2794847297927476
 30
0.0
 10
6.967705465736106
 20
0.2816531392221647
 30
0.0
 10
6.981433579125249
 20
0.2876658129235866
 30
0.0
 10
6.98783814386627
 20
0.2914518096361542
 30
0.0
 10
6.999726207498187
 20
0.300586655398342
 30
0.0
 10
7.005122655687711
 20
0.305900841643112
 30
0.0
 10
7.014397021172059
 20
0.3175502257860109
 30
0.0
 10
7.018329860167563
 20
0.3241070116890055
 30
0.0
 10
7.024200224787233
 20
0.3378316678498745
 30
0.0
 10
7.02620730724916
 20
0.3450534755622824
 30
0.0
 10
7.028233726923206
 20
0.360014920179592
 30
0.0
 10
7.028229441178104
 20
0.3675035078954946
 30
0.0
 10
7.027202617091356
 20
0.3750000000000002
 30
0.0
  0
SPLINE
  5
66
330
1F
100
AcDbEntity
  8
0
  6
Continuous
 62
     7
370
    25
100
AcDbSpline
210
0.0
220
0.0
230
1.0
 70
     8
 71
     3
 72
    38
 73
    34
 74
     0
 42
0.00000001
 43
0.00000001
 40
0.0
 40
0.0
 40
0.0
 40
0.0
 40
0.0625
 40
0.0625
 40
0.125
 40
0.125
 40
0.1875
 40
0.1875
 40
0.25
 40
0.25
 40
0.3125
 40
0.3125
 40
0.375
 40
0.375
 40
0.4375
 40
0.4375
 40
0.5
 40
0.5
 40
0.5625
 40
0.5625
 40
0.625
 40
0.625
 40
0.6875
 40
0.6875
 40
0.75
 40
0.75
 40
0.8125
 40
0.8125
 40
0.875
 40
0.875
 40
0.9375
 40
0.9375
 40
1.0
 40
1.0
 40
1.0
 40
1.0
 10
4.12499999927287
 20
2.392
 30
0.0
 10
4.117394166055925
 20
2.391999999930435
 30
0.0
 10
4.109564022638475
 20
2.390884880619242
 30
0.0
 10
4.094463261769882
 20
2.386323888579942
 30
0.0
 10
4.087207456696685
 20
2.382879485382948
 30
0.0
 10
4.074204416232019
 20
2.37415514546063
 30
0.0
 10
4.068546177799994
 20
2.369006994130709
 30
0.0
 10
4.058712754639634
 20
2.35706540731568
 30
0.0
 10
4.054577365472958
 20
2.350228232189453
 30
0.0
 10
4.048525788423843
 20
2.335618432509055
 30
0.0
 10
4.046615337364405
 20
2.327859657871607
 30
0.0
 10
4.045124640766258
 20
2.312462400668855
 30
0.0
 10
4.045485326919399
 20
2.304821129174251
 30
0.0
 10
4.048510825308783
 20
2.289457551186344
 30
0.0
 10
4.051205893531837
 20
2.281891361394603
 30
0.0
 10
4.058658635735694
 20
2.267988402699287
 30
0.0
 10
4.063406874888773
 20
2.261663146853378
 30
0.0
 10
4.074163147416727
 20
2.250906874423802
 30
0.0
 10
4.080488403325239
 20
2.246158635315272
 30
0.0
 10
4.094391362097801
 20
2.238705893239766
 30
0.0
 10
4.101957551913689
 20
2.236010825090419
 30
0.0
 10
4.117321129915693
 20
2.232985326848517
 30
0.0
 10
4.124962401401108
 20
2.232624640764876
 30
0.0
 10
4.140359658611358
 20
2.234115337508302
 30
0.0
 10
4.148118433236186
 20
2.236025788643656
 30
0.0
 10
4.162728232859044
 20
2.242077365831685
 30
0.0
 10
4.169565407940514
 20
2.246212755060966
 30
0.0
 10
4.18150699464751
 20
2.256046178318751
 30
0.0
 10
4.18665514593479
 20
2.261704416806419
 30
0.0
 10
4.19537948574285
 20
2.274707457365399
 30
0.0
 10
4.198823888870649
 20
2.281963262473644
 30
0.0
 10
4.203384880764571
 20
2.297064023378373
 30
0.0
 10
4.204500000000001
 20
2.304894166796893
 30
0.0
 10
4.2045
 20
2.3125
 30
0.0
  0
SPLINE
  5
67
330
1F
100
AcDbEntity
  8
0
  6
Continuous
 62
     7
370
    25
100
AcDbSpline
210
0.0
220
0.0
230
1.0
 70
     8
 71
     3
 72
    20
 73
    16
 74
     0
 42
0.00000001
 43
0.00000001
 40
0.0
 40
0.0
 40
0.0
 40
0.0
 40
0.1250000000000035
 40
0.1250000000000035
 40
0.250000000000007
 40
0.250000000000007
 40
0.5000000000000047
 40
0.5000000000000047
 40
0.6250000000000036
 40
0.6250000000000036
 40
0.7500000000000023
 40
0.7500000000000023
 40
0.8750000000000012
 40
0.8750000000000012
 40
1.0
 40
1.0
 40
1.0
 40
1.0
 10
4.088103746532169
 20
2.223424562370622
 30
0.0
 10
4.095068402896768
 20
2.221260464891535
 30
0.0
 10
4.10214306989836
 20
2.219921211215213
 30
0.0
 10
4.116504185097038
 20
2.21883060855449
 30
0.0
 10
4.123865827023243
 20
2.21908667599991
 30
0.0
 10
4.145179137753682
 20
2.22241293550924
 30
0.0
 10
4.158921306256066
 20
2.228162869498322
 30
0.0
 10
4.176277397010462
 20
2.241074236146739
 30
0.0
 10
4.181608946442405
 20
2.246155769133733
 30
0.0
 10
4.190737994264533
 20
2.257268919516253
 30
0.0
 10
4.194612550469963
 20
2.263483657423639
 30
0.0
 10
4.200587765041554
 20
2.276688165520977
 30
0.0
 10
4.202673601712292
 20
2.283574633036655
 30
0.0
 10
4.205023236855562
 20
2.297921824741151
 30
0.0
 10
4.205246661163815
 20
2.305231842332776
 30
0.0
 10
4.2045
 20
2.3125
 30
0.0
  0
SPLINE
  5
68
330
1F
100
AcDbEntity
  8
0
  6
Continuous
 62
     7
370
    25
100
AcDbSpline
210
0.0
220
0.0
230
1.0
 70
     8
 71
     3
 72
    38
 73
    34
 74
     0
 42
0.00000001
 43
0.00000001
 40
0.0
 40
0.0
 40
0.0
 40
0.0
 40
0.0625
 40
0.0625
 40
0.125
 40
0.125
 40
0.1875
 40
0.1875
 40
0.25
 40
0.25
 40
0.3125
 40
0.3125
 40
0.375
 40
0.375
 40
0.4375
 40
0.4375
 40
0.5
 40
0.5
 40
0.5625
 40
0.5625
 40
0.625
 40
0.625
 40
0.6875
 40
0.6875
 40
0.75
 40
0.75
 40
0.8125
 40
0.8125
 40
0.875
 40
0.875
 40
0.9375
 40
0.9375
 40
1.0
 40
1.0
 40
1.0
 40
1.0
 10
5.77499999927287
 20
2.392
 30
0.0
 10
5.767394166055927
 20
2.391999999930435
 30
0.0
 10
5.759564022638475
 20
2.390884880619242
 30
0.0
 10
5.744463261769884
 20
2.386323888579942
 30
0.0
 10
5.737207456696686
 20
2.382879485382948
 30
0.0
 10
5.724204416232022
 20
2.37415514546063
 30
0.0
 10
5.718546177799996
 20
2.369006994130709
 30
0.0
 10
5.708712754639635
 20
2.35706540731568
 30
0.0
 10
5.704577365472959
 20
2.350228232189453
 30
0.0
 10
5.698525788423844
 20
2.335618432509055
 30
0.0
 10
5.696615337364406
 20
2.327859657871607
 30
0.0
 10
5.69512464076626
 20
2.312462400668855
 30
0.0
 10
5.695485326919398
 20
2.304821129174251
 30
0.0
 10
5.698510825308782
 20
2.289457551186344
 30
0.0
 10
5.701205893531838
 20
2.281891361394603
 30
0.0
 10
5.708658635735697
 20
2.267988402699287
 30
0.0
 10
5.713406874888769
 20
2.261663146853378
 30
0.0
 10
5.724163147416728
 20
2.250906874423802
 30
0.0
 10
5.730488403325239
 20
2.246158635315272
 30
0.0
 10
5.744391362097802
 20
2.238705893239766
 30
0.0
 10
5.751957551913692
 20
2.236010825090419
 30
0.0
 10
5.767321129915696
 20
2.232985326848517
 30
0.0
 10
5.774962401401108
 20
2.232624640764876
 30
0.0
 10
5.79035965861136
 20
2.234115337508302
 30
0.0
 10
5.798118433236184
 20
2.236025788643656
 30
0.0
 10
5.812728232859045
 20
2.242077365831685
 30
0.0
 10
5.819565407940514
 20
2.246212755060966
 30
0.0
 10
5.831506994647511
 20
2.256046178318751
 30
0.0
 10
5.836655145934791
 20
2.261704416806419
 30
0.0
 10
5.845379485742851
 20
2.274707457365399
 30
0.0
 10
5.848823888870652
 20
2.281963262473644
 30
0.0
 10
5.853384880764573
 20
2.297064023378373
 30
0.0
 10
5.854500000000002
 20
2.304894166796893
 30
0.0
 10
5.854500000000001
 20
2.3125
 30
0.0
  0
SPLINE
  5
69
330
1F
100
AcDbEntity
  8
0
  6
Continuous
 62
     7
370
    25
100
AcDbSpline
210
0.0
220
0.0
230
1.0
 70
     8
 71
     3
 72
    20
 73
    16
 74
     0
 42
0.00000001
 43
0.00000001
 40
0.0
 40
0.0
 40
0.0
 40
0.0
 40
0.1250000000000003
 40
0.1250000000000003
 40
0.2500000000000006
 40
0.2500000000000006
 40
0.5000000000000003
 40
0.5000000000000003
 40
0.6250000000000002
 40
0.6250000000000002
 40
0.7500000000000002
 40
0.7500000000000002
 40
0.8750000000000001
 40
0.8750000000000001
 40
1.0
 40
1.0
 40
1.0
 40
1.0
 10
5.73810374653217
 20
2.223424562370622
 30
0.0
 10
5.74506840289677
 20
2.221260464891534
 30
0.0
 10
5.752143069898361
 20
2.219921211215212
 30
0.0
 10
5.766504185097038
 20
2.218830608554489
 30
0.0
 10
5.773865827023243
 20
2.21908667599991
 30
0.0
 10
5.795179137753683
 20
2.222412935509241
 30
0.0
 10
5.808921306256068
 20
2.228162869498324
 30
0.0
 10
5.826277397010462
 20
2.24107423614674
 30
0.0
 10
5.831608946442406
 20
2.246155769133733
 30
0.0
 10
5.840737994264534
 20
2.257268919516255
 30
0.0
 10
5.844612550469964
 20
2.263483657423639
 30
0.0
 10
5.850587765041554
 20
2.276688165520977
 30
0.0
 10
5.852673601712293
 20
2.283574633036656
 30
0.0
 10
5.855023236855562
 20
2.297921824741153
 30
0.0
 10
5.855246661163815
 20
2.305231842332776
 30
0.0
 10
5.854500000000001
 20
2.3125
 30
0.0
  0
CIRCLE
  5
80
330
1F
100
AcDbEntity
  8
0
  6
Continuous
 62
     7
370
    25
100
AcDbCircle
 10
5.9300123373
 20
3.0105458906
 30
0.0
 40
0.0979999999999981
  0
CIRCLE
  5
81
330
1F
100
AcDbEntity
  8
0
  6
Continuous
 62
     7
370
    25
100
AcDbCircle
 10
6.8138420716
 20
1.1373717689
 30
0.0
 40
0.1004999999999985
  0
CIRCLE
  5
82
330
1F
100
AcDbEntity
  8
0
  6
Continuous
 62
     7
370
    25
100
AcDbCircle
 10
7.175410102
 20
0.7064717697
 30
0.0
 40
0.1004999999999985
  0
CIRCLE
  5
83
330
1F
100
AcDbEntity
  8
0
  6
Continuous
 62
     7
370
    25
100
AcDbCircle
 10
6.0382782229
 20
1.7486971986
 30
0.0
 40
0.0979999999999999
  0
CIRCLE
  5
84
330
1F
100
AcDbEntity
  8
0
  6
Continuous
 62
     7
370
    25
100
AcDbCircle
 10
6.0382782229
 20
0.8236971986
 30
0.0
 40
0.0980000000000008
  0
CIRCLE
  5
85
330
1F
100
AcDbEntity
  8
0
  6
Continuous
 62
     7
370
    25
100
AcDbCircle
 10
4.5183447101
 20
0.7040758369
 30
0.0
 40
0.0980000000000034
  0
CIRCLE
  5
86
330
1F
100
AcDbEntity
  8
0
  6
Continuous
 62
     7
370
    25
100
AcDbCircle
 10
4.5183447101
 20
1.8683185604
 30
0.0
 40
0.097999999999999
  0
CIRCLE
  5
C1
330
1F
100
AcDbEntity
  8
0
  6
Continuous
 62
     7
370
    25
100
AcDbCircle
 10
4.6720064854
 20
3.8275044431
 30
0.0
 40
0.2500000000000018
  0
SPLINE
  5
C8
330
1F
100
AcDbEntity
  8
0
  6
Continuous
 62
     7
370
    25
100
AcDbSpline
210
0.0
220
0.0
230
1.0
 70
     8
 71
     3
 72
    10
 73
     6
 74
     0
 42
0.00000001
 43
0.00000001
 40
0.0
 40
0.0
 40
0.0
 40
0.0
 40
0.5
 40
0.5
 40
1.0
 40
1.0
 40
1.0
 40
1.0
 10
4.035924562987627
 20
2.27560374504259
 30
0.0
 10
4.040776606129444
 20
2.263889876961418
 30
0.0
 10
4.04798685381832
 20
2.253160292136844
 30
0.0
 10
4.065678392744844
 20
2.235472910435675
 30
0.0
 10
4.076389878369859
 20
2.228276605316554
 30
0.0
 10
4.08810374653217
 20
2.223424562370623
 30
0.0
  0
SPLINE
  5
C9
330
1F
100
AcDbEntity
  8
0
  6
Continuous
 62
     7
370
    25
100
AcDbSpline
210
0.0
220
0.0
230
1.0
 70
     8
 71
     3
 72
    10
 73
     6
 74
     0
 42
0.00000001
 43
0.00000001
 40
0.0
 40
0.0
 40
0.0
 40
0.0
 40
0.5
 40
0.5
 40
1.0
 40
1.0
 40
1.0
 40
1.0
 10
5.685924562987626
 20
2.27560374504259
 30
0.0
 10
5.690776606129447
 20
2.263889876961418
 30
0.0
 10
5.697986853818321
 20
2.253160292136844
 30
0.0
 10
5.715678392744843
 20
2.235472910435675
 30
0.0
 10
5.72638987836986
 20
2.228276605316554
 30
0.0
 10
5.73810374653217
 20
2.223424562370622
 30
0.0
  0
SPLINE
  5
CA
330
1F
100
AcDbEntity
  8
0
  6
Continuous
 62
     7
370
    25
100
AcDbSpline
210
0.0
220
0.0
230
1.0
 70
     8
 71
     3
 72
    14
 73
    10
 74
     0
 42
0.00000001
 43
0.00000001
 40
0.0
 40
0.0
 40
0.0
 40
0.0
 40
0.25
 40
0.25
 40
0.5
 40
0.5
 40
0.75
 40
0.75
 40
1.0
 40
1.0
 40
1.0
 40
1.0
 10
6.85341817526828
 20
0.3359461045524998
 30
0.0
 10
6.855996419028553
 20
0.3297216736465471
 30
0.0
 10
6.859199528169746
 20
0.3237523924883023
 30
0.0
 10
6.866610302715086
 20
0.3126850694180012
 30
0.0
 10
6.870825690376041
 20
0.3075501990329039
 30
0.0
 10
6.880291110693914
 20
0.2980894915052547
 30
0.0
 10
6.885516799299889
 20
0.2938103589537369
 30
0.0
 10
6.89655924638826
 20
0.2864382171546899
 30
0.0
 10
6.902424292271481
 20
0.2832938011800223
 30
0.0
 10
6.908648723220549
 20
0.2807155575238378
 30
0.0
  0
SPLINE
  5
CB
330
1F
100
AcDbEntity
  8
0
  6
Continuous
 62
     7
370
    25
100
AcDbSpline
210
0.0
220
0.0
230
1.0
 70
     8
 71
     3
 72
    22
 73
    18
 74
     0
 42
0.00000001
 43
0.00000001
 40
0.0
 40
0.0
 40
0.0
 40
0.0
 40
0.125
 40
0.125
 40
0.25
 40
0.25
 40
0.375
 40
0.375
 40
0.5
 40
0.5
 40
0.625
 40
0.625
 40
0.75
 40
0.75
 40
0.875
 40
0.875
 40
1.0
 40
1.0
 40
1.0
 40
1.0
 10
4.124999998561004
 20
2.392
 30
0.0
 10
4.11773674002678
 20
2.392746157746375
 30
0.0
 10
4.110537483965802
 20
2.392528320864554
 30
0.0
 10
4.096263429566713
 20
2.390218085537816
 30
0.0
 10
4.08922894423878
 20
2.388097681024037
 30
0.0
 10
4.076104296636403
 20
2.382175573537829
 30
0.0
 10
4.069836964880792
 20
2.378286921507358
 30
0.0
 10
4.058682766789079
 20
2.369138034043471
 30
0.0
 10
4.05364629506796
 20
2.363864757607807
 30
0.0
 10
4.044977528122926
 20
2.352230694981269
 30
0.0
 10
4.041408222905045
 20
2.345981086314637
 30
0.0
 10
4.035794030536391
 20
2.332619958805655
 30
0.0
 10
4.033807935467224
 20
2.325591922821572
 30
0.0
 10
4.031586955276881
 20
2.311374428749966
 30
0.0
 10
4.031329804354049
 20
2.304025433574073
 30
0.0
 10
4.032420390747728
 20
2.289643234880253
 30
0.0
 10
4.033761481255034
 20
2.282565132046905
 30
0.0
 10
4.035924562987627
 20
2.27560374504259
 30
0.0
  0
SPLINE
  5
CC
330
1F
100
AcDbEntity
  8
0
  6
Continuous
 62
     7
370
    25
100
AcDbSpline
210
0.0
220
0.0
230
1.0
 70
     8
 71
     3
 72
    22
 73
    18
 74
     0
 42
0.00000001
 43
0.00000001
 40
0.0
 40
0.0
 40
0.0
 40
0.0
 40
0.125
 40
0.125
 40
0.25
 40
0.25
 40
0.375
 40
0.375
 40
0.5
 40
0.5
 40
0.625
 40
0.625
 40
0.75
 40
0.75
 40
0.875
 40
0.875
 40
1.0
 40
1.0
 40
1.0
 40
1.0
 10
5.774999998561003
 20
2.392
 30
0.0
 10
5.767736740026778
 20
2.392746157746375
 30
0.0
 10
5.760537483965802
 20
2.392528320864554
 30
0.0
 10
5.746263429566711
 20
2.390218085537816
 30
0.0
 10
5.739228944238779
 20
2.388097681024037
 30
0.0
 10
5.726104296636403
 20
2.382175573537828
 30
0.0
 10
5.719836964880794
 20
2.378286921507358
 30
0.0
 10
5.708682766789078
 20
2.369138034043472
 30
0.0
 10
5.703646295067964
 20
2.363864757607809
 30
0.0
 10
5.694977528122926
 20
2.352230694981271
 30
0.0
 10
5.691408222905046
 20
2.345981086314636
 30
0.0
 10
5.68579403053639
 20
2.332619958805654
 30
0.0
 10
5.683807935467224
 20
2.325591922821571
 30
0.0
 10
5.68158695527688
 20
2.311374428749965
 30
0.0
 10
5.681329804354049
 20
2.304025433574073
 30
0.0
 10
5.682420390747725
 20
2.289643234880253
 30
0.0
 10
5.683761481255036
 20
2.282565132046904
 30
0.0
 10
5.685924562987628
 20
2.275603745042589
 30
0.0
  0
SPLINE
  5
CD
330
1F
100
AcDbEntity
  8
0
  6
Continuous
 62
     7
370
    25
100
AcDbSpline
210
0.0
220
0.0
230
1.0
 70
     8
 71
     3
 72
    22
 73
    18
 74
     0
 42
0.00000001
 43
0.00000001
 40
0.0
 40
0.0
 40
0.0
 40
0.0
 40
0.125
 40
0.125
 40
0.25
 40
0.25
 40
0.375
 40
0.375
 40
0.5
 40
0.5
 40
0.625
 40
0.625
 40
0.75
 40
0.75
 40
0.875
 40
0.875
 40
1.0
 40
1.0
 40
1.0
 40
1.0
 10
6.947702615652354
 20
0.4545000000000003
 30
0.0
 10
6.940210722486962
 20
0.4555261940214675
 30
0.0
 10
6.932752235675855
 20
0.4555275510658877
 30
0.0
 10
6.917900386199756
 20
0.4535323927599766
 30
0.0
 10
6.910574769733646
 20
0.4515103450017563
 30
0.0
 10
6.896855401954503
 20
0.445651371245172
 30
0.0
 10
6.890297815411706
 20
0.441726657624556
 30
0.0
 10
6.878612174350822
 20
0.4324305107544353
 30
0.0
 10
6.873290066899282
 20
0.4270239019019577
 30
0.0
 10
6.864160234279454
 20
0.4151438058910115
 30
0.0
 10
6.860363416673092
 20
0.4087278478698565
 30
0.0
 10
6.854327783303468
 20
0.3949306018795239
 30
0.0
 10
6.852183280504283
 20
0.3877381635913164
 30
0.0
 10
6.849661764080194
 20
0.3730373139593771
 30
0.0
 10
6.84927455925806
 20
0.3654284870732716
 30
0.0
 10
6.850119352194467
 20
0.3505539008900448
 30
0.0
 10
6.851348990451813
 20
0.343204367076149
 30
0.0
 10
6.853418175268281
 20
0.3359461045524998
 30
0.0
  0
LINE
  5
CE
330
1F
100
AcDbEntity
  8
0
  6
Continuous
 62
     7
370
    25
100
AcDbLine
 10
2.9401016591
 20
1.0795
 30
0.0
 11
2.9396301543
 21
1.0795
 31
0.0
  0
LINE
  5
CF
330
1F
100
AcDbEntity
  8
0
  6
Continuous
 62
     7
370
    25
100
AcDbLine
 10
4.3636106058
 20
2.6930857879
 30
0.0
 11
4.4085143131
 21
3.265607544
 31
0.0
  0
LINE
  5
D0
330
1F
100
AcDbEntity
  8
0
  6
Continuous
 62
     7
370
    25
100
AcDbLine
 10
4.1172598172
 20
3.4291799721
 30
0.0
 11
3.4698131528
 21
2.6118786485
 31
0.0
  0
LINE
  5
D1
330
1F
100
AcDbEntity
  8
0
  6
Continuous
 62
     7
370
    25
100
AcDbLine
 10
5.515762767
 20
2.5732764124
 30
0.0
 11
5.1588067752
 21
3.3387710071
 31
0.0
  0
LINE
  5
D2
330
1F
100
AcDbEntity
  8
0
  6
Continuous
 62
     7
370
    25
100
AcDbLine
 10
4.844674851
 20
3.2313988438
 30
0.0
 11
4.7741549457
 21
2.3322708557
 31
0.0
  0
LINE
  5
D3
330
1F
100
AcDbEntity
  8
0
  6
Continuous
 62
     7
370
    25
100
AcDbLine
 10
6.1541706718
 20
2.3873070339
 30
0.0
 11
6.3278200641
 21
2.0149147105
 31
0.0
  0
LINE
  5
D4
330
1F
100
AcDbEntity
  8
0
  6
Continuous
 62
     7
370
    25
100
AcDbLine
 10
7.6293886846
 20
0.4571393805
 30
0.0
 11
6.3453529821
 21
1.987393542
 31
0.0
  0
LINE
  5
D5
330
1F
100
AcDbEntity
  8
0
  6
Continuous
 62
     7
370
    25
100
AcDbLine
 10
7.2831128137
 20
0.375
 30
0.0
 11
7.5910864624
 21
0.375
 31
0.0
  0
LINE
  5
D6
330
1F
100
AcDbEntity
  8
0
  6
Continuous
 62
     7
370
    25
100
AcDbLine
 10
6.55
 20
0.375
 30
0.0
 11
6.6122924205
 21
0.375
 31
0.0
  0
LINE
  5
D7
330
1F
100
AcDbEntity
  8
0
  6
Continuous
 62
     7
370
    25
100
AcDbLine
 10
6.5
 20
0.4656306823
 30
0.0
 11
6.5
 21
0.425
 31
0.0
  0
LINE
  5
D8
330
1F
100
AcDbEntity
  8
0
  6
Continuous
 62
     7
370
    25
100
AcDbLine
 10
6.0343693177
 20
0.5
 30
0.0
 11
6.4656306823
 21
0.5
 31
0.0
  0
LINE
  5
D9
330
1F
100
AcDbEntity
  8
0
  6
Continuous
 62
     7
370
    25
100
AcDbLine
 10
6.0
 20
0.425
 30
0.0
 11
6.0
 21
0.4656306823
 31
0.0
  0
LINE
  5
DA
330
1F
100
AcDbEntity
  8
0
  6
Continuous
 62
     7
370
    25
100
AcDbLine
 10
5.95
 20
0.375
 30
0.0
 11
3.175
 21
0.375
 31
0.0
  0
LINE
  5
DB
330
1F
100
AcDbEntity
  8
0
  6
Continuous
 62
     7
370
    25
100
AcDbLine
 10
3.125
 20
0.425
 30
0.0
 11
3.125
 21
0.4656306823
 31
0.0
  0
LINE
  5
DC
330
1F
100
AcDbEntity
  8
0
  6
Continuous
 62
     7
370
    25
100
AcDbLine
 10
2.675
 20
0.5
 30
0.0
 11
3.0906306823
 21
0.5
 31
0.0
  0
LINE
  5
DD
330
1F
100
AcDbEntity
  8
0
  6
Continuous
 62
     7
370
    25
100
AcDbLine
 10
2.625
 20
1.2781306823
 30
0.0
 11
2.625
 21
0.55
 31
0.0
  0
LINE
  5
DE
330
1F
100
AcDbEntity
  8
0
  6
Continuous
 62
     7
370
    25
100
AcDbLine
 10
2.3
 20
1.3125
 30
0.0
 11
2.5906306823
 21
1.3125
 31
0.0
  0
LINE
  5
DF
330
1F
100
AcDbEntity
  8
0
  6
Continuous
 62
     7
370
    25
100
AcDbLine
 10
2.25
 20
1.6275
 30
0.0
 11
2.25
 21
1.3625
 31
0.0
  0
LINE
  5
E0
330
1F
100
AcDbEntity
  8
0
  6
Continuous
 62
     7
370
    25
100
AcDbLine
 10
2.625
 20
2.2325952869
 30
0.0
 11
2.625
 21
1.7118693177
 31
0.0
  0
LINE
  5
E1
330
1F
100
AcDbEntity
  8
0
  6
Continuous
 62
     7
370
    25
100
AcDbLine
 10
4.1820993533
 20
4.2155972179
 30
0.0
 11
2.6358074294
 21
2.2636427089
 31
0.0
  0
LINE
  5
E2
330
1F
100
AcDbEntity
  8
0
  6
Continuous
 62
     7
370
    25
100
AcDbLine
 10
5.169807979
 20
4.3275044431
 30
0.0
 11
4.3412875715
 21
4.3275044431
 31
0.0
  0
LINE
  5
E3
330
1F
100
AcDbEntity
  8
0
  6
Continuous
 62
     7
370
    25
100
AcDbLine
 10
5.2830964524
 20
4.2553317258
 30
0.0
 11
5.6642198439
 21
3.438009975
 31
0.0
  0
LINE
  5
E4
330
1F
100
AcDbEntity
  8
0
  6
Continuous
 62
     7
370
    25
100
AcDbLine
 10
6.350732687
 20
3.1906507141
 30
0.0
 11
5.8389714429
 21
3.2990952592
 31
0.0
  0
LINE
  5
E5
330
1F
100
AcDbEntity
  8
0
  6
Continuous
 62
     7
370
    25
100
AcDbLine
 10
6.4182221044
 20
2.9538058218
 30
0.0
 11
6.4296220177
 21
3.0841074273
 31
0.0
  0
LINE
  5
E6
330
1F
100
AcDbEntity
  8
0
  6
Continuous
 62
     7
370
    25
100
AcDbLine
 10
6.1895220171
 20
2.6539981459
 30
0.0
 11
6.3950928752
 21
2.8981067774
 31
0.0
  0
LINE
  5
E7
330
1F
100
AcDbEntity
  8
0
  6
Continuous
 62
     7
370
    25
100
AcDbLine
 10
2.5906306823
 20
1.6775
 30
0.0
 11
2.3
 21
1.6775
 31
0.0
  0
LINE
  5
E8
330
1F
100
AcDbEntity
  8
0
  6
Continuous
 62
     7
370
    25
100
AcDbLine
 10
4.326049007
 20
1.7001066167
 30
0.0
 11
4.5331674123
 21
1.678205906
 31
0.0
  0
LINE
  5
E9
330
1F
100
AcDbEntity
  8
0
  6
Continuous
 62
     7
370
    25
100
AcDbLine
 10
4.558342553
 20
0.8883917641
 30
0.0
 11
4.1337474903
 21
0.9332884676
 31
0.0
  0
ARC
  5
EA
330
1F
100
AcDbEntity
  8
0
  6
Continuous
 62
     7
370
    25
100
AcDbCircle
 10
4.125
 20
2.3125
 30
0.0
 40
0.0794999999999995
100
AcDbArc
 50
0.0
 51
90.0000010371
  0
ARC
  5
EB
330
1F
100
AcDbEntity
  8
0
  6
Continuous
 62
     7
370
    25
100
AcDbCircle
 10
6.9477026171
 20
0.375
 30
0.0
 40
0.0795000000000013
100
AcDbArc
 50
0.0
 51
90.0000010371
  0
ARC
  5
EC
330
1F
100
AcDbEntity
  8
0
  6
Continuous
 62
     7
370
    25
100
AcDbCircle
 10
4.2639167686
 20
2.7009049194
 30
0.0
 40
0.1000000000000012
100
AcDbArc
 50
250.3199196093
 51
355.5153899954
  0
ARC
  5
ED
330
1F
100
AcDbEntity
  8
0
  6
Continuous
 62
     7
370
    25
100
AcDbCircle
 10
4.3088204759
 20
3.2734266755
 30
0.0
 40
0.1000000000000003
100
AcDbArc
 50
355.5153899954
 51
56.7560242166
  0
ARC
  5
EE
330
1F
100
AcDbEntity
  8
0
  6
Continuous
 62
     7
370
    25
100
AcDbCircle
 10
4.6720064854
 20
3.8275044431
 30
0.0
 40
0.5624999999999445
100
AcDbArc
 50
224.0250299107
 51
236.7560242166
  0
ARC
  5
EF
330
1F
100
AcDbEntity
  8
0
  6
Continuous
 62
     7
370
    25
100
AcDbCircle
 10
4.1956449584
 20
3.3670851281
 30
0.0
 40
0.100000000000001
100
AcDbArc
 50
44.0250299107
 51
141.6145723026
  0
ARC
  5
F0
330
1F
100
AcDbEntity
  8
0
  6
Continuous
 62
     7
370
    25
100
AcDbCircle
 10
3.548198294
 20
2.5497838046
 30
0.0
 40
0.1000000000000002
100
AcDbArc
 50
141.6145723026
 51
271.1424927436
  0
ARC
  5
F1
330
1F
100
AcDbEntity
  8
0
  6
Continuous
 62
     7
370
    25
100
AcDbCircle
 10
3.5698818898
 20
1.4625
 30
0.0
 40
0.9874999999999804
100
AcDbArc
 50
79.1376958881
 51
91.1424927436
  0
ARC
  5
F2
330
1F
100
AcDbEntity
  8
0
  6
Continuous
 62
     7
370
    25
100
AcDbCircle
 10
3.7748205627
 20
2.5305151639
 30
0.0
 40
0.0999999999999985
100
AcDbArc
 50
259.1376958881
 51
328.0943797451
  0
ARC
  5
F3
330
1F
100
AcDbEntity
  8
0
  6
Continuous
 62
     7
370
    25
100
AcDbCircle
 10
4.125
 20
2.3125
 30
0.0
 40
0.3125000000000001
100
AcDbArc
 50
70.3199196093
 51
148.0943797451
  0
ARC
  5
F4
330
1F
100
AcDbEntity
  8
0
  6
Continuous
 62
     7
370
    25
100
AcDbCircle
 10
4.873848783
 20
2.3244517242
 30
0.0
 40
0.1000000000000002
100
AcDbArc
 50
175.5153899954
 51
289.28841684
  0
ARC
  5
F5
330
1F
100
AcDbEntity
  8
0
  6
Continuous
 62
     7
370
    25
100
AcDbCircle
 10
5.2372047244
 20
1.2861971986
 30
0.0
 40
0.9999999999999932
100
AcDbArc
 50
83.1815487917
 51
109.28841684
  0
ARC
  5
F6
330
1F
100
AcDbEntity
  8
0
  6
Continuous
 62
     7
370
    25
100
AcDbCircle
 10
5.3678008287
 20
2.3784172578
 30
0.0
 40
0.1000000000000012
100
AcDbArc
 50
263.1815487917
 51
350.8047463827
  0
ARC
  5
F7
330
1F
100
AcDbEntity
  8
0
  6
Continuous
 62
     7
370
    25
100
AcDbCircle
 10
5.775
 20
2.3125
 30
0.0
 40
0.3124999999999827
100
AcDbArc
 50
148.0126287602
 51
170.8047463827
  0
ARC
  5
F8
330
1F
100
AcDbEntity
  8
0
  6
Continuous
 62
     7
370
    25
100
AcDbCircle
 10
5.4251319883
 20
2.5310145862
 30
0.0
 40
0.1000000000000037
100
AcDbArc
 50
328.0126287602
 51
25.0
  0
ARC
  5
F9
330
1F
100
AcDbEntity
  8
0
  6
Continuous
 62
     7
370
    25
100
AcDbCircle
 10
5.0681759965
 20
3.2965091809
 30
0.0
 40
0.1000000000000011
100
AcDbArc
 50
25.0
 51
126.7261998181
  0
ARC
  5
FA
330
1F
100
AcDbEntity
  8
0
  6
Continuous
 62
     7
370
    25
100
AcDbCircle
 10
4.6720064854
 20
3.8275044431
 30
0.0
 40
0.5624999999999896
100
AcDbArc
 50
294.2747557741
 51
306.7261998181
  0
ARC
  5
FB
330
1F
100
AcDbEntity
  8
0
  6
Continuous
 62
     7
370
    25
100
AcDbCircle
 10
4.9443686883
 20
3.2235797123
 30
0.0
 40
0.1000000000000003
100
AcDbArc
 50
114.2747557741
 51
175.5153899954
  0
ARC
  5
FC
330
1F
100
AcDbEntity
  8
0
  6
Continuous
 62
     7
370
    25
100
AcDbCircle
 10
4.5436827948
 20
1.7776515028
 30
0.0
 40
0.1000000000000007
100
AcDbArc
 50
263.9639708719
 51
324.6772571665
  0
ARC
  5
FD
330
1F
100
AcDbEntity
  8
0
  6
Continuous
 62
     7
370
    25
100
AcDbCircle
 10
4.3365643895
 20
1.7995522135
 30
0.0
 40
0.0999999999999995
100
AcDbArc
 50
203.7314547193
 51
263.9639708719
  0
ARC
  5
FE
330
1F
100
AcDbEntity
  8
0
  6
Continuous
 62
     7
370
    25
100
AcDbCircle
 10
3.5698818898
 20
1.4625
 30
0.0
 40
0.7375000000000006
100
AcDbArc
 50
23.7314547193
 51
311.3545536797
  0
ARC
  5
FF
330
1F
100
AcDbEntity
  8
0
  6
Continuous
 62
     7
370
    25
100
AcDbCircle
 10
4.1232321079
 20
0.8338428708
 30
0.0
 40
0.1000000000000001
100
AcDbArc
 50
83.9639708719
 51
131.3545536797
  0
ARC
  5
100
330
1F
100
AcDbEntity
  8
0
  6
Continuous
 62
     7
370
    25
100
AcDbCircle
 10
4.5478271706
 20
0.7889461672
 30
0.0
 40
0.0999999999999994
100
AcDbArc
 50
35.8030757347
 51
83.9639708719
  0
ARC
  5
101
330
1F
100
AcDbEntity
  8
0
  6
Continuous
 62
     7
370
    25
100
AcDbCircle
 10
5.2372047244
 20
1.2861971986
 30
0.0
 40
0.7499999999999992
100
AcDbArc
 50
215.8030757347
 51
144.6772571665
  0
ARC
  5
102
330
1F
100
AcDbEntity
  8
0
  6
Continuous
 62
     7
370
    25
100
AcDbCircle
 10
6.3807476186
 20
2.4929615994
 30
0.0
 40
0.2499999999999977
100
AcDbArc
 50
139.8983104071
 51
205.0
  0
ARC
  5
103
330
1F
100
AcDbEntity
  8
0
  6
Continuous
 62
     7
370
    25
100
AcDbCircle
 10
6.4411085375
 20
2.0677419932
 30
0.0
 40
0.1249999999999977
100
AcDbArc
 50
205.0
 51
220.0
  0
ARC
  5
104
330
1F
100
AcDbEntity
  8
0
  6
Continuous
 62
     7
370
    25
100
AcDbCircle
 10
7.5910864624
 20
0.425
 30
0.0
 40
0.0500000000000001
100
AcDbArc
 50
270.0
 51
40.0
  0
ARC
  5
105
330
1F
100
AcDbEntity
  8
0
  6
Continuous
 62
     7
370
    25
100
AcDbCircle
 10
7.2831128137
 20
0.275
 30
0.0
 40
0.1000000000000023
100
AcDbArc
 50
90.0
 51
163.398450401
  0
ARC
  5
106
330
1F
100
AcDbEntity
  8
0
  6
Continuous
 62
     7
370
    25
100
AcDbCircle
 10
6.9477026171
 20
0.375
 30
0.0
 40
0.2499999999999999
100
AcDbArc
 50
196.601549599
 51
343.398450401
  0
ARC
  5
107
330
1F
100
AcDbEntity
  8
0
  6
Continuous
 62
     7
370
    25
100
AcDbCircle
 10
6.6122924205
 20
0.275
 30
0.0
 40
0.0999999999999989
100
AcDbArc
 50
16.601549599
 51
90.0
  0
ARC
  5
108
330
1F
100
AcDbEntity
  8
0
  6
Continuous
 62
     7
370
    25
100
AcDbCircle
 10
6.55
 20
0.425
 30
0.0
 40
0.0500000000000008
100
AcDbArc
 50
180.0
 51
270.0
  0
ARC
  5
109
330
1F
100
AcDbEntity
  8
0
  6
Continuous
 62
     7
370
    25
100
AcDbCircle
 10
6.5
 20
0.5
 30
0.0
 40
0.0175000000000002
100
AcDbArc
 50
306.0318790725
 51
143.9681209275
  0
ARC
  5
10A
330
1F
100
AcDbEntity
  8
0
  6
Continuous
 62
     7
370
    25
100
AcDbCircle
 10
6.0343693177
 20
0.525
 30
0.0
 40
0.0249999999999951
100
AcDbArc
 50
216.0318790725
 51
270.0
  0
ARC
  5
10B
330
1F
100
AcDbEntity
  8
0
  6
Continuous
 62
     7
370
    25
100
AcDbCircle
 10
6.0
 20
0.5
 30
0.0
 40
0.0175000000000004
100
AcDbArc
 50
36.0318790725
 51
233.9681209275
  0
ARC
  5
10C
330
1F
100
AcDbEntity
  8
0
  6
Continuous
 62
     7
370
    25
100
AcDbCircle
 10
5.975
 20
0.4656306823
 30
0.0
 40
0.0250000000000039
100
AcDbArc
 50
0.0
 51
53.9681209275
  0
ARC
  5
10D
330
1F
100
AcDbEntity
  8
0
  6
Continuous
 62
     7
370
    25
100
AcDbCircle
 10
5.95
 20
0.425
 30
0.0
 40
0.0500000000000016
100
AcDbArc
 50
270.0
 51
0.0
  0
ARC
  5
10E
330
1F
100
AcDbEntity
  8
0
  6
Continuous
 62
     7
370
    25
100
AcDbCircle
 10
3.175
 20
0.425
 30
0.0
 40
0.0500000000000003
100
AcDbArc
 50
180.0
 51
270.0
  0
ARC
  5
10F
330
1F
100
AcDbEntity
  8
0
  6
Continuous
 62
     7
370
    25
100
AcDbCircle
 10
3.15
 20
0.4656306823
 30
0.0
 40
0.024999999999999
100
AcDbArc
 50
126.0318790725
 51
180.0
  0
ARC
  5
110
330
1F
100
AcDbEntity
  8
0
  6
Continuous
 62
     7
370
    25
100
AcDbCircle
 10
3.125
 20
0.5
 30
0.0
 40
0.0175000000000008
100
AcDbArc
 50
306.0318790725
 51
143.9681209275
  0
ARC
  5
111
330
1F
100
AcDbEntity
  8
0
  6
Continuous
 62
     7
370
    25
100
AcDbCircle
 10
3.0906306823
 20
0.525
 30
0.0
 40
0.0250000000000025
100
AcDbArc
 50
270.0
 51
323.9681209275
  0
ARC
  5
112
330
1F
100
AcDbEntity
  8
0
  6
Continuous
 62
     7
370
    25
100
AcDbCircle
 10
2.675
 20
0.55
 30
0.0
 40
0.0500000000000007
100
AcDbArc
 50
180.0
 51
270.0
  0
ARC
  5
113
330
1F
100
AcDbEntity
  8
0
  6
Continuous
 62
     7
370
    25
100
AcDbCircle
 10
2.65
 20
1.2781306823
 30
0.0
 40
0.0249999999999996
100
AcDbArc
 50
126.0318790725
 51
180.0
  0
ARC
  5
114
330
1F
100
AcDbEntity
  8
0
  6
Continuous
 62
     7
370
    25
100
AcDbCircle
 10
2.625
 20
1.3125
 30
0.0
 40
0.0175000000000001
100
AcDbArc
 50
306.0318790725
 51
143.9681209275
  0
ARC
  5
115
330
1F
100
AcDbEntity
  8
0
  6
Continuous
 62
     7
370
    25
100
AcDbCircle
 10
2.5906306823
 20
1.3375
 30
0.0
 40
0.0249999999999993
100
AcDbArc
 50
270.0
 51
323.9681209275
  0
ARC
  5
116
330
1F
100
AcDbEntity
  8
0
  6
Continuous
 62
     7
370
    25
100
AcDbCircle
 10
2.3
 20
1.3625
 30
0.0
 40
0.0499999999999994
100
AcDbArc
 50
180.0
 51
270.0
  0
ARC
  5
117
330
1F
100
AcDbEntity
  8
0
  6
Continuous
 62
     7
370
    25
100
AcDbCircle
 10
2.3
 20
1.6275
 30
0.0
 40
0.0499999999999994
100
AcDbArc
 50
90.0
 51
180.0
  0
ARC
  5
118
330
1F
100
AcDbEntity
  8
0
  6
Continuous
 62
     7
370
    25
100
AcDbCircle
 10
2.5906306823
 20
1.6525
 30
0.0
 40
0.0249999999999955
100
AcDbArc
 50
36.0318790725
 51
90.0
  0
ARC
  5
119
330
1F
100
AcDbEntity
  8
0
  6
Continuous
 62
     7
370
    25
100
AcDbCircle
 10
2.625
 20
1.6775
 30
0.0
 40
0.0175000000000003
100
AcDbArc
 50
216.0318790725
 51
53.9681209275
  0
ARC
  5
11A
330
1F
100
AcDbEntity
  8
0
  6
Continuous
 62
     7
370
    25
100
AcDbCircle
 10
2.65
 20
1.7118693177
 30
0.0
 40
0.0250000000000012
100
AcDbArc
 50
180.0
 51
233.9681209275
  0
ARC
  5
11B
330
1F
100
AcDbEntity
  8
0
  6
Continuous
 62
     7
370
    25
100
AcDbCircle
 10
2.675
 20
2.2325952869
 30
0.0
 40
0.0500000000000025
100
AcDbArc
 50
141.6145723026
 51
180.0
  0
ARC
  5
11C
330
1F
100
AcDbEntity
  8
0
  6
Continuous
 62
     7
370
    25
100
AcDbCircle
 10
4.6720064854
 20
3.8275044431
 30
0.0
 40
0.6250000000000352
100
AcDbArc
 50
131.4096221093
 51
141.6145723026
  0
ARC
  5
11D
330
1F
100
AcDbEntity
  8
0
  6
Continuous
 62
     7
370
    25
100
AcDbCircle
 10
4.3412875715
 20
4.2025044431
 30
0.0
 40
0.1250000000000044
100
AcDbArc
 50
90.0
 51
131.4096221093
  0
ARC
  5
11E
330
1F
100
AcDbEntity
  8
0
  6
Continuous
 62
     7
370
    25
100
AcDbCircle
 10
5.169807979
 20
4.2025044431
 30
0.0
 40
0.125
100
AcDbArc
 50
25.0
 51
90.0
  0
ARC
  5
11F
330
1F
100
AcDbEntity
  8
0
  6
Continuous
 62
     7
370
    25
100
AcDbCircle
 10
5.8907967907
 20
3.5436645405
 30
0.0
 40
0.2500000000000034
100
AcDbArc
 50
205.0
 51
258.0357464276
  0
ARC
  5
120
330
1F
100
AcDbEntity
  8
0
  6
Continuous
 62
     7
370
    25
100
AcDbCircle
 10
6.3300025479
 20
3.0928230016
 30
0.0
 40
0.099999999999998
100
AcDbArc
 50
355.0
 51
78.0357464276
  0
ARC
  5
121
330
1F
100
AcDbEntity
  8
0
  6
Continuous
 62
     7
370
    25
100
AcDbCircle
 10
6.3186026346
 20
2.9625213961
 30
0.0
 40
0.1000000000000055
100
AcDbArc
 50
319.8983104071
 51
355.0
  0
ARC
  5
122
330
1F
100
AcDbEntity
  8
0
  6
Continuous
 62
     7
370
    25
100
AcDbCircle
 10
5.775
 20
2.3125
 30
0.0
 40
0.0794999999999995
100
AcDbArc
 50
0.0
 51
90.0000010371
  0
ARC
  5
123
330
1F
100
AcDbEntity
  8
0
  6
Continuous
 62
     7
370
    25
100
AcDbCircle
 10
6.525
 20
0.4656306823
 30
0.0
 40
0.0250000000000004
100
AcDbArc
 50
126.0318790725
 51
180.0
  0
ARC
  5
124
330
1F
100
AcDbEntity
  8
0
  6
Continuous
 62
     7
370
    25
100
AcDbCircle
 10
6.4656306823
 20
0.525
 30
0.0
 40
0.0250000000000016
100
AcDbArc
 50
270.0
 51
323.9681209275
  0
MTEXT
  5
126
330
1F
100
AcDbEntity
  8
0
  6
Continuous
 62
     7
100
AcDbMText
 10
2.25
 20
0.0848595909
 30
0.0
 40
0.1903
 41
0.0
 71
     1
 72
     1
  1
SOLIDWORKS Educational Product.
  7
SLDTEXTSTYLE0
 73
     1
 44
1.0
  0
MTEXT
  5
127
330
1F
100
AcDbEntity
  8
0
  6
Continuous
 62
     7
100
AcDbMText
 10
2.25
 20
-0.2005904091
 30
0.0
 40
0.1903
 41
0.0
 71
     1
 72
     1
  1
For Instructional Use Only.
  7
SLDTEXTSTYLE0
 73
     1
 44
1.0
  0
ENDSEC
  0
SECTION
  2
OBJECTS
  0
DICTIONARY
  5
C
330
0
100
AcDbDictionary
281
     1
  3
ACAD_GROUP
350
D
  3
ACAD_LAYOUT
350
1A
  3
ACAD_MLINESTYLE
350
17
  3
ACAD_PLOTSETTINGS
350
19
  3
ACAD_PLOTSTYLENAME
350
E
  3
ACAD_SCALELIST
350
47
  3
DWGPROPS
350
128
  0
DICTIONARY
  5
D
102
{ACAD_REACTORS
330
C
102
}
330
C
100
AcDbDictionary
281
     1
  0
DICTIONARY
  5
1A
102
{ACAD_REACTORS
330
C
102
}
330
C
100
AcDbDictionary
281
     1
  3
Layout1
350
1E
  3
Layout2
350
26
  3
Model
350
22
  0
DICTIONARY
  5
17
102
{ACAD_REACTORS
330
C
102
}
330
C
100
AcDbDictionary
281
     1
  3
Standard
350
18
  0
DICTIONARY
  5
19
102
{ACAD_REACTORS
330
C
102
}
330
C
100
AcDbDictionary
281
     1
  0
ACDBDICTIONARYWDFLT
  5
E
102
{ACAD_REACTORS
330
C
102
}
330
C
100
AcDbDictionary
281
     1
  3
Normal
350
F
100
AcDbDictionaryWithDefault
340
F
  0
DICTIONARY
  5
47
102
{ACAD_REACTORS
330
C
102
}
330
C
100
AcDbDictionary
281
     1
  3
A0
350
48
  3
A1
350
49
  3
A2
350
4A
  3
A3
350
4B
  3
A4
350
4C
  3
A5
350
4D
  3
A6
350
4E
  3
A7
350
4F
  3
A8
350
50
  3
A9
350
51
  3
B1
350
52
  3
B2
350
53
  3
B3
350
54
  3
B4
350
55
  3
B5
350
56
  3
B6
350
57
  3
B7
350
58
  0
XRECORD
  5
128
102
{ACAD_REACTORS
330
C
102
}
330
C
100
AcDbXrecord
280
     1
  1
DWGPROPS COOKIE
  2

  3

  4

  6

  7

  8
lzk91
  9

300
=
301
=
302
=
303
=
304
=
305
=
306
=
307
=
308
=
309
=
 40
0.0
 41
2460301.153793218
 42
2460301.153821852
  1

 90
        0
  0
LAYOUT
  5
1E
102
{ACAD_REACTORS
330
1A
102
}
330
1A
100
AcDbPlotSettings
  1

  2
none_device
  4

  6

 40
0.0
 41
0.0
 42
0.0
 43
0.0
 44
0.0
 45
0.0
 46
0.0
 47
0.0
 48
0.0
 49
0.0
140
0.0
141
0.0
142
1.0
143
1.0
 70
   688
 72
     0
 73
     0
 74
     5
  7

 75
    16
147
1.0
148
0.0
149
0.0
100
AcDbLayout
  1
Layout1
 70
     1
 71
     1
 10
0.0
 20
0.0
 11
12.0
 21
9.0
 12
0.0
 22
0.0
 32
0.0
 14
1.0000000000E+20
 24
1.0000000000E+20
 34
1.0000000000E+20
 15
-1.0000000000E+20
 25
-1.0000000000E+20
 35
-1.0000000000E+20
146
0.0
 13
0.0
 23
0.0
 33
0.0
 16
1.0
 26
0.0
 36
0.0
 17
0.0
 27
1.0
 37
0.0
 76
     0
330
1B
  0
LAYOUT
  5
26
102
{ACAD_REACTORS
330
1A
102
}
330
1A
100
AcDbPlotSettings
  1

  2
none_device
  4

  6

 40
0.0
 41
0.0
 42
0.0
 43
0.0
 44
0.0
 45
0.0
 46
0.0
 47
0.0
 48
0.0
 49
0.0
140
0.0
141
0.0
142
1.0
143
1.0
 70
   688
 72
     0
 73
     0
 74
     5
  7

 75
    16
147
1.0
148
0.0
149
0.0
100
AcDbLayout
  1
Layout2
 70
     1
 71
     2
 10
0.0
 20
0.0
 11
0.0
 21
0.0
 12
0.0
 22
0.0
 32
0.0
 14
0.0
 24
0.0
 34
0.0
 15
0.0
 25
0.0
 35
0.0
146
0.0
 13
0.0
 23
0.0
 33
0.0
 16
1.0
 26
0.0
 36
0.0
 17
0.0
 27
1.0
 37
0.0
 76
     0
330
23
  0
LAYOUT
  5
22
102
{ACAD_REACTORS
330
1A
102
}
330
1A
100
AcDbPlotSettings
  1

  2
none_device
  4
ANSI_A_(11.00_x_8.50_Inches)
  6

 40
6.35
 41
19.05
 42
6.35000508
 43
19.05000254
 44
279.4
 45
215.9
 46
-118.1822424465
 47
-24.3280495753
 48
0.0
 49
0.0
140
0.0
141
0.0
142
2.002377419
143
1.0
 70
  1696
 72
     0
 73
     0
 74
     0
  7

 75
     0
147
0.5913241897
148
-39.4088153714
149
0.0
100
AcDbLayout
  1
Model
 70
     1
 71
     0
 10
0.0
 20
0.0
 11
12.0
 21
9.0
 12
0.0
 22
0.0
 32
0.0
 14
2.25
 24
0.125
 34
0.0
 15
7.6410864624
 25
4.3275044431
 35
0.0
146
0.0
 13
0.0
 23
0.0
 33
0.0
 16
1.0
 26
0.0
 36
0.0
 17
0.0
 27
1.0
 37
0.0
 76
     0
330
1F
331
29
  0
MLINESTYLE
  5
18
102
{ACAD_REACTORS
330
17
102
}
330
17
100
AcDbMlineStyle
  2
Standard
 70
     0
  3

 62
   256
 51
90.0
 52
90.0
 71
     2
 49
0.5
 62
   256
  6
BYLAYER
 49
-0.5
 62
   256
  6
BYLAYER
  0
ACDBPLACEHOLDER
  5
F
102
{ACAD_REACTORS
330
E
102
}
330
E
  0
SCALE
  5
48
102
{ACAD_REACTORS
330
47
102
}
330
47
100
AcDbScale
 70
     0
300
1:1
140
1.0
141
1.0
290
     1
  0
SCALE
  5
49
102
{ACAD_REACTORS
330
47
102
}
330
47
100
AcDbScale
 70
     0
300
1/128" = 1'-0"
140
0.0078125
141
12.0
290
     0
  0
SCALE
  5
4A
102
{ACAD_REACTORS
330
47
102
}
330
47
100
AcDbScale
 70
     0
300
1/64" = 1'-0"
140
0.015625
141
12.0
290
     0
  0
SCALE
  5
4B
102
{ACAD_REACTORS
330
47
102
}
330
47
100
AcDbScale
 70
     0
300
1/32" = 1'-0"
140
0.03125
141
12.0
290
     0
  0
SCALE
  5
4C
102
{ACAD_REACTORS
330
47
102
}
330
47
100
AcDbScale
 70
     0
300
1/16" = 1'-0"
140
0.0625
141
12.0
290
     0
  0
SCALE
  5
4D
102
{ACAD_REACTORS
330
47
102
}
330
47
100
AcDbScale
 70
     0
300
3/32" = 1'-0"
140
0.09375
141
12.0
290
     0
  0
SCALE
  5
4E
102
{ACAD_REACTORS
330
47
102
}
330
47
100
AcDbScale
 70
     0
300
1/8" = 1'-0"
140
0.125
141
12.0
290
     0
  0
SCALE
  5
4F
102
{ACAD_REACTORS
330
47
102
}
330
47
100
AcDbScale
 70
     0
300
3/16" = 1'-0"
140
0.1875
141
12.0
290
     0
  0
SCALE
  5
50
102
{ACAD_REACTORS
330
47
102
}
330
47
100
AcDbScale
 70
     0
300
1/4" = 1'-0"
140
0.25
141
12.0
290
     0
  0
SCALE
  5
51
102
{ACAD_REACTORS
330
47
102
}
330
47
100
AcDbScale
 70
     0
300
3/8" = 1'-0"
140
0.375
141
12.0
290
     0
  0
SCALE
  5
52
102
{ACAD_REACTORS
330
47
102
}
330
47
100
AcDbScale
 70
     0
300
1/2" = 1'-0"
140
0.5
141
12.0
290
     0
  0
SCALE
  5
53
102
{ACAD_REACTORS
330
47
102
}
330
47
100
AcDbScale
 70
     0
300
3/4" = 1'-0"
140
0.75
141
12.0
290
     0
  0
SCALE
  5
54
102
{ACAD_REACTORS
330
47
102
}
330
47
100
AcDbScale
 70
     0
300
1" = 1'-0"
140
1.0
141
12.0
290
     0
  0
SCALE
  5
55
102
{ACAD_REACTORS
330
47
102
}
330
47
100
AcDbScale
 70
     0
300
1-1/2" = 1'-0"
140
1.5
141
12.0
290
     0
  0
SCALE
  5
56
102
{ACAD_REACTORS
330
47
102
}
330
47
100
AcDbScale
 70
     0
300
3" = 1'-0"
140
3.0
141
12.0
290
     0
  0
SCALE
  5
57
102
{ACAD_REACTORS
330
47
102
}
330
47
100
AcDbScale
 70
     0
300
6" = 1'-0"
140
6.0
141
12.0
290
     0
  0
SCALE
  5
58
102
{ACAD_REACTORS
330
47
102
}
330
47
100
AcDbScale
 70
     0
300
1'-0" = 1'-0"
140
12.0
141
12.0
290
     0
  0
ENDSEC
  0
EOF
