  0
SECTION
  2
HEADER
  9
$ACADVER
  1
AC1015
  9
$ACADMAINTVER
 70
     6
  9
$DWGCODEPAGE
  3
ANSI_1252
  9
$INSBASE
 10
0.0
 20
0.0
 30
0.0
  9
$EXTMIN
 10
-3.9375
 20
0.375
 30
0.0
  9
$EXTMAX
 10
3.9375
 20
2.25
 30
0.0
  9
$LIMMIN
 10
0.0
 20
0.0
  9
$LIMMAX
 10
12.0
 20
9.0
  9
$ORTHOMODE
 70
     0
  9
$REGENMODE
 70
     1
  9
$FILLMODE
 70
     1
  9
$QTEXTMODE
 70
     0
  9
$MIRRTEXT
 70
     1
  9
$LTSCALE
 40
1.0
  9
$ATTMODE
 70
     1
  9
$TEXTSIZE
 40
0.125
  9
$TRACEWID
 40
0.05
  9
$TEXTSTYLE
  7
Standard
  9
$CLAYER
  8
0
  9
$CELTYPE
  6
ByLayer
  9
$CECOLOR
 62
   256
  9
$CELTSCALE
 40
1.0
  9
$DISPSILH
 70
     0
  9
$DIMSCALE
 40
1.0
  9
$DIMASZ
 40
0.13
  9
$DIMEXO
 40
0.0
  9
$DIMDLI
 40
0.38
  9
$DIMRND
 40
0.0
  9
$DIMDLE
 40
0.0
  9
$DIMEXE
 40
0.125
  9
$DIMTP
 40
0.0
  9
$DIMTM
 40
0.0
  9
$DIMTXT
 40
0.125
  9
$DIMCEN
 40
0.09
  9
$DIMTSZ
 40
0.0
  9
$DIMTOL
 70
     0
  9
$DIMLIM
 70
     0
  9
$DIMTIH
 70
     1
  9
$DIMTOH
 70
     1
  9
$DIMSE1
 70
     0
  9
$DIMSE2
 70
     0
  9
$DIMTAD
 70
     0
  9
$DIMZIN
 70
     0
  9
$DIMBLK
  1

  9
$DIMASO
 70
     1
  9
$DIMSHO
 70
     1
  9
$DIMPOST
  1

  9
$DIMAPOST
  1

  9
$DIMALT
 70
     0
  9
$DIMALTD
 70
     2
  9
$DIMALTF
 40
25.4
  9
$DIMLFAC
 40
1.0
  9
$DIMTOFL
 70
     0
  9
$DIMTVP
 40
0.0
  9
$DIMTIX
 70
     0
  9
$DIMSOXD
 70
     0
  9
$DIMSAH
 70
     0
  9
$DIMBLK1
  1

  9
$DIMBLK2
  1

  9
$DIMSTYLE
  2
Standard
  9
$DIMCLRD
 70
     0
  9
$DIMCLRE
 70
     0
  9
$DIMCLRT
 70
     0
  9
$DIMTFAC
 40
1.0
  9
$DIMGAP
 40
0.06
  9
$DIMJUST
 70
     0
  9
$DIMSD1
 70
     0
  9
$DIMSD2
 70
     0
  9
$DIMTOLJ
 70
     1
  9
$DIMTZIN
 70
     0
  9
$DIMALTZ
 70
     0
  9
$DIMALTTZ
 70
     0
  9
$DIMUPT
 70
     0
  9
$DIMDEC
 70
     3
  9
$DIMTDEC
 70
     3
  9
$DIMALTU
 70
     2
  9
$DIMALTTD
 70
     2
  9
$DIMTXSTY
  7
Standard
  9
$DIMAUNIT
 70
     0
  9
$DIMADEC
 70
     2
  9
$DIMALTRND
 40
0.0
  9
$DIMAZIN
 70
     0
  9
$DIMDSEP
 70
    46
  9
$DIMATFIT
 70
     3
  9
$DIMFRAC
 70
     0
  9
$DIMLDRBLK
  1

  9
$DIMLUNIT
 70
     2
  9
$DIMLWD
 70
    -2
  9
$DIMLWE
 70
    -2
  9
$DIMTMOVE
 70
     0
  9
$LUNITS
 70
     2
  9
$LUPREC
 70
     6
  9
$SKETCHINC
 40
0.1
  9
$FILLETRAD
 40
0.0
  9
$AUNITS
 70
     0
  9
$AUPREC
 70
     2
  9
$MENU
  1
.
  9
$ELEVATION
 40
0.0
  9
$PELEVATION
 40
0.0
  9
$THICKNESS
 40
0.0
  9
$LIMCHECK
 70
     0
  9
$CHAMFERA
 40
0.0
  9
$CHAMFERB
 40
0.0
  9
$CHAMFERC
 40
0.0
  9
$CHAMFERD
 40
0.0
  9
$SKPOLY
 70
     0
  9
$TDCREATE
 40
2460301.949951123
  9
$TDUCREATE
 40
2460302.158284456
  9
$TDUPDATE
 40
2460301.949978449
  9
$TDUUPDATE
 40
2460302.158311783
  9
$TDINDWG
 40
0.0000000116
  9
$TDUSRTIMER
 40
0.0000000116
  9
$USRTIMER
 70
     1
  9
$ANGBASE
 50
0.0
  9
$ANGDIR
 70
     0
  9
$PDMODE
 70
     0
  9
$PDSIZE
 40
-1.0
  9
$PLINEWID
 40
0.0
  9
$SPLFRAME
 70
     0
  9
$SPLINETYPE
 70
     6
  9
$SPLINESEGS
 70
     8
  9
$HANDSEED
  5
469
  9
$SURFTAB1
 70
     6
  9
$SURFTAB2
 70
     6
  9
$SURFTYPE
 70
     6
  9
$SURFU
 70
     6
  9
$SURFV
 70
     6
  9
$UCSBASE
  2

  9
$UCSNAME
  2

  9
$UCSORG
 10
0.0
 20
0.0
 30
0.0
  9
$UCSXDIR
 10
1.0
 20
0.0
 30
0.0
  9
$UCSYDIR
 10
0.0
 20
1.0
 30
0.0
  9
$UCSORTHOREF
  2

  9
$UCSORTHOVIEW
 70
     0
  9
$UCSORGTOP
 10
0.0
 20
0.0
 30
0.0
  9
$UCSORGBOTTOM
 10
0.0
 20
0.0
 30
0.0
  9
$UCSORGLEFT
 10
0.0
 20
0.0
 30
0.0
  9
$UCSORGRIGHT
 10
0.0
 20
0.0
 30
0.0
  9
$UCSORGFRONT
 10
0.0
 20
0.0
 30
0.0
  9
$UCSORGBACK
 10
0.0
 20
0.0
 30
0.0
  9
$PUCSBASE
  2

  9
$PUCSNAME
  2

  9
$PUCSORG
 10
0.0
 20
0.0
 30
0.0
  9
$PUCSXDIR
 10
1.0
 20
0.0
 30
0.0
  9
$PUCSYDIR
 10
0.0
 20
1.0
 30
0.0
  9
$PUCSORTHOREF
  2

  9
$PUCSORTHOVIEW
 70
     0
  9
$PUCSORGTOP
 10
0.0
 20
0.0
 30
0.0
  9
$PUCSORGBOTTOM
 10
0.0
 20
0.0
 30
0.0
  9
$PUCSORGLEFT
 10
0.0
 20
0.0
 30
0.0
  9
$PUCSORGRIGHT
 10
0.0
 20
0.0
 30
0.0
  9
$PUCSORGFRONT
 10
0.0
 20
0.0
 30
0.0
  9
$PUCSORGBACK
 10
0.0
 20
0.0
 30
0.0
  9
$USERI1
 70
     0
  9
$USERI2
 70
     0
  9
$USERI3
 70
     0
  9
$USERI4
 70
     0
  9
$USERI5
 70
     0
  9
$USERR1
 40
0.0
  9
$USERR2
 40
0.0
  9
$USERR3
 40
0.0
  9
$USERR4
 40
0.0
  9
$USERR5
 40
0.0
  9
$WORLDVIEW
 70
     1
  9
$SHADEDGE
 70
     3
  9
$SHADEDIF
 70
    70
  9
$TILEMODE
 70
     1
  9
$MAXACTVP
 70
    64
  9
$PINSBASE
 10
0.0
 20
0.0
 30
0.0
  9
$PLIMCHECK
 70
     0
  9
$PEXTMIN
 10
1.0000000000E+20
 20
1.0000000000E+20
 30
1.0000000000E+20
  9
$PEXTMAX
 10
-1.0000000000E+20
 20
-1.0000000000E+20
 30
-1.0000000000E+20
  9
$PLIMMIN
 10
0.0
 20
0.0
  9
$PLIMMAX
 10
12.0
 20
9.0
  9
$UNITMODE
 70
     0
  9
$VISRETAIN
 70
     1
  9
$PLINEGEN
 70
     0
  9
$PSLTSCALE
 70
     1
  9
$TREEDEPTH
 70
  3020
  9
$CMLSTYLE
  2
Standard
  9
$CMLJUST
 70
     0
  9
$CMLSCALE
 40
1.0
  9
$PROXYGRAPHICS
 70
     1
  9
$MEASUREMENT
 70
     0
  9
$CELWEIGHT
370
    -1
  9
$ENDCAPS
280
     0
  9
$JOINSTYLE
280
     0
  9
$LWDISPLAY
290
     1
  9
$INSUNITS
 70
     1
  9
$HYPERLINKBASE
  1

  9
$STYLESHEET
  1

  9
$XEDIT
290
     1
  9
$CEPSNTYPE
380
     0
  9
$PSTYLEMODE
290
     1
  9
$FINGERPRINTGUID
  2
{f8f3bc27-fc2a-4738-bfab-d387b0b4e9ff}
  9
$VERSIONGUID
  2
{FAEB1C32-E019-11D5-929B-00C0DF256EC4}
  9
$EXTNAMES
290
     1
  9
$PSVPSCALE
 40
0.0
  9
$OLESTARTUP
290
     0
  0
ENDSEC
  0
SECTION
  2
CLASSES
  0
CLASS
  1
ACDBDICTIONARYWDFLT
  2
AcDbDictionaryWithDefault
  3
ObjectDBX Classes
 90
        0
280
     0
281
     0
  0
CLASS
  1
VISUALSTYLE
  2
AcDbVisualStyle
  3
ObjectDBX Classes
 90
     4095
280
     0
281
     0
  0
CLASS
  1
MATERIAL
  2
AcDbMaterial
  3
ObjectDBX Classes
 90
     1153
280
     0
281
     0
  0
CLASS
  1
SCALE
  2
AcDbScale
  3
ObjectDBX Classes
 90
     1153
280
     0
281
     0
  0
CLASS
  1
TABLESTYLE
  2
AcDbTableStyle
  3
ObjectDBX Classes
 90
     4095
280
     0
281
     0
  0
CLASS
  1
MLEADERSTYLE
  2
AcDbMLeaderStyle
  3
ACDB_MLEADERSTYLE_CLASS
 90
     4095
280
     0
281
     0
  0
CLASS
  1
SUN
  2
AcDbSun
  3
SCENEOE
 90
     1153
280
     0
281
     0
  0
CLASS
  1
ACDBPLACEHOLDER
  2
AcDbPlaceHolder
  3
ObjectDBX Classes
 90
        0
280
     0
281
     0
  0
CLASS
  1
LAYOUT
  2
AcDbLayout
  3
ObjectDBX Classes
 90
        0
280
     0
281
     0
  0
ENDSEC
  0
SECTION
  2
TABLES
  0
TABLE
  2
VPORT
  5
8
330
0
100
AcDbSymbolTable
 70
     1
  0
VPORT
  5
29
330
8
100
AcDbSymbolTableRecord
100
AcDbViewportTableRecord
  2
*Active
 70
     0
 10
0.0
 20
0.0
 11
1.0
 21
1.0
 12
0.0
 22
1.3125
 13
0.0
 23
0.0
 14
0.5
 24
0.5
 15
0.5
 25
0.5
 16
0.0
 26
0.0
 36
1.0
 17
0.0
 27
0.0
 37
0.0
 40
1.9125
 41
4.2
 42
50.0
 43
0.0
 44
0.0
 50
0.0
 51
0.0
 71
     0
 72
   100
 73
     1
 74
     3
 75
     0
 76
     0
 77
     0
 78
     0
281
     0
 65
     1
110
0.0
120
0.0
130
0.0
111
1.0
121
0.0
131
0.0
112
0.0
122
1.0
132
0.0
 79
     0
146
0.0
  0
ENDTAB
  0
TABLE
  2
LTYPE
  5
5
330
0
100
AcDbSymbolTable
 70
     6
  0
LTYPE
  5
14
330
5
100
AcDbSymbolTableRecord
100
AcDbLinetypeTableRecord
  2
ByBlock
 70
     0
  3

 72
    65
 73
     0
 40
0.0
  0
LTYPE
  5
15
330
5
100
AcDbSymbolTableRecord
100
AcDbLinetypeTableRecord
  2
ByLayer
 70
     0
  3

 72
    65
 73
     0
 40
0.0
  0
LTYPE
  5
16
330
5
100
AcDbSymbolTableRecord
100
AcDbLinetypeTableRecord
  2
Continuous
 70
     0
  3
Solid line
 72
    65
 73
     0
 40
0.0
  0
LTYPE
  5
5E
330
5
100
AcDbSymbolTableRecord
100
AcDbLinetypeTableRecord
  2
HIDDEN
 70
     0
  3
Hidden __ __ __ __ __ __ __ __ __ __ __ __ __ __
 72
    65
 73
     2
 40
0.075
 49
0.05
 74
     0
 49
-0.025
 74
     0
  0
LTYPE
  5
5F
330
5
100
AcDbSymbolTableRecord
100
AcDbLinetypeTableRecord
  2
PHANTOM
 70
     0
  3
Phantom ______  __  __  ______  __  __  ______
 72
    65
 73
     6
 40
0.5
 49
0.25
 74
     0
 49
-0.05
 74
     0
 49
0.05
 74
     0
 49
-0.05
 74
     0
 49
0.05
 74
     0
 49
-0.05
 74
     0
  0
LTYPE
  5
60
330
5
100
AcDbSymbolTableRecord
100
AcDbLinetypeTableRecord
  2
CENTER
 70
     0
  3
Center ____ _ ____ _ ____ _ ____ _ ____ _ ____
 72
    65
 73
     4
 40
0.4
 49
0.25
 74
     0
 49
-0.05
 74
     0
 49
0.05
 74
     0
 49
-0.05
 74
     0
  0
LTYPE
  5
61
330
5
100
AcDbSymbolTableRecord
100
AcDbLinetypeTableRecord
  2
CENTERX2
 70
     0
  3
Center (2x) ________  __  ________  __  _____
 72
    65
 73
     4
 40
0.8
 49
0.5
 74
     0
 49
-0.1
 74
     0
 49
0.1
 74
     0
 49
-0.1
 74
     0
  0
LTYPE
  5
62
330
5
100
AcDbSymbolTableRecord
100
AcDbLinetypeTableRecord
  2
DOT2
 70
     0
  3
Dot (.5x) ........................................
 72
    65
 73
     2
 40
0.025
 49
0.0
 74
     0
 49
-0.025
 74
     0
  0
ENDTAB
  0
TABLE
  2
LAYER
  5
2
330
0
100
AcDbSymbolTable
 70
     1
  0
LAYER
  5
10
330
2
100
AcDbSymbolTableRecord
100
AcDbLayerTableRecord
  2
0
 70
     0
 62
     7
  6
Continuous
370
    -3
390
F
  0
ENDTAB
  0
TABLE
  2
STYLE
  5
3
330
0
100
AcDbSymbolTable
 70
     2
  0
STYLE
  5
11
330
3
100
AcDbSymbolTableRecord
100
AcDbTextStyleTableRecord
  2
Standard
 70
     0
 40
0.0
 41
1.0
 50
0.0
 71
     0
 42
0.125
  3
txt
  4

  0
STYLE
  5
465
330
3
100
AcDbSymbolTableRecord
100
AcDbTextStyleTableRecord
  2
SLDTEXTSTYLE0
 70
     0
 40
0.0
 41
0.7
 50
0.0
 71
     0
 42
0.125
  3
TXT
  4

  0
ENDTAB
  0
TABLE
  2
VIEW
  5
6
330
0
100
AcDbSymbolTable
 70
     0
  0
ENDTAB
  0
TABLE
  2
UCS
  5
7
330
0
100
AcDbSymbolTable
 70
     0
  0
ENDTAB
  0
TABLE
  2
APPID
  5
9
330
0
100
AcDbSymbolTable
 70
     1
  0
APPID
  5
12
330
9
100
AcDbSymbolTableRecord
100
AcDbRegAppTableRecord
  2
ACAD
 70
     0
  0
ENDTAB
  0
TABLE
  2
DIMSTYLE
  5
A
330
0
100
AcDbSymbolTable
 70
     1
100
AcDbDimStyleTable
  0
DIMSTYLE
105
27
330
A
100
AcDbSymbolTableRecord
100
AcDbDimStyleTableRecord
  2
Standard
 70
     0
178
     0
340
11
  0
ENDTAB
  0
TABLE
  2
BLOCK_RECORD
  5
1
330
0
100
AcDbSymbolTable
 70
     1
  0
BLOCK_RECORD
  5
1F
330
1
100
AcDbSymbolTableRecord
100
AcDbBlockTableRecord
  2
*Model_Space
340
22
  0
BLOCK_RECORD
  5
1B
330
1
100
AcDbSymbolTableRecord
100
AcDbBlockTableRecord
  2
*Paper_Space
340
1E
  0
BLOCK_RECORD
  5
23
330
1
100
AcDbSymbolTableRecord
100
AcDbBlockTableRecord
  2
*Paper_Space0
340
26
  0
ENDTAB
  0
ENDSEC
  0
SECTION
  2
BLOCKS
  0
BLOCK
  5
20
330
1F
100
AcDbEntity
  8
0
100
AcDbBlockBegin
  2
*Model_Space
 70
     0
 10
0.0
 20
0.0
 30
0.0
  3
*Model_Space
  1

  0
ENDBLK
  5
21
330
1F
100
AcDbEntity
  8
0
100
AcDbBlockEnd
  0
BLOCK
  5
1C
330
1B
100
AcDbEntity
 67
     1
  8
0
100
AcDbBlockBegin
  2
*Paper_Space
 70
     0
 10
0.0
 20
0.0
 30
0.0
  3
*Paper_Space
  1

  0
ENDBLK
  5
1D
330
1B
100
AcDbEntity
 67
     1
  8
0
100
AcDbBlockEnd
  0
BLOCK
  5
24
330
23
100
AcDbEntity
  8
0
100
AcDbBlockBegin
  2
*Paper_Space0
 70
     0
 10
0.0
 20
0.0
 30
0.0
  3
*Paper_Space0
  1

  0
ENDBLK
  5
25
330
23
100
AcDbEntity
  8
0
100
AcDbBlockEnd
  0
ENDSEC
  0
SECTION
  2
ENTITIES
  0
CIRCLE
  5
63
330
1F
100
AcDbEntity
  8
0
  6
Continuous
 62
     7
370
    25
100
AcDbCircle
 10
1.5275
 20
0.8325787402
 30
0.0
 40
0.0747499999999997
  0
CIRCLE
  5
64
330
1F
100
AcDbEntity
  8
0
  6
Continuous
 62
     7
370
    25
100
AcDbCircle
 10
0.1525
 20
0.8325787402
 30
0.0
 40
0.07475
  0
CIRCLE
  5
D1
330
1F
100
AcDbEntity
  8
0
  6
Continuous
 62
     7
370
    25
100
AcDbCircle
 10
1.5275
 20
2.0924212598
 30
0.0
 40
0.0747499999999999
  0
CIRCLE
  5
D2
330
1F
100
AcDbEntity
  8
0
  6
Continuous
 62
     7
370
    25
100
AcDbCircle
 10
0.1525
 20
2.0924212598
 30
0.0
 40
0.0747500000000006
  0
CIRCLE
  5
D3
330
1F
100
AcDbEntity
  8
0
  6
Continuous
 62
     7
370
    25
100
AcDbCircle
 10
1.875
 20
2.0625
 30
0.0
 40
0.1005
  0
CIRCLE
  5
D4
330
1F
100
AcDbEntity
  8
0
  6
Continuous
 62
     7
370
    25
100
AcDbCircle
 10
1.875
 20
1.0
 30
0.0
 40
0.1005
  0
CIRCLE
  5
D5
330
1F
100
AcDbEntity
  8
0
  6
Continuous
 62
     7
370
    25
100
AcDbCircle
 10
-1.25
 20
1.0
 30
0.0
 40
0.1005
  0
CIRCLE
  5
D6
330
1F
100
AcDbEntity
  8
0
  6
Continuous
 62
     7
370
    25
100
AcDbCircle
 10
-1.25
 20
2.0625
 30
0.0
 40
0.1005
  0
CIRCLE
  5
D7
330
1F
100
AcDbEntity
  8
0
  6
Continuous
 62
     7
370
    25
100
AcDbCircle
 10
-2.9274606299
 20
1.7755905512
 30
0.0
 40
0.0625
  0
CIRCLE
  5
D8
330
1F
100
AcDbEntity
  8
0
  6
Continuous
 62
     7
370
    25
100
AcDbCircle
 10
-2.2975393701
 20
1.7755905512
 30
0.0
 40
0.0625
  0
CIRCLE
  5
D9
330
1F
100
AcDbEntity
  8
0
  6
Continuous
 62
     7
370
    25
100
AcDbCircle
 10
-2.2975393701
 20
1.2244094488
 30
0.0
 40
0.0625
  0
CIRCLE
  5
DA
330
1F
100
AcDbEntity
  8
0
  6
Continuous
 62
     7
370
    25
100
AcDbCircle
 10
-2.9274606299
 20
1.2244094488
 30
0.0
 40
0.0624999999999996
  0
LINE
  5
26A
330
1F
100
AcDbEntity
  8
0
  6
Continuous
 62
     7
370
    25
100
AcDbLine
 10
3.5625
 20
1.95
 30
0.0
 11
3.5625
 21
1.5279508497
 31
0.0
  0
LINE
  5
26B
330
1F
100
AcDbEntity
  8
0
  6
Continuous
 62
     7
370
    25
100
AcDbLine
 10
3.8875
 20
1.5
 30
0.0
 11
3.5904508497
 21
1.5
 31
0.0
  0
LINE
  5
26C
330
1F
100
AcDbEntity
  8
0
  6
Continuous
 62
     7
370
    25
100
AcDbLine
 10
3.9375
 20
1.05
 30
0.0
 11
3.9375
 21
1.45
 31
0.0
  0
LINE
  5
26D
330
1F
100
AcDbEntity
  8
0
  6
Continuous
 62
     7
370
    25
100
AcDbLine
 10
3.8875
 20
1.0
 30
0.0
 11
3.5904508497
 21
1.0
 31
0.0
  0
LINE
  5
26E
330
1F
100
AcDbEntity
  8
0
  6
Continuous
 62
     7
370
    25
100
AcDbLine
 10
2.5625
 20
0.425
 30
0.0
 11
2.5625
 21
0.4720491503
 31
0.0
  0
LINE
  5
26F
330
1F
100
AcDbEntity
  8
0
  6
Continuous
 62
     7
370
    25
100
AcDbLine
 10
2.5125
 20
0.375
 30
0.0
 11
1.9875
 21
0.375
 31
0.0
  0
LINE
  5
270
330
1F
100
AcDbEntity
  8
0
  6
Continuous
 62
     7
370
    25
100
AcDbLine
 10
1.9375
 20
0.425
 30
0.0
 11
1.9375
 21
0.4720491503
 31
0.0
  0
LINE
  5
271
330
1F
100
AcDbEntity
  8
0
  6
Continuous
 62
     7
370
    25
100
AcDbLine
 10
0.625
 20
0.425
 30
0.0
 11
0.625
 21
0.4720491503
 31
0.0
  0
LINE
  5
272
330
1F
100
AcDbEntity
  8
0
  6
Continuous
 62
     7
370
    25
100
AcDbLine
 10
0.575
 20
0.375
 30
0.0
 11
-0.575
 21
0.375
 31
0.0
  0
LINE
  5
273
330
1F
100
AcDbEntity
  8
0
  6
Continuous
 62
     7
370
    25
100
AcDbLine
 10
-0.625
 20
0.425
 30
0.0
 11
-0.625
 21
0.4720491503
 31
0.0
  0
LINE
  5
274
330
1F
100
AcDbEntity
  8
0
  6
Continuous
 62
     7
370
    25
100
AcDbLine
 10
-1.9375
 20
0.425
 30
0.0
 11
-1.9375
 21
0.4720491503
 31
0.0
  0
LINE
  5
275
330
1F
100
AcDbEntity
  8
0
  6
Continuous
 62
     7
370
    25
100
AcDbLine
 10
-1.9875
 20
0.375
 30
0.0
 11
-2.5125
 21
0.375
 31
0.0
  0
LINE
  5
276
330
1F
100
AcDbEntity
  8
0
  6
Continuous
 62
     7
370
    25
100
AcDbLine
 10
-2.5625
 20
0.425
 30
0.0
 11
-2.5625
 21
0.4720491503
 31
0.0
  0
LINE
  5
277
330
1F
100
AcDbEntity
  8
0
  6
Continuous
 62
     7
370
    25
100
AcDbLine
 10
-3.5904508497
 20
1.0
 30
0.0
 11
-3.8875
 21
1.0
 31
0.0
  0
LINE
  5
278
330
1F
100
AcDbEntity
  8
0
  6
Continuous
 62
     7
370
    25
100
AcDbLine
 10
-3.9375
 20
1.05
 30
0.0
 11
-3.9375
 21
1.45
 31
0.0
  0
LINE
  5
279
330
1F
100
AcDbEntity
  8
0
  6
Continuous
 62
     7
370
    25
100
AcDbLine
 10
-3.5904508497
 20
1.5
 30
0.0
 11
-3.8875
 21
1.5
 31
0.0
  0
LINE
  5
27A
330
1F
100
AcDbEntity
  8
0
  6
Continuous
 62
     7
370
    25
100
AcDbLine
 10
-3.5625
 20
1.95
 30
0.0
 11
-3.5625
 21
1.5279508497
 31
0.0
  0
LINE
  5
27B
330
1F
100
AcDbEntity
  8
0
  6
Continuous
 62
     7
370
    25
100
AcDbLine
 10
-2.1375
 20
1.9375
 30
0.0
 11
-2.1375
 21
1.5625
 31
0.0
  0
LINE
  5
27C
330
1F
100
AcDbEntity
  8
0
  6
Continuous
 62
     7
370
    25
100
AcDbLine
 10
-2.075
 20
1.5
 30
0.0
 11
-1.7
 21
1.5
 31
0.0
  0
LINE
  5
27D
330
1F
100
AcDbEntity
  8
0
  6
Continuous
 62
     7
370
    25
100
AcDbLine
 10
-1.6375
 20
1.5625
 30
0.0
 11
-1.6375
 21
1.9375
 31
0.0
  0
LINE
  5
27E
330
1F
100
AcDbEntity
  8
0
  6
Continuous
 62
     7
370
    25
100
AcDbLine
 10
-1.4375
 20
2.0279508497
 30
0.0
 11
-1.4375
 21
2.2
 31
0.0
  0
LINE
  5
27F
330
1F
100
AcDbEntity
  8
0
  6
Continuous
 62
     7
370
    25
100
AcDbLine
 10
-0.6875
 20
2.0279508497
 30
0.0
 11
-0.6875
 21
2.2
 31
0.0
  0
LINE
  5
280
330
1F
100
AcDbEntity
  8
0
  6
Continuous
 62
     7
370
    25
100
AcDbLine
 10
-0.6595491503
 20
2.0
 30
0.0
 11
-0.2154508497
 21
2.0
 31
0.0
  0
LINE
  5
281
330
1F
100
AcDbEntity
  8
0
  6
Continuous
 62
     7
370
    25
100
AcDbLine
 10
-0.1875
 20
2.0279508497
 30
0.0
 11
-0.1875
 21
2.2
 31
0.0
  0
LINE
  5
282
330
1F
100
AcDbEntity
  8
0
  6
Continuous
 62
     7
370
    25
100
AcDbLine
 10
0.59
 20
2.0279508497
 30
0.0
 11
0.59
 21
2.2
 31
0.0
  0
LINE
  5
283
330
1F
100
AcDbEntity
  8
0
  6
Continuous
 62
     7
370
    25
100
AcDbLine
 10
0.6179508497
 20
2.0
 30
0.0
 11
1.0620491503
 21
2.0
 31
0.0
  0
LINE
  5
284
330
1F
100
AcDbEntity
  8
0
  6
Continuous
 62
     7
370
    25
100
AcDbLine
 10
1.09
 20
2.0279508497
 30
0.0
 11
1.09
 21
2.2
 31
0.0
  0
LINE
  5
285
330
1F
100
AcDbEntity
  8
0
  6
Continuous
 62
     7
370
    25
100
AcDbLine
 10
1.14
 20
2.25
 30
0.0
 11
2.0125
 21
2.25
 31
0.0
  0
LINE
  5
286
330
1F
100
AcDbEntity
  8
0
  6
Continuous
 62
     7
370
    25
100
AcDbLine
 10
2.0625
 20
2.2
 30
0.0
 11
2.0625
 21
2.0279508497
 31
0.0
  0
LINE
  5
287
330
1F
100
AcDbEntity
  8
0
  6
Continuous
 62
     7
370
    25
100
AcDbLine
 10
2.6875
 20
1.9375
 30
0.0
 11
2.6875
 21
1.6125
 31
0.0
  0
LINE
  5
288
330
1F
100
AcDbEntity
  8
0
  6
Continuous
 62
     7
370
    25
100
AcDbLine
 10
2.75
 20
1.55
 30
0.0
 11
3.125
 21
1.55
 31
0.0
  0
LINE
  5
289
330
1F
100
AcDbEntity
  8
0
  6
Continuous
 62
     7
370
    25
100
AcDbLine
 10
3.1875
 20
1.6125
 30
0.0
 11
3.1875
 21
1.9375
 31
0.0
  0
LINE
  5
28A
330
1F
100
AcDbEntity
  8
0
  6
Continuous
 62
     7
370
    25
100
AcDbLine
 10
1.1191987298
 20
1.425
 30
0.0
 11
1.2058012702
 21
1.425
 31
0.0
  0
LINE
  5
28B
330
1F
100
AcDbEntity
  8
0
  6
Continuous
 62
     7
370
    25
100
AcDbLine
 10
1.0325961894
 20
1.325
 30
0.0
 11
1.0758974596
 21
1.4
 31
0.0
  0
LINE
  5
28C
330
1F
100
AcDbEntity
  8
0
  6
Continuous
 62
     7
370
    25
100
AcDbLine
 10
1.0758974596
 20
1.2
 30
0.0
 11
1.0325961894
 21
1.275
 31
0.0
  0
LINE
  5
28D
330
1F
100
AcDbEntity
  8
0
  6
Continuous
 62
     7
370
    25
100
AcDbLine
 10
1.2058012702
 20
1.175
 30
0.0
 11
1.1191987298
 21
1.175
 31
0.0
  0
LINE
  5
28E
330
1F
100
AcDbEntity
  8
0
  6
Continuous
 62
     7
370
    25
100
AcDbLine
 10
1.2924038106
 20
1.275
 30
0.0
 11
1.2491025404
 21
1.2
 31
0.0
  0
LINE
  5
28F
330
1F
100
AcDbEntity
  8
0
  6
Continuous
 62
     7
370
    25
100
AcDbLine
 10
1.2491025404
 20
1.4
 30
0.0
 11
1.2924038106
 21
1.325
 31
0.0
  0
LINE
  5
290
330
1F
100
AcDbEntity
  8
0
  6
Continuous
 62
     7
370
    25
100
AcDbLine
 10
-2.7135362971
 20
1.7125
 30
0.0
 11
-2.5114637029
 21
1.7125
 31
0.0
  0
LINE
  5
291
330
1F
100
AcDbEntity
  8
0
  6
Continuous
 62
     7
370
    25
100
AcDbLine
 10
-2.8470485469
 20
1.51875
 30
0.0
 11
-2.7460122498
 21
1.69375
 31
0.0
  0
LINE
  5
292
330
1F
100
AcDbEntity
  8
0
  6
Continuous
 62
     7
370
    25
100
AcDbLine
 10
-2.7460122498
 20
1.30625
 30
0.0
 11
-2.8470485469
 21
1.48125
 31
0.0
  0
LINE
  5
293
330
1F
100
AcDbEntity
  8
0
  6
Continuous
 62
     7
370
    25
100
AcDbLine
 10
-2.5114637029
 20
1.2875
 30
0.0
 11
-2.7135362971
 21
1.2875
 31
0.0
  0
LINE
  5
294
330
1F
100
AcDbEntity
  8
0
  6
Continuous
 62
     7
370
    25
100
AcDbLine
 10
-2.3779514531
 20
1.48125
 30
0.0
 11
-2.4789877502
 21
1.30625
 31
0.0
  0
LINE
  5
295
330
1F
100
AcDbEntity
  8
0
  6
Continuous
 62
     7
370
    25
100
AcDbLine
 10
-2.4789877502
 20
1.69375
 30
0.0
 11
-2.3779514531
 21
1.51875
 31
0.0
  0
LINE
  5
296
330
1F
100
AcDbEntity
  8
0
  6
Continuous
 62
     7
370
    25
100
AcDbLine
 10
-3.1898502692
 20
1.4375
 30
0.0
 11
-2.987777675
 21
1.4375
 31
0.0
  0
LINE
  5
297
330
1F
100
AcDbEntity
  8
0
  6
Continuous
 62
     7
370
    25
100
AcDbLine
 10
-3.3233625189
 20
1.24375
 30
0.0
 11
-3.2223262218
 21
1.41875
 31
0.0
  0
LINE
  5
298
330
1F
100
AcDbEntity
  8
0
  6
Continuous
 62
     7
370
    25
100
AcDbLine
 10
-3.2223262218
 20
1.03125
 30
0.0
 11
-3.3233625189
 21
1.20625
 31
0.0
  0
LINE
  5
299
330
1F
100
AcDbEntity
  8
0
  6
Continuous
 62
     7
370
    25
100
AcDbLine
 10
-2.987777675
 20
1.0125
 30
0.0
 11
-3.1898502692
 21
1.0125
 31
0.0
  0
LINE
  5
29A
330
1F
100
AcDbEntity
  8
0
  6
Continuous
 62
     7
370
    25
100
AcDbLine
 10
-2.0351497308
 20
1.0125
 30
0.0
 11
-2.237222325
 21
1.0125
 31
0.0
  0
LINE
  5
29B
330
1F
100
AcDbEntity
  8
0
  6
Continuous
 62
     7
370
    25
100
AcDbLine
 10
-1.9016374811
 20
1.20625
 30
0.0
 11
-2.0026737782
 21
1.03125
 31
0.0
  0
LINE
  5
29C
330
1F
100
AcDbEntity
  8
0
  6
Continuous
 62
     7
370
    25
100
AcDbLine
 10
-1.9305049945
 20
1.29375
 30
0.0
 11
-1.9016374811
 21
1.24375
 31
0.0
  0
LINE
  5
29D
330
1F
100
AcDbEntity
  8
0
  6
Continuous
 62
     7
370
    25
100
AcDbLine
 10
-2.0911493361
 20
1.3125
 30
0.0
 11
-1.9629809472
 21
1.3125
 31
0.0
  0
LINE
  5
29E
330
1F
100
AcDbEntity
  8
0
  6
Continuous
 62
     7
370
    25
100
AcDbLine
 10
2.5776737782
 20
1.20625
 30
0.0
 11
2.4766374811
 21
1.38125
 31
0.0
  0
LINE
  5
29F
330
1F
100
AcDbEntity
  8
0
  6
Continuous
 62
     7
370
    25
100
AcDbLine
 10
2.812222325
 20
1.1875
 30
0.0
 11
2.6101497308
 21
1.1875
 31
0.0
  0
LINE
  5
2A0
330
1F
100
AcDbEntity
  8
0
  6
Continuous
 62
     7
370
    25
100
AcDbLine
 10
2.9457345748
 20
1.38125
 30
0.0
 11
2.8446982777
 21
1.20625
 31
0.0
  0
LINE
  5
2A1
330
1F
100
AcDbEntity
  8
0
  6
Continuous
 62
     7
370
    25
100
AcDbLine
 10
2.4949660789
 20
1.425
 30
0.0
 11
2.9274059769
 21
1.425
 31
0.0
  0
LINE
  5
2A2
330
1F
100
AcDbEntity
  8
0
  6
Continuous
 62
     7
370
    25
100
AcDbLine
 10
2.9457345748
 20
0.83125
 30
0.0
 11
2.9385176964
 21
0.81875
 31
0.0
  0
LINE
  5
2A3
330
1F
100
AcDbEntity
  8
0
  6
Continuous
 62
     7
370
    25
100
AcDbLine
 10
2.8446982777
 20
1.04375
 30
0.0
 11
2.9457345748
 21
0.86875
 31
0.0
  0
LINE
  5
2A4
330
1F
100
AcDbEntity
  8
0
  6
Continuous
 62
     7
370
    25
100
AcDbLine
 10
2.6101497308
 20
1.0625
 30
0.0
 11
2.812222325
 21
1.0625
 31
0.0
  0
LINE
  5
2A5
330
1F
100
AcDbEntity
  8
0
  6
Continuous
 62
     7
370
    25
100
AcDbLine
 10
2.4766374811
 20
0.86875
 30
0.0
 11
2.5776737782
 21
1.04375
 31
0.0
  0
LINE
  5
2A6
330
1F
100
AcDbEntity
  8
0
  6
Continuous
 62
     7
370
    25
100
AcDbLine
 10
2.4838543594
 20
0.81875
 30
0.0
 11
2.4766374811
 21
0.83125
 31
0.0
  0
LINE
  5
2A7
330
1F
100
AcDbEntity
  8
0
  6
Continuous
 62
     7
370
    25
100
AcDbLine
 10
2.9060417438
 20
0.8
 30
0.0
 11
2.5163303121
 21
0.8
 31
0.0
  0
LINE
  5
2A8
330
1F
100
AcDbEntity
  8
0
  6
Continuous
 62
     7
370
    25
100
AcDbLine
 10
2.25
 20
1.5
 30
0.0
 11
2.25
 21
1.775
 31
0.0
  0
LINE
  5
2A9
330
1F
100
AcDbEntity
  8
0
  6
Continuous
 62
     7
370
    25
100
AcDbLine
 10
2.3359083529
 20
1.4625
 30
0.0
 11
2.2875
 21
1.4625
 31
0.0
  0
LINE
  5
2AA
330
1F
100
AcDbEntity
  8
0
  6
Continuous
 62
     7
370
    25
100
AcDbLine
 10
2.4694206027
 20
1.65625
 30
0.0
 11
2.3683843056
 21
1.48125
 31
0.0
  0
LINE
  5
2AB
330
1F
100
AcDbEntity
  8
0
  6
Continuous
 62
     7
370
    25
100
AcDbLine
 10
2.4116855758
 20
1.79375
 30
0.0
 11
2.4694206027
 21
1.69375
 31
0.0
  0
LINE
  5
2AC
330
1F
100
AcDbEntity
  8
0
  6
Continuous
 62
     7
370
    25
100
AcDbLine
 10
2.2875
 20
1.8125
 30
0.0
 11
2.3792096231
 21
1.8125
 31
0.0
  0
LINE
  5
2AD
330
1F
100
AcDbEntity
  8
0
  6
Continuous
 62
     7
370
    25
100
AcDbLine
 10
1.1119818514
 20
1.8
 30
0.0
 11
1.2130181486
 21
1.8
 31
0.0
  0
LINE
  5
2AE
330
1F
100
AcDbEntity
  8
0
  6
Continuous
 62
     7
370
    25
100
AcDbLine
 10
1.0289877502
 20
1.69375
 30
0.0
 11
1.0795058988
 21
1.78125
 31
0.0
  0
LINE
  5
2AF
330
1F
100
AcDbEntity
  8
0
  6
Continuous
 62
     7
370
    25
100
AcDbLine
 10
1.0795058988
 20
1.56875
 30
0.0
 11
1.0289877502
 21
1.65625
 31
0.0
  0
LINE
  5
2B0
330
1F
100
AcDbEntity
  8
0
  6
Continuous
 62
     7
370
    25
100
AcDbLine
 10
1.2130181486
 20
1.55
 30
0.0
 11
1.1119818514
 21
1.55
 31
0.0
  0
LINE
  5
2B1
330
1F
100
AcDbEntity
  8
0
  6
Continuous
 62
     7
370
    25
100
AcDbLine
 10
1.2960122498
 20
1.65625
 30
0.0
 11
1.2454941012
 21
1.56875
 31
0.0
  0
LINE
  5
2B2
330
1F
100
AcDbEntity
  8
0
  6
Continuous
 62
     7
370
    25
100
AcDbLine
 10
1.2454941012
 20
1.78125
 30
0.0
 11
1.2960122498
 21
1.69375
 31
0.0
  0
LINE
  5
2B3
330
1F
100
AcDbEntity
  8
0
  6
Continuous
 62
     7
370
    25
100
AcDbLine
 10
1.2960122498
 20
0.90625
 30
0.0
 11
1.2454941012
 21
0.81875
 31
0.0
  0
LINE
  5
2B4
330
1F
100
AcDbEntity
  8
0
  6
Continuous
 62
     7
370
    25
100
AcDbLine
 10
1.2454941012
 20
1.03125
 30
0.0
 11
1.2960122498
 21
0.94375
 31
0.0
  0
LINE
  5
2B5
330
1F
100
AcDbEntity
  8
0
  6
Continuous
 62
     7
370
    25
100
AcDbLine
 10
1.1119818514
 20
1.05
 30
0.0
 11
1.2130181486
 21
1.05
 31
0.0
  0
LINE
  5
2B6
330
1F
100
AcDbEntity
  8
0
  6
Continuous
 62
     7
370
    25
100
AcDbLine
 10
1.0289877502
 20
0.94375
 30
0.0
 11
1.0795058988
 21
1.03125
 31
0.0
  0
LINE
  5
2B7
330
1F
100
AcDbEntity
  8
0
  6
Continuous
 62
     7
370
    25
100
AcDbLine
 10
1.0795058988
 20
0.81875
 30
0.0
 11
1.0289877502
 21
0.90625
 31
0.0
  0
LINE
  5
2B8
330
1F
100
AcDbEntity
  8
0
  6
Continuous
 62
     7
370
    25
100
AcDbLine
 10
1.2130181486
 20
0.8
 30
0.0
 11
1.1119818514
 21
0.8
 31
0.0
  0
LINE
  5
2B9
330
1F
100
AcDbEntity
  8
0
  6
Continuous
 62
     7
370
    25
100
AcDbLine
 10
-2.5114637029
 20
0.7375
 30
0.0
 11
-2.7135362971
 21
0.7375
 31
0.0
  0
LINE
  5
2BA
330
1F
100
AcDbEntity
  8
0
  6
Continuous
 62
     7
370
    25
100
AcDbLine
 10
-2.3779514531
 20
0.93125
 30
0.0
 11
-2.4789877502
 21
0.75625
 31
0.0
  0
LINE
  5
2BB
330
1F
100
AcDbEntity
  8
0
  6
Continuous
 62
     7
370
    25
100
AcDbLine
 10
-2.4789877502
 20
1.14375
 30
0.0
 11
-2.3779514531
 21
0.96875
 31
0.0
  0
LINE
  5
2BC
330
1F
100
AcDbEntity
  8
0
  6
Continuous
 62
     7
370
    25
100
AcDbLine
 10
-2.7135362971
 20
1.1625
 30
0.0
 11
-2.5114637029
 21
1.1625
 31
0.0
  0
LINE
  5
2BD
330
1F
100
AcDbEntity
  8
0
  6
Continuous
 62
     7
370
    25
100
AcDbLine
 10
-2.8470485469
 20
0.96875
 30
0.0
 11
-2.7460122498
 21
1.14375
 31
0.0
  0
LINE
  5
2BE
330
1F
100
AcDbEntity
  8
0
  6
Continuous
 62
     7
370
    25
100
AcDbLine
 10
-2.7460122498
 20
0.75625
 30
0.0
 11
-2.8470485469
 21
0.93125
 31
0.0
  0
LINE
  5
2BF
330
1F
100
AcDbEntity
  8
0
  6
Continuous
 62
     7
370
    25
100
AcDbLine
 10
-1.4425240474
 20
0.9014577936
 30
0.0
 11
-1.5263598061
 21
0.75625
 31
0.0
  0
LINE
  5
2C0
330
1F
100
AcDbEntity
  8
0
  6
Continuous
 62
     7
370
    25
100
AcDbLine
 10
-1.4375
 20
0.9797922064
 30
0.0
 11
-1.4375
 21
0.9202077936
 31
0.0
  0
LINE
  5
2C1
330
1F
100
AcDbEntity
  8
0
  6
Continuous
 62
     7
370
    25
100
AcDbLine
 10
-1.5263598061
 20
1.14375
 30
0.0
 11
-1.4425240474
 21
0.9985422064
 31
0.0
  0
LINE
  5
2C2
330
1F
100
AcDbEntity
  8
0
  6
Continuous
 62
     7
370
    25
100
AcDbLine
 10
-1.7609083529
 20
1.1625
 30
0.0
 11
-1.5588357587
 21
1.1625
 31
0.0
  0
LINE
  5
2C3
330
1F
100
AcDbEntity
  8
0
  6
Continuous
 62
     7
370
    25
100
AcDbLine
 10
-1.8944206027
 20
0.96875
 30
0.0
 11
-1.7933843056
 21
1.14375
 31
0.0
  0
LINE
  5
2C4
330
1F
100
AcDbEntity
  8
0
  6
Continuous
 62
     7
370
    25
100
AcDbLine
 10
-1.7933843056
 20
0.75625
 30
0.0
 11
-1.8944206027
 21
0.93125
 31
0.0
  0
LINE
  5
2C5
330
1F
100
AcDbEntity
  8
0
  6
Continuous
 62
     7
370
    25
100
AcDbLine
 10
-1.5588357587
 20
0.7375
 30
0.0
 11
-1.7609083529
 21
0.7375
 31
0.0
  0
LINE
  5
2C6
330
1F
100
AcDbEntity
  8
0
  6
Continuous
 62
     7
370
    25
100
AcDbLine
 10
3.2885362971
 20
0.9125
 30
0.0
 11
3.0864637029
 21
0.9125
 31
0.0
  0
LINE
  5
2C7
330
1F
100
AcDbEntity
  8
0
  6
Continuous
 62
     7
370
    25
100
AcDbLine
 10
3.4220485469
 20
1.10625
 30
0.0
 11
3.3210122498
 21
0.93125
 31
0.0
  0
LINE
  5
2C8
330
1F
100
AcDbEntity
  8
0
  6
Continuous
 62
     7
370
    25
100
AcDbLine
 10
3.3210122498
 20
1.31875
 30
0.0
 11
3.4220485469
 21
1.14375
 31
0.0
  0
LINE
  5
2C9
330
1F
100
AcDbEntity
  8
0
  6
Continuous
 62
     7
370
    25
100
AcDbLine
 10
3.0864637029
 20
1.3375
 30
0.0
 11
3.2885362971
 21
1.3375
 31
0.0
  0
LINE
  5
2CA
330
1F
100
AcDbEntity
  8
0
  6
Continuous
 62
     7
370
    25
100
AcDbLine
 10
2.9529514531
 20
1.14375
 30
0.0
 11
3.0539877502
 21
1.31875
 31
0.0
  0
LINE
  5
2CB
330
1F
100
AcDbEntity
  8
0
  6
Continuous
 62
     7
370
    25
100
AcDbLine
 10
3.0539877502
 20
0.93125
 30
0.0
 11
2.9529514531
 21
1.10625
 31
0.0
  0
LINE
  5
2CC
330
1F
100
AcDbEntity
  8
0
  6
Continuous
 62
     7
370
    25
100
AcDbLine
 10
2.0625
 20
1.0086052532
 30
0.0
 11
2.0625
 21
1.15
 31
0.0
  0
LINE
  5
2CD
330
1F
100
AcDbEntity
  8
0
  6
Continuous
 62
     7
370
    25
100
AcDbLine
 10
2.1013598061
 20
0.93125
 30
0.0
 11
2.0675240474
 21
0.9898552532
 31
0.0
  0
LINE
  5
2CE
330
1F
100
AcDbEntity
  8
0
  6
Continuous
 62
     7
370
    25
100
AcDbLine
 10
2.3359083529
 20
0.9125
 30
0.0
 11
2.1338357587
 21
0.9125
 31
0.0
  0
LINE
  5
2CF
330
1F
100
AcDbEntity
  8
0
  6
Continuous
 62
     7
370
    25
100
AcDbLine
 10
2.4694206027
 20
1.10625
 30
0.0
 11
2.3683843056
 21
0.93125
 31
0.0
  0
LINE
  5
2D0
330
1F
100
AcDbEntity
  8
0
  6
Continuous
 62
     7
370
    25
100
AcDbLine
 10
2.3683843056
 20
1.31875
 30
0.0
 11
2.4694206027
 21
1.14375
 31
0.0
  0
LINE
  5
2D1
330
1F
100
AcDbEntity
  8
0
  6
Continuous
 62
     7
370
    25
100
AcDbLine
 10
2.2875
 20
1.3375
 30
0.0
 11
2.3359083529
 21
1.3375
 31
0.0
  0
LINE
  5
2D2
330
1F
100
AcDbEntity
  8
0
  6
Continuous
 62
     7
370
    25
100
AcDbLine
 10
2.25
 20
1.225
 30
0.0
 11
2.25
 21
1.3
 31
0.0
  0
LINE
  5
2D3
330
1F
100
AcDbEntity
  8
0
  6
Continuous
 62
     7
370
    25
100
AcDbLine
 10
2.1
 20
1.1875
 30
0.0
 11
2.2125
 21
1.1875
 31
0.0
  0
LINE
  5
2D4
330
1F
100
AcDbEntity
  8
0
  6
Continuous
 62
     7
370
    25
100
AcDbLine
 10
2.1338357587
 20
0.7875
 30
0.0
 11
2.3359083529
 21
0.7875
 31
0.0
  0
LINE
  5
2D5
330
1F
100
AcDbEntity
  8
0
  6
Continuous
 62
     7
370
    25
100
AcDbLine
 10
2.0675240474
 20
0.7101447468
 30
0.0
 11
2.1013598061
 21
0.76875
 31
0.0
  0
LINE
  5
2D6
330
1F
100
AcDbEntity
  8
0
  6
Continuous
 62
     7
370
    25
100
AcDbLine
 10
2.0625
 20
0.6625
 30
0.0
 11
2.0625
 21
0.6913947468
 31
0.0
  0
LINE
  5
2D7
330
1F
100
AcDbEntity
  8
0
  6
Continuous
 62
     7
370
    25
100
AcDbLine
 10
2.3864265015
 20
0.625
 30
0.0
 11
2.1
 21
0.625
 31
0.0
  0
LINE
  5
2D8
330
1F
100
AcDbEntity
  8
0
  6
Continuous
 62
     7
370
    25
100
AcDbLine
 10
2.3683843056
 20
0.76875
 30
0.0
 11
2.4189024541
 21
0.68125
 31
0.0
  0
LINE
  5
2D9
330
1F
100
AcDbEntity
  8
0
  6
Continuous
 62
     7
370
    25
100
AcDbLine
 10
-2.237222325
 20
0.8875
 30
0.0
 11
-2.0351497308
 21
0.8875
 31
0.0
  0
LINE
  5
2DA
330
1F
100
AcDbEntity
  8
0
  6
Continuous
 62
     7
370
    25
100
AcDbLine
 10
-2.334650183
 20
0.75625
 30
0.0
 11
-2.2696982777
 21
0.86875
 31
0.0
  0
LINE
  5
2DB
330
1F
100
AcDbEntity
  8
0
  6
Continuous
 62
     7
370
    25
100
AcDbLine
 10
-1.9701978255
 20
0.7
 30
0.0
 11
-2.3021742303
 21
0.7
 31
0.0
  0
LINE
  5
2DC
330
1F
100
AcDbEntity
  8
0
  6
Continuous
 62
     7
370
    25
100
AcDbLine
 10
-2.0026737782
 20
0.86875
 30
0.0
 11
-1.9377218729
 21
0.75625
 31
0.0
  0
LINE
  5
2DD
330
1F
100
AcDbEntity
  8
0
  6
Continuous
 62
     7
370
    25
100
AcDbLine
 10
0.7944392034
 20
1.2375
 30
0.0
 11
0.8810417438
 21
1.2375
 31
0.0
  0
LINE
  5
2DE
330
1F
100
AcDbEntity
  8
0
  6
Continuous
 62
     7
370
    25
100
AcDbLine
 10
0.707836663
 20
1.1375
 30
0.0
 11
0.7511379332
 21
1.2125
 31
0.0
  0
LINE
  5
2DF
330
1F
100
AcDbEntity
  8
0
  6
Continuous
 62
     7
370
    25
100
AcDbLine
 10
0.7511379332
 20
1.0125
 30
0.0
 11
0.707836663
 21
1.0875
 31
0.0
  0
LINE
  5
2E0
330
1F
100
AcDbEntity
  8
0
  6
Continuous
 62
     7
370
    25
100
AcDbLine
 10
0.8810417438
 20
0.9875
 30
0.0
 11
0.7944392034
 21
0.9875
 31
0.0
  0
LINE
  5
2E1
330
1F
100
AcDbEntity
  8
0
  6
Continuous
 62
     7
370
    25
100
AcDbLine
 10
0.9676442841
 20
1.0875
 30
0.0
 11
0.924343014
 21
1.0125
 31
0.0
  0
LINE
  5
2E2
330
1F
100
AcDbEntity
  8
0
  6
Continuous
 62
     7
370
    25
100
AcDbLine
 10
0.924343014
 20
1.2125
 30
0.0
 11
0.9676442841
 21
1.1375
 31
0.0
  0
LINE
  5
2E3
330
1F
100
AcDbEntity
  8
0
  6
Continuous
 62
     7
370
    25
100
AcDbLine
 10
-0.5045989023
 20
1.2375
 30
0.0
 11
-0.4179963619
 21
1.2375
 31
0.0
  0
LINE
  5
2E4
330
1F
100
AcDbEntity
  8
0
  6
Continuous
 62
     7
370
    25
100
AcDbLine
 10
-0.5912014427
 20
1.1375
 30
0.0
 11
-0.5479001725
 21
1.2125
 31
0.0
  0
LINE
  5
2E5
330
1F
100
AcDbEntity
  8
0
  6
Continuous
 62
     7
370
    25
100
AcDbLine
 10
-0.5479001725
 20
1.0125
 30
0.0
 11
-0.5912014427
 21
1.0875
 31
0.0
  0
LINE
  5
2E6
330
1F
100
AcDbEntity
  8
0
  6
Continuous
 62
     7
370
    25
100
AcDbLine
 10
-0.4179963619
 20
0.9875
 30
0.0
 11
-0.5045989023
 21
0.9875
 31
0.0
  0
LINE
  5
2E7
330
1F
100
AcDbEntity
  8
0
  6
Continuous
 62
     7
370
    25
100
AcDbLine
 10
-0.3313938215
 20
1.0875
 30
0.0
 11
-0.3746950917
 21
1.0125
 31
0.0
  0
LINE
  5
2E8
330
1F
100
AcDbEntity
  8
0
  6
Continuous
 62
     7
370
    25
100
AcDbLine
 10
-0.3746950917
 20
1.2125
 30
0.0
 11
-0.3313938215
 21
1.1375
 31
0.0
  0
LINE
  5
2E9
330
1F
100
AcDbEntity
  8
0
  6
Continuous
 62
     7
370
    25
100
AcDbLine
 10
-0.8293584287
 20
1.05
 30
0.0
 11
-0.7427558883
 21
1.05
 31
0.0
  0
LINE
  5
2EA
330
1F
100
AcDbEntity
  8
0
  6
Continuous
 62
     7
370
    25
100
AcDbLine
 10
-0.9159609691
 20
0.95
 30
0.0
 11
-0.8726596989
 21
1.025
 31
0.0
  0
LINE
  5
2EB
330
1F
100
AcDbEntity
  8
0
  6
Continuous
 62
     7
370
    25
100
AcDbLine
 10
-0.8726596989
 20
0.825
 30
0.0
 11
-0.9159609691
 21
0.9
 31
0.0
  0
LINE
  5
2EC
330
1F
100
AcDbEntity
  8
0
  6
Continuous
 62
     7
370
    25
100
AcDbLine
 10
-0.7427558883
 20
0.8
 30
0.0
 11
-0.8293584287
 21
0.8
 31
0.0
  0
LINE
  5
2ED
330
1F
100
AcDbEntity
  8
0
  6
Continuous
 62
     7
370
    25
100
AcDbLine
 10
-0.6561533479
 20
0.9
 30
0.0
 11
-0.6994546181
 21
0.825
 31
0.0
  0
LINE
  5
2EE
330
1F
100
AcDbEntity
  8
0
  6
Continuous
 62
     7
370
    25
100
AcDbLine
 10
-0.6994546181
 20
1.025
 30
0.0
 11
-0.6561533479
 21
0.95
 31
0.0
  0
LINE
  5
2EF
330
1F
100
AcDbEntity
  8
0
  6
Continuous
 62
     7
370
    25
100
AcDbLine
 10
-0.1798393759
 20
1.8
 30
0.0
 11
-0.0932368355
 21
1.8
 31
0.0
  0
LINE
  5
2F0
330
1F
100
AcDbEntity
  8
0
  6
Continuous
 62
     7
370
    25
100
AcDbLine
 10
-0.2664419162
 20
1.7
 30
0.0
 11
-0.2231406461
 21
1.775
 31
0.0
  0
LINE
  5
2F1
330
1F
100
AcDbEntity
  8
0
  6
Continuous
 62
     7
370
    25
100
AcDbLine
 10
-0.2231406461
 20
1.575
 30
0.0
 11
-0.2664419162
 21
1.65
 31
0.0
  0
LINE
  5
2F2
330
1F
100
AcDbEntity
  8
0
  6
Continuous
 62
     7
370
    25
100
AcDbLine
 10
-0.0932368355
 20
1.55
 30
0.0
 11
-0.1798393759
 21
1.55
 31
0.0
  0
LINE
  5
2F3
330
1F
100
AcDbEntity
  8
0
  6
Continuous
 62
     7
370
    25
100
AcDbLine
 10
-0.0066342951
 20
1.65
 30
0.0
 11
-0.0499355653
 21
1.575
 31
0.0
  0
LINE
  5
2F4
330
1F
100
AcDbEntity
  8
0
  6
Continuous
 62
     7
370
    25
100
AcDbLine
 10
-0.0499355653
 20
1.775
 30
0.0
 11
-0.0066342951
 21
1.7
 31
0.0
  0
LINE
  5
2F5
330
1F
100
AcDbEntity
  8
0
  6
Continuous
 62
     7
370
    25
100
AcDbLine
 10
-0.5045989023
 20
1.6125
 30
0.0
 11
-0.4179963619
 21
1.6125
 31
0.0
  0
LINE
  5
2F6
330
1F
100
AcDbEntity
  8
0
  6
Continuous
 62
     7
370
    25
100
AcDbLine
 10
-0.5912014427
 20
1.5125
 30
0.0
 11
-0.5479001725
 21
1.5875
 31
0.0
  0
LINE
  5
2F7
330
1F
100
AcDbEntity
  8
0
  6
Continuous
 62
     7
370
    25
100
AcDbLine
 10
-0.5479001725
 20
1.3875
 30
0.0
 11
-0.5912014427
 21
1.4625
 31
0.0
  0
LINE
  5
2F8
330
1F
100
AcDbEntity
  8
0
  6
Continuous
 62
     7
370
    25
100
AcDbLine
 10
-0.4179963619
 20
1.3625
 30
0.0
 11
-0.5045989023
 21
1.3625
 31
0.0
  0
LINE
  5
2F9
330
1F
100
AcDbEntity
  8
0
  6
Continuous
 62
     7
370
    25
100
AcDbLine
 10
-0.3313938215
 20
1.4625
 30
0.0
 11
-0.3746950917
 21
1.3875
 31
0.0
  0
LINE
  5
2FA
330
1F
100
AcDbEntity
  8
0
  6
Continuous
 62
     7
370
    25
100
AcDbLine
 10
-0.3746950917
 20
1.5875
 30
0.0
 11
-0.3313938215
 21
1.5125
 31
0.0
  0
LINE
  5
2FB
330
1F
100
AcDbEntity
  8
0
  6
Continuous
 62
     7
370
    25
100
AcDbLine
 10
-0.8293584287
 20
1.425
 30
0.0
 11
-0.7427558883
 21
1.425
 31
0.0
  0
LINE
  5
2FC
330
1F
100
AcDbEntity
  8
0
  6
Continuous
 62
     7
370
    25
100
AcDbLine
 10
-0.9159609691
 20
1.325
 30
0.0
 11
-0.8726596989
 21
1.4
 31
0.0
  0
LINE
  5
2FD
330
1F
100
AcDbEntity
  8
0
  6
Continuous
 62
     7
370
    25
100
AcDbLine
 10
-0.8726596989
 20
1.2
 30
0.0
 11
-0.9159609691
 21
1.275
 31
0.0
  0
LINE
  5
2FE
330
1F
100
AcDbEntity
  8
0
  6
Continuous
 62
     7
370
    25
100
AcDbLine
 10
-0.7427558883
 20
1.175
 30
0.0
 11
-0.8293584287
 21
1.175
 31
0.0
  0
LINE
  5
2FF
330
1F
100
AcDbEntity
  8
0
  6
Continuous
 62
     7
370
    25
100
AcDbLine
 10
-0.6561533479
 20
1.275
 30
0.0
 11
-0.6994546181
 21
1.2
 31
0.0
  0
LINE
  5
300
330
1F
100
AcDbEntity
  8
0
  6
Continuous
 62
     7
370
    25
100
AcDbLine
 10
-0.6994546181
 20
1.4
 30
0.0
 11
-0.6561533479
 21
1.325
 31
0.0
  0
LINE
  5
301
330
1F
100
AcDbEntity
  8
0
  6
Continuous
 62
     7
370
    25
100
AcDbLine
 10
-0.8293584287
 20
1.8
 30
0.0
 11
-0.7427558883
 21
1.8
 31
0.0
  0
LINE
  5
302
330
1F
100
AcDbEntity
  8
0
  6
Continuous
 62
     7
370
    25
100
AcDbLine
 10
-0.9159609691
 20
1.7
 30
0.0
 11
-0.8726596989
 21
1.775
 31
0.0
  0
LINE
  5
303
330
1F
100
AcDbEntity
  8
0
  6
Continuous
 62
     7
370
    25
100
AcDbLine
 10
-0.8726596989
 20
1.575
 30
0.0
 11
-0.9159609691
 21
1.65
 31
0.0
  0
LINE
  5
304
330
1F
100
AcDbEntity
  8
0
  6
Continuous
 62
     7
370
    25
100
AcDbLine
 10
-0.7427558883
 20
1.55
 30
0.0
 11
-0.8293584287
 21
1.55
 31
0.0
  0
LINE
  5
305
330
1F
100
AcDbEntity
  8
0
  6
Continuous
 62
     7
370
    25
100
AcDbLine
 10
-0.6561533479
 20
1.65
 30
0.0
 11
-0.6994546181
 21
1.575
 31
0.0
  0
LINE
  5
306
330
1F
100
AcDbEntity
  8
0
  6
Continuous
 62
     7
370
    25
100
AcDbLine
 10
-0.6994546181
 20
1.775
 30
0.0
 11
-0.6561533479
 21
1.7
 31
0.0
  0
LINE
  5
307
330
1F
100
AcDbEntity
  8
0
  6
Continuous
 62
     7
370
    25
100
AcDbLine
 10
0.1449201506
 20
1.2375
 30
0.0
 11
0.2315226909
 21
1.2375
 31
0.0
  0
LINE
  5
308
330
1F
100
AcDbEntity
  8
0
  6
Continuous
 62
     7
370
    25
100
AcDbLine
 10
0.0583176102
 20
1.1375
 30
0.0
 11
0.1016188804
 21
1.2125
 31
0.0
  0
LINE
  5
309
330
1F
100
AcDbEntity
  8
0
  6
Continuous
 62
     7
370
    25
100
AcDbLine
 10
0.1016188804
 20
1.0125
 30
0.0
 11
0.0583176102
 21
1.0875
 31
0.0
  0
LINE
  5
30A
330
1F
100
AcDbEntity
  8
0
  6
Continuous
 62
     7
370
    25
100
AcDbLine
 10
0.2315226909
 20
0.9875
 30
0.0
 11
0.1449201506
 21
0.9875
 31
0.0
  0
LINE
  5
30B
330
1F
100
AcDbEntity
  8
0
  6
Continuous
 62
     7
370
    25
100
AcDbLine
 10
0.3181252313
 20
1.0875
 30
0.0
 11
0.2748239611
 21
1.0125
 31
0.0
  0
LINE
  5
30C
330
1F
100
AcDbEntity
  8
0
  6
Continuous
 62
     7
370
    25
100
AcDbLine
 10
0.2748239611
 20
1.2125
 30
0.0
 11
0.3181252313
 21
1.1375
 31
0.0
  0
LINE
  5
30D
330
1F
100
AcDbEntity
  8
0
  6
Continuous
 62
     7
370
    25
100
AcDbLine
 10
0.469679677
 20
1.425
 30
0.0
 11
0.5562822174
 21
1.425
 31
0.0
  0
LINE
  5
30E
330
1F
100
AcDbEntity
  8
0
  6
Continuous
 62
     7
370
    25
100
AcDbLine
 10
0.3830771366
 20
1.325
 30
0.0
 11
0.4263784068
 21
1.4
 31
0.0
  0
LINE
  5
30F
330
1F
100
AcDbEntity
  8
0
  6
Continuous
 62
     7
370
    25
100
AcDbLine
 10
0.4263784068
 20
1.2
 30
0.0
 11
0.3830771366
 21
1.275
 31
0.0
  0
LINE
  5
310
330
1F
100
AcDbEntity
  8
0
  6
Continuous
 62
     7
370
    25
100
AcDbLine
 10
0.5562822174
 20
1.175
 30
0.0
 11
0.469679677
 21
1.175
 31
0.0
  0
LINE
  5
311
330
1F
100
AcDbEntity
  8
0
  6
Continuous
 62
     7
370
    25
100
AcDbLine
 10
0.6428847577
 20
1.275
 30
0.0
 11
0.5995834875
 21
1.2
 31
0.0
  0
LINE
  5
312
330
1F
100
AcDbEntity
  8
0
  6
Continuous
 62
     7
370
    25
100
AcDbLine
 10
0.5995834875
 20
1.4
 30
0.0
 11
0.6428847577
 21
1.325
 31
0.0
  0
LINE
  5
313
330
1F
100
AcDbEntity
  8
0
  6
Continuous
 62
     7
370
    25
100
AcDbLine
 10
0.7944392034
 20
1.6125
 30
0.0
 11
0.8810417438
 21
1.6125
 31
0.0
  0
LINE
  5
314
330
1F
100
AcDbEntity
  8
0
  6
Continuous
 62
     7
370
    25
100
AcDbLine
 10
0.707836663
 20
1.5125
 30
0.0
 11
0.7511379332
 21
1.5875
 31
0.0
  0
LINE
  5
315
330
1F
100
AcDbEntity
  8
0
  6
Continuous
 62
     7
370
    25
100
AcDbLine
 10
0.7511379332
 20
1.3875
 30
0.0
 11
0.707836663
 21
1.4625
 31
0.0
  0
LINE
  5
316
330
1F
100
AcDbEntity
  8
0
  6
Continuous
 62
     7
370
    25
100
AcDbLine
 10
0.8810417438
 20
1.3625
 30
0.0
 11
0.7944392034
 21
1.3625
 31
0.0
  0
LINE
  5
317
330
1F
100
AcDbEntity
  8
0
  6
Continuous
 62
     7
370
    25
100
AcDbLine
 10
0.9676442841
 20
1.4625
 30
0.0
 11
0.924343014
 21
1.3875
 31
0.0
  0
LINE
  5
318
330
1F
100
AcDbEntity
  8
0
  6
Continuous
 62
     7
370
    25
100
AcDbLine
 10
0.924343014
 20
1.5875
 30
0.0
 11
0.9676442841
 21
1.5125
 31
0.0
  0
LINE
  5
319
330
1F
100
AcDbEntity
  8
0
  6
Continuous
 62
     7
370
    25
100
AcDbLine
 10
0.469679677
 20
1.05
 30
0.0
 11
0.5562822174
 21
1.05
 31
0.0
  0
LINE
  5
31A
330
1F
100
AcDbEntity
  8
0
  6
Continuous
 62
     7
370
    25
100
AcDbLine
 10
0.3830771366
 20
0.95
 30
0.0
 11
0.4263784068
 21
1.025
 31
0.0
  0
LINE
  5
31B
330
1F
100
AcDbEntity
  8
0
  6
Continuous
 62
     7
370
    25
100
AcDbLine
 10
0.4263784068
 20
0.825
 30
0.0
 11
0.3830771366
 21
0.9
 31
0.0
  0
LINE
  5
31C
330
1F
100
AcDbEntity
  8
0
  6
Continuous
 62
     7
370
    25
100
AcDbLine
 10
0.5562822174
 20
0.8
 30
0.0
 11
0.469679677
 21
0.8
 31
0.0
  0
LINE
  5
31D
330
1F
100
AcDbEntity
  8
0
  6
Continuous
 62
     7
370
    25
100
AcDbLine
 10
0.6428847577
 20
0.9
 30
0.0
 11
0.5995834875
 21
0.825
 31
0.0
  0
LINE
  5
31E
330
1F
100
AcDbEntity
  8
0
  6
Continuous
 62
     7
370
    25
100
AcDbLine
 10
0.5995834875
 20
1.025
 30
0.0
 11
0.6428847577
 21
0.95
 31
0.0
  0
LINE
  5
31F
330
1F
100
AcDbEntity
  8
0
  6
Continuous
 62
     7
370
    25
100
AcDbLine
 10
-0.1798393759
 20
1.425
 30
0.0
 11
-0.0932368355
 21
1.425
 31
0.0
  0
LINE
  5
320
330
1F
100
AcDbEntity
  8
0
  6
Continuous
 62
     7
370
    25
100
AcDbLine
 10
-0.2664419162
 20
1.325
 30
0.0
 11
-0.2231406461
 21
1.4
 31
0.0
  0
LINE
  5
321
330
1F
100
AcDbEntity
  8
0
  6
Continuous
 62
     7
370
    25
100
AcDbLine
 10
-0.2231406461
 20
1.2
 30
0.0
 11
-0.2664419162
 21
1.275
 31
0.0
  0
LINE
  5
322
330
1F
100
AcDbEntity
  8
0
  6
Continuous
 62
     7
370
    25
100
AcDbLine
 10
-0.0932368355
 20
1.175
 30
0.0
 11
-0.1798393759
 21
1.175
 31
0.0
  0
LINE
  5
323
330
1F
100
AcDbEntity
  8
0
  6
Continuous
 62
     7
370
    25
100
AcDbLine
 10
-0.0066342951
 20
1.275
 30
0.0
 11
-0.0499355653
 21
1.2
 31
0.0
  0
LINE
  5
324
330
1F
100
AcDbEntity
  8
0
  6
Continuous
 62
     7
370
    25
100
AcDbLine
 10
-0.0499355653
 20
1.4
 30
0.0
 11
-0.0066342951
 21
1.325
 31
0.0
  0
LINE
  5
325
330
1F
100
AcDbEntity
  8
0
  6
Continuous
 62
     7
370
    25
100
AcDbLine
 10
0.1449201506
 20
1.6125
 30
0.0
 11
0.2315226909
 21
1.6125
 31
0.0
  0
LINE
  5
326
330
1F
100
AcDbEntity
  8
0
  6
Continuous
 62
     7
370
    25
100
AcDbLine
 10
0.0583176102
 20
1.5125
 30
0.0
 11
0.1016188804
 21
1.5875
 31
0.0
  0
LINE
  5
327
330
1F
100
AcDbEntity
  8
0
  6
Continuous
 62
     7
370
    25
100
AcDbLine
 10
0.1016188804
 20
1.3875
 30
0.0
 11
0.0583176102
 21
1.4625
 31
0.0
  0
LINE
  5
328
330
1F
100
AcDbEntity
  8
0
  6
Continuous
 62
     7
370
    25
100
AcDbLine
 10
0.2315226909
 20
1.3625
 30
0.0
 11
0.1449201506
 21
1.3625
 31
0.0
  0
LINE
  5
329
330
1F
100
AcDbEntity
  8
0
  6
Continuous
 62
     7
370
    25
100
AcDbLine
 10
0.3181252313
 20
1.4625
 30
0.0
 11
0.2748239611
 21
1.3875
 31
0.0
  0
LINE
  5
32A
330
1F
100
AcDbEntity
  8
0
  6
Continuous
 62
     7
370
    25
100
AcDbLine
 10
0.2748239611
 20
1.5875
 30
0.0
 11
0.3181252313
 21
1.5125
 31
0.0
  0
LINE
  5
32B
330
1F
100
AcDbEntity
  8
0
  6
Continuous
 62
     7
370
    25
100
AcDbLine
 10
0.469679677
 20
1.8
 30
0.0
 11
0.5562822174
 21
1.8
 31
0.0
  0
LINE
  5
32C
330
1F
100
AcDbEntity
  8
0
  6
Continuous
 62
     7
370
    25
100
AcDbLine
 10
0.3830771366
 20
1.7
 30
0.0
 11
0.4263784068
 21
1.775
 31
0.0
  0
LINE
  5
32D
330
1F
100
AcDbEntity
  8
0
  6
Continuous
 62
     7
370
    25
100
AcDbLine
 10
0.4263784068
 20
1.575
 30
0.0
 11
0.3830771366
 21
1.65
 31
0.0
  0
LINE
  5
32E
330
1F
100
AcDbEntity
  8
0
  6
Continuous
 62
     7
370
    25
100
AcDbLine
 10
0.5562822174
 20
1.55
 30
0.0
 11
0.469679677
 21
1.55
 31
0.0
  0
LINE
  5
32F
330
1F
100
AcDbEntity
  8
0
  6
Continuous
 62
     7
370
    25
100
AcDbLine
 10
0.6428847577
 20
1.65
 30
0.0
 11
0.5995834875
 21
1.575
 31
0.0
  0
LINE
  5
330
330
1F
100
AcDbEntity
  8
0
  6
Continuous
 62
     7
370
    25
100
AcDbLine
 10
0.5995834875
 20
1.775
 30
0.0
 11
0.6428847577
 21
1.7
 31
0.0
  0
LINE
  5
331
330
1F
100
AcDbEntity
  8
0
  6
Continuous
 62
     7
370
    25
100
AcDbLine
 10
-0.1798393759
 20
1.05
 30
0.0
 11
-0.0932368355
 21
1.05
 31
0.0
  0
LINE
  5
332
330
1F
100
AcDbEntity
  8
0
  6
Continuous
 62
     7
370
    25
100
AcDbLine
 10
-0.2664419162
 20
0.95
 30
0.0
 11
-0.2231406461
 21
1.025
 31
0.0
  0
LINE
  5
333
330
1F
100
AcDbEntity
  8
0
  6
Continuous
 62
     7
370
    25
100
AcDbLine
 10
-0.2231406461
 20
0.825
 30
0.0
 11
-0.2664419162
 21
0.9
 31
0.0
  0
LINE
  5
334
330
1F
100
AcDbEntity
  8
0
  6
Continuous
 62
     7
370
    25
100
AcDbLine
 10
-0.0932368355
 20
0.8
 30
0.0
 11
-0.1798393759
 21
0.8
 31
0.0
  0
LINE
  5
335
330
1F
100
AcDbEntity
  8
0
  6
Continuous
 62
     7
370
    25
100
AcDbLine
 10
-0.0066342951
 20
0.9
 30
0.0
 11
-0.0499355653
 21
0.825
 31
0.0
  0
LINE
  5
336
330
1F
100
AcDbEntity
  8
0
  6
Continuous
 62
     7
370
    25
100
AcDbLine
 10
-0.0499355653
 20
1.025
 30
0.0
 11
-0.0066342951
 21
0.95
 31
0.0
  0
LINE
  5
337
330
1F
100
AcDbEntity
  8
0
  6
Continuous
 62
     7
370
    25
100
AcDbLine
 10
2.0695
 20
1.3334508497
 30
0.0
 11
2.0695
 21
1.6665491503
 31
0.0
  0
LINE
  5
338
330
1F
100
AcDbEntity
  8
0
  6
Continuous
 62
     7
370
    25
100
AcDbLine
 10
2.0415491503
 20
1.6945
 30
0.0
 11
1.7084508497
 21
1.6945
 31
0.0
  0
LINE
  5
339
330
1F
100
AcDbEntity
  8
0
  6
Continuous
 62
     7
370
    25
100
AcDbLine
 10
1.6805
 20
1.6665491503
 30
0.0
 11
1.6805
 21
1.3334508497
 31
0.0
  0
LINE
  5
33A
330
1F
100
AcDbEntity
  8
0
  6
Continuous
 62
     7
370
    25
100
AcDbLine
 10
1.7084508497
 20
1.3055
 30
0.0
 11
2.0415491503
 21
1.3055
 31
0.0
  0
LINE
  5
33B
330
1F
100
AcDbEntity
  8
0
  6
Continuous
 62
     7
370
    25
100
AcDbLine
 10
-1.4165491503
 20
1.3055
 30
0.0
 11
-1.0834508497
 21
1.3055
 31
0.0
  0
LINE
  5
33C
330
1F
100
AcDbEntity
  8
0
  6
Continuous
 62
     7
370
    25
100
AcDbLine
 10
-1.0555
 20
1.3334508497
 30
0.0
 11
-1.0555
 21
1.6665491503
 31
0.0
  0
LINE
  5
33D
330
1F
100
AcDbEntity
  8
0
  6
Continuous
 62
     7
370
    25
100
AcDbLine
 10
-1.0834508497
 20
1.6945
 30
0.0
 11
-1.4165491503
 21
1.6945
 31
0.0
  0
LINE
  5
33E
330
1F
100
AcDbEntity
  8
0
  6
Continuous
 62
     7
370
    25
100
AcDbLine
 10
-1.4445
 20
1.6665491503
 30
0.0
 11
-1.4445
 21
1.3334508497
 31
0.0
  0
LINE
  5
33F
330
1F
100
AcDbEntity
  8
0
  6
Continuous
 62
     7
370
    25
100
AcDbLine
 10
-3.5125
 20
2.0
 30
0.0
 11
-2.2
 21
2.0
 31
0.0
  0
LINE
  5
340
330
1F
100
AcDbEntity
  8
0
  6
Continuous
 62
     7
370
    25
100
AcDbLine
 10
3.25
 20
2.0
 30
0.0
 11
3.5125
 21
2.0
 31
0.0
  0
LINE
  5
341
330
1F
100
AcDbEntity
  8
0
  6
Continuous
 62
     7
370
    25
100
AcDbLine
 10
-1.3875
 20
2.25
 30
0.0
 11
-0.7375
 21
2.25
 31
0.0
  0
LINE
  5
342
330
1F
100
AcDbEntity
  8
0
  6
Continuous
 62
     7
370
    25
100
AcDbLine
 10
-0.1375
 20
2.25
 30
0.0
 11
0.54
 21
2.25
 31
0.0
  0
LINE
  5
343
330
1F
100
AcDbEntity
  8
0
  6
Continuous
 62
     7
370
    25
100
AcDbLine
 10
3.5625
 20
0.9720491503
 30
0.0
 11
3.5625
 21
0.55
 31
0.0
  0
LINE
  5
344
330
1F
100
AcDbEntity
  8
0
  6
Continuous
 62
     7
370
    25
100
AcDbLine
 10
-3.5625
 20
0.9720491503
 30
0.0
 11
-3.5625
 21
0.55
 31
0.0
  0
LINE
  5
345
330
1F
100
AcDbEntity
  8
0
  6
Continuous
 62
     7
370
    25
100
AcDbLine
 10
-3.5125
 20
0.5
 30
0.0
 11
-2.5904508497
 21
0.5
 31
0.0
  0
LINE
  5
346
330
1F
100
AcDbEntity
  8
0
  6
Continuous
 62
     7
370
    25
100
AcDbLine
 10
-1.9095491503
 20
0.5
 30
0.0
 11
-0.6529508497
 21
0.5
 31
0.0
  0
LINE
  5
347
330
1F
100
AcDbEntity
  8
0
  6
Continuous
 62
     7
370
    25
100
AcDbLine
 10
2.5904508497
 20
0.5
 30
0.0
 11
3.5125
 21
0.5
 31
0.0
  0
LINE
  5
348
330
1F
100
AcDbEntity
  8
0
  6
Continuous
 62
     7
370
    25
100
AcDbLine
 10
0.6529508497
 20
0.5
 30
0.0
 11
1.9095491503
 21
0.5
 31
0.0
  0
LINE
  5
349
330
1F
100
AcDbEntity
  8
0
  6
Continuous
 62
     7
370
    25
100
AcDbLine
 10
-1.575
 20
2.0
 30
0.0
 11
-1.4654508497
 21
2.0
 31
0.0
  0
LINE
  5
34A
330
1F
100
AcDbEntity
  8
0
  6
Continuous
 62
     7
370
    25
100
AcDbLine
 10
2.0904508497
 20
2.0
 30
0.0
 11
2.625
 21
2.0
 31
0.0
  0
ARC
  5
34B
330
1F
100
AcDbEntity
  8
0
  6
Continuous
 62
     7
370
    25
100
AcDbCircle
 10
3.5125
 20
1.95
 30
0.0
 40
0.0499999999999998
100
AcDbArc
 50
0.0
 51
90.0
  0
ARC
  5
34C
330
1F
100
AcDbEntity
  8
0
  6
Continuous
 62
     7
370
    25
100
AcDbCircle
 10
3.5375
 20
1.5279508497
 30
0.0
 40
0.0250000000000044
100
AcDbArc
 50
311.8103148958
 51
360.0
  0
ARC
  5
34D
330
1F
100
AcDbEntity
  8
0
  6
Continuous
 62
     7
370
    25
100
AcDbCircle
 10
3.5625
 20
1.5
 30
0.0
 40
0.0125000000000001
100
AcDbArc
 50
131.8103148958
 51
318.1896851042
  0
ARC
  5
34E
330
1F
100
AcDbEntity
  8
0
  6
Continuous
 62
     7
370
    25
100
AcDbCircle
 10
3.5904508497
 20
1.475
 30
0.0
 40
0.0250000000000015
100
AcDbArc
 50
90.0
 51
138.1896851042
  0
ARC
  5
34F
330
1F
100
AcDbEntity
  8
0
  6
Continuous
 62
     7
370
    25
100
AcDbCircle
 10
3.8875
 20
1.45
 30
0.0
 40
0.0500000000000012
100
AcDbArc
 50
0.0
 51
90.0
  0
ARC
  5
350
330
1F
100
AcDbEntity
  8
0
  6
Continuous
 62
     7
370
    25
100
AcDbCircle
 10
3.8875
 20
1.05
 30
0.0
 40
0.0499999999999999
100
AcDbArc
 50
270.0
 51
0.0
  0
ARC
  5
351
330
1F
100
AcDbEntity
  8
0
  6
Continuous
 62
     7
370
    25
100
AcDbCircle
 10
3.5904508497
 20
1.025
 30
0.0
 40
0.0249999999999987
100
AcDbArc
 50
221.8103148958
 51
270.0
  0
ARC
  5
352
330
1F
100
AcDbEntity
  8
0
  6
Continuous
 62
     7
370
    25
100
AcDbCircle
 10
3.5625
 20
1.0
 30
0.0
 40
0.0125
100
AcDbArc
 50
41.8103148958
 51
228.1896851042
  0
ARC
  5
353
330
1F
100
AcDbEntity
  8
0
  6
Continuous
 62
     7
370
    25
100
AcDbCircle
 10
3.5375
 20
0.9720491503
 30
0.0
 40
0.0250000000000035
100
AcDbArc
 50
0.0
 51
48.1896851042
  0
ARC
  5
354
330
1F
100
AcDbEntity
  8
0
  6
Continuous
 62
     7
370
    25
100
AcDbCircle
 10
3.5125
 20
0.55
 30
0.0
 40
0.0499999999999992
100
AcDbArc
 50
270.0
 51
0.0
  0
ARC
  5
355
330
1F
100
AcDbEntity
  8
0
  6
Continuous
 62
     7
370
    25
100
AcDbCircle
 10
2.5904508497
 20
0.525
 30
0.0
 40
0.0249999999999979
100
AcDbArc
 50
221.8103148958
 51
270.0
  0
ARC
  5
356
330
1F
100
AcDbEntity
  8
0
  6
Continuous
 62
     7
370
    25
100
AcDbCircle
 10
2.5625
 20
0.5
 30
0.0
 40
0.0125
100
AcDbArc
 50
41.8103148958
 51
228.1896851042
  0
ARC
  5
357
330
1F
100
AcDbEntity
  8
0
  6
Continuous
 62
     7
370
    25
100
AcDbCircle
 10
2.5375
 20
0.4720491503
 30
0.0
 40
0.0250000000000039
100
AcDbArc
 50
0.0
 51
48.1896851042
  0
ARC
  5
358
330
1F
100
AcDbEntity
  8
0
  6
Continuous
 62
     7
370
    25
100
AcDbCircle
 10
2.5125
 20
0.425
 30
0.0
 40
0.0499999999999998
100
AcDbArc
 50
270.0
 51
0.0
  0
ARC
  5
359
330
1F
100
AcDbEntity
  8
0
  6
Continuous
 62
     7
370
    25
100
AcDbCircle
 10
1.9875
 20
0.425
 30
0.0
 40
0.0499999999999994
100
AcDbArc
 50
180.0
 51
270.0
  0
ARC
  5
35A
330
1F
100
AcDbEntity
  8
0
  6
Continuous
 62
     7
370
    25
100
AcDbCircle
 10
1.9625
 20
0.4720491503
 30
0.0
 40
0.0249999999999996
100
AcDbArc
 50
131.8103148958
 51
180.0
  0
ARC
  5
35B
330
1F
100
AcDbEntity
  8
0
  6
Continuous
 62
     7
370
    25
100
AcDbCircle
 10
1.9375
 20
0.5
 30
0.0
 40
0.0125000000000001
100
AcDbArc
 50
311.8103148958
 51
138.1896851042
  0
ARC
  5
35C
330
1F
100
AcDbEntity
  8
0
  6
Continuous
 62
     7
370
    25
100
AcDbCircle
 10
1.9095491503
 20
0.525
 30
0.0
 40
0.025
100
AcDbArc
 50
270.0
 51
318.1896851042
  0
ARC
  5
35D
330
1F
100
AcDbEntity
  8
0
  6
Continuous
 62
     7
370
    25
100
AcDbCircle
 10
0.6529508497
 20
0.525
 30
0.0
 40
0.0249999999999998
100
AcDbArc
 50
221.8103148958
 51
270.0
  0
ARC
  5
35E
330
1F
100
AcDbEntity
  8
0
  6
Continuous
 62
     7
370
    25
100
AcDbCircle
 10
0.625
 20
0.5
 30
0.0
 40
0.0125
100
AcDbArc
 50
41.8103148958
 51
228.1896851042
  0
ARC
  5
35F
330
1F
100
AcDbEntity
  8
0
  6
Continuous
 62
     7
370
    25
100
AcDbCircle
 10
0.6
 20
0.4720491503
 30
0.0
 40
0.0249999999999987
100
AcDbArc
 50
0.0
 51
48.1896851042
  0
ARC
  5
360
330
1F
100
AcDbEntity
  8
0
  6
Continuous
 62
     7
370
    25
100
AcDbCircle
 10
0.575
 20
0.425
 30
0.0
 40
0.0500000000000001
100
AcDbArc
 50
270.0
 51
0.0
  0
ARC
  5
361
330
1F
100
AcDbEntity
  8
0
  6
Continuous
 62
     7
370
    25
100
AcDbCircle
 10
-0.575
 20
0.425
 30
0.0
 40
0.0499999999999995
100
AcDbArc
 50
180.0
 51
270.0
  0
ARC
  5
362
330
1F
100
AcDbEntity
  8
0
  6
Continuous
 62
     7
370
    25
100
AcDbCircle
 10
-0.6
 20
0.4720491503
 30
0.0
 40
0.0249999999999987
100
AcDbArc
 50
131.8103148958
 51
180.0
  0
ARC
  5
363
330
1F
100
AcDbEntity
  8
0
  6
Continuous
 62
     7
370
    25
100
AcDbCircle
 10
-0.625
 20
0.5
 30
0.0
 40
0.0125
100
AcDbArc
 50
311.8103148958
 51
138.1896851042
  0
ARC
  5
364
330
1F
100
AcDbEntity
  8
0
  6
Continuous
 62
     7
370
    25
100
AcDbCircle
 10
-0.6529508497
 20
0.525
 30
0.0
 40
0.0250000000000012
100
AcDbArc
 50
270.0
 51
318.1896851042
  0
ARC
  5
365
330
1F
100
AcDbEntity
  8
0
  6
Continuous
 62
     7
370
    25
100
AcDbCircle
 10
-1.9095491503
 20
0.525
 30
0.0
 40
0.0249999999999998
100
AcDbArc
 50
221.8103148958
 51
270.0
  0
ARC
  5
366
330
1F
100
AcDbEntity
  8
0
  6
Continuous
 62
     7
370
    25
100
AcDbCircle
 10
-1.9375
 20
0.5
 30
0.0
 40
0.0125
100
AcDbArc
 50
41.8103148958
 51
228.1896851042
  0
ARC
  5
367
330
1F
100
AcDbEntity
  8
0
  6
Continuous
 62
     7
370
    25
100
AcDbCircle
 10
-1.9625
 20
0.4720491503
 30
0.0
 40
0.0250000000000006
100
AcDbArc
 50
0.0
 51
48.1896851042
  0
ARC
  5
368
330
1F
100
AcDbEntity
  8
0
  6
Continuous
 62
     7
370
    25
100
AcDbCircle
 10
-1.9875
 20
0.425
 30
0.0
 40
0.05
100
AcDbArc
 50
270.0
 51
0.0
  0
ARC
  5
369
330
1F
100
AcDbEntity
  8
0
  6
Continuous
 62
     7
370
    25
100
AcDbCircle
 10
-2.5125
 20
0.425
 30
0.0
 40
0.0499999999999998
100
AcDbArc
 50
180.0
 51
270.0
  0
ARC
  5
36A
330
1F
100
AcDbEntity
  8
0
  6
Continuous
 62
     7
370
    25
100
AcDbCircle
 10
-2.5375
 20
0.4720491503
 30
0.0
 40
0.0250000000000039
100
AcDbArc
 50
131.8103148958
 51
180.0
  0
ARC
  5
36B
330
1F
100
AcDbEntity
  8
0
  6
Continuous
 62
     7
370
    25
100
AcDbCircle
 10
-2.5625
 20
0.5
 30
0.0
 40
0.0124999999999999
100
AcDbArc
 50
311.8103148958
 51
138.1896851042
  0
ARC
  5
36C
330
1F
100
AcDbEntity
  8
0
  6
Continuous
 62
     7
370
    25
100
AcDbCircle
 10
-2.5904508497
 20
0.525
 30
0.0
 40
0.0250000000000018
100
AcDbArc
 50
270.0
 51
318.1896851042
  0
ARC
  5
36D
330
1F
100
AcDbEntity
  8
0
  6
Continuous
 62
     7
370
    25
100
AcDbCircle
 10
-3.5125
 20
0.55
 30
0.0
 40
0.0500000000000003
100
AcDbArc
 50
180.0
 51
270.0
  0
ARC
  5
36E
330
1F
100
AcDbEntity
  8
0
  6
Continuous
 62
     7
370
    25
100
AcDbCircle
 10
-3.5375
 20
0.9720491503
 30
0.0
 40
0.0250000000000022
100
AcDbArc
 50
131.8103148958
 51
180.0
  0
ARC
  5
36F
330
1F
100
AcDbEntity
  8
0
  6
Continuous
 62
     7
370
    25
100
AcDbCircle
 10
-3.5625
 20
1.0
 30
0.0
 40
0.0124999999999997
100
AcDbArc
 50
311.8103148958
 51
138.1896851042
  0
ARC
  5
370
330
1F
100
AcDbEntity
  8
0
  6
Continuous
 62
     7
370
    25
100
AcDbCircle
 10
-3.5904508497
 20
1.025
 30
0.0
 40
0.0250000000000022
100
AcDbArc
 50
270.0
 51
318.1896851042
  0
ARC
  5
371
330
1F
100
AcDbEntity
  8
0
  6
Continuous
 62
     7
370
    25
100
AcDbCircle
 10
-3.8875
 20
1.05
 30
0.0
 40
0.0500000000000012
100
AcDbArc
 50
180.0
 51
270.0
  0
ARC
  5
372
330
1F
100
AcDbEntity
  8
0
  6
Continuous
 62
     7
370
    25
100
AcDbCircle
 10
-3.8875
 20
1.45
 30
0.0
 40
0.05
100
AcDbArc
 50
90.0
 51
180.0
  0
ARC
  5
373
330
1F
100
AcDbEntity
  8
0
  6
Continuous
 62
     7
370
    25
100
AcDbCircle
 10
-3.5904508497
 20
1.475
 30
0.0
 40
0.0249999999999967
100
AcDbArc
 50
41.8103148958
 51
90.0
  0
ARC
  5
374
330
1F
100
AcDbEntity
  8
0
  6
Continuous
 62
     7
370
    25
100
AcDbCircle
 10
-3.5625
 20
1.5
 30
0.0
 40
0.0125000000000005
100
AcDbArc
 50
221.8103148958
 51
48.1896851042
  0
ARC
  5
375
330
1F
100
AcDbEntity
  8
0
  6
Continuous
 62
     7
370
    25
100
AcDbCircle
 10
-3.5375
 20
1.5279508497
 30
0.0
 40
0.0250000000000021
100
AcDbArc
 50
180.0
 51
228.1896851042
  0
ARC
  5
376
330
1F
100
AcDbEntity
  8
0
  6
Continuous
 62
     7
370
    25
100
AcDbCircle
 10
-3.5125
 20
1.95
 30
0.0
 40
0.0499999999999989
100
AcDbArc
 50
90.0
 51
180.0
  0
ARC
  5
377
330
1F
100
AcDbEntity
  8
0
  6
Continuous
 62
     7
370
    25
100
AcDbCircle
 10
-2.2
 20
1.9375
 30
0.0
 40
0.0625000000000002
100
AcDbArc
 50
0.0
 51
90.0
  0
ARC
  5
378
330
1F
100
AcDbEntity
  8
0
  6
Continuous
 62
     7
370
    25
100
AcDbCircle
 10
-2.075
 20
1.5625
 30
0.0
 40
0.0625000000000002
100
AcDbArc
 50
180.0
 51
270.0
  0
ARC
  5
379
330
1F
100
AcDbEntity
  8
0
  6
Continuous
 62
     7
370
    25
100
AcDbCircle
 10
-1.7
 20
1.5625
 30
0.0
 40
0.0625000000000002
100
AcDbArc
 50
270.0
 51
0.0
  0
ARC
  5
37A
330
1F
100
AcDbEntity
  8
0
  6
Continuous
 62
     7
370
    25
100
AcDbCircle
 10
-1.575
 20
1.9375
 30
0.0
 40
0.0625000000000002
100
AcDbArc
 50
90.0
 51
180.0
  0
ARC
  5
37B
330
1F
100
AcDbEntity
  8
0
  6
Continuous
 62
     7
370
    25
100
AcDbCircle
 10
-1.4654508497
 20
1.975
 30
0.0
 40
0.0250000000000001
100
AcDbArc
 50
41.8103148958
 51
90.0
  0
ARC
  5
37C
330
1F
100
AcDbEntity
  8
0
  6
Continuous
 62
     7
370
    25
100
AcDbCircle
 10
-1.4375
 20
2.0
 30
0.0
 40
0.0125000000000001
100
AcDbArc
 50
221.8103148958
 51
48.1896851042
  0
ARC
  5
37D
330
1F
100
AcDbEntity
  8
0
  6
Continuous
 62
     7
370
    25
100
AcDbCircle
 10
-1.4125
 20
2.0279508497
 30
0.0
 40
0.0250000000000012
100
AcDbArc
 50
180.0
 51
228.1896851042
  0
ARC
  5
37E
330
1F
100
AcDbEntity
  8
0
  6
Continuous
 62
     7
370
    25
100
AcDbCircle
 10
-1.3875
 20
2.2
 30
0.0
 40
0.0499999999999989
100
AcDbArc
 50
90.0
 51
180.0
  0
ARC
  5
37F
330
1F
100
AcDbEntity
  8
0
  6
Continuous
 62
     7
370
    25
100
AcDbCircle
 10
-0.7375
 20
2.2
 30
0.0
 40
0.0499999999999994
100
AcDbArc
 50
0.0
 51
90.0
  0
ARC
  5
380
330
1F
100
AcDbEntity
  8
0
  6
Continuous
 62
     7
370
    25
100
AcDbCircle
 10
-0.7125
 20
2.0279508497
 30
0.0
 40
0.0249999999999997
100
AcDbArc
 50
311.8103148958
 51
0.0
  0
ARC
  5
381
330
1F
100
AcDbEntity
  8
0
  6
Continuous
 62
     7
370
    25
100
AcDbCircle
 10
-0.6875
 20
2.0
 30
0.0
 40
0.0125000000000003
100
AcDbArc
 50
131.8103148958
 51
318.1896851042
  0
ARC
  5
382
330
1F
100
AcDbEntity
  8
0
  6
Continuous
 62
     7
370
    25
100
AcDbCircle
 10
-0.6595491503
 20
1.975
 30
0.0
 40
0.0250000000000017
100
AcDbArc
 50
90.0
 51
138.1896851042
  0
ARC
  5
383
330
1F
100
AcDbEntity
  8
0
  6
Continuous
 62
     7
370
    25
100
AcDbCircle
 10
-0.2154508497
 20
1.975
 30
0.0
 40
0.0250000000000012
100
AcDbArc
 50
41.8103148958
 51
90.0
  0
ARC
  5
384
330
1F
100
AcDbEntity
  8
0
  6
Continuous
 62
     7
370
    25
100
AcDbCircle
 10
-0.1875
 20
2.0
 30
0.0
 40
0.0125000000000001
100
AcDbArc
 50
221.8103148958
 51
48.1896851042
  0
ARC
  5
385
330
1F
100
AcDbEntity
  8
0
  6
Continuous
 62
     7
370
    25
100
AcDbCircle
 10
-0.1625
 20
2.0279508497
 30
0.0
 40
0.025000000000002
100
AcDbArc
 50
180.0
 51
228.1896851042
  0
ARC
  5
386
330
1F
100
AcDbEntity
  8
0
  6
Continuous
 62
     7
370
    25
100
AcDbCircle
 10
-0.1375
 20
2.2
 30
0.0
 40
0.0500000000000003
100
AcDbArc
 50
90.0
 51
180.0
  0
ARC
  5
387
330
1F
100
AcDbEntity
  8
0
  6
Continuous
 62
     7
370
    25
100
AcDbCircle
 10
0.54
 20
2.2
 30
0.0
 40
0.0500000000000003
100
AcDbArc
 50
0.0
 51
90.0
  0
ARC
  5
388
330
1F
100
AcDbEntity
  8
0
  6
Continuous
 62
     7
370
    25
100
AcDbCircle
 10
0.565
 20
2.0279508497
 30
0.0
 40
0.0250000000000005
100
AcDbArc
 50
311.8103148958
 51
0.0
  0
ARC
  5
389
330
1F
100
AcDbEntity
  8
0
  6
Continuous
 62
     7
370
    25
100
AcDbCircle
 10
0.59
 20
2.0
 30
0.0
 40
0.0125000000000001
100
AcDbArc
 50
131.8103148958
 51
318.1896851042
  0
ARC
  5
38A
330
1F
100
AcDbEntity
  8
0
  6
Continuous
 62
     7
370
    25
100
AcDbCircle
 10
0.6179508497
 20
1.975
 30
0.0
 40
0.0250000000000019
100
AcDbArc
 50
90.0
 51
138.1896851042
  0
ARC
  5
38B
330
1F
100
AcDbEntity
  8
0
  6
Continuous
 62
     7
370
    25
100
AcDbCircle
 10
1.0620491503
 20
1.975
 30
0.0
 40
0.0250000000000003
100
AcDbArc
 50
41.8103148958
 51
90.0
  0
ARC
  5
38C
330
1F
100
AcDbEntity
  8
0
  6
Continuous
 62
     7
370
    25
100
AcDbCircle
 10
1.09
 20
2.0
 30
0.0
 40
0.0125000000000003
100
AcDbArc
 50
221.8103148958
 51
48.1896851042
  0
ARC
  5
38D
330
1F
100
AcDbEntity
  8
0
  6
Continuous
 62
     7
370
    25
100
AcDbCircle
 10
1.115
 20
2.0279508497
 30
0.0
 40
0.0250000000000012
100
AcDbArc
 50
180.0
 51
228.1896851042
  0
ARC
  5
38E
330
1F
100
AcDbEntity
  8
0
  6
Continuous
 62
     7
370
    25
100
AcDbCircle
 10
1.14
 20
2.2
 30
0.0
 40
0.0500000000000003
100
AcDbArc
 50
90.0
 51
180.0
  0
ARC
  5
38F
330
1F
100
AcDbEntity
  8
0
  6
Continuous
 62
     7
370
    25
100
AcDbCircle
 10
2.0125
 20
2.2
 30
0.0
 40
0.0500000000000007
100
AcDbArc
 50
0.0
 51
90.0
  0
ARC
  5
390
330
1F
100
AcDbEntity
  8
0
  6
Continuous
 62
     7
370
    25
100
AcDbCircle
 10
2.0375
 20
2.0279508497
 30
0.0
 40
0.0250000000000033
100
AcDbArc
 50
311.8103148958
 51
360.0
  0
ARC
  5
391
330
1F
100
AcDbEntity
  8
0
  6
Continuous
 62
     7
370
    25
100
AcDbCircle
 10
2.0625
 20
2.0
 30
0.0
 40
0.0124999999999998
100
AcDbArc
 50
131.8103148958
 51
318.1896851042
  0
ARC
  5
392
330
1F
100
AcDbEntity
  8
0
  6
Continuous
 62
     7
370
    25
100
AcDbCircle
 10
2.0904508497
 20
1.975
 30
0.0
 40
0.0250000000000028
100
AcDbArc
 50
90.0
 51
138.1896851042
  0
ARC
  5
393
330
1F
100
AcDbEntity
  8
0
  6
Continuous
 62
     7
370
    25
100
AcDbCircle
 10
2.625
 20
1.9375
 30
0.0
 40
0.0624999999999996
100
AcDbArc
 50
0.0
 51
90.0
  0
ARC
  5
394
330
1F
100
AcDbEntity
  8
0
  6
Continuous
 62
     7
370
    25
100
AcDbCircle
 10
2.75
 20
1.6125
 30
0.0
 40
0.0625000000000004
100
AcDbArc
 50
180.0
 51
270.0
  0
ARC
  5
395
330
1F
100
AcDbEntity
  8
0
  6
Continuous
 62
     7
370
    25
100
AcDbCircle
 10
3.125
 20
1.6125
 30
0.0
 40
0.0625
100
AcDbArc
 50
270.0
 51
0.0
  0
ARC
  5
396
330
1F
100
AcDbEntity
  8
0
  6
Continuous
 62
     7
370
    25
100
AcDbCircle
 10
3.25
 20
1.9375
 30
0.0
 40
0.0625000000000013
100
AcDbArc
 50
90.0
 51
180.0
  0
ARC
  5
397
330
1F
100
AcDbEntity
  8
0
  6
Continuous
 62
     7
370
    25
100
AcDbCircle
 10
1.2058012702
 20
1.375
 30
0.0
 40
0.0500000000000003
100
AcDbArc
 50
30.0
 51
90.0
  0
ARC
  5
398
330
1F
100
AcDbEntity
  8
0
  6
Continuous
 62
     7
370
    25
100
AcDbCircle
 10
1.1191987298
 20
1.375
 30
0.0
 40
0.0500000000000007
100
AcDbArc
 50
90.0
 51
150.0
  0
ARC
  5
399
330
1F
100
AcDbEntity
  8
0
  6
Continuous
 62
     7
370
    25
100
AcDbCircle
 10
1.0758974596
 20
1.3
 30
0.0
 40
0.0499999999999999
100
AcDbArc
 50
150.0
 51
210.0
  0
ARC
  5
39A
330
1F
100
AcDbEntity
  8
0
  6
Continuous
 62
     7
370
    25
100
AcDbCircle
 10
1.1191987298
 20
1.225
 30
0.0
 40
0.0499999999999997
100
AcDbArc
 50
210.0
 51
270.0
  0
ARC
  5
39B
330
1F
100
AcDbEntity
  8
0
  6
Continuous
 62
     7
370
    25
100
AcDbCircle
 10
1.2058012702
 20
1.225
 30
0.0
 40
0.0500000000000005
100
AcDbArc
 50
270.0
 51
330.0
  0
ARC
  5
39C
330
1F
100
AcDbEntity
  8
0
  6
Continuous
 62
     7
370
    25
100
AcDbCircle
 10
1.2491025404
 20
1.3
 30
0.0
 40
0.0499999999999987
100
AcDbArc
 50
330.0
 51
30.0
  0
ARC
  5
39D
330
1F
100
AcDbEntity
  8
0
  6
Continuous
 62
     7
370
    25
100
AcDbCircle
 10
-2.5114637029
 20
1.675
 30
0.0
 40
0.0374999999999994
100
AcDbArc
 50
30.0
 51
90.0
  0
ARC
  5
39E
330
1F
100
AcDbEntity
  8
0
  6
Continuous
 62
     7
370
    25
100
AcDbCircle
 10
-2.7135362971
 20
1.675
 30
0.0
 40
0.037499999999999
100
AcDbArc
 50
90.0
 51
150.0
  0
ARC
  5
39F
330
1F
100
AcDbEntity
  8
0
  6
Continuous
 62
     7
370
    25
100
AcDbCircle
 10
-2.8145725942
 20
1.5
 30
0.0
 40
0.0374999999999992
100
AcDbArc
 50
150.0
 51
210.0
  0
ARC
  5
3A0
330
1F
100
AcDbEntity
  8
0
  6
Continuous
 62
     7
370
    25
100
AcDbCircle
 10
-2.7135362971
 20
1.325
 30
0.0
 40
0.0374999999999995
100
AcDbArc
 50
210.0
 51
270.0
  0
ARC
  5
3A1
330
1F
100
AcDbEntity
  8
0
  6
Continuous
 62
     7
370
    25
100
AcDbCircle
 10
-2.5114637029
 20
1.325
 30
0.0
 40
0.0374999999999993
100
AcDbArc
 50
270.0
 51
330.0
  0
ARC
  5
3A2
330
1F
100
AcDbEntity
  8
0
  6
Continuous
 62
     7
370
    25
100
AcDbCircle
 10
-2.4104274058
 20
1.5
 30
0.0
 40
0.0374999999999997
100
AcDbArc
 50
330.0
 51
30.0
  0
ARC
  5
3A3
330
1F
100
AcDbEntity
  8
0
  6
Continuous
 62
     7
370
    25
100
AcDbCircle
 10
-3.1898502692
 20
1.4
 30
0.0
 40
0.0375000000000001
100
AcDbArc
 50
90.0
 51
150.0
  0
ARC
  5
3A4
330
1F
100
AcDbEntity
  8
0
  6
Continuous
 62
     7
370
    25
100
AcDbCircle
 10
-3.2908865663
 20
1.225
 30
0.0
 40
0.0375000000000011
100
AcDbArc
 50
150.0
 51
210.0
  0
ARC
  5
3A5
330
1F
100
AcDbEntity
  8
0
  6
Continuous
 62
     7
370
    25
100
AcDbCircle
 10
-3.1898502692
 20
1.05
 30
0.0
 40
0.0375000000000007
100
AcDbArc
 50
210.0
 51
270.0
  0
ARC
  5
3A6
330
1F
100
AcDbEntity
  8
0
  6
Continuous
 62
     7
370
    25
100
AcDbCircle
 10
-2.987777675
 20
1.05
 30
0.0
 40
0.0375000000000008
100
AcDbArc
 50
270.0
 51
330.0
  0
ARC
  5
3A7
330
1F
100
AcDbEntity
  8
0
  6
Continuous
 62
     7
370
    25
100
AcDbCircle
 10
-2.9850880614
 20
1.0276759256
 30
0.0
 40
0.0300000000000001
100
AcDbArc
 50
6.8422304911
 51
73.6735703882
  0
ARC
  5
3A8
330
1F
100
AcDbEntity
  8
0
  6
Continuous
 62
     7
370
    25
100
AcDbCircle
 10
-2.9274606299
 20
1.2244094488
 30
0.0
 40
0.1750000000000001
100
AcDbArc
 50
106.3616389907
 51
253.6735703882
  0
ARC
  5
3A9
330
1F
100
AcDbEntity
  8
0
  6
Continuous
 62
     7
370
    25
100
AcDbCircle
 10
-2.9852089471
 20
1.4211075217
 30
0.0
 40
0.0300000000000003
100
AcDbArc
 50
286.3616389907
 51
355.4928181327
  0
ARC
  5
3AA
330
1F
100
AcDbEntity
  8
0
  6
Continuous
 62
     7
370
    25
100
AcDbCircle
 10
-2.987777675
 20
1.4
 30
0.0
 40
0.0375000000000004
100
AcDbArc
 50
30.0
 51
90.0
  0
ARC
  5
3AB
330
1F
100
AcDbEntity
  8
0
  6
Continuous
 62
     7
370
    25
100
AcDbCircle
 10
-2.0911493361
 20
1.275
 30
0.0
 40
0.037500000000001
100
AcDbArc
 50
90.0
 51
193.7728458638
  0
ARC
  5
3AC
330
1F
100
AcDbEntity
  8
0
  6
Continuous
 62
     7
370
    25
100
AcDbCircle
 10
-2.2975393701
 20
1.2244094488
 30
0.0
 40
0.1749999999999992
100
AcDbArc
 50
286.3264296118
 51
13.7728458638
  0
ARC
  5
3AD
330
1F
100
AcDbEntity
  8
0
  6
Continuous
 62
     7
370
    25
100
AcDbCircle
 10
-2.2399119386
 20
1.0276759256
 30
0.0
 40
0.0300000000000002
100
AcDbArc
 50
106.3264296118
 51
173.1577695089
  0
ARC
  5
3AE
330
1F
100
AcDbEntity
  8
0
  6
Continuous
 62
     7
370
    25
100
AcDbCircle
 10
-2.237222325
 20
1.05
 30
0.0
 40
0.0375000000000002
100
AcDbArc
 50
210.0
 51
270.0
  0
ARC
  5
3AF
330
1F
100
AcDbEntity
  8
0
  6
Continuous
 62
     7
370
    25
100
AcDbCircle
 10
-2.0351497308
 20
1.05
 30
0.0
 40
0.0375000000000006
100
AcDbArc
 50
270.0
 51
330.0
  0
ARC
  5
3B0
330
1F
100
AcDbEntity
  8
0
  6
Continuous
 62
     7
370
    25
100
AcDbCircle
 10
-1.9341134337
 20
1.225
 30
0.0
 40
0.0375000000000013
100
AcDbArc
 50
330.0
 51
30.0
  0
ARC
  5
3B1
330
1F
100
AcDbEntity
  8
0
  6
Continuous
 62
     7
370
    25
100
AcDbCircle
 10
-1.9629809472
 20
1.275
 30
0.0
 40
0.0374999999999997
100
AcDbArc
 50
30.0
 51
90.0
  0
ARC
  5
3B2
330
1F
100
AcDbEntity
  8
0
  6
Continuous
 62
     7
370
    25
100
AcDbCircle
 10
2.4949660789
 20
1.395
 30
0.0
 40
0.0300000000000002
100
AcDbArc
 50
90.0
 51
127.6584620062
  0
ARC
  5
3B3
330
1F
100
AcDbEntity
  8
0
  6
Continuous
 62
     7
370
    25
100
AcDbCircle
 10
2.5091134337
 20
1.4
 30
0.0
 40
0.0375000000000023
100
AcDbArc
 50
150.0
 51
210.0
  0
ARC
  5
3B4
330
1F
100
AcDbEntity
  8
0
  6
Continuous
 62
     7
370
    25
100
AcDbCircle
 10
2.6101497308
 20
1.225
 30
0.0
 40
0.0375
100
AcDbArc
 50
210.0
 51
270.0
  0
ARC
  5
3B5
330
1F
100
AcDbEntity
  8
0
  6
Continuous
 62
     7
370
    25
100
AcDbCircle
 10
2.812222325
 20
1.225
 30
0.0
 40
0.0374999999999988
100
AcDbArc
 50
270.0
 51
330.0
  0
ARC
  5
3B6
330
1F
100
AcDbEntity
  8
0
  6
Continuous
 62
     7
370
    25
100
AcDbCircle
 10
2.9132586221
 20
1.4
 30
0.0
 40
0.0375000000000003
100
AcDbArc
 50
330.0
 51
30.0
  0
ARC
  5
3B7
330
1F
100
AcDbEntity
  8
0
  6
Continuous
 62
     7
370
    25
100
AcDbCircle
 10
2.9274059769
 20
1.395
 30
0.0
 40
0.03
100
AcDbArc
 50
52.3415379938
 51
90.0
  0
ARC
  5
3B8
330
1F
100
AcDbEntity
  8
0
  6
Continuous
 62
     7
370
    25
100
AcDbCircle
 10
2.9060417438
 20
0.8375
 30
0.0
 40
0.0375000000000001
100
AcDbArc
 50
270.0
 51
330.0
  0
ARC
  5
3B9
330
1F
100
AcDbEntity
  8
0
  6
Continuous
 62
     7
370
    25
100
AcDbCircle
 10
2.9132586221
 20
0.85
 30
0.0
 40
0.0375000000000003
100
AcDbArc
 50
330.0
 51
30.0
  0
ARC
  5
3BA
330
1F
100
AcDbEntity
  8
0
  6
Continuous
 62
     7
370
    25
100
AcDbCircle
 10
2.812222325
 20
1.025
 30
0.0
 40
0.037500000000001
100
AcDbArc
 50
30.0
 51
90.0
  0
ARC
  5
3BB
330
1F
100
AcDbEntity
  8
0
  6
Continuous
 62
     7
370
    25
100
AcDbCircle
 10
2.6101497308
 20
1.025
 30
0.0
 40
0.0374999999999994
100
AcDbArc
 50
90.0
 51
150.0
  0
ARC
  5
3BC
330
1F
100
AcDbEntity
  8
0
  6
Continuous
 62
     7
370
    25
100
AcDbCircle
 10
2.5091134337
 20
0.85
 30
0.0
 40
0.0374999999999997
100
AcDbArc
 50
150.0
 51
210.0
  0
ARC
  5
3BD
330
1F
100
AcDbEntity
  8
0
  6
Continuous
 62
     7
370
    25
100
AcDbCircle
 10
2.5163303121
 20
0.8375
 30
0.0
 40
0.0375000000000004
100
AcDbArc
 50
210.0
 51
270.0
  0
ARC
  5
3BE
330
1F
100
AcDbEntity
  8
0
  6
Continuous
 62
     7
370
    25
100
AcDbCircle
 10
2.2875
 20
1.775
 30
0.0
 40
0.0374999999999996
100
AcDbArc
 50
90.0
 51
180.0
  0
ARC
  5
3BF
330
1F
100
AcDbEntity
  8
0
  6
Continuous
 62
     7
370
    25
100
AcDbCircle
 10
2.2875
 20
1.5
 30
0.0
 40
0.0375000000000001
100
AcDbArc
 50
180.0
 51
270.0
  0
ARC
  5
3C0
330
1F
100
AcDbEntity
  8
0
  6
Continuous
 62
     7
370
    25
100
AcDbCircle
 10
2.3359083529
 20
1.5
 30
0.0
 40
0.0374999999999997
100
AcDbArc
 50
270.0
 51
330.0
  0
ARC
  5
3C1
330
1F
100
AcDbEntity
  8
0
  6
Continuous
 62
     7
370
    25
100
AcDbCircle
 10
2.4369446501
 20
1.675
 30
0.0
 40
0.0375000000000015
100
AcDbArc
 50
330.0
 51
30.0
  0
ARC
  5
3C2
330
1F
100
AcDbEntity
  8
0
  6
Continuous
 62
     7
370
    25
100
AcDbCircle
 10
2.3792096231
 20
1.775
 30
0.0
 40
0.0374999999999995
100
AcDbArc
 50
30.0
 51
90.0
  0
ARC
  5
3C3
330
1F
100
AcDbEntity
  8
0
  6
Continuous
 62
     7
370
    25
100
AcDbCircle
 10
1.2130181486
 20
1.7625
 30
0.0
 40
0.037499999999999
100
AcDbArc
 50
30.0
 51
90.0
  0
ARC
  5
3C4
330
1F
100
AcDbEntity
  8
0
  6
Continuous
 62
     7
370
    25
100
AcDbCircle
 10
1.1119818514
 20
1.7625
 30
0.0
 40
0.0375000000000004
100
AcDbArc
 50
90.0
 51
150.0
  0
ARC
  5
3C5
330
1F
100
AcDbEntity
  8
0
  6
Continuous
 62
     7
370
    25
100
AcDbCircle
 10
1.0614637029
 20
1.675
 30
0.0
 40
0.0375000000000002
100
AcDbArc
 50
150.0
 51
210.0
  0
ARC
  5
3C6
330
1F
100
AcDbEntity
  8
0
  6
Continuous
 62
     7
370
    25
100
AcDbCircle
 10
1.1119818514
 20
1.5875
 30
0.0
 40
0.037499999999999
100
AcDbArc
 50
210.0
 51
270.0
  0
ARC
  5
3C7
330
1F
100
AcDbEntity
  8
0
  6
Continuous
 62
     7
370
    25
100
AcDbCircle
 10
1.2130181486
 20
1.5875
 30
0.0
 40
0.0375000000000017
100
AcDbArc
 50
270.0
 51
330.0
  0
ARC
  5
3C8
330
1F
100
AcDbEntity
  8
0
  6
Continuous
 62
     7
370
    25
100
AcDbCircle
 10
1.2635362971
 20
1.675
 30
0.0
 40
0.0375000000000004
100
AcDbArc
 50
330.0
 51
30.0
  0
ARC
  5
3C9
330
1F
100
AcDbEntity
  8
0
  6
Continuous
 62
     7
370
    25
100
AcDbCircle
 10
1.2130181486
 20
0.8375
 30
0.0
 40
0.0375000000000008
100
AcDbArc
 50
270.0
 51
330.0
  0
ARC
  5
3CA
330
1F
100
AcDbEntity
  8
0
  6
Continuous
 62
     7
370
    25
100
AcDbCircle
 10
1.2635362971
 20
0.925
 30
0.0
 40
0.037500000000001
100
AcDbArc
 50
330.0
 51
30.0
  0
ARC
  5
3CB
330
1F
100
AcDbEntity
  8
0
  6
Continuous
 62
     7
370
    25
100
AcDbCircle
 10
1.2130181486
 20
1.0125
 30
0.0
 40
0.0375000000000013
100
AcDbArc
 50
30.0
 51
90.0
  0
ARC
  5
3CC
330
1F
100
AcDbEntity
  8
0
  6
Continuous
 62
     7
370
    25
100
AcDbCircle
 10
1.1119818514
 20
1.0125
 30
0.0
 40
0.0375000000000006
100
AcDbArc
 50
90.0
 51
150.0
  0
ARC
  5
3CD
330
1F
100
AcDbEntity
  8
0
  6
Continuous
 62
     7
370
    25
100
AcDbCircle
 10
1.0614637029
 20
0.925
 30
0.0
 40
0.0375000000000003
100
AcDbArc
 50
150.0
 51
210.0
  0
ARC
  5
3CE
330
1F
100
AcDbEntity
  8
0
  6
Continuous
 62
     7
370
    25
100
AcDbCircle
 10
1.1119818514
 20
0.8375
 30
0.0
 40
0.0375000000000002
100
AcDbArc
 50
210.0
 51
270.0
  0
ARC
  5
3CF
330
1F
100
AcDbEntity
  8
0
  6
Continuous
 62
     7
370
    25
100
AcDbCircle
 10
-2.7135362971
 20
0.775
 30
0.0
 40
0.0375000000000003
100
AcDbArc
 50
210.0
 51
270.0
  0
ARC
  5
3D0
330
1F
100
AcDbEntity
  8
0
  6
Continuous
 62
     7
370
    25
100
AcDbCircle
 10
-2.5114637029
 20
0.775
 30
0.0
 40
0.0374999999999995
100
AcDbArc
 50
270.0
 51
330.0
  0
ARC
  5
3D1
330
1F
100
AcDbEntity
  8
0
  6
Continuous
 62
     7
370
    25
100
AcDbCircle
 10
-2.4104274058
 20
0.95
 30
0.0
 40
0.0374999999999993
100
AcDbArc
 50
330.0
 51
30.0
  0
ARC
  5
3D2
330
1F
100
AcDbEntity
  8
0
  6
Continuous
 62
     7
370
    25
100
AcDbCircle
 10
-2.5114637029
 20
1.125
 30
0.0
 40
0.0374999999999999
100
AcDbArc
 50
30.0
 51
90.0
  0
ARC
  5
3D3
330
1F
100
AcDbEntity
  8
0
  6
Continuous
 62
     7
370
    25
100
AcDbCircle
 10
-2.7135362971
 20
1.125
 30
0.0
 40
0.0374999999999999
100
AcDbArc
 50
90.0
 51
150.0
  0
ARC
  5
3D4
330
1F
100
AcDbEntity
  8
0
  6
Continuous
 62
     7
370
    25
100
AcDbCircle
 10
-2.8145725942
 20
0.95
 30
0.0
 40
0.0375000000000007
100
AcDbArc
 50
150.0
 51
210.0
  0
ARC
  5
3D5
330
1F
100
AcDbEntity
  8
0
  6
Continuous
 62
     7
370
    25
100
AcDbCircle
 10
-1.5588357587
 20
0.775
 30
0.0
 40
0.0375000000000008
100
AcDbArc
 50
270.0
 51
330.0
  0
ARC
  5
3D6
330
1F
100
AcDbEntity
  8
0
  6
Continuous
 62
     7
370
    25
100
AcDbCircle
 10
-1.475
 20
0.9202077936
 30
0.0
 40
0.0374999999999981
100
AcDbArc
 50
330.0
 51
0.0
  0
ARC
  5
3D7
330
1F
100
AcDbEntity
  8
0
  6
Continuous
 62
     7
370
    25
100
AcDbCircle
 10
-1.475
 20
0.9797922064
 30
0.0
 40
0.037500000000005
100
AcDbArc
 50
0.0
 51
30.0
  0
ARC
  5
3D8
330
1F
100
AcDbEntity
  8
0
  6
Continuous
 62
     7
370
    25
100
AcDbCircle
 10
-1.5588357587
 20
1.125
 30
0.0
 40
0.0375000000000006
100
AcDbArc
 50
30.0
 51
90.0
  0
ARC
  5
3D9
330
1F
100
AcDbEntity
  8
0
  6
Continuous
 62
     7
370
    25
100
AcDbCircle
 10
-1.7609083529
 20
1.125
 30
0.0
 40
0.0374999999999995
100
AcDbArc
 50
90.0
 51
150.0
  0
ARC
  5
3DA
330
1F
100
AcDbEntity
  8
0
  6
Continuous
 62
     7
370
    25
100
AcDbCircle
 10
-1.8619446501
 20
0.95
 30
0.0
 40
0.0374999999999985
100
AcDbArc
 50
150.0
 51
210.0
  0
ARC
  5
3DB
330
1F
100
AcDbEntity
  8
0
  6
Continuous
 62
     7
370
    25
100
AcDbCircle
 10
-1.7609083529
 20
0.775
 30
0.0
 40
0.0375000000000001
100
AcDbArc
 50
210.0
 51
270.0
  0
ARC
  5
3DC
330
1F
100
AcDbEntity
  8
0
  6
Continuous
 62
     7
370
    25
100
AcDbCircle
 10
3.0864637029
 20
0.95
 30
0.0
 40
0.0375000000000006
100
AcDbArc
 50
210.0
 51
270.0
  0
ARC
  5
3DD
330
1F
100
AcDbEntity
  8
0
  6
Continuous
 62
     7
370
    25
100
AcDbCircle
 10
3.2885362971
 20
0.95
 30
0.0
 40
0.0374999999999999
100
AcDbArc
 50
270.0
 51
330.0
  0
ARC
  5
3DE
330
1F
100
AcDbEntity
  8
0
  6
Continuous
 62
     7
370
    25
100
AcDbCircle
 10
3.3895725942
 20
1.125
 30
0.0
 40
0.0375000000000012
100
AcDbArc
 50
330.0
 51
30.0
  0
ARC
  5
3DF
330
1F
100
AcDbEntity
  8
0
  6
Continuous
 62
     7
370
    25
100
AcDbCircle
 10
3.2885362971
 20
1.3
 30
0.0
 40
0.0374999999999986
100
AcDbArc
 50
30.0
 51
90.0
  0
ARC
  5
3E0
330
1F
100
AcDbEntity
  8
0
  6
Continuous
 62
     7
370
    25
100
AcDbCircle
 10
3.0864637029
 20
1.3
 30
0.0
 40
0.0374999999999996
100
AcDbArc
 50
90.0
 51
150.0
  0
ARC
  5
3E1
330
1F
100
AcDbEntity
  8
0
  6
Continuous
 62
     7
370
    25
100
AcDbCircle
 10
2.9854274058
 20
1.125
 30
0.0
 40
0.0375000000000016
100
AcDbArc
 50
150.0
 51
210.0
  0
ARC
  5
3E2
330
1F
100
AcDbEntity
  8
0
  6
Continuous
 62
     7
370
    25
100
AcDbCircle
 10
2.1
 20
1.15
 30
0.0
 40
0.0374999999999992
100
AcDbArc
 50
90.0
 51
180.0
  0
ARC
  5
3E3
330
1F
100
AcDbEntity
  8
0
  6
Continuous
 62
     7
370
    25
100
AcDbCircle
 10
2.1
 20
1.0086052532
 30
0.0
 40
0.0374999999999979
100
AcDbArc
 50
180.0
 51
210.0
  0
ARC
  5
3E4
330
1F
100
AcDbEntity
  8
0
  6
Continuous
 62
     7
370
    25
100
AcDbCircle
 10
2.1338357587
 20
0.95
 30
0.0
 40
0.0374999999999995
100
AcDbArc
 50
210.0
 51
270.0
  0
ARC
  5
3E5
330
1F
100
AcDbEntity
  8
0
  6
Continuous
 62
     7
370
    25
100
AcDbCircle
 10
2.3359083529
 20
0.95
 30
0.0
 40
0.0374999999999997
100
AcDbArc
 50
270.0
 51
330.0
  0
ARC
  5
3E6
330
1F
100
AcDbEntity
  8
0
  6
Continuous
 62
     7
370
    25
100
AcDbCircle
 10
2.4369446501
 20
1.125
 30
0.0
 40
0.0374999999999975
100
AcDbArc
 50
330.0
 51
30.0
  0
ARC
  5
3E7
330
1F
100
AcDbEntity
  8
0
  6
Continuous
 62
     7
370
    25
100
AcDbCircle
 10
2.3359083529
 20
1.3
 30
0.0
 40
0.0375000000000001
100
AcDbArc
 50
30.0
 51
90.0
  0
ARC
  5
3E8
330
1F
100
AcDbEntity
  8
0
  6
Continuous
 62
     7
370
    25
100
AcDbCircle
 10
2.2875
 20
1.3
 30
0.0
 40
0.0374999999999999
100
AcDbArc
 50
90.0
 51
180.0
  0
ARC
  5
3E9
330
1F
100
AcDbEntity
  8
0
  6
Continuous
 62
     7
370
    25
100
AcDbCircle
 10
2.2125
 20
1.225
 30
0.0
 40
0.0375000000000005
100
AcDbArc
 50
270.0
 51
0.0
  0
ARC
  5
3EA
330
1F
100
AcDbEntity
  8
0
  6
Continuous
 62
     7
370
    25
100
AcDbCircle
 10
2.3359083529
 20
0.75
 30
0.0
 40
0.0375000000000006
100
AcDbArc
 50
30.0
 51
90.0
  0
ARC
  5
3EB
330
1F
100
AcDbEntity
  8
0
  6
Continuous
 62
     7
370
    25
100
AcDbCircle
 10
2.1338357587
 20
0.75
 30
0.0
 40
0.0375000000000002
100
AcDbArc
 50
90.0
 51
150.0
  0
ARC
  5
3EC
330
1F
100
AcDbEntity
  8
0
  6
Continuous
 62
     7
370
    25
100
AcDbCircle
 10
2.1
 20
0.6913947468
 30
0.0
 40
0.0374999999999921
100
AcDbArc
 50
150.0
 51
180.0
  0
ARC
  5
3ED
330
1F
100
AcDbEntity
  8
0
  6
Continuous
 62
     7
370
    25
100
AcDbCircle
 10
2.1
 20
0.6625
 30
0.0
 40
0.0375000000000002
100
AcDbArc
 50
180.0
 51
270.0
  0
ARC
  5
3EE
330
1F
100
AcDbEntity
  8
0
  6
Continuous
 62
     7
370
    25
100
AcDbCircle
 10
2.3864265015
 20
0.6625
 30
0.0
 40
0.0375000000000003
100
AcDbArc
 50
270.0
 51
30.0
  0
ARC
  5
3EF
330
1F
100
AcDbEntity
  8
0
  6
Continuous
 62
     7
370
    25
100
AcDbCircle
 10
-2.0351497308
 20
0.85
 30
0.0
 40
0.037500000000001
100
AcDbArc
 50
30.0
 51
90.0
  0
ARC
  5
3F0
330
1F
100
AcDbEntity
  8
0
  6
Continuous
 62
     7
370
    25
100
AcDbCircle
 10
-2.237222325
 20
0.85
 30
0.0
 40
0.0374999999999998
100
AcDbArc
 50
90.0
 51
150.0
  0
ARC
  5
3F1
330
1F
100
AcDbEntity
  8
0
  6
Continuous
 62
     7
370
    25
100
AcDbCircle
 10
-2.3021742303
 20
0.7375
 30
0.0
 40
0.0375000000000005
100
AcDbArc
 50
150.0
 51
270.0
  0
ARC
  5
3F2
330
1F
100
AcDbEntity
  8
0
  6
Continuous
 62
     7
370
    25
100
AcDbCircle
 10
-1.9701978255
 20
0.7375
 30
0.0
 40
0.0374999999999999
100
AcDbArc
 50
270.0
 51
30.0
  0
ARC
  5
3F3
330
1F
100
AcDbEntity
  8
0
  6
Continuous
 62
     7
370
    25
100
AcDbCircle
 10
0.8810417438
 20
1.1875
 30
0.0
 40
0.0500000000000008
100
AcDbArc
 50
30.0
 51
90.0
  0
ARC
  5
3F4
330
1F
100
AcDbEntity
  8
0
  6
Continuous
 62
     7
370
    25
100
AcDbCircle
 10
0.7944392034
 20
1.1875
 30
0.0
 40
0.0499999999999992
100
AcDbArc
 50
90.0
 51
150.0
  0
ARC
  5
3F5
330
1F
100
AcDbEntity
  8
0
  6
Continuous
 62
     7
370
    25
100
AcDbCircle
 10
0.7511379332
 20
1.1125
 30
0.0
 40
0.050000000000001
100
AcDbArc
 50
150.0
 51
210.0
  0
ARC
  5
3F6
330
1F
100
AcDbEntity
  8
0
  6
Continuous
 62
     7
370
    25
100
AcDbCircle
 10
0.7944392034
 20
1.0375
 30
0.0
 40
0.0499999999999993
100
AcDbArc
 50
210.0
 51
270.0
  0
ARC
  5
3F7
330
1F
100
AcDbEntity
  8
0
  6
Continuous
 62
     7
370
    25
100
AcDbCircle
 10
0.8810417438
 20
1.0375
 30
0.0
 40
0.0499999999999999
100
AcDbArc
 50
270.0
 51
330.0
  0
ARC
  5
3F8
330
1F
100
AcDbEntity
  8
0
  6
Continuous
 62
     7
370
    25
100
AcDbCircle
 10
0.924343014
 20
1.1125
 30
0.0
 40
0.0500000000000011
100
AcDbArc
 50
330.0
 51
30.0
  0
ARC
  5
3F9
330
1F
100
AcDbEntity
  8
0
  6
Continuous
 62
     7
370
    25
100
AcDbCircle
 10
-0.4179963619
 20
1.1875
 30
0.0
 40
0.050000000000001
100
AcDbArc
 50
30.0
 51
90.0
  0
ARC
  5
3FA
330
1F
100
AcDbEntity
  8
0
  6
Continuous
 62
     7
370
    25
100
AcDbCircle
 10
-0.5045989023
 20
1.1875
 30
0.0
 40
0.0499999999999992
100
AcDbArc
 50
90.0
 51
150.0
  0
ARC
  5
3FB
330
1F
100
AcDbEntity
  8
0
  6
Continuous
 62
     7
370
    25
100
AcDbCircle
 10
-0.5479001725
 20
1.1125
 30
0.0
 40
0.0500000000000009
100
AcDbArc
 50
150.0
 51
210.0
  0
ARC
  5
3FC
330
1F
100
AcDbEntity
  8
0
  6
Continuous
 62
     7
370
    25
100
AcDbCircle
 10
-0.5045989023
 20
1.0375
 30
0.0
 40
0.0500000000000007
100
AcDbArc
 50
210.0
 51
270.0
  0
ARC
  5
3FD
330
1F
100
AcDbEntity
  8
0
  6
Continuous
 62
     7
370
    25
100
AcDbCircle
 10
-0.4179963619
 20
1.0375
 30
0.0
 40
0.0500000000000004
100
AcDbArc
 50
270.0
 51
330.0
  0
ARC
  5
3FE
330
1F
100
AcDbEntity
  8
0
  6
Continuous
 62
     7
370
    25
100
AcDbCircle
 10
-0.3746950917
 20
1.1125
 30
0.0
 40
0.0499999999999998
100
AcDbArc
 50
330.0
 51
30.0
  0
ARC
  5
3FF
330
1F
100
AcDbEntity
  8
0
  6
Continuous
 62
     7
370
    25
100
AcDbCircle
 10
-0.7427558883
 20
1.0
 30
0.0
 40
0.0499999999999996
100
AcDbArc
 50
30.0
 51
90.0
  0
ARC
  5
400
330
1F
100
AcDbEntity
  8
0
  6
Continuous
 62
     7
370
    25
100
AcDbCircle
 10
-0.8293584287
 20
1.0
 30
0.0
 40
0.0499999999999996
100
AcDbArc
 50
90.0
 51
150.0
  0
ARC
  5
401
330
1F
100
AcDbEntity
  8
0
  6
Continuous
 62
     7
370
    25
100
AcDbCircle
 10
-0.8726596989
 20
0.925
 30
0.0
 40
0.0500000000000009
100
AcDbArc
 50
150.0
 51
210.0
  0
ARC
  5
402
330
1F
100
AcDbEntity
  8
0
  6
Continuous
 62
     7
370
    25
100
AcDbCircle
 10
-0.8293584287
 20
0.85
 30
0.0
 40
0.0499999999999992
100
AcDbArc
 50
210.0
 51
270.0
  0
ARC
  5
403
330
1F
100
AcDbEntity
  8
0
  6
Continuous
 62
     7
370
    25
100
AcDbCircle
 10
-0.7427558883
 20
0.85
 30
0.0
 40
0.0499999999999998
100
AcDbArc
 50
270.0
 51
330.0
  0
ARC
  5
404
330
1F
100
AcDbEntity
  8
0
  6
Continuous
 62
     7
370
    25
100
AcDbCircle
 10
-0.6994546181
 20
0.925
 30
0.0
 40
0.0499999999999989
100
AcDbArc
 50
330.0
 51
30.0
  0
ARC
  5
405
330
1F
100
AcDbEntity
  8
0
  6
Continuous
 62
     7
370
    25
100
AcDbCircle
 10
-0.0932368355
 20
1.75
 30
0.0
 40
0.0499999999999996
100
AcDbArc
 50
30.0
 51
90.0
  0
ARC
  5
406
330
1F
100
AcDbEntity
  8
0
  6
Continuous
 62
     7
370
    25
100
AcDbCircle
 10
-0.1798393759
 20
1.75
 30
0.0
 40
0.0500000000000012
100
AcDbArc
 50
90.0
 51
150.0
  0
ARC
  5
407
330
1F
100
AcDbEntity
  8
0
  6
Continuous
 62
     7
370
    25
100
AcDbCircle
 10
-0.2231406461
 20
1.675
 30
0.0
 40
0.0499999999999999
100
AcDbArc
 50
150.0
 51
210.0
  0
ARC
  5
408
330
1F
100
AcDbEntity
  8
0
  6
Continuous
 62
     7
370
    25
100
AcDbCircle
 10
-0.1798393759
 20
1.6
 30
0.0
 40
0.0499999999999993
100
AcDbArc
 50
210.0
 51
270.0
  0
ARC
  5
409
330
1F
100
AcDbEntity
  8
0
  6
Continuous
 62
     7
370
    25
100
AcDbCircle
 10
-0.0932368355
 20
1.6
 30
0.0
 40
0.0499999999999993
100
AcDbArc
 50
270.0
 51
330.0
  0
ARC
  5
40A
330
1F
100
AcDbEntity
  8
0
  6
Continuous
 62
     7
370
    25
100
AcDbCircle
 10
-0.0499355653
 20
1.675
 30
0.0
 40
0.0499999999999991
100
AcDbArc
 50
330.0
 51
30.0
  0
ARC
  5
40B
330
1F
100
AcDbEntity
  8
0
  6
Continuous
 62
     7
370
    25
100
AcDbCircle
 10
-0.4179963619
 20
1.5625
 30
0.0
 40
0.0500000000000014
100
AcDbArc
 50
30.0
 51
90.0
  0
ARC
  5
40C
330
1F
100
AcDbEntity
  8
0
  6
Continuous
 62
     7
370
    25
100
AcDbCircle
 10
-0.5045989023
 20
1.5625
 30
0.0
 40
0.0499999999999999
100
AcDbArc
 50
90.0
 51
150.0
  0
ARC
  5
40D
330
1F
100
AcDbEntity
  8
0
  6
Continuous
 62
     7
370
    25
100
AcDbCircle
 10
-0.5479001725
 20
1.4875
 30
0.0
 40
0.0500000000000001
100
AcDbArc
 50
150.0
 51
210.0
  0
ARC
  5
40E
330
1F
100
AcDbEntity
  8
0
  6
Continuous
 62
     7
370
    25
100
AcDbCircle
 10
-0.5045989023
 20
1.4125
 30
0.0
 40
0.0500000000000008
100
AcDbArc
 50
210.0
 51
270.0
  0
ARC
  5
40F
330
1F
100
AcDbEntity
  8
0
  6
Continuous
 62
     7
370
    25
100
AcDbCircle
 10
-0.4179963619
 20
1.4125
 30
0.0
 40
0.0500000000000009
100
AcDbArc
 50
270.0
 51
330.0
  0
ARC
  5
410
330
1F
100
AcDbEntity
  8
0
  6
Continuous
 62
     7
370
    25
100
AcDbCircle
 10
-0.3746950917
 20
1.4875
 30
0.0
 40
0.0499999999999993
100
AcDbArc
 50
330.0
 51
30.0
  0
ARC
  5
411
330
1F
100
AcDbEntity
  8
0
  6
Continuous
 62
     7
370
    25
100
AcDbCircle
 10
-0.7427558883
 20
1.375
 30
0.0
 40
0.0500000000000003
100
AcDbArc
 50
30.0
 51
90.0
  0
ARC
  5
412
330
1F
100
AcDbEntity
  8
0
  6
Continuous
 62
     7
370
    25
100
AcDbCircle
 10
-0.8293584287
 20
1.375
 30
0.0
 40
0.0500000000000012
100
AcDbArc
 50
90.0
 51
150.0
  0
ARC
  5
413
330
1F
100
AcDbEntity
  8
0
  6
Continuous
 62
     7
370
    25
100
AcDbCircle
 10
-0.8726596989
 20
1.3
 30
0.0
 40
0.0499999999999988
100
AcDbArc
 50
150.0
 51
210.0
  0
ARC
  5
414
330
1F
100
AcDbEntity
  8
0
  6
Continuous
 62
     7
370
    25
100
AcDbCircle
 10
-0.8293584287
 20
1.225
 30
0.0
 40
0.0499999999999998
100
AcDbArc
 50
210.0
 51
270.0
  0
ARC
  5
415
330
1F
100
AcDbEntity
  8
0
  6
Continuous
 62
     7
370
    25
100
AcDbCircle
 10
-0.7427558883
 20
1.225
 30
0.0
 40
0.05
100
AcDbArc
 50
270.0
 51
330.0
  0
ARC
  5
416
330
1F
100
AcDbEntity
  8
0
  6
Continuous
 62
     7
370
    25
100
AcDbCircle
 10
-0.6994546181
 20
1.3
 30
0.0
 40
0.0499999999999989
100
AcDbArc
 50
330.0
 51
30.0
  0
ARC
  5
417
330
1F
100
AcDbEntity
  8
0
  6
Continuous
 62
     7
370
    25
100
AcDbCircle
 10
-0.7427558883
 20
1.75
 30
0.0
 40
0.0499999999999997
100
AcDbArc
 50
30.0
 51
90.0
  0
ARC
  5
418
330
1F
100
AcDbEntity
  8
0
  6
Continuous
 62
     7
370
    25
100
AcDbCircle
 10
-0.8293584287
 20
1.75
 30
0.0
 40
0.0500000000000003
100
AcDbArc
 50
90.0
 51
150.0
  0
ARC
  5
419
330
1F
100
AcDbEntity
  8
0
  6
Continuous
 62
     7
370
    25
100
AcDbCircle
 10
-0.8726596989
 20
1.675
 30
0.0
 40
0.0499999999999995
100
AcDbArc
 50
150.0
 51
210.0
  0
ARC
  5
41A
330
1F
100
AcDbEntity
  8
0
  6
Continuous
 62
     7
370
    25
100
AcDbCircle
 10
-0.8293584287
 20
1.6
 30
0.0
 40
0.0499999999999996
100
AcDbArc
 50
210.0
 51
270.0
  0
ARC
  5
41B
330
1F
100
AcDbEntity
  8
0
  6
Continuous
 62
     7
370
    25
100
AcDbCircle
 10
-0.7427558883
 20
1.6
 30
0.0
 40
0.050000000000001
100
AcDbArc
 50
270.0
 51
330.0
  0
ARC
  5
41C
330
1F
100
AcDbEntity
  8
0
  6
Continuous
 62
     7
370
    25
100
AcDbCircle
 10
-0.6994546181
 20
1.675
 30
0.0
 40
0.0499999999999994
100
AcDbArc
 50
330.0
 51
30.0
  0
ARC
  5
41D
330
1F
100
AcDbEntity
  8
0
  6
Continuous
 62
     7
370
    25
100
AcDbCircle
 10
0.2315226909
 20
1.1875
 30
0.0
 40
0.0500000000000006
100
AcDbArc
 50
30.0
 51
90.0
  0
ARC
  5
41E
330
1F
100
AcDbEntity
  8
0
  6
Continuous
 62
     7
370
    25
100
AcDbCircle
 10
0.1449201506
 20
1.1875
 30
0.0
 40
0.0499999999999994
100
AcDbArc
 50
90.0
 51
150.0
  0
ARC
  5
41F
330
1F
100
AcDbEntity
  8
0
  6
Continuous
 62
     7
370
    25
100
AcDbCircle
 10
0.1016188804
 20
1.1125
 30
0.0
 40
0.0500000000000003
100
AcDbArc
 50
150.0
 51
210.0
  0
ARC
  5
420
330
1F
100
AcDbEntity
  8
0
  6
Continuous
 62
     7
370
    25
100
AcDbCircle
 10
0.1449201506
 20
1.0375
 30
0.0
 40
0.0500000000000003
100
AcDbArc
 50
210.0
 51
270.0
  0
ARC
  5
421
330
1F
100
AcDbEntity
  8
0
  6
Continuous
 62
     7
370
    25
100
AcDbCircle
 10
0.2315226909
 20
1.0375
 30
0.0
 40
0.0500000000000003
100
AcDbArc
 50
270.0
 51
330.0
  0
ARC
  5
422
330
1F
100
AcDbEntity
  8
0
  6
Continuous
 62
     7
370
    25
100
AcDbCircle
 10
0.2748239611
 20
1.1125
 30
0.0
 40
0.0499999999999998
100
AcDbArc
 50
330.0
 51
30.0
  0
ARC
  5
423
330
1F
100
AcDbEntity
  8
0
  6
Continuous
 62
     7
370
    25
100
AcDbCircle
 10
0.5562822174
 20
1.375
 30
0.0
 40
0.0500000000000005
100
AcDbArc
 50
30.0
 51
90.0
  0
ARC
  5
424
330
1F
100
AcDbEntity
  8
0
  6
Continuous
 62
     7
370
    25
100
AcDbCircle
 10
0.469679677
 20
1.375
 30
0.0
 40
0.0500000000000019
100
AcDbArc
 50
90.0
 51
150.0
  0
ARC
  5
425
330
1F
100
AcDbEntity
  8
0
  6
Continuous
 62
     7
370
    25
100
AcDbCircle
 10
0.4263784068
 20
1.3
 30
0.0
 40
0.0499999999999991
100
AcDbArc
 50
150.0
 51
210.0
  0
ARC
  5
426
330
1F
100
AcDbEntity
  8
0
  6
Continuous
 62
     7
370
    25
100
AcDbCircle
 10
0.469679677
 20
1.225
 30
0.0
 40
0.0500000000000003
100
AcDbArc
 50
210.0
 51
270.0
  0
ARC
  5
427
330
1F
100
AcDbEntity
  8
0
  6
Continuous
 62
     7
370
    25
100
AcDbCircle
 10
0.5995834875
 20
1.3
 30
0.0
 40
0.0499999999999989
100
AcDbArc
 50
330.0
 51
30.0
  0
ARC
  5
428
330
1F
100
AcDbEntity
  8
0
  6
Continuous
 62
     7
370
    25
100
AcDbCircle
 10
0.8810417438
 20
1.5625
 30
0.0
 40
0.0500000000000003
100
AcDbArc
 50
30.0
 51
90.0
  0
ARC
  5
429
330
1F
100
AcDbEntity
  8
0
  6
Continuous
 62
     7
370
    25
100
AcDbCircle
 10
0.7944392034
 20
1.5625
 30
0.0
 40
0.0499999999999994
100
AcDbArc
 50
90.0
 51
150.0
  0
ARC
  5
42A
330
1F
100
AcDbEntity
  8
0
  6
Continuous
 62
     7
370
    25
100
AcDbCircle
 10
0.7511379332
 20
1.4875
 30
0.0
 40
0.0499999999999991
100
AcDbArc
 50
150.0
 51
210.0
  0
ARC
  5
42B
330
1F
100
AcDbEntity
  8
0
  6
Continuous
 62
     7
370
    25
100
AcDbCircle
 10
0.7944392034
 20
1.4125
 30
0.0
 40
0.0500000000000003
100
AcDbArc
 50
210.0
 51
270.0
  0
ARC
  5
42C
330
1F
100
AcDbEntity
  8
0
  6
Continuous
 62
     7
370
    25
100
AcDbCircle
 10
0.8810417438
 20
1.4125
 30
0.0
 40
0.0500000000000014
100
AcDbArc
 50
270.0
 51
330.0
  0
ARC
  5
42D
330
1F
100
AcDbEntity
  8
0
  6
Continuous
 62
     7
370
    25
100
AcDbCircle
 10
0.924343014
 20
1.4875
 30
0.0
 40
0.0500000000000004
100
AcDbArc
 50
330.0
 51
30.0
  0
ARC
  5
42E
330
1F
100
AcDbEntity
  8
0
  6
Continuous
 62
     7
370
    25
100
AcDbCircle
 10
0.5562822174
 20
1.0
 30
0.0
 40
0.0500000000000006
100
AcDbArc
 50
30.0
 51
90.0
  0
ARC
  5
42F
330
1F
100
AcDbEntity
  8
0
  6
Continuous
 62
     7
370
    25
100
AcDbCircle
 10
0.469679677
 20
1.0
 30
0.0
 40
0.0500000000000001
100
AcDbArc
 50
90.0
 51
150.0
  0
ARC
  5
430
330
1F
100
AcDbEntity
  8
0
  6
Continuous
 62
     7
370
    25
100
AcDbCircle
 10
0.4263784068
 20
0.925
 30
0.0
 40
0.0499999999999999
100
AcDbArc
 50
150.0
 51
210.0
  0
ARC
  5
431
330
1F
100
AcDbEntity
  8
0
  6
Continuous
 62
     7
370
    25
100
AcDbCircle
 10
0.469679677
 20
0.85
 30
0.0
 40
0.0499999999999997
100
AcDbArc
 50
210.0
 51
270.0
  0
ARC
  5
432
330
1F
100
AcDbEntity
  8
0
  6
Continuous
 62
     7
370
    25
100
AcDbCircle
 10
0.5562822174
 20
0.85
 30
0.0
 40
0.05
100
AcDbArc
 50
270.0
 51
330.0
  0
ARC
  5
433
330
1F
100
AcDbEntity
  8
0
  6
Continuous
 62
     7
370
    25
100
AcDbCircle
 10
0.5995834875
 20
0.925
 30
0.0
 40
0.0499999999999993
100
AcDbArc
 50
330.0
 51
30.0
  0
ARC
  5
434
330
1F
100
AcDbEntity
  8
0
  6
Continuous
 62
     7
370
    25
100
AcDbCircle
 10
-0.0932368355
 20
1.375
 30
0.0
 40
0.0499999999999998
100
AcDbArc
 50
30.0
 51
90.0
  0
ARC
  5
435
330
1F
100
AcDbEntity
  8
0
  6
Continuous
 62
     7
370
    25
100
AcDbCircle
 10
-0.1798393759
 20
1.375
 30
0.0
 40
0.0500000000000016
100
AcDbArc
 50
90.0
 51
150.0
  0
ARC
  5
436
330
1F
100
AcDbEntity
  8
0
  6
Continuous
 62
     7
370
    25
100
AcDbCircle
 10
-0.2231406461
 20
1.3
 30
0.0
 40
0.0499999999999997
100
AcDbArc
 50
150.0
 51
210.0
  0
ARC
  5
437
330
1F
100
AcDbEntity
  8
0
  6
Continuous
 62
     7
370
    25
100
AcDbCircle
 10
-0.1798393759
 20
1.225
 30
0.0
 40
0.0499999999999995
100
AcDbArc
 50
210.0
 51
270.0
  0
ARC
  5
438
330
1F
100
AcDbEntity
  8
0
  6
Continuous
 62
     7
370
    25
100
AcDbCircle
 10
-0.0932368355
 20
1.225
 30
0.0
 40
0.0499999999999998
100
AcDbArc
 50
270.0
 51
330.0
  0
ARC
  5
439
330
1F
100
AcDbEntity
  8
0
  6
Continuous
 62
     7
370
    25
100
AcDbCircle
 10
-0.0499355653
 20
1.3
 30
0.0
 40
0.049999999999999
100
AcDbArc
 50
330.0
 51
30.0
  0
ARC
  5
43A
330
1F
100
AcDbEntity
  8
0
  6
Continuous
 62
     7
370
    25
100
AcDbCircle
 10
0.2315226909
 20
1.5625
 30
0.0
 40
0.0500000000000003
100
AcDbArc
 50
30.0
 51
90.0
  0
ARC
  5
43B
330
1F
100
AcDbEntity
  8
0
  6
Continuous
 62
     7
370
    25
100
AcDbCircle
 10
0.1449201506
 20
1.5625
 30
0.0
 40
0.0500000000000012
100
AcDbArc
 50
90.0
 51
150.0
  0
ARC
  5
43C
330
1F
100
AcDbEntity
  8
0
  6
Continuous
 62
     7
370
    25
100
AcDbCircle
 10
0.1016188804
 20
1.4875
 30
0.0
 40
0.0499999999999995
100
AcDbArc
 50
150.0
 51
210.0
  0
ARC
  5
43D
330
1F
100
AcDbEntity
  8
0
  6
Continuous
 62
     7
370
    25
100
AcDbCircle
 10
0.1449201506
 20
1.4125
 30
0.0
 40
0.0500000000000008
100
AcDbArc
 50
210.0
 51
270.0
  0
ARC
  5
43E
330
1F
100
AcDbEntity
  8
0
  6
Continuous
 62
     7
370
    25
100
AcDbCircle
 10
0.2315226909
 20
1.4125
 30
0.0
 40
0.0500000000000015
100
AcDbArc
 50
270.0
 51
330.0
  0
ARC
  5
43F
330
1F
100
AcDbEntity
  8
0
  6
Continuous
 62
     7
370
    25
100
AcDbCircle
 10
0.2748239611
 20
1.4875
 30
0.0
 40
0.049999999999999
100
AcDbArc
 50
330.0
 51
30.0
  0
ARC
  5
440
330
1F
100
AcDbEntity
  8
0
  6
Continuous
 62
     7
370
    25
100
AcDbCircle
 10
0.5562822174
 20
1.75
 30
0.0
 40
0.0500000000000005
100
AcDbArc
 50
30.0
 51
90.0
  0
ARC
  5
441
330
1F
100
AcDbEntity
  8
0
  6
Continuous
 62
     7
370
    25
100
AcDbCircle
 10
0.469679677
 20
1.75
 30
0.0
 40
0.0500000000000018
100
AcDbArc
 50
90.0
 51
150.0
  0
ARC
  5
442
330
1F
100
AcDbEntity
  8
0
  6
Continuous
 62
     7
370
    25
100
AcDbCircle
 10
0.4263784068
 20
1.675
 30
0.0
 40
0.0500000000000001
100
AcDbArc
 50
150.0
 51
210.0
  0
ARC
  5
443
330
1F
100
AcDbEntity
  8
0
  6
Continuous
 62
     7
370
    25
100
AcDbCircle
 10
0.469679677
 20
1.6
 30
0.0
 40
0.0500000000000001
100
AcDbArc
 50
210.0
 51
270.0
  0
ARC
  5
444
330
1F
100
AcDbEntity
  8
0
  6
Continuous
 62
     7
370
    25
100
AcDbCircle
 10
0.5562822174
 20
1.6
 30
0.0
 40
0.0499999999999998
100
AcDbArc
 50
270.0
 51
330.0
  0
ARC
  5
445
330
1F
100
AcDbEntity
  8
0
  6
Continuous
 62
     7
370
    25
100
AcDbCircle
 10
0.5995834875
 20
1.675
 30
0.0
 40
0.0499999999999987
100
AcDbArc
 50
330.0
 51
30.0
  0
ARC
  5
446
330
1F
100
AcDbEntity
  8
0
  6
Continuous
 62
     7
370
    25
100
AcDbCircle
 10
-0.0932368355
 20
1.0
 30
0.0
 40
0.0499999999999997
100
AcDbArc
 50
30.0
 51
90.0
  0
ARC
  5
447
330
1F
100
AcDbEntity
  8
0
  6
Continuous
 62
     7
370
    25
100
AcDbCircle
 10
-0.1798393759
 20
1.0
 30
0.0
 40
0.0500000000000002
100
AcDbArc
 50
90.0
 51
150.0
  0
ARC
  5
448
330
1F
100
AcDbEntity
  8
0
  6
Continuous
 62
     7
370
    25
100
AcDbCircle
 10
-0.2231406461
 20
0.925
 30
0.0
 40
0.0500000000000004
100
AcDbArc
 50
150.0
 51
210.0
  0
ARC
  5
449
330
1F
100
AcDbEntity
  8
0
  6
Continuous
 62
     7
370
    25
100
AcDbCircle
 10
-0.1798393759
 20
0.85
 30
0.0
 40
0.0499999999999997
100
AcDbArc
 50
210.0
 51
270.0
  0
ARC
  5
44A
330
1F
100
AcDbEntity
  8
0
  6
Continuous
 62
     7
370
    25
100
AcDbCircle
 10
-0.0932368355
 20
0.85
 30
0.0
 40
0.0499999999999997
100
AcDbArc
 50
270.0
 51
330.0
  0
ARC
  5
44B
330
1F
100
AcDbEntity
  8
0
  6
Continuous
 62
     7
370
    25
100
AcDbCircle
 10
-0.0499355653
 20
0.925
 30
0.0
 40
0.0499999999999999
100
AcDbArc
 50
330.0
 51
30.0
  0
ARC
  5
44C
330
1F
100
AcDbEntity
  8
0
  6
Continuous
 62
     7
370
    25
100
AcDbCircle
 10
2.0945
 20
1.3334508497
 30
0.0
 40
0.0250000000000008
100
AcDbArc
 50
180.0
 51
228.1896851042
  0
ARC
  5
44D
330
1F
100
AcDbEntity
  8
0
  6
Continuous
 62
     7
370
    25
100
AcDbCircle
 10
2.0945
 20
1.6665491503
 30
0.0
 40
0.0250000000000008
100
AcDbArc
 50
131.8103148958
 51
180.0
  0
ARC
  5
44E
330
1F
100
AcDbEntity
  8
0
  6
Continuous
 62
     7
370
    25
100
AcDbCircle
 10
2.0695
 20
1.6945
 30
0.0
 40
0.0125000000000004
100
AcDbArc
 50
311.8103148958
 51
138.1896851042
  0
ARC
  5
44F
330
1F
100
AcDbEntity
  8
0
  6
Continuous
 62
     7
370
    25
100
AcDbCircle
 10
2.0415491503
 20
1.7195
 30
0.0
 40
0.0250000000000006
100
AcDbArc
 50
270.0
 51
318.1896851042
  0
ARC
  5
450
330
1F
100
AcDbEntity
  8
0
  6
Continuous
 62
     7
370
    25
100
AcDbCircle
 10
1.7084508497
 20
1.7195
 30
0.0
 40
0.0250000000000004
100
AcDbArc
 50
221.8103148958
 51
270.0
  0
ARC
  5
451
330
1F
100
AcDbEntity
  8
0
  6
Continuous
 62
     7
370
    25
100
AcDbCircle
 10
1.6805
 20
1.6945
 30
0.0
 40
0.0125000000000005
100
AcDbArc
 50
41.8103148958
 51
228.1896851042
  0
ARC
  5
452
330
1F
100
AcDbEntity
  8
0
  6
Continuous
 62
     7
370
    25
100
AcDbCircle
 10
1.6555
 20
1.6665491503
 30
0.0
 40
0.0250000000000013
100
AcDbArc
 50
0.0
 51
48.1896851042
  0
ARC
  5
453
330
1F
100
AcDbEntity
  8
0
  6
Continuous
 62
     7
370
    25
100
AcDbCircle
 10
1.6555
 20
1.3334508497
 30
0.0
 40
0.0250000000000002
100
AcDbArc
 50
311.8103148958
 51
0.0
  0
ARC
  5
454
330
1F
100
AcDbEntity
  8
0
  6
Continuous
 62
     7
370
    25
100
AcDbCircle
 10
1.6805
 20
1.3055
 30
0.0
 40
0.0125000000000001
100
AcDbArc
 50
131.8103148958
 51
318.1896851042
  0
ARC
  5
455
330
1F
100
AcDbEntity
  8
0
  6
Continuous
 62
     7
370
    25
100
AcDbCircle
 10
1.7084508497
 20
1.2805
 30
0.0
 40
0.0250000000000019
100
AcDbArc
 50
90.0
 51
138.1896851042
  0
ARC
  5
456
330
1F
100
AcDbEntity
  8
0
  6
Continuous
 62
     7
370
    25
100
AcDbCircle
 10
2.0415491503
 20
1.2805
 30
0.0
 40
0.0250000000000008
100
AcDbArc
 50
41.8103148958
 51
90.0
  0
ARC
  5
457
330
1F
100
AcDbEntity
  8
0
  6
Continuous
 62
     7
370
    25
100
AcDbCircle
 10
2.0695
 20
1.3055
 30
0.0
 40
0.0125000000000001
100
AcDbArc
 50
221.8103148958
 51
48.1896851042
  0
ARC
  5
458
330
1F
100
AcDbEntity
  8
0
  6
Continuous
 62
     7
370
    25
100
AcDbCircle
 10
-1.4165491503
 20
1.2805
 30
0.0
 40
0.0250000000000028
100
AcDbArc
 50
90.0
 51
138.1896851042
  0
ARC
  5
459
330
1F
100
AcDbEntity
  8
0
  6
Continuous
 62
     7
370
    25
100
AcDbCircle
 10
-1.0834508497
 20
1.2805
 30
0.0
 40
0.0250000000000006
100
AcDbArc
 50
41.8103148958
 51
90.0
  0
ARC
  5
45A
330
1F
100
AcDbEntity
  8
0
  6
Continuous
 62
     7
370
    25
100
AcDbCircle
 10
-1.0555
 20
1.3055
 30
0.0
 40
0.0125000000000001
100
AcDbArc
 50
221.8103148958
 51
48.1896851042
  0
ARC
  5
45B
330
1F
100
AcDbEntity
  8
0
  6
Continuous
 62
     7
370
    25
100
AcDbCircle
 10
-1.0305
 20
1.3334508497
 30
0.0
 40
0.0250000000000006
100
AcDbArc
 50
180.0
 51
228.1896851042
  0
ARC
  5
45C
330
1F
100
AcDbEntity
  8
0
  6
Continuous
 62
     7
370
    25
100
AcDbCircle
 10
-1.0305
 20
1.6665491503
 30
0.0
 40
0.025000000000001
100
AcDbArc
 50
131.8103148958
 51
180.0
  0
ARC
  5
45D
330
1F
100
AcDbEntity
  8
0
  6
Continuous
 62
     7
370
    25
100
AcDbCircle
 10
-1.0555
 20
1.6945
 30
0.0
 40
0.0125
100
AcDbArc
 50
311.8103148958
 51
138.1896851042
  0
ARC
  5
45E
330
1F
100
AcDbEntity
  8
0
  6
Continuous
 62
     7
370
    25
100
AcDbCircle
 10
-1.0834508497
 20
1.7195
 30
0.0
 40
0.025000000000001
100
AcDbArc
 50
270.0
 51
318.1896851042
  0
ARC
  5
45F
330
1F
100
AcDbEntity
  8
0
  6
Continuous
 62
     7
370
    25
100
AcDbCircle
 10
-1.4165491503
 20
1.7195
 30
0.0
 40
0.0250000000000008
100
AcDbArc
 50
221.8103148958
 51
270.0
  0
ARC
  5
460
330
1F
100
AcDbEntity
  8
0
  6
Continuous
 62
     7
370
    25
100
AcDbCircle
 10
-1.4445
 20
1.6945
 30
0.0
 40
0.0125000000000001
100
AcDbArc
 50
41.8103148958
 51
228.1896851042
  0
ARC
  5
461
330
1F
100
AcDbEntity
  8
0
  6
Continuous
 62
     7
370
    25
100
AcDbCircle
 10
-1.4695
 20
1.6665491503
 30
0.0
 40
0.0250000000000028
100
AcDbArc
 50
0.0
 51
48.1896851042
  0
ARC
  5
462
330
1F
100
AcDbEntity
  8
0
  6
Continuous
 62
     7
370
    25
100
AcDbCircle
 10
-1.4695
 20
1.3334508497
 30
0.0
 40
0.025000000000002
100
AcDbArc
 50
311.8103148958
 51
0.0
  0
ARC
  5
463
330
1F
100
AcDbEntity
  8
0
  6
Continuous
 62
     7
370
    25
100
AcDbCircle
 10
-1.4445
 20
1.3055
 30
0.0
 40
0.0125000000000001
100
AcDbArc
 50
131.8103148958
 51
318.1896851042
  0
ARC
  5
464
330
1F
100
AcDbEntity
  8
0
  6
Continuous
 62
     7
370
    25
100
AcDbCircle
 10
0.5562822174
 20
1.225
 30
0.0
 40
0.0500000000000003
100
AcDbArc
 50
270.0
 51
330.0
  0
MTEXT
  5
466
330
1F
100
AcDbEntity
  8
0
  6
Continuous
 62
     7
100
AcDbMText
 10
-3.9375
 20
0.3348595909
 30
0.0
 40
0.1903
 41
0.0
 71
     1
 72
     1
  1
SOLIDWORKS Educational Product.
  7
SLDTEXTSTYLE0
 73
     1
 44
1.0
  0
MTEXT
  5
467
330
1F
100
AcDbEntity
  8
0
  6
Continuous
 62
     7
100
AcDbMText
 10
-3.9375
 20
0.0494095909
 30
0.0
 40
0.1903
 41
0.0
 71
     1
 72
     1
  1
For Instructional Use Only.
  7
SLDTEXTSTYLE0
 73
     1
 44
1.0
  0
ENDSEC
  0
SECTION
  2
OBJECTS
  0
DICTIONARY
  5
C
330
0
100
AcDbDictionary
281
     1
  3
ACAD_GROUP
350
D
  3
ACAD_LAYOUT
350
1A
  3
ACAD_MLINESTYLE
350
17
  3
ACAD_PLOTSETTINGS
350
19
  3
ACAD_PLOTSTYLENAME
350
E
  3
ACAD_SCALELIST
350
47
  3
DWGPROPS
350
468
  0
DICTIONARY
  5
D
102
{ACAD_REACTORS
330
C
102
}
330
C
100
AcDbDictionary
281
     1
  0
DICTIONARY
  5
1A
102
{ACAD_REACTORS
330
C
102
}
330
C
100
AcDbDictionary
281
     1
  3
Layout1
350
1E
  3
Layout2
350
26
  3
Model
350
22
  0
DICTIONARY
  5
17
102
{ACAD_REACTORS
330
C
102
}
330
C
100
AcDbDictionary
281
     1
  3
Standard
350
18
  0
DICTIONARY
  5
19
102
{ACAD_REACTORS
330
C
102
}
330
C
100
AcDbDictionary
281
     1
  0
ACDBDICTIONARYWDFLT
  5
E
102
{ACAD_REACTORS
330
C
102
}
330
C
100
AcDbDictionary
281
     1
  3
Normal
350
F
100
AcDbDictionaryWithDefault
340
F
  0
DICTIONARY
  5
47
102
{ACAD_REACTORS
330
C
102
}
330
C
100
AcDbDictionary
281
     1
  3
A0
350
48
  3
A1
350
49
  3
A2
350
4A
  3
A3
350
4B
  3
A4
350
4C
  3
A5
350
4D
  3
A6
350
4E
  3
A7
350
4F
  3
A8
350
50
  3
A9
350
51
  3
B1
350
52
  3
B2
350
53
  3
B3
350
54
  3
B4
350
55
  3
B5
350
56
  3
B6
350
57
  3
B7
350
58
  0
XRECORD
  5
468
102
{ACAD_REACTORS
330
C
102
}
330
C
100
AcDbXrecord
280
     1
  1
DWGPROPS COOKIE
  2

  3

  4

  6

  7

  8
lzk91
  9

300
=
301
=
302
=
303
=
304
=
305
=
306
=
307
=
308
=
309
=
 40
0.0
 41
2460302.158284456
 42
2460302.158311783
  1

 90
        0
  0
LAYOUT
  5
1E
102
{ACAD_REACTORS
330
1A
102
}
330
1A
100
AcDbPlotSettings
  1

  2
none_device
  4

  6

 40
0.0
 41
0.0
 42
0.0
 43
0.0
 44
0.0
 45
0.0
 46
0.0
 47
0.0
 48
0.0
 49
0.0
140
0.0
141
0.0
142
1.0
143
1.0
 70
   688
 72
     0
 73
     0
 74
     5
  7

 75
    16
147
1.0
148
0.0
149
0.0
100
AcDbLayout
  1
Layout1
 70
     1
 71
     1
 10
0.0
 20
0.0
 11
12.0
 21
9.0
 12
0.0
 22
0.0
 32
0.0
 14
1.0000000000E+20
 24
1.0000000000E+20
 34
1.0000000000E+20
 15
-1.0000000000E+20
 25
-1.0000000000E+20
 35
-1.0000000000E+20
146
0.0
 13
0.0
 23
0.0
 33
0.0
 16
1.0
 26
0.0
 36
0.0
 17
0.0
 27
1.0
 37
0.0
 76
     0
330
1B
  0
LAYOUT
  5
26
102
{ACAD_REACTORS
330
1A
102
}
330
1A
100
AcDbPlotSettings
  1

  2
none_device
  4

  6

 40
0.0
 41
0.0
 42
0.0
 43
0.0
 44
0.0
 45
0.0
 46
0.0
 47
0.0
 48
0.0
 49
0.0
140
0.0
141
0.0
142
1.0
143
1.0
 70
   688
 72
     0
 73
     0
 74
     5
  7

 75
    16
147
1.0
148
0.0
149
0.0
100
AcDbLayout
  1
Layout2
 70
     1
 71
     2
 10
0.0
 20
0.0
 11
0.0
 21
0.0
 12
0.0
 22
0.0
 32
0.0
 14
0.0
 24
0.0
 34
0.0
 15
0.0
 25
0.0
 35
0.0
146
0.0
 13
0.0
 23
0.0
 33
0.0
 16
1.0
 26
0.0
 36
0.0
 17
0.0
 27
1.0
 37
0.0
 76
     0
330
23
  0
LAYOUT
  5
22
102
{ACAD_REACTORS
330
1A
102
}
330
1A
100
AcDbPlotSettings
  1

  2
none_device
  4
ANSI_A_(11.00_x_8.50_Inches)
  6

 40
6.35
 41
19.05
 42
6.35000508
 43
19.05000254
 44
279.4
 45
215.9
 46
133.34999746
 47
42.79899873
 48
0.0
 49
0.0
140
0.0
141
0.0
142
1.3828571429
143
1.0
 70
  1696
 72
     0
 73
     0
 74
     0
  7

 75
     0
147
0.5913241897
148
-39.4088153714
149
0.0
100
AcDbLayout
  1
Model
 70
     1
 71
     0
 10
0.0
 20
0.0
 11
12.0
 21
9.0
 12
0.0
 22
0.0
 32
0.0
 14
-3.9375
 24
0.375
 34
0.0
 15
3.9375
 25
2.25
 35
0.0
146
0.0
 13
0.0
 23
0.0
 33
0.0
 16
1.0
 26
0.0
 36
0.0
 17
0.0
 27
1.0
 37
0.0
 76
     0
330
1F
331
29
  0
MLINESTYLE
  5
18
102
{ACAD_REACTORS
330
17
102
}
330
17
100
AcDbMlineStyle
  2
Standard
 70
     0
  3

 62
   256
 51
90.0
 52
90.0
 71
     2
 49
0.5
 62
   256
  6
BYLAYER
 49
-0.5
 62
   256
  6
BYLAYER
  0
ACDBPLACEHOLDER
  5
F
102
{ACAD_REACTORS
330
E
102
}
330
E
  0
SCALE
  5
48
102
{ACAD_REACTORS
330
47
102
}
330
47
100
AcDbScale
 70
     0
300
1:1
140
1.0
141
1.0
290
     1
  0
SCALE
  5
49
102
{ACAD_REACTORS
330
47
102
}
330
47
100
AcDbScale
 70
     0
300
1/128" = 1'-0"
140
0.0078125
141
12.0
290
     0
  0
SCALE
  5
4A
102
{ACAD_REACTORS
330
47
102
}
330
47
100
AcDbScale
 70
     0
300
1/64" = 1'-0"
140
0.015625
141
12.0
290
     0
  0
SCALE
  5
4B
102
{ACAD_REACTORS
330
47
102
}
330
47
100
AcDbScale
 70
     0
300
1/32" = 1'-0"
140
0.03125
141
12.0
290
     0
  0
SCALE
  5
4C
102
{ACAD_REACTORS
330
47
102
}
330
47
100
AcDbScale
 70
     0
300
1/16" = 1'-0"
140
0.0625
141
12.0
290
     0
  0
SCALE
  5
4D
102
{ACAD_REACTORS
330
47
102
}
330
47
100
AcDbScale
 70
     0
300
3/32" = 1'-0"
140
0.09375
141
12.0
290
     0
  0
SCALE
  5
4E
102
{ACAD_REACTORS
330
47
102
}
330
47
100
AcDbScale
 70
     0
300
1/8" = 1'-0"
140
0.125
141
12.0
290
     0
  0
SCALE
  5
4F
102
{ACAD_REACTORS
330
47
102
}
330
47
100
AcDbScale
 70
     0
300
3/16" = 1'-0"
140
0.1875
141
12.0
290
     0
  0
SCALE
  5
50
102
{ACAD_REACTORS
330
47
102
}
330
47
100
AcDbScale
 70
     0
300
1/4" = 1'-0"
140
0.25
141
12.0
290
     0
  0
SCALE
  5
51
102
{ACAD_REACTORS
330
47
102
}
330
47
100
AcDbScale
 70
     0
300
3/8" = 1'-0"
140
0.375
141
12.0
290
     0
  0
SCALE
  5
52
102
{ACAD_REACTORS
330
47
102
}
330
47
100
AcDbScale
 70
     0
300
1/2" = 1'-0"
140
0.5
141
12.0
290
     0
  0
SCALE
  5
53
102
{ACAD_REACTORS
330
47
102
}
330
47
100
AcDbScale
 70
     0
300
3/4" = 1'-0"
140
0.75
141
12.0
290
     0
  0
SCALE
  5
54
102
{ACAD_REACTORS
330
47
102
}
330
47
100
AcDbScale
 70
     0
300
1" = 1'-0"
140
1.0
141
12.0
290
     0
  0
SCALE
  5
55
102
{ACAD_REACTORS
330
47
102
}
330
47
100
AcDbScale
 70
     0
300
1-1/2" = 1'-0"
140
1.5
141
12.0
290
     0
  0
SCALE
  5
56
102
{ACAD_REACTORS
330
47
102
}
330
47
100
AcDbScale
 70
     0
300
3" = 1'-0"
140
3.0
141
12.0
290
     0
  0
SCALE
  5
57
102
{ACAD_REACTORS
330
47
102
}
330
47
100
AcDbScale
 70
     0
300
6" = 1'-0"
140
6.0
141
12.0
290
     0
  0
SCALE
  5
58
102
{ACAD_REACTORS
330
47
102
}
330
47
100
AcDbScale
 70
     0
300
1'-0" = 1'-0"
140
12.0
141
12.0
290
     0
  0
ENDSEC
  0
EOF
