  0
SECTION
  2
HEADER
  9
$ACADVER
  1
AC1015
  9
$ACADMAINTVER
 70
     6
  9
$DWGCODEPAGE
  3
ANSI_1252
  9
$INSBASE
 10
0.0
 20
0.0
 30
0.0
  9
$EXTMIN
 10
-1.2748162028
 20
-1.275
 30
0.0
  9
$EXTMAX
 10
1.2748162028
 20
1.2734673605
 30
0.0
  9
$LIMMIN
 10
0.0
 20
0.0
  9
$LIMMAX
 10
12.0
 20
9.0
  9
$ORTHOMODE
 70
     0
  9
$REGENMODE
 70
     1
  9
$FILLMODE
 70
     1
  9
$QTEXTMODE
 70
     0
  9
$MIRRTEXT
 70
     1
  9
$LTSCALE
 40
1.0
  9
$ATTMODE
 70
     1
  9
$TEXTSIZE
 40
0.125
  9
$TRACEWID
 40
0.05
  9
$TEXTSTYLE
  7
Standard
  9
$CLAYER
  8
0
  9
$CELTYPE
  6
ByLayer
  9
$CECOLOR
 62
   256
  9
$CELTSCALE
 40
1.0
  9
$DISPSILH
 70
     0
  9
$DIMSCALE
 40
1.0
  9
$DIMASZ
 40
0.13
  9
$DIMEXO
 40
0.0
  9
$DIMDLI
 40
0.38
  9
$DIMRND
 40
0.0
  9
$DIMDLE
 40
0.0
  9
$DIMEXE
 40
0.125
  9
$DIMTP
 40
0.0
  9
$DIMTM
 40
0.0
  9
$DIMTXT
 40
0.125
  9
$DIMCEN
 40
0.09
  9
$DIMTSZ
 40
0.0
  9
$DIMTOL
 70
     0
  9
$DIMLIM
 70
     0
  9
$DIMTIH
 70
     1
  9
$DIMTOH
 70
     1
  9
$DIMSE1
 70
     0
  9
$DIMSE2
 70
     0
  9
$DIMTAD
 70
     0
  9
$DIMZIN
 70
     0
  9
$DIMBLK
  1

  9
$DIMASO
 70
     1
  9
$DIMSHO
 70
     1
  9
$DIMPOST
  1

  9
$DIMAPOST
  1

  9
$DIMALT
 70
     0
  9
$DIMALTD
 70
     2
  9
$DIMALTF
 40
25.4
  9
$DIMLFAC
 40
1.0
  9
$DIMTOFL
 70
     0
  9
$DIMTVP
 40
0.0
  9
$DIMTIX
 70
     0
  9
$DIMSOXD
 70
     0
  9
$DIMSAH
 70
     0
  9
$DIMBLK1
  1

  9
$DIMBLK2
  1

  9
$DIMSTYLE
  2
Standard
  9
$DIMCLRD
 70
     0
  9
$DIMCLRE
 70
     0
  9
$DIMCLRT
 70
     0
  9
$DIMTFAC
 40
1.0
  9
$DIMGAP
 40
0.06
  9
$DIMJUST
 70
     0
  9
$DIMSD1
 70
     0
  9
$DIMSD2
 70
     0
  9
$DIMTOLJ
 70
     1
  9
$DIMTZIN
 70
     0
  9
$DIMALTZ
 70
     0
  9
$DIMALTTZ
 70
     0
  9
$DIMUPT
 70
     0
  9
$DIMDEC
 70
     3
  9
$DIMTDEC
 70
     3
  9
$DIMALTU
 70
     2
  9
$DIMALTTD
 70
     2
  9
$DIMTXSTY
  7
Standard
  9
$DIMAUNIT
 70
     0
  9
$DIMADEC
 70
     2
  9
$DIMALTRND
 40
0.0
  9
$DIMAZIN
 70
     0
  9
$DIMDSEP
 70
    46
  9
$DIMATFIT
 70
     3
  9
$DIMFRAC
 70
     0
  9
$DIMLDRBLK
  1

  9
$DIMLUNIT
 70
     2
  9
$DIMLWD
 70
    -2
  9
$DIMLWE
 70
    -2
  9
$DIMTMOVE
 70
     0
  9
$LUNITS
 70
     2
  9
$LUPREC
 70
     3
  9
$SKETCHINC
 40
0.1
  9
$FILLETRAD
 40
0.5
  9
$AUNITS
 70
     0
  9
$AUPREC
 70
     2
  9
$MENU
  1
.
  9
$ELEVATION
 40
0.0
  9
$PELEVATION
 40
0.0
  9
$THICKNESS
 40
0.0
  9
$LIMCHECK
 70
     0
  9
$CHAMFERA
 40
0.0
  9
$CHAMFERB
 40
0.0
  9
$CHAMFERC
 40
0.0
  9
$CHAMFERD
 40
0.0
  9
$SKPOLY
 70
     0
  9
$TDCREATE
 40
2460085.920786574
  9
$TDUCREATE
 40
2460086.087453241
  9
$TDUPDATE
 40
2460085.920827026
  9
$TDUUPDATE
 40
2460086.087493692
  9
$TDINDWG
 40
0.0000000116
  9
$TDUSRTIMER
 40
0.0000000116
  9
$USRTIMER
 70
     1
  9
$ANGBASE
 50
0.0
  9
$ANGDIR
 70
     0
  9
$PDMODE
 70
     0
  9
$PDSIZE
 40
-1.0
  9
$PLINEWID
 40
0.0
  9
$SPLFRAME
 70
     0
  9
$SPLINETYPE
 70
     6
  9
$SPLINESEGS
 70
     8
  9
$HANDSEED
  5
3AB
  9
$SURFTAB1
 70
     6
  9
$SURFTAB2
 70
     6
  9
$SURFTYPE
 70
     6
  9
$SURFU
 70
     6
  9
$SURFV
 70
     6
  9
$UCSBASE
  2

  9
$UCSNAME
  2

  9
$UCSORG
 10
0.0
 20
0.0
 30
0.0
  9
$UCSXDIR
 10
1.0
 20
0.0
 30
0.0
  9
$UCSYDIR
 10
0.0
 20
1.0
 30
0.0
  9
$UCSORTHOREF
  2

  9
$UCSORTHOVIEW
 70
     0
  9
$UCSORGTOP
 10
0.0
 20
0.0
 30
0.0
  9
$UCSORGBOTTOM
 10
0.0
 20
0.0
 30
0.0
  9
$UCSORGLEFT
 10
0.0
 20
0.0
 30
0.0
  9
$UCSORGRIGHT
 10
0.0
 20
0.0
 30
0.0
  9
$UCSORGFRONT
 10
0.0
 20
0.0
 30
0.0
  9
$UCSORGBACK
 10
0.0
 20
0.0
 30
0.0
  9
$PUCSBASE
  2

  9
$PUCSNAME
  2

  9
$PUCSORG
 10
0.0
 20
0.0
 30
0.0
  9
$PUCSXDIR
 10
1.0
 20
0.0
 30
0.0
  9
$PUCSYDIR
 10
0.0
 20
1.0
 30
0.0
  9
$PUCSORTHOREF
  2

  9
$PUCSORTHOVIEW
 70
     0
  9
$PUCSORGTOP
 10
0.0
 20
0.0
 30
0.0
  9
$PUCSORGBOTTOM
 10
0.0
 20
0.0
 30
0.0
  9
$PUCSORGLEFT
 10
0.0
 20
0.0
 30
0.0
  9
$PUCSORGRIGHT
 10
0.0
 20
0.0
 30
0.0
  9
$PUCSORGFRONT
 10
0.0
 20
0.0
 30
0.0
  9
$PUCSORGBACK
 10
0.0
 20
0.0
 30
0.0
  9
$USERI1
 70
     0
  9
$USERI2
 70
     0
  9
$USERI3
 70
     0
  9
$USERI4
 70
     0
  9
$USERI5
 70
     0
  9
$USERR1
 40
0.0
  9
$USERR2
 40
0.0
  9
$USERR3
 40
0.0
  9
$USERR4
 40
0.0
  9
$USERR5
 40
0.0
  9
$WORLDVIEW
 70
     1
  9
$SHADEDGE
 70
     3
  9
$SHADEDIF
 70
    70
  9
$TILEMODE
 70
     1
  9
$MAXACTVP
 70
    64
  9
$PINSBASE
 10
0.0
 20
0.0
 30
0.0
  9
$PLIMCHECK
 70
     0
  9
$PEXTMIN
 10
1.0000000000E+20
 20
1.0000000000E+20
 30
1.0000000000E+20
  9
$PEXTMAX
 10
-1.0000000000E+20
 20
-1.0000000000E+20
 30
-1.0000000000E+20
  9
$PLIMMIN
 10
0.0
 20
0.0
  9
$PLIMMAX
 10
12.0
 20
9.0
  9
$UNITMODE
 70
     0
  9
$VISRETAIN
 70
     1
  9
$PLINEGEN
 70
     0
  9
$PSLTSCALE
 70
     1
  9
$TREEDEPTH
 70
  3020
  9
$CMLSTYLE
  2
Standard
  9
$CMLJUST
 70
     0
  9
$CMLSCALE
 40
1.0
  9
$PROXYGRAPHICS
 70
     1
  9
$MEASUREMENT
 70
     0
  9
$CELWEIGHT
370
    -1
  9
$ENDCAPS
280
     0
  9
$JOINSTYLE
280
     0
  9
$LWDISPLAY
290
     1
  9
$INSUNITS
 70
     1
  9
$HYPERLINKBASE
  1

  9
$STYLESHEET
  1

  9
$XEDIT
290
     1
  9
$CEPSNTYPE
380
     0
  9
$PSTYLEMODE
290
     1
  9
$FINGERPRINTGUID
  2
{6cc9606c-c44c-4998-bd68-0f40efb53c1c}
  9
$VERSIONGUID
  2
{FAEB1C32-E019-11D5-929B-00C0DF256EC4}
  9
$EXTNAMES
290
     1
  9
$PSVPSCALE
 40
0.0
  9
$OLESTARTUP
290
     0
  0
ENDSEC
  0
SECTION
  2
CLASSES
  0
CLASS
  1
ACDBDICTIONARYWDFLT
  2
AcDbDictionaryWithDefault
  3
ObjectDBX Classes
 90
        0
280
     0
281
     0
  0
CLASS
  1
VISUALSTYLE
  2
AcDbVisualStyle
  3
ObjectDBX Classes
 90
     4095
280
     0
281
     0
  0
CLASS
  1
MATERIAL
  2
AcDbMaterial
  3
ObjectDBX Classes
 90
     1153
280
     0
281
     0
  0
CLASS
  1
SCALE
  2
AcDbScale
  3
ObjectDBX Classes
 90
     1153
280
     0
281
     0
  0
CLASS
  1
TABLESTYLE
  2
AcDbTableStyle
  3
ObjectDBX Classes
 90
     4095
280
     0
281
     0
  0
CLASS
  1
MLEADERSTYLE
  2
AcDbMLeaderStyle
  3
ACDB_MLEADERSTYLE_CLASS
 90
     4095
280
     0
281
     0
  0
CLASS
  1
SUN
  2
AcDbSun
  3
SCENEOE
 90
     1153
280
     0
281
     0
  0
CLASS
  1
ACDBPLACEHOLDER
  2
AcDbPlaceHolder
  3
ObjectDBX Classes
 90
        0
280
     0
281
     0
  0
CLASS
  1
LAYOUT
  2
AcDbLayout
  3
ObjectDBX Classes
 90
        0
280
     0
281
     0
  0
ENDSEC
  0
SECTION
  2
TABLES
  0
TABLE
  2
VPORT
  5
8
330
0
100
AcDbSymbolTable
 70
     1
  0
VPORT
  5
29
330
8
100
AcDbSymbolTableRecord
100
AcDbViewportTableRecord
  2
*Active
 70
     0
 10
0.0
 20
0.0
 11
1.0
 21
1.0
 12
0.0
 22
-0.0007663198
 13
0.0
 23
0.0
 14
0.5
 24
0.5
 15
0.5
 25
0.5
 16
0.0
 26
0.0
 36
1.0
 17
0.0
 27
0.0
 37
0.0
 40
2.5994367077
 41
1.0004571552
 42
50.0
 43
0.0
 44
0.0
 50
0.0
 51
0.0
 71
     0
 72
   100
 73
     1
 74
     3
 75
     0
 76
     0
 77
     0
 78
     0
281
     0
 65
     1
110
0.0
120
0.0
130
0.0
111
1.0
121
0.0
131
0.0
112
0.0
122
1.0
132
0.0
 79
     0
146
0.0
  0
ENDTAB
  0
TABLE
  2
LTYPE
  5
5
330
0
100
AcDbSymbolTable
 70
     6
  0
LTYPE
  5
14
330
5
100
AcDbSymbolTableRecord
100
AcDbLinetypeTableRecord
  2
ByBlock
 70
     0
  3

 72
    65
 73
     0
 40
0.0
  0
LTYPE
  5
15
330
5
100
AcDbSymbolTableRecord
100
AcDbLinetypeTableRecord
  2
ByLayer
 70
     0
  3

 72
    65
 73
     0
 40
0.0
  0
LTYPE
  5
16
330
5
100
AcDbSymbolTableRecord
100
AcDbLinetypeTableRecord
  2
Continuous
 70
     0
  3
Solid line
 72
    65
 73
     0
 40
0.0
  0
LTYPE
  5
6E
330
5
100
AcDbSymbolTableRecord
100
AcDbLinetypeTableRecord
  2
HIDDEN
 70
     0
  3
Hidden __ __ __ __ __ __ __ __ __ __ __ __ __ __
 72
    65
 73
     2
 40
0.075
 49
0.05
 74
     0
 49
-0.025
 74
     0
  0
LTYPE
  5
6F
330
5
100
AcDbSymbolTableRecord
100
AcDbLinetypeTableRecord
  2
PHANTOM
 70
     0
  3
Phantom ______  __  __  ______  __  __  ______
 72
    65
 73
     6
 40
0.5
 49
0.25
 74
     0
 49
-0.05
 74
     0
 49
0.05
 74
     0
 49
-0.05
 74
     0
 49
0.05
 74
     0
 49
-0.05
 74
     0
  0
LTYPE
  5
70
330
5
100
AcDbSymbolTableRecord
100
AcDbLinetypeTableRecord
  2
CENTER
 70
     0
  3
Center ____ _ ____ _ ____ _ ____ _ ____ _ ____
 72
    65
 73
     4
 40
0.4
 49
0.25
 74
     0
 49
-0.05
 74
     0
 49
0.05
 74
     0
 49
-0.05
 74
     0
  0
LTYPE
  5
71
330
5
100
AcDbSymbolTableRecord
100
AcDbLinetypeTableRecord
  2
CENTERX2
 70
     0
  3
Center (2x) ________  __  ________  __  _____
 72
    65
 73
     4
 40
0.8
 49
0.5
 74
     0
 49
-0.1
 74
     0
 49
0.1
 74
     0
 49
-0.1
 74
     0
  0
LTYPE
  5
72
330
5
100
AcDbSymbolTableRecord
100
AcDbLinetypeTableRecord
  2
DOT2
 70
     0
  3
Dot (.5x) ........................................
 72
    65
 73
     2
 40
0.025
 49
0.0
 74
     0
 49
-0.025
 74
     0
  0
ENDTAB
  0
TABLE
  2
LAYER
  5
2
330
0
100
AcDbSymbolTable
 70
     1
  0
LAYER
  5
10
330
2
100
AcDbSymbolTableRecord
100
AcDbLayerTableRecord
  2
0
 70
     0
 62
     7
  6
Continuous
370
    -3
390
F
  0
ENDTAB
  0
TABLE
  2
STYLE
  5
3
330
0
100
AcDbSymbolTable
 70
     2
  0
STYLE
  5
11
330
3
100
AcDbSymbolTableRecord
100
AcDbTextStyleTableRecord
  2
Standard
 70
     0
 40
0.0
 41
1.0
 50
0.0
 71
     0
 42
0.125
  3
txt
  4

  0
STYLE
  5
3A7
330
3
100
AcDbSymbolTableRecord
100
AcDbTextStyleTableRecord
  2
SLDTEXTSTYLE0
 70
     0
 40
0.0
 41
0.7
 50
0.0
 71
     0
 42
0.125
  3
TXT
  4

  0
ENDTAB
  0
TABLE
  2
VIEW
  5
6
330
0
100
AcDbSymbolTable
 70
     0
  0
ENDTAB
  0
TABLE
  2
UCS
  5
7
330
0
100
AcDbSymbolTable
 70
     0
  0
ENDTAB
  0
TABLE
  2
APPID
  5
9
330
0
100
AcDbSymbolTable
 70
     1
  0
APPID
  5
12
330
9
100
AcDbSymbolTableRecord
100
AcDbRegAppTableRecord
  2
ACAD
 70
     0
  0
ENDTAB
  0
TABLE
  2
DIMSTYLE
  5
A
330
0
100
AcDbSymbolTable
 70
     1
100
AcDbDimStyleTable
  0
DIMSTYLE
105
27
330
A
100
AcDbSymbolTableRecord
100
AcDbDimStyleTableRecord
  2
Standard
 70
     0
178
     0
340
11
  0
ENDTAB
  0
TABLE
  2
BLOCK_RECORD
  5
1
330
0
100
AcDbSymbolTable
 70
     1
  0
BLOCK_RECORD
  5
1F
330
1
100
AcDbSymbolTableRecord
100
AcDbBlockTableRecord
  2
*Model_Space
340
22
  0
BLOCK_RECORD
  5
1B
330
1
100
AcDbSymbolTableRecord
100
AcDbBlockTableRecord
  2
*Paper_Space
340
1E
  0
BLOCK_RECORD
  5
23
330
1
100
AcDbSymbolTableRecord
100
AcDbBlockTableRecord
  2
*Paper_Space0
340
26
  0
ENDTAB
  0
ENDSEC
  0
SECTION
  2
BLOCKS
  0
BLOCK
  5
20
330
1F
100
AcDbEntity
  8
0
100
AcDbBlockBegin
  2
*Model_Space
 70
     0
 10
0.0
 20
0.0
 30
0.0
  3
*Model_Space
  1

  0
ENDBLK
  5
21
330
1F
100
AcDbEntity
  8
0
100
AcDbBlockEnd
  0
BLOCK
  5
1C
330
1B
100
AcDbEntity
 67
     1
  8
0
100
AcDbBlockBegin
  2
*Paper_Space
 70
     0
 10
0.0
 20
0.0
 30
0.0
  3
*Paper_Space
  1

  0
ENDBLK
  5
1D
330
1B
100
AcDbEntity
 67
     1
  8
0
100
AcDbBlockEnd
  0
BLOCK
  5
24
330
23
100
AcDbEntity
  8
0
100
AcDbBlockBegin
  2
*Paper_Space0
 70
     0
 10
0.0
 20
0.0
 30
0.0
  3
*Paper_Space0
  1

  0
ENDBLK
  5
25
330
23
100
AcDbEntity
  8
0
100
AcDbBlockEnd
  0
ENDSEC
  0
SECTION
  2
ENTITIES
  0
CIRCLE
  5
20B
330
1F
100
AcDbEntity
  8
0
  6
Continuous
 62
     7
370
    25
100
AcDbCircle
 10
-1.0069291187
 20
-0.25
 30
0.0
 40
0.05325
  0
CIRCLE
  5
20C
330
1F
100
AcDbEntity
  8
0
  6
Continuous
 62
     7
370
    25
100
AcDbCircle
 10
-0.5
 20
0.9090688918
 30
0.0
 40
0.05325
  0
CIRCLE
  5
20D
330
1F
100
AcDbEntity
  8
0
  6
Continuous
 62
     7
370
    25
100
AcDbCircle
 10
0.325
 20
0.9852823199
 30
0.0
 40
0.0532499999999998
  0
CIRCLE
  5
20E
330
1F
100
AcDbEntity
  8
0
  6
Continuous
 62
     7
370
    25
100
AcDbCircle
 10
0.635
 20
-0.8204762337
 30
0.0
 40
0.05325
  0
ARC
  5
20F
330
1F
100
AcDbEntity
  8
0
  6
Continuous
 62
     7
370
    25
100
AcDbCircle
 10
-1.1371040794
 20
0.3770396792
 30
0.0
 40
0.1571000000000007
100
AcDbArc
 50
225.5243691588
 51
245.4359205385
  0
ARC
  5
210
330
1F
100
AcDbEntity
  8
0
  6
Continuous
 62
     7
370
    25
100
AcDbCircle
 10
0.0
 20
0.0
 30
0.0
 40
1.274999999998896
100
AcDbArc
 50
166.2789978864
 51
168.0067163993
  0
ARC
  5
211
330
1F
100
AcDbEntity
  8
0
  6
Continuous
 62
     7
370
    25
100
AcDbCircle
 10
-1.1880867609
 20
0.1536699568
 30
0.0
 40
0.1571000000000104
100
AcDbArc
 50
88.8497937472
 51
108.761345127
  0
ARC
  5
212
330
1F
100
AcDbEntity
  8
0
  6
Continuous
 62
     7
370
    25
100
AcDbCircle
 10
-1.1910029914
 20
0.0084218723
 30
0.0
 40
0.3023773570235923
100
AcDbArc
 50
79.8874605667
 51
88.8497937472
  0
ARC
  5
213
330
1F
100
AcDbEntity
  8
0
  6
Continuous
 62
     7
370
    25
100
AcDbCircle
 10
-1.1348382262
 20
0.3233298631
 30
0.0
 40
0.0174999999999999
100
AcDbArc
 50
259.8874605667
 51
344.0970724695
  0
ARC
  5
214
330
1F
100
AcDbEntity
  8
0
  6
Continuous
 62
     7
370
    25
100
AcDbCircle
 10
0.0
 20
0.0
 30
0.0
 40
1.162499999996419
100
AcDbArc
 50
162.8417030407
 51
164.0970724695
  0
ARC
  5
215
330
1F
100
AcDbEntity
  8
0
  6
Continuous
 62
     7
370
    25
100
AcDbCircle
 10
-1.1274821433
 20
0.3481149474
 30
0.0
 40
0.0175000000000002
100
AcDbArc
 50
342.8417030407
 51
67.0513149435
  0
ARC
  5
216
330
1F
100
AcDbEntity
  8
0
  6
Continuous
 62
     7
370
    25
100
AcDbCircle
 10
-1.0027598652
 20
0.6426754283
 30
0.0
 40
0.3023773570237072
100
AcDbArc
 50
238.088981763
 51
247.0513149435
  0
ARC
  5
217
330
1F
100
AcDbEntity
  8
0
  6
Continuous
 62
     7
370
    25
100
AcDbCircle
 10
-1.0795537066
 20
0.5193538308
 30
0.0
 40
0.1570999999999894
100
AcDbArc
 50
218.1774303832
 51
238.088981763
  0
ARC
  5
218
330
1F
100
AcDbEntity
  8
0
  6
Continuous
 62
     7
370
    25
100
AcDbCircle
 10
0.0
 20
0.0
 30
0.0
 40
1.274999999999597
100
AcDbArc
 50
158.9320591109
 51
160.6597776238
  0
ARC
  5
219
330
1F
100
AcDbEntity
  8
0
  6
Continuous
 62
     7
370
    25
100
AcDbCircle
 10
-1.1586817071
 20
0.3043374914
 30
0.0
 40
0.1570999999999983
100
AcDbArc
 50
81.5028549717
 51
101.4144063514
  0
ARC
  5
21A
330
1F
100
AcDbEntity
  8
0
  6
Continuous
 62
     7
370
    25
100
AcDbCircle
 10
-1.1801479082
 20
0.1606548109
 30
0.0
 40
0.3023773570235987
100
AcDbArc
 50
72.5405217912
 51
81.5028549717
  0
ARC
  5
21B
330
1F
100
AcDbEntity
  8
0
  6
Continuous
 62
     7
370
    25
100
AcDbCircle
 10
-1.0841747149
 20
0.4657952207
 30
0.0
 40
0.0174999999999999
100
AcDbArc
 50
252.5405217912
 51
336.750133694
  0
ARC
  5
21C
330
1F
100
AcDbEntity
  8
0
  6
Continuous
 62
     7
370
    25
100
AcDbCircle
 10
0.0
 20
0.0
 30
0.0
 40
1.162499999995021
100
AcDbArc
 50
155.4947642651
 51
156.750133694
  0
ARC
  5
21D
330
1F
100
AcDbEntity
  8
0
  6
Continuous
 62
     7
370
    25
100
AcDbCircle
 10
-1.073709579
 20
0.4894361448
 30
0.0
 40
0.0175000000000001
100
AcDbArc
 50
335.4947642652
 51
59.704376168
  0
ARC
  5
21E
330
1F
100
AcDbEntity
  8
0
  6
Continuous
 62
     7
370
    25
100
AcDbCircle
 10
-0.9123437109
 20
0.7656291573
 30
0.0
 40
0.3023773570237037
100
AcDbArc
 50
230.7420429875
 51
239.704376168
  0
ARC
  5
21F
330
1F
100
AcDbEntity
  8
0
  6
Continuous
 62
     7
370
    25
100
AcDbCircle
 10
-1.0042770918
 20
0.653140207
 30
0.0
 40
0.1570999999999861
100
AcDbArc
 50
210.8304916077
 51
230.7420429875
  0
ARC
  5
220
330
1F
100
AcDbEntity
  8
0
  6
Continuous
 62
     7
370
    25
100
AcDbCircle
 10
0.0
 20
0.0
 30
0.0
 40
1.274999999999307
100
AcDbArc
 50
151.5851203354
 51
153.3128388483
  0
ARC
  5
221
330
1F
100
AcDbEntity
  8
0
  6
Continuous
 62
     7
370
    25
100
AcDbCircle
 10
-1.1102511317
 20
0.4500078128
 30
0.0
 40
0.1571000000000091
100
AcDbArc
 50
74.1559161962
 51
94.0674675759
  0
ARC
  5
222
330
1F
100
AcDbEntity
  8
0
  6
Continuous
 62
     7
370
    25
100
AcDbCircle
 10
-1.1499148289
 20
0.310249802
 30
0.0
 40
0.3023773570236005
100
AcDbArc
 50
65.1935830157
 51
74.1559161962
  0
ARC
  5
223
330
1F
100
AcDbEntity
  8
0
  6
Continuous
 62
     7
370
    25
100
AcDbCircle
 10
-1.0157090847
 20
0.6006122337
 30
0.0
 40
0.0175000000000002
100
AcDbArc
 50
245.1935830157
 51
329.4031949185
  0
ARC
  5
224
330
1F
100
AcDbEntity
  8
0
  6
Continuous
 62
     7
370
    25
100
AcDbCircle
 10
0.0
 20
0.0
 30
0.0
 40
1.162499999995466
100
AcDbArc
 50
148.1478254896
 51
149.4031949185
  0
ARC
  5
225
330
1F
100
AcDbEntity
  8
0
  6
Continuous
 62
     7
370
    25
100
AcDbCircle
 10
-1.0023067332
 20
0.6227208143
 30
0.0
 40
0.0175
100
AcDbArc
 50
328.1478254896
 51
52.3574373925
  0
ARC
  5
226
330
1F
100
AcDbEntity
  8
0
  6
Continuous
 62
     7
370
    25
100
AcDbCircle
 10
-0.8069468981
 20
0.8760112768
 30
0.0
 40
0.3023773570236469
100
AcDbArc
 50
223.395104212
 51
232.3574373925
  0
ARC
  5
227
330
1F
100
AcDbEntity
  8
0
  6
Continuous
 62
     7
370
    25
100
AcDbCircle
 10
-0.9125102749
 20
0.7762020389
 30
0.0
 40
0.1570999999999768
100
AcDbArc
 50
203.4835528322
 51
223.395104212
  0
ARC
  5
228
330
1F
100
AcDbEntity
  8
0
  6
Continuous
 62
     7
370
    25
100
AcDbCircle
 10
0.0
 20
0.0
 30
0.0
 40
1.274999999997658
100
AcDbArc
 50
144.2381815599
 51
145.9659000728
  0
ARC
  5
229
330
1F
100
AcDbEntity
  8
0
  6
Continuous
 62
     7
370
    25
100
AcDbCircle
 10
-1.0435902634
 20
0.5882890184
 30
0.0
 40
0.1571000000000047
100
AcDbArc
 50
66.8089774207
 51
86.7205288004
  0
ARC
  5
22A
330
1F
100
AcDbEntity
  8
0
  6
Continuous
 62
     7
370
    25
100
AcDbCircle
 10
-1.10080018
 20
0.4547504999
 30
0.0
 40
0.3023773570235629
100
AcDbArc
 50
57.8466442402
 51
66.8089774207
  0
ARC
  5
22B
330
1F
100
AcDbEntity
  8
0
  6
Continuous
 62
     7
370
    25
100
AcDbCircle
 10
-0.9305655394
 20
0.7255672104
 30
0.0
 40
0.0174999999999994
100
AcDbArc
 50
237.8466442402
 51
322.056256143
  0
ARC
  5
22C
330
1F
100
AcDbEntity
  8
0
  6
Continuous
 62
     7
370
    25
100
AcDbCircle
 10
0.0
 20
0.0
 30
0.0
 40
1.162499999995604
100
AcDbArc
 50
140.8008867141
 51
142.056256143
  0
ARC
  5
22D
330
1F
100
AcDbEntity
  8
0
  6
Continuous
 62
     7
370
    25
100
AcDbCircle
 10
-0.9144460385
 20
0.7457804252
 30
0.0
 40
0.0175000000000002
100
AcDbArc
 50
320.8008867141
 51
45.0104986169
  0
ARC
  5
22E
330
1F
100
AcDbEntity
  8
0
  6
Continuous
 62
     7
370
    25
100
AcDbCircle
 10
-0.6883000396
 20
0.9720093152
 30
0.0
 40
0.3023773570236549
100
AcDbArc
 50
216.0481654365
 51
225.010498617
  0
ARC
  5
22F
330
1F
100
AcDbEntity
  8
0
  6
Continuous
 62
     7
370
    25
100
AcDbCircle
 10
-0.8057600645
 20
0.8865186549
 30
0.0
 40
0.1570999999999764
100
AcDbArc
 50
196.1366140567
 51
216.0481654365
  0
ARC
  5
230
330
1F
100
AcDbEntity
  8
0
  6
Continuous
 62
     7
370
    25
100
AcDbCircle
 10
0.0
 20
0.0
 30
0.0
 40
1.274999999998286
100
AcDbArc
 50
136.8912427844
 51
138.6189612973
  0
ARC
  5
231
330
1F
100
AcDbEntity
  8
0
  6
Continuous
 62
     7
370
    25
100
AcDbCircle
 10
-0.9597936718
 20
0.7169105345
 30
0.0
 40
0.1570999999999983
100
AcDbArc
 50
59.4620386451
 51
79.3735900249
  0
ARC
  5
232
330
1F
100
AcDbEntity
  8
0
  6
Continuous
 62
     7
370
    25
100
AcDbCircle
 10
-1.0336104225
 20
0.5917842072
 30
0.0
 40
0.3023773570236092
100
AcDbArc
 50
50.4997054647
 51
59.4620386451
  0
ARC
  5
233
330
1F
100
AcDbEntity
  8
0
  6
Continuous
 62
     7
370
    25
100
AcDbCircle
 10
-0.8301421337
 20
0.8386083936
 30
0.0
 40
0.0174999999999995
100
AcDbArc
 50
230.4997054647
 51
314.7093173675
  0
ARC
  5
234
330
1F
100
AcDbEntity
  8
0
  6
Continuous
 62
     7
370
    25
100
AcDbCircle
 10
0.0
 20
0.0
 30
0.0
 40
1.162499999991128
100
AcDbArc
 50
133.4539479386
 51
134.7093173675
  0
ARC
  5
235
330
1F
100
AcDbEntity
  8
0
  6
Continuous
 62
     7
370
    25
100
AcDbCircle
 10
-0.8115701652
 20
0.8565943421
 30
0.0
 40
0.0174999999999999
100
AcDbArc
 50
313.4539479386
 51
37.6635598414
  0
ARC
  5
236
330
1F
100
AcDbEntity
  8
0
  6
Continuous
 62
     7
370
    25
100
AcDbCircle
 10
-0.5583513134
 20
1.0520469877
 30
0.0
 40
0.3023773570236942
100
AcDbArc
 50
208.701226661
 51
217.6635598414
  0
ARC
  5
237
330
1F
100
AcDbEntity
  8
0
  6
Continuous
 62
     7
370
    25
100
AcDbCircle
 10
-0.6857792961
 20
0.982278659
 30
0.0
 40
0.1570999999999992
100
AcDbArc
 50
188.7896752812
 51
208.701226661
  0
ARC
  5
238
330
1F
100
AcDbEntity
  8
0
  6
Continuous
 62
     7
370
    25
100
AcDbCircle
 10
0.0
 20
0.0
 30
0.0
 40
1.27499999999689
100
AcDbArc
 50
129.5443040088
 51
131.2720225218
  0
ARC
  5
239
330
1F
100
AcDbEntity
  8
0
  6
Continuous
 62
     7
370
    25
100
AcDbCircle
 10
-0.8602372947
 20
0.8337603995
 30
0.0
 40
0.1571000000000106
100
AcDbArc
 50
52.1150998696
 51
72.0266512494
  0
ARC
  5
23A
330
1F
100
AcDbEntity
  8
0
  6
Continuous
 62
     7
370
    25
100
AcDbCircle
 10
-0.9494488105
 20
0.7191008341
 30
0.0
 40
0.3023773570236167
100
AcDbArc
 50
43.1527666892
 51
52.1150998696
  0
ARC
  5
23B
330
1F
100
AcDbEntity
  8
0
  6
Continuous
 62
     7
370
    25
100
AcDbCircle
 10
-0.7160878172
 20
0.9378796501
 30
0.0
 40
0.0174999999999998
100
AcDbArc
 50
223.1527666892
 51
307.362378592
  0
ARC
  5
23C
330
1F
100
AcDbEntity
  8
0
  6
Continuous
 62
     7
370
    25
100
AcDbCircle
 10
0.0
 20
0.0
 30
0.0
 40
1.162499999995095
100
AcDbArc
 50
126.1070091631
 51
127.362378592
  0
ARC
  5
23D
330
1F
100
AcDbEntity
  8
0
  6
Continuous
 62
     7
370
    25
100
AcDbCircle
 10
-0.6953683322
 20
0.9533430037
 30
0.0
 40
0.0174999999999999
100
AcDbArc
 50
306.1070091631
 51
30.3166210659
  0
ARC
  5
23E
330
1F
100
AcDbEntity
  8
0
  6
Continuous
 62
     7
370
    25
100
AcDbCircle
 10
-0.4192344741
 20
1.1148100776
 30
0.0
 40
0.302377357023663
100
AcDbArc
 50
201.3542878855
 51
210.3166210659
  0
ARC
  5
23F
330
1F
100
AcDbEntity
  8
0
  6
Continuous
 62
     7
370
    25
100
AcDbCircle
 10
-0.5545380507
 20
1.0619096747
 30
0.0
 40
0.157099999999987
100
AcDbArc
 50
181.4427365057
 51
201.3542878855
  0
ARC
  5
240
330
1F
100
AcDbEntity
  8
0
  6
Continuous
 62
     7
370
    25
100
AcDbCircle
 10
0.0
 20
0.0
 30
0.0
 40
1.274999999998226
100
AcDbArc
 50
122.1973652333
 51
123.9250837463
  0
ARC
  5
241
330
1F
100
AcDbEntity
  8
0
  6
Continuous
 62
     7
370
    25
100
AcDbCircle
 10
-0.746555845
 20
0.9369199417
 30
0.0
 40
0.1571000000000125
100
AcDbArc
 50
44.7681610941
 51
64.6797124739
  0
ARC
  5
242
330
1F
100
AcDbEntity
  8
0
  6
Continuous
 62
     7
370
    25
100
AcDbCircle
 10
-0.8496972753
 20
0.8346098453
 30
0.0
 40
0.3023773570235992
100
AcDbArc
 50
35.8058279137
 51
44.7681610941
  0
ARC
  5
243
330
1F
100
AcDbEntity
  8
0
  6
Continuous
 62
     7
370
    25
100
AcDbCircle
 10
-0.5902753584
 20
1.0217509487
 30
0.0
 40
0.0175000000000001
100
AcDbArc
 50
215.8058279137
 51
300.0154398165
  0
ARC
  5
244
330
1F
100
AcDbEntity
  8
0
  6
Continuous
 62
     7
370
    25
100
AcDbCircle
 10
0.0
 20
0.0
 30
0.0
 40
1.162499999994286
100
AcDbArc
 50
118.7600703876
 51
120.0154398165
  0
ARC
  5
245
330
1F
100
AcDbEntity
  8
0
  6
Continuous
 62
     7
370
    25
100
AcDbCircle
 10
-0.5677485704
 20
1.0344377994
 30
0.0
 40
0.0174999999999997
100
AcDbArc
 50
298.7600703876
 51
22.9696822904
  0
ARC
  5
246
330
1F
100
AcDbEntity
  8
0
  6
Continuous
 62
     7
370
    25
100
AcDbCircle
 10
-0.2732338163
 20
1.1592680169
 30
0.0
 40
0.3023773570236459
100
AcDbArc
 50
194.00734911
 51
202.9696822904
  0
ARC
  5
247
330
1F
100
AcDbEntity
  8
0
  6
Continuous
 62
     7
370
    25
100
AcDbCircle
 10
-0.4141913058
 20
1.124104163
 30
0.0
 40
0.1570999999999942
100
AcDbArc
 50
174.0957977302
 51
194.00734911
  0
ARC
  5
248
330
1F
100
AcDbEntity
  8
0
  6
Continuous
 62
     7
370
    25
100
AcDbCircle
 10
0.0
 20
0.0
 30
0.0
 40
1.274999999996739
100
AcDbArc
 50
114.8504264578
 51
116.5781449708
  0
ARC
  5
249
330
1F
100
AcDbEntity
  8
0
  6
Continuous
 62
     7
370
    25
100
AcDbCircle
 10
-0.620615969
 20
1.0246952845
 30
0.0
 40
0.157100000000008
100
AcDbArc
 50
37.4212223186
 51
57.3327736984
  0
ARC
  5
24A
330
1F
100
AcDbEntity
  8
0
  6
Continuous
 62
     7
370
    25
100
AcDbCircle
 10
-0.7359937342
 20
0.9364145859
 30
0.0
 40
0.3023773570235817
100
AcDbArc
 50
28.4588891382
 51
37.4212223186
  0
ARC
  5
24B
330
1F
100
AcDbEntity
  8
0
  6
Continuous
 62
     7
370
    25
100
AcDbCircle
 10
-0.4547705946
 20
1.088845125
 30
0.0
 40
0.0175
100
AcDbArc
 50
208.4588891382
 51
292.668501041
  0
ARC
  5
24C
330
1F
100
AcDbEntity
  8
0
  6
Continuous
 62
     7
370
    25
100
AcDbCircle
 10
0.0
 20
0.0
 30
0.0
 40
1.162499999993457
100
AcDbArc
 50
111.4131316121
 51
112.668501041
  0
ARC
  5
24D
330
1F
100
AcDbEntity
  8
0
  6
Continuous
 62
     7
370
    25
100
AcDbCircle
 10
-0.4308063927
 20
1.0985471551
 30
0.0
 40
0.0175000000000005
100
AcDbArc
 50
291.4131316121
 51
15.6227435149
  0
ARC
  5
24E
330
1F
100
AcDbEntity
  8
0
  6
Continuous
 62
     7
370
    25
100
AcDbCircle
 10
-0.1227466668
 20
1.1846908074
 30
0.0
 40
0.3023773570236748
100
AcDbArc
 50
186.6604103345
 51
195.6227435149
  0
ARC
  5
24F
330
1F
100
AcDbEntity
  8
0
  6
Continuous
 62
     7
370
    25
100
AcDbCircle
 10
-0.2670435511
 20
1.1678408919
 30
0.0
 40
0.1570999999999901
100
AcDbArc
 50
166.7488589547
 51
186.6604103345
  0
ARC
  5
250
330
1F
100
AcDbEntity
  8
0
  6
Continuous
 62
     7
370
    25
100
AcDbCircle
 10
0.0
 20
0.0
 30
0.0
 40
1.2749999999978
100
AcDbArc
 50
107.5034876823
 51
109.2312061952
  0
ARC
  5
251
330
1F
100
AcDbEntity
  8
0
  6
Continuous
 62
     7
370
    25
100
AcDbCircle
 10
-0.4844855959
 20
1.095645159
 30
0.0
 40
0.1571000000000054
100
AcDbArc
 50
30.0742835431
 51
49.9858349229
  0
ARC
  5
252
330
1F
100
AcDbEntity
  8
0
  6
Continuous
 62
     7
370
    25
100
AcDbCircle
 10
-0.6102051965
 20
1.0228434248
 30
0.0
 40
0.3023773570236111
100
AcDbArc
 50
21.1119503626
 51
30.0742835431
  0
ARC
  5
253
330
1F
100
AcDbEntity
  8
0
  6
Continuous
 62
     7
370
    25
100
AcDbCircle
 10
-0.3117985102
 20
1.1380604945
 30
0.0
 40
0.0174999999999998
100
AcDbArc
 50
201.1119503626
 51
285.3215622655
  0
ARC
  5
254
330
1F
100
AcDbEntity
  8
0
  6
Continuous
 62
     7
370
    25
100
AcDbCircle
 10
0.0
 20
0.0
 30
0.0
 40
1.162499999997452
100
AcDbArc
 50
104.0661928366
 51
105.3215622655
  0
ARC
  5
255
330
1F
100
AcDbEntity
  8
0
  6
Continuous
 62
     7
370
    25
100
AcDbCircle
 10
-0.286790386
 20
1.1446183969
 30
0.0
 40
0.0174999999999998
100
AcDbArc
 50
284.0661928366
 51
8.2758047394
  0
ARC
  5
256
330
1F
100
AcDbEntity
  8
0
  6
Continuous
 62
     7
370
    25
100
AcDbCircle
 10
0.0297559795
 20
1.1906610076
 30
0.0
 40
0.3023773570236735
100
AcDbArc
 50
179.3134715589
 51
188.2758047394
  0
ARC
  5
257
330
1F
100
AcDbEntity
  8
0
  6
Continuous
 62
     7
370
    25
100
AcDbCircle
 10
-0.1155109487
 20
1.1924017057
 30
0.0
 40
0.1570999999999863
100
AcDbArc
 50
159.4019201792
 51
179.3134715589
  0
ARC
  5
258
330
1F
100
AcDbEntity
  8
0
  6
Continuous
 62
     7
370
    25
100
AcDbCircle
 10
0.0
 20
0.0
 30
0.0
 40
1.274999999997563
100
AcDbArc
 50
100.1565489068
 51
101.8842674197
  0
ARC
  5
259
330
1F
100
AcDbEntity
  8
0
  6
Continuous
 62
     7
370
    25
100
AcDbCircle
 10
-0.3403999827
 20
1.1486045702
 30
0.0
 40
0.1571000000000114
100
AcDbArc
 50
22.7273447676
 51
42.6388961474
  0
ARC
  5
25A
330
1F
100
AcDbEntity
  8
0
  6
Continuous
 62
     7
370
    25
100
AcDbCircle
 10
-0.4743971062
 20
1.092477203
 30
0.0
 40
0.3023773570236015
100
AcDbArc
 50
13.7650115871
 51
22.7273447676
  0
ARC
  5
25B
330
1F
100
AcDbEntity
  8
0
  6
Continuous
 62
     7
370
    25
100
AcDbCircle
 10
-0.1637067029
 20
1.168588942
 30
0.0
 40
0.0175000000000002
100
AcDbArc
 50
193.7650115871
 51
277.97462349
  0
ARC
  5
25C
330
1F
100
AcDbEntity
  8
0
  6
Continuous
 62
     7
370
    25
100
AcDbCircle
 10
0.0
 20
0.0
 30
0.0
 40
1.162499999994418
100
AcDbArc
 50
96.7192540611
 51
97.97462349
  0
ARC
  5
25D
330
1F
100
AcDbEntity
  8
0
  6
Continuous
 62
     7
370
    25
100
AcDbCircle
 10
-0.1380652891
 20
1.1718950362
 30
0.0
 40
0.0175
100
AcDbArc
 50
276.7192540611
 51
0.9288659639
  0
ARC
  5
25E
330
1F
100
AcDbEntity
  8
0
  6
Continuous
 62
     7
370
    25
100
AcDbCircle
 10
0.1817700335
 20
1.177080587
 30
0.0
 40
0.3023773570236838
100
AcDbArc
 50
171.9665327834
 51
180.9288659639
  0
ARC
  5
25F
330
1F
100
AcDbEntity
  8
0
  6
Continuous
 62
     7
370
    25
100
AcDbCircle
 10
0.0379183403
 20
1.1973833164
 30
0.0
 40
0.1570999999999886
100
AcDbArc
 50
152.0549814037
 51
171.9665327834
  0
ARC
  5
260
330
1F
100
AcDbEntity
  8
0
  6
Continuous
 62
     7
370
    25
100
AcDbCircle
 10
0.0
 20
0.0
 30
0.0
 40
1.274999999998223
100
AcDbArc
 50
92.8096101313
 51
94.5373286442
  0
ARC
  5
261
330
1F
100
AcDbEntity
  8
0
  6
Continuous
 62
     7
370
    25
100
AcDbCircle
 10
-0.1907250112
 20
1.1827039262
 30
0.0
 40
0.1571000000000118
100
AcDbArc
 50
15.3804059921
 51
35.2919573719
  0
ARC
  5
262
330
1F
100
AcDbEntity
  8
0
  6
Continuous
 62
     7
370
    25
100
AcDbCircle
 10
-0.3307994286
 20
1.1441725357
 30
0.0
 40
0.3023773570235607
100
AcDbArc
 50
6.4180728116
 51
15.3804059921
  0
ARC
  5
263
330
1F
100
AcDbEntity
  8
0
  6
Continuous
 62
     7
370
    25
100
AcDbCircle
 10
-0.012926836
 20
1.1799291915
 30
0.0
 40
0.0174999999999993
100
AcDbArc
 50
186.4180728116
 51
270.6276847144
  0
ARC
  5
264
330
1F
100
AcDbEntity
  8
0
  6
Continuous
 62
     7
370
    25
100
AcDbCircle
 10
0.0
 20
0.0
 30
0.0
 40
1.162499999998376
100
AcDbArc
 50
89.3723152856
 51
90.6276847144
  0
ARC
  5
265
330
1F
100
AcDbEntity
  8
0
  6
Continuous
 62
     7
370
    25
100
AcDbCircle
 10
0.012926836
 20
1.1799291915
 30
0.0
 40
0.0175000000000008
100
AcDbArc
 50
269.3723152856
 51
353.5819271884
  0
ARC
  5
266
330
1F
100
AcDbEntity
  8
0
  6
Continuous
 62
     7
370
    25
100
AcDbCircle
 10
0.3307994286
 20
1.1441725357
 30
0.0
 40
0.302377357023668
100
AcDbArc
 50
164.6195940079
 51
173.5819271884
  0
ARC
  5
267
330
1F
100
AcDbEntity
  8
0
  6
Continuous
 62
     7
370
    25
100
AcDbCircle
 10
0.1907250112
 20
1.1827039262
 30
0.0
 40
0.1570999999999911
100
AcDbArc
 50
144.7080426281
 51
164.6195940079
  0
ARC
  5
268
330
1F
100
AcDbEntity
  8
0
  6
Continuous
 62
     7
370
    25
100
AcDbCircle
 10
0.0
 20
0.0
 30
0.0
 40
1.274999999999203
100
AcDbArc
 50
85.4626713558
 51
87.1903898687
  0
ARC
  5
269
330
1F
100
AcDbEntity
  8
0
  6
Continuous
 62
     7
370
    25
100
AcDbCircle
 10
-0.0379183403
 20
1.1973833164
 30
0.0
 40
0.157099999999981
100
AcDbArc
 50
8.0334672166
 51
27.9450185963
  0
ARC
  5
26A
330
1F
100
AcDbEntity
  8
0
  6
Continuous
 62
     7
370
    25
100
AcDbCircle
 10
-0.1817700335
 20
1.177080587
 30
0.0
 40
0.3023773570235916
100
AcDbArc
 50
359.0711340361
 51
8.0334672166
  0
ARC
  5
26B
330
1F
100
AcDbEntity
  8
0
  6
Continuous
 62
     7
370
    25
100
AcDbCircle
 10
0.1380652891
 20
1.1718950362
 30
0.0
 40
0.0175000000000004
100
AcDbArc
 50
179.0711340361
 51
263.2807459389
  0
ARC
  5
26C
330
1F
100
AcDbEntity
  8
0
  6
Continuous
 62
     7
370
    25
100
AcDbCircle
 10
0.0
 20
0.0
 30
0.0
 40
1.162499999996678
100
AcDbArc
 50
82.02537651
 51
83.2807459389
  0
ARC
  5
26D
330
1F
100
AcDbEntity
  8
0
  6
Continuous
 62
     7
370
    25
100
AcDbCircle
 10
0.1637067029
 20
1.168588942
 30
0.0
 40
0.0174999999999997
100
AcDbArc
 50
262.02537651
 51
346.2349884129
  0
ARC
  5
26E
330
1F
100
AcDbEntity
  8
0
  6
Continuous
 62
     7
370
    25
100
AcDbCircle
 10
0.4743971062
 20
1.092477203
 30
0.0
 40
0.3023773570236599
100
AcDbArc
 50
157.2726552324
 51
166.2349884129
  0
ARC
  5
26F
330
1F
100
AcDbEntity
  8
0
  6
Continuous
 62
     7
370
    25
100
AcDbCircle
 10
0.3403999827
 20
1.1486045702
 30
0.0
 40
0.1570999999999931
100
AcDbArc
 50
137.3611038526
 51
157.2726552324
  0
ARC
  5
270
330
1F
100
AcDbEntity
  8
0
  6
Continuous
 62
     7
370
    25
100
AcDbCircle
 10
0.0
 20
0.0
 30
0.0
 40
1.274999999995261
100
AcDbArc
 50
78.1157325803
 51
79.8434510932
  0
ARC
  5
271
330
1F
100
AcDbEntity
  8
0
  6
Continuous
 62
     7
370
    25
100
AcDbCircle
 10
0.1155109487
 20
1.1924017057
 30
0.0
 40
0.1570999999999845
100
AcDbArc
 50
0.6865284411
 51
20.5980798208
  0
ARC
  5
272
330
1F
100
AcDbEntity
  8
0
  6
Continuous
 62
     7
370
    25
100
AcDbCircle
 10
-0.0297559795
 20
1.1906610076
 30
0.0
 40
0.3023773570236065
100
AcDbArc
 50
351.7241952606
 51
0.6865284411
  0
ARC
  5
273
330
1F
100
AcDbEntity
  8
0
  6
Continuous
 62
     7
370
    25
100
AcDbCircle
 10
0.286790386
 20
1.1446183969
 30
0.0
 40
0.0175000000000001
100
AcDbArc
 50
171.7241952606
 51
255.9338071634
  0
ARC
  5
274
330
1F
100
AcDbEntity
  8
0
  6
Continuous
 62
     7
370
    25
100
AcDbCircle
 10
0.0
 20
0.0
 30
0.0
 40
1.162499999995305
100
AcDbArc
 50
74.6784377345
 51
75.9338071634
  0
ARC
  5
275
330
1F
100
AcDbEntity
  8
0
  6
Continuous
 62
     7
370
    25
100
AcDbCircle
 10
0.3117985102
 20
1.1380604945
 30
0.0
 40
0.0174999999999998
100
AcDbArc
 50
254.6784377345
 51
338.8880496374
  0
ARC
  5
276
330
1F
100
AcDbEntity
  8
0
  6
Continuous
 62
     7
370
    25
100
AcDbCircle
 10
0.6102051965
 20
1.0228434248
 30
0.0
 40
0.3023773570236476
100
AcDbArc
 50
149.9257164569
 51
158.8880496374
  0
ARC
  5
277
330
1F
100
AcDbEntity
  8
0
  6
Continuous
 62
     7
370
    25
100
AcDbCircle
 10
0.4844855959
 20
1.095645159
 30
0.0
 40
0.1570999999999862
100
AcDbArc
 50
130.0141650771
 51
149.9257164569
  0
ARC
  5
278
330
1F
100
AcDbEntity
  8
0
  6
Continuous
 62
     7
370
    25
100
AcDbCircle
 10
0.0
 20
0.0
 30
0.0
 40
1.274999999997374
100
AcDbArc
 50
70.7687938048
 51
72.4965123177
  0
ARC
  5
279
330
1F
100
AcDbEntity
  8
0
  6
Continuous
 62
     7
370
    25
100
AcDbCircle
 10
0.2670435511
 20
1.1678408919
 30
0.0
 40
0.157099999999996
100
AcDbArc
 50
353.3395896656
 51
13.2511410453
  0
ARC
  5
27A
330
1F
100
AcDbEntity
  8
0
  6
Continuous
 62
     7
370
    25
100
AcDbCircle
 10
0.1227466668
 20
1.1846908074
 30
0.0
 40
0.302377357023619
100
AcDbArc
 50
344.3772564851
 51
353.3395896656
  0
ARC
  5
27B
330
1F
100
AcDbEntity
  8
0
  6
Continuous
 62
     7
370
    25
100
AcDbCircle
 10
0.4308063927
 20
1.0985471551
 30
0.0
 40
0.0174999999999999
100
AcDbArc
 50
164.3772564851
 51
248.5868683879
  0
ARC
  5
27C
330
1F
100
AcDbEntity
  8
0
  6
Continuous
 62
     7
370
    25
100
AcDbCircle
 10
0.0
 20
0.0
 30
0.0
 40
1.16249999999464
100
AcDbArc
 50
67.331498959
 51
68.5868683879
  0
ARC
  5
27D
330
1F
100
AcDbEntity
  8
0
  6
Continuous
 62
     7
370
    25
100
AcDbCircle
 10
0.4547705946
 20
1.088845125
 30
0.0
 40
0.0174999999999997
100
AcDbArc
 50
247.331498959
 51
331.5411108618
  0
ARC
  5
27E
330
1F
100
AcDbEntity
  8
0
  6
Continuous
 62
     7
370
    25
100
AcDbCircle
 10
0.7359937342
 20
0.9364145859
 30
0.0
 40
0.3023773570236247
100
AcDbArc
 50
142.5787776814
 51
151.5411108618
  0
ARC
  5
27F
330
1F
100
AcDbEntity
  8
0
  6
Continuous
 62
     7
370
    25
100
AcDbCircle
 10
0.620615969
 20
1.0246952845
 30
0.0
 40
0.1570999999999903
100
AcDbArc
 50
122.6672263016
 51
142.5787776814
  0
ARC
  5
280
330
1F
100
AcDbEntity
  8
0
  6
Continuous
 62
     7
370
    25
100
AcDbCircle
 10
0.0
 20
0.0
 30
0.0
 40
1.27499999999573
100
AcDbArc
 50
63.4218550292
 51
65.1495735422
  0
ARC
  5
281
330
1F
100
AcDbEntity
  8
0
  6
Continuous
 62
     7
370
    25
100
AcDbCircle
 10
0.4141913058
 20
1.124104163
 30
0.0
 40
0.1570999999999962
100
AcDbArc
 50
345.99265089
 51
5.9042022698
  0
ARC
  5
282
330
1F
100
AcDbEntity
  8
0
  6
Continuous
 62
     7
370
    25
100
AcDbCircle
 10
0.2732338163
 20
1.1592680169
 30
0.0
 40
0.3023773570235983
100
AcDbArc
 50
337.0303177096
 51
345.99265089
  0
ARC
  5
283
330
1F
100
AcDbEntity
  8
0
  6
Continuous
 62
     7
370
    25
100
AcDbCircle
 10
0.5677485704
 20
1.0344377994
 30
0.0
 40
0.0175000000000003
100
AcDbArc
 50
157.0303177096
 51
241.2399296124
  0
ARC
  5
284
330
1F
100
AcDbEntity
  8
0
  6
Continuous
 62
     7
370
    25
100
AcDbCircle
 10
0.0
 20
0.0
 30
0.0
 40
1.162499999996983
100
AcDbArc
 50
59.9845601835
 51
61.2399296124
  0
ARC
  5
285
330
1F
100
AcDbEntity
  8
0
  6
Continuous
 62
     7
370
    25
100
AcDbCircle
 10
0.5902753584
 20
1.0217509487
 30
0.0
 40
0.0175000000000002
100
AcDbArc
 50
239.9845601835
 51
324.1941720863
  0
ARC
  5
286
330
1F
100
AcDbEntity
  8
0
  6
Continuous
 62
     7
370
    25
100
AcDbCircle
 10
0.8496972753
 20
0.8346098453
 30
0.0
 40
0.3023773570236742
100
AcDbArc
 50
135.2318389059
 51
144.1941720863
  0
ARC
  5
287
330
1F
100
AcDbEntity
  8
0
  6
Continuous
 62
     7
370
    25
100
AcDbCircle
 10
0.746555845
 20
0.9369199417
 30
0.0
 40
0.1570999999999954
100
AcDbArc
 50
115.3202875261
 51
135.2318389059
  0
ARC
  5
288
330
1F
100
AcDbEntity
  8
0
  6
Continuous
 62
     7
370
    25
100
AcDbCircle
 10
0.0
 20
0.0
 30
0.0
 40
1.274999999996937
100
AcDbArc
 50
56.0749162537
 51
57.8026347667
  0
ARC
  5
289
330
1F
100
AcDbEntity
  8
0
  6
Continuous
 62
     7
370
    25
100
AcDbCircle
 10
0.5545380507
 20
1.0619096747
 30
0.0
 40
0.1571000000000042
100
AcDbArc
 50
338.6457121145
 51
358.5572634943
  0
ARC
  5
28A
330
1F
100
AcDbEntity
  8
0
  6
Continuous
 62
     7
370
    25
100
AcDbCircle
 10
0.4192344741
 20
1.1148100776
 30
0.0
 40
0.3023773570235956
100
AcDbArc
 50
329.6833789341
 51
338.6457121145
  0
ARC
  5
28B
330
1F
100
AcDbEntity
  8
0
  6
Continuous
 62
     7
370
    25
100
AcDbCircle
 10
0.6953683322
 20
0.9533430037
 30
0.0
 40
0.0174999999999997
100
AcDbArc
 50
149.6833789341
 51
233.8929908369
  0
ARC
  5
28C
330
1F
100
AcDbEntity
  8
0
  6
Continuous
 62
     7
370
    25
100
AcDbCircle
 10
0.0
 20
0.0
 30
0.0
 40
1.162499999994563
100
AcDbArc
 50
52.637621408
 51
53.8929908369
  0
ARC
  5
28D
330
1F
100
AcDbEntity
  8
0
  6
Continuous
 62
     7
370
    25
100
AcDbCircle
 10
0.7160878172
 20
0.9378796501
 30
0.0
 40
0.0175000000000004
100
AcDbArc
 50
232.637621408
 51
316.8472333108
  0
ARC
  5
28E
330
1F
100
AcDbEntity
  8
0
  6
Continuous
 62
     7
370
    25
100
AcDbCircle
 10
0.9494488105
 20
0.7191008341
 30
0.0
 40
0.3023773570236877
100
AcDbArc
 50
127.8849001304
 51
136.8472333108
  0
ARC
  5
28F
330
1F
100
AcDbEntity
  8
0
  6
Continuous
 62
     7
370
    25
100
AcDbCircle
 10
0.8602372947
 20
0.8337603995
 30
0.0
 40
0.1570999999999891
100
AcDbArc
 50
107.9733487506
 51
127.8849001304
  0
ARC
  5
290
330
1F
100
AcDbEntity
  8
0
  6
Continuous
 62
     7
370
    25
100
AcDbCircle
 10
0.0
 20
0.0
 30
0.0
 40
1.274999999996137
100
AcDbArc
 50
48.7279774782
 51
50.4556959912
  0
ARC
  5
291
330
1F
100
AcDbEntity
  8
0
  6
Continuous
 62
     7
370
    25
100
AcDbCircle
 10
0.6857792961
 20
0.982278659
 30
0.0
 40
0.1570999999999859
100
AcDbArc
 50
331.298773339
 51
351.2103247188
  0
ARC
  5
292
330
1F
100
AcDbEntity
  8
0
  6
Continuous
 62
     7
370
    25
100
AcDbCircle
 10
0.5583513134
 20
1.0520469877
 30
0.0
 40
0.302377357023594
100
AcDbArc
 50
322.3364401586
 51
331.298773339
  0
ARC
  5
293
330
1F
100
AcDbEntity
  8
0
  6
Continuous
 62
     7
370
    25
100
AcDbCircle
 10
0.8115701652
 20
0.8565943421
 30
0.0
 40
0.0175
100
AcDbArc
 50
142.3364401586
 51
226.5460520614
  0
ARC
  5
294
330
1F
100
AcDbEntity
  8
0
  6
Continuous
 62
     7
370
    25
100
AcDbCircle
 10
0.0
 20
0.0
 30
0.0
 40
1.162499999992392
100
AcDbArc
 50
45.2906826325
 51
46.5460520614
  0
ARC
  5
295
330
1F
100
AcDbEntity
  8
0
  6
Continuous
 62
     7
370
    25
100
AcDbCircle
 10
0.8301421337
 20
0.8386083936
 30
0.0
 40
0.0175000000000002
100
AcDbArc
 50
225.2906826325
 51
309.5002945353
  0
ARC
  5
296
330
1F
100
AcDbEntity
  8
0
  6
Continuous
 62
     7
370
    25
100
AcDbCircle
 10
1.0336104225
 20
0.5917842072
 30
0.0
 40
0.3023773570236636
100
AcDbArc
 50
120.5379613549
 51
129.5002945353
  0
ARC
  5
297
330
1F
100
AcDbEntity
  8
0
  6
Continuous
 62
     7
370
    25
100
AcDbCircle
 10
0.9597936718
 20
0.7169105345
 30
0.0
 40
0.1570999999999945
100
AcDbArc
 50
100.6264099751
 51
120.5379613549
  0
ARC
  5
298
330
1F
100
AcDbEntity
  8
0
  6
Continuous
 62
     7
370
    25
100
AcDbCircle
 10
0.0
 20
0.0
 30
0.0
 40
1.274999999999172
100
AcDbArc
 50
41.3810387027
 51
43.1087572156
  0
ARC
  5
299
330
1F
100
AcDbEntity
  8
0
  6
Continuous
 62
     7
370
    25
100
AcDbCircle
 10
0.8057600645
 20
0.8865186549
 30
0.0
 40
0.1570999999999813
100
AcDbArc
 50
323.9518345635
 51
343.8633859433
  0
ARC
  5
29A
330
1F
100
AcDbEntity
  8
0
  6
Continuous
 62
     7
370
    25
100
AcDbCircle
 10
0.6883000396
 20
0.9720093152
 30
0.0
 40
0.3023773570236238
100
AcDbArc
 50
314.9895013831
 51
323.9518345635
  0
ARC
  5
29B
330
1F
100
AcDbEntity
  8
0
  6
Continuous
 62
     7
370
    25
100
AcDbCircle
 10
0.9144460385
 20
0.7457804252
 30
0.0
 40
0.0175000000000001
100
AcDbArc
 50
134.9895013831
 51
219.1991132859
  0
ARC
  5
29C
330
1F
100
AcDbEntity
  8
0
  6
Continuous
 62
     7
370
    25
100
AcDbCircle
 10
0.0
 20
0.0
 30
0.0
 40
1.162499999995582
100
AcDbArc
 50
37.943743857
 51
39.1991132859
  0
ARC
  5
29D
330
1F
100
AcDbEntity
  8
0
  6
Continuous
 62
     7
370
    25
100
AcDbCircle
 10
0.9305655394
 20
0.7255672104
 30
0.0
 40
0.0175000000000003
100
AcDbArc
 50
217.943743857
 51
302.1533557598
  0
ARC
  5
29E
330
1F
100
AcDbEntity
  8
0
  6
Continuous
 62
     7
370
    25
100
AcDbCircle
 10
1.10080018
 20
0.4547504999
 30
0.0
 40
0.3023773570236497
100
AcDbArc
 50
113.1910225793
 51
122.1533557598
  0
ARC
  5
29F
330
1F
100
AcDbEntity
  8
0
  6
Continuous
 62
     7
370
    25
100
AcDbCircle
 10
1.0435902634
 20
0.5882890184
 30
0.0
 40
0.1571000000000081
100
AcDbArc
 50
93.2794711996
 51
113.1910225793
  0
ARC
  5
2A0
330
1F
100
AcDbEntity
  8
0
  6
Continuous
 62
     7
370
    25
100
AcDbCircle
 10
0.0
 20
0.0
 30
0.0
 40
1.274999999995837
100
AcDbArc
 50
34.0340999272
 51
35.7618184401
  0
ARC
  5
2A1
330
1F
100
AcDbEntity
  8
0
  6
Continuous
 62
     7
370
    25
100
AcDbCircle
 10
0.9125102749
 20
0.7762020389
 30
0.0
 40
0.1570999999999936
100
AcDbArc
 50
316.604895788
 51
336.5164471678
  0
ARC
  5
2A2
330
1F
100
AcDbEntity
  8
0
  6
Continuous
 62
     7
370
    25
100
AcDbCircle
 10
0.8069468981
 20
0.8760112768
 30
0.0
 40
0.3023773570236126
100
AcDbArc
 50
307.6425626075
 51
316.604895788
  0
ARC
  5
2A3
330
1F
100
AcDbEntity
  8
0
  6
Continuous
 62
     7
370
    25
100
AcDbCircle
 10
1.0023067332
 20
0.6227208143
 30
0.0
 40
0.0175000000000006
100
AcDbArc
 50
127.6425626075
 51
211.8521745104
  0
ARC
  5
2A4
330
1F
100
AcDbEntity
  8
0
  6
Continuous
 62
     7
370
    25
100
AcDbCircle
 10
0.0
 20
0.0
 30
0.0
 40
1.162499999994966
100
AcDbArc
 50
30.5968050815
 51
31.8521745104
  0
ARC
  5
2A5
330
1F
100
AcDbEntity
  8
0
  6
Continuous
 62
     7
370
    25
100
AcDbCircle
 10
1.0157090847
 20
0.6006122337
 30
0.0
 40
0.0174999999999999
100
AcDbArc
 50
210.5968050815
 51
294.8064169843
  0
ARC
  5
2A6
330
1F
100
AcDbEntity
  8
0
  6
Continuous
 62
     7
370
    25
100
AcDbCircle
 10
1.1499148289
 20
0.310249802
 30
0.0
 40
0.3023773570237248
100
AcDbArc
 50
105.8440838038
 51
114.8064169843
  0
ARC
  5
2A7
330
1F
100
AcDbEntity
  8
0
  6
Continuous
 62
     7
370
    25
100
AcDbCircle
 10
1.1102511317
 20
0.4500078128
 30
0.0
 40
0.1570999999999949
100
AcDbArc
 50
85.9325324241
 51
105.8440838038
  0
ARC
  5
2A8
330
1F
100
AcDbEntity
  8
0
  6
Continuous
 62
     7
370
    25
100
AcDbCircle
 10
0.0
 20
0.0
 30
0.0
 40
1.274999999996306
100
AcDbArc
 50
26.6871611517
 51
28.4148796646
  0
ARC
  5
2A9
330
1F
100
AcDbEntity
  8
0
  6
Continuous
 62
     7
370
    25
100
AcDbCircle
 10
1.0042770918
 20
0.653140207
 30
0.0
 40
0.1570999999999839
100
AcDbArc
 50
309.2579570125
 51
329.1695083923
  0
ARC
  5
2AA
330
1F
100
AcDbEntity
  8
0
  6
Continuous
 62
     7
370
    25
100
AcDbCircle
 10
0.9123437109
 20
0.7656291573
 30
0.0
 40
0.3023773570236387
100
AcDbArc
 50
300.295623832
 51
309.2579570125
  0
ARC
  5
2AB
330
1F
100
AcDbEntity
  8
0
  6
Continuous
 62
     7
370
    25
100
AcDbCircle
 10
1.073709579
 20
0.4894361448
 30
0.0
 40
0.0174999999999999
100
AcDbArc
 50
120.295623832
 51
204.5052357349
  0
ARC
  5
2AC
330
1F
100
AcDbEntity
  8
0
  6
Continuous
 62
     7
370
    25
100
AcDbCircle
 10
0.0
 20
0.0
 30
0.0
 40
1.162499999993575
100
AcDbArc
 50
23.249866306
 51
24.5052357349
  0
ARC
  5
2AD
330
1F
100
AcDbEntity
  8
0
  6
Continuous
 62
     7
370
    25
100
AcDbCircle
 10
1.0841747149
 20
0.4657952207
 30
0.0
 40
0.0175000000000003
100
AcDbArc
 50
203.249866306
 51
287.4594782088
  0
ARC
  5
2AE
330
1F
100
AcDbEntity
  8
0
  6
Continuous
 62
     7
370
    25
100
AcDbCircle
 10
1.1801479082
 20
0.1606548109
 30
0.0
 40
0.3023773570236376
100
AcDbArc
 50
98.4971450283
 51
107.4594782088
  0
ARC
  5
2AF
330
1F
100
AcDbEntity
  8
0
  6
Continuous
 62
     7
370
    25
100
AcDbCircle
 10
1.1586817071
 20
0.3043374914
 30
0.0
 40
0.1570999999999892
100
AcDbArc
 50
78.5855936486
 51
98.4971450283
  0
ARC
  5
2B0
330
1F
100
AcDbEntity
  8
0
  6
Continuous
 62
     7
370
    25
100
AcDbCircle
 10
0.0
 20
0.0
 30
0.0
 40
1.274999999998492
100
AcDbArc
 50
19.3402223762
 51
21.0679408891
  0
ARC
  5
2B1
330
1F
100
AcDbEntity
  8
0
  6
Continuous
 62
     7
370
    25
100
AcDbCircle
 10
1.0795537066
 20
0.5193538308
 30
0.0
 40
0.1570999999999836
100
AcDbArc
 50
301.911018237
 51
321.8225696168
  0
ARC
  5
2B2
330
1F
100
AcDbEntity
  8
0
  6
Continuous
 62
     7
370
    25
100
AcDbCircle
 10
1.0027598652
 20
0.6426754283
 30
0.0
 40
0.3023773570235867
100
AcDbArc
 50
292.9486850565
 51
301.911018237
  0
ARC
  5
2B3
330
1F
100
AcDbEntity
  8
0
  6
Continuous
 62
     7
370
    25
100
AcDbCircle
 10
1.1274821433
 20
0.3481149474
 30
0.0
 40
0.0175000000000002
100
AcDbArc
 50
112.9486850565
 51
197.1582969593
  0
ARC
  5
2B4
330
1F
100
AcDbEntity
  8
0
  6
Continuous
 62
     7
370
    25
100
AcDbCircle
 10
0.0
 20
0.0
 30
0.0
 40
1.162499999994292
100
AcDbArc
 50
15.9029275305
 51
17.1582969593
  0
ARC
  5
2B5
330
1F
100
AcDbEntity
  8
0
  6
Continuous
 62
     7
370
    25
100
AcDbCircle
 10
1.1348382262
 20
0.3233298631
 30
0.0
 40
0.0175000000000002
100
AcDbArc
 50
195.9029275305
 51
280.1125394333
  0
ARC
  5
2B6
330
1F
100
AcDbEntity
  8
0
  6
Continuous
 62
     7
370
    25
100
AcDbCircle
 10
1.1910029914
 20
0.0084218723
 30
0.0
 40
0.3023773570236817
100
AcDbArc
 50
91.1502062528
 51
100.1125394333
  0
ARC
  5
2B7
330
1F
100
AcDbEntity
  8
0
  6
Continuous
 62
     7
370
    25
100
AcDbCircle
 10
1.1880867609
 20
0.1536699568
 30
0.0
 40
0.1570999999999851
100
AcDbArc
 50
71.238654873
 51
91.1502062528
  0
ARC
  5
2B8
330
1F
100
AcDbEntity
  8
0
  6
Continuous
 62
     7
370
    25
100
AcDbCircle
 10
0.0
 20
0.0
 30
0.0
 40
1.274999999997259
100
AcDbArc
 50
11.9932836007
 51
13.7210021136
  0
ARC
  5
2B9
330
1F
100
AcDbEntity
  8
0
  6
Continuous
 62
     7
370
    25
100
AcDbCircle
 10
1.1371040794
 20
0.3770396792
 30
0.0
 40
0.1570999999999952
100
AcDbArc
 50
294.5640794615
 51
314.4756308412
  0
ARC
  5
2BA
330
1F
100
AcDbEntity
  8
0
  6
Continuous
 62
     7
370
    25
100
AcDbCircle
 10
1.0767107302
 20
0.5091689865
 30
0.0
 40
0.3023773570235863
100
AcDbArc
 50
285.601746281
 51
294.5640794615
  0
ARC
  5
2BB
330
1F
100
AcDbEntity
  8
0
  6
Continuous
 62
     7
370
    25
100
AcDbCircle
 10
1.1627414819
 20
0.2010777122
 30
0.0
 40
0.0175000000000004
100
AcDbArc
 50
105.601746281
 51
189.8113581838
  0
ARC
  5
2BC
330
1F
100
AcDbEntity
  8
0
  6
Continuous
 62
     7
370
    25
100
AcDbCircle
 10
0.0
 20
0.0
 30
0.0
 40
1.162499999994528
100
AcDbArc
 50
8.5559887549
 51
9.8113581838
  0
ARC
  5
2BD
330
1F
100
AcDbEntity
  8
0
  6
Continuous
 62
     7
370
    25
100
AcDbCircle
 10
1.1668677252
 20
0.175555438
 30
0.0
 40
0.0175000000000004
100
AcDbArc
 50
188.5559887549
 51
272.7656006578
  0
ARC
  5
2BE
330
1F
100
AcDbEntity
  8
0
  6
Continuous
 62
     7
370
    25
100
AcDbCircle
 10
1.1823018384
 20
-0.1439493533
 30
0.0
 40
0.3023773570236763
100
AcDbArc
 50
83.8032674773
 51
92.7656006578
  0
ARC
  5
2BF
330
1F
100
AcDbEntity
  8
0
  6
Continuous
 62
     7
370
    25
100
AcDbCircle
 10
1.1979834629
 20
0.0004791658
 30
0.0
 40
0.1570999999999894
100
AcDbArc
 50
63.8917160975
 51
83.8032674773
  0
ARC
  5
2C0
330
1F
100
AcDbEntity
  8
0
  6
Continuous
 62
     7
370
    25
100
AcDbCircle
 10
0.0
 20
0.0
 30
0.0
 40
1.274999999996195
100
AcDbArc
 50
4.6463448252
 51
6.3740633381
  0
ARC
  5
2C1
330
1F
100
AcDbEntity
  8
0
  6
Continuous
 62
     7
370
    25
100
AcDbCircle
 10
1.1759832346
 20
0.2285345464
 30
0.0
 40
0.1570999999999788
100
AcDbArc
 50
287.217140686
 51
307.1286920657
  0
ARC
  5
2C2
330
1F
100
AcDbEntity
  8
0
  6
Continuous
 62
     7
370
    25
100
AcDbCircle
 10
1.1329820348
 20
0.367302004
 30
0.0
 40
0.3023773570235953
100
AcDbArc
 50
278.2548075055
 51
287.217140686
  0
ARC
  5
2C3
330
1F
100
AcDbEntity
  8
0
  6
Continuous
 62
     7
370
    25
100
AcDbCircle
 10
1.1789086375
 20
0.0507387865
 30
0.0
 40
0.0175000000000001
100
AcDbArc
 50
98.2548075055
 51
182.4644194083
  0
ARC
  5
2C4
330
1F
100
AcDbEntity
  8
0
  6
Continuous
 62
     7
370
    25
100
AcDbCircle
 10
0.0
 20
0.0
 30
0.0
 40
1.162499999995465
100
AcDbArc
 50
1.2090499794
 51
2.4644194083
  0
ARC
  5
2C5
330
1F
100
AcDbEntity
  8
0
  6
Continuous
 62
     7
370
    25
100
AcDbCircle
 10
1.1797372885
 20
0.0248983976
 30
0.0
 40
0.0175000000000003
100
AcDbArc
 50
181.2090499794
 51
265.4186618823
  0
ARC
  5
2C6
330
1F
100
AcDbEntity
  8
0
  6
Continuous
 62
     7
370
    25
100
AcDbCircle
 10
1.1541873219
 20
-0.2939569344
 30
0.0
 40
0.3023773570236782
100
AcDbArc
 50
76.4563287018
 51
85.4186618823
  0
ARC
  5
2C7
330
1F
100
AcDbEntity
  8
0
  6
Continuous
 62
     7
370
    25
100
AcDbCircle
 10
1.1882093096
 20
-0.1527194932
 30
0.0
 40
0.1570999999999873
100
AcDbArc
 50
56.544777322
 51
76.4563287018
  0
ARC
  5
2C8
330
1F
100
AcDbEntity
  8
0
  6
Continuous
 62
     7
370
    25
100
AcDbCircle
 10
0.0
 20
0.0
 30
0.0
 40
1.274999999999479
100
AcDbArc
 50
357.2994060497
 51
359.0271245626
  0
ARC
  5
2C9
330
1F
100
AcDbEntity
  8
0
  6
Continuous
 62
     7
370
    25
100
AcDbCircle
 10
1.1955527776
 20
0.0762768827
 30
0.0
 40
0.1570999999999805
100
AcDbArc
 50
279.8702019104
 51
299.7817532902
  0
ARC
  5
2CA
330
1F
100
AcDbEntity
  8
0
  6
Continuous
 62
     7
370
    25
100
AcDbCircle
 10
1.1706498058
 20
0.2194039328
 30
0.0
 40
0.3023773570235889
100
AcDbArc
 50
270.90786873
 51
279.8702019105
  0
ARC
  5
2CB
330
1F
100
AcDbEntity
  8
0
  6
Continuous
 62
     7
370
    25
100
AcDbCircle
 10
1.1757181459
 20
-0.1004332687
 30
0.0
 40
0.0174999999999999
100
AcDbArc
 50
90.90786873
 51
175.1174806328
  0
ARC
  5
2CC
330
1F
100
AcDbEntity
  8
0
  6
Continuous
 62
     7
370
    25
100
AcDbCircle
 10
0.0
 20
0.0
 30
0.0
 40
1.162499999995106
100
AcDbArc
 50
353.8621112039
 51
355.1174806328
  0
ARC
  5
2CD
330
1F
100
AcDbEntity
  8
0
  6
Continuous
 62
     7
370
    25
100
AcDbCircle
 10
1.173235598
 20
-0.1261674739
 30
0.0
 40
0.0174999999999996
100
AcDbArc
 50
173.8621112039
 51
258.0717231067
  0
ARC
  5
2CE
330
1F
100
AcDbEntity
  8
0
  6
Continuous
 62
     7
370
    25
100
AcDbCircle
 10
1.1071210815
 20
-0.4391377509
 30
0.0
 40
0.3023773570236672
100
AcDbArc
 50
69.1093899263
 51
78.0717231067
  0
ARC
  5
2CF
330
1F
100
AcDbEntity
  8
0
  6
Continuous
 62
     7
370
    25
100
AcDbCircle
 10
1.1589247923
 20
-0.3034105022
 30
0.0
 40
0.1570999999999919
100
AcDbArc
 50
49.1978385465
 51
69.1093899263
  0
ARC
  5
2D0
330
1F
100
AcDbEntity
  8
0
  6
Continuous
 62
     7
370
    25
100
AcDbCircle
 10
0.0
 20
0.0
 30
0.0
 40
1.274999999998413
100
AcDbArc
 50
349.9524672742
 51
351.6801857871
  0
ARC
  5
2D1
330
1F
100
AcDbEntity
  8
0
  6
Continuous
 62
     7
370
    25
100
AcDbCircle
 10
1.1954913771
 20
-0.0772332453
 30
0.0
 40
0.1570999999999846
100
AcDbArc
 50
272.5232631349
 51
292.4348145147
  0
ARC
  5
2D2
330
1F
100
AcDbEntity
  8
0
  6
Continuous
 62
     7
370
    25
100
AcDbCircle
 10
1.1890955392
 20
0.067903255
 30
0.0
 40
0.302377357023589
100
AcDbArc
 50
263.5609299545
 51
272.5232631349
  0
ARC
  5
2D3
330
1F
100
AcDbEntity
  8
0
  6
Continuous
 62
     7
370
    25
100
AcDbCircle
 10
1.1532223948
 20
-0.2499562124
 30
0.0
 40
0.0174999999999994
100
AcDbArc
 50
83.5609299545
 51
167.7705418573
  0
ARC
  5
2D4
330
1F
100
AcDbEntity
  8
0
  6
Continuous
 62
     7
370
    25
100
AcDbCircle
 10
0.0
 20
0.0
 30
0.0
 40
1.162499999993915
100
AcDbArc
 50
346.5151724284
 51
347.7705418573
  0
ARC
  5
2D5
330
1F
100
AcDbEntity
  8
0
  6
Continuous
 62
     7
370
    25
100
AcDbCircle
 10
1.1474694115
 20
-0.275161679
 30
0.0
 40
0.0174999999999999
100
AcDbArc
 50
166.5151724284
 51
250.7247843312
  0
ARC
  5
2D6
330
1F
100
AcDbEntity
  8
0
  6
Continuous
 62
     7
370
    25
100
AcDbCircle
 10
1.0418759436
 20
-0.5771079375
 30
0.0
 40
0.3023773570236862
100
AcDbArc
 50
61.7624511508
 51
70.7247843312
  0
ARC
  5
2D7
330
1F
100
AcDbEntity
  8
0
  6
Continuous
 62
     7
370
    25
100
AcDbCircle
 10
1.1106107619
 20
-0.4491195192
 30
0.0
 40
0.1570999999999944
100
AcDbArc
 50
41.850899771
 51
61.7624511508
  0
ARC
  5
2D8
330
1F
100
AcDbEntity
  8
0
  6
Continuous
 62
     7
370
    25
100
AcDbCircle
 10
0.0
 20
0.0
 30
0.0
 40
1.274999999995917
100
AcDbArc
 50
342.6055284986
 51
344.3332470116
  0
ARC
  5
2D9
330
1F
100
AcDbEntity
  8
0
  6
Continuous
 62
     7
370
    25
100
AcDbCircle
 10
1.1758000413
 20
-0.2294752055
 30
0.0
 40
0.1570999999999952
100
AcDbArc
 50
265.1763243594
 51
285.0878757392
  0
ARC
  5
2DA
330
1F
100
AcDbEntity
  8
0
  6
Continuous
 62
     7
370
    25
100
AcDbCircle
 10
1.1880163568
 20
-0.0847123923
 30
0.0
 40
0.3023773570235986
100
AcDbArc
 50
256.213991179
 51
265.1763243594
  0
ARC
  5
2DB
330
1F
100
AcDbEntity
  8
0
  6
Continuous
 62
     7
370
    25
100
AcDbCircle
 10
1.1117907639
 20
-0.395374882
 30
0.0
 40
0.0175
100
AcDbArc
 50
76.213991179
 51
160.4236030818
  0
ARC
  5
2DC
330
1F
100
AcDbEntity
  8
0
  6
Continuous
 62
     7
370
    25
100
AcDbCircle
 10
0.0
 20
0.0
 30
0.0
 40
1.162499999993825
100
AcDbArc
 50
339.1682336529
 51
340.4236030818
  0
ARC
  5
2DD
330
1F
100
AcDbEntity
  8
0
  6
Continuous
 62
     7
370
    25
100
AcDbCircle
 10
1.102861809
 20
-0.4196377369
 30
0.0
 40
0.0175
100
AcDbArc
 50
159.1682336529
 51
243.3778455557
  0
ARC
  5
2DE
330
1F
100
AcDbEntity
  8
0
  6
Continuous
 62
     7
370
    25
100
AcDbCircle
 10
0.9595232315
 20
-0.7056020278
 30
0.0
 40
0.3023773570236735
100
AcDbArc
 50
54.4155123753
 51
63.3778455557
  0
ARC
  5
2DF
330
1F
100
AcDbEntity
  8
0
  6
Continuous
 62
     7
370
    25
100
AcDbCircle
 10
1.0440605335
 20
-0.5874540062
 30
0.0
 40
0.1570999999999887
100
AcDbArc
 50
34.5039609955
 51
54.4155123753
  0
ARC
  5
2E0
330
1F
100
AcDbEntity
  8
0
  6
Continuous
 62
     7
370
    25
100
AcDbCircle
 10
0.0
 20
0.0
 30
0.0
 40
1.274999999997771
100
AcDbArc
 50
335.2585897231
 51
336.9863082361
  0
ARC
  5
2E1
330
1F
100
AcDbEntity
  8
0
  6
Continuous
 62
     7
370
    25
100
AcDbCircle
 10
1.1368021012
 20
-0.3779491892
 30
0.0
 40
0.157099999999993
100
AcDbArc
 50
257.8293855839
 51
277.7409369637
  0
ARC
  5
2E2
330
1F
100
AcDbEntity
  8
0
  6
Continuous
 62
     7
370
    25
100
AcDbCircle
 10
1.1674299787
 20
-0.2359370645
 30
0.0
 40
0.302377357023587
100
AcDbArc
 50
248.8670524035
 51
257.8293855839
  0
ARC
  5
2E3
330
1F
100
AcDbEntity
  8
0
  6
Continuous
 62
     7
370
    25
100
AcDbCircle
 10
1.0521035594
 20
-0.534301507
 30
0.0
 40
0.0175000000000006
100
AcDbArc
 50
68.8670524035
 51
153.0766643063
  0
ARC
  5
2E4
330
1F
100
AcDbEntity
  8
0
  6
Continuous
 62
     7
370
    25
100
AcDbCircle
 10
0.0
 20
0.0
 30
0.0
 40
1.162499999993848
100
AcDbArc
 50
331.8212948774
 51
333.0766643063
  0
ARC
  5
2E5
330
1F
100
AcDbEntity
  8
0
  6
Continuous
 62
     7
370
    25
100
AcDbCircle
 10
1.0401452461
 20
-0.5572233547
 30
0.0
 40
0.0175000000000003
100
AcDbArc
 50
151.8212948774
 51
236.0309067802
  0
ARC
  5
2E6
330
1F
100
AcDbEntity
  8
0
  6
Continuous
 62
     7
370
    25
100
AcDbCircle
 10
0.8614151744
 20
-0.8225101524
 30
0.0
 40
0.3023773570236528
100
AcDbArc
 50
47.0685735998
 51
56.0309067802
  0
ARC
  5
2E7
330
1F
100
AcDbEntity
  8
0
  6
Continuous
 62
     7
370
    25
100
AcDbCircle
 10
0.96036686
 20
-0.7161425145
 30
0.0
 40
0.1570999999999852
100
AcDbArc
 50
27.15702222
 51
47.0685735998
  0
ARC
  5
2E8
330
1F
100
AcDbEntity
  8
0
  6
Continuous
 62
     7
370
    25
100
AcDbCircle
 10
0.0
 20
0.0
 30
0.0
 40
1.274999999998299
100
AcDbArc
 50
327.9116509476
 51
329.6393694605
  0
ARC
  5
2E9
330
1F
100
AcDbEntity
  8
0
  6
Continuous
 62
     7
370
    25
100
AcDbCircle
 10
1.0791379021
 20
-0.5202172577
 30
0.0
 40
0.157099999999978
100
AcDbArc
 50
250.4824468084
 51
270.3939981882
  0
ARC
  5
2EA
330
1F
100
AcDbEntity
  8
0
  6
Continuous
 62
     7
370
    25
100
AcDbCircle
 10
1.1276744325
 20
-0.3832876565
 30
0.0
 40
0.3023773570235996
100
AcDbArc
 50
241.5201136279
 51
250.4824468084
  0
ARC
  5
2EB
330
1F
100
AcDbEntity
  8
0
  6
Continuous
 62
     7
370
    25
100
AcDbCircle
 10
0.9751408435
 20
-0.6644549159
 30
0.0
 40
0.0175000000000001
100
AcDbArc
 50
61.5201136279
 51
145.7297255308
  0
ARC
  5
2EC
330
1F
100
AcDbEntity
  8
0
  6
Continuous
 62
     7
370
    25
100
AcDbCircle
 10
0.0
 20
0.0
 30
0.0
 40
1.1624999999929
100
AcDbArc
 50
324.4743561019
 51
325.7297255308
  0
ARC
  5
2ED
330
1F
100
AcDbEntity
  8
0
  6
Continuous
 62
     7
370
    25
100
AcDbCircle
 10
0.960349527
 20
-0.6856593805
 30
0.0
 40
0.0175000000000003
100
AcDbArc
 50
144.4743561019
 51
228.6839680047
  0
ARC
  5
2EE
330
1F
100
AcDbEntity
  8
0
  6
Continuous
 62
     7
370
    25
100
AcDbCircle
 10
0.749162704
 20
-0.9259126829
 30
0.0
 40
0.3023773570237345
100
AcDbArc
 50
39.7216348242
 51
48.6839680047
  0
ARC
  5
2EF
330
1F
100
AcDbEntity
  8
0
  6
Continuous
 62
     7
370
    25
100
AcDbCircle
 10
0.8609039893
 20
-0.8330719826
 30
0.0
 40
0.1570999999999937
100
AcDbArc
 50
19.8100834445
 51
39.7216348242
  0
ARC
  5
2F0
330
1F
100
AcDbEntity
  8
0
  6
Continuous
 62
     7
370
    25
100
AcDbCircle
 10
0.0
 20
0.0
 30
0.0
 40
1.274999999996879
100
AcDbArc
 50
320.5647121721
 51
322.292430685
  0
ARC
  5
2F1
330
1F
100
AcDbEntity
  8
0
  6
Continuous
 62
     7
370
    25
100
AcDbCircle
 10
1.0037542885
 20
-0.6539433732
 30
0.0
 40
0.1570999999999827
100
AcDbArc
 50
243.1355080329
 51
263.0470594127
  0
ARC
  5
2F2
330
1F
100
AcDbEntity
  8
0
  6
Continuous
 62
     7
370
    25
100
AcDbCircle
 10
1.0694025034
 20
-0.5243446759
 30
0.0
 40
0.3023773570236156
100
AcDbArc
 50
234.1731748524
 51
243.1355080329
  0
ARC
  5
2F3
330
1F
100
AcDbEntity
  8
0
  6
Continuous
 62
     7
370
    25
100
AcDbCircle
 10
0.8821663419
 20
-0.7836979936
 30
0.0
 40
0.0175000000000001
100
AcDbArc
 50
54.1731748524
 51
138.3827867553
  0
ARC
  5
2F4
330
1F
100
AcDbEntity
  8
0
  6
Continuous
 62
     7
370
    25
100
AcDbCircle
 10
0.0
 20
0.0
 30
0.0
 40
1.162499999993009
100
AcDbArc
 50
317.1274173264
 51
318.3827867553
  0
ARC
  5
2F5
330
1F
100
AcDbEntity
  8
0
  6
Continuous
 62
     7
370
    25
100
AcDbCircle
 10
0.8647848952
 20
-0.8028368982
 30
0.0
 40
0.0175000000000001
100
AcDbArc
 50
137.1274173264
 51
221.3370292292
  0
ARC
  5
2F6
330
1F
100
AcDbEntity
  8
0
  6
Continuous
 62
     7
370
    25
100
AcDbCircle
 10
0.6246090027
 20
-1.0141117528
 30
0.0
 40
0.3023773570236644
100
AcDbArc
 50
32.3746960487
 51
41.3370292292
  0
ARC
  5
2F7
330
1F
100
AcDbEntity
  8
0
  6
Continuous
 62
     7
370
    25
100
AcDbCircle
 10
0.7473050988
 20
-0.9363224318
 30
0.0
 40
0.1570999999999898
100
AcDbArc
 50
12.463144669
 51
32.3746960487
  0
ARC
  5
2F8
330
1F
100
AcDbEntity
  8
0
  6
Continuous
 62
     7
370
    25
100
AcDbCircle
 10
0.0
 20
0.0
 30
0.0
 40
1.274999999997471
100
AcDbArc
 50
313.2177733966
 51
314.9454919095
  0
ARC
  5
2F9
330
1F
100
AcDbEntity
  8
0
  6
Continuous
 62
     7
370
    25
100
AcDbCircle
 10
0.9118890572
 20
-0.7769317566
 30
0.0
 40
0.1571000000000026
100
AcDbArc
 50
235.7885692574
 51
255.7001206372
  0
ARC
  5
2FA
330
1F
100
AcDbEntity
  8
0
  6
Continuous
 62
     7
370
    25
100
AcDbCircle
 10
0.9935710147
 20
-0.6567919702
 30
0.0
 40
0.3023773570235824
100
AcDbArc
 50
226.8262360769
 51
235.7885692574
  0
ARC
  5
2FB
330
1F
100
AcDbEntity
  8
0
  6
Continuous
 62
     7
370
    25
100
AcDbCircle
 10
0.7747066934
 20
-0.8900727718
 30
0.0
 40
0.017499999999999
100
AcDbArc
 50
46.8262360769
 51
131.0358479798
  0
ARC
  5
2FC
330
1F
100
AcDbEntity
  8
0
  6
Continuous
 62
     7
370
    25
100
AcDbCircle
 10
0.0
 20
0.0
 30
0.0
 40
1.162499999994528
100
AcDbArc
 50
309.7804785509
 51
311.0358479798
  0
ARC
  5
2FD
330
1F
100
AcDbEntity
  8
0
  6
Continuous
 62
     7
370
    25
100
AcDbCircle
 10
0.7550205193
 20
-0.9068318562
 30
0.0
 40
0.0175000000000003
100
AcDbArc
 50
129.7804785509
 51
213.9900904537
  0
ARC
  5
2FE
330
1F
100
AcDbEntity
  8
0
  6
Continuous
 62
     7
370
    25
100
AcDbCircle
 10
0.4897992388
 20
-1.0856591358
 30
0.0
 40
0.3023773570237024
100
AcDbArc
 50
25.0277572732
 51
33.9900904537
  0
ARC
  5
2FF
330
1F
100
AcDbEntity
  8
0
  6
Continuous
 62
     7
370
    25
100
AcDbCircle
 10
0.6214354793
 20
-1.0241984925
 30
0.0
 40
0.1570999999999883
100
AcDbArc
 50
5.1162058935
 51
25.0277572732
  0
ARC
  5
300
330
1F
100
AcDbEntity
  8
0
  6
Continuous
 62
     7
370
    25
100
AcDbCircle
 10
0.0
 20
0.0
 30
0.0
 40
1.274999999997686
100
AcDbArc
 50
305.8708346211
 51
307.598553134
  0
ARC
  5
301
330
1F
100
AcDbEntity
  8
0
  6
Continuous
 62
     7
370
    25
100
AcDbCircle
 10
0.8050506327
 20
-0.887162942
 30
0.0
 40
0.1570999999999766
100
AcDbArc
 50
228.4416304819
 51
248.3531818617
  0
ARC
  5
302
330
1F
100
AcDbEntity
  8
0
  6
Continuous
 62
     7
370
    25
100
AcDbCircle
 10
0.9014251175
 20
-0.7784547585
 30
0.0
 40
0.3023773570236011
100
AcDbArc
 50
219.4792973014
 51
228.4416304819
  0
ARC
  5
303
330
1F
100
AcDbEntity
  8
0
  6
Continuous
 62
     7
370
    25
100
AcDbCircle
 10
0.6545263824
 20
-0.9818325798
 30
0.0
 40
0.0175000000000005
100
AcDbArc
 50
39.4792973014
 51
123.6889092042
  0
ARC
  5
304
330
1F
100
AcDbEntity
  8
0
  6
Continuous
 62
     7
370
    25
100
AcDbCircle
 10
0.0
 20
0.0
 30
0.0
 40
1.162499999995041
100
AcDbArc
 50
302.4335397754
 51
303.6889092042
  0
ARC
  5
305
330
1F
100
AcDbEntity
  8
0
  6
Continuous
 62
     7
370
    25
100
AcDbCircle
 10
0.6328587274
 20
-0.9959366602
 30
0.0
 40
0.0175000000000002
100
AcDbArc
 50
122.4335397754
 51
206.6431516782
  0
ARC
  5
306
330
1F
100
AcDbEntity
  8
0
  6
Continuous
 62
     7
370
    25
100
AcDbCircle
 10
0.346946985
 20
-1.1393800257
 30
0.0
 40
0.3023773570236726
100
AcDbArc
 50
17.6808184977
 51
26.6431516782
  0
ARC
  5
307
330
1F
100
AcDbEntity
  8
0
  6
Continuous
 62
     7
370
    25
100
AcDbCircle
 10
0.4853619063
 20
-1.0952572423
 30
0.0
 40
0.1570999999999884
100
AcDbArc
 50
357.7692671179
 51
17.6808184977
  0
ARC
  5
308
330
1F
100
AcDbEntity
  8
0
  6
Continuous
 62
     7
370
    25
100
AcDbCircle
 10
0.0
 20
0.0
 30
0.0
 40
1.274999999997675
100
AcDbArc
 50
298.5238958456
 51
300.2516143585
  0
ARC
  5
309
330
1F
100
AcDbEntity
  8
0
  6
Continuous
 62
     7
370
    25
100
AcDbCircle
 10
0.6849932992
 20
-0.9828269365
 30
0.0
 40
0.1570999999999985
100
AcDbArc
 50
221.0946917064
 51
241.0062430861
  0
ARC
  5
30A
330
1F
100
AcDbEntity
  8
0
  6
Continuous
 62
     7
370
    25
100
AcDbCircle
 10
0.7944778447
 20
-0.8873353412
 30
0.0
 40
0.3023773570235849
100
AcDbArc
 50
212.1323585259
 51
221.0946917064
  0
ARC
  5
30B
330
1F
100
AcDbEntity
  8
0
  6
Continuous
 62
     7
370
    25
100
AcDbCircle
 10
0.5235987663
 20
-1.0574707239
 30
0.0
 40
0.0175000000000002
100
AcDbArc
 50
32.1323585259
 51
116.3419704287
  0
ARC
  5
30C
330
1F
100
AcDbEntity
  8
0
  6
Continuous
 62
     7
370
    25
100
AcDbCircle
 10
0.0
 20
0.0
 30
0.0
 40
1.162499999995001
100
AcDbArc
 50
295.0866009998
 51
296.3419704287
  0
ARC
  5
30D
330
1F
100
AcDbEntity
  8
0
  6
Continuous
 62
     7
370
    25
100
AcDbCircle
 10
0.5003054127
 20
-1.0686882118
 30
0.0
 40
0.0175
100
AcDbArc
 50
115.0866009998
 51
199.2962129027
  0
ARC
  5
30E
330
1F
100
AcDbEntity
  8
0
  6
Continuous
 62
     7
370
    25
100
AcDbCircle
 10
0.1983978713
 20
-1.1743923272
 30
0.0
 40
0.3023773570237002
100
AcDbArc
 50
10.3338797222
 51
19.2962129027
  0
ARC
  5
30F
330
1F
100
AcDbEntity
  8
0
  6
Continuous
 62
     7
370
    25
100
AcDbCircle
 10
0.3413187043
 20
-1.1483318985
 30
0.0
 40
0.1570999999999887
100
AcDbArc
 50
350.4223283424
 51
10.3338797222
  0
ARC
  5
310
330
1F
100
AcDbEntity
  8
0
  6
Continuous
 62
     7
370
    25
100
AcDbCircle
 10
0.0
 20
0.0
 30
0.0
 40
1.274999999996461
100
AcDbArc
 50
291.1769570701
 51
292.904675583
  0
ARC
  5
311
330
1F
100
AcDbEntity
  8
0
  6
Continuous
 62
     7
370
    25
100
AcDbCircle
 10
0.5536883946
 20
-1.0623529398
 30
0.0
 40
0.1571000000000062
100
AcDbArc
 50
213.7477529309
 51
233.6593043106
  0
ARC
  5
312
330
1F
100
AcDbEntity
  8
0
  6
Continuous
 62
     7
370
    25
100
AcDbCircle
 10
0.6744852677
 20
-0.9816459021
 30
0.0
 40
0.3023773570236108
100
AcDbArc
 50
204.7854197504
 51
213.7477529309
  0
ARC
  5
313
330
1F
100
AcDbEntity
  8
0
  6
Continuous
 62
     7
370
    25
100
AcDbCircle
 10
0.384073673
 20
-1.115745228
 30
0.0
 40
0.0175000000000003
100
AcDbArc
 50
24.7854197504
 51
108.9950316532
  0
ARC
  5
314
330
1F
100
AcDbEntity
  8
0
  6
Continuous
 62
     7
370
    25
100
AcDbCircle
 10
0.0
 20
0.0
 30
0.0
 40
1.16249999999594
100
AcDbArc
 50
287.7396622243
 51
288.9950316532
  0
ARC
  5
315
330
1F
100
AcDbEntity
  8
0
  6
Continuous
 62
     7
370
    25
100
AcDbCircle
 10
0.3595370969
 20
-1.1238919325
 30
0.0
 40
0.0174999999999999
100
AcDbArc
 50
107.7396622243
 51
191.9492741272
  0
ARC
  5
316
330
1F
100
AcDbEntity
  8
0
  6
Continuous
 62
     7
370
    25
100
AcDbCircle
 10
0.04659107
 20
-1.1901211391
 30
0.0
 40
0.3023773570236656
100
AcDbArc
 50
2.9869409467
 51
11.9492741272
  0
ARC
  5
317
330
1F
100
AcDbEntity
  8
0
  6
Continuous
 62
     7
370
    25
100
AcDbCircle
 10
0.1916710586
 20
-1.1825509766
 30
0.0
 40
0.1570999999999921
100
AcDbArc
 50
343.0753895669
 51
2.9869409467
  0
ARC
  5
318
330
1F
100
AcDbEntity
  8
0
  6
Continuous
 62
     7
370
    25
100
AcDbCircle
 10
0.0
 20
0.0
 30
0.0
 40
1.274999999997106
100
AcDbArc
 50
283.8300182946
 51
285.5577368075
  0
ARC
  5
319
330
1F
100
AcDbEntity
  8
0
  6
Continuous
 62
     7
370
    25
100
AcDbCircle
 10
0.4132919419
 20
-1.1244351372
 30
0.0
 40
0.157099999999978
100
AcDbArc
 50
206.4008141553
 51
226.3123655351
  0
ARC
  5
31A
330
1F
100
AcDbEntity
  8
0
  6
Continuous
 62
     7
370
    25
100
AcDbCircle
 10
0.5434176612
 20
-1.0598378645
 30
0.0
 40
0.3023773570235973
100
AcDbArc
 50
197.4384809749
 51
206.4008141553
  0
ARC
  5
31B
330
1F
100
AcDbEntity
  8
0
  6
Continuous
 62
     7
370
    25
100
AcDbCircle
 10
0.2382421005
 20
-1.1556992262
 30
0.0
 40
0.0174999999999998
100
AcDbArc
 50
17.4384809749
 51
101.6480928777
  0
ARC
  5
31C
330
1F
100
AcDbEntity
  8
0
  6
Continuous
 62
     7
370
    25
100
AcDbCircle
 10
0.0
 20
0.0
 30
0.0
 40
1.162499999995841
100
AcDbArc
 50
280.3927234488
 51
281.6480928777
  0
ARC
  5
31D
330
1F
100
AcDbEntity
  8
0
  6
Continuous
 62
     7
370
    25
100
AcDbCircle
 10
0.2128651919
 20
-1.1606413788
 30
0.0
 40
0.0175
100
AcDbArc
 50
100.3927234488
 51
184.6023353516
  0
ARC
  5
31E
330
1F
100
AcDbEntity
  8
0
  6
Continuous
 62
     7
370
    25
100
AcDbCircle
 10
-0.1059807554
 20
-1.1863081947
 30
0.0
 40
0.3023773570236878
100
AcDbArc
 50
355.6400021712
 51
4.6023353516
  0
ARC
  5
31F
330
1F
100
AcDbEntity
  8
0
  6
Continuous
 62
     7
370
    25
100
AcDbCircle
 10
0.0388761795
 20
-1.1973526004
 30
0.0
 40
0.1570999999999881
100
AcDbArc
 50
335.7284507914
 51
355.6400021712
  0
ARC
  5
320
330
1F
100
AcDbEntity
  8
0
  6
Continuous
 62
     7
370
    25
100
AcDbCircle
 10
0.0
 20
0.0
 30
0.0
 40
1.274999999998685
100
AcDbArc
 50
276.483079519
 51
278.210798032
  0
ARC
  5
321
330
1F
100
AcDbEntity
  8
0
  6
Continuous
 62
     7
370
    25
100
AcDbCircle
 10
0.2661092469
 20
-1.1680541407
 30
0.0
 40
0.1570999999999938
100
AcDbArc
 50
199.0538753798
 51
218.9654267596
  0
ARC
  5
322
330
1F
100
AcDbEntity
  8
0
  6
Continuous
 62
     7
370
    25
100
AcDbCircle
 10
0.4034271518
 20
-1.1206273184
 30
0.0
 40
0.3023773570235969
100
AcDbArc
 50
190.0915421994
 51
199.0538753798
  0
ARC
  5
323
330
1F
100
AcDbEntity
  8
0
  6
Continuous
 62
     7
370
    25
100
AcDbCircle
 10
0.0884985993
 20
-1.1766766752
 30
0.0
 40
0.0175
100
AcDbArc
 50
10.0915421994
 51
94.3011541022
  0
ARC
  5
324
330
1F
100
AcDbEntity
  8
0
  6
Continuous
 62
     7
370
    25
100
AcDbCircle
 10
0.0
 20
0.0
 30
0.0
 40
1.162499999993666
100
AcDbArc
 50
273.0457846733
 51
274.3011541022
  0
ARC
  5
325
330
1F
100
AcDbEntity
  8
0
  6
Continuous
 62
     7
370
    25
100
AcDbCircle
 10
0.0626980464
 20
-1.1783331256
 30
0.0
 40
0.0175000000000002
100
AcDbArc
 50
93.0457846733
 51
177.2553965761
  0
ARC
  5
326
330
1F
100
AcDbEntity
  8
0
  6
Continuous
 62
     7
370
    25
100
AcDbCircle
 10
-0.2568123796
 20
-1.1630161027
 30
0.0
 40
0.3023773570236846
100
AcDbArc
 50
348.2930633957
 51
357.2553965761
  0
ARC
  5
327
330
1F
100
AcDbEntity
  8
0
  6
Continuous
 62
     7
370
    25
100
AcDbCircle
 10
-0.1145570455
 20
-1.1924937276
 30
0.0
 40
0.1570999999999845
100
AcDbArc
 50
328.3815120159
 51
348.2930633957
  0
ARC
  5
328
330
1F
100
AcDbEntity
  8
0
  6
Continuous
 62
     7
370
    25
100
AcDbCircle
 10
0.0
 20
0.0
 30
0.0
 40
1.274999999997106
100
AcDbArc
 50
269.1361407435
 51
270.8638592565
  0
ARC
  5
329
330
1F
100
AcDbEntity
  8
0
  6
Continuous
 62
     7
370
    25
100
AcDbCircle
 10
0.1145570455
 20
-1.1924937276
 30
0.0
 40
0.1570999999999934
100
AcDbArc
 50
191.7069366043
 51
211.6184879841
  0
ARC
  5
32A
330
1F
100
AcDbEntity
  8
0
  6
Continuous
 62
     7
370
    25
100
AcDbCircle
 10
0.2568123796
 20
-1.1630161027
 30
0.0
 40
0.3023773570236037
100
AcDbArc
 50
182.7446034239
 51
191.7069366043
  0
ARC
  5
32B
330
1F
100
AcDbEntity
  8
0
  6
Continuous
 62
     7
370
    25
100
AcDbCircle
 10
-0.0626980464
 20
-1.1783331256
 30
0.0
 40
0.0175000000000004
100
AcDbArc
 50
2.7446034239
 51
86.9542153267
  0
ARC
  5
32C
330
1F
100
AcDbEntity
  8
0
  6
Continuous
 62
     7
370
    25
100
AcDbCircle
 10
0.0
 20
0.0
 30
0.0
 40
1.162499999993621
100
AcDbArc
 50
265.6988458978
 51
266.9542153267
  0
ARC
  5
32D
330
1F
100
AcDbEntity
  8
0
  6
Continuous
 62
     7
370
    25
100
AcDbCircle
 10
-0.0884985993
 20
-1.1766766752
 30
0.0
 40
0.0174999999999998
100
AcDbArc
 50
85.6988458978
 51
169.9084578006
  0
ARC
  5
32E
330
1F
100
AcDbEntity
  8
0
  6
Continuous
 62
     7
370
    25
100
AcDbCircle
 10
-0.4034271518
 20
-1.1206273184
 30
0.0
 40
0.3023773570236574
100
AcDbArc
 50
340.9461246202
 51
349.9084578006
  0
ARC
  5
32F
330
1F
100
AcDbEntity
  8
0
  6
Continuous
 62
     7
370
    25
100
AcDbCircle
 10
-0.2661092469
 20
-1.1680541407
 30
0.0
 40
0.1570999999999946
100
AcDbArc
 50
321.0345732404
 51
340.9461246202
  0
ARC
  5
330
330
1F
100
AcDbEntity
  8
0
  6
Continuous
 62
     7
370
    25
100
AcDbCircle
 10
0.0
 20
0.0
 30
0.0
 40
1.275000000000167
100
AcDbArc
 50
261.789201968
 51
263.516920481
  0
ARC
  5
331
330
1F
100
AcDbEntity
  8
0
  6
Continuous
 62
     7
370
    25
100
AcDbCircle
 10
-0.0388761795
 20
-1.1973526004
 30
0.0
 40
0.1570999999999839
100
AcDbArc
 50
184.3599978288
 51
204.2715492086
  0
ARC
  5
332
330
1F
100
AcDbEntity
  8
0
  6
Continuous
 62
     7
370
    25
100
AcDbCircle
 10
0.1059807554
 20
-1.1863081947
 30
0.0
 40
0.3023773570236098
100
AcDbArc
 50
175.3976646484
 51
184.3599978288
  0
ARC
  5
333
330
1F
100
AcDbEntity
  8
0
  6
Continuous
 62
     7
370
    25
100
AcDbCircle
 10
-0.2128651919
 20
-1.1606413788
 30
0.0
 40
0.0175000000000003
100
AcDbArc
 50
355.3976646484
 51
79.6072765512
  0
ARC
  5
334
330
1F
100
AcDbEntity
  8
0
  6
Continuous
 62
     7
370
    25
100
AcDbCircle
 10
0.0
 20
0.0
 30
0.0
 40
1.162499999997066
100
AcDbArc
 50
258.3519071223
 51
259.6072765512
  0
ARC
  5
335
330
1F
100
AcDbEntity
  8
0
  6
Continuous
 62
     7
370
    25
100
AcDbCircle
 10
-0.2382421005
 20
-1.1556992262
 30
0.0
 40
0.0174999999999998
100
AcDbArc
 50
78.3519071223
 51
162.5615190251
  0
ARC
  5
336
330
1F
100
AcDbEntity
  8
0
  6
Continuous
 62
     7
370
    25
100
AcDbCircle
 10
-0.5434176612
 20
-1.0598378645
 30
0.0
 40
0.3023773570236399
100
AcDbArc
 50
333.5991858447
 51
342.5615190251
  0
ARC
  5
337
330
1F
100
AcDbEntity
  8
0
  6
Continuous
 62
     7
370
    25
100
AcDbCircle
 10
-0.4132919419
 20
-1.1244351372
 30
0.0
 40
0.1570999999999816
100
AcDbArc
 50
313.6876344649
 51
333.5991858447
  0
ARC
  5
338
330
1F
100
AcDbEntity
  8
0
  6
Continuous
 62
     7
370
    25
100
AcDbCircle
 10
0.0
 20
0.0
 30
0.0
 40
1.274999999997164
100
AcDbArc
 50
254.4422631925
 51
256.1699817054
  0
ARC
  5
339
330
1F
100
AcDbEntity
  8
0
  6
Continuous
 62
     7
370
    25
100
AcDbCircle
 10
-0.1916710586
 20
-1.1825509766
 30
0.0
 40
0.1571000000000031
100
AcDbArc
 50
177.0130590533
 51
196.9246104331
  0
ARC
  5
33A
330
1F
100
AcDbEntity
  8
0
  6
Continuous
 62
     7
370
    25
100
AcDbCircle
 10
-0.04659107
 20
-1.1901211391
 30
0.0
 40
0.3023773570236125
100
AcDbArc
 50
168.0507258728
 51
177.0130590533
  0
ARC
  5
33B
330
1F
100
AcDbEntity
  8
0
  6
Continuous
 62
     7
370
    25
100
AcDbCircle
 10
-0.3595370969
 20
-1.1238919325
 30
0.0
 40
0.0175000000000005
100
AcDbArc
 50
348.0507258728
 51
72.2603377757
  0
ARC
  5
33C
330
1F
100
AcDbEntity
  8
0
  6
Continuous
 62
     7
370
    25
100
AcDbCircle
 10
0.0
 20
0.0
 30
0.0
 40
1.162499999993614
100
AcDbArc
 50
251.0049683468
 51
252.2603377757
  0
ARC
  5
33D
330
1F
100
AcDbEntity
  8
0
  6
Continuous
 62
     7
370
    25
100
AcDbCircle
 10
-0.384073673
 20
-1.115745228
 30
0.0
 40
0.0175
100
AcDbArc
 50
71.0049683468
 51
155.2145802496
  0
ARC
  5
33E
330
1F
100
AcDbEntity
  8
0
  6
Continuous
 62
     7
370
    25
100
AcDbCircle
 10
-0.6744852677
 20
-0.9816459021
 30
0.0
 40
0.3023773570236904
100
AcDbArc
 50
326.2522470691
 51
335.2145802496
  0
ARC
  5
33F
330
1F
100
AcDbEntity
  8
0
  6
Continuous
 62
     7
370
    25
100
AcDbCircle
 10
-0.5536883946
 20
-1.0623529398
 30
0.0
 40
0.1570999999999926
100
AcDbArc
 50
306.3406956894
 51
326.2522470691
  0
ARC
  5
340
330
1F
100
AcDbEntity
  8
0
  6
Continuous
 62
     7
370
    25
100
AcDbCircle
 10
0.0
 20
0.0
 30
0.0
 40
1.27499999999645
100
AcDbArc
 50
247.095324417
 51
248.8230429299
  0
ARC
  5
341
330
1F
100
AcDbEntity
  8
0
  6
Continuous
 62
     7
370
    25
100
AcDbCircle
 10
-0.3413187043
 20
-1.1483318985
 30
0.0
 40
0.1571000000000107
100
AcDbArc
 50
169.6661202778
 51
189.5776716576
  0
ARC
  5
342
330
1F
100
AcDbEntity
  8
0
  6
Continuous
 62
     7
370
    25
100
AcDbCircle
 10
-0.1983978713
 20
-1.1743923272
 30
0.0
 40
0.302377357023593
100
AcDbArc
 50
160.7037870973
 51
169.6661202778
  0
ARC
  5
343
330
1F
100
AcDbEntity
  8
0
  6
Continuous
 62
     7
370
    25
100
AcDbCircle
 10
-0.5003054127
 20
-1.0686882118
 30
0.0
 40
0.0175
100
AcDbArc
 50
340.7037870973
 51
64.9133990002
  0
ARC
  5
344
330
1F
100
AcDbEntity
  8
0
  6
Continuous
 62
     7
370
    25
100
AcDbCircle
 10
0.0
 20
0.0
 30
0.0
 40
1.162499999995031
100
AcDbArc
 50
243.6580295713
 51
244.9133990002
  0
ARC
  5
345
330
1F
100
AcDbEntity
  8
0
  6
Continuous
 62
     7
370
    25
100
AcDbCircle
 10
-0.5235987663
 20
-1.0574707239
 30
0.0
 40
0.0175000000000002
100
AcDbArc
 50
63.6580295713
 51
147.8676414741
  0
ARC
  5
346
330
1F
100
AcDbEntity
  8
0
  6
Continuous
 62
     7
370
    25
100
AcDbCircle
 10
-0.7944778447
 20
-0.8873353412
 30
0.0
 40
0.3023773570236555
100
AcDbArc
 50
318.9053082936
 51
327.8676414741
  0
ARC
  5
347
330
1F
100
AcDbEntity
  8
0
  6
Continuous
 62
     7
370
    25
100
AcDbCircle
 10
-0.6849932992
 20
-0.9828269365
 30
0.0
 40
0.1570999999999825
100
AcDbArc
 50
298.9937569139
 51
318.9053082936
  0
ARC
  5
348
330
1F
100
AcDbEntity
  8
0
  6
Continuous
 62
     7
370
    25
100
AcDbCircle
 10
0.0
 20
0.0
 30
0.0
 40
1.274999999996682
100
AcDbArc
 50
239.7483856415
 51
241.4761041544
  0
ARC
  5
349
330
1F
100
AcDbEntity
  8
0
  6
Continuous
 62
     7
370
    25
100
AcDbCircle
 10
-0.4853619063
 20
-1.0952572423
 30
0.0
 40
0.1570999999999902
100
AcDbArc
 50
162.3191815023
 51
182.2307328821
  0
ARC
  5
34A
330
1F
100
AcDbEntity
  8
0
  6
Continuous
 62
     7
370
    25
100
AcDbCircle
 10
-0.346946985
 20
-1.1393800257
 30
0.0
 40
0.3023773570236007
100
AcDbArc
 50
153.3568483218
 51
162.3191815023
  0
ARC
  5
34B
330
1F
100
AcDbEntity
  8
0
  6
Continuous
 62
     7
370
    25
100
AcDbCircle
 10
-0.6328587274
 20
-0.9959366602
 30
0.0
 40
0.0175000000000003
100
AcDbArc
 50
333.3568483218
 51
57.5664602246
  0
ARC
  5
34C
330
1F
100
AcDbEntity
  8
0
  6
Continuous
 62
     7
370
    25
100
AcDbCircle
 10
0.0
 20
0.0
 30
0.0
 40
1.162499999995161
100
AcDbArc
 50
236.3110907958
 51
237.5664602247
  0
ARC
  5
34D
330
1F
100
AcDbEntity
  8
0
  6
Continuous
 62
     7
370
    25
100
AcDbCircle
 10
-0.6545263824
 20
-0.9818325798
 30
0.0
 40
0.0175000000000002
100
AcDbArc
 50
56.3110907958
 51
140.5207026986
  0
ARC
  5
34E
330
1F
100
AcDbEntity
  8
0
  6
Continuous
 62
     7
370
    25
100
AcDbCircle
 10
-0.9014251175
 20
-0.7784547585
 30
0.0
 40
0.302377357023692
100
AcDbArc
 50
311.5583695181
 51
320.5207026986
  0
ARC
  5
34F
330
1F
100
AcDbEntity
  8
0
  6
Continuous
 62
     7
370
    25
100
AcDbCircle
 10
-0.8050506327
 20
-0.887162942
 30
0.0
 40
0.1570999999999883
100
AcDbArc
 50
291.6468181383
 51
311.5583695181
  0
ARC
  5
350
330
1F
100
AcDbEntity
  8
0
  6
Continuous
 62
     7
370
    25
100
AcDbCircle
 10
0.0
 20
0.0
 30
0.0
 40
1.274999999998348
100
AcDbArc
 50
232.401446866
 51
234.1291653789
  0
ARC
  5
351
330
1F
100
AcDbEntity
  8
0
  6
Continuous
 62
     7
370
    25
100
AcDbCircle
 10
-0.6214354793
 20
-1.0241984925
 30
0.0
 40
0.157099999999998
100
AcDbArc
 50
154.9722427268
 51
174.8837941065
  0
ARC
  5
352
330
1F
100
AcDbEntity
  8
0
  6
Continuous
 62
     7
370
    25
100
AcDbCircle
 10
-0.4897992388
 20
-1.0856591358
 30
0.0
 40
0.3023773570235641
100
AcDbArc
 50
146.0099095463
 51
154.9722427268
  0
ARC
  5
353
330
1F
100
AcDbEntity
  8
0
  6
Continuous
 62
     7
370
    25
100
AcDbCircle
 10
-0.7550205193
 20
-0.9068318562
 30
0.0
 40
0.0174999999999997
100
AcDbArc
 50
326.0099095463
 51
50.2195214491
  0
ARC
  5
354
330
1F
100
AcDbEntity
  8
0
  6
Continuous
 62
     7
370
    25
100
AcDbCircle
 10
0.0
 20
0.0
 30
0.0
 40
1.162499999994216
100
AcDbArc
 50
228.9641520202
 51
230.2195214491
  0
ARC
  5
355
330
1F
100
AcDbEntity
  8
0
  6
Continuous
 62
     7
370
    25
100
AcDbCircle
 10
-0.7747066934
 20
-0.8900727718
 30
0.0
 40
0.0175000000000001
100
AcDbArc
 50
48.9641520203
 51
133.1737639231
  0
ARC
  5
356
330
1F
100
AcDbEntity
  8
0
  6
Continuous
 62
     7
370
    25
100
AcDbCircle
 10
-0.9935710147
 20
-0.6567919702
 30
0.0
 40
0.3023773570236947
100
AcDbArc
 50
304.2114307426
 51
313.1737639231
  0
ARC
  5
357
330
1F
100
AcDbEntity
  8
0
  6
Continuous
 62
     7
370
    25
100
AcDbCircle
 10
-0.9118890572
 20
-0.7769317566
 30
0.0
 40
0.1570999999999942
100
AcDbArc
 50
284.2998793628
 51
304.2114307426
  0
ARC
  5
358
330
1F
100
AcDbEntity
  8
0
  6
Continuous
 62
     7
370
    25
100
AcDbCircle
 10
0.0
 20
0.0
 30
0.0
 40
1.274999999999807
100
AcDbArc
 50
225.0545080905
 51
226.7822266034
  0
ARC
  5
359
330
1F
100
AcDbEntity
  8
0
  6
Continuous
 62
     7
370
    25
100
AcDbCircle
 10
-0.7473050988
 20
-0.9363224318
 30
0.0
 40
0.1570999999999908
100
AcDbArc
 50
147.6253039513
 51
167.536855331
  0
ARC
  5
35A
330
1F
100
AcDbEntity
  8
0
  6
Continuous
 62
     7
370
    25
100
AcDbCircle
 10
-0.6246090027
 20
-1.0141117528
 30
0.0
 40
0.3023773570235472
100
AcDbArc
 50
138.6629707708
 51
147.6253039513
  0
ARC
  5
35B
330
1F
100
AcDbEntity
  8
0
  6
Continuous
 62
     7
370
    25
100
AcDbCircle
 10
-0.8647848952
 20
-0.8028368982
 30
0.0
 40
0.0174999999999999
100
AcDbArc
 50
318.6629707708
 51
42.8725826736
  0
ARC
  5
35C
330
1F
100
AcDbEntity
  8
0
  6
Continuous
 62
     7
370
    25
100
AcDbCircle
 10
0.0
 20
0.0
 30
0.0
 40
1.162499999997185
100
AcDbArc
 50
221.6172132447
 51
222.8725826736
  0
ARC
  5
35D
330
1F
100
AcDbEntity
  8
0
  6
Continuous
 62
     7
370
    25
100
AcDbCircle
 10
-0.8821663419
 20
-0.7836979936
 30
0.0
 40
0.0175000000000002
100
AcDbArc
 50
41.6172132447
 51
125.8268251476
  0
ARC
  5
35E
330
1F
100
AcDbEntity
  8
0
  6
Continuous
 62
     7
370
    25
100
AcDbCircle
 10
-1.0694025034
 20
-0.5243446759
 30
0.0
 40
0.3023773570236659
100
AcDbArc
 50
296.8644919671
 51
305.8268251476
  0
ARC
  5
35F
330
1F
100
AcDbEntity
  8
0
  6
Continuous
 62
     7
370
    25
100
AcDbCircle
 10
-1.0037542885
 20
-0.6539433732
 30
0.0
 40
0.1570999999999996
100
AcDbArc
 50
276.9529405873
 51
296.8644919671
  0
ARC
  5
360
330
1F
100
AcDbEntity
  8
0
  6
Continuous
 62
     7
370
    25
100
AcDbCircle
 10
0.0
 20
0.0
 30
0.0
 40
1.274999999996149
100
AcDbArc
 50
217.707569315
 51
219.4352878279
  0
ARC
  5
361
330
1F
100
AcDbEntity
  8
0
  6
Continuous
 62
     7
370
    25
100
AcDbCircle
 10
-0.8609039893
 20
-0.8330719826
 30
0.0
 40
0.1570999999999805
100
AcDbArc
 50
140.2783651758
 51
160.1899165555
  0
ARC
  5
362
330
1F
100
AcDbEntity
  8
0
  6
Continuous
 62
     7
370
    25
100
AcDbCircle
 10
-0.749162704
 20
-0.9259126829
 30
0.0
 40
0.3023773570235226
100
AcDbArc
 50
131.3160319953
 51
140.2783651758
  0
ARC
  5
363
330
1F
100
AcDbEntity
  8
0
  6
Continuous
 62
     7
370
    25
100
AcDbCircle
 10
-0.960349527
 20
-0.6856593805
 30
0.0
 40
0.0175000000000001
100
AcDbArc
 50
311.3160319953
 51
35.5256438981
  0
ARC
  5
364
330
1F
100
AcDbEntity
  8
0
  6
Continuous
 62
     7
370
    25
100
AcDbCircle
 10
0.0
 20
0.0
 30
0.0
 40
1.162499999996113
100
AcDbArc
 50
214.2702744692
 51
215.5256438981
  0
ARC
  5
365
330
1F
100
AcDbEntity
  8
0
  6
Continuous
 62
     7
370
    25
100
AcDbCircle
 10
-0.9751408435
 20
-0.6644549159
 30
0.0
 40
0.0175
100
AcDbArc
 50
34.2702744692
 51
118.4798863721
  0
ARC
  5
366
330
1F
100
AcDbEntity
  8
0
  6
Continuous
 62
     7
370
    25
100
AcDbCircle
 10
-1.1276744325
 20
-0.3832876565
 30
0.0
 40
0.30237735702368
100
AcDbArc
 50
289.5175531916
 51
298.4798863721
  0
ARC
  5
367
330
1F
100
AcDbEntity
  8
0
  6
Continuous
 62
     7
370
    25
100
AcDbCircle
 10
-1.0791379021
 20
-0.5202172577
 30
0.0
 40
0.1570999999999862
100
AcDbArc
 50
269.6060018118
 51
289.5175531916
  0
ARC
  5
368
330
1F
100
AcDbEntity
  8
0
  6
Continuous
 62
     7
370
    25
100
AcDbCircle
 10
0.0
 20
0.0
 30
0.0
 40
1.274999999998113
100
AcDbArc
 50
210.3606305395
 51
212.0883490524
  0
ARC
  5
369
330
1F
100
AcDbEntity
  8
0
  6
Continuous
 62
     7
370
    25
100
AcDbCircle
 10
-0.96036686
 20
-0.7161425145
 30
0.0
 40
0.1571000000000141
100
AcDbArc
 50
132.9314264002
 51
152.84297778
  0
ARC
  5
36A
330
1F
100
AcDbEntity
  8
0
  6
Continuous
 62
     7
370
    25
100
AcDbCircle
 10
-0.8614151744
 20
-0.8225101524
 30
0.0
 40
0.3023773570235692
100
AcDbArc
 50
123.9690932198
 51
132.9314264002
  0
ARC
  5
36B
330
1F
100
AcDbEntity
  8
0
  6
Continuous
 62
     7
370
    25
100
AcDbCircle
 10
-1.0401452461
 20
-0.5572233547
 30
0.0
 40
0.0174999999999999
100
AcDbArc
 50
303.9690932198
 51
28.1787051226
  0
ARC
  5
36C
330
1F
100
AcDbEntity
  8
0
  6
Continuous
 62
     7
370
    25
100
AcDbCircle
 10
0.0
 20
0.0
 30
0.0
 40
1.162499999994673
100
AcDbArc
 50
206.9233356937
 51
208.1787051226
  0
ARC
  5
36D
330
1F
100
AcDbEntity
  8
0
  6
Continuous
 62
     7
370
    25
100
AcDbCircle
 10
-1.0521035594
 20
-0.534301507
 30
0.0
 40
0.0175000000000004
100
AcDbArc
 50
26.9233356937
 51
111.1329475965
  0
ARC
  5
36E
330
1F
100
AcDbEntity
  8
0
  6
Continuous
 62
     7
370
    25
100
AcDbCircle
 10
-1.1674299787
 20
-0.2359370645
 30
0.0
 40
0.3023773570236913
100
AcDbArc
 50
282.1706144161
 51
291.1329475965
  0
ARC
  5
36F
330
1F
100
AcDbEntity
  8
0
  6
Continuous
 62
     7
370
    25
100
AcDbCircle
 10
-1.1368021012
 20
-0.3779491892
 30
0.0
 40
0.1570999999999838
100
AcDbArc
 50
262.2590630363
 51
282.1706144161
  0
ARC
  5
370
330
1F
100
AcDbEntity
  8
0
  6
Continuous
 62
     7
370
    25
100
AcDbCircle
 10
0.0
 20
0.0
 30
0.0
 40
1.274999999996491
100
AcDbArc
 50
203.0136917639
 51
204.7414102769
  0
ARC
  5
371
330
1F
100
AcDbEntity
  8
0
  6
Continuous
 62
     7
370
    25
100
AcDbCircle
 10
-1.0440605335
 20
-0.5874540062
 30
0.0
 40
0.1571000000000082
100
AcDbArc
 50
125.5844876247
 51
145.4960390045
  0
ARC
  5
372
330
1F
100
AcDbEntity
  8
0
  6
Continuous
 62
     7
370
    25
100
AcDbCircle
 10
-0.9595232315
 20
-0.7056020278
 30
0.0
 40
0.3023773570236095
100
AcDbArc
 50
116.6221544443
 51
125.5844876247
  0
ARC
  5
373
330
1F
100
AcDbEntity
  8
0
  6
Continuous
 62
     7
370
    25
100
AcDbCircle
 10
-1.102861809
 20
-0.4196377369
 30
0.0
 40
0.0175000000000004
100
AcDbArc
 50
296.6221544443
 51
20.8317663471
  0
ARC
  5
374
330
1F
100
AcDbEntity
  8
0
  6
Continuous
 62
     7
370
    25
100
AcDbCircle
 10
0.0
 20
0.0
 30
0.0
 40
1.162499999996585
100
AcDbArc
 50
199.5763969182
 51
200.8317663471
  0
ARC
  5
375
330
1F
100
AcDbEntity
  8
0
  6
Continuous
 62
     7
370
    25
100
AcDbCircle
 10
-1.1117907639
 20
-0.395374882
 30
0.0
 40
0.0175000000000001
100
AcDbArc
 50
19.5763969182
 51
103.786008821
  0
ARC
  5
376
330
1F
100
AcDbEntity
  8
0
  6
Continuous
 62
     7
370
    25
100
AcDbCircle
 10
-1.1880163568
 20
-0.0847123923
 30
0.0
 40
0.3023773570236703
100
AcDbArc
 50
274.8236756406
 51
283.786008821
  0
ARC
  5
377
330
1F
100
AcDbEntity
  8
0
  6
Continuous
 62
     7
370
    25
100
AcDbCircle
 10
-1.1758000413
 20
-0.2294752055
 30
0.0
 40
0.1570999999999892
100
AcDbArc
 50
254.9121242608
 51
274.8236756406
  0
ARC
  5
378
330
1F
100
AcDbEntity
  8
0
  6
Continuous
 62
     7
370
    25
100
AcDbCircle
 10
0.0
 20
0.0
 30
0.0
 40
1.274999999997348
100
AcDbArc
 50
195.6667529884
 51
197.3944715014
  0
ARC
  5
379
330
1F
100
AcDbEntity
  8
0
  6
Continuous
 62
     7
370
    25
100
AcDbCircle
 10
-1.1106107619
 20
-0.4491195192
 30
0.0
 40
0.1571000000000056
100
AcDbArc
 50
118.2375488492
 51
138.149100229
  0
ARC
  5
37A
330
1F
100
AcDbEntity
  8
0
  6
Continuous
 62
     7
370
    25
100
AcDbCircle
 10
-1.0418759436
 20
-0.5771079375
 30
0.0
 40
0.3023773570235972
100
AcDbArc
 50
109.2752156688
 51
118.2375488492
  0
ARC
  5
37B
330
1F
100
AcDbEntity
  8
0
  6
Continuous
 62
     7
370
    25
100
AcDbCircle
 10
-1.1474694115
 20
-0.275161679
 30
0.0
 40
0.0174999999999999
100
AcDbArc
 50
289.2752156688
 51
13.4848275716
  0
ARC
  5
37C
330
1F
100
AcDbEntity
  8
0
  6
Continuous
 62
     7
370
    25
100
AcDbCircle
 10
0.0
 20
0.0
 30
0.0
 40
1.162499999994512
100
AcDbArc
 50
192.2294581427
 51
193.4848275716
  0
ARC
  5
37D
330
1F
100
AcDbEntity
  8
0
  6
Continuous
 62
     7
370
    25
100
AcDbCircle
 10
-1.1532223948
 20
-0.2499562124
 30
0.0
 40
0.0174999999999999
100
AcDbArc
 50
12.2294581427
 51
96.4390700455
  0
ARC
  5
37E
330
1F
100
AcDbEntity
  8
0
  6
Continuous
 62
     7
370
    25
100
AcDbCircle
 10
-1.1890955392
 20
0.067903255
 30
0.0
 40
0.3023773570236578
100
AcDbArc
 50
267.4767368651
 51
276.4390700455
  0
ARC
  5
37F
330
1F
100
AcDbEntity
  8
0
  6
Continuous
 62
     7
370
    25
100
AcDbCircle
 10
-1.1954913771
 20
-0.0772332453
 30
0.0
 40
0.1570999999999982
100
AcDbArc
 50
247.5651854853
 51
267.4767368651
  0
ARC
  5
380
330
1F
100
AcDbEntity
  8
0
  6
Continuous
 62
     7
370
    25
100
AcDbCircle
 10
0.0
 20
0.0
 30
0.0
 40
1.274999999997183
100
AcDbArc
 50
188.3198142129
 51
190.0475327259
  0
ARC
  5
381
330
1F
100
AcDbEntity
  8
0
  6
Continuous
 62
     7
370
    25
100
AcDbCircle
 10
-1.1589247923
 20
-0.3034105022
 30
0.0
 40
0.1570999999999895
100
AcDbArc
 50
110.8906100737
 51
130.8021614535
  0
ARC
  5
382
330
1F
100
AcDbEntity
  8
0
  6
Continuous
 62
     7
370
    25
100
AcDbCircle
 10
-1.1071210815
 20
-0.4391377509
 30
0.0
 40
0.3023773570235821
100
AcDbArc
 50
101.9282768933
 51
110.8906100737
  0
ARC
  5
383
330
1F
100
AcDbEntity
  8
0
  6
Continuous
 62
     7
370
    25
100
AcDbCircle
 10
-1.173235598
 20
-0.1261674739
 30
0.0
 40
0.0175000000000005
100
AcDbArc
 50
281.9282768933
 51
6.1378887961
  0
ARC
  5
384
330
1F
100
AcDbEntity
  8
0
  6
Continuous
 62
     7
370
    25
100
AcDbCircle
 10
0.0
 20
0.0
 30
0.0
 40
1.16249999999509
100
AcDbArc
 50
184.8825193672
 51
186.1378887961
  0
ARC
  5
385
330
1F
100
AcDbEntity
  8
0
  6
Continuous
 62
     7
370
    25
100
AcDbCircle
 10
-1.1757181459
 20
-0.1004332687
 30
0.0
 40
0.0175
100
AcDbArc
 50
4.8825193672
 51
89.09213127
  0
ARC
  5
386
330
1F
100
AcDbEntity
  8
0
  6
Continuous
 62
     7
370
    25
100
AcDbCircle
 10
-1.1706498058
 20
0.2194039328
 30
0.0
 40
0.3023773570236767
100
AcDbArc
 50
260.1297980896
 51
269.09213127
  0
ARC
  5
387
330
1F
100
AcDbEntity
  8
0
  6
Continuous
 62
     7
370
    25
100
AcDbCircle
 10
-1.1955527776
 20
0.0762768827
 30
0.0
 40
0.157099999999984
100
AcDbArc
 50
240.2182467098
 51
260.1297980896
  0
ARC
  5
388
330
1F
100
AcDbEntity
  8
0
  6
Continuous
 62
     7
370
    25
100
AcDbCircle
 10
0.0
 20
0.0
 30
0.0
 40
1.274999999995905
100
AcDbArc
 50
180.9728754374
 51
182.7005939503
  0
ARC
  5
389
330
1F
100
AcDbEntity
  8
0
  6
Continuous
 62
     7
370
    25
100
AcDbCircle
 10
-1.1882093096
 20
-0.1527194932
 30
0.0
 40
0.1570999999999958
100
AcDbArc
 50
103.5436712982
 51
123.455222678
  0
ARC
  5
38A
330
1F
100
AcDbEntity
  8
0
  6
Continuous
 62
     7
370
    25
100
AcDbCircle
 10
-1.1541873219
 20
-0.2939569344
 30
0.0
 40
0.3023773570235789
100
AcDbArc
 50
94.5813381177
 51
103.5436712982
  0
ARC
  5
38B
330
1F
100
AcDbEntity
  8
0
  6
Continuous
 62
     7
370
    25
100
AcDbCircle
 10
-1.1797372885
 20
0.0248983976
 30
0.0
 40
0.0174999999999998
100
AcDbArc
 50
274.5813381177
 51
358.7909500206
  0
ARC
  5
38C
330
1F
100
AcDbEntity
  8
0
  6
Continuous
 62
     7
370
    25
100
AcDbCircle
 10
0.0
 20
0.0
 30
0.0
 40
1.16249999999318
100
AcDbArc
 50
177.5355805917
 51
178.7909500206
  0
ARC
  5
38D
330
1F
100
AcDbEntity
  8
0
  6
Continuous
 62
     7
370
    25
100
AcDbCircle
 10
-1.1789086375
 20
0.0507387865
 30
0.0
 40
0.0175
100
AcDbArc
 50
357.5355805917
 51
81.7451924945
  0
ARC
  5
38E
330
1F
100
AcDbEntity
  8
0
  6
Continuous
 62
     7
370
    25
100
AcDbCircle
 10
-1.1329820348
 20
0.367302004
 30
0.0
 40
0.3023773570236609
100
AcDbArc
 50
252.782859314
 51
261.7451924945
  0
ARC
  5
38F
330
1F
100
AcDbEntity
  8
0
  6
Continuous
 62
     7
370
    25
100
AcDbCircle
 10
-1.1759832346
 20
0.2285345464
 30
0.0
 40
0.1570999999999899
100
AcDbArc
 50
232.8713079343
 51
252.782859314
  0
ARC
  5
390
330
1F
100
AcDbEntity
  8
0
  6
Continuous
 62
     7
370
    25
100
AcDbCircle
 10
0.0
 20
0.0
 30
0.0
 40
1.274999999999682
100
AcDbArc
 50
173.6259366619
 51
175.3536551748
  0
ARC
  5
391
330
1F
100
AcDbEntity
  8
0
  6
Continuous
 62
     7
370
    25
100
AcDbCircle
 10
-1.1979834629
 20
0.0004791658
 30
0.0
 40
0.1570999999999999
100
AcDbArc
 50
96.1967325227
 51
116.1082839025
  0
ARC
  5
392
330
1F
100
AcDbEntity
  8
0
  6
Continuous
 62
     7
370
    25
100
AcDbCircle
 10
-1.1823018384
 20
-0.1439493533
 30
0.0
 40
0.3023773570236003
100
AcDbArc
 50
87.2343993422
 51
96.1967325227
  0
ARC
  5
393
330
1F
100
AcDbEntity
  8
0
  6
Continuous
 62
     7
370
    25
100
AcDbCircle
 10
-1.1668677252
 20
0.175555438
 30
0.0
 40
0.0175000000000005
100
AcDbArc
 50
267.2343993422
 51
351.4440112451
  0
ARC
  5
394
330
1F
100
AcDbEntity
  8
0
  6
Continuous
 62
     7
370
    25
100
AcDbCircle
 10
0.0
 20
0.0
 30
0.0
 40
1.162499999994976
100
AcDbArc
 50
170.1886418162
 51
171.4440112451
  0
ARC
  5
395
330
1F
100
AcDbEntity
  8
0
  6
Continuous
 62
     7
370
    25
100
AcDbCircle
 10
-1.1627414819
 20
0.2010777122
 30
0.0
 40
0.0175000000000001
100
AcDbArc
 50
350.1886418162
 51
74.398253719
  0
ARC
  5
396
330
1F
100
AcDbEntity
  8
0
  6
Continuous
 62
     7
370
    25
100
AcDbCircle
 10
-1.0767107302
 20
0.5091689865
 30
0.0
 40
0.3023773570236445
100
AcDbArc
 50
245.4359205385
 51
254.398253719
  0
ARC
  5
397
330
1F
100
AcDbEntity
  8
0
  6
Continuous
 62
     7
370
    25
100
AcDbCircle
 10
0.0
 20
0.0
 30
0.0
 40
1.109251968503941
100
AcDbArc
 50
128.3126936068
 51
184.4421209633
  0
ARC
  5
398
330
1F
100
AcDbEntity
  8
0
  6
Continuous
 62
     7
370
    25
100
AcDbCircle
 10
-1.0560700634
 20
-0.082041173
 30
0.0
 40
0.0500000000000003
100
AcDbArc
 50
184.4421209633
 51
286.3082792637
  0
ARC
  5
399
330
1F
100
AcDbEntity
  8
0
  6
Continuous
 62
     7
370
    25
100
AcDbCircle
 10
-1.0069291187
 20
-0.25
 30
0.0
 40
0.1250000000000001
100
AcDbArc
 50
281.578590458
 51
106.3082792637
  0
ARC
  5
39A
330
1F
100
AcDbEntity
  8
0
  6
Continuous
 62
     7
370
    25
100
AcDbCircle
 10
-0.971804541
 20
-0.4214388055
 30
0.0
 40
0.0500000000000004
100
AcDbArc
 50
101.578590458
 51
203.4447487583
  0
ARC
  5
39B
330
1F
100
AcDbEntity
  8
0
  6
Continuous
 62
     7
370
    25
100
AcDbCircle
 10
0.0
 20
0.0
 30
0.0
 40
1.109251968503937
100
AcDbArc
 50
203.4447487583
 51
298.2364345375
  0
ARC
  5
39C
330
1F
100
AcDbEntity
  8
0
  6
Continuous
 62
     7
370
    25
100
AcDbCircle
 10
0.501143856
 20
-0.9332039264
 30
0.0
 40
0.0500000000000002
100
AcDbArc
 50
298.2364345375
 51
40.1025928379
  0
ARC
  5
39D
330
1F
100
AcDbEntity
  8
0
  6
Continuous
 62
     7
370
    25
100
AcDbCircle
 10
0.635
 20
-0.8204762337
 30
0.0
 40
0.1250000000000003
100
AcDbArc
 50
35.3729040321
 51
220.1025928379
  0
ARC
  5
39E
330
1F
100
AcDbEntity
  8
0
  6
Continuous
 62
     7
370
    25
100
AcDbCircle
 10
0.7776952896
 20
-0.7191694997
 30
0.0
 40
0.0500000000000002
100
AcDbArc
 50
215.3729040321
 51
317.2390623325
  0
ARC
  5
39F
330
1F
100
AcDbEntity
  8
0
  6
Continuous
 62
     7
370
    25
100
AcDbCircle
 10
0.0
 20
0.0
 30
0.0
 40
1.109251968503938
100
AcDbArc
 50
317.2390623325
 51
62.2433042069
  0
ARC
  5
3A0
330
1F
100
AcDbEntity
  8
0
  6
Continuous
 62
     7
370
    25
100
AcDbCircle
 10
0.4933126447
 20
0.9373672532
 30
0.0
 40
0.0500000000000003
100
AcDbArc
 50
62.2433042069
 51
164.1094625073
  0
ARC
  5
3A1
330
1F
100
AcDbEntity
  8
0
  6
Continuous
 62
     7
370
    25
100
AcDbCircle
 10
0.325
 20
0.9852823199
 30
0.0
 40
0.1250000000000004
100
AcDbArc
 50
159.3797737016
 51
344.1094625073
  0
ARC
  5
3A2
330
1F
100
AcDbEntity
  8
0
  6
Continuous
 62
     7
370
    25
100
AcDbCircle
 10
0.1612113274
 20
1.0469124322
 30
0.0
 40
0.05
100
AcDbArc
 50
339.3797737016
 51
81.2459320019
  0
ARC
  5
3A3
330
1F
100
AcDbEntity
  8
0
  6
Continuous
 62
     7
370
    25
100
AcDbCircle
 10
0.0
 20
0.0
 30
0.0
 40
1.109251968503933
100
AcDbArc
 50
81.2459320019
 51
109.3100658118
  0
ARC
  5
3A4
330
1F
100
AcDbEntity
  8
0
  6
Continuous
 62
     7
370
    25
100
AcDbCircle
 10
-0.3502736486
 20
0.9996614946
 30
0.0
 40
0.0500000000000001
100
AcDbArc
 50
109.3100658118
 51
211.1762241122
  0
ARC
  5
3A5
330
1F
100
AcDbEntity
  8
0
  6
Continuous
 62
     7
370
    25
100
AcDbCircle
 10
-0.5
 20
0.9090688918
 30
0.0
 40
0.1250000000000001
100
AcDbArc
 50
206.4465353064
 51
31.1762241122
  0
ARC
  5
3A6
330
1F
100
AcDbEntity
  8
0
  6
Continuous
 62
     7
370
    25
100
AcDbCircle
 10
-0.6566863086
 20
0.83113045
 30
0.0
 40
0.0500000000000001
100
AcDbArc
 50
26.4465353064
 51
128.3126936068
  0
MTEXT
  5
3A8
330
1F
100
AcDbEntity
  8
0
  6
Continuous
 62
     7
100
AcDbMText
 10
-1.2748162028
 20
-1.3151404091
 30
0.0
 40
0.1903
 41
0.0
 71
     1
 72
     1
  1
SOLIDWORKS Educational Product.
  7
SLDTEXTSTYLE0
 73
     1
 44
1.0
  0
MTEXT
  5
3A9
330
1F
100
AcDbEntity
  8
0
  6
Continuous
 62
     7
100
AcDbMText
 10
-1.2748162028
 20
-1.6005904091
 30
0.0
 40
0.1903
 41
0.0
 71
     1
 72
     1
  1
For Instructional Use Only.
  7
SLDTEXTSTYLE0
 73
     1
 44
1.0
  0
ENDSEC
  0
SECTION
  2
OBJECTS
  0
DICTIONARY
  5
C
330
0
100
AcDbDictionary
281
     1
  3
ACAD_GROUP
350
D
  3
ACAD_LAYOUT
350
1A
  3
ACAD_MLINESTYLE
350
17
  3
ACAD_PLOTSETTINGS
350
19
  3
ACAD_PLOTSTYLENAME
350
E
  3
ACAD_SCALELIST
350
47
  3
DWGPROPS
350
3AA
  0
DICTIONARY
  5
D
102
{ACAD_REACTORS
330
C
102
}
330
C
100
AcDbDictionary
281
     1
  0
DICTIONARY
  5
1A
102
{ACAD_REACTORS
330
C
102
}
330
C
100
AcDbDictionary
281
     1
  3
Layout1
350
1E
  3
Layout2
350
26
  3
Model
350
22
  0
DICTIONARY
  5
17
102
{ACAD_REACTORS
330
C
102
}
330
C
100
AcDbDictionary
281
     1
  3
Standard
350
18
  0
DICTIONARY
  5
19
102
{ACAD_REACTORS
330
C
102
}
330
C
100
AcDbDictionary
281
     1
  0
ACDBDICTIONARYWDFLT
  5
E
102
{ACAD_REACTORS
330
C
102
}
330
C
100
AcDbDictionary
281
     1
  3
Normal
350
F
100
AcDbDictionaryWithDefault
340
F
  0
DICTIONARY
  5
47
102
{ACAD_REACTORS
330
C
102
}
330
C
100
AcDbDictionary
281
     1
  3
A0
350
48
  3
A1
350
49
  3
A2
350
4A
  3
A3
350
4B
  3
A4
350
4C
  3
A5
350
4D
  3
A6
350
4E
  3
A7
350
4F
  3
A8
350
50
  3
A9
350
51
  3
B0
350
52
  3
B1
350
53
  3
B2
350
54
  3
B3
350
55
  3
B4
350
56
  3
B5
350
57
  3
B6
350
58
  3
B7
350
59
  3
B8
350
5A
  3
B9
350
5B
  3
C0
350
5C
  3
C1
350
5D
  3
C2
350
5E
  3
C3
350
5F
  3
C4
350
60
  3
C5
350
61
  3
C6
350
62
  3
C7
350
63
  3
C8
350
64
  3
C9
350
65
  3
D0
350
66
  3
D1
350
67
  3
D2
350
68
  0
XRECORD
  5
3AA
102
{ACAD_REACTORS
330
C
102
}
330
C
100
AcDbXrecord
280
     1
  1
DWGPROPS COOKIE
  2

  3

  4

  6

  7

  8
lzk91
  9

300
=
301
=
302
=
303
=
304
=
305
=
306
=
307
=
308
=
309
=
 40
0.0
 41
2460086.087453241
 42
2460086.087493692
  1

 90
        0
  0
LAYOUT
  5
1E
102
{ACAD_REACTORS
330
1A
102
}
330
1A
100
AcDbPlotSettings
  1

  2
none_device
  4

  6

 40
0.0
 41
0.0
 42
0.0
 43
0.0
 44
0.0
 45
0.0
 46
0.0
 47
0.0
 48
0.0
 49
0.0
140
0.0
141
0.0
142
1.0
143
1.0
 70
   688
 72
     0
 73
     0
 74
     5
  7

 75
    16
147
1.0
148
0.0
149
0.0
100
AcDbLayout
  1
Layout1
 70
     1
 71
     1
 10
0.0
 20
0.0
 11
12.0
 21
9.0
 12
0.0
 22
0.0
 32
0.0
 14
1.0000000000E+20
 24
1.0000000000E+20
 34
1.0000000000E+20
 15
-1.0000000000E+20
 25
-1.0000000000E+20
 35
-1.0000000000E+20
146
0.0
 13
0.0
 23
0.0
 33
0.0
 16
1.0
 26
0.0
 36
0.0
 17
0.0
 27
1.0
 37
0.0
 76
     0
330
1B
  0
LAYOUT
  5
26
102
{ACAD_REACTORS
330
1A
102
}
330
1A
100
AcDbPlotSettings
  1

  2
none_device
  4

  6

 40
0.0
 41
0.0
 42
0.0
 43
0.0
 44
0.0
 45
0.0
 46
0.0
 47
0.0
 48
0.0
 49
0.0
140
0.0
141
0.0
142
1.0
143
1.0
 70
   688
 72
     0
 73
     0
 74
     5
  7

 75
    16
147
1.0
148
0.0
149
0.0
100
AcDbLayout
  1
Layout2
 70
     1
 71
     2
 10
0.0
 20
0.0
 11
0.0
 21
0.0
 12
0.0
 22
0.0
 32
0.0
 14
0.0
 24
0.0
 34
0.0
 15
0.0
 25
0.0
 35
0.0
146
0.0
 13
0.0
 23
0.0
 33
0.0
 16
1.0
 26
0.0
 36
0.0
 17
0.0
 27
1.0
 37
0.0
 76
     0
330
23
  0
LAYOUT
  5
22
102
{ACAD_REACTORS
330
1A
102
}
330
1A
100
AcDbPlotSettings
  1

  2
none_device
  4
ANSI_A_(11.00_x_8.50_Inches)
  6

 40
6.35
 41
19.05
 42
6.35000508
 43
19.05000254
 44
279.4
 45
215.9
 46
133.34999746
 47
88.9642702813
 48
0.0
 49
0.0
140
0.0
141
0.0
142
3.3019846087
143
1.0
 70
  1696
 72
     0
 73
     0
 74
     0
  7

 75
     0
147
0.5913241897
148
-39.4088153714
149
0.0
100
AcDbLayout
  1
Model
 70
     1
 71
     0
 10
0.0
 20
0.0
 11
12.0
 21
9.0
 12
0.0
 22
0.0
 32
0.0
 14
-1.2748162028
 24
-1.275
 34
0.0
 15
1.2748162028
 25
1.2734673605
 35
0.0
146
0.0
 13
0.0
 23
0.0
 33
0.0
 16
1.0
 26
0.0
 36
0.0
 17
0.0
 27
1.0
 37
0.0
 76
     0
330
1F
331
29
  0
MLINESTYLE
  5
18
102
{ACAD_REACTORS
330
17
102
}
330
17
100
AcDbMlineStyle
  2
Standard
 70
     0
  3

 62
   256
 51
90.0
 52
90.0
 71
     2
 49
0.5
 62
   256
  6
BYLAYER
 49
-0.5
 62
   256
  6
BYLAYER
  0
ACDBPLACEHOLDER
  5
F
102
{ACAD_REACTORS
330
E
102
}
330
E
  0
SCALE
  5
48
102
{ACAD_REACTORS
330
47
102
}
330
47
100
AcDbScale
 70
     0
300
1:1
140
1.0
141
1.0
290
     1
  0
SCALE
  5
49
102
{ACAD_REACTORS
330
47
102
}
330
47
100
AcDbScale
 70
     0
300
1:2
140
1.0
141
2.0
290
     0
  0
SCALE
  5
4A
102
{ACAD_REACTORS
330
47
102
}
330
47
100
AcDbScale
 70
     0
300
1:4
140
1.0
141
4.0
290
     0
  0
SCALE
  5
4B
102
{ACAD_REACTORS
330
47
102
}
330
47
100
AcDbScale
 70
     0
300
1:5
140
1.0
141
5.0
290
     0
  0
SCALE
  5
4C
102
{ACAD_REACTORS
330
47
102
}
330
47
100
AcDbScale
 70
     0
300
1:8
140
1.0
141
8.0
290
     0
  0
SCALE
  5
4D
102
{ACAD_REACTORS
330
47
102
}
330
47
100
AcDbScale
 70
     0
300
1:10
140
1.0
141
10.0
290
     0
  0
SCALE
  5
4E
102
{ACAD_REACTORS
330
47
102
}
330
47
100
AcDbScale
 70
     0
300
1:16
140
1.0
141
16.0
290
     0
  0
SCALE
  5
4F
102
{ACAD_REACTORS
330
47
102
}
330
47
100
AcDbScale
 70
     0
300
1:20
140
1.0
141
20.0
290
     0
  0
SCALE
  5
50
102
{ACAD_REACTORS
330
47
102
}
330
47
100
AcDbScale
 70
     0
300
1:30
140
1.0
141
30.0
290
     0
  0
SCALE
  5
51
102
{ACAD_REACTORS
330
47
102
}
330
47
100
AcDbScale
 70
     0
300
1:40
140
1.0
141
40.0
290
     0
  0
SCALE
  5
52
102
{ACAD_REACTORS
330
47
102
}
330
47
100
AcDbScale
 70
     0
300
1:50
140
1.0
141
50.0
290
     0
  0
SCALE
  5
53
102
{ACAD_REACTORS
330
47
102
}
330
47
100
AcDbScale
 70
     0
300
1:100
140
1.0
141
100.0
290
     0
  0
SCALE
  5
54
102
{ACAD_REACTORS
330
47
102
}
330
47
100
AcDbScale
 70
     0
300
2:1
140
2.0
141
1.0
290
     0
  0
SCALE
  5
55
102
{ACAD_REACTORS
330
47
102
}
330
47
100
AcDbScale
 70
     0
300
4:1
140
4.0
141
1.0
290
     0
  0
SCALE
  5
56
102
{ACAD_REACTORS
330
47
102
}
330
47
100
AcDbScale
 70
     0
300
8:1
140
8.0
141
1.0
290
     0
  0
SCALE
  5
57
102
{ACAD_REACTORS
330
47
102
}
330
47
100
AcDbScale
 70
     0
300
10:1
140
10.0
141
1.0
290
     0
  0
SCALE
  5
58
102
{ACAD_REACTORS
330
47
102
}
330
47
100
AcDbScale
 70
     0
300
100:1
140
100.0
141
1.0
290
     0
  0
SCALE
  5
59
102
{ACAD_REACTORS
330
47
102
}
330
47
100
AcDbScale
 70
     0
300
1/128" = 1'-0"
140
0.0078125
141
12.0
290
     0
  0
SCALE
  5
5A
102
{ACAD_REACTORS
330
47
102
}
330
47
100
AcDbScale
 70
     0
300
1/64" = 1'-0"
140
0.015625
141
12.0
290
     0
  0
SCALE
  5
5B
102
{ACAD_REACTORS
330
47
102
}
330
47
100
AcDbScale
 70
     0
300
1/32" = 1'-0"
140
0.03125
141
12.0
290
     0
  0
SCALE
  5
5C
102
{ACAD_REACTORS
330
47
102
}
330
47
100
AcDbScale
 70
     0
300
1/16" = 1'-0"
140
0.0625
141
12.0
290
     0
  0
SCALE
  5
5D
102
{ACAD_REACTORS
330
47
102
}
330
47
100
AcDbScale
 70
     0
300
3/32" = 1'-0"
140
0.09375
141
12.0
290
     0
  0
SCALE
  5
5E
102
{ACAD_REACTORS
330
47
102
}
330
47
100
AcDbScale
 70
     0
300
1/8" = 1'-0"
140
0.125
141
12.0
290
     0
  0
SCALE
  5
5F
102
{ACAD_REACTORS
330
47
102
}
330
47
100
AcDbScale
 70
     0
300
3/16" = 1'-0"
140
0.1875
141
12.0
290
     0
  0
SCALE
  5
60
102
{ACAD_REACTORS
330
47
102
}
330
47
100
AcDbScale
 70
     0
300
1/4" = 1'-0"
140
0.25
141
12.0
290
     0
  0
SCALE
  5
61
102
{ACAD_REACTORS
330
47
102
}
330
47
100
AcDbScale
 70
     0
300
3/8" = 1'-0"
140
0.375
141
12.0
290
     0
  0
SCALE
  5
62
102
{ACAD_REACTORS
330
47
102
}
330
47
100
AcDbScale
 70
     0
300
1/2" = 1'-0"
140
0.5
141
12.0
290
     0
  0
SCALE
  5
63
102
{ACAD_REACTORS
330
47
102
}
330
47
100
AcDbScale
 70
     0
300
3/4" = 1'-0"
140
0.75
141
12.0
290
     0
  0
SCALE
  5
64
102
{ACAD_REACTORS
330
47
102
}
330
47
100
AcDbScale
 70
     0
300
1" = 1'-0"
140
1.0
141
12.0
290
     0
  0
SCALE
  5
65
102
{ACAD_REACTORS
330
47
102
}
330
47
100
AcDbScale
 70
     0
300
1-1/2" = 1'-0"
140
1.5
141
12.0
290
     0
  0
SCALE
  5
66
102
{ACAD_REACTORS
330
47
102
}
330
47
100
AcDbScale
 70
     0
300
3" = 1'-0"
140
3.0
141
12.0
290
     0
  0
SCALE
  5
67
102
{ACAD_REACTORS
330
47
102
}
330
47
100
AcDbScale
 70
     0
300
6" = 1'-0"
140
6.0
141
12.0
290
     0
  0
SCALE
  5
68
102
{ACAD_REACTORS
330
47
102
}
330
47
100
AcDbScale
 70
     0
300
1'-0" = 1'-0"
140
12.0
141
12.0
290
     0
  0
ENDSEC
  0
EOF
