  0
SECTION
  2
HEADER
  9
$ACADVER
  1
AC1015
  9
$ACADMAINTVER
 70
     6
  9
$DWGCODEPAGE
  3
ANSI_1252
  9
$INSBASE
 10
0.0
 20
0.0
 30
0.0
  9
$EXTMIN
 10
-3.7597776566
 20
-3.2351019222
 30
0.0
  9
$EXTMAX
 10
3.7540651987
 20
3.297922176
 30
0.0
  9
$LIMMIN
 10
0.0
 20
0.0
  9
$LIMMAX
 10
12.0
 20
9.0
  9
$ORTHOMODE
 70
     0
  9
$REGENMODE
 70
     1
  9
$FILLMODE
 70
     1
  9
$QTEXTMODE
 70
     0
  9
$MIRRTEXT
 70
     1
  9
$LTSCALE
 40
1.0
  9
$ATTMODE
 70
     1
  9
$TEXTSIZE
 40
0.125
  9
$TRACEWID
 40
0.05
  9
$TEXTSTYLE
  7
Standard
  9
$CLAYER
  8
0
  9
$CELTYPE
  6
ByLayer
  9
$CECOLOR
 62
   256
  9
$CELTSCALE
 40
1.0
  9
$DISPSILH
 70
     0
  9
$DIMSCALE
 40
1.0
  9
$DIMASZ
 40
0.13
  9
$DIMEXO
 40
0.0
  9
$DIMDLI
 40
0.38
  9
$DIMRND
 40
0.0
  9
$DIMDLE
 40
0.0
  9
$DIMEXE
 40
0.125
  9
$DIMTP
 40
0.0
  9
$DIMTM
 40
0.0
  9
$DIMTXT
 40
0.125
  9
$DIMCEN
 40
0.09
  9
$DIMTSZ
 40
0.0
  9
$DIMTOL
 70
     0
  9
$DIMLIM
 70
     0
  9
$DIMTIH
 70
     1
  9
$DIMTOH
 70
     1
  9
$DIMSE1
 70
     0
  9
$DIMSE2
 70
     0
  9
$DIMTAD
 70
     0
  9
$DIMZIN
 70
     1
  9
$DIMBLK
  1

  9
$DIMASO
 70
     1
  9
$DIMSHO
 70
     1
  9
$DIMPOST
  1

  9
$DIMAPOST
  1

  9
$DIMALT
 70
     0
  9
$DIMALTD
 70
     2
  9
$DIMALTF
 40
25.4
  9
$DIMLFAC
 40
1.0
  9
$DIMTOFL
 70
     0
  9
$DIMTVP
 40
0.0
  9
$DIMTIX
 70
     0
  9
$DIMSOXD
 70
     0
  9
$DIMSAH
 70
     0
  9
$DIMBLK1
  1

  9
$DIMBLK2
  1

  9
$DIMSTYLE
  2
Standard
  9
$DIMCLRD
 70
     0
  9
$DIMCLRE
 70
     0
  9
$DIMCLRT
 70
     0
  9
$DIMTFAC
 40
1.0
  9
$DIMGAP
 40
0.06
  9
$DIMJUST
 70
     0
  9
$DIMSD1
 70
     0
  9
$DIMSD2
 70
     0
  9
$DIMTOLJ
 70
     1
  9
$DIMTZIN
 70
     1
  9
$DIMALTZ
 70
     0
  9
$DIMALTTZ
 70
     0
  9
$DIMUPT
 70
     0
  9
$DIMDEC
 70
     2
  9
$DIMTDEC
 70
     2
  9
$DIMALTU
 70
     2
  9
$DIMALTTD
 70
     2
  9
$DIMTXSTY
  7
Standard
  9
$DIMAUNIT
 70
     0
  9
$DIMADEC
 70
     2
  9
$DIMALTRND
 40
0.0
  9
$DIMAZIN
 70
     0
  9
$DIMDSEP
 70
    46
  9
$DIMATFIT
 70
     3
  9
$DIMFRAC
 70
     0
  9
$DIMLDRBLK
  1

  9
$DIMLUNIT
 70
     2
  9
$DIMLWD
 70
    -2
  9
$DIMLWE
 70
    -2
  9
$DIMTMOVE
 70
     0
  9
$LUNITS
 70
     2
  9
$LUPREC
 70
     2
  9
$SKETCHINC
 40
0.1
  9
$FILLETRAD
 40
0.5
  9
$AUNITS
 70
     0
  9
$AUPREC
 70
     2
  9
$MENU
  1
.
  9
$ELEVATION
 40
0.0
  9
$PELEVATION
 40
0.0
  9
$THICKNESS
 40
0.0
  9
$LIMCHECK
 70
     0
  9
$CHAMFERA
 40
0.0
  9
$CHAMFERB
 40
0.0
  9
$CHAMFERC
 40
0.0
  9
$CHAMFERD
 40
0.0
  9
$SKPOLY
 70
     0
  9
$TDCREATE
 40
2460106.603928275
  9
$TDUCREATE
 40
2460106.770594942
  9
$TDUPDATE
 40
2460106.603955173
  9
$TDUUPDATE
 40
2460106.77062184
  9
$TDINDWG
 40
0.0000000116
  9
$TDUSRTIMER
 40
0.0000000116
  9
$USRTIMER
 70
     1
  9
$ANGBASE
 50
0.0
  9
$ANGDIR
 70
     0
  9
$PDMODE
 70
     0
  9
$PDSIZE
 40
-1.0
  9
$PLINEWID
 40
0.0
  9
$SPLFRAME
 70
     0
  9
$SPLINETYPE
 70
     6
  9
$SPLINESEGS
 70
     8
  9
$HANDSEED
  5
F5
  9
$SURFTAB1
 70
     6
  9
$SURFTAB2
 70
     6
  9
$SURFTYPE
 70
     6
  9
$SURFU
 70
     6
  9
$SURFV
 70
     6
  9
$UCSBASE
  2

  9
$UCSNAME
  2

  9
$UCSORG
 10
0.0
 20
0.0
 30
0.0
  9
$UCSXDIR
 10
1.0
 20
0.0
 30
0.0
  9
$UCSYDIR
 10
0.0
 20
1.0
 30
0.0
  9
$UCSORTHOREF
  2

  9
$UCSORTHOVIEW
 70
     0
  9
$UCSORGTOP
 10
0.0
 20
0.0
 30
0.0
  9
$UCSORGBOTTOM
 10
0.0
 20
0.0
 30
0.0
  9
$UCSORGLEFT
 10
0.0
 20
0.0
 30
0.0
  9
$UCSORGRIGHT
 10
0.0
 20
0.0
 30
0.0
  9
$UCSORGFRONT
 10
0.0
 20
0.0
 30
0.0
  9
$UCSORGBACK
 10
0.0
 20
0.0
 30
0.0
  9
$PUCSBASE
  2

  9
$PUCSNAME
  2

  9
$PUCSORG
 10
0.0
 20
0.0
 30
0.0
  9
$PUCSXDIR
 10
1.0
 20
0.0
 30
0.0
  9
$PUCSYDIR
 10
0.0
 20
1.0
 30
0.0
  9
$PUCSORTHOREF
  2

  9
$PUCSORTHOVIEW
 70
     0
  9
$PUCSORGTOP
 10
0.0
 20
0.0
 30
0.0
  9
$PUCSORGBOTTOM
 10
0.0
 20
0.0
 30
0.0
  9
$PUCSORGLEFT
 10
0.0
 20
0.0
 30
0.0
  9
$PUCSORGRIGHT
 10
0.0
 20
0.0
 30
0.0
  9
$PUCSORGFRONT
 10
0.0
 20
0.0
 30
0.0
  9
$PUCSORGBACK
 10
0.0
 20
0.0
 30
0.0
  9
$USERI1
 70
     0
  9
$USERI2
 70
     0
  9
$USERI3
 70
     0
  9
$USERI4
 70
     0
  9
$USERI5
 70
     0
  9
$USERR1
 40
0.0
  9
$USERR2
 40
0.0
  9
$USERR3
 40
0.0
  9
$USERR4
 40
0.0
  9
$USERR5
 40
0.0
  9
$WORLDVIEW
 70
     1
  9
$SHADEDGE
 70
     3
  9
$SHADEDIF
 70
    70
  9
$TILEMODE
 70
     1
  9
$MAXACTVP
 70
    64
  9
$PINSBASE
 10
0.0
 20
0.0
 30
0.0
  9
$PLIMCHECK
 70
     0
  9
$PEXTMIN
 10
1.0000000000E+20
 20
1.0000000000E+20
 30
1.0000000000E+20
  9
$PEXTMAX
 10
-1.0000000000E+20
 20
-1.0000000000E+20
 30
-1.0000000000E+20
  9
$PLIMMIN
 10
0.0
 20
0.0
  9
$PLIMMAX
 10
12.0
 20
9.0
  9
$UNITMODE
 70
     0
  9
$VISRETAIN
 70
     1
  9
$PLINEGEN
 70
     0
  9
$PSLTSCALE
 70
     1
  9
$TREEDEPTH
 70
  3020
  9
$CMLSTYLE
  2
Standard
  9
$CMLJUST
 70
     0
  9
$CMLSCALE
 40
1.0
  9
$PROXYGRAPHICS
 70
     1
  9
$MEASUREMENT
 70
     0
  9
$CELWEIGHT
370
    -1
  9
$ENDCAPS
280
     0
  9
$JOINSTYLE
280
     0
  9
$LWDISPLAY
290
     1
  9
$INSUNITS
 70
     1
  9
$HYPERLINKBASE
  1

  9
$STYLESHEET
  1

  9
$XEDIT
290
     1
  9
$CEPSNTYPE
380
     0
  9
$PSTYLEMODE
290
     1
  9
$FINGERPRINTGUID
  2
{cd5051b1-1820-404d-a8de-6f1630e126ba}
  9
$VERSIONGUID
  2
{FAEB1C32-E019-11D5-929B-00C0DF256EC4}
  9
$EXTNAMES
290
     1
  9
$PSVPSCALE
 40
0.0
  9
$OLESTARTUP
290
     0
  0
ENDSEC
  0
SECTION
  2
CLASSES
  0
CLASS
  1
ACDBDICTIONARYWDFLT
  2
AcDbDictionaryWithDefault
  3
ObjectDBX Classes
 90
        0
280
     0
281
     0
  0
CLASS
  1
VISUALSTYLE
  2
AcDbVisualStyle
  3
ObjectDBX Classes
 90
     4095
280
     0
281
     0
  0
CLASS
  1
MATERIAL
  2
AcDbMaterial
  3
ObjectDBX Classes
 90
     1153
280
     0
281
     0
  0
CLASS
  1
SCALE
  2
AcDbScale
  3
ObjectDBX Classes
 90
     1153
280
     0
281
     0
  0
CLASS
  1
TABLESTYLE
  2
AcDbTableStyle
  3
ObjectDBX Classes
 90
     4095
280
     0
281
     0
  0
CLASS
  1
MLEADERSTYLE
  2
AcDbMLeaderStyle
  3
ACDB_MLEADERSTYLE_CLASS
 90
     4095
280
     0
281
     0
  0
CLASS
  1
SUN
  2
AcDbSun
  3
SCENEOE
 90
     1153
280
     0
281
     0
  0
CLASS
  1
ACDBPLACEHOLDER
  2
AcDbPlaceHolder
  3
ObjectDBX Classes
 90
        0
280
     0
281
     0
  0
CLASS
  1
LAYOUT
  2
AcDbLayout
  3
ObjectDBX Classes
 90
        0
280
     0
281
     0
  0
ENDSEC
  0
SECTION
  2
TABLES
  0
TABLE
  2
VPORT
  5
8
330
0
100
AcDbSymbolTable
 70
     1
  0
VPORT
  5
29
330
8
100
AcDbSymbolTableRecord
100
AcDbViewportTableRecord
  2
*Active
 70
     0
 10
0.0
 20
0.0
 11
1.0
 21
1.0
 12
-0.002856229
 22
0.0314101269
 13
0.0
 23
0.0
 14
0.5
 24
0.5
 15
0.5
 25
0.5
 16
0.0
 26
0.0
 36
1.0
 17
0.0
 27
0.0
 37
0.0
 40
6.6636845802
 41
1.150132426
 42
50.0
 43
0.0
 44
0.0
 50
0.0
 51
0.0
 71
     0
 72
   100
 73
     1
 74
     3
 75
     0
 76
     0
 77
     0
 78
     0
281
     0
 65
     1
110
0.0
120
0.0
130
0.0
111
1.0
121
0.0
131
0.0
112
0.0
122
1.0
132
0.0
 79
     0
146
0.0
  0
ENDTAB
  0
TABLE
  2
LTYPE
  5
5
330
0
100
AcDbSymbolTable
 70
     6
  0
LTYPE
  5
14
330
5
100
AcDbSymbolTableRecord
100
AcDbLinetypeTableRecord
  2
ByBlock
 70
     0
  3

 72
    65
 73
     0
 40
0.0
  0
LTYPE
  5
15
330
5
100
AcDbSymbolTableRecord
100
AcDbLinetypeTableRecord
  2
ByLayer
 70
     0
  3

 72
    65
 73
     0
 40
0.0
  0
LTYPE
  5
16
330
5
100
AcDbSymbolTableRecord
100
AcDbLinetypeTableRecord
  2
Continuous
 70
     0
  3
Solid line
 72
    65
 73
     0
 40
0.0
  0
LTYPE
  5
6E
330
5
100
AcDbSymbolTableRecord
100
AcDbLinetypeTableRecord
  2
HIDDEN
 70
     0
  3
Hidden __ __ __ __ __ __ __ __ __ __ __ __ __ __
 72
    65
 73
     2
 40
0.075
 49
0.05
 74
     0
 49
-0.025
 74
     0
  0
LTYPE
  5
6F
330
5
100
AcDbSymbolTableRecord
100
AcDbLinetypeTableRecord
  2
PHANTOM
 70
     0
  3
Phantom ______  __  __  ______  __  __  ______
 72
    65
 73
     6
 40
0.5
 49
0.25
 74
     0
 49
-0.05
 74
     0
 49
0.05
 74
     0
 49
-0.05
 74
     0
 49
0.05
 74
     0
 49
-0.05
 74
     0
  0
LTYPE
  5
70
330
5
100
AcDbSymbolTableRecord
100
AcDbLinetypeTableRecord
  2
CENTER
 70
     0
  3
Center ____ _ ____ _ ____ _ ____ _ ____ _ ____
 72
    65
 73
     4
 40
0.4
 49
0.25
 74
     0
 49
-0.05
 74
     0
 49
0.05
 74
     0
 49
-0.05
 74
     0
  0
LTYPE
  5
71
330
5
100
AcDbSymbolTableRecord
100
AcDbLinetypeTableRecord
  2
CENTERX2
 70
     0
  3
Center (2x) ________  __  ________  __  _____
 72
    65
 73
     4
 40
0.8
 49
0.5
 74
     0
 49
-0.1
 74
     0
 49
0.1
 74
     0
 49
-0.1
 74
     0
  0
LTYPE
  5
72
330
5
100
AcDbSymbolTableRecord
100
AcDbLinetypeTableRecord
  2
DOT2
 70
     0
  3
Dot (.5x) ........................................
 72
    65
 73
     2
 40
0.025
 49
0.0
 74
     0
 49
-0.025
 74
     0
  0
ENDTAB
  0
TABLE
  2
LAYER
  5
2
330
0
100
AcDbSymbolTable
 70
     1
  0
LAYER
  5
10
330
2
100
AcDbSymbolTableRecord
100
AcDbLayerTableRecord
  2
0
 70
     0
 62
     7
  6
Continuous
370
    -3
390
F
  0
ENDTAB
  0
TABLE
  2
STYLE
  5
3
330
0
100
AcDbSymbolTable
 70
     2
  0
STYLE
  5
11
330
3
100
AcDbSymbolTableRecord
100
AcDbTextStyleTableRecord
  2
Standard
 70
     0
 40
0.0
 41
1.0
 50
0.0
 71
     0
 42
0.125
  3
txt
  4

  0
STYLE
  5
F1
330
3
100
AcDbSymbolTableRecord
100
AcDbTextStyleTableRecord
  2
SLDTEXTSTYLE0
 70
     0
 40
0.0
 41
0.7
 50
0.0
 71
     0
 42
0.125
  3
TXT
  4

  0
ENDTAB
  0
TABLE
  2
VIEW
  5
6
330
0
100
AcDbSymbolTable
 70
     0
  0
ENDTAB
  0
TABLE
  2
UCS
  5
7
330
0
100
AcDbSymbolTable
 70
     0
  0
ENDTAB
  0
TABLE
  2
APPID
  5
9
330
0
100
AcDbSymbolTable
 70
     1
  0
APPID
  5
12
330
9
100
AcDbSymbolTableRecord
100
AcDbRegAppTableRecord
  2
ACAD
 70
     0
  0
ENDTAB
  0
TABLE
  2
DIMSTYLE
  5
A
330
0
100
AcDbSymbolTable
 70
     1
100
AcDbDimStyleTable
  0
DIMSTYLE
105
27
330
A
100
AcDbSymbolTableRecord
100
AcDbDimStyleTableRecord
  2
Standard
 70
     0
178
     0
340
11
  0
ENDTAB
  0
TABLE
  2
BLOCK_RECORD
  5
1
330
0
100
AcDbSymbolTable
 70
     1
  0
BLOCK_RECORD
  5
1F
330
1
100
AcDbSymbolTableRecord
100
AcDbBlockTableRecord
  2
*Model_Space
340
22
  0
BLOCK_RECORD
  5
1B
330
1
100
AcDbSymbolTableRecord
100
AcDbBlockTableRecord
  2
*Paper_Space
340
1E
  0
BLOCK_RECORD
  5
23
330
1
100
AcDbSymbolTableRecord
100
AcDbBlockTableRecord
  2
*Paper_Space0
340
26
  0
ENDTAB
  0
ENDSEC
  0
SECTION
  2
BLOCKS
  0
BLOCK
  5
20
330
1F
100
AcDbEntity
  8
0
100
AcDbBlockBegin
  2
*Model_Space
 70
     0
 10
0.0
 20
0.0
 30
0.0
  3
*Model_Space
  1

  0
ENDBLK
  5
21
330
1F
100
AcDbEntity
  8
0
100
AcDbBlockEnd
  0
BLOCK
  5
1C
330
1B
100
AcDbEntity
 67
     1
  8
0
100
AcDbBlockBegin
  2
*Paper_Space
 70
     0
 10
0.0
 20
0.0
 30
0.0
  3
*Paper_Space
  1

  0
ENDBLK
  5
1D
330
1B
100
AcDbEntity
 67
     1
  8
0
100
AcDbBlockEnd
  0
BLOCK
  5
24
330
23
100
AcDbEntity
  8
0
100
AcDbBlockBegin
  2
*Paper_Space0
 70
     0
 10
0.0
 20
0.0
 30
0.0
  3
*Paper_Space0
  1

  0
ENDBLK
  5
25
330
23
100
AcDbEntity
  8
0
100
AcDbBlockEnd
  0
ENDSEC
  0
SECTION
  2
ENTITIES
  0
LWPOLYLINE
  5
85
330
1F
100
AcDbEntity
  8
0
  6
Continuous
 62
     7
370
    25
100
AcDbPolyline
 90
       13
 70
   128
 43
0.0
 10
1.5946716941
 20
-0.9829567055
 10
1.6141427221
 20
-0.9915029603
 10
1.6356538231
 20
-0.9953274816
 10
1.657739051
 20
-0.9941696345
 10
1.6788933342
 20
-0.9881083244
 10
1.6976750431
 20
-0.9775566195
 10
1.7128042353
 20
-0.9632336011
 10
1.7232498814
 20
-0.9461153592
 10
1.7283001278
 20
-0.9273684738
 10
1.7276108087
 20
-0.908270514
 10
1.7212288999
 20
-0.8901229743
 10
1.7095893181
 20
-0.8741625795
 10
1.6934852814
 20
-0.8614770042
  0
LWPOLYLINE
  5
87
330
1F
100
AcDbEntity
  8
0
  6
Continuous
 62
     7
370
    25
100
AcDbPolyline
 90
       13
 70
   128
 43
0.0
 10
1.4907544627
 20
-0.7404836522
 10
1.4712834346
 20
-0.7319373973
 10
1.4497723337
 20
-0.728112876
 10
1.4276871057
 20
-0.7292707231
 10
1.4065328226
 20
-0.7353320333
 10
1.3877511137
 20
-0.7458837382
 10
1.3726219215
 20
-0.7602067566
 10
1.3621762754
 20
-0.7773249984
 10
1.3571260289
 20
-0.7960718839
 10
1.3578153481
 20
-0.8151698437
 10
1.3641972568
 20
-0.8333173834
 10
1.3758368387
 20
-0.8492777782
 10
1.3919408754
 20
-0.8619633535
  0
LWPOLYLINE
  5
88
330
1F
100
AcDbEntity
  8
0
  6
Continuous
 62
     7
370
    25
100
AcDbPolyline
 90
       27
 70
   128
 43
0.0
 10
-3.5147604449
 20
-0.4622999539
 10
-3.5261235586
 20
-0.4804867532
 10
-3.5322077539
 20
-0.5003730259
 10
-3.5326594395
 20
-0.5208030539
 10
-3.5274523652
 20
-0.5405895184
 10
-3.5168891471
 20
-0.558582502
 10
-3.501583681
 20
-0.5737363178
 10
-3.4824254651
 20
-0.5851702812
 10
-3.4605279052
 20
-0.5922198917
 10
-3.4371636079
 20
-0.5944754517
 10
-3.4136904212
 20
-0.5918058762
 10
-3.3914725215
 20
-0.5843663112
 10
-3.3718011322
 20
-0.5725891172
 10
-3.355819483
 20
-0.5571587419
 10
-3.3444563693
 20
-0.5389719425
 10
-3.338372174
 20
-0.5190856699
 10
-3.3379204884
 20
-0.4986556419
 10
-3.3431275627
 20
-0.4788691774
 10
-3.3536907808
 20
-0.4608761938
 10
-3.3689962469
 20
-0.445722378
 10
-3.3881544628
 20
-0.4342884146
 10
-3.4100520227
 20
-0.427238804
 10
-3.43341632
 20
-0.424983244
 10
-3.4568895067
 20
-0.4276528196
 10
-3.4791074064
 20
-0.4350923846
 10
-3.4987787957
 20
-0.4468695786
 10
-3.5147604449
 20
-0.4622999539
  0
LWPOLYLINE
  5
89
330
1F
100
AcDbEntity
  8
0
  6
Continuous
 62
     7
370
    25
100
AcDbPolyline
 90
       27
 70
   128
 43
0.0
 10
3.3431994687
 20
0.6826873425
 10
3.331836355
 20
0.6645005432
 10
3.3257521597
 20
0.6446142706
 10
3.325300474
 20
0.6241842425
 10
3.3305075484
 20
0.604397778
 10
3.3410707665
 20
0.5864047945
 10
3.3563762325
 20
0.5712509787
 10
3.3755344484
 20
0.5598170153
 10
3.3974320083
 20
0.5527674047
 10
3.4207963056
 20
0.5505118447
 10
3.4442694923
 20
0.5531814202
 10
3.4664873921
 20
0.5606209852
 10
3.4861587814
 20
0.5723981793
 10
3.5021404305
 20
0.5878285546
 10
3.5135035442
 20
0.6060153539
 10
3.5195877395
 20
0.6259016265
 10
3.5200394252
 20
0.6463316546
 10
3.5148323508
 20
0.6661181191
 10
3.5042691327
 20
0.6841111026
 10
3.4889636667
 20
0.6992649185
 10
3.4698054508
 20
0.7106988818
 10
3.4479078909
 20
0.7177484924
 10
3.4245435936
 20
0.7200040524
 10
3.4010704069
 20
0.7173344769
 10
3.3788525071
 20
0.7098949119
 10
3.3591811178
 20
0.6981177178
 10
3.3431994687
 20
0.6826873425
  0
LWPOLYLINE
  5
8A
330
1F
100
AcDbEntity
  8
0
  6
Continuous
 62
     7
370
    25
100
AcDbPolyline
 90
       27
 70
   128
 43
0.0
 10
0.4749820674
 20
-2.8434491201
 10
0.4636189537
 20
-2.8616359194
 10
0.4575347584
 20
-2.881522192
 10
0.4570830728
 20
-2.9019522201
 10
0.4622901471
 20
-2.9217386846
 10
0.4728533652
 20
-2.9397316681
 10
0.4881588313
 20
-2.9548854839
 10
0.5073170472
 20
-2.9663194473
 10
0.5292146071
 20
-2.9733690579
 10
0.5525789044
 20
-2.9756246179
 10
0.5760520911
 20
-2.9729550424
 10
0.5982699908
 20
-2.9655154774
 10
0.6179413801
 20
-2.9537382833
 10
0.6339230293
 20
-2.938307908
 10
0.645286143
 20
-2.9201211087
 10
0.6513703383
 20
-2.9002348361
 10
0.6518220239
 20
-2.879804808
 10
0.6466149496
 20
-2.8600183435
 10
0.6360517315
 20
-2.84202536
 10
0.6207462654
 20
-2.8268715441
 10
0.6015880495
 20
-2.8154375808
 10
0.5796904896
 20
-2.8083879702
 10
0.5563261923
 20
-2.8061324102
 10
0.5328530056
 20
-2.8088019857
 10
0.5106351059
 20
-2.8162415507
 10
0.4909637166
 20
-2.8280187448
 10
0.4749820674
 20
-2.8434491201
  0
LWPOLYLINE
  5
8B
330
1F
100
AcDbEntity
  8
0
  6
Continuous
 62
     7
370
    25
100
AcDbPolyline
 90
       27
 70
   128
 43
0.0
 10
-0.6465430436
 20
3.0638365087
 10
-0.6579061573
 20
3.0456497094
 10
-0.6639903526
 20
3.0257634367
 10
-0.6644420383
 20
3.0053334087
 10
-0.6592349639
 20
2.9855469442
 10
-0.6486717458
 20
2.9675539606
 10
-0.6333662798
 20
2.9524001448
 10
-0.6142080639
 20
2.9409661814
 10
-0.592310504
 20
2.9339165708
 10
-0.5689462067
 20
2.9316610109
 10
-0.54547302
 20
2.9343305864
 10
-0.5232551202
 20
2.9417701514
 10
-0.5035837309
 20
2.9535473454
 10
-0.4876020818
 20
2.9689777207
 10
-0.4762389681
 20
2.9871645201
 10
-0.4701547728
 20
3.0070507927
 10
-0.4697030871
 20
3.0274808207
 10
-0.4749101615
 20
3.0472672852
 10
-0.4854733796
 20
3.0652602688
 10
-0.5007788456
 20
3.0804140846
 10
-0.5199370615
 20
3.091848048
 10
-0.5418346214
 20
3.0988976586
 10
-0.5651989187
 20
3.1011532186
 10
-0.5886721054
 20
3.098483643
 10
-0.6108900052
 20
3.091044078
 10
-0.6305613945
 20
3.079266884
 10
-0.6465430436
 20
3.0638365087
  0
LWPOLYLINE
  5
8C
330
1F
100
AcDbEntity
  8
0
  6
Continuous
 62
     7
370
    25
100
AcDbPolyline
 90
       13
 70
   128
 43
0.0
 10
0.5080345058
 20
-0.3344323391
 10
0.5275055338
 20
-0.342978594
 10
0.5490166348
 20
-0.3468031153
 10
0.5711018627
 20
-0.3456452682
 10
0.5922561459
 20
-0.339583958
 10
0.6110378547
 20
-0.3290322531
 10
0.626167047
 20
-0.3147092347
 10
0.6366126931
 20
-0.2975909928
 10
0.6416629395
 20
-0.2788441074
 10
0.6409736204
 20
-0.2597461476
 10
0.6345917116
 20
-0.2415986079
 10
0.6229521298
 20
-0.2256382131
 10
0.6068480931
 20
-0.2129526378
  0
LWPOLYLINE
  5
8E
330
1F
100
AcDbEntity
  8
0
  6
Continuous
 62
     7
370
    25
100
AcDbPolyline
 90
       13
 70
   128
 43
0.0
 10
0.4041172744
 20
-0.0919592858
 10
0.3846462463
 20
-0.0834130309
 10
0.3631351454
 20
-0.0795885096
 10
0.3410499174
 20
-0.0807463567
 10
0.3198956343
 20
-0.0868076669
 10
0.3011139254
 20
-0.0973593718
 10
0.2859847332
 20
-0.1116823902
 10
0.2755390871
 20
-0.1288006321
 10
0.2704888406
 20
-0.1475475175
 10
0.2711781597
 20
-0.1666454773
 10
0.2775600685
 20
-0.184793017
 10
0.2891996504
 20
-0.2007534118
 10
0.3053036871
 20
-0.2134389871
  0
LWPOLYLINE
  5
90
330
1F
100
AcDbEntity
  8
0
  6
Continuous
 62
     7
370
    25
100
AcDbPolyline
 90
       44
 70
   128
 43
0.0
 10
-1.689797751
 20
1.0568534563
 10
-1.7088576385
 20
1.0294761892
 10
-1.7231904422
 20
1.0001036578
 10
-1.7324906831
 20
0.9693618866
 10
-1.7365601429
 20
0.937906083
 10
-1.7353120881
 20
0.906406673
 10
-1.7287731188
 20
0.8755350117
 10
-1.7170826018
 20
0.845949075
 10
-1.7004897001
 20
0.8182794359
 10
-1.6793480626
 20
0.7931158245
 10
-1.6541082867
 20
0.7709945596
 10
-1.6253083143
 20
0.7523871176
 10
-1.5935619669
 20
0.7376900838
 10
-1.5595458627
 20
0.7272166999
 10
-1.5239849959
 20
0.721190188
 10
-1.4876372847
 20
0.7197389926
 10
-1.4512774175
 20
0.7228940435
 10
-1.4156803416
 20
0.7305880962
 10
-1.3816047469
 20
0.7426571654
 10
-1.3497768957
 20
0.7588440198
 10
-1.3208751432
 20
0.7788036648
 10
-1.2955154801
 20
0.802110695
 10
-1.2742384037
 20
0.8282683618
 10
-1.2574973979
 20
0.8567191597
 10
-1.2456492682
 20
0.8868567095
 10
-1.2389465368
 20
0.9180386815
 10
-1.2375320609
 20
0.9496004863
 10
-1.2414359875
 20
0.9808694386
 10
-1.2505751113
 20
1.0111790952
 10
-1.2647546476
 20
1.0398834582
 10
-1.2836723844
 20
1.066370744
 10
-1.3069251228
 20
1.0900764221
 10
-1.3340172711
 20
1.1104952472
 10
-1.3643714072
 20
1.1271920274
 10
-1.3973405854
 20
1.1398108998
 10
-1.432222125
 20
1.1480829151
 10
-1.4682725864
 20
1.1518317697
 10
-1.5047236166
 20
1.1509775632
 10
-1.5407983253
 20
1.1455385015
 10
-1.5757278426
 20
1.1356305088
 10
-1.6087677065
 20
1.1214647568
 10
-1.6392137298
 20
1.1033431638
 10
-1.6664170081
 20
1.0816519602
 10
-1.689797751
 20
1.0568534563
  0
LWPOLYLINE
  5
91
330
1F
100
AcDbEntity
  8
0
  6
Continuous
 62
     7
370
    25
100
AcDbPolyline
 90
       24
 70
   128
 43
0.0
 10
-2.1541760351
 20
0.2267959309
 10
-2.1637169699
 20
0.2109477647
 10
-2.1680396119
 20
0.1935829275
 10
-2.1668233706
 20
0.1759892897
 10
-2.1601584492
 20
0.1594716911
 10
-2.1485391542
 20
0.1452551664
 10
-2.1328272356
 20
0.1343940901
 10
-2.1141879747
 20
0.1276939786
 10
-2.09400376
 20
0.1256517485
 10
-2.0737715625
 20
0.1284188628
 10
-2.0549919117
 20
0.135790097
 10
-2.0390576084
 20
0.1472187607
 10
-2.0271504269
 20
0.161857242
 10
-2.0201534685
 20
0.1786198717
 10
-2.0185856655
 20
0.1962634424
 10
-2.0225632947
 20
0.213479411
 10
-2.0317913536
 20
0.228990948
 10
-2.0455854392
 20
0.2416476335
 10
-2.0629225073
 20
0.2505107792
 10
-2.0825167469
 20
0.2549230461
 10
-2.1029149429
 20
0.2545571965
 10
-2.1226042544
 20
0.2494403638
 10
-2.1401244152
 20
0.2399520401
 10
-2.1541760351
 20
0.2267959309
  0
LWPOLYLINE
  5
92
330
1F
100
AcDbEntity
  8
0
  6
Continuous
 62
     7
370
    25
100
AcDbPolyline
 90
       24
 70
   128
 43
0.0
 10
-1.2155926985
 20
1.3806739197
 10
-1.2251336333
 20
1.3648257535
 10
-1.2294562753
 20
1.3474609162
 10
-1.2282400341
 20
1.3298672785
 10
-1.2215751126
 20
1.3133496799
 10
-1.2099558176
 20
1.2991331552
 10
-1.1942438991
 20
1.2882720789
 10
-1.1756046381
 20
1.2815719674
 10
-1.1554204234
 20
1.2795297373
 10
-1.1351882259
 20
1.2822968515
 10
-1.1164085751
 20
1.2896680858
 10
-1.1004742718
 20
1.3010967495
 10
-1.0885670903
 20
1.3157352307
 10
-1.0815701319
 20
1.3324978605
 10
-1.0800023289
 20
1.3501414311
 10
-1.0839799581
 20
1.3673573998
 10
-1.093208017
 20
1.3828689367
 10
-1.1070021026
 20
1.3955256223
 10
-1.1243391707
 20
1.404388768
 10
-1.1439334103
 20
1.4088010349
 10
-1.1643316063
 20
1.4084351853
 10
-1.1840209178
 20
1.4033183526
 10
-1.2015410786
 20
1.3938300289
 10
-1.2155926985
 20
1.3806739197
  0
LWPOLYLINE
  5
9A
330
1F
100
AcDbEntity
  8
0
  6
Continuous
 62
     7
370
    25
100
AcDbPolyline
 90
        3
 70
   128
 43
0.0
 10
0.4812920746
 20
-2.9062134204
 10
0.4699289609
 20
-2.9244002197
 10
0.4671279444
 20
-2.931357029
  0
LWPOLYLINE
  5
A6
330
1F
100
AcDbEntity
  8
0
  6
Continuous
 62
     7
370
    25
100
AcDbPolyline
 90
        3
 70
   128
 43
0.0
 10
1.6997952886
 20
-0.9242413045
 10
1.7158993252
 20
-0.9369268798
 10
1.7233212771
 20
-0.9459495216
  0
LWPOLYLINE
  5
AB
330
1F
100
AcDbEntity
  8
0
  6
Continuous
 62
     7
370
    25
100
AcDbPolyline
 90
        3
 70
   128
 43
0.0
 10
0.6131581002
 20
-0.2757169381
 10
0.6292621369
 20
-0.2884025134
 10
0.6366840888
 20
-0.2974251552
  0
LWPOLYLINE
  5
AD
330
1F
100
AcDbEntity
  8
0
  6
Continuous
 62
     7
370
    25
100
AcDbPolyline
 90
        3
 70
   128
 43
0.0
 10
-3.5084504377
 20
-0.5250642543
 10
-3.5198135514
 20
-0.5432510536
 10
-3.5226145679
 20
-0.5502078629
  0
LWPOLYLINE
  5
B2
330
1F
100
AcDbEntity
  8
0
  6
Continuous
 62
     7
370
    25
100
AcDbPolyline
 90
        3
 70
   128
 43
0.0
 10
3.3495094758
 20
0.6199230422
 10
3.3381463622
 20
0.6017362429
 10
3.3353453456
 20
0.5947794336
  0
LWPOLYLINE
  5
B6
330
1F
100
AcDbEntity
  8
0
  6
Continuous
 62
     7
370
    25
100
AcDbPolyline
 90
       17
 70
   128
 43
0.0
 10
-1.6834877439
 20
0.994089156
 10
-1.660107001
 20
1.0188876599
 10
-1.6329037226
 20
1.0405788635
 10
-1.6024576993
 20
1.0587004564
 10
-1.5694178354
 20
1.0728662085
 10
-1.5344883181
 20
1.0827742011
 10
-1.4984136094
 20
1.0882132628
 10
-1.4619625792
 20
1.0890674694
 10
-1.4259121178
 20
1.0853186148
 10
-1.3910305783
 20
1.0770465995
 10
-1.3580614
 20
1.0644277271
 10
-1.3277072639
 20
1.0477309469
 10
-1.3006151156
 20
1.0273121218
 10
-1.2773623772
 20
1.0036064437
 10
-1.2584446405
 20
0.9771191578
 10
-1.2442651041
 20
0.9484147948
 10
-1.2378361796
 20
0.9292171728
  0
LWPOLYLINE
  5
B9
330
1F
100
AcDbEntity
  8
0
  6
Continuous
 62
     7
370
    25
100
AcDbPolyline
 90
        3
 70
   128
 43
0.0
 10
-0.6402330365
 20
3.0010722083
 10
-0.6515961501
 20
2.982885409
 10
-0.6543971667
 20
2.9759285997
  0
LINE
  5
BB
330
1F
100
AcDbEntity
  8
0
  6
Continuous
 62
     7
370
    25
100
AcDbLine
 10
1.8166644166
 20
-1.803350118
 30
0.0
 11
1.8103544095
 21
-1.7405858177
 31
0.0
  0
LINE
  5
BC
330
1F
100
AcDbEntity
  8
0
  6
Continuous
 62
     7
370
    25
100
AcDbLine
 10
-3.7597373199
 20
-0.5506803822
 30
0.0
 11
-3.7534273128
 21
-0.6134446825
 31
0.0
  0
LINE
  5
BD
330
1F
100
AcDbEntity
  8
0
  6
Continuous
 62
     7
370
    25
100
AcDbLine
 10
3.7534273128
 20
0.6134446825
 30
0.0
 11
3.7471173056
 21
0.6762089828
 31
0.0
  0
LINE
  5
BE
330
1F
100
AcDbEntity
  8
0
  6
Continuous
 62
     7
370
    25
100
AcDbLine
 10
-3.6773346535
 20
-0.6740131181
 30
0.0
 11
0.4583740483
 21
-3.1422774976
 31
0.0
  0
LINE
  5
BF
330
1F
100
AcDbEntity
  8
0
  6
Continuous
 62
     7
370
    25
100
AcDbLine
 10
-0.7497729209
 20
3.2212618992
 30
0.0
 11
-3.7229251052
 21
-0.4338795559
 31
0.0
  0
LINE
  5
C0
330
1F
100
AcDbEntity
  8
0
  6
Continuous
 62
     7
370
    25
100
AcDbLine
 10
-0.4709940626
 20
3.2678060983
 30
0.0
 11
3.6647146391
 21
0.7995417187
 31
0.0
  0
LINE
  5
C1
330
1F
100
AcDbEntity
  8
0
  6
Continuous
 62
     7
370
    25
100
AcDbLine
 10
3.7103050908
 20
0.5594081566
 30
0.0
 11
2.1125823612
 21
-1.4048043092
 31
0.0
  0
LINE
  5
C2
330
1F
100
AcDbEntity
  8
0
  6
Continuous
 62
     7
370
    25
100
AcDbLine
 10
1.973192932
 20
-1.4280764087
 30
0.0
 11
1.2839081484
 21
-1.0166990121
 31
0.0
  0
LINE
  5
C3
330
1F
100
AcDbEntity
  8
0
  6
Continuous
 62
     7
370
    25
100
AcDbLine
 10
1.2839081484
 20
-1.0166990121
 30
0.0
 11
1.0798682926
 21
-1.2675420532
 31
0.0
  0
LINE
  5
C4
330
1F
100
AcDbEntity
  8
0
  6
Continuous
 62
     7
370
    25
100
AcDbLine
 10
1.7691530762
 20
-1.6789194498
 30
0.0
 11
1.0798682926
 21
-1.2675420532
 31
0.0
  0
LINE
  5
C5
330
1F
100
AcDbEntity
  8
0
  6
Continuous
 62
     7
370
    25
100
AcDbLine
 10
1.7919483021
 20
-1.7989862308
 30
0.0
 11
0.7371529066
 21
-3.0957332986
 31
0.0
  0
LINE
  5
C6
330
1F
100
AcDbEntity
  8
0
  6
Continuous
 62
     7
370
    25
100
AcDbLine
 10
1.3919408754
 20
-0.8619633535
 30
0.0
 11
1.5946716941
 21
-0.9829567055
 31
0.0
  0
LINE
  5
C7
330
1F
100
AcDbEntity
  8
0
  6
Continuous
 62
     7
370
    25
100
AcDbLine
 10
1.4907544627
 20
-0.7404836522
 30
0.0
 11
1.6934852814
 21
-0.8614770042
 31
0.0
  0
LINE
  5
C8
330
1F
100
AcDbEntity
  8
0
  6
Continuous
 62
     7
370
    25
100
AcDbLine
 10
0.4041172744
 20
-0.0919592858
 30
0.0
 11
0.6068480931
 21
-0.2129526378
 31
0.0
  0
LINE
  5
C9
330
1F
100
AcDbEntity
  8
0
  6
Continuous
 62
     7
370
    25
100
AcDbLine
 10
0.3053036871
 20
-0.2134389871
 30
0.0
 11
0.5080345058
 21
-0.3344323391
 31
0.0
  0
LINE
  5
CA
330
1F
100
AcDbEntity
  8
0
  6
Continuous
 62
     7
370
    25
100
AcDbLine
 10
0.4646840555
 20
-3.2050417979
 30
0.0
 11
0.4583740483
 21
-3.1422774976
 31
0.0
  0
LINE
  5
CB
330
1F
100
AcDbEntity
  8
0
  6
Continuous
 62
     7
370
    25
100
AcDbLine
 10
0.7371529066
 20
-3.0957332986
 30
0.0
 11
0.7434629137
 21
-3.1584975989
 31
0.0
  0
LINE
  5
CC
330
1F
100
AcDbEntity
  8
0
  6
Continuous
 62
     7
370
    25
100
AcDbLine
 10
-3.6773346535
 20
-0.6740131181
 30
0.0
 11
-3.6710246463
 21
-0.7367774184
 31
0.0
  0
LINE
  5
CD
330
1F
100
AcDbEntity
  8
0
  6
Continuous
 62
     7
370
    25
100
AcDbLine
 10
-3.6710246463
 20
-0.7367774184
 30
0.0
 11
0.4646840555
 21
-3.2050417979
 31
0.0
  0
LINE
  5
CE
330
1F
100
AcDbEntity
  8
0
  6
Continuous
 62
     7
370
    25
100
AcDbLine
 10
1.7982583092
 20
-1.8617505312
 30
0.0
 11
1.7919483021
 21
-1.7989862308
 31
0.0
  0
LINE
  5
CF
330
1F
100
AcDbEntity
  8
0
  6
Continuous
 62
     7
370
    25
100
AcDbLine
 10
1.7982583092
 20
-1.8617505312
 30
0.0
 11
0.7434629137
 21
-3.1584975989
 31
0.0
  0
LINE
  5
D0
330
1F
100
AcDbEntity
  8
0
  6
Continuous
 62
     7
370
    25
100
AcDbLine
 10
1.9795029392
 20
-1.4908407091
 30
0.0
 11
1.973192932
 21
-1.4280764087
 31
0.0
  0
LINE
  5
D1
330
1F
100
AcDbEntity
  8
0
  6
Continuous
 62
     7
370
    25
100
AcDbLine
 10
2.1125823612
 20
-1.4048043092
 30
0.0
 11
2.1188923683
 21
-1.4675686095
 31
0.0
  0
LINE
  5
D2
330
1F
100
AcDbEntity
  8
0
  6
Continuous
 62
     7
370
    25
100
AcDbLine
 10
1.2902181556
 20
-1.0794633125
 30
0.0
 11
1.2839081484
 21
-1.0166990121
 31
0.0
  0
LINE
  5
D3
330
1F
100
AcDbEntity
  8
0
  6
Continuous
 62
     7
370
    25
100
AcDbLine
 10
1.2902181556
 20
-1.0794633125
 30
0.0
 11
1.9795029392
 21
-1.4908407091
 31
0.0
  0
LINE
  5
D4
330
1F
100
AcDbEntity
  8
0
  6
Continuous
 62
     7
370
    25
100
AcDbLine
 10
3.716615098
 20
0.4966438562
 30
0.0
 11
3.7103050908
 21
0.5594081566
 31
0.0
  0
LINE
  5
D5
330
1F
100
AcDbEntity
  8
0
  6
Continuous
 62
     7
370
    25
100
AcDbLine
 10
3.716615098
 20
0.4966438562
 30
0.0
 11
2.1188923683
 21
-1.4675686095
 31
0.0
  0
LINE
  5
D6
330
1F
100
AcDbEntity
  8
0
  6
Continuous
 62
     7
370
    25
100
AcDbLine
 10
1.1184849287
 20
-1.2905891472
 30
0.0
 11
1.2902181556
 21
-1.0794633125
 31
0.0
  0
LINE
  5
D7
330
1F
100
AcDbEntity
  8
0
  6
Continuous
 62
     7
370
    25
100
AcDbLine
 10
1.6997952886
 20
-0.9242413045
 30
0.0
 11
1.6934852814
 21
-0.8614770042
 31
0.0
  0
LINE
  5
D8
330
1F
100
AcDbEntity
  8
0
  6
Continuous
 62
     7
370
    25
100
AcDbLine
 10
1.4970644698
 20
-0.8032479525
 30
0.0
 11
1.4907544627
 21
-0.7404836522
 31
0.0
  0
LINE
  5
D9
330
1F
100
AcDbEntity
  8
0
  6
Continuous
 62
     7
370
    25
100
AcDbLine
 10
1.6997952886
 20
-0.9242413045
 30
0.0
 11
1.4970644698
 21
-0.8032479525
 31
0.0
  0
LINE
  5
DA
330
1F
100
AcDbEntity
  8
0
  6
Continuous
 62
     7
370
    25
100
AcDbLine
 10
0.6131581002
 20
-0.2757169381
 30
0.0
 11
0.6068480931
 21
-0.2129526378
 31
0.0
  0
LINE
  5
DB
330
1F
100
AcDbEntity
  8
0
  6
Continuous
 62
     7
370
    25
100
AcDbLine
 10
0.4104272815
 20
-0.1547235862
 30
0.0
 11
0.4041172744
 21
-0.0919592858
 31
0.0
  0
LINE
  5
DC
330
1F
100
AcDbEntity
  8
0
  6
Continuous
 62
     7
370
    25
100
AcDbLine
 10
0.6131581002
 20
-0.2757169381
 30
0.0
 11
0.4104272815
 21
-0.1547235862
 31
0.0
  0
ARC
  5
DD
330
1F
100
AcDbEntity
  8
0
  6
Continuous
 62
     7
370
    25
100
AcDbCircle
 10
0.5697677307
 20
-2.9513234425
 30
0.0
 40
0.2210701328424975
100
AcDbArc
 50
239.7427083467
 51
319.2143519804
  0
ARC
  5
DE
330
1F
100
AcDbEntity
  8
0
  6
Continuous
 62
     7
370
    25
100
AcDbCircle
 10
-3.6018357579
 20
-0.5352847499
 30
0.0
 40
0.1579418987581313
100
AcDbArc
 50
140.0558102216
 51
241.4440379643
  0
ARC
  5
DF
330
1F
100
AcDbEntity
  8
0
  6
Continuous
 62
     7
370
    25
100
AcDbCircle
 10
-0.582387745
 20
3.0768520432
 30
0.0
 40
0.2210701328424981
100
AcDbArc
 50
59.7427083467
 51
139.2143519804
  0
ARC
  5
E0
330
1F
100
AcDbEntity
  8
0
  6
Continuous
 62
     7
370
    25
100
AcDbCircle
 10
3.5892157435
 20
0.6608133505
 30
0.0
 40
0.1579418987581323
100
AcDbArc
 50
320.0558102216
 51
61.4440379643
  0
ARC
  5
E1
330
1F
100
AcDbEntity
  8
0
  6
Continuous
 62
     7
370
    25
100
AcDbCircle
 10
2.0288480109
 20
-1.3323492435
 30
0.0
 40
0.1107302035102573
100
AcDbArc
 50
239.8265917088
 51
319.1304686183
  0
ARC
  5
E2
330
1F
100
AcDbEntity
  8
0
  6
Continuous
 62
     7
370
    25
100
AcDbCircle
 10
1.7316190912
 20
-1.7482427273
 30
0.0
 40
0.0788322068717826
100
AcDbArc
 50
319.9324726191
 51
61.5673755668
  0
ARC
  5
E3
330
1F
100
AcDbEntity
  8
0
  6
Continuous
 62
     7
370
    25
100
AcDbCircle
 10
0.576035297
 20
-3.0138335412
 30
0.0
 40
0.2212683810295428
100
AcDbArc
 50
239.7853684271
 51
319.1716919001
  0
ARC
  5
E4
330
1F
100
AcDbEntity
  8
0
  6
Continuous
 62
     7
370
    25
100
AcDbCircle
 10
0.5620583002
 20
-2.9728306173
 30
0.0
 40
0.1046949574670875
100
AcDbArc
 50
34.743693386
 51
140.4836752662
  0
ARC
  5
E5
330
1F
100
AcDbEntity
  8
0
  6
Continuous
 62
     7
370
    25
100
AcDbCircle
 10
1.7373975208
 20
-1.8104682445
 30
0.0
 40
0.0795858561776228
100
AcDbArc
 50
319.8819683372
 51
5.1313680021
  0
ARC
  5
E6
330
1F
100
AcDbEntity
  8
0
  6
Continuous
 62
     7
370
    25
100
AcDbCircle
 10
2.035158018
 20
-1.3951135438
 30
0.0
 40
0.1107302035102574
100
AcDbArc
 50
239.8265917088
 51
319.1304686183
  0
ARC
  5
E7
330
1F
100
AcDbEntity
  8
0
  6
Continuous
 62
     7
370
    25
100
AcDbCircle
 10
1.4497326014
 20
-0.8808247359
 30
0.0
 40
0.0908760864841277
100
AcDbArc
 50
58.6114100118
 51
153.4852831248
  0
ARC
  5
E8
330
1F
100
AcDbEntity
  8
0
  6
Continuous
 62
     7
370
    25
100
AcDbCircle
 10
-3.5909130673
 20
-0.5940578948
 30
0.0
 40
0.1636665130846963
100
AcDbArc
 50
186.8028286099
 51
240.6935529901
  0
ARC
  5
E9
330
1F
100
AcDbEntity
  8
0
  6
Continuous
 62
     7
370
    25
100
AcDbCircle
 10
-3.4276842121
 20
-0.5916814511
 30
0.0
 40
0.1046949574670843
100
AcDbArc
 50
34.7436933859
 51
140.4836752662
  0
ARC
  5
EA
330
1F
100
AcDbEntity
  8
0
  6
Continuous
 62
     7
370
    25
100
AcDbCircle
 10
0.363095413
 20
-0.2323003695
 30
0.0
 40
0.0908760864841268
100
AcDbArc
 50
58.6114100118
 51
153.4852831248
  0
ARC
  5
EB
330
1F
100
AcDbEntity
  8
0
  6
Continuous
 62
     7
370
    25
100
AcDbCircle
 10
3.4302757015
 20
0.5533058453
 30
0.0
 40
0.1046949574670846
100
AcDbArc
 50
34.7436933859
 51
140.4836752662
  0
ARC
  5
EC
330
1F
100
AcDbEntity
  8
0
  6
Continuous
 62
     7
370
    25
100
AcDbCircle
 10
3.5948924428
 20
0.5992087695
 30
0.0
 40
0.1591727559126561
100
AcDbArc
 50
319.8821248904
 51
5.1312114489
  0
ARC
  5
ED
330
1F
100
AcDbEntity
  8
0
  6
Continuous
 62
     7
370
    25
100
AcDbCircle
 10
-2.0855791616
 20
0.1131355138
 30
0.0
 40
0.0801614391688485
100
AcDbArc
 50
40.9447891835
 51
150.5370901822
  0
ARC
  5
EE
330
1F
100
AcDbEntity
  8
0
  6
Continuous
 62
     7
370
    25
100
AcDbCircle
 10
-1.5269412141
 20
0.8638007451
 30
0.0
 40
0.2036710239761267
100
AcDbArc
 50
140.2305263046
 51
175.511810429
  0
ARC
  5
EF
330
1F
100
AcDbEntity
  8
0
  6
Continuous
 62
     7
370
    25
100
AcDbCircle
 10
-1.146995825
 20
1.2670135025
 30
0.0
 40
0.0801614391688478
100
AcDbArc
 50
40.9447891835
 51
150.5370901822
  0
ARC
  5
F0
330
1F
100
AcDbEntity
  8
0
  6
Continuous
 62
     7
370
    25
100
AcDbCircle
 10
-0.5594668108
 20
2.9344550115
 30
0.0
 40
0.1046949574670861
100
AcDbArc
 50
34.743693386
 51
140.4836752662
  0
MTEXT
  5
F2
330
1F
100
AcDbEntity
  8
0
  6
Continuous
 62
     7
100
AcDbMText
 10
-3.7597776566
 20
-3.2752423313
 30
0.0
 40
0.1903
 41
0.0
 71
     1
 72
     1
  1
SOLIDWORKS Educational Product.
  7
SLDTEXTSTYLE0
 73
     1
 44
1.0
  0
MTEXT
  5
F3
330
1F
100
AcDbEntity
  8
0
  6
Continuous
 62
     7
100
AcDbMText
 10
-3.7597776566
 20
-3.5606923313
 30
0.0
 40
0.1903
 41
0.0
 71
     1
 72
     1
  1
For Instructional Use Only.
  7
SLDTEXTSTYLE0
 73
     1
 44
1.0
  0
ENDSEC
  0
SECTION
  2
OBJECTS
  0
DICTIONARY
  5
C
330
0
100
AcDbDictionary
281
     1
  3
ACAD_GROUP
350
D
  3
ACAD_LAYOUT
350
1A
  3
ACAD_MLINESTYLE
350
17
  3
ACAD_PLOTSETTINGS
350
19
  3
ACAD_PLOTSTYLENAME
350
E
  3
ACAD_SCALELIST
350
47
  3
DWGPROPS
350
F4
  0
DICTIONARY
  5
D
102
{ACAD_REACTORS
330
C
102
}
330
C
100
AcDbDictionary
281
     1
  0
DICTIONARY
  5
1A
102
{ACAD_REACTORS
330
C
102
}
330
C
100
AcDbDictionary
281
     1
  3
Layout1
350
1E
  3
Layout2
350
26
  3
Model
350
22
  0
DICTIONARY
  5
17
102
{ACAD_REACTORS
330
C
102
}
330
C
100
AcDbDictionary
281
     1
  3
Standard
350
18
  0
DICTIONARY
  5
19
102
{ACAD_REACTORS
330
C
102
}
330
C
100
AcDbDictionary
281
     1
  0
ACDBDICTIONARYWDFLT
  5
E
102
{ACAD_REACTORS
330
C
102
}
330
C
100
AcDbDictionary
281
     1
  3
Normal
350
F
100
AcDbDictionaryWithDefault
340
F
  0
DICTIONARY
  5
47
102
{ACAD_REACTORS
330
C
102
}
330
C
100
AcDbDictionary
281
     1
  3
A0
350
48
  3
A1
350
49
  3
A2
350
4A
  3
A3
350
4B
  3
A4
350
4C
  3
A5
350
4D
  3
A6
350
4E
  3
A7
350
4F
  3
A8
350
50
  3
A9
350
51
  3
B0
350
52
  3
B1
350
53
  3
B2
350
54
  3
B3
350
55
  3
B4
350
56
  3
B5
350
57
  3
B6
350
58
  3
B7
350
59
  3
B8
350
5A
  3
B9
350
5B
  3
C0
350
5C
  3
C1
350
5D
  3
C2
350
5E
  3
C3
350
5F
  3
C4
350
60
  3
C5
350
61
  3
C6
350
62
  3
C7
350
63
  3
C8
350
64
  3
C9
350
65
  3
D0
350
66
  3
D1
350
67
  3
D2
350
68
  0
XRECORD
  5
F4
102
{ACAD_REACTORS
330
C
102
}
330
C
100
AcDbXrecord
280
     1
  1
DWGPROPS COOKIE
  2

  3

  4

  6

  7

  8
evere
  9

300
=
301
=
302
=
303
=
304
=
305
=
306
=
307
=
308
=
309
=
 40
0.0
 41
2460106.770594942
 42
2460106.77062184
  1

 90
        0
  0
LAYOUT
  5
1E
102
{ACAD_REACTORS
330
1A
102
}
330
1A
100
AcDbPlotSettings
  1

  2
none_device
  4

  6

 40
0.0
 41
0.0
 42
0.0
 43
0.0
 44
0.0
 45
0.0
 46
0.0
 47
0.0
 48
0.0
 49
0.0
140
0.0
141
0.0
142
1.0
143
1.0
 70
   688
 72
     0
 73
     0
 74
     5
  7

 75
    16
147
1.0
148
0.0
149
0.0
100
AcDbLayout
  1
Layout1
 70
     1
 71
     1
 10
0.0
 20
0.0
 11
12.0
 21
9.0
 12
0.0
 22
0.0
 32
0.0
 14
1.0000000000E+20
 24
1.0000000000E+20
 34
1.0000000000E+20
 15
-1.0000000000E+20
 25
-1.0000000000E+20
 35
-1.0000000000E+20
146
0.0
 13
0.0
 23
0.0
 33
0.0
 16
1.0
 26
0.0
 36
0.0
 17
0.0
 27
1.0
 37
0.0
 76
     0
330
1B
  0
LAYOUT
  5
26
102
{ACAD_REACTORS
330
1A
102
}
330
1A
100
AcDbPlotSettings
  1

  2
none_device
  4

  6

 40
0.0
 41
0.0
 42
0.0
 43
0.0
 44
0.0
 45
0.0
 46
0.0
 47
0.0
 48
0.0
 49
0.0
140
0.0
141
0.0
142
1.0
143
1.0
 70
   688
 72
     0
 73
     0
 74
     5
  7

 75
    16
147
1.0
148
0.0
149
0.0
100
AcDbLayout
  1
Layout2
 70
     1
 71
     2
 10
0.0
 20
0.0
 11
0.0
 21
0.0
 12
0.0
 22
0.0
 32
0.0
 14
0.0
 24
0.0
 34
0.0
 15
0.0
 25
0.0
 35
0.0
146
0.0
 13
0.0
 23
0.0
 33
0.0
 16
1.0
 26
0.0
 36
0.0
 17
0.0
 27
1.0
 37
0.0
 76
     0
330
23
  0
LAYOUT
  5
22
102
{ACAD_REACTORS
330
1A
102
}
330
1A
100
AcDbPlotSettings
  1

  2
none_device
  4
ANSI_A_(11.00_x_8.50_Inches)
  6

 40
6.35
 41
19.05
 42
6.35000508
 43
19.05000254
 44
279.4
 45
215.9
 46
133.4434447255
 47
87.872353365
 48
0.0
 49
0.0
140
0.0
141
0.0
142
1.2880711709
143
1.0
 70
  1696
 72
     0
 73
     0
 74
     0
  7

 75
     0
147
0.5913241897
148
-39.4088153714
149
0.0
100
AcDbLayout
  1
Model
 70
     1
 71
     0
 10
0.0
 20
0.0
 11
12.0
 21
9.0
 12
0.0
 22
0.0
 32
0.0
 14
-3.7597776566
 24
-3.2351019222
 34
0.0
 15
3.7540651987
 25
3.297922176
 35
0.0
146
0.0
 13
0.0
 23
0.0
 33
0.0
 16
1.0
 26
0.0
 36
0.0
 17
0.0
 27
1.0
 37
0.0
 76
     0
330
1F
331
29
  0
MLINESTYLE
  5
18
102
{ACAD_REACTORS
330
17
102
}
330
17
100
AcDbMlineStyle
  2
Standard
 70
     0
  3

 62
   256
 51
90.0
 52
90.0
 71
     2
 49
0.5
 62
   256
  6
BYLAYER
 49
-0.5
 62
   256
  6
BYLAYER
  0
ACDBPLACEHOLDER
  5
F
102
{ACAD_REACTORS
330
E
102
}
330
E
  0
SCALE
  5
48
102
{ACAD_REACTORS
330
47
102
}
330
47
100
AcDbScale
 70
     0
300
1:1
140
1.0
141
1.0
290
     1
  0
SCALE
  5
49
102
{ACAD_REACTORS
330
47
102
}
330
47
100
AcDbScale
 70
     0
300
1:2
140
1.0
141
2.0
290
     0
  0
SCALE
  5
4A
102
{ACAD_REACTORS
330
47
102
}
330
47
100
AcDbScale
 70
     0
300
1:4
140
1.0
141
4.0
290
     0
  0
SCALE
  5
4B
102
{ACAD_REACTORS
330
47
102
}
330
47
100
AcDbScale
 70
     0
300
1:5
140
1.0
141
5.0
290
     0
  0
SCALE
  5
4C
102
{ACAD_REACTORS
330
47
102
}
330
47
100
AcDbScale
 70
     0
300
1:8
140
1.0
141
8.0
290
     0
  0
SCALE
  5
4D
102
{ACAD_REACTORS
330
47
102
}
330
47
100
AcDbScale
 70
     0
300
1:10
140
1.0
141
10.0
290
     0
  0
SCALE
  5
4E
102
{ACAD_REACTORS
330
47
102
}
330
47
100
AcDbScale
 70
     0
300
1:16
140
1.0
141
16.0
290
     0
  0
SCALE
  5
4F
102
{ACAD_REACTORS
330
47
102
}
330
47
100
AcDbScale
 70
     0
300
1:20
140
1.0
141
20.0
290
     0
  0
SCALE
  5
50
102
{ACAD_REACTORS
330
47
102
}
330
47
100
AcDbScale
 70
     0
300
1:30
140
1.0
141
30.0
290
     0
  0
SCALE
  5
51
102
{ACAD_REACTORS
330
47
102
}
330
47
100
AcDbScale
 70
     0
300
1:40
140
1.0
141
40.0
290
     0
  0
SCALE
  5
52
102
{ACAD_REACTORS
330
47
102
}
330
47
100
AcDbScale
 70
     0
300
1:50
140
1.0
141
50.0
290
     0
  0
SCALE
  5
53
102
{ACAD_REACTORS
330
47
102
}
330
47
100
AcDbScale
 70
     0
300
1:100
140
1.0
141
100.0
290
     0
  0
SCALE
  5
54
102
{ACAD_REACTORS
330
47
102
}
330
47
100
AcDbScale
 70
     0
300
2:1
140
2.0
141
1.0
290
     0
  0
SCALE
  5
55
102
{ACAD_REACTORS
330
47
102
}
330
47
100
AcDbScale
 70
     0
300
4:1
140
4.0
141
1.0
290
     0
  0
SCALE
  5
56
102
{ACAD_REACTORS
330
47
102
}
330
47
100
AcDbScale
 70
     0
300
8:1
140
8.0
141
1.0
290
     0
  0
SCALE
  5
57
102
{ACAD_REACTORS
330
47
102
}
330
47
100
AcDbScale
 70
     0
300
10:1
140
10.0
141
1.0
290
     0
  0
SCALE
  5
58
102
{ACAD_REACTORS
330
47
102
}
330
47
100
AcDbScale
 70
     0
300
100:1
140
100.0
141
1.0
290
     0
  0
SCALE
  5
59
102
{ACAD_REACTORS
330
47
102
}
330
47
100
AcDbScale
 70
     0
300
1/128" = 1'-0"
140
0.0078125
141
12.0
290
     0
  0
SCALE
  5
5A
102
{ACAD_REACTORS
330
47
102
}
330
47
100
AcDbScale
 70
     0
300
1/64" = 1'-0"
140
0.015625
141
12.0
290
     0
  0
SCALE
  5
5B
102
{ACAD_REACTORS
330
47
102
}
330
47
100
AcDbScale
 70
     0
300
1/32" = 1'-0"
140
0.03125
141
12.0
290
     0
  0
SCALE
  5
5C
102
{ACAD_REACTORS
330
47
102
}
330
47
100
AcDbScale
 70
     0
300
1/16" = 1'-0"
140
0.0625
141
12.0
290
     0
  0
SCALE
  5
5D
102
{ACAD_REACTORS
330
47
102
}
330
47
100
AcDbScale
 70
     0
300
3/32" = 1'-0"
140
0.09375
141
12.0
290
     0
  0
SCALE
  5
5E
102
{ACAD_REACTORS
330
47
102
}
330
47
100
AcDbScale
 70
     0
300
1/8" = 1'-0"
140
0.125
141
12.0
290
     0
  0
SCALE
  5
5F
102
{ACAD_REACTORS
330
47
102
}
330
47
100
AcDbScale
 70
     0
300
3/16" = 1'-0"
140
0.1875
141
12.0
290
     0
  0
SCALE
  5
60
102
{ACAD_REACTORS
330
47
102
}
330
47
100
AcDbScale
 70
     0
300
1/4" = 1'-0"
140
0.25
141
12.0
290
     0
  0
SCALE
  5
61
102
{ACAD_REACTORS
330
47
102
}
330
47
100
AcDbScale
 70
     0
300
3/8" = 1'-0"
140
0.375
141
12.0
290
     0
  0
SCALE
  5
62
102
{ACAD_REACTORS
330
47
102
}
330
47
100
AcDbScale
 70
     0
300
1/2" = 1'-0"
140
0.5
141
12.0
290
     0
  0
SCALE
  5
63
102
{ACAD_REACTORS
330
47
102
}
330
47
100
AcDbScale
 70
     0
300
3/4" = 1'-0"
140
0.75
141
12.0
290
     0
  0
SCALE
  5
64
102
{ACAD_REACTORS
330
47
102
}
330
47
100
AcDbScale
 70
     0
300
1" = 1'-0"
140
1.0
141
12.0
290
     0
  0
SCALE
  5
65
102
{ACAD_REACTORS
330
47
102
}
330
47
100
AcDbScale
 70
     0
300
1-1/2" = 1'-0"
140
1.5
141
12.0
290
     0
  0
SCALE
  5
66
102
{ACAD_REACTORS
330
47
102
}
330
47
100
AcDbScale
 70
     0
300
3" = 1'-0"
140
3.0
141
12.0
290
     0
  0
SCALE
  5
67
102
{ACAD_REACTORS
330
47
102
}
330
47
100
AcDbScale
 70
     0
300
6" = 1'-0"
140
6.0
141
12.0
290
     0
  0
SCALE
  5
68
102
{ACAD_REACTORS
330
47
102
}
330
47
100
AcDbScale
 70
     0
300
1'-0" = 1'-0"
140
12.0
141
12.0
290
     0
  0
ENDSEC
  0
EOF
