<?xml version="1.0" encoding="UTF-8" standalone="no"?>
<!-- Created with Inkscape (http://www.inkscape.org/) -->

<svg
   width="124.732mm"
   height="74.723999mm"
   viewBox="0 0 124.73201 74.723999"
   version="1.1"
   id="svg1"
   xmlns="http://www.w3.org/2000/svg"
   xmlns:svg="http://www.w3.org/2000/svg">
  <defs
     id="defs1" />
  <g
     id="layer1"
     transform="translate(-45.310511,-76.195465)">
    <path
       d="m 55.310981,125.95569 c 0,2.76945 1.894192,4.84654 4.89878,4.84654 1.580663,0 2.678014,-0.65318 3.265862,-1.1104 0.352714,-0.27434 0.365758,-0.64011 0.117553,-1.00588 l -0.365757,-0.50948 c -0.274345,-0.39189 -0.613988,-0.40496 -1.005886,-0.13064 -0.444153,0.31353 -1.123467,0.66624 -1.907262,0.66624 -1.802753,0 -2.638804,-1.42391 -2.638804,-2.80863 0,-1.34553 0.770726,-2.66494 2.638804,-2.66494 0.692356,0 1.306344,0.27434 1.737427,0.52253 0.404968,0.24821 0.731568,0.20902 0.979772,-0.19595 l 0.326573,-0.53559 c 0.235133,-0.37885 0.20902,-0.73156 -0.156765,-0.99282 -0.548662,-0.37884 -1.554548,-0.88832 -2.991517,-0.88832 -2.887008,0 -4.89878,2.09015 -4.89878,4.80734 z m 10.568206,-0.0392 c 0,2.74332 1.985631,4.88573 4.885709,4.88573 2.900105,0 4.885737,-2.14241 4.885737,-4.88573 0,-2.678 -1.985632,-4.76815 -4.885737,-4.76815 -2.900078,0 -4.885709,2.09015 -4.885709,4.76815 z m 2.364485,0 c 0,-1.52842 1.045071,-2.678 2.521224,-2.678 1.47618,0 2.521251,1.14958 2.521251,2.678 0,1.59374 -1.045071,2.79557 -2.521251,2.79557 -1.476153,0 -2.521224,-1.20183 -2.521224,-2.79557 z m 9.875903,0.0392 c 0,2.76945 1.894192,4.84654 4.898779,4.84654 1.580663,0 2.678015,-0.65318 3.265862,-1.1104 0.352714,-0.27434 0.365757,-0.64011 0.117554,-1.00588 l -0.365758,-0.50948 c -0.274345,-0.39189 -0.613987,-0.40496 -1.005886,-0.13064 -0.444153,0.31353 -1.123466,0.66624 -1.907262,0.66624 -1.802752,0 -2.638804,-1.42391 -2.638804,-2.80863 0,-1.34553 0.770726,-2.66494 2.638804,-2.66494 0.692357,0 1.306344,0.27434 1.737427,0.52253 0.404969,0.24821 0.731568,0.20902 0.979772,-0.19595 l 0.326573,-0.53559 c 0.235134,-0.37885 0.209019,-0.73156 -0.156764,-0.99282 -0.548663,-0.37884 -1.554549,-0.88832 -2.991518,-0.88832 -2.887007,0 -4.898779,2.09015 -4.898779,4.80734 z m 10.568205,-0.0392 c 0,2.74332 1.985632,4.88573 4.88571,4.88573 2.900104,0 4.885735,-2.14241 4.885735,-4.88573 0,-2.678 -1.985631,-4.76815 -4.885735,-4.76815 -2.900078,0 -4.88571,2.09015 -4.88571,4.76815 z m 2.364486,0 c 0,-1.52842 1.045071,-2.678 2.521224,-2.678 1.47618,0 2.52125,1.14958 2.52125,2.678 0,1.59374 -1.04507,2.79557 -2.52125,2.79557 -1.476153,0 -2.521224,-1.20183 -2.521224,-2.79557 z m 9.444764,3.90596 c -0.16983,0.49641 0.0653,0.823 0.58785,0.823 h 0.86219 c 0.41801,0 0.67929,-0.19595 0.79687,-0.60092 l 0.3919,-1.35859 h 2.91314 l 0.3919,1.35859 c 0.13063,0.40497 0.3919,0.60092 0.80994,0.60092 h 0.86219 c 0.52252,0 0.75766,-0.32659 0.58785,-0.823 l -2.70413,-7.92949 c -0.13062,-0.40497 -0.3919,-0.58786 -0.80994,-0.58786 h -1.17569 c -0.41804,0 -0.67931,0.18289 -0.80994,0.58786 z m 3.1744,-2.96539 0.53562,-1.81582 c 0.16981,-0.58785 0.37883,-1.60679 0.37883,-1.60679 h 0.0262 c 0,0 0.209,1.01894 0.37883,1.60679 l 0.52255,1.81582 z m 12.63228,3.0699 c 0,0.47029 0.24821,0.71849 0.7185,0.71849 h 0.84912 c 0.47027,0 0.71848,-0.2482 0.71848,-0.71849 v -2.16852 h 1.59376 c 1.81579,0 3.04377,-1.3586 3.04377,-3.23973 0,-1.88114 -1.22798,-3.21361 -3.04377,-3.21361 h -3.16136 c -0.47029,0 -0.7185,0.24821 -0.7185,0.71849 z m 2.2861,-4.12804 v -2.5343 h 1.16264 c 0.75768,0 1.14958,0.50947 1.14958,1.25409 0,0.74461 -0.3919,1.28021 -1.18876,1.28021 z m 7.39399,4.12804 c 0,0.47029 0.24821,0.71849 0.71849,0.71849 h 0.84913 c 0.47029,0 0.71849,-0.2482 0.71849,-0.71849 v -2.42979 h 1.07119 l 1.38474,2.63881 c 0.19595,0.35271 0.45722,0.50947 0.84912,0.50947 h 0.99282 c 0.56173,0 0.7838,-0.36578 0.49641,-0.86219 l -1.33246,-2.40367 c -0.22209,-0.3919 -0.35272,-0.56172 -0.35272,-0.56172 v -0.0261 c 0.92749,-0.47028 1.39779,-1.55455 1.39779,-2.54736 0,-1.3586 -0.66624,-2.31223 -1.72439,-2.71719 -0.40496,-0.15677 -0.86219,-0.22208 -1.81581,-0.22208 h -2.53431 c -0.47028,0 -0.71849,0.2482 -0.71849,0.71849 z m 2.28611,-4.38931 v -2.27303 h 0.77074 c 0.37884,0 0.65316,0.0392 0.86218,0.13063 0.43109,0.16982 0.54867,0.52253 0.54867,0.99282 0,0.74461 -0.45723,1.14958 -1.18877,1.14958 z m 7.70721,4.38931 c 0,0.47029 0.24821,0.71849 0.7185,0.71849 h 4.59832 c 0.47027,0 0.71847,-0.2482 0.71847,-0.71849 v -0.52254 c 0,-0.47028 -0.2482,-0.71848 -0.71847,-0.71848 h -3.03073 v -1.76357 h 2.12936 c 0.47027,0 0.71846,-0.24821 0.71846,-0.71848 v -0.52254 c 0,-0.47029 -0.24819,-0.71849 -0.71846,-0.71849 h -2.12936 v -1.69824 h 2.84782 c 0.4703,0 0.7185,-0.24821 0.7185,-0.71849 v -0.52254 c 0,-0.47028 -0.2482,-0.71849 -0.7185,-0.71849 h -4.41541 c -0.47029,0 -0.7185,0.24821 -0.7185,0.71849 z m 8.77866,-0.0523 c 0.49641,0.3919 1.65906,0.92751 2.9654,0.92751 2.10321,0 3.27894,-1.34555 3.27894,-2.91315 0,-2.95233 -4.12806,-2.62575 -4.12806,-3.98435 0,-0.36577 0.30046,-0.65316 1.01896,-0.65316 0.61396,0 1.04507,0.22208 1.47615,0.43108 0.36578,0.18289 0.7185,0.26127 0.97977,-0.24819 l 0.31351,-0.61399 c 0.19595,-0.37884 0.15676,-0.70543 -0.22207,-0.97975 -0.44415,-0.31353 -1.43699,-0.69237 -2.52125,-0.69237 -1.89419,0 -3.33116,1.13652 -3.33116,2.86089 0,2.92621 4.12803,2.71719 4.12803,4.03659 0,0.36578 -0.31354,0.65318 -0.99282,0.65318 -0.80994,0 -1.39778,-0.41803 -1.69824,-0.57479 -0.43109,-0.23514 -0.73155,-0.20901 -0.99281,0.16982 l -0.40497,0.58786 c -0.33965,0.48335 -0.1437,0.77074 0.13062,0.99282 z m 9.03983,0 c 0.4964,0.3919 1.65906,0.92751 2.9654,0.92751 2.10321,0 3.27892,-1.34555 3.27892,-2.91315 0,-2.95233 -4.12805,-2.62575 -4.12805,-3.98435 0,-0.36577 0.30046,-0.65316 1.01897,-0.65316 0.61395,0 1.04506,0.22208 1.47614,0.43108 0.36579,0.18289 0.7185,0.26127 0.97978,-0.24819 l 0.3135,-0.61399 c 0.19594,-0.37884 0.15676,-0.70543 -0.22206,-0.97975 -0.44416,-0.31353 -1.43697,-0.69237 -2.52126,-0.69237 -1.89418,0 -3.33115,1.13652 -3.33115,2.86089 0,2.92621 4.12802,2.71719 4.12802,4.03659 0,0.36578 -0.3135,0.65318 -0.99281,0.65318 -0.80994,0 -1.39778,-0.41803 -1.69824,-0.57479 -0.43109,-0.23514 -0.73155,-0.20901 -0.99283,0.16982 l -0.40496,0.58786 c -0.33964,0.48335 -0.14369,0.77074 0.13063,0.99282 z"
       id="text6328-2-5-4-3-3-5-3-9-3"
       style="font-weight:bold;font-size:49.3739px;font-family:'Museo Sans Rounded 900';-inkscape-font-specification:MuseoSansRounded-900;fill:#3c2215;fill-opacity:1;stroke-width:0.217723"
       aria-label="COCOA PRESS" />
    <path
       style="font-size:33.3333px;font-family:'Museo Sans Rounded';-inkscape-font-specification:'Museo Sans Rounded';text-align:center;text-anchor:middle;white-space:pre;fill:#3c2215;fill-opacity:1;stroke:none;stroke-width:0.49993;stroke-linecap:round;stroke-linejoin:round;stroke-dashoffset:46.4882;paint-order:stroke markers fill"
       d="m 55.310743,140.52242 c 0,0.194 0.09702,0.29102 0.290987,0.29102 h 1.93118 c 1.102326,0 2.010555,-0.59964 2.010555,-1.77247 0,-0.69662 -0.370334,-1.31392 -1.022925,-1.50792 v -0.0177 c 0.476194,-0.24693 0.767207,-0.73191 0.767207,-1.34038 0,-1.00526 -0.749506,-1.58726 -1.798916,-1.58726 H 55.60173 c -0.193964,0 -0.290987,0.097 -0.290987,0.29098 z m 0.864202,-3.31565 v -1.86062 h 1.296317 c 0.590811,0 0.934661,0.37037 0.934661,0.91708 0,0.54674 -0.352634,0.94354 -0.917092,0.94354 z m 0,2.84829 v -2.12517 h 1.402124 c 0.652537,0 1.075762,0.43209 1.075762,1.06699 0,0.63492 -0.40563,1.05818 -1.075762,1.05818 z m 4.364987,0.46736 c 0,0.194 0.105833,0.29102 0.291013,0.29102 h 0.273365 c 0.193965,0 0.291014,-0.097 0.291014,-0.29102 v -1.55201 c 0,-0.88181 0.423225,-1.82536 1.296291,-1.82536 0.202801,0 0.317418,-0.097 0.317418,-0.29099 v -0.24692 c 0,-0.194 -0.07935,-0.29098 -0.282176,-0.29098 -0.670132,0 -1.172811,0.582 -1.366801,1.1728 h -0.01799 c 0,0 0.02672,-0.14991 0.02672,-0.33508 v -0.51144 c 0,-0.194 -0.09697,-0.29102 -0.290987,-0.29102 h -0.246908 c -0.18518,0 -0.29104,0.097 -0.29104,0.29102 z m 2.716035,-1.93998 c 0,1.32271 0.961198,2.33682 2.363268,2.33682 0.714345,0 1.243375,-0.29103 1.507904,-0.4762 0.149911,-0.0882 0.176396,-0.23809 0.08821,-0.388 l -0.07938,-0.13228 c -0.097,-0.16754 -0.229286,-0.18517 -0.396793,-0.097 -0.202855,0.14991 -0.582,0.35271 -1.067031,0.35271 -0.793612,0 -1.490256,-0.53791 -1.543224,-1.50792 h 2.980589 c 0.176371,0 0.299824,-0.14107 0.299824,-0.29982 0,-1.24335 -0.687832,-2.12517 -1.92237,-2.12517 -1.269806,0 -2.231004,0.91708 -2.231004,2.33684 z m 0.908308,-0.47618 c 0.123428,-0.74958 0.652459,-1.19047 1.305075,-1.19047 0.590757,0 1.058167,0.40563 1.084626,1.19047 z m 3.818229,1.49024 c 0,0.83777 0.714291,1.32276 1.499119,1.32276 1.040573,0 1.454987,-0.93476 1.454987,-0.93476 h 0.01799 c 0,0 -0.02704,0.10586 -0.02704,0.2734 v 0.26452 c 0,0.194 0.105859,0.29102 0.29104,0.29102 h 0.220476 c 0.18518,0 0.290907,-0.097 0.290907,-0.29102 v -2.53081 c 0,-1.12875 -0.643621,-1.74601 -1.754784,-1.74601 -0.678943,0 -1.181541,0.22926 -1.446124,0.37917 -0.158721,0.0882 -0.185206,0.22929 -0.097,0.39683 l 0.07051,0.12345 c 0.09705,0.15874 0.22926,0.1852 0.396793,0.10581 0.202855,-0.11461 0.564432,-0.28219 1.00533,-0.28219 0.546705,0 0.969982,0.24694 0.969982,0.97885 v 0.11465 h -0.229286 c -0.92585,0 -2.663066,0.1499 -2.663066,1.53433 z m 0.864255,-0.0705 c 0,-0.84657 1.181569,-0.89949 1.807701,-0.89949 h 0.22926 v 0.194 c 0,0.6614 -0.458547,1.41977 -1.208105,1.41977 -0.546706,0 -0.828856,-0.36158 -0.828856,-0.71428 z m 4.06511,0.99643 c 0,0.194 0.09705,0.29102 0.29104,0.29102 h 0.273313 c 0.185207,0 0.282229,-0.097 0.282229,-0.29102 v -1.7989 h 0.661321 l 1.216917,1.88708 c 0.0794,0.14111 0.185233,0.20284 0.343982,0.20284 h 0.352714 c 0.23807,0 0.317418,-0.14991 0.193991,-0.35275 l -1.428555,-2.12518 v -0.0177 l 1.234564,-1.61373 c 0.141022,-0.19399 0.06173,-0.3527 -0.17637,-0.3527 h -0.326336 c -0.158669,0 -0.264475,0.0529 -0.343849,0.18517 l -1.084652,1.44619 h -0.643727 v -3.10403 c 0,-0.194 -0.09702,-0.29098 -0.282229,-0.29098 h -0.273313 c -0.193991,0 -0.29104,0.097 -0.29104,0.29098 z m 6.860599,0 c 0,0.194 0.09702,0.29102 0.290987,0.29102 h 0.282176 c 0.194018,0 0.291039,-0.097 0.291039,-0.29102 v -2.37207 h 1.887102 c 0.194017,0 0.29096,-0.097 0.29096,-0.29101 v -0.17638 c 0,-0.18517 -0.09694,-0.29098 -0.29096,-0.29098 H 80.63667 v -2.04583 h 2.275111 c 0.185154,0 0.29096,-0.10582 0.29096,-0.29101 v -0.17634 c 0,-0.19404 -0.105806,-0.29102 -0.29096,-0.29102 h -2.848326 c -0.193964,0 -0.290987,0.097 -0.290987,0.29102 z m 4.109295,0 c 0,0.194 0.105806,0.29102 0.291013,0.29102 h 0.273339 c 0.193992,0 0.291013,-0.097 0.291013,-0.29102 v -1.55201 c 0,-0.88181 0.423278,-1.82536 1.296291,-1.82536 0.202802,0 0.317392,-0.097 0.317392,-0.29099 v -0.24692 c 0,-0.194 -0.07935,-0.29098 -0.28215,-0.29098 -0.670158,0 -1.172837,0.582 -1.366774,1.1728 h -0.01799 c 0,0 0.02672,-0.14991 0.02672,-0.33508 v -0.51144 c 0,-0.194 -0.097,-0.29102 -0.29096,-0.29102 H 84.17275 c -0.185234,0 -0.29104,0.097 -0.29104,0.29102 z m 2.715956,-1.93998 c 0,1.32271 0.961251,2.33682 2.363347,2.33682 0.714291,0 1.243322,-0.29103 1.507877,-0.4762 0.149886,-0.0882 0.176344,-0.23809 0.08821,-0.388 l -0.0794,-0.13228 c -0.09697,-0.16754 -0.229234,-0.18517 -0.396766,-0.097 -0.202829,0.14991 -0.582027,0.35271 -1.066978,0.35271 -0.793666,0 -1.490335,-0.53791 -1.543225,-1.50792 h 2.980563 c 0.176318,0 0.299745,-0.14107 0.299745,-0.29982 0,-1.24335 -0.687806,-2.12517 -1.922291,-2.12517 -1.269832,0 -2.231083,0.91708 -2.231083,2.33684 z m 0.908334,-0.47618 c 0.123454,-0.74958 0.652538,-1.19047 1.305101,-1.19047 0.590758,0 1.058195,0.40563 1.084626,1.19047 z m 3.897631,0.47618 c 0,1.32271 0.961171,2.33682 2.36332,2.33682 0.714238,0 1.243375,-0.29103 1.507877,-0.4762 0.149965,-0.0882 0.176397,-0.23809 0.08816,-0.388 l -0.07937,-0.13228 c -0.09697,-0.16754 -0.229259,-0.18517 -0.396819,-0.097 -0.202775,0.14991 -0.582,0.35271 -1.066978,0.35271 -0.793639,0 -1.490282,-0.53791 -1.543198,-1.50792 h 2.980511 c 0.176423,0 0.299876,-0.14107 0.299876,-0.29982 0,-1.24335 -0.687805,-2.12517 -1.922396,-2.12517 -1.269806,0 -2.230977,0.91708 -2.230977,2.33684 z m 0.908281,-0.47618 c 0.123427,-0.74958 0.652564,-1.19047 1.305048,-1.19047 0.590864,0 1.058221,0.40563 1.084652,1.19047 z m 6.57837,2.41616 c 0,0.194 0.105805,0.29102 0.290986,0.29102 h 0.273366 c 0.194044,0 0.290987,-0.097 0.290987,-0.29102 v -3.43026 h 0.767256 c 0.18516,0 0.29094,-0.10582 0.29094,-0.29102 v -0.11465 c 0,-0.18516 -0.10578,-0.29098 -0.29094,-0.29098 h -0.767256 v -0.17637 c 0,-0.8289 0.520326,-0.90828 0.846606,-0.92592 0.2028,-0.0177 0.30866,-0.097 0.30866,-0.29097 v -0.16754 c 0,-0.18521 -0.0971,-0.29102 -0.29106,-0.29102 h -0.10578 c -0.45858,0 -1.613765,0.22926 -1.613765,1.64019 v 0.21163 h -0.28215 c -0.185181,0 -0.291066,0.10582 -0.291066,0.29098 v 0.11465 c 0,0.1852 0.105885,0.29102 0.291066,0.29102 h 0.28215 z m 2.645525,0 c 0,0.194 0.10578,0.29102 0.29096,0.29102 h 0.27334 c 0.19402,0 0.29099,-0.097 0.29099,-0.29102 v -1.55201 c 0,-0.88181 0.4233,-1.82536 1.29629,-1.82536 0.20285,0 0.31749,-0.097 0.31749,-0.29099 v -0.24692 c 0,-0.194 -0.0794,-0.29098 -0.2822,-0.29098 -0.67018,0 -1.17281,0.582 -1.36683,1.1728 h -0.0177 c 0,0 0.0267,-0.14991 0.0267,-0.33508 v -0.51144 c 0,-0.194 -0.097,-0.29102 -0.29101,-0.29102 h -0.24696 c -0.18513,0 -0.29096,0.097 -0.29096,0.29102 z m 2.68074,-1.94881 c 0,1.35801 1.06692,2.34565 2.39854,2.34565 1.33156,0 2.40734,-0.98764 2.40734,-2.34565 0,-1.34917 -1.07578,-2.32801 -2.40734,-2.32801 -1.33162,0 -2.39854,0.97884 -2.39854,2.32801 z m 0.86415,0 c 0,-0.92591 0.69661,-1.58727 1.53439,-1.58727 0.84652,0 1.53433,0.66136 1.53433,1.58727 0,0.93475 -0.68781,1.6049 -1.53433,1.6049 -0.83778,0 -1.53439,-0.67015 -1.53439,-1.6049 z m 4.88526,1.94881 c 0,0.194 0.10583,0.29102 0.29099,0.29102 h 0.27341 c 0.19402,0 0.29102,-0.097 0.29102,-0.29102 v -1.79007 c 0,-0.82892 0.49376,-1.71075 1.34034,-1.71075 0.68781,0 0.77602,0.53792 0.77602,1.11991 v 2.38091 c 0,0.194 0.0969,0.29102 0.28214,0.29102 h 0.28218 c 0.18521,0 0.28221,-0.097 0.28221,-0.29102 v -1.79007 c 0,-0.85539 0.49381,-1.71075 1.32269,-1.71075 0.66141,0 0.78481,0.49383 0.78481,1.11991 v 2.38091 c 0,0.194 0.10586,0.29102 0.29103,0.29102 h 0.27339 c 0.19402,0 0.29097,-0.097 0.29097,-0.29102 v -2.56607 c 0,-1.13758 -0.45855,-1.71075 -1.47264,-1.71075 -0.7231,0 -1.34037,0.49382 -1.57844,1.0141 h -0.0177 c -0.15869,-0.67018 -0.59086,-1.0141 -1.34039,-1.0141 -0.70543,0 -1.33156,0.52907 -1.55201,1.04936 h -0.0177 c 0,0 0.0267,-0.12344 0.0267,-0.25573 v -0.39679 c 0,-0.194 -0.097,-0.29102 -0.29093,-0.29102 h -0.2469 c -0.18521,0 -0.29102,0.097 -0.29102,0.29102 z m 10.37022,-1.31391 c 0,1.12874 0.77601,1.64019 1.65783,1.64019 0.23808,0 0.35275,-0.0882 0.35275,-0.29099 v -0.1852 c 0,-0.2028 -0.0794,-0.27336 -0.30867,-0.29099 -0.32627,-0.0266 -0.84655,-0.15874 -0.84655,-1.00526 v -1.9841 h 0.78483 c 0.1852,0 0.28217,-0.10582 0.28217,-0.29102 v -0.11465 c 0,-0.18516 -0.097,-0.29098 -0.29096,-0.29098 h -0.77604 v -0.97881 c 0,-0.194 -0.097,-0.29101 -0.29093,-0.29101 h -0.25578 c -0.18519,0 -0.29103,0.097 -0.29103,0.29101 v 0.97881 h -0.31739 c -0.19402,0 -0.29107,0.10582 -0.29107,0.29098 v 0.11465 c 0,0.1852 0.0971,0.29102 0.28221,0.29102 h 0.30863 z m 2.81303,1.31391 c 0,0.194 0.097,0.29102 0.29098,0.29102 h 0.27337 c 0.18515,0 0.2822,-0.097 0.2822,-0.29102 v -1.82536 c 0,-0.96117 0.63492,-1.66662 1.49028,-1.66662 0.71425,0 0.8465,0.49382 0.8465,1.11991 v 2.37207 c 0,0.194 0.097,0.29102 0.29107,0.29102 h 0.27329 c 0.18523,0 0.29101,-0.097 0.29101,-0.29102 v -2.56607 c 0,-1.13758 -0.485,-1.71075 -1.53431,-1.71075 -0.89068,0 -1.47263,0.59083 -1.6667,1.02289 h -0.0177 c 0,0 0.0268,-0.1587 0.0268,-0.37033 v -2.01936 c 0,-0.19404 -0.097,-0.29102 -0.2822,-0.29102 h -0.27334 c -0.19401,0 -0.29096,0.097 -0.29096,0.29102 z m 4.92941,-1.93998 c 0,1.32271 0.96116,2.33682 2.36328,2.33682 0.71423,0 1.24332,-0.29103 1.50788,-0.4762 0.14993,-0.0882 0.17637,-0.23809 0.0881,-0.388 l -0.0793,-0.13228 c -0.097,-0.16754 -0.22927,-0.18517 -0.3968,-0.097 -0.20283,0.14991 -0.58203,0.35271 -1.067,0.35271 -0.79362,0 -1.49031,-0.53791 -1.54323,-1.50792 h 2.98062 c 0.17632,0 0.29974,-0.14107 0.29974,-0.29982 0,-1.24335 -0.68772,-2.12517 -1.92237,-2.12517 -1.26977,0 -2.23093,0.91708 -2.23093,2.33684 z m 0.90821,-0.47618 c 0.12348,-0.74958 0.65259,-1.19047 1.30513,-1.19047 0.59078,0 1.05814,0.40563 1.08465,1.19047 z m 6.34913,2.40736 c -0.009,0.194 0.0882,0.29982 0.28215,0.29982 h 0.29105 c 0.17634,0 0.27336,-0.097 0.29098,-0.28219 l 0.28216,-3.64193 c 0.0352,-0.37916 0.0177,-0.9347 0.0177,-0.9347 h 0.0177 c 0,0 0.20279,0.59963 0.33508,0.9347 l 1.14633,2.57495 c 0.0618,0.15869 0.16756,0.22925 0.33512,0.22925 h 0.29099 c 0.16756,0 0.27342,-0.0706 0.33509,-0.22925 l 1.14633,-2.57495 c 0.1411,-0.3439 0.33509,-0.91706 0.33509,-0.91706 h 0.018 c 0,0 -0.018,0.5379 0.0177,0.91706 l 0.28223,3.64193 c 0.018,0.18517 0.11462,0.28219 0.29979,0.28219 h 0.28221 c 0.19399,0 0.29101,-0.10582 0.2822,-0.29982 l -0.45858,-5.65248 c -0.018,-0.17638 -0.12342,-0.27336 -0.29979,-0.27336 h -0.39682 c -0.16756,0 -0.27336,0.0706 -0.32631,0.22926 l -1.34918,3.13931 c -0.14113,0.34391 -0.29988,0.83772 -0.29988,0.83772 h -0.0177 c 0,0 -0.16756,-0.49381 -0.30869,-0.83772 l -1.34913,-3.13931 c -0.053,-0.1587 -0.15878,-0.22926 -0.3263,-0.22926 h -0.3968 c -0.17642,0 -0.28223,0.097 -0.29982,0.27336 z m 7.14278,-1.94001 c 0,1.35801 1.06695,2.34565 2.39851,2.34565 1.33156,0 2.40737,-0.98764 2.40737,-2.34565 0,-1.34917 -1.07581,-2.32801 -2.40737,-2.32801 -1.33156,0 -2.39851,0.97884 -2.39851,2.32801 z m 0.86412,0 c 0,-0.92591 0.6967,-1.58727 1.53439,-1.58727 0.84653,0 1.53436,0.66136 1.53436,1.58727 0,0.93475 -0.68783,1.6049 -1.53436,1.6049 -0.83769,0 -1.53439,-0.67015 -1.53439,-1.6049 z m 4.88534,1.02289 c 0,1.11992 0.71424,1.2522 1.19044,1.2522 0.22047,0 0.29981,-0.11461 0.29981,-0.29982 v -0.21163 c 0,-0.16754 -0.097,-0.2381 -0.2293,-0.25573 -0.18513,-0.0177 -0.40561,-0.0882 -0.40561,-0.59082 v -4.6119 c 0,-0.19404 -0.1058,-0.29102 -0.29104,-0.29102 h -0.27331 c -0.19408,0 -0.29099,0.097 -0.29099,0.29102 z m 2.03694,-1.01406 c 0,1.38444 0.75837,2.33682 1.96647,2.33682 1.09352,0 1.47266,-0.85537 1.47266,-0.85537 h 0.0177 c 0,0 -0.0177,0.097 -0.0177,0.22043 v 0.25576 c 0,0.17634 0.097,0.27336 0.29099,0.27336 h 0.22928 c 0.19402,0 0.29096,-0.097 0.29096,-0.29102 v -5.64362 c 0,-0.19404 -0.0969,-0.29102 -0.29096,-0.29102 h -0.27338 c -0.19399,0 -0.29099,0.097 -0.29099,0.29102 v 1.83415 c 0,0.16758 0.0267,0.29982 0.0267,0.29982 h -0.0177 c 0,0 -0.36153,-0.76717 -1.38447,-0.76717 -1.1816,0 -2.01935,0.91708 -2.01935,2.33684 z m 0.87306,0 c 0,-1.01409 0.58197,-1.5873 1.27854,-1.5873 0.85542,0 1.26991,0.78484 1.26991,1.57847 0,1.13754 -0.62613,1.6049 -1.28748,1.6049 -0.74075,0 -1.26097,-0.62609 -1.26097,-1.59607 z"
       id="path26-1-1-8-0-4-7-9-8" />
    <path
       style="font-size:20.6884px;font-family:'Museo Sans Rounded';-inkscape-font-specification:'Museo Sans Rounded';text-align:center;text-anchor:middle;white-space:pre;fill:#3c2215;fill-opacity:1;stroke:none;stroke-width:0.49993;stroke-linecap:round;stroke-linejoin:round;stroke-dashoffset:46.4882;paint-order:stroke markers fill"
       d="m 157.62643,136.87287 c -0.005,0.12039 0.0547,0.18605 0.17515,0.18605 h 0.0548 c 0.10941,0 0.17513,-0.0602 0.18061,-0.16967 l 0.1039,-1.26974 c 0.006,-0.0821 -0.005,-0.16417 -0.005,-0.16417 h 0.0111 l 0.46523,1.01796 c 0.0383,0.0985 0.10399,0.14233 0.20799,0.14233 h 0.0328 c 0.10396,0 0.16971,-0.0438 0.20799,-0.14233 l 0.46519,-1.01796 h 0.0111 c 0,0 -0.0111,0.0821 -0.005,0.16417 l 0.0985,1.26974 c 0.0111,0.10948 0.0711,0.16967 0.18063,0.16967 h 0.0547 c 0.12039,0 0.18063,-0.0657 0.1751,-0.18605 l -0.16412,-2.05242 c -0.006,-0.10943 -0.0711,-0.16967 -0.18062,-0.16967 h -0.0602 c -0.10401,0 -0.16962,0.0383 -0.21344,0.13686 l -0.5035,1.12196 c -0.0438,0.0985 -0.0766,0.22987 -0.0766,0.22987 h -0.0111 c 0,0 -0.0332,-0.13136 -0.0767,-0.22987 l -0.50349,-1.12196 c -0.0438,-0.0986 -0.10954,-0.13686 -0.21339,-0.13686 h -0.0603 c -0.10946,0 -0.17516,0.0602 -0.18058,0.16967 z m -1.25327,0.18605 h 0.0547 c 0.11491,0 0.1806,-0.0602 0.1806,-0.18059 v -1.86083 h 0.65124 c 0.12038,0 0.1806,-0.0547 0.1806,-0.16967 v -0.0273 c 0,-0.11493 -0.0602,-0.16967 -0.1806,-0.16967 h -1.71857 c -0.12037,0 -0.18054,0.0547 -0.18054,0.16967 v 0.0273 c 0,0.11494 0.0602,0.16967 0.18054,0.16967 h 0.65133 v 1.86083 c 0,0.1204 0.0657,0.18059 0.18066,0.18059 z"
       id="path27-5-1-0-3-5-0-9-4" />
    <path
       style="fill:#3c2215;fill-opacity:1;stroke:none;stroke-width:0.0547699"
       d="m 108.48421,116.53582 c -3.37622,-0.22867 -6.22518,-0.92029 -8.626244,-2.09413 -3.82137,-1.86821 -6.161156,-4.77986 -6.694479,-8.33067 -0.13983,-0.93098 -0.129207,-1.33611 0.139155,-5.30656 0.138197,-2.044623 0.287653,-3.976715 0.332118,-4.293529 0.23786,-1.694487 0.965182,-3.326259 2.123454,-4.764031 0.42205,-0.523885 1.434488,-1.510396 1.964621,-1.914302 1.838874,-1.401012 3.865745,-2.340577 6.407175,-2.970069 3.28098,-0.812667 7.10057,-0.885324 10.82389,-0.20589 1.25552,0.229109 2.89168,0.699744 4.12828,1.187483 0.67121,0.26474 1.85163,0.838412 2.19538,1.066934 0.35053,0.233036 0.69928,0.605044 0.84344,0.899681 0.21485,0.439131 0.21508,0.420172 -0.0536,4.318646 -0.27584,4.002994 -0.25086,3.827108 -0.6208,4.371297 -0.22666,0.333442 -1.66731,1.80441 -1.99477,2.03675 -0.3074,0.2181 -0.50303,0.31726 -0.86553,0.43869 -0.24298,0.0814 -0.36579,0.0951 -0.83918,0.094 -0.70828,-0.002 -0.95193,-0.066 -2.08331,-0.5489 -2.31612,-0.98862 -3.90989,-1.316589 -6.14591,-1.264742 -1.41084,0.03272 -2.27728,0.164157 -3.29966,0.500561 -0.84493,0.278011 -1.64864,0.704471 -2.18849,1.161251 l -0.14129,0.11954 0.20291,0.21737 c 0.67172,0.71959 1.7453,1.36516 2.90072,1.74427 1.07988,0.35433 2.05157,0.51184 3.36111,0.54485 1.97034,0.0496 3.56777,-0.26194 5.65698,-1.10344 0.98295,-0.3959 1.38295,-0.49552 2.00394,-0.49907 0.56295,-0.003 0.85893,0.059 1.32227,0.27777 0.45428,0.21453 0.69573,0.42215 1.47845,1.27132 0.96303,1.04478 1.21221,1.44323 1.27059,2.03171 0.0258,0.25962 -0.40782,6.86196 -0.47752,7.27153 -0.0813,0.47777 -0.35478,0.89902 -0.79736,1.2282 -0.45839,0.34094 -1.84012,0.95659 -3.06343,1.36495 -1.60953,0.53729 -3.3602,0.90032 -5.2579,1.0903 -0.75551,0.0756 -3.21948,0.11149 -4.00505,0.0583 z m 3.28619,-1.43715 c 2.71153,-0.19548 5.11971,-0.78193 7.37339,-1.79563 0.61089,-0.27477 0.92604,-0.47181 1.00794,-0.63019 0.0857,-0.16573 0.0782,-0.17225 -0.096,-0.0834 -0.0859,0.0438 -0.40331,0.1848 -0.70548,0.31336 -0.45585,0.19394 -0.57723,0.23 -0.71297,0.2118 -0.48778,-0.0654 -0.58921,-0.75114 -0.14072,-0.95149 0.0736,-0.0329 0.41105,-0.18116 0.74993,-0.32953 0.3389,-0.14837 0.71063,-0.33228 0.82608,-0.4087 0.19685,-0.13029 0.21168,-0.15223 0.23825,-0.35251 0.0156,-0.11747 0.0211,-0.22082 0.0122,-0.22967 -0.009,-0.009 -0.18075,0.0602 -0.38202,0.15355 -0.96195,0.44595 -2.72878,1.06906 -3.05822,1.07855 -0.33492,0.01 -0.57244,-0.26058 -0.51204,-0.58254 0.0425,-0.22638 0.20115,-0.34824 0.61647,-0.47342 1.34513,-0.40544 3.13231,-1.15702 3.35392,-1.41045 0.0642,-0.0734 0.13239,-0.46526 0.081,-0.46526 -0.0143,0 -0.25374,0.10176 -0.53202,0.22613 -1.2248,0.5474 -2.78541,1.05432 -4.17628,1.35656 -0.88423,0.19214 -1.19967,0.22039 -1.35137,0.12099 -0.22688,-0.14866 -0.29595,-0.46559 -0.15266,-0.70056 0.10056,-0.16491 0.17803,-0.19223 1.03164,-0.36382 1.03794,-0.20865 2.03431,-0.48968 3.05867,-0.86272 0.54809,-0.1996 1.74738,-0.72309 1.74738,-0.76275 0,-0.0174 -0.0325,-0.0718 -0.0721,-0.12076 l -0.0722,-0.0891 -0.47212,0.19036 c -2.14302,0.86409 -4.3995,1.37308 -7.02397,1.58439 -0.77073,0.0621 -2.83481,0.062 -3.67643,0 -4.98507,-0.36787 -8.907493,-1.79046 -11.686509,-4.23849 l -0.390236,-0.34376 0.211557,0.24576 c 1.317173,1.53012 3.490568,2.87891 5.988078,3.71614 0.52284,0.17528 0.65179,0.26061 0.7239,0.4791 0.099,0.29993 -0.14616,0.63066 -0.46745,0.63066 -0.29286,0 -1.66337,-0.50518 -2.69751,-0.99431 -1.77325,-0.83872 -3.44782,-2.10237 -4.550583,-3.43391 -0.117914,-0.14238 -0.214387,-0.24688 -0.214387,-0.23222 0,0.0147 0.104017,0.18659 0.231147,0.38209 1.219392,1.87513 3.123352,3.36405 5.642913,4.41283 1.17462,0.48894 2.39171,0.8483 3.86128,1.14009 0.46314,0.092 0.88522,0.19545 0.93793,0.22998 0.13446,0.0881 0.22506,0.32427 0.192,0.50052 -0.0313,0.16696 -0.20915,0.36125 -0.36685,0.40083 -0.14163,0.0356 -1.10127,-0.13846 -2.06384,-0.37423 -2.69959,-0.66123 -5.053439,-1.78328 -6.818915,-3.25048 -0.394877,-0.32817 -1.155863,-1.08273 -1.546437,-1.53338 l -0.19581,-0.22592 0.110719,0.18484 c 0.6669,1.11343 1.713844,2.21487 2.922996,3.07514 2.528667,1.79909 5.994397,2.86015 10.197167,3.12195 0.63372,0.0395 0.77345,0.0896 0.88082,0.31587 0.0914,0.19267 0.0564,0.38972 -0.10022,0.56444 l -0.11807,0.13169 -0.54723,-0.005 c -1.6553,-0.0157 -4.18266,-0.42818 -6.03106,-0.98437 -2.4114,-0.7256 -4.58674,-1.90074 -6.076328,-3.2825 -0.39728,-0.36853 -0.189767,-0.10634 0.336372,0.42499 2.336363,2.35939 6.039556,3.8452 10.607626,4.25604 0.38407,0.0345 0.80922,0.0687 0.94478,0.0759 0.61565,0.0327 2.60235,0.0243 3.12188,-0.0132 z m 0.93826,-6.83751 c 2.5896,-0.2321 5.17945,-0.91422 7.20196,-1.89687 0.57063,-0.27724 0.77395,-0.47314 0.74157,-0.71452 -0.0287,-0.21402 -0.17312,-0.40711 -0.87852,-1.17468 -0.7064,-0.76866 -0.78789,-0.84142 -1.10508,-0.98663 -0.50331,-0.23043 -1.02311,-0.1701 -2.00325,0.23249 -1.49186,0.61277 -2.85071,0.98302 -4.31986,1.17703 -0.67291,0.0889 -2.49453,0.10136 -3.16295,0.0217 -2.14178,-0.25526 -3.73633,-0.81596 -5.12757,-1.80302 -0.45864,-0.3254 -1.30537,-1.18004 -1.63964,-1.65496 -0.78627,-1.11711 -1.18529,-2.480238 -1.12909,-3.85719 0.0483,-1.183501 0.38149,-2.210074 1.03421,-3.186622 0.67254,-1.006174 1.55557,-1.756786 2.75435,-2.341281 1.49413,-0.728512 3.16462,-1.062375 5.29898,-1.059079 2.29498,0.0035 4.12201,0.424105 6.634,1.527029 0.85279,0.374439 1.32511,0.415597 1.84848,0.161082 0.22611,-0.10996 0.38339,-0.248899 1.02694,-0.907142 1.09307,-1.118056 1.13684,-1.201856 0.79925,-1.529953 -0.35204,-0.342154 -1.81525,-1.018115 -3.20228,-1.47938 -2.3757,-0.790042 -4.7261,-1.146724 -7.55824,-1.14699 -2.65905,0 -4.71732,0.309808 -6.92186,1.042713 -2.27409,0.756024 -4.016293,1.786933 -5.444594,3.221726 -1.381499,1.387775 -2.213048,2.970595 -2.508378,4.774599 -0.08978,0.548427 -0.100162,1.784037 -0.0198,2.356921 0.659778,4.703277 5.137372,8.122197 11.854902,9.051947 1.4841,0.2054 2.57168,0.27257 4.04612,0.24985 0.5987,-0.009 1.39986,-0.0447 1.78034,-0.0788 z m 5.67305,-8.747786 c 0.13184,-0.0645 0.36187,-0.234926 0.51116,-0.378705 l 0.27146,-0.261426 -0.20503,0.08523 c -0.49288,0.204904 -1.20886,0.262933 -1.77491,0.143862 -0.32179,-0.06769 -0.80871,-0.236076 -1.08487,-0.375169 -0.35831,-0.180468 -0.42428,-0.56762 -0.14125,-0.828936 0.19119,-0.176524 0.34254,-0.173971 0.81159,0.01369 0.52825,0.211345 0.99846,0.29076 1.35729,0.229224 0.318,-0.05453 0.59769,-0.183247 0.83429,-0.383966 0.2791,-0.236763 1.53791,-1.544431 1.53791,-1.597603 0,-0.02786 -0.18947,0.133217 -0.42105,0.357967 -0.47676,0.46271 -0.76988,0.65651 -1.24298,0.821801 -0.29883,0.104405 -0.3779,0.114453 -0.88277,0.112148 -0.67135,-0.003 -0.95818,-0.07815 -1.93064,-0.505402 -0.35018,-0.15386 -0.82725,-0.350091 -1.06015,-0.436074 -0.51103,-0.188659 -0.62402,-0.295091 -0.62402,-0.587785 0,-0.108498 0.0281,-0.233196 0.0641,-0.284629 0.0848,-0.121065 0.27124,-0.214293 0.42857,-0.214293 0.15679,0 0.72253,0.209137 1.56487,0.57848 0.85609,0.375365 1.17308,0.460046 1.65446,0.441979 0.52674,-0.01977 0.8005,-0.153777 1.30256,-0.637595 0.2068,-0.199272 0.47092,-0.472585 0.58694,-0.607348 l 0.21094,-0.245027 -0.26056,0.215628 c -0.80324,0.664723 -1.78107,0.825096 -2.89168,0.474252 -0.78792,-0.248904 -1.01733,-0.423811 -1.01636,-0.77491 5.7e-4,-0.212847 0.0699,-0.344857 0.24211,-0.460888 0.1812,-0.122106 0.35856,-0.118312 0.67234,0.0144 1.04244,0.440871 1.73042,0.385816 2.38304,-0.190703 0.1083,-0.09567 0.1908,-0.180036 0.18334,-0.187496 -0.007,-0.0075 -0.13675,0.03116 -0.28732,0.08581 -0.38818,0.140905 -0.89577,0.196624 -1.31568,0.144444 -0.50806,-0.06313 -0.85219,-0.172022 -1.70286,-0.538828 -1.34525,-0.580076 -2.71788,-0.993031 -3.87269,-1.165113 -1.87872,-0.279949 -4.15223,-0.113926 -5.68442,0.415115 -0.52501,0.181277 -1.16412,0.483757 -1.55118,0.734151 -0.27214,0.176043 -0.85664,0.630949 -0.85664,0.666706 0,0.0081 0.0786,-0.03352 0.17458,-0.09242 0.33767,-0.207142 1.12369,-0.587076 1.52424,-0.736748 0.81138,-0.303201 1.92309,-0.539969 3.01274,-0.641649 0.37131,-0.03465 0.53735,-0.03482 0.64093,-6.08e-4 0.39778,0.131279 0.50394,0.628971 0.1969,0.923127 -0.10098,0.09675 -0.17289,0.121419 -0.44224,0.151716 -1.20228,0.135233 -1.48186,0.17468 -1.90312,0.268489 -1.52054,0.33861 -2.62882,0.904782 -3.51562,1.795989 -0.55081,0.55355 -0.67694,0.742426 -0.29744,0.445385 1.23665,-0.967913 2.84199,-1.566648 4.8103,-1.794062 0.67031,-0.07745 1.97824,-0.12482 2.34856,-0.08506 0.24778,0.0266 0.30346,0.04857 0.42104,0.166161 0.10975,0.109755 0.13551,0.167906 0.13551,0.305964 0,0.09375 -0.028,0.224678 -0.0623,0.290954 -0.11334,0.219167 -0.22464,0.245072 -1.05501,0.245548 -2.53699,0.0014 -4.49036,0.540845 -5.92744,1.636845 -0.29941,0.228334 -0.81066,0.7457 -1.00589,1.017906 -0.16001,0.223088 -0.18049,0.23354 0.33315,-0.170001 0.80151,-0.629685 1.98155,-1.164093 3.21953,-1.458016 1.1262,-0.267387 1.99178,-0.345483 3.52004,-0.317601 1.21374,0.02214 2.15889,0.122987 2.42046,0.258248 0.25209,0.130365 0.32395,0.530094 0.13555,0.753996 -0.15492,0.184107 -0.28562,0.201781 -0.87586,0.118451 -2.6765,-0.377879 -5.33351,-0.0053 -7.11202,0.997274 -0.37088,0.209075 -1.02113,0.688806 -1.16897,0.862422 l -0.0822,0.09648 0.10269,-0.06441 c 0.39767,-0.249425 0.57224,-0.345844 0.98927,-0.546367 1.08168,-0.520141 2.38854,-0.84071 3.96056,-0.971539 0.71522,-0.05953 2.36339,-0.02365 3.01918,0.06571 1.57525,0.214653 3.05477,0.648489 4.72115,1.38438 0.72765,0.321335 0.88764,0.363018 1.34007,0.349149 0.31155,-0.0096 0.41094,-0.03046 0.61171,-0.128691 z"
       id="path102" />
  </g>
</svg>
