<?xml version="1.0" encoding="UTF-8" standalone="no"?>
<!-- Created with Inkscape (http://www.inkscape.org/) -->

<svg
   width="160.039mm"
   height="24.629999mm"
   viewBox="0 0 160.039 24.629999"
   version="1.1"
   id="svg1"
   inkscape:version="1.3 (0e150ed6c4, 2023-07-21)"
   sodipodi:docname="SingleColor.svg"
   inkscape:export-filename="SingleColor.png"
   inkscape:export-xdpi="634.84521"
   inkscape:export-ydpi="634.84521"
   xmlns:inkscape="http://www.inkscape.org/namespaces/inkscape"
   xmlns:sodipodi="http://sodipodi.sourceforge.net/DTD/sodipodi-0.dtd"
   xmlns="http://www.w3.org/2000/svg"
   xmlns:svg="http://www.w3.org/2000/svg">
  <sodipodi:namedview
     id="namedview1"
     pagecolor="#ffffff"
     bordercolor="#000000"
     borderopacity="0.25"
     inkscape:showpageshadow="2"
     inkscape:pageopacity="0.0"
     inkscape:pagecheckerboard="0"
     inkscape:deskcolor="#d1d1d1"
     inkscape:document-units="mm"
     inkscape:zoom="1.0520974"
     inkscape:cx="363.08427"
     inkscape:cy="94.572996"
     inkscape:window-width="2560"
     inkscape:window-height="1377"
     inkscape:window-x="2552"
     inkscape:window-y="-8"
     inkscape:window-maximized="1"
     inkscape:current-layer="layer1" />
  <defs
     id="defs1" />
  <g
     inkscape:label="Layer 1"
     inkscape:groupmode="layer"
     id="layer1"
     transform="translate(-60.325,-129.64583)">
    <g
       id="g1"
       transform="translate(4.9999936,4.9999489)">
      <text
         xml:space="preserve"
         style="font-variant:normal;font-weight:bold;font-stretch:normal;font-size:16.0057px;font-family:'Museo Sans Rounded 900';-inkscape-font-specification:MuseoSansRounded-900;writing-mode:lr-tb;fill:#000000;fill-opacity:1;fill-rule:nonzero;stroke:none;stroke-width:0.266762"
         id="text6328-2-4"
         x="81.533943"
         y="142.86838"><tspan
           x="81.533943 94.482582 109.47994 122.42858 137.20184 149.67032 155.67245 167.5327 179.77711 190.741 201.81697"
           y="142.86838"
           sodipodi:role="line"
           id="tspan6326-3-0"
           style="fill:#000000;fill-opacity:1;stroke-width:0.266762">COCOA PRESS</tspan></text>
      <path
         style="fill:#000000;stroke-width:0.0263718"
         d="m 68.048647,144.27117 c -1.205274,-0.0716 -1.909026,-0.1744 -2.78882,-0.4073 C 62.21371,143.0575 60.325,141.04691 60.325,138.6106 c 0,-0.29015 0.220584,-3.66467 0.258228,-3.95037 0.26472,-2.00921 1.911047,-3.70182 4.374839,-4.49784 2.647057,-0.85523 6.08576,-0.63261 8.493551,0.54986 0.368623,0.18103 0.505923,0.26478 0.640508,0.39067 0.199295,0.18641 0.297672,0.40057 0.297535,0.64769 0,0.0882 -0.04994,0.89417 -0.110868,1.79105 -0.121444,1.78758 -0.115965,1.74606 -0.262111,1.9872 -0.07338,0.12109 -0.687605,0.77158 -0.902448,0.95574 -0.305059,0.26149 -0.701036,0.37715 -1.10645,0.3232 -0.233855,-0.0311 -0.376678,-0.0775 -0.794619,-0.25815 -0.762233,-0.32944 -1.439735,-0.51751 -2.145907,-0.59568 -0.26557,-0.0294 -1.032786,-0.0294 -1.315294,2e-5 -0.726093,0.0756 -1.347695,0.26108 -1.801088,0.53751 -0.214985,0.13109 -0.40189,0.27343 -0.40332,0.30717 -5.45e-4,0.0121 0.06804,0.0878 0.15235,0.16812 0.569388,0.54244 1.308993,0.85685 2.348741,0.99846 0.355647,0.0484 1.146976,0.0494 1.493305,0.002 0.646789,-0.0889 1.161806,-0.22918 1.829543,-0.49837 0.490303,-0.19767 0.645926,-0.23553 0.969166,-0.23586 0.373869,-2.8e-4 0.607608,0.0743 0.880733,0.2815 0.130009,0.0986 0.771782,0.78595 0.876653,0.93889 0.08572,0.12502 0.164763,0.30775 0.188388,0.43553 0.03235,0.17501 -0.198612,3.55017 -0.252677,3.69246 -0.112163,0.29518 -0.286192,0.45947 -0.704154,0.66472 -1.059093,0.5201 -2.370754,0.86734 -3.728316,0.987 -0.330789,0.0292 -1.302718,0.0531 -1.552641,0.0383 z m 1.176842,-0.70121 c 1.370778,-0.0851 2.670628,-0.402 3.736742,-0.9111 0.275928,-0.13176 0.36357,-0.19113 0.40746,-0.276 0.01658,-0.0321 0.02672,-0.0583 0.02252,-0.0583 -0.0042,0 -0.08675,0.0367 -0.183462,0.0815 -0.09671,0.0448 -0.255577,0.11244 -0.353043,0.15023 -0.158668,0.0615 -0.1849,0.0664 -0.250721,0.0467 -0.150129,-0.045 -0.220108,-0.21357 -0.147181,-0.35459 0.03223,-0.0623 0.05923,-0.0773 0.436663,-0.24131 0.481104,-0.20912 0.543917,-0.25533 0.543917,-0.40013 0,-0.0706 -0.0068,-0.0946 -0.02473,-0.0868 -0.0136,0.006 -0.144878,0.0637 -0.291738,0.12828 -0.514511,0.22637 -1.204507,0.46245 -1.348862,0.46151 -0.09438,-6.5e-4 -0.147211,-0.0299 -0.194874,-0.10809 -0.06589,-0.10807 -0.0355,-0.27875 0.0586,-0.32911 0.02059,-0.011 0.191829,-0.0702 0.380537,-0.13141 0.48892,-0.1587 1.099216,-0.40628 1.319235,-0.53516 0.137847,-0.0807 0.161161,-0.11302 0.161161,-0.22305 v -0.0976 l -0.182955,0.0854 c -0.450999,0.21042 -1.074951,0.43099 -1.626812,0.57509 -0.37897,0.099 -0.894854,0.20716 -0.987083,0.20705 -0.07239,0 -0.178145,-0.0599 -0.209531,-0.11858 -0.03305,-0.0618 -0.02896,-0.19075 0.0078,-0.24689 0.05389,-0.0823 0.109843,-0.10517 0.387801,-0.15882 0.759178,-0.14653 1.604948,-0.41563 2.260484,-0.71922 l 0.173872,-0.0805 -0.03275,-0.05 c -0.01801,-0.0275 -0.03979,-0.05 -0.0484,-0.05 -0.0086,0 -0.16112,0.0569 -0.338913,0.12651 -0.915671,0.35836 -1.867064,0.58096 -2.983512,0.69806 -0.251678,0.0264 -0.511898,0.0344 -1.137284,0.035 -0.848126,9.6e-4 -1.076004,-0.0119 -1.760319,-0.0985 -2.01352,-0.25468 -3.723543,-0.97076 -4.884203,-2.04528 -0.09389,-0.0869 -0.09289,-0.0849 0.02552,0.0515 0.635819,0.7326 1.622587,1.34925 2.827146,1.76672 0.343989,0.11921 0.39978,0.16096 0.39978,0.29914 0,0.14851 -0.09749,0.25462 -0.233925,0.25462 -0.03183,0 -0.17691,-0.0408 -0.322387,-0.0906 -1.312515,-0.44945 -2.412484,-1.15191 -3.106946,-1.98416 -0.186444,-0.22343 -0.189759,-0.22638 -0.124449,-0.11084 0.285565,0.50518 0.838872,1.08678 1.434023,1.50732 0.846538,0.59818 2.004517,1.05921 3.243735,1.29145 0.179494,0.0336 0.351058,0.0708 0.381257,0.0826 0.13482,0.0527 0.179661,0.25442 0.08227,0.37015 -0.08038,0.0955 -0.14618,0.10318 -0.436695,0.0507 -1.608647,-0.29032 -2.990791,-0.88918 -3.982609,-1.72559 -0.184392,-0.15551 -0.561519,-0.53098 -0.729387,-0.7262 -0.0841,-0.0978 -0.08455,-0.098 -0.04024,-0.0198 0.284713,0.50283 0.880402,1.12039 1.48173,1.53613 0.389488,0.26929 0.928309,0.55079 1.443797,0.75431 0.973036,0.38417 2.024287,0.60314 3.331094,0.69387 l 0.374157,0.026 0.06592,0.0719 c 0.05442,0.0594 0.06593,0.0876 0.06593,0.16152 0,0.0745 -0.01141,0.102 -0.06795,0.16347 l -0.06794,0.0739 -0.233684,-0.004 c -0.459664,-0.009 -1.274178,-0.10314 -1.854622,-0.21507 -1.589134,-0.30641 -3.007508,-0.9522 -3.931974,-1.79024 -0.08431,-0.0764 -0.153287,-0.13053 -0.153287,-0.12023 0,0.0345 0.466879,0.48913 0.670406,0.65285 1.018087,0.81891 2.37411,1.35178 4.057669,1.5945 0.318827,0.046 0.898815,0.10187 1.205585,0.11622 0.323389,0.0151 0.989087,0.0116 1.285626,-0.007 z m 0.801044,-3.32058 c 1.145125,-0.1371 2.107033,-0.39282 3.03503,-0.80683 0.336619,-0.15017 0.475576,-0.23743 0.525369,-0.32988 0.03483,-0.0647 0.0349,-0.0712 0.0018,-0.1579 -0.01899,-0.0497 -0.07602,-0.1374 -0.126739,-0.19482 -0.283766,-0.32127 -0.59585,-0.64768 -0.681026,-0.7123 -0.242388,-0.18389 -0.596757,-0.1789 -1.043572,0.0147 -1.507091,0.65293 -3.079264,0.80617 -4.546455,0.44315 -0.608019,-0.15044 -1.153208,-0.39854 -1.605643,-0.73069 -0.245029,-0.17989 -0.614254,-0.56278 -0.791154,-0.82044 -0.211777,-0.30847 -0.372135,-0.68802 -0.463841,-1.09788 -0.05135,-0.22948 -0.06248,-0.789 -0.02096,-1.05374 0.131216,-0.83679 0.591947,-1.55379 1.318069,-2.05122 0.567584,-0.38882 1.294711,-0.63771 2.173993,-0.74414 0.355587,-0.043 1.245663,-0.0491 1.57242,-0.0107 0.835805,0.0983 1.593521,0.31359 2.438957,0.6931 0.123051,0.0552 0.259943,0.11018 0.304207,0.1221 0.35412,0.0954 0.594542,0.0411 0.845423,-0.19068 0.248649,-0.22974 0.709558,-0.73785 0.732576,-0.80759 0.04634,-0.14044 -0.06178,-0.24147 -0.484064,-0.45232 -1.047742,-0.52316 -2.193438,-0.8314 -3.619529,-0.97381 -0.429191,-0.0429 -1.433992,-0.0597 -1.869103,-0.0314 -2.664435,0.17353 -4.775786,1.16799 -5.817982,2.74028 -0.449642,0.67834 -0.669486,1.39971 -0.669486,2.19675 0,1.11328 0.42686,2.10516 1.264157,2.93749 0.280204,0.27854 0.481241,0.44133 0.842293,0.68201 1.161662,0.77439 2.644325,1.2261 4.50958,1.37387 0.119663,0.009 0.578039,0.0146 1.018613,0.0113 0.670749,-0.005 0.858954,-0.0128 1.157063,-0.0485 z m 2.485304,-4.19012 c 0.07524,-0.0372 0.171994,-0.10912 0.241575,-0.17965 l 0.116063,-0.11764 -0.165511,0.0612 c -0.156155,0.0577 -0.181175,0.0612 -0.442419,0.0607 -0.31171,-6.5e-4 -0.442801,-0.028 -0.748657,-0.15675 -0.133051,-0.056 -0.184065,-0.0885 -0.212548,-0.13519 -0.08134,-0.13339 -0.01759,-0.31515 0.127279,-0.36291 0.08009,-0.0264 0.05051,-0.0338 0.438348,0.1091 0.11893,0.0438 0.171923,0.0512 0.375799,0.0524 0.228525,0.001 0.242493,-9.6e-4 0.375799,-0.0636 0.123829,-0.0582 0.178612,-0.10621 0.518691,-0.45491 0.397321,-0.40739 0.529797,-0.59198 0.178513,-0.24874 -0.228627,0.22339 -0.369287,0.31615 -0.5985,0.39469 -0.138642,0.0475 -0.187177,0.0541 -0.395387,0.0534 -0.306282,-9.7e-4 -0.500039,-0.0511 -0.939497,-0.24288 -0.179491,-0.0783 -0.410904,-0.17383 -0.51425,-0.21221 -0.20166,-0.0749 -0.260179,-0.11522 -0.297356,-0.20497 -0.05138,-0.12404 0.04379,-0.29478 0.179429,-0.32191 0.07595,-0.0152 0.251106,0.0422 0.642068,0.21052 0.474596,0.20429 0.534039,0.22679 0.692384,0.26202 0.215552,0.048 0.404841,0.0317 0.578803,-0.0497 0.108742,-0.0509 0.182163,-0.11141 0.414109,-0.34138 0.280228,-0.27784 0.359972,-0.37991 0.160448,-0.20537 -0.124855,0.10922 -0.311706,0.20992 -0.500781,0.2699 -0.283517,0.0899 -0.703987,0.0499 -1.074132,-0.10239 -0.194501,-0.08 -0.258793,-0.12544 -0.29285,-0.20694 -0.03585,-0.0858 -0.0346,-0.13483 0.0056,-0.21956 0.06944,-0.14633 0.232488,-0.1819 0.431159,-0.094 0.191379,0.0846 0.397531,0.132 0.572095,0.13142 0.177341,-6.4e-4 0.286426,-0.0317 0.426508,-0.12157 0.105587,-0.0678 0.250585,-0.2129 0.188743,-0.18893 -0.235414,0.0912 -0.275316,0.098 -0.573586,0.0973 -0.361031,-9.7e-4 -0.465351,-0.0283 -1.018108,-0.26808 -0.791767,-0.34346 -1.497114,-0.52891 -2.254097,-0.59265 -0.327306,-0.0276 -1.050726,-0.0111 -1.354759,0.0309 -0.702772,0.097 -1.295649,0.29905 -1.73329,0.59076 -0.174103,0.11604 -0.432985,0.33635 -0.295335,0.25132 0.141279,-0.0873 0.628815,-0.31626 0.801043,-0.37625 0.407888,-0.14207 0.893164,-0.24171 1.369116,-0.28112 0.253322,-0.021 0.288225,-0.02 0.351208,0.01 0.192945,0.092 0.197729,0.38549 0.0077,0.47327 -0.03664,0.0169 -0.151169,0.0368 -0.254514,0.0443 -1.210718,0.0868 -2.170119,0.50553 -2.697986,1.17747 l -0.09706,0.12356 0.180378,-0.13695 c 0.469334,-0.35633 1.070057,-0.61404 1.742002,-0.74732 0.426176,-0.0845 0.686587,-0.11099 1.208909,-0.12275 0.567425,-0.0128 0.618372,-0.004 0.691755,0.11613 0.07196,0.11804 0.04314,0.24607 -0.07301,0.32435 -0.05953,0.0401 -0.09318,0.0431 -0.602968,0.0535 -0.66934,0.0137 -0.986709,0.055 -1.47941,0.1928 -0.560772,0.1568 -1.029339,0.40769 -1.378527,0.73812 -0.152477,0.14429 -0.362012,0.38603 -0.362012,0.41765 0,0.008 0.04228,-0.0236 0.09395,-0.0691 0.126063,-0.11117 0.472729,-0.34171 0.642078,-0.42699 0.656948,-0.33084 1.374132,-0.49499 2.329696,-0.53324 0.521229,-0.0209 1.351601,0.0499 1.538474,0.13102 0.161966,0.0703 0.187964,0.26648 0.05196,0.39202 -0.08281,0.0764 -0.08643,0.0765 -0.561934,0.009 -0.349947,-0.0493 -1.268074,-0.0491 -1.631756,2.8e-4 -0.906192,0.12343 -1.659207,0.42955 -2.126229,0.8644 -0.108264,0.1008 -0.100363,0.0992 0.09003,-0.0179 0.445702,-0.27408 1.115979,-0.49643 1.807931,-0.59973 0.34739,-0.0519 1.259048,-0.0727 1.645967,-0.0377 0.810627,0.0735 1.725936,0.32438 2.510761,0.68831 0.149856,0.0695 0.340535,0.13982 0.462449,0.17058 0.02176,0.005 0.112138,0.008 0.200844,0.005 0.134673,-0.004 0.181997,-0.0153 0.286794,-0.0671 z"
         id="path1" />
    </g>
  </g>
</svg>
