0
SECTION
2
HEADER
9
$INSUNITS
70
1
9
$ACADVER
1
AC1014
9
$HANDSEED
5
FFFF
0
ENDSEC
0
SECTION
2
TABLES
0
TABLE
2
VPORT
5
8
100
AcDbSymbolTable
0
ENDTAB
0
TABLE
2
LTYPE
5
5
100
AcDbSymbolTable
0
LTYPE
5
14
100
AcDbSymbolTableRecord
100
AcDbLinetypeTableRecord
2
BYBLOCK
70
0
0
LTYPE
5
15
100
AcDbSymbolTableRecord
100
AcDbLinetypeTableRecord
2
BYLAYER
70
0
0
ENDTAB
0
TABLE
2
LAYER
5
2
100
AcDbSymbolTable
70
2
0
LAYER
5
50
100
AcDbSymbolTableRecord
100
AcDbLayerTableRecord
2
0
70
0
6
CONTINUOUS
0
ENDTAB
0
TABLE
2
STYLE
5
3
100
AcDbSymbolTable
70
1
0
STYLE
5
11
100
AcDbSymbolTableRecord
100
AcDbTextStyleTableRecord
2
STANDARD
70
0
0
ENDTAB
0
TABLE
2
VIEW
5
6
100
AcDbSymbolTable
70
0
0
ENDTAB
0
TABLE
2
UCS
5
7
100
AcDbSymbolTable
70
0
0
ENDTAB
0
TABLE
2
APPID
5
9
100
AcDbSymbolTable
70
2
0
APPID
5
12
100
AcDbSymbolTableRecord
100
AcDbRegAppTableRecord
2
ACAD
70
0
0
ENDTAB
0
TABLE
2
DIMSTYLE
5
A
100
AcDbSymbolTable
70
1
0
ENDTAB
0
TABLE
2
BLOCK_RECORD
5
1
100
AcDbSymbolTable
70
1
0
BLOCK_RECORD
5
1F
100
AcDbSymbolTableRecord
100
AcDbBlockTableRecord
2
*MODEL_SPACE
0
BLOCK_RECORD
5
1B
100
AcDbSymbolTableRecord
100
AcDbBlockTableRecord
2
*PAPER_SPACE
0
ENDTAB
0
ENDSEC
0
SECTION
2
BLOCKS
0
BLOCK
5
20
100
AcDbEntity
100
AcDbBlockBegin
2
*MODEL_SPACE
0
ENDBLK
5
21
100
AcDbEntity
100
AcDbBlockEnd
0
BLOCK
5
1C
100
AcDbEntity
100
AcDbBlockBegin
2
*PAPER_SPACE
0
ENDBLK
5
1D
100
AcDbEntity
100
AcDbBlockEnd
0
ENDSEC
0
SECTION
2
ENTITIES
0
CIRCLE
5
100
100
AcDbEntity
8
0
100
AcDbCircle
10
0.44791478807130003
20
-0.33493037060305475
30
0
40
0.075000000000000483
210
9.8607613152626103e-32
220
-1.9721522630525321e-31
230
1
0
CIRCLE
5
101
100
AcDbEntity
8
0
100
AcDbCircle
10
-0.52636379118549759
20
0.22756962939741868
30
0
40
0.0750000000000004
210
9.8607613152625731e-32
220
-3.9443045261050617e-31
230
1
0
CIRCLE
5
102
100
AcDbEntity
8
0
100
AcDbCircle
10
0.44791478807168011
20
0.22756962939676137
30
0
40
0.075000000000000483
210
9.8607613152626103e-32
220
-1.9721522630525321e-31
230
1
0
CIRCLE
5
103
100
AcDbEntity
8
0
100
AcDbCircle
10
-0.039224501557478593
20
-0.61618037060263431
30
0
40
0.075000000000000427
210
9.8607613152626125e-32
220
-1.9721522630525326e-31
230
1
0
LWPOLYLINE
5
104
100
AcDbEntity
8
0
100
AcDbPolyline
90
72
70
1
43
0.0
10
-0.52805136057738944
20
0.081319629397183499
10
-0.52636379118550658
20
0.080345310754503879
10
-0.52467622179362794
20
0.081319629397183499
10
-0.5070920041686845
20
0.081319629397183457
42
0.27212390124430647
10
-0.39744238404216486
20
0.14576874237571236
42
-0.0077821086323020322
10
-0.39106144140130289
20
0.156820859229855
42
0.2721239012442932
10
-0.39007168237379081
20
0.28400477226399784
10
-0.39886379118624865
20
0.29923315143284934
10
-0.39886379118625548
20
0.30118178871909779
10
-0.40055136057889795
20
0.3021561073622161
10
-0.43738793006217047
20
0.36595891728378588
42
-1.0000000074505806
10
-0.20356107204619847
20
0.50095891902593137
10
-0.16672450155683977
20
0.43715610736176908
10
-0.16672450155684143
20
0.43520747007559513
10
-0.16503693216425108
20
0.43423315143250724
10
-0.1562448233519905
20
0.41900477226399757
42
0.27212390124429836
10
-0.045605444197952184
20
0.3562699722083687
42
-0.0077821086323038094
10
-0.032843558916237491
20
0.35626997220837625
42
0.27212390124429031
10
0.07779582023779584
20
0.41900477226399713
10
0.086587929050158371
20
0.43423315143268276
10
0.088275498442940137
20
0.43520747007589106
10
0.088275498442940095
20
0.437156107362279
10
0.12511206893200472
20
0.50095891902593059
42
-0.99999999999999989
10
0.35893892795380422
20
0.36595891902592997
10
0.32210235746446886
20
0.30215610736180937
10
0.32041478807187557
20
0.30118178871872209
10
0.32041478807187557
20
0.29923315143253987
10
0.3116226792595953
20
0.2840047722639964
42
0.27212390124430524
10
0.31261243828709684
20
0.15682085922984251
42
-0.0077821086323082503
10
0.31899338092796359
20
0.14576874237570642
42
0.27212390124429997
10
0.42864300105448788
20
0.081319629397181861
10
0.44622721867922471
20
0.081319629397181667
10
0.44791478807202512
20
0.080345310753981727
10
0.44960235746480709
20
0.081319629397181639
10
0.52327549844290633
20
0.081319629397181292
42
-0.99999999999999989
10
0.52327549844290422
20
-0.18868037060281953
10
0.44960235746438865
20
-0.18868037060281942
10
0.44791478807171614
20
-0.18770605195968162
10
0.44622721867903992
20
-0.18868037060281942
10
0.42864300105448727
20
-0.18868037060281936
42
0.27212390124430608
10
0.31899338092795626
20
-0.2531294835813418
42
-0.0077821086323109148
10
0.31261243828711088
20
-0.26418160043548178
42
0.27212390124431518
10
0.31162267925959347
20
-0.39136551346963355
10
0.32041478807195595
20
-0.40659389263831991
10
0.32041478807196416
20
-0.40854252992467549
10
0.32210235746469684
20
-0.40951684856784543
10
0.35893892653134551
20
-0.47331965776780111
42
-1.0000000105367122
10
0.12511206893200116
20
-0.60831966023156692
10
0.088275498442726433
20
-0.54451684856755045
10
0.08827549844273333
20
-0.54256821128128219
10
0.086587929050053608
20
-0.54159389263814284
10
0.077795820237793023
20
-0.52636551346963334
42
0.27212390124430541
10
-0.032843558916245304
20
-0.46363071341401968
42
-0.007782108632311803
10
-0.045605444197949728
20
-0.46363071341401207
42
0.27212390124431185
10
-0.15624482335199319
20
-0.5263655134696329
10
-0.16503693216434664
20
-0.54159389263830282
10
-0.1667245015571609
20
-0.54256821128152977
10
-0.16672450155716054
20
-0.54451684856795468
10
-0.20356107204620202
20
-0.60831966023156614
42
-0.99999999999999989
10
-0.43738793106800161
20
-0.47331966023156591
10
-0.40055136057872598
20
-0.40951684856754861
10
-0.39886379118600851
20
-0.40854252992439516
10
-0.39886379118600934
20
-0.40659389263806539
10
-0.39007168237379269
20
-0.39136551346963205
42
0.27212390124430674
10
-0.39106144140131838
20
-0.26418160043549238
42
-0.0077821086323073621
10
-0.39744238404216103
20
-0.25312948358134191
42
0.27212390124429969
10
-0.50709200416868527
20
-0.18868037060281731
10
-0.52467622179339213
20
-0.18868037060281725
10
-0.5263637911862139
20
-0.18770605195960469
10
-0.52805136057901869
20
-0.18868037060281725
10
-0.60172450155710333
20
-0.18868037060281728
42
-0.99999999999999989
10
-0.60172450155710133
20
0.081319629397183638
0
CIRCLE
5
105
100
AcDbEntity
8
0
100
AcDbCircle
10
-0.039224501556718971
20
0.50881962939699843
30
0
40
0.075000000000000427
210
9.8607613152626125e-32
220
-1.9721522630525326e-31
230
1
0
CIRCLE
5
106
100
AcDbEntity
8
0
100
AcDbCircle
10
-0.52636379118587739
20
-0.33493037060239761
30
0
40
0.075000000000000483
210
9.8607613152626103e-32
220
-1.9721522630525321e-31
230
1
0
LWPOLYLINE
5
107
100
AcDbEntity
8
0
100
AcDbPolyline
90
8
70
1
43
0.0
10
0.87561036727004882
20
-0.45750850580147617
42
0.21089449632077359
10
0.87561036727004993
20
0.35014776459584079
42
-0.19225811994073694
10
0.83577549537964679
20
1.4618640871175692
42
0.2679491919408441
10
-0.91422449849383813
20
1.461864087117575
42
-0.19225811994073727
10
-0.95405937038424415
20
0.35014776459584551
42
0.21089449632067209
10
-0.95405937038424748
20
-0.45750850580147667
42
-0.19225811994073694
10
-0.91422449849384446
20
-1.5692248283232046
42
0.26794919194096029
10
0.83577549537964102
20
-1.5692248283232118
42
-0.19225811994073844
0
ENDSEC
0
SECTION
2
OBJECTS
0
DICTIONARY
5
C
100
AcDbDictionary
3
ACAD_GROUP
350
D
3
ACAD_MLINESTYLE
350
17
0
DICTIONARY
5
D
100
AcDbDictionary
0
DICTIONARY
5
1A
330
C
100
AcDbDictionary
0
DICTIONARY
5
17
100
AcDbDictionary
0
ENDSEC
0
EOF
