0
SECTION
2
HEADER
9
$INSUNITS
70
1
9
$ACADVER
1
AC1014
9
$HANDSEED
5
FFFF
0
ENDSEC
0
SECTION
2
TABLES
0
TABLE
2
VPORT
5
8
100
AcDbSymbolTable
0
ENDTAB
0
TABLE
2
LTYPE
5
5
100
AcDbSymbolTable
0
LTYPE
5
14
100
AcDbSymbolTableRecord
100
AcDbLinetypeTableRecord
2
BYBLOCK
70
0
0
LTYPE
5
15
100
AcDbSymbolTableRecord
100
AcDbLinetypeTableRecord
2
BYLAYER
70
0
0
ENDTAB
0
TABLE
2
LAYER
5
2
100
AcDbSymbolTable
70
2
0
LAYER
5
50
100
AcDbSymbolTableRecord
100
AcDbLayerTableRecord
2
0
70
0
6
CONTINUOUS
0
ENDTAB
0
TABLE
2
STYLE
5
3
100
AcDbSymbolTable
70
1
0
STYLE
5
11
100
AcDbSymbolTableRecord
100
AcDbTextStyleTableRecord
2
STANDARD
70
0
0
ENDTAB
0
TABLE
2
VIEW
5
6
100
AcDbSymbolTable
70
0
0
ENDTAB
0
TABLE
2
UCS
5
7
100
AcDbSymbolTable
70
0
0
ENDTAB
0
TABLE
2
APPID
5
9
100
AcDbSymbolTable
70
2
0
APPID
5
12
100
AcDbSymbolTableRecord
100
AcDbRegAppTableRecord
2
ACAD
70
0
0
ENDTAB
0
TABLE
2
DIMSTYLE
5
A
100
AcDbSymbolTable
70
1
0
ENDTAB
0
TABLE
2
BLOCK_RECORD
5
1
100
AcDbSymbolTable
70
1
0
BLOCK_RECORD
5
1F
100
AcDbSymbolTableRecord
100
AcDbBlockTableRecord
2
*MODEL_SPACE
0
BLOCK_RECORD
5
1B
100
AcDbSymbolTableRecord
100
AcDbBlockTableRecord
2
*PAPER_SPACE
0
ENDTAB
0
ENDSEC
0
SECTION
2
BLOCKS
0
BLOCK
5
20
100
AcDbEntity
100
AcDbBlockBegin
2
*MODEL_SPACE
0
ENDBLK
5
21
100
AcDbEntity
100
AcDbBlockEnd
0
BLOCK
5
1C
100
AcDbEntity
100
AcDbBlockBegin
2
*PAPER_SPACE
0
ENDBLK
5
1D
100
AcDbEntity
100
AcDbBlockEnd
0
ENDSEC
0
SECTION
2
ENTITIES
0
ARC
5
100
100
AcDbEntity
8
0
100
AcDbCircle
10
-4.218832851541471
20
3.623760341794219
30
1.0927391974657055e-17
40
0.092489999999999739
210
-4.4783976723135373e-32
220
2.6233846187411158e-32
230
1
100
AcDbArc
50
90.000000000000568
51
180
0
LINE
5
101
100
AcDbEntity
8
0
100
AcDbLine
10
-4.3113228515414708
20
3.623760341794219
30
1.092739197465705e-17
11
-4.3113228515414876
21
-0.89361133868958731
31
1.0927391974657052e-17
0
ARC
5
102
100
AcDbEntity
8
0
100
AcDbCircle
10
-3.9611328515414863
20
-0.89361133868958853
30
0
40
0.350190000000001
210
3.1204180515311744e-17
220
-1.0905449874020623e-31
230
1
100
AcDbArc
50
180
51
269.99999999999955
0
LINE
5
103
100
AcDbEntity
8
0
100
AcDbLine
10
-3.961132851541489
20
-1.2438013386895881
30
9.0902920069937896e-43
11
1.9634871484585141
21
-1.2438013386896245
31
1.0927391974657052e-17
0
ARC
5
104
100
AcDbEntity
8
0
100
AcDbCircle
10
1.9634871484585148
20
-0.89361133868962506
30
0
40
0.35018999999999945
210
6.2316844669515365e-32
220
3.1204180515311886e-17
230
1
100
AcDbArc
50
269.99999999999989
51
360
0
LINE
5
105
100
AcDbEntity
8
0
100
AcDbLine
10
2.3136771484585146
20
-0.89361133868962794
30
4.1164636671444877e-39
11
2.313677148458555
21
3.6237603417941799
31
1.2388966256416078e-36
0
ARC
5
106
100
AcDbEntity
8
0
100
AcDbCircle
10
2.2211871484585548
20
3.6237603417941799
30
1.0927391974657052e-17
40
0.0924900000000001
210
1.1814673991412088e-16
220
0
230
1
100
AcDbArc
50
0
51
89.999999999999176
0
LINE
5
107
100
AcDbEntity
8
0
100
AcDbLine
10
2.2211871484585561
20
3.7162503417941797
30
1.0927391974657052e-17
11
0.33116714845855766
21
3.7162503417941974
31
0
0
ARC
5
108
100
AcDbEntity
8
0
100
AcDbCircle
10
0.33116714845855644
20
3.6237603417941968
30
1.0927391974657052e-17
40
0.092490000000000447
210
1.5409770526999325e-30
220
1.1814673991412044e-16
230
1
100
AcDbArc
50
89.999999999999247
51
180
0
LINE
5
109
100
AcDbEntity
8
0
100
AcDbLine
10
0.23867714845855673
20
3.6237603417941968
30
1.0927391974657049e-17
11
0.23867714845850532
21
-0.20751001405392727
31
1.0927391974657052e-17
0
ARC
5
110
100
AcDbEntity
8
0
100
AcDbCircle
10
0.14618714845854489
20
-0.20751001405392733
30
0
40
0.092489999999999961
210
-1.175494350822613e-38
220
-3.3138486659580521e-37
230
1
100
AcDbArc
50
-90.000000000000611
51
0
0
LINE
5
111
100
AcDbEntity
8
0
100
AcDbLine
10
0.14618714845854394
20
-0.30000001405392729
30
-3.0649786311446025e-38
11
-2.1485067983393509
21
-0.30000001405390458
31
1.0927391974657052e-17
0
SPLINE
5
112
100
AcDbEntity
8
0
100
AcDbSpline
70
0
71
3
72
14
73
10
74
0
42
0.000000001
43
0.0000000001
44
0.0000000001
40
0
40
0
40
0
40
0
40
0.091771996652634885
40
0.091771996652634885
40
0.18354399330526933
40
0.18354399330526933
40
0.23913195931038295
40
0.23913195931038295
40
0.29471992531549557
40
0.29471992531549557
40
0.29471992531549557
40
0.29471992531549557
10
-2.236322851541483
20
-0.23654001405390623
30
1.0927391974657052e-17
10
-2.2325427151873423
20
-0.24797496600659488
30
0
10
-2.2265652186051987
20
-0.25856224889838836
30
0
10
-2.2108884157022146
20
-0.2768496237456915
30
0
10
-2.2013389881616443
20
-0.28437487843027154
30
1.0927391974657052e-17
10
-2.1841209605426166
20
-0.29317942926107993
30
0
10
-2.1772556821470923
20
-0.29572066494816401
30
0
10
-2.1630712656674485
20
-0.29913693991540408
30
0
10
-2.1558018070014393
20
-0.30000001405390475
30
1.0927391974657052e-17
10
-2.1485067983393509
20
-0.30000001405390481
30
1.0927391974657052e-17
0
ARC
5
113
100
AcDbEntity
8
0
100
AcDbCircle
10
1.1579202533481789
20
0.54582057520774796
30
2.4296635204003973e-38
40
3.4832419305470093
210
-2.2790475048527593e-25
220
-1.1033050972616624e-24
230
1
100
AcDbArc
50
173.05021736658978
51
192.97977059726782
0
ARC
5
114
100
AcDbEntity
8
0
100
AcDbCircle
10
-10.86602285154158
20
2.0114789334824366
30
6.6671142343896734e-51
40
8.6297000000001045
210
3.7154398795354142e-26
220
-4.5289348648599538e-27
230
1
100
AcDbArc
50
353.05021736658966
51
360
0
LINE
5
115
100
AcDbEntity
8
0
100
AcDbLine
10
-2.2363228515414746
20
2.0114789334823908
30
-5.0720817996455199e-38
11
-2.2363228515414448
21
3.6237603417942124
31
5.6782762008573684e-37
0
ARC
5
116
100
AcDbEntity
8
0
100
AcDbCircle
10
-2.3288128515414712
20
3.6237603417942137
30
1.0927391974657052e-17
40
0.092490000000026315
210
1.1814673991408738e-16
220
-1.7867074754978572e-30
230
1
100
AcDbArc
50
0
51
90.00000000000027
0
LINE
5
117
100
AcDbEntity
8
0
100
AcDbLine
10
-2.3288128515414717
20
3.7162503417942125
30
1.0927391974657052e-17
11
-4.2188328515414719
21
3.7162503417942188
31
1.0927391974657052e-17
0
CIRCLE
5
118
100
AcDbEntity
8
0
100
AcDbCircle
10
1.8761771484585439
20
2.4843750598392824
30
0
40
0.099999999999999811
210
2.9926594932431314e-67
220
1.5174586411553459e-37
230
1
0
CIRCLE
5
119
100
AcDbEntity
8
0
100
AcDbCircle
10
-3.8738228515414739
20
2.4843750598393171
30
0
40
0.099999999999999811
210
2.9926594932431314e-67
220
1.5174586411553459e-37
230
1
0
CIRCLE
5
120
100
AcDbEntity
8
0
100
AcDbCircle
10
-0.19882285154148335
20
-0.70000002565841413
30
0
40
0.099999999999999811
210
2.9926594932431314e-67
220
1.5174586411553459e-37
230
1
0
CIRCLE
5
121
100
AcDbEntity
8
0
100
AcDbCircle
10
-3.8738228515414761
20
1.9218750598393195
30
0
40
0.099999999999999811
210
2.9926594932431314e-67
220
1.5174586411553459e-37
230
1
0
CIRCLE
5
122
100
AcDbEntity
8
0
100
AcDbCircle
10
1.8761771484585386
20
1.9218750598392844
30
0
40
0.099999999999999811
210
2.9926594932431314e-67
220
1.5174586411553459e-37
230
1
0
CIRCLE
5
123
100
AcDbEntity
8
0
100
AcDbCircle
10
1.8761771484585348
20
1.359375059839286
30
0
40
0.099999999999999811
210
2.9926594932431314e-67
220
1.5174586411553459e-37
230
1
0
CIRCLE
5
124
100
AcDbEntity
8
0
100
AcDbCircle
10
-4.1613228515414731
20
3.362043431150366
30
0
40
0.099999999999999811
210
2.9926594932431314e-67
220
1.5174586411553459e-37
230
1
0
CIRCLE
5
125
100
AcDbEntity
8
0
100
AcDbCircle
10
-1.7988228515414852
20
-0.70000002565840436
30
0
40
0.099999999999999811
210
2.9926594932431314e-67
220
1.5174586411553459e-37
230
1
0
CIRCLE
5
126
100
AcDbEntity
8
0
100
AcDbCircle
10
-3.8738228515414783
20
1.3593750598393208
30
0
40
0.099999999999999811
210
2.9926594932431314e-67
220
1.5174586411553459e-37
230
1
0
CIRCLE
5
127
100
AcDbEntity
8
0
100
AcDbCircle
10
1.4376928964900419
20
1.7022941783042844
30
0
40
0.15000000000000008
210
5.8774717541114375e-39
220
1.5174586411553461e-37
230
1
0
CIRCLE
5
128
100
AcDbEntity
8
0
100
AcDbCircle
10
2.1636771484585542
20
3.3620434311503282
30
0
40
0.099999999999999811
210
2.9926594932431314e-67
220
1.5174586411553459e-37
230
1
0
ENDSEC
0
SECTION
2
OBJECTS
0
DICTIONARY
5
C
100
AcDbDictionary
3
ACAD_GROUP
350
D
3
ACAD_MLINESTYLE
350
17
0
DICTIONARY
5
D
100
AcDbDictionary
0
DICTIONARY
5
1A
330
C
100
AcDbDictionary
0
DICTIONARY
5
17
100
AcDbDictionary
0
ENDSEC
0
EOF
