0
SECTION
2
HEADER
9
$INSUNITS
70
1
9
$ACADVER
1
AC1014
9
$HANDSEED
5
FFFF
0
ENDSEC
0
SECTION
2
TABLES
0
TABLE
2
VPORT
5
8
100
AcDbSymbolTable
0
ENDTAB
0
TABLE
2
LTYPE
5
5
100
AcDbSymbolTable
0
LTYPE
5
14
100
AcDbSymbolTableRecord
100
AcDbLinetypeTableRecord
2
BYBLOCK
70
0
0
LTYPE
5
15
100
AcDbSymbolTableRecord
100
AcDbLinetypeTableRecord
2
BYLAYER
70
0
0
ENDTAB
0
TABLE
2
LAYER
5
2
100
AcDbSymbolTable
70
2
0
LAYER
5
50
100
AcDbSymbolTableRecord
100
AcDbLayerTableRecord
2
0
70
0
6
CONTINUOUS
0
ENDTAB
0
TABLE
2
STYLE
5
3
100
AcDbSymbolTable
70
1
0
STYLE
5
11
100
AcDbSymbolTableRecord
100
AcDbTextStyleTableRecord
2
STANDARD
70
0
0
ENDTAB
0
TABLE
2
VIEW
5
6
100
AcDbSymbolTable
70
0
0
ENDTAB
0
TABLE
2
UCS
5
7
100
AcDbSymbolTable
70
0
0
ENDTAB
0
TABLE
2
APPID
5
9
100
AcDbSymbolTable
70
2
0
APPID
5
12
100
AcDbSymbolTableRecord
100
AcDbRegAppTableRecord
2
ACAD
70
0
0
ENDTAB
0
TABLE
2
DIMSTYLE
5
A
100
AcDbSymbolTable
70
1
0
ENDTAB
0
TABLE
2
BLOCK_RECORD
5
1
100
AcDbSymbolTable
70
1
0
BLOCK_RECORD
5
1F
100
AcDbSymbolTableRecord
100
AcDbBlockTableRecord
2
*MODEL_SPACE
0
BLOCK_RECORD
5
1B
100
AcDbSymbolTableRecord
100
AcDbBlockTableRecord
2
*PAPER_SPACE
0
ENDTAB
0
ENDSEC
0
SECTION
2
BLOCKS
0
BLOCK
5
20
100
AcDbEntity
100
AcDbBlockBegin
2
*MODEL_SPACE
0
ENDBLK
5
21
100
AcDbEntity
100
AcDbBlockEnd
0
BLOCK
5
1C
100
AcDbEntity
100
AcDbBlockBegin
2
*PAPER_SPACE
0
ENDBLK
5
1D
100
AcDbEntity
100
AcDbBlockEnd
0
ENDSEC
0
SECTION
2
ENTITIES
0
CIRCLE
5
100
100
AcDbEntity
8
0
100
AcDbCircle
10
0
20
-0.31496062992125984
30
0
40
0.049212598425196846
210
0
220
-0
230
1
0
CIRCLE
5
101
100
AcDbEntity
8
0
100
AcDbCircle
10
-0.40366331996869842
20
0.4036633199686987
30
0
40
0.049212598425196846
210
0
220
-0
230
1
0
CIRCLE
5
102
100
AcDbEntity
8
0
100
AcDbCircle
10
0.37401574803149606
20
-4.5803718865747461e-17
30
0
40
0.049212598425196846
210
0
220
-0
230
1
0
CIRCLE
5
103
100
AcDbEntity
8
0
100
AcDbCircle
10
0.40366331996869859
20
0.4036633199686987
30
0
40
0.049212598425196846
210
0
220
-0
230
1
0
CIRCLE
5
104
100
AcDbEntity
8
0
100
AcDbCircle
10
0
20
-0.49212598425196846
30
0
40
0.049212598425196846
210
0
220
-0
230
1
0
CIRCLE
5
105
100
AcDbEntity
8
0
100
AcDbCircle
10
-0.37401574803149606
20
0
30
0
40
0.049212598425196888
210
0
220
-0
230
1
0
CIRCLE
5
106
100
AcDbEntity
8
0
100
AcDbCircle
10
0
20
0
30
0
40
0.19685039370078738
210
0
220
-0
230
1
0
CIRCLE
5
107
100
AcDbEntity
8
0
100
AcDbCircle
10
0.40366331996869853
20
-0.40366331996869859
30
0
40
0.049212598425196846
210
0
220
-0
230
1
0
CIRCLE
5
108
100
AcDbEntity
8
0
100
AcDbCircle
10
3.8571552729050492e-17
20
0.31496062992125984
30
0
40
0.049212598425196846
210
0
220
-0
230
1
0
CIRCLE
5
109
100
AcDbEntity
8
0
100
AcDbCircle
10
6.0268051139141399e-17
20
0.49212598425196846
30
0
40
0.049212598425196846
210
0
220
-0
230
1
0
CIRCLE
5
110
100
AcDbEntity
8
0
100
AcDbCircle
10
-0.4036633199686987
20
-0.40366331996869842
30
0
40
0.049212598425196846
210
0
220
-0
230
1
0
CIRCLE
5
111
100
AcDbEntity
8
0
100
AcDbCircle
10
0.59999999999999998
20
-0.59999999999999998
30
0
40
0.053249999999999957
210
0
220
-0
230
1
0
CIRCLE
5
112
100
AcDbEntity
8
0
100
AcDbCircle
10
-0.59999999999999998
20
-0.59999999999999998
30
0
40
0.053249999999999957
210
0
220
-0
230
1
0
CIRCLE
5
113
100
AcDbEntity
8
0
100
AcDbCircle
10
-0.59999999999999998
20
0.59999999999999998
30
0
40
0.053249999999999957
210
0
220
-0
230
1
0
CIRCLE
5
114
100
AcDbEntity
8
0
100
AcDbCircle
10
0.59999999999999998
20
0.59999999999999998
30
0
40
0.053249999999999957
210
0
220
-0
230
1
0
LWPOLYLINE
5
115
100
AcDbEntity
8
0
100
AcDbPolyline
90
24
70
1
43
0.0
10
0.7325825214724776
20
0.46741747852752225
42
0.99999999999999989
10
0.46741747852752225
20
0.7325825214724776
10
0.41872656416793319
20
0.68389160711288832
42
-0.30344514631855712
10
0.27142909189509667
20
0.65461992978751549
42
0.19909983545980842
10
-0.27142909189509673
20
0.6546199297875156
42
-0.3034451463185564
10
-0.41872656416793297
20
0.6838916071128881
10
-0.46741747852752225
20
0.7325825214724776
42
0.99999999999999989
10
-0.7325825214724776
20
0.46741747852752225
10
-0.68389160711288843
20
0.41872656416793314
42
-0.30344514631855718
10
-0.6546199297875156
20
0.27142909189509667
42
0.19909983545980853
10
-0.6546199297875156
20
-0.27142909189509684
42
-0.30344514631855601
10
-0.6838916071128881
20
-0.41872656416793286
10
-0.7325825214724776
20
-0.46741747852752225
42
0.99999999999999989
10
-0.46741747852752225
20
-0.7325825214724776
10
-0.41872656416793302
20
-0.68389160711288832
42
-0.30344514631855707
10
-0.27142909189509667
20
-0.6546199297875156
42
0.19909983545980822
10
0.27142909189509606
20
-0.65461992978751571
42
-0.30344514631855762
10
0.41872656416793286
20
-0.68389160711288821
10
0.46741747852752225
20
-0.7325825214724776
42
0.99999999999999989
10
0.7325825214724776
20
-0.46741747852752225
10
0.68389160711288843
20
-0.41872656416793302
42
-0.30344514631855729
10
0.6546199297875156
20
-0.27142909189509651
42
0.19909983545980817
10
0.65461992978751571
20
0.27142909189509623
42
-0.3034451463185574
10
0.68389160711288821
20
0.41872656416793286
0
ENDSEC
0
SECTION
2
OBJECTS
0
DICTIONARY
5
C
100
AcDbDictionary
3
ACAD_GROUP
350
D
3
ACAD_MLINESTYLE
350
17
0
DICTIONARY
5
D
100
AcDbDictionary
0
DICTIONARY
5
1A
330
C
100
AcDbDictionary
0
DICTIONARY
5
17
100
AcDbDictionary
0
ENDSEC
0
EOF
