0
SECTION
2
HEADER
9
$INSUNITS
70
1
9
$ACADVER
1
AC1014
9
$HANDSEED
5
FFFF
0
ENDSEC
0
SECTION
2
TABLES
0
TABLE
2
VPORT
5
8
100
AcDbSymbolTable
0
ENDTAB
0
TABLE
2
LTYPE
5
5
100
AcDbSymbolTable
0
LTYPE
5
14
100
AcDbSymbolTableRecord
100
AcDbLinetypeTableRecord
2
BYBLOCK
70
0
0
LTYPE
5
15
100
AcDbSymbolTableRecord
100
AcDbLinetypeTableRecord
2
BYLAYER
70
0
0
ENDTAB
0
TABLE
2
LAYER
5
2
100
AcDbSymbolTable
70
2
0
LAYER
5
50
100
AcDbSymbolTableRecord
100
AcDbLayerTableRecord
2
0
70
0
6
CONTINUOUS
0
ENDTAB
0
TABLE
2
STYLE
5
3
100
AcDbSymbolTable
70
1
0
STYLE
5
11
100
AcDbSymbolTableRecord
100
AcDbTextStyleTableRecord
2
STANDARD
70
0
0
ENDTAB
0
TABLE
2
VIEW
5
6
100
AcDbSymbolTable
70
0
0
ENDTAB
0
TABLE
2
UCS
5
7
100
AcDbSymbolTable
70
0
0
ENDTAB
0
TABLE
2
APPID
5
9
100
AcDbSymbolTable
70
2
0
APPID
5
12
100
AcDbSymbolTableRecord
100
AcDbRegAppTableRecord
2
ACAD
70
0
0
ENDTAB
0
TABLE
2
DIMSTYLE
5
A
100
AcDbSymbolTable
70
1
0
ENDTAB
0
TABLE
2
BLOCK_RECORD
5
1
100
AcDbSymbolTable
70
1
0
BLOCK_RECORD
5
1F
100
AcDbSymbolTableRecord
100
AcDbBlockTableRecord
2
*MODEL_SPACE
0
BLOCK_RECORD
5
1B
100
AcDbSymbolTableRecord
100
AcDbBlockTableRecord
2
*PAPER_SPACE
0
ENDTAB
0
ENDSEC
0
SECTION
2
BLOCKS
0
BLOCK
5
20
100
AcDbEntity
100
AcDbBlockBegin
2
*MODEL_SPACE
0
ENDBLK
5
21
100
AcDbEntity
100
AcDbBlockEnd
0
BLOCK
5
1C
100
AcDbEntity
100
AcDbBlockBegin
2
*PAPER_SPACE
0
ENDBLK
5
1D
100
AcDbEntity
100
AcDbBlockEnd
0
ENDSEC
0
SECTION
2
ENTITIES
0
CIRCLE
5
100
100
AcDbEntity
8
0
100
AcDbCircle
10
4.3750000000000027
20
-1.3269000000012781
30
0
40
0.15600000000000022
210
-2.7369110631344083e-48
220
-3.0814879110195774e-33
230
1
0
CIRCLE
5
101
100
AcDbEntity
8
0
100
AcDbCircle
10
6.7250000000000183
20
-0.88999999999998536
30
0
40
0.10000000000000052
210
-1.0548658105939096e-65
220
4.7733050730761837e-114
230
1
0
CIRCLE
5
102
100
AcDbEntity
8
0
100
AcDbCircle
10
2.024999999999983
20
-0.88999999999998536
30
0
40
0.10000000000000017
210
-1.0548658105939098e-65
220
4.7733050730761844e-114
230
1
0
CIRCLE
5
103
100
AcDbEntity
8
0
100
AcDbCircle
10
2.0249999999999813
20
-1.6399999999999844
30
0
40
0.099999999999999811
210
-1.0548658105939098e-65
220
4.7733050730761844e-114
230
1
0
CIRCLE
5
104
100
AcDbEntity
8
0
100
AcDbCircle
10
8.0250000000000039
20
-0.88999999999999857
30
0
40
0.10000000000000052
210
-1.0548658105939096e-65
220
4.7733050730761837e-114
230
1
0
CIRCLE
5
105
100
AcDbEntity
8
0
100
AcDbCircle
10
6.7250000000000201
20
-1.6399999999999844
30
0
40
0.10000000000000052
210
-1.0548658105939096e-65
220
4.7733050730761837e-114
230
1
0
CIRCLE
5
106
100
AcDbEntity
8
0
100
AcDbCircle
10
0.72499999999999842
20
-0.88999999999999879
30
0
40
0.099999999999999908
210
-1.0548658105939098e-65
220
4.7733050730761844e-114
230
1
0
CIRCLE
5
107
100
AcDbEntity
8
0
100
AcDbCircle
10
0.72500000000000353
20
-1.6399999999999944
30
0
40
0.099999999999999992
210
-1.0548658105939098e-65
220
4.7733050730761844e-114
230
1
0
CIRCLE
5
108
100
AcDbEntity
8
0
100
AcDbCircle
10
8.0249999999999986
20
-1.6399999999999941
30
0
40
0.10000000000000052
210
-1.0548658105939096e-65
220
4.7733050730761837e-114
230
1
0
LWPOLYLINE
5
109
100
AcDbEntity
8
0
100
AcDbPolyline
90
20
70
1
43
0.0
10
8.9900000000000002
20
-2.564999999999988
10
8.9900000000000002
20
0.80249999999999766
10
8.4899999999999984
20
0.80249999999999799
10
8.4899999999999984
20
1.8224999999999985
10
8.9900000000000002
20
1.8224999999999985
10
8.9900000000000002
20
4.1775000000000011
10
6.4375000000000009
20
4.1775000000000011
10
6.4375000000000009
20
0.42749999999999605
10
2.3125000000000004
20
0.42749999999999577
10
2.3125000000000009
20
4.158194208204665
10
-0.24000000000000046
20
4.1729485434647824
10
-0.23999999999999991
20
1.8224999999999985
10
0.2599999999999999
20
1.8224999999999985
10
0.2599999999999999
20
0.8024999999999981
10
-0.23999999999999991
20
0.8024999999999981
10
-0.24000000000000055
20
-2.5649999999999875
10
3.8650000000000002
20
-2.5649999999999862
10
3.8650000000000002
20
-2.1899999999999875
10
4.8849999999999998
20
-2.1899999999999875
10
4.8849999999999998
20
-2.5649999999999875
0
CIRCLE
5
110
100
AcDbEntity
8
0
100
AcDbCircle
10
2.1837315904863154e-32
20
3.0062500000000001
30
0
40
0.099999999999999992
210
-1.0548658105939098e-65
220
4.7733050730761844e-114
230
1
0
CIRCLE
5
111
100
AcDbEntity
8
0
100
AcDbCircle
10
7.59375
20
-2.3874999999999882
30
0
40
0.10000000000000052
210
-1.0548658105939096e-65
220
4.7733050730761837e-114
230
1
0
CIRCLE
5
112
100
AcDbEntity
8
0
100
AcDbCircle
10
8.75
20
-0.076250000000000623
30
0
40
0.10000000000000052
210
-1.0548658105939096e-65
220
4.7733050730761837e-114
230
1
0
CIRCLE
5
113
100
AcDbEntity
8
0
100
AcDbCircle
10
1.15625
20
-2.3874999999999882
30
0
40
0.099999999999999992
210
-1.0548658105939098e-65
220
4.7733050730761844e-114
230
1
0
CIRCLE
5
114
100
AcDbEntity
8
0
100
AcDbCircle
10
8.75
20
-1.8824999999999932
30
0
40
0.10000000000000052
210
-1.0548658105939096e-65
220
4.7733050730761837e-114
230
1
0
CIRCLE
5
115
100
AcDbEntity
8
0
100
AcDbCircle
10
8.75
20
3.0062500000000001
30
0
40
0.10000000000000052
210
-1.0548658105939096e-65
220
4.7733050730761837e-114
230
1
0
CIRCLE
5
116
100
AcDbEntity
8
0
100
AcDbCircle
10
8.7419135797256364e-17
20
-1.8824999999999932
30
0
40
0.099999999999999992
210
-1.0548658105939098e-65
220
4.7733050730761844e-114
230
1
0
CIRCLE
5
117
100
AcDbEntity
8
0
100
AcDbCircle
10
2.96875
20
-2.3874999999999882
30
0
40
0.099999999999999811
210
-1.0548658105939098e-65
220
4.7733050730761844e-114
230
1
0
CIRCLE
5
118
100
AcDbEntity
8
0
100
AcDbCircle
10
2.1837315904863154e-32
20
-0.076250000000000623
30
0
40
0.099999999999999992
210
-1.0548658105939098e-65
220
4.7733050730761844e-114
230
1
0
CIRCLE
5
119
100
AcDbEntity
8
0
100
AcDbCircle
10
5.78125
20
-2.3874999999999882
30
0
40
0.099999999999999811
210
-1.0548658105939098e-65
220
4.7733050730761844e-114
230
1
0
ENDSEC
0
SECTION
2
OBJECTS
0
DICTIONARY
5
C
100
AcDbDictionary
3
ACAD_GROUP
350
D
3
ACAD_MLINESTYLE
350
17
0
DICTIONARY
5
D
100
AcDbDictionary
0
DICTIONARY
5
1A
330
C
100
AcDbDictionary
0
DICTIONARY
5
17
100
AcDbDictionary
0
ENDSEC
0
EOF
