0
SECTION
2
HEADER
9
$INSUNITS
70
1
9
$ACADVER
1
AC1014
9
$HANDSEED
5
FFFF
0
ENDSEC
0
SECTION
2
TABLES
0
TABLE
2
VPORT
5
8
100
AcDbSymbolTable
0
ENDTAB
0
TABLE
2
LTYPE
5
5
100
AcDbSymbolTable
0
LTYPE
5
14
100
AcDbSymbolTableRecord
100
AcDbLinetypeTableRecord
2
BYBLOCK
70
0
0
LTYPE
5
15
100
AcDbSymbolTableRecord
100
AcDbLinetypeTableRecord
2
BYLAYER
70
0
0
ENDTAB
0
TABLE
2
LAYER
5
2
100
AcDbSymbolTable
70
2
0
LAYER
5
50
100
AcDbSymbolTableRecord
100
AcDbLayerTableRecord
2
0
70
0
6
CONTINUOUS
0
ENDTAB
0
TABLE
2
STYLE
5
3
100
AcDbSymbolTable
70
1
0
STYLE
5
11
100
AcDbSymbolTableRecord
100
AcDbTextStyleTableRecord
2
STANDARD
70
0
0
ENDTAB
0
TABLE
2
VIEW
5
6
100
AcDbSymbolTable
70
0
0
ENDTAB
0
TABLE
2
UCS
5
7
100
AcDbSymbolTable
70
0
0
ENDTAB
0
TABLE
2
APPID
5
9
100
AcDbSymbolTable
70
2
0
APPID
5
12
100
AcDbSymbolTableRecord
100
AcDbRegAppTableRecord
2
ACAD
70
0
0
ENDTAB
0
TABLE
2
DIMSTYLE
5
A
100
AcDbSymbolTable
70
1
0
ENDTAB
0
TABLE
2
BLOCK_RECORD
5
1
100
AcDbSymbolTable
70
1
0
BLOCK_RECORD
5
1F
100
AcDbSymbolTableRecord
100
AcDbBlockTableRecord
2
*MODEL_SPACE
0
BLOCK_RECORD
5
1B
100
AcDbSymbolTableRecord
100
AcDbBlockTableRecord
2
*PAPER_SPACE
0
ENDTAB
0
ENDSEC
0
SECTION
2
BLOCKS
0
BLOCK
5
20
100
AcDbEntity
100
AcDbBlockBegin
2
*MODEL_SPACE
0
ENDBLK
5
21
100
AcDbEntity
100
AcDbBlockEnd
0
BLOCK
5
1C
100
AcDbEntity
100
AcDbBlockBegin
2
*PAPER_SPACE
0
ENDBLK
5
1D
100
AcDbEntity
100
AcDbBlockEnd
0
ENDSEC
0
SECTION
2
ENTITIES
0
CIRCLE
5
100
100
AcDbEntity
8
0
100
AcDbCircle
10
-4.3591752170738545
20
-1.9709236889336068
30
0
40
0.099999999999999811
210
0
220
0
230
1
0
CIRCLE
5
101
100
AcDbEntity
8
0
100
AcDbCircle
10
-2.0249999999999826
20
-1.6399999999999906
30
0
40
0.099999999999999811
210
0
220
0
230
1
0
CIRCLE
5
102
100
AcDbEntity
8
0
100
AcDbCircle
10
-8.0250000000000057
20
-1.639999999999993
30
0
40
0.10000000000000052
210
0
220
0
230
1
0
CIRCLE
5
103
100
AcDbEntity
8
0
100
AcDbCircle
10
-6.7250000000000183
20
-1.6399999999999906
30
0
40
0.10000000000000052
210
0
220
0
230
1
0
CIRCLE
5
104
100
AcDbEntity
8
0
100
AcDbCircle
10
-0.72499999999999187
20
-0.88999999999999801
30
0
40
0.099999999999999811
210
0
220
0
230
1
0
CIRCLE
5
105
100
AcDbEntity
8
0
100
AcDbCircle
10
-2.0249999999999839
20
-0.88999999999999191
30
0
40
0.099999999999999811
210
0
220
0
230
1
0
CIRCLE
5
106
100
AcDbEntity
8
0
100
AcDbCircle
10
-8.025000000000011
20
-0.88999999999999768
30
0
40
0.10000000000000052
210
0
220
0
230
1
0
CIRCLE
5
107
100
AcDbEntity
8
0
100
AcDbCircle
10
-6.7250000000000174
20
-0.88999999999999191
30
0
40
0.10000000000000052
210
0
220
0
230
1
0
CIRCLE
5
108
100
AcDbEntity
8
0
100
AcDbCircle
10
-0.72499999999999709
20
-1.6399999999999935
30
0
40
0.099999999999999811
210
0
220
0
230
1
0
LWPOLYLINE
5
109
100
AcDbEntity
8
0
100
AcDbPolyline
90
26
70
1
43
0.0
10
-3.8650000000000002
20
-2.189999999999988
10
-3.8650000000000002
20
-2.5649999999999875
10
0.24000000000000013
20
-2.5649999999999875
10
0.23999999999999999
20
0.80249999999999655
10
-0.25999999999999995
20
0.80249999999999744
10
-0.25999999999999995
20
1.8224999999999978
10
0.23999999999999999
20
1.8224999999999978
10
0.24000000000000007
20
5.9399999999999951
10
-2.4025000000000003
20
5.9399999999999951
10
-2.4024999999999999
20
4.1775000000000011
10
-3.1534959595570213
20
4.1775000000000011
10
-3.4877389033416493
20
0.99739081658082618
42
-0.38386403503541738
10
-3.7111284114792715
20
0.79625000000000623
10
-5.0388715885207285
20
0.79625000000000568
42
-0.38386403503541722
10
-5.2622610966583494
20
0.99739081658082507
10
-5.5965040404429782
20
4.1775000000000002
10
-6.347500000000001
20
4.1775000000000011
10
-6.347500000000001
20
5.9399999999999951
10
-8.9900000000000002
20
5.9399999999999951
10
-8.9900000000000002
20
1.8224999999999982
10
-8.4899999999999984
20
1.8224999999999978
10
-8.4899999999999984
20
0.80249999999999744
10
-8.9900000000000002
20
0.80249999999999744
10
-8.9900000000000002
20
-2.5649999999999866
10
-4.8849999999999998
20
-2.5649999999999875
10
-4.8849999999999998
20
-2.189999999999988
0
CIRCLE
5
110
100
AcDbEntity
8
0
100
AcDbCircle
10
-1.15625
20
-2.3874999999999886
30
0
40
0.099999999999999992
210
0
220
0
230
1
0
CIRCLE
5
111
100
AcDbEntity
8
0
100
AcDbCircle
10
-2.96875
20
-2.3874999999999886
30
0
40
0.099999999999999811
210
0
220
0
230
1
0
CIRCLE
5
112
100
AcDbEntity
8
0
100
AcDbCircle
10
-5.78125
20
-2.3874999999999886
30
0
40
0.099999999999999811
210
0
220
0
230
1
0
CIRCLE
5
113
100
AcDbEntity
8
0
100
AcDbCircle
10
-8.75
20
3.0062499999999992
30
0
40
0.10000000000000052
210
0
220
0
230
1
0
CIRCLE
5
114
100
AcDbEntity
8
0
100
AcDbCircle
10
-8.75
20
-0.0762500000000014
30
0
40
0.10000000000000052
210
0
220
0
230
1
0
CIRCLE
5
115
100
AcDbEntity
8
0
100
AcDbCircle
10
-8.75
20
-1.8824999999999941
30
0
40
0.10000000000000052
210
0
220
0
230
1
0
CIRCLE
5
116
100
AcDbEntity
8
0
100
AcDbCircle
10
-7.59375
20
-2.3874999999999886
30
0
40
0.10000000000000052
210
0
220
0
230
1
0
CIRCLE
5
117
100
AcDbEntity
8
0
100
AcDbCircle
10
0
20
3.0062499999999992
30
0
40
0.097999999999999823
210
0
220
0
230
1
0
CIRCLE
5
118
100
AcDbEntity
8
0
100
AcDbCircle
10
-2.787500000000001
20
3.3124999999999982
30
0
40
0.12999999999999984
210
0
220
0
230
1
0
CIRCLE
5
119
100
AcDbEntity
8
0
100
AcDbCircle
10
-2.7874999999999992
20
1.5624999999999958
30
0
40
0.12999999999999984
210
0
220
0
230
1
0
CIRCLE
5
120
100
AcDbEntity
8
0
100
AcDbCircle
10
-5.9625000000000004
20
1.5624999999999958
30
0
40
0.12999999999999984
210
0
220
0
230
1
0
CIRCLE
5
121
100
AcDbEntity
8
0
100
AcDbCircle
10
-5.9624999999999986
20
3.3124999999999982
30
0
40
0.12999999999999984
210
0
220
0
230
1
0
CIRCLE
5
122
100
AcDbEntity
8
0
100
AcDbCircle
10
-8.75
20
4.5062499999999996
30
0
40
0.10000000000000052
210
0
220
0
230
1
0
CIRCLE
5
123
100
AcDbEntity
8
0
100
AcDbCircle
10
0
20
4.5062499999999996
30
0
40
0.099999999999999978
210
0
220
0
230
1
0
CIRCLE
5
124
100
AcDbEntity
8
0
100
AcDbCircle
10
0
20
-0.0762500000000014
30
0
40
0.099999999999999992
210
0
220
0
230
1
0
CIRCLE
5
125
100
AcDbEntity
8
0
100
AcDbCircle
10
-8.7419135797256339e-17
20
-1.8824999999999941
30
0
40
0.099999999999999992
210
0
220
0
230
1
0
ENDSEC
0
SECTION
2
OBJECTS
0
DICTIONARY
5
C
100
AcDbDictionary
3
ACAD_GROUP
350
D
3
ACAD_MLINESTYLE
350
17
0
DICTIONARY
5
D
100
AcDbDictionary
0
DICTIONARY
5
1A
330
C
100
AcDbDictionary
0
DICTIONARY
5
17
100
AcDbDictionary
0
ENDSEC
0
EOF
