0
SECTION
2
HEADER
9
$INSUNITS
70
1
9
$ACADVER
1
AC1014
9
$HANDSEED
5
FFFF
0
ENDSEC
0
SECTION
2
TABLES
0
TABLE
2
VPORT
5
8
100
AcDbSymbolTable
0
ENDTAB
0
TABLE
2
LTYPE
5
5
100
AcDbSymbolTable
0
LTYPE
5
14
100
AcDbSymbolTableRecord
100
AcDbLinetypeTableRecord
2
BYBLOCK
70
0
0
LTYPE
5
15
100
AcDbSymbolTableRecord
100
AcDbLinetypeTableRecord
2
BYLAYER
70
0
0
ENDTAB
0
TABLE
2
LAYER
5
2
100
AcDbSymbolTable
70
2
0
LAYER
5
50
100
AcDbSymbolTableRecord
100
AcDbLayerTableRecord
2
0
70
0
6
CONTINUOUS
0
ENDTAB
0
TABLE
2
STYLE
5
3
100
AcDbSymbolTable
70
1
0
STYLE
5
11
100
AcDbSymbolTableRecord
100
AcDbTextStyleTableRecord
2
STANDARD
70
0
0
ENDTAB
0
TABLE
2
VIEW
5
6
100
AcDbSymbolTable
70
0
0
ENDTAB
0
TABLE
2
UCS
5
7
100
AcDbSymbolTable
70
0
0
ENDTAB
0
TABLE
2
APPID
5
9
100
AcDbSymbolTable
70
2
0
APPID
5
12
100
AcDbSymbolTableRecord
100
AcDbRegAppTableRecord
2
ACAD
70
0
0
ENDTAB
0
TABLE
2
DIMSTYLE
5
A
100
AcDbSymbolTable
70
1
0
ENDTAB
0
TABLE
2
BLOCK_RECORD
5
1
100
AcDbSymbolTable
70
1
0
BLOCK_RECORD
5
1F
100
AcDbSymbolTableRecord
100
AcDbBlockTableRecord
2
*MODEL_SPACE
0
BLOCK_RECORD
5
1B
100
AcDbSymbolTableRecord
100
AcDbBlockTableRecord
2
*PAPER_SPACE
0
ENDTAB
0
ENDSEC
0
SECTION
2
BLOCKS
0
BLOCK
5
20
100
AcDbEntity
100
AcDbBlockBegin
2
*MODEL_SPACE
0
ENDBLK
5
21
100
AcDbEntity
100
AcDbBlockEnd
0
BLOCK
5
1C
100
AcDbEntity
100
AcDbBlockBegin
2
*PAPER_SPACE
0
ENDBLK
5
1D
100
AcDbEntity
100
AcDbBlockEnd
0
ENDSEC
0
SECTION
2
ENTITIES
0
CIRCLE
5
100
100
AcDbEntity
8
0
100
AcDbCircle
10
-10.999999999999989
20
-4.3322838924568483
30
-6.9935308637805131e-16
40
0.13000000000000053
210
6.7165259980701647e-48
220
1.1102230246251565e-16
230
1
0
CIRCLE
5
101
100
AcDbEntity
8
0
100
AcDbCircle
10
-10.999999999999989
20
-2.8448470253803886
30
6.9935308637805131e-16
40
0.13000000000000053
210
6.7165259980701647e-48
220
1.1102230246251565e-16
230
1
0
CIRCLE
5
102
100
AcDbEntity
8
0
100
AcDbCircle
10
-6.8562499999999904
20
-4.0301325351650901
30
0
40
0.13000000000000053
210
6.7165259980701647e-48
220
1.1102230246251565e-16
230
1
0
CIRCLE
5
103
100
AcDbEntity
8
0
100
AcDbCircle
10
-7.9812499999999913
20
-3.1301325351650906
30
0
40
0.13000000000000053
210
-2.3389495696408343e-47
220
1.1102230246251565e-16
230
1
0
CIRCLE
5
104
100
AcDbEntity
8
0
100
AcDbCircle
10
-6.8562499999999886
20
-4.9301325351650895
30
0
40
0.13000000000000053
210
6.7165259980701659e-48
220
1.1102230246251565e-16
230
1
0
CIRCLE
5
105
100
AcDbEntity
8
0
100
AcDbCircle
10
-9.8749999999999876
20
-4.9301325351650931
30
0
40
0.13000000000000053
210
6.7165259980701659e-48
220
1.1102230246251565e-16
230
1
0
CIRCLE
5
106
100
AcDbEntity
8
0
100
AcDbCircle
10
-7.9812499999999895
20
-4.030132535165091
30
-6.9935308637805131e-16
40
0.13000000000000053
210
-2.3389495696408343e-47
220
1.1102230246251565e-16
230
1
0
LWPOLYLINE
5
107
100
AcDbEntity
8
0
100
AcDbPolyline
90
4
70
1
43
0.0
10
1.9899999999999998
20
-3.3285640033151185
10
2.5599999999999996
20
-3.3285640033151185
10
2.5599999999999996
20
-3.8485640033151221
10
1.9899999999999998
20
-3.8485640033151234
0
CIRCLE
5
108
100
AcDbEntity
8
0
100
AcDbCircle
10
-9.8750000000000373
20
-4.0301325351650927
30
0
40
0.13000000000000053
210
6.7165259980701659e-48
220
1.1102230246251565e-16
230
1
0
CIRCLE
5
109
100
AcDbEntity
8
0
100
AcDbCircle
10
-6.8562499999999904
20
-3.1301325351650875
30
0
40
0.13000000000000053
210
6.7165259980701647e-48
220
1.1102230246251565e-16
230
1
0
CIRCLE
5
110
100
AcDbEntity
8
0
100
AcDbCircle
10
-9.8749999999999893
20
-3.1301325351650924
30
0
40
0.12999999999999914
210
-2.1895288505075267e-47
220
7.8484066000111922e-79
230
1
0
CIRCLE
5
111
100
AcDbEntity
8
0
100
AcDbCircle
10
-7.9812499999999886
20
-4.9301325351650904
30
0
40
0.13000000000000053
210
-2.3389495696408343e-47
220
1.1102230246251565e-16
230
1
0
CIRCLE
5
112
100
AcDbEntity
8
0
100
AcDbCircle
10
1.1249999999999876
20
-4.9301325351650931
30
0
40
0.13
210
7.9592298698715152e-48
220
2.2204460492503131e-16
230
1
0
CIRCLE
5
113
100
AcDbEntity
8
0
100
AcDbCircle
10
2.2499999999999893
20
-4.3322838924568483
30
-6.9935308637805131e-16
40
0.13000000000000017
210
5.4738221262688167e-48
220
-1.9621016500028007e-79
230
1
0
CIRCLE
5
114
100
AcDbEntity
8
0
100
AcDbCircle
10
-1.8937500000000098
20
-3.1301325351650875
30
0
40
0.13000000000000017
210
5.4738221262688167e-48
220
-1.9621016500028007e-79
230
1
0
CIRCLE
5
115
100
AcDbEntity
8
0
100
AcDbCircle
10
-0.76875000000001048
20
-4.030132535165091
30
-6.9935308637805131e-16
40
0.13000000000000009
210
6.7165259980701757e-48
220
1.1102230246251565e-16
230
1
0
CIRCLE
5
116
100
AcDbEntity
8
0
100
AcDbCircle
10
1.1250000000000382
20
-4.0301325351650927
30
0
40
0.13000000000000017
210
5.4738221262688167e-48
220
-1.9621016500028004e-79
230
1
0
CIRCLE
5
117
100
AcDbEntity
8
0
100
AcDbCircle
10
-1.8937500000000111
20
-4.9301325351650895
30
0
40
0.13000000000000017
210
5.4738221262688167e-48
220
-1.9621016500028004e-79
230
1
0
CIRCLE
5
118
100
AcDbEntity
8
0
100
AcDbCircle
10
2.2499999999999902
20
-2.8448470253803886
30
6.9935308637805131e-16
40
0.13000000000000017
210
5.4738221262688167e-48
220
-1.9621016500028007e-79
230
1
0
CIRCLE
5
119
100
AcDbEntity
8
0
100
AcDbCircle
10
-1.8937500000000098
20
-4.0301325351650901
30
0
40
0.13000000000000017
210
5.4738221262688167e-48
220
-1.9621016500028007e-79
230
1
0
CIRCLE
5
120
100
AcDbEntity
8
0
100
AcDbCircle
10
-0.76875000000000937
20
-3.1301325351650906
30
0
40
0.13000000000000009
210
6.7165259980701757e-48
220
1.1102230246251565e-16
230
1
0
CIRCLE
5
121
100
AcDbEntity
8
0
100
AcDbCircle
10
1.12499999999999
20
-3.1301325351650924
30
0
40
0.12999999999999984
210
-5.4738221262688167e-48
220
1.9621016500028028e-79
230
1
0
CIRCLE
5
122
100
AcDbEntity
8
0
100
AcDbCircle
10
-0.76875000000001181
20
-4.9301325351650904
30
0
40
0.12999999999999984
210
-5.4738221262688167e-48
220
1.9621016500028028e-79
230
1
0
LWPOLYLINE
5
123
100
AcDbEntity
8
0
100
AcDbPolyline
90
4
70
1
43
0.0
10
-11.309999999999999
20
-3.3285640033151185
10
-10.74
20
-3.3285640033151185
10
-10.74
20
-3.8485640033151229
10
-11.309999999999999
20
-3.8485640033151216
0
LWPOLYLINE
5
124
100
AcDbEntity
8
0
100
AcDbPolyline
90
20
70
1
43
0.0
10
-14.306491063090506
20
-5.4076211105354828
42
0.66817863791929999
10
-14.190483124569042
20
-5.6876890490569467
10
5.440483124569031
20
-5.687689049056937
42
0.66817863791929744
10
5.5564910630904958
20
-5.4076211105354712
10
2.4999999999999996
20
-2.3511300474450074
10
1.99999999999999
20
-2.3511300474453152
42
-0.39035329749594205
10
0.24999999999999115
20
-2.351130047445313
10
-2.4125000000000001
20
-2.3511300474449768
10
-2.4125000000000001
20
-2.701990415370191
10
-3.1624999999999996
20
-2.7019904153701906
10
-3.1624999999999996
20
-4.671959049056948
42
-0.41421356237309426
10
-3.4282299999999997
20
-4.9376890490569476
10
-5.321769999999999
20
-4.9376890490569458
42
-0.41421356237309503
10
-5.5874999999999995
20
-4.6719590490569463
10
-5.5875000000000004
20
-2.701990415370191
10
-6.3375000000000004
20
-2.7019904153701897
10
-6.3375000000000004
20
-2.3511300474449772
10
-8.9999999999999911
20
-2.351130047445313
42
-0.39035329749594194
10
-10.749999999999991
20
-2.3511300474453152
10
-11.249999999999998
20
-2.3511300474449777
0
ENDSEC
0
SECTION
2
OBJECTS
0
DICTIONARY
5
C
100
AcDbDictionary
3
ACAD_GROUP
350
D
3
ACAD_MLINESTYLE
350
17
0
DICTIONARY
5
D
100
AcDbDictionary
0
DICTIONARY
5
1A
330
C
100
AcDbDictionary
0
DICTIONARY
5
17
100
AcDbDictionary
0
ENDSEC
0
EOF
