0
SECTION
2
HEADER
9
$INSUNITS
70
1
9
$ACADVER
1
AC1014
9
$HANDSEED
5
FFFF
0
ENDSEC
0
SECTION
2
TABLES
0
TABLE
2
VPORT
5
8
100
AcDbSymbolTable
0
ENDTAB
0
TABLE
2
LTYPE
5
5
100
AcDbSymbolTable
0
LTYPE
5
14
100
AcDbSymbolTableRecord
100
AcDbLinetypeTableRecord
2
BYBLOCK
70
0
0
LTYPE
5
15
100
AcDbSymbolTableRecord
100
AcDbLinetypeTableRecord
2
BYLAYER
70
0
0
ENDTAB
0
TABLE
2
LAYER
5
2
100
AcDbSymbolTable
70
2
0
LAYER
5
50
100
AcDbSymbolTableRecord
100
AcDbLayerTableRecord
2
0
70
0
6
CONTINUOUS
0
ENDTAB
0
TABLE
2
STYLE
5
3
100
AcDbSymbolTable
70
1
0
STYLE
5
11
100
AcDbSymbolTableRecord
100
AcDbTextStyleTableRecord
2
STANDARD
70
0
0
ENDTAB
0
TABLE
2
VIEW
5
6
100
AcDbSymbolTable
70
0
0
ENDTAB
0
TABLE
2
UCS
5
7
100
AcDbSymbolTable
70
0
0
ENDTAB
0
TABLE
2
APPID
5
9
100
AcDbSymbolTable
70
2
0
APPID
5
12
100
AcDbSymbolTableRecord
100
AcDbRegAppTableRecord
2
ACAD
70
0
0
ENDTAB
0
TABLE
2
DIMSTYLE
5
A
100
AcDbSymbolTable
70
1
0
ENDTAB
0
TABLE
2
BLOCK_RECORD
5
1
100
AcDbSymbolTable
70
1
0
BLOCK_RECORD
5
1F
100
AcDbSymbolTableRecord
100
AcDbBlockTableRecord
2
*MODEL_SPACE
0
BLOCK_RECORD
5
1B
100
AcDbSymbolTableRecord
100
AcDbBlockTableRecord
2
*PAPER_SPACE
0
ENDTAB
0
ENDSEC
0
SECTION
2
BLOCKS
0
BLOCK
5
20
100
AcDbEntity
100
AcDbBlockBegin
2
*MODEL_SPACE
0
ENDBLK
5
21
100
AcDbEntity
100
AcDbBlockEnd
0
BLOCK
5
1C
100
AcDbEntity
100
AcDbBlockBegin
2
*PAPER_SPACE
0
ENDBLK
5
1D
100
AcDbEntity
100
AcDbBlockEnd
0
ENDSEC
0
SECTION
2
ENTITIES
0
LWPOLYLINE
5
100
100
AcDbEntity
8
0
100
AcDbPolyline
90
12
70
1
43
0.0
10
-0.48149085131116387
20
-0.13478338214947214
42
1.1338934190276813
10
-0.35747125860501139
20
-0.34959161785052717
42
0.13732515384062599
10
-0.12401959270615272
20
-0.48437499999999994
42
1.1338934190276813
10
0.12401959270615266
20
-0.484375
42
0.13732515384062605
10
0.357471258605011
20
-0.3495916178505275
42
1.1338934190276821
10
0.48149085131116387
20
-0.1347833821494723
42
0.13732515384062616
10
0.48149085131116387
20
0.13478338214947233
42
1.1338934190276813
10
0.35747125860501133
20
0.3495916178505275
42
0.13732515384062621
10
0.12401959270615272
20
0.48437499999999994
42
1.1338934190276817
10
-0.12401959270615287
20
0.48437499999999983
42
0.13732515384062555
10
-0.357471258605011
20
0.34959161785052761
42
1.1338934190276817
10
-0.48149085131116393
20
0.13478338214947247
42
0.13732515384062544
0
LWPOLYLINE
5
101
100
AcDbEntity
8
0
100
AcDbPolyline
90
6
70
1
43
0.0
10
-0.97532646999607198
20
0.98931500000000017
10
-0.75672433757280411
20
0.61068500000000003
42
-0.57735026918962573
10
-0.90723089249650168
20
0.35000000000000014
10
-1.3444351573430378
20
0.35000000000000042
42
-0.57735026918962551
10
-1.4949417122667354
20
0.61068500000000026
10
-1.2763395798434674
20
0.98931500000000028
42
-0.57735026918962584
0
LWPOLYLINE
5
102
100
AcDbEntity
8
0
100
AcDbPolyline
90
6
70
1
43
0.0
10
1.3444351573430386
20
0.34999999999999942
10
0.90723089249650224
20
0.34999999999999948
42
-0.57735026918962595
10
0.75672433757280466
20
0.6106849999999997
10
0.97532646999607298
20
0.98931499999999961
42
-0.57735026918962551
10
1.2763395798434682
20
0.9893149999999995
10
1.4949417122667363
20
0.61068499999999937
42
-0.57735026918962573
0
LWPOLYLINE
5
103
100
AcDbEntity
8
0
100
AcDbPolyline
90
6
70
1
43
0.0
10
0.369108687346966
20
1.3393149999999998
10
0.15050655492369774
20
0.96068499999999946
42
-0.57735026918962551
10
-0.15050655492369744
20
0.96068499999999968
10
-0.36910868734696545
20
1.339315
42
-0.57735026918962573
10
-0.21860213242326793
20
1.5999999999999999
10
0.21860213242326851
20
1.5999999999999999
42
-0.57735026918962595
0
LWPOLYLINE
5
104
100
AcDbEntity
8
0
100
AcDbPolyline
90
6
70
1
43
0.0
10
0.21860213242326806
20
-1.5999999999999999
10
-0.21860213242326834
20
-1.5999999999999999
42
-0.57735026918962573
10
-0.36910868734696589
20
-1.339315
10
-0.15050655492369766
20
-0.96068499999999968
42
-0.57735026918962584
10
0.15050655492369752
20
-0.96068499999999968
10
0.36910868734696561
20
-1.339315
42
-0.57735026918962573
0
LWPOLYLINE
5
105
100
AcDbEntity
8
0
100
AcDbPolyline
90
6
70
1
43
0.0
10
0.97532646999607231
20
-0.98931500000000028
10
0.75672433757280422
20
-0.61068500000000003
42
-0.57735026918962551
10
0.90723089249650191
20
-0.35000000000000014
10
1.344435157343038
20
-0.35000000000000009
42
-0.57735026918962584
10
1.4949417122667359
20
-0.61068500000000014
10
1.2763395798434676
20
-0.98931500000000028
42
-0.57735026918962595
0
LWPOLYLINE
5
106
100
AcDbEntity
8
0
100
AcDbPolyline
90
6
70
1
43
0.0
10
-1.3444351573430384
20
-0.34999999999999876
10
-0.90723089249650246
20
-0.34999999999999909
42
-0.57735026918962584
10
-0.75672433757280488
20
-0.61068499999999937
10
-0.97532646999607342
20
-0.98931499999999906
42
-0.57735026918962584
10
-1.2763395798434685
20
-0.98931499999999872
10
-1.4949417122667361
20
-0.61068499999999859
42
-0.57735026918962584
0
LWPOLYLINE
5
107
100
AcDbEntity
8
0
100
AcDbPolyline
90
72
70
1
43
0.0
10
-0.46070275145863732
20
-2.202328988774938
42
0.037675571322620525
10
-0.12500000000000155
20
-2.246525094451429
10
0
20
-2.3715250944514286
10
0.12500000000000003
20
-2.2465250944514286
42
0.037675571322621275
10
0.46070275145863521
20
-2.2023289887749384
10
0.61379586038258405
20
-2.2907173364232567
10
0.70218420803090253
20
-2.137624227499308
42
0.037675571322621275
10
1.0150093717526596
20
-2.0080478020341723
10
1.1857625472257138
20
-2.0538009775072279
10
1.231515722698769
20
-1.8830478020341723
42
0.037675571322621275
10
1.5001447807440358
20
-1.6769214760406723
10
1.676921476040673
20
-1.6769214760406725
10
1.6769214760406725
20
-1.5001447807440358
42
0.0376755713226209
10
1.8830478020341723
20
-1.2315157226987692
10
2.0538009775072275
20
-1.1857625472257145
10
2.0080478020341728
20
-1.0150093717526596
42
0.037675571322621275
10
2.137624227499308
20
-0.70218420803090298
10
2.2907173364232567
20
-0.6137958603825846
10
2.2023289887749384
20
-0.46070275145863593
42
0.037675571322621275
10
2.2465250944514281
20
-0.12500000000000008
10
2.371525094451429
20
5.2451481478353848e-16
10
2.246525094451429
20
0.12500000000000058
42
0.037675571322621275
10
2.202328988774938
20
0.46070275145863604
10
2.2907173364232567
20
0.61379586038258405
10
2.1376242274993085
20
0.70218420803090242
42
0.0376755713226209
10
2.0080478020341723
20
1.0150093717526596
10
2.0538009775072279
20
1.1857625472257136
10
1.8830478020341734
20
1.2315157226987685
42
0.037675571322621275
10
1.676921476040673
20
1.5001447807440356
10
1.676921476040673
20
1.6769214760406725
10
1.5001447807440362
20
1.6769214760406725
42
0.037675571322620525
10
1.2315157226987696
20
1.8830478020341723
10
1.1857625472257149
20
2.0538009775072266
10
1.01500937175266
20
2.0080478020341719
42
0.0376755713226209
10
0.70218420803090342
20
2.137624227499308
10
0.61379586038258471
20
2.2907173364232567
10
0.46070275145863593
20
2.202328988774938
42
0.037675571322621275
10
0.12500000000000025
20
2.2465250944514281
10
3.0596697529039742e-16
20
2.3715250944514286
10
-0.12499999999999972
20
2.2465250944514286
42
0.0376755713226209
10
-0.46070275145863498
20
2.2023289887749384
10
-0.61379586038258305
20
2.2907173364232576
10
-0.70218420803090154
20
2.1376242274993085
42
0.0376755713226209
10
-1.0150093717526583
20
2.0080478020341728
10
-1.1857625472257138
20
2.0538009775072279
10
-1.2315157226987685
20
1.883047802034173
42
0.037675571322621275
10
-1.5001447807440351
20
1.676921476040673
10
-1.6769214760406719
20
1.6769214760406737
10
-1.6769214760406723
20
1.5001447807440365
42
0.037675571322620525
10
-1.8830478020341723
20
1.2315157226987696
10
-2.0538009775072266
20
1.1857625472257145
10
-2.0080478020341719
20
1.0150093717526596
42
0.0376755713226209
10
-2.1376242274993071
20
0.70218420803090476
10
-2.2907173364232563
20
0.6137958603825856
10
-2.202328988774938
20
0.46070275145863687
42
0.0376755713226209
10
-2.246525094451429
20
0.12500000000000139
10
-2.3715250944514286
20
5.2451481478353848e-16
10
-2.2465250944514281
20
-0.12499999999999953
42
0.0376755713226209
10
-2.2023289887749389
20
-0.46070275145863304
10
-2.2907173364232576
20
-0.61379586038258271
10
-2.137624227499308
20
-0.70218420803090109
42
0.037675571322620525
10
-2.0080478020341728
20
-1.0150093717526583
10
-2.0538009775072283
20
-1.1857625472257129
10
-1.883047802034173
20
-1.2315157226987672
42
0.0376755713226209
10
-1.6769214760406741
20
-1.5001447807440345
10
-1.676921476040673
20
-1.6769214760406723
10
-1.5001447807440362
20
-1.6769214760406723
42
0.037675571322620525
10
-1.2315157226987696
20
-1.8830478020341723
10
-1.1857625472257154
20
-2.0538009775072266
10
-1.01500937175266
20
-2.0080478020341714
42
0.0376755713226209
10
-0.70218420803090387
20
-2.137624227499308
10
-0.61379586038258582
20
-2.2907173364232563
0
ENDSEC
0
SECTION
2
OBJECTS
0
DICTIONARY
5
C
100
AcDbDictionary
3
ACAD_GROUP
350
D
3
ACAD_MLINESTYLE
350
17
0
DICTIONARY
5
D
100
AcDbDictionary
0
DICTIONARY
5
1A
330
C
100
AcDbDictionary
0
DICTIONARY
5
17
100
AcDbDictionary
0
ENDSEC
0
EOF
