0
SECTION
2
HEADER
9
$INSUNITS
70
1
9
$ACADVER
1
AC1014
9
$HANDSEED
5
FFFF
0
ENDSEC
0
SECTION
2
TABLES
0
TABLE
2
VPORT
5
8
100
AcDbSymbolTable
0
ENDTAB
0
TABLE
2
LTYPE
5
5
100
AcDbSymbolTable
0
LTYPE
5
14
100
AcDbSymbolTableRecord
100
AcDbLinetypeTableRecord
2
BYBLOCK
70
0
0
LTYPE
5
15
100
AcDbSymbolTableRecord
100
AcDbLinetypeTableRecord
2
BYLAYER
70
0
0
ENDTAB
0
TABLE
2
LAYER
5
2
100
AcDbSymbolTable
70
2
0
LAYER
5
50
100
AcDbSymbolTableRecord
100
AcDbLayerTableRecord
2
0
70
0
6
CONTINUOUS
0
ENDTAB
0
TABLE
2
STYLE
5
3
100
AcDbSymbolTable
70
1
0
STYLE
5
11
100
AcDbSymbolTableRecord
100
AcDbTextStyleTableRecord
2
STANDARD
70
0
0
ENDTAB
0
TABLE
2
VIEW
5
6
100
AcDbSymbolTable
70
0
0
ENDTAB
0
TABLE
2
UCS
5
7
100
AcDbSymbolTable
70
0
0
ENDTAB
0
TABLE
2
APPID
5
9
100
AcDbSymbolTable
70
2
0
APPID
5
12
100
AcDbSymbolTableRecord
100
AcDbRegAppTableRecord
2
ACAD
70
0
0
ENDTAB
0
TABLE
2
DIMSTYLE
5
A
100
AcDbSymbolTable
70
1
0
ENDTAB
0
TABLE
2
BLOCK_RECORD
5
1
100
AcDbSymbolTable
70
1
0
BLOCK_RECORD
5
1F
100
AcDbSymbolTableRecord
100
AcDbBlockTableRecord
2
*MODEL_SPACE
0
BLOCK_RECORD
5
1B
100
AcDbSymbolTableRecord
100
AcDbBlockTableRecord
2
*PAPER_SPACE
0
ENDTAB
0
ENDSEC
0
SECTION
2
BLOCKS
0
BLOCK
5
20
100
AcDbEntity
100
AcDbBlockBegin
2
*MODEL_SPACE
0
ENDBLK
5
21
100
AcDbEntity
100
AcDbBlockEnd
0
BLOCK
5
1C
100
AcDbEntity
100
AcDbBlockBegin
2
*PAPER_SPACE
0
ENDBLK
5
1D
100
AcDbEntity
100
AcDbBlockEnd
0
ENDSEC
0
SECTION
2
ENTITIES
0
CIRCLE
5
100
100
AcDbEntity
8
0
100
AcDbCircle
10
-2.4087931369365063
20
-1.3135081947229037
30
0
40
0.10999999999999995
210
0
220
-0
230
1
0
CIRCLE
5
101
100
AcDbEntity
8
0
100
AcDbCircle
10
3.6166199999999971
20
1.9890212587539335
30
0
40
0.11000000000000029
210
0
220
-0
230
1
0
CIRCLE
5
102
100
AcDbEntity
8
0
100
AcDbCircle
10
-3.6166200000000033
20
1.9890212587539327
30
0
40
0.10999999999999957
210
0
220
-0
230
1
0
CIRCLE
5
103
100
AcDbEntity
8
0
100
AcDbCircle
10
1.3750174481596316
20
1.9890212587539333
30
0
40
0.10999999999999995
210
0
220
-0
230
1
0
CIRCLE
5
104
100
AcDbEntity
8
0
100
AcDbCircle
10
2.4087931369365032
20
-1.313508194722903
30
0
40
0.10999999999999995
210
0
220
-0
230
1
0
CIRCLE
5
105
100
AcDbEntity
8
0
100
AcDbCircle
10
-2.4106520623712271
20
-3.174171985530013
30
0
40
0.10999999999999995
210
0
220
-0
230
1
0
CIRCLE
5
106
100
AcDbEntity
8
0
100
AcDbCircle
10
3.6166200000000006
20
0.94208562806258567
30
0
40
0.10999999999999957
210
0
220
-0
230
1
0
CIRCLE
5
107
100
AcDbEntity
8
0
100
AcDbCircle
10
-3.6166200000000033
20
0.94208562806258567
30
0
40
0.10999999999999957
210
0
220
-0
230
1
0
CIRCLE
5
108
100
AcDbEntity
8
0
100
AcDbCircle
10
-1.375017448159636
20
1.9890212587539327
30
0
40
0.10999999999999995
210
0
220
-0
230
1
0
CIRCLE
5
109
100
AcDbEntity
8
0
100
AcDbCircle
10
2.4351199999999977
20
0.67758562806258449
30
0
40
0.10999999999999995
210
0
220
-0
230
1
0
CIRCLE
5
110
100
AcDbEntity
8
0
100
AcDbCircle
10
2.4106520623712244
20
-3.174171985530013
30
0
40
0.10999999999999995
210
0
220
-0
230
1
0
LWPOLYLINE
5
111
100
AcDbEntity
8
0
100
AcDbPolyline
90
24
70
1
43
0.0
10
3.6792599999999975
20
-3.4532251922424444
42
0.41421356237309725
10
3.8666199999999975
20
-3.2658651922424444
10
3.8666199999999984
20
-1.5358443719374137
42
0.41421356237309404
10
3.7636899999999986
20
-1.4329143719374144
10
3.2144999999999984
20
-1.4329143719374144
42
-0.41421356237309503
10
2.9666199999999985
20
-1.1850343719374146
10
2.9666199999999985
20
0.44420562806258507
42
-0.41421356237309515
10
3.2144999999999984
20
0.69208562806258511
10
3.7636899999999991
20
0.692085628062585
42
0.41421356237309309
10
3.8666199999999984
20
0.79501562806258497
10
3.8666199999999984
20
2.0359358595944563
42
0.41421356237309503
10
3.6187399999999981
20
2.2838158595944562
10
-3.6187400000000012
20
2.2838158595944562
42
0.41421356237309503
10
-3.8666200000000011
20
2.0359358595944563
10
-3.8666200000000002
20
0.79501562806258497
42
0.41421356237309503
10
-3.7636900000000013
20
0.69208562806258522
10
-3.2145000000000006
20
0.69208562806258533
42
-0.4142135623730952
10
-2.9666200000000007
20
0.44420562806258518
10
-2.966620000000002
20
-1.1850343719374143
42
-0.41421356237309503
10
-3.2145000000000019
20
-1.4329143719374142
10
-3.7636900000000013
20
-1.432914371937414
42
0.41421356237309459
10
-3.8666200000000011
20
-1.5358443719374142
10
-3.8666200000000011
20
-3.2658651922424453
42
0.41421356237309614
10
-3.6792600000000006
20
-3.4532251922424444
0
ENDSEC
0
SECTION
2
OBJECTS
0
DICTIONARY
5
C
100
AcDbDictionary
3
ACAD_GROUP
350
D
3
ACAD_MLINESTYLE
350
17
0
DICTIONARY
5
D
100
AcDbDictionary
0
DICTIONARY
5
1A
330
C
100
AcDbDictionary
0
DICTIONARY
5
17
100
AcDbDictionary
0
ENDSEC
0
EOF
