0
SECTION
2
HEADER
9
$INSUNITS
70
4
9
$ACADVER
1
AC1014
9
$HANDSEED
5
FFFF
0
ENDSEC
0
SECTION
2
TABLES
0
TABLE
2
VPORT
5
8
100
AcDbSymbolTable
0
ENDTAB
0
TABLE
2
LTYPE
5
5
100
AcDbSymbolTable
0
LTYPE
5
14
100
AcDbSymbolTableRecord
100
AcDbLinetypeTableRecord
2
BYBLOCK
70
0
0
LTYPE
5
15
100
AcDbSymbolTableRecord
100
AcDbLinetypeTableRecord
2
BYLAYER
70
0
0
ENDTAB
0
TABLE
2
LAYER
5
2
100
AcDbSymbolTable
70
2
0
LAYER
5
50
100
AcDbSymbolTableRecord
100
AcDbLayerTableRecord
2
0
70
0
6
CONTINUOUS
0
ENDTAB
0
TABLE
2
STYLE
5
3
100
AcDbSymbolTable
70
1
0
STYLE
5
11
100
AcDbSymbolTableRecord
100
AcDbTextStyleTableRecord
2
STANDARD
70
0
0
ENDTAB
0
TABLE
2
VIEW
5
6
100
AcDbSymbolTable
70
0
0
ENDTAB
0
TABLE
2
UCS
5
7
100
AcDbSymbolTable
70
0
0
ENDTAB
0
TABLE
2
APPID
5
9
100
AcDbSymbolTable
70
2
0
APPID
5
12
100
AcDbSymbolTableRecord
100
AcDbRegAppTableRecord
2
ACAD
70
0
0
ENDTAB
0
TABLE
2
DIMSTYLE
5
A
100
AcDbSymbolTable
70
1
0
ENDTAB
0
TABLE
2
BLOCK_RECORD
5
1
100
AcDbSymbolTable
70
1
0
BLOCK_RECORD
5
1F
100
AcDbSymbolTableRecord
100
AcDbBlockTableRecord
2
*MODEL_SPACE
0
BLOCK_RECORD
5
1B
100
AcDbSymbolTableRecord
100
AcDbBlockTableRecord
2
*PAPER_SPACE
0
ENDTAB
0
ENDSEC
0
SECTION
2
BLOCKS
0
BLOCK
5
20
100
AcDbEntity
100
AcDbBlockBegin
2
*MODEL_SPACE
0
ENDBLK
5
21
100
AcDbEntity
100
AcDbBlockEnd
0
BLOCK
5
1C
100
AcDbEntity
100
AcDbBlockBegin
2
*PAPER_SPACE
0
ENDBLK
5
1D
100
AcDbEntity
100
AcDbBlockEnd
0
ENDSEC
0
SECTION
2
ENTITIES
0
LWPOLYLINE
5
100
100
AcDbEntity
8
0
100
AcDbPolyline
90
36
70
1
43
0.0
10
13.298806074066027
20
17.547506483336178
42
0.99999998509883881
10
5.5267800532291211
20
21.312623683561711
10
5.298625148478938
20
20.841662023358577
42
-0.32918011916200235
10
3.0161864320292535
20
19.642778530728371
42
0.11289322556935581
10
-5.8217267515358984
20
19.001148034538641
42
-0.32918011916200274
10
-8.2533960313600616
20
19.857788353931326
10
-8.5471833144862206
20
20.290857088564998
42
1.0000000074505806
10
-15.69388347820458
20
15.442643730026813
10
-15.400096195078405
20
15.009574995393141
42
-0.32918011916200202
10
-15.503051992507677
20
12.43348333805146
42
0.11289322556935602
10
-19.366340274747142
20
4.458810756547769
42
-0.32918011916200141
10
-21.324047193159302
20
2.7812435463141782
10
-21.845989360499939
20
2.7433506631349447
42
0.9999999925494194
10
-21.220663575072294
20
-5.8699799158036958
10
-20.698721343557342
20
-5.832087027965418
42
-0.32918011916200451
10
-18.519238424536933
20
-7.2092951926768905
42
0.11289322556935596
10
-13.544613523211238
20
-14.542337277990844
42
-0.32918011916200463
10
-13.070651161799221
20
-17.076544807617125
10
-13.298806046013684
20
-17.547506425430054
42
0.99999999999999989
10
-5.5267800326933703
20
-21.312623641171463
10
-5.2986251484789024
20
-20.841662023358541
42
-0.32918011916200174
10
-3.0161864320292207
20
-19.64277853072835
42
0.11289322556935602
10
5.8217267515359339
20
-19.001148034538609
42
-0.32918011916200363
10
8.2533960313601007
20
-19.857788353931301
10
8.5471833144862686
20
-20.290857088564984
42
0.9999999925494194
10
15.693883514326625
20
-15.442643783273859
10
15.40009619507847
20
-15.0095749953931
42
-0.32918011916200368
10
15.503051992507746
20
-12.433483338051445
42
0.11289322556935588
10
19.366340274747188
20
-4.4588107565477326
42
-0.3291801191620029
10
21.324047193159352
20
-2.7812435463141583
10
21.845989360499978
20
-2.7433506631349158
42
0.99999999999999989
10
21.220663510898021
20
5.8699799111446787
10
20.698721343557374
20
5.8320870279654411
42
-0.3291801191620024
10
18.519238424536969
20
7.209295192676926
42
0.11289322556935549
10
13.544613523211279
20
14.542337277990871
42
-0.32918011916200746
10
13.070651161799267
20
17.076544807617175
0
LWPOLYLINE
5
101
100
AcDbEntity
8
0
100
AcDbPolyline
90
16
70
1
43
0.0
10
42.903439127537837
20
-23.999621121156181
42
0.67925581907829735
10
43.883540084998963
20
-24.032645699482693
42
0.13879471069864308
10
48.998254722382285
20
13.534614905060058
42
0.17506724114801164
10
45.999096197211422
20
19.196492673042762
10
21.175934399834535
20
41.727962381540166
42
0.17408156846590772
10
15.286951416212906
20
44.164732692465876
10
-16.76621867027696
20
45.69239074577267
42
0.16169560784897563
10
-22.489870864676107
20
44.089870438196854
42
0.049204380377783227
10
-36.562203930119949
20
32.429547664876551
42
0.50081281928776156
10
-36.437580299155783
20
31.594032654237729
42
-0.34494741175106008
10
-28.47790030859635
20
13.396414498426545
42
0.031727641698935001
10
-29.084927842271163
20
10.215562833760321
42
-0.15439224068838092
10
-44.0108312044797
20
-22.201018330696055
42
-0.084360018288412067
10
-50.747260212983974
20
-27.479102858529014
10
-55.839185020103017
20
-30.236326104384545
42
0.51581768564521402
10
21.82470714772122
20
-22.189465313430915
42
-0.64192254146151817
0
ENDSEC
0
SECTION
2
OBJECTS
0
DICTIONARY
5
C
100
AcDbDictionary
3
ACAD_GROUP
350
D
3
ACAD_MLINESTYLE
350
17
0
DICTIONARY
5
D
100
AcDbDictionary
0
DICTIONARY
5
1A
330
C
100
AcDbDictionary
0
DICTIONARY
5
17
100
AcDbDictionary
0
ENDSEC
0
EOF
