0
SECTION
2
HEADER
9
$INSUNITS
70
4
9
$ACADVER
1
AC1014
9
$HANDSEED
5
FFFF
0
ENDSEC
0
SECTION
2
TABLES
0
TABLE
2
VPORT
5
8
100
AcDbSymbolTable
0
ENDTAB
0
TABLE
2
LTYPE
5
5
100
AcDbSymbolTable
0
LTYPE
5
14
100
AcDbSymbolTableRecord
100
AcDbLinetypeTableRecord
2
BYBLOCK
70
0
0
LTYPE
5
15
100
AcDbSymbolTableRecord
100
AcDbLinetypeTableRecord
2
BYLAYER
70
0
0
ENDTAB
0
TABLE
2
LAYER
5
2
100
AcDbSymbolTable
70
2
0
LAYER
5
50
100
AcDbSymbolTableRecord
100
AcDbLayerTableRecord
2
0
70
0
6
CONTINUOUS
0
ENDTAB
0
TABLE
2
STYLE
5
3
100
AcDbSymbolTable
70
1
0
STYLE
5
11
100
AcDbSymbolTableRecord
100
AcDbTextStyleTableRecord
2
STANDARD
70
0
0
ENDTAB
0
TABLE
2
VIEW
5
6
100
AcDbSymbolTable
70
0
0
ENDTAB
0
TABLE
2
UCS
5
7
100
AcDbSymbolTable
70
0
0
ENDTAB
0
TABLE
2
APPID
5
9
100
AcDbSymbolTable
70
2
0
APPID
5
12
100
AcDbSymbolTableRecord
100
AcDbRegAppTableRecord
2
ACAD
70
0
0
ENDTAB
0
TABLE
2
DIMSTYLE
5
A
100
AcDbSymbolTable
70
1
0
ENDTAB
0
TABLE
2
BLOCK_RECORD
5
1
100
AcDbSymbolTable
70
1
0
BLOCK_RECORD
5
1F
100
AcDbSymbolTableRecord
100
AcDbBlockTableRecord
2
*MODEL_SPACE
0
BLOCK_RECORD
5
1B
100
AcDbSymbolTableRecord
100
AcDbBlockTableRecord
2
*PAPER_SPACE
0
ENDTAB
0
ENDSEC
0
SECTION
2
BLOCKS
0
BLOCK
5
20
100
AcDbEntity
100
AcDbBlockBegin
2
*MODEL_SPACE
0
ENDBLK
5
21
100
AcDbEntity
100
AcDbBlockEnd
0
BLOCK
5
1C
100
AcDbEntity
100
AcDbBlockBegin
2
*PAPER_SPACE
0
ENDBLK
5
1D
100
AcDbEntity
100
AcDbBlockEnd
0
ENDSEC
0
SECTION
2
ENTITIES
0
LWPOLYLINE
5
100
100
AcDbEntity
8
0
100
AcDbPolyline
90
11
70
1
43
0.0
10
45.884694857080099
20
20.638254491808212
42
0.13576184261632035
10
43.200525775502797
20
24.89015417879034
10
20.093344347007239
20
45.896682750149935
42
0.17539059501099261
10
14.15838463694816
20
48.340203416094134
10
-13.41997416635412
20
49.535550237289911
42
0.076489254981137136
10
-16.271231432372254
20
49.222474226960991
42
0.18069292974120557
10
-42.434688764202164
20
30.560968736420509
42
-0.48921691856290961
10
-26.761209990810521
20
6.9747142292089448
42
-0.17158607237884879
10
-55.839185020102711
20
-30.23632610438494
42
0.54915526886617472
10
19.983195930210627
20
-28.214626237604158
42
-0.59070670243158829
10
42.053183023099834
20
-29.011039575554165
42
0.18727062231631392
0
LWPOLYLINE
5
101
100
AcDbEntity
8
0
100
AcDbPolyline
90
36
70
1
43
0.0
10
-13.047792681188019
20
17.766294886914181
42
0.99999999999999989
10
-19.004699360536815
20
11.167252318970707
10
-18.616242307757766
20
10.81659501409063
42
-0.32918011916200179
10
-18.132876752973925
20
8.4379369908442836
42
0.11289322556935492
10
-19.998002741989858
20
-0.28264170139364064
42
-0.32918011916200335
10
-21.412052257309728
20
-2.2554874174417443
10
-21.909958980767613
20
-2.4165724613759796
42
0.99999999999999989
10
-19.173473941987353
20
-10.874926298413767
10
-18.675567218529444
20
-10.713841254479528
42
-0.32918011916200302
10
-16.373906166090521
20
-11.484563416345548
42
0.11289322556935678
10
-9.7542264774191505
20
-17.460099250210874
42
-0.32918011916199924
10
-8.7527167272341373
20
-19.671124910711001
10
-8.8621663487463103
20
-20.182867303907734
42
0.99999999999999989
10
-0.1687745322838653
20
-22.042178661766876
10
-0.059324910771703931
20
-21.530436268570146
42
-0.3291801191620044
10
1.7589705868833851
20
-19.922500407189816
42
0.11289322556935757
10
10.243776264570672
20
-17.177457548817216
42
-0.32918011916200351
10
12.659335530075568
20
-17.415637493269234
10
13.047792632021316
20
-17.766294842531732
42
0.9999999925494194
10
19.00469940970348
20
-11.167252363353082
10
18.616242307757748
20
-10.816595014090588
42
-0.32918011916199974
10
18.13287675297391
20
-8.4379369908442605
42
0.11289322556935678
10
19.998002741989829
20
0.2826417013936694
42
-0.32918011916200313
10
21.412052257309711
20
2.2554874174417883
10
21.909958980767605
20
2.4165724613760302
42
0.99999999999999989
10
19.173473941987336
20
10.874926298413811
10
18.675567218529437
20
10.71384125447959
42
-0.32918011916200246
10
16.373906166090531
20
11.484563416345592
42
0.11289322556935537
10
9.7542264774191434
20
17.460099250210924
42
-0.32918011916200257
10
8.7527167272341337
20
19.67112491071105
10
8.8621663487462943
20
20.182867303907784
42
0.99999999999999989
10
0.16877453228385531
20
22.042178661766933
10
0.059324910771693662
20
21.530436268570192
42
-0.32918011916200041
10
-1.7589705868834082
20
19.922500407189862
42
0.11289322556935415
10
-10.243776264570679
20
17.177457548817266
42
-0.32918011916200435
10
-12.659335530075603
20
17.415637493269291
0
ENDSEC
0
SECTION
2
OBJECTS
0
DICTIONARY
5
C
100
AcDbDictionary
3
ACAD_GROUP
350
D
3
ACAD_MLINESTYLE
350
17
0
DICTIONARY
5
D
100
AcDbDictionary
0
DICTIONARY
5
1A
330
C
100
AcDbDictionary
0
DICTIONARY
5
17
100
AcDbDictionary
0
ENDSEC
0
EOF
