0
SECTION
2
HEADER
9
$INSUNITS
70
1
9
$ACADVER
1
AC1014
9
$HANDSEED
5
FFFF
0
ENDSEC
0
SECTION
2
TABLES
0
TABLE
2
VPORT
5
8
100
AcDbSymbolTable
0
ENDTAB
0
TABLE
2
LTYPE
5
5
100
AcDbSymbolTable
0
LTYPE
5
14
100
AcDbSymbolTableRecord
100
AcDbLinetypeTableRecord
2
BYBLOCK
70
0
0
LTYPE
5
15
100
AcDbSymbolTableRecord
100
AcDbLinetypeTableRecord
2
BYLAYER
70
0
0
ENDTAB
0
TABLE
2
LAYER
5
2
100
AcDbSymbolTable
70
2
0
LAYER
5
50
100
AcDbSymbolTableRecord
100
AcDbLayerTableRecord
2
0
70
0
6
CONTINUOUS
0
ENDTAB
0
TABLE
2
STYLE
5
3
100
AcDbSymbolTable
70
1
0
STYLE
5
11
100
AcDbSymbolTableRecord
100
AcDbTextStyleTableRecord
2
STANDARD
70
0
0
ENDTAB
0
TABLE
2
VIEW
5
6
100
AcDbSymbolTable
70
0
0
ENDTAB
0
TABLE
2
UCS
5
7
100
AcDbSymbolTable
70
0
0
ENDTAB
0
TABLE
2
APPID
5
9
100
AcDbSymbolTable
70
2
0
APPID
5
12
100
AcDbSymbolTableRecord
100
AcDbRegAppTableRecord
2
ACAD
70
0
0
ENDTAB
0
TABLE
2
DIMSTYLE
5
A
100
AcDbSymbolTable
70
1
0
ENDTAB
0
TABLE
2
BLOCK_RECORD
5
1
100
AcDbSymbolTable
70
1
0
BLOCK_RECORD
5
1F
100
AcDbSymbolTableRecord
100
AcDbBlockTableRecord
2
*MODEL_SPACE
0
BLOCK_RECORD
5
1B
100
AcDbSymbolTableRecord
100
AcDbBlockTableRecord
2
*PAPER_SPACE
0
ENDTAB
0
ENDSEC
0
SECTION
2
BLOCKS
0
BLOCK
5
20
100
AcDbEntity
100
AcDbBlockBegin
2
*MODEL_SPACE
0
ENDBLK
5
21
100
AcDbEntity
100
AcDbBlockEnd
0
BLOCK
5
1C
100
AcDbEntity
100
AcDbBlockBegin
2
*PAPER_SPACE
0
ENDBLK
5
1D
100
AcDbEntity
100
AcDbBlockEnd
0
ENDSEC
0
SECTION
2
ENTITIES
0
LWPOLYLINE
5
100
100
AcDbEntity
8
OUTER_PROFILES
100
AcDbPolyline
90
28
70
1
43
0.0
10
-3.9910275769375496
20
-2.4938708154532114
42
-0.41421356237309537
10
-4.4400106819733027
20
-2.3902148981476681
10
-4.8123796497573341
20
-1.7942999814595084
42
-0.41421356237309614
10
-4.708723732451789
20
-1.3453168764237546
10
1.3987061727561026e-15
20
1.5970202705934553
10
0.97366467105847077
20
1.5970202705934493
42
-0.41421356237309798
10
1.0261946710584704
20
1.5444902705934491
10
1.026194671058468
20
0.49348000000000086
42
0.4142135623730987
10
1.0896746710584686
20
0.43000000000000066
10
1.3627146710584694
20
0.43000000000000027
42
0.41421356237309098
10
1.4261946710584683
20
0.49348000000000009
10
1.4261946710584712
20
1.5444902705934496
42
-0.41421356237309798
10
1.4787246710584721
20
1.59702027059345
10
6.8069046710584757
20
1.5970202705934489
42
-0.41421356237308721
10
6.8594346710584739
20
1.5444902705934491
10
6.8594346710584739
20
0.4934799999999942
42
0.41421356237310109
10
6.9229146710584759
20
0.42999999999999433
10
7.1959546710584759
20
0.42999999999999433
42
0.41421356237309503
10
7.2594346710584743
20
0.49347999999999431
10
7.2594346710584761
20
1.5444902705934491
42
-0.41421356237308915
10
7.3119646710584743
20
1.5970202705934495
10
8.2856293421169429
20
1.5970202705934489
10
12.99435307456873
20
-1.3453168764237684
42
-0.41421356237309315
10
13.098008991874272
20
-1.7942999814595211
10
12.725640024090241
20
-2.3902148981476792
42
-0.41421356237309598
10
12.276656919054487
20
-2.4938708154532239
10
8.2856293421169429
20
-6.2941777774024621e-15
10
0
20
0
0
CIRCLE
5
101
100
AcDbEntity
8
INTERIOR_PROFILES
100
AcDbCircle
10
-12.504631114337412
20
-2.1761341533040608
30
0
40
0.08267716535433102
210
0
220
0
230
-1
0
CIRCLE
5
102
100
AcDbEntity
8
INTERIOR_PROFILES
100
AcDbCircle
10
-12.0428924834727
20
-1.8876078342841465
30
0
40
0.08267716535433102
210
0
220
0
230
-1
0
CIRCLE
5
103
100
AcDbEntity
8
INTERIOR_PROFILES
100
AcDbCircle
10
-12.418024958415023
20
-1.8010016783617446
30
0
40
0.19685039370078769
210
0
220
0
230
-1
0
CIRCLE
5
104
100
AcDbEntity
8
INTERIOR_PROFILES
100
AcDbCircle
10
-12.331418802492614
20
-1.4258692034194345
30
0
40
0.082677165354330923
210
0
220
0
230
-1
0
CIRCLE
5
105
100
AcDbEntity
8
INTERIOR_PROFILES
100
AcDbCircle
10
-12.793157433357338
20
-1.7143955224393466
30
0
40
0.082677165354330021
210
0
220
0
230
-1
0
CIRCLE
5
106
100
AcDbEntity
8
INTERIOR_PROFILES
100
AcDbCircle
10
3.6983901484587869
20
-1.9011997356603922
30
0
40
0.082677165354330423
210
0
220
0
230
-1
0
CIRCLE
5
107
100
AcDbEntity
8
INTERIOR_PROFILES
100
AcDbCircle
10
4.5664010841372944
20
-1.7008036210630855
30
0
40
0.082677165354330256
210
0
220
0
230
-1
0
CIRCLE
5
108
100
AcDbEntity
8
INTERIOR_PROFILES
100
AcDbCircle
10
4.1323956162980418
20
-1.8010016783617391
30
0
40
0.19685039370078733
210
0
220
0
230
-1
0
CIRCLE
5
109
100
AcDbEntity
8
INTERIOR_PROFILES
100
AcDbCircle
10
4.2325936735966945
20
-2.2350071462009931
30
0
40
0.082677165354330423
210
0
220
0
230
-1
0
CIRCLE
5
110
100
AcDbEntity
8
INTERIOR_PROFILES
100
AcDbCircle
10
4.0321975589993881
20
-1.3669962105224851
30
0
40
0.082677165354330423
210
0
220
0
230
-1
0
LINE
5
111
100
AcDbEntity
8
BEND
100
AcDbLine
10
0.11309733552923244
20
-6.9935308637805131e-16
30
1.7016189447779475e-15
11
0.11309733552923525
21
1.5970202705934555
31
1.5778161729923578e-15
0
LINE
5
112
100
AcDbEntity
8
BEND
100
AcDbLine
10
8.1725320065877103
20
1.5970202705934495
30
2.0497341620053719e-15
11
8.1725320065877103
21
-6.6438543205914872e-15
31
2.4481722485947785e-15
0
LINE
5
113
100
AcDbEntity
8
BEND_EXTENT
100
AcDbLine
10
8.2856293421169429
20
1.5970202705934489
30
2.2867819022269533e-15
11
8.2856293421169429
21
-6.2941777774024621e-15
31
1.5874288158489018e-15
0
LINE
5
114
100
AcDbEntity
8
BEND_EXTENT
100
AcDbLine
10
1.3987061727561026e-15
20
1.5970202705934553
30
6.9935308637805131e-16
11
0
21
0
31
0
0
LINE
5
115
100
AcDbEntity
8
BEND_EXTENT
100
AcDbLine
10
0.22619467105846769
20
-1.049029629567077e-15
30
1.4038582323538775e-15
11
0.22619467105846908
21
1.5970202705934555
31
3.5482860278680068e-16
0
LINE
5
116
100
AcDbEntity
8
BEND_EXTENT
100
AcDbLine
10
8.0594346710584759
20
-6.6438543205914872e-15
30
8.8292366987307552e-16
11
8.0594346710584741
21
1.5970202705934495
31
1.8357058349502422e-16
0
ENDSEC
0
SECTION
2
OBJECTS
0
DICTIONARY
5
C
100
AcDbDictionary
3
ACAD_GROUP
350
D
3
ACAD_MLINESTYLE
350
17
0
DICTIONARY
5
D
100
AcDbDictionary
0
DICTIONARY
5
1A
330
C
100
AcDbDictionary
0
DICTIONARY
5
17
100
AcDbDictionary
0
ENDSEC
0
EOF
