0
SECTION
2
HEADER
9
$INSUNITS
70
1
9
$ACADVER
1
AC1014
9
$HANDSEED
5
FFFF
0
ENDSEC
0
SECTION
2
TABLES
0
TABLE
2
VPORT
5
8
100
AcDbSymbolTable
0
ENDTAB
0
TABLE
2
LTYPE
5
5
100
AcDbSymbolTable
0
LTYPE
5
14
100
AcDbSymbolTableRecord
100
AcDbLinetypeTableRecord
2
BYBLOCK
70
0
0
LTYPE
5
15
100
AcDbSymbolTableRecord
100
AcDbLinetypeTableRecord
2
BYLAYER
70
0
0
ENDTAB
0
TABLE
2
LAYER
5
2
100
AcDbSymbolTable
70
2
0
LAYER
5
50
100
AcDbSymbolTableRecord
100
AcDbLayerTableRecord
2
0
70
0
6
CONTINUOUS
0
ENDTAB
0
TABLE
2
STYLE
5
3
100
AcDbSymbolTable
70
1
0
STYLE
5
11
100
AcDbSymbolTableRecord
100
AcDbTextStyleTableRecord
2
STANDARD
70
0
0
ENDTAB
0
TABLE
2
VIEW
5
6
100
AcDbSymbolTable
70
0
0
ENDTAB
0
TABLE
2
UCS
5
7
100
AcDbSymbolTable
70
0
0
ENDTAB
0
TABLE
2
APPID
5
9
100
AcDbSymbolTable
70
2
0
APPID
5
12
100
AcDbSymbolTableRecord
100
AcDbRegAppTableRecord
2
ACAD
70
0
0
ENDTAB
0
TABLE
2
DIMSTYLE
5
A
100
AcDbSymbolTable
70
1
0
ENDTAB
0
TABLE
2
BLOCK_RECORD
5
1
100
AcDbSymbolTable
70
1
0
BLOCK_RECORD
5
1F
100
AcDbSymbolTableRecord
100
AcDbBlockTableRecord
2
*MODEL_SPACE
0
BLOCK_RECORD
5
1B
100
AcDbSymbolTableRecord
100
AcDbBlockTableRecord
2
*PAPER_SPACE
0
ENDTAB
0
ENDSEC
0
SECTION
2
BLOCKS
0
BLOCK
5
20
100
AcDbEntity
100
AcDbBlockBegin
2
*MODEL_SPACE
0
ENDBLK
5
21
100
AcDbEntity
100
AcDbBlockEnd
0
BLOCK
5
1C
100
AcDbEntity
100
AcDbBlockBegin
2
*PAPER_SPACE
0
ENDBLK
5
1D
100
AcDbEntity
100
AcDbBlockEnd
0
ENDSEC
0
SECTION
2
ENTITIES
0
CIRCLE
5
100
100
AcDbEntity
8
0
100
AcDbCircle
10
-0.49882285154148415
20
1.354000031659037
30
0
40
0.10999999999999995
210
3.6734198463196485e-40
220
3.7092629765128145e-40
230
1
0
CIRCLE
5
101
100
AcDbEntity
8
0
100
AcDbCircle
10
-1.4988228515414836
20
1.354000031659037
30
0
40
0.10999999999999995
210
3.6734198463196485e-40
220
3.7092629765128145e-40
230
1
0
CIRCLE
5
102
100
AcDbEntity
8
0
100
AcDbCircle
10
-0.99882285154148398
20
-1.6250000319142963
30
0
40
0.11000000000000031
210
3.6734198463196485e-40
220
3.7092629765128129e-40
230
1
0
CIRCLE
5
103
100
AcDbEntity
8
0
100
AcDbCircle
10
-4.3113228515415027
20
-0.81641453151164523
30
0
40
0.11000000000000031
210
3.6734198463196485e-40
220
3.7092629765128129e-40
230
1
0
CIRCLE
5
104
100
AcDbEntity
8
0
100
AcDbCircle
10
1.5011771484585157
20
-1.6250000319142963
30
0
40
0.11000000000000031
210
3.6734198463196485e-40
220
3.7092629765128129e-40
230
1
0
CIRCLE
5
105
100
AcDbEntity
8
0
100
AcDbCircle
10
-3.4988228515414836
20
-1.6250000319142963
30
0
40
0.11000000000000031
210
3.6734198463196485e-40
220
3.7092629765128129e-40
230
1
0
CIRCLE
5
106
100
AcDbEntity
8
0
100
AcDbCircle
10
2.3136771484585346
20
-0.81641453151164523
30
0
40
0.11000000000000031
210
3.6734198463196485e-40
220
3.7092629765128129e-40
230
1
0
CIRCLE
5
107
100
AcDbEntity
8
0
100
AcDbCircle
10
2.3136771484585164
20
3.9288041252821855
30
0
40
0.11000000000000031
210
7.3468396926392969e-40
220
1.3049063499543907e-55
230
1
0
CIRCLE
5
108
100
AcDbEntity
8
0
100
AcDbCircle
10
-3.1738228515414821
20
-0.0039145156183318817
30
0
40
0.099999999999999811
210
1.0047883832398326e-39
220
-1.6543612251060557e-24
230
1
0
CIRCLE
5
109
100
AcDbEntity
8
0
100
AcDbCircle
10
-2.6738228515414826
20
-0.0039145156183317993
30
0
40
0.10000000000000017
210
1.0047883832398324e-39
220
-1.6543612251060553e-24
230
1
0
CIRCLE
5
110
100
AcDbEntity
8
0
100
AcDbCircle
10
-4.3113228515414992
20
0.75000000000000033
30
0
40
0.11000000000000031
210
7.3468396926392969e-40
220
1.3049063499543907e-55
230
1
0
CIRCLE
5
111
100
AcDbEntity
8
0
100
AcDbCircle
10
2.3136771484585239
20
2.3394020626410921
30
0
40
0.11000000000000031
210
7.3468396926392969e-40
220
1.3049063499543907e-55
230
1
0
LWPOLYLINE
5
112
100
AcDbEntity
8
0
100
AcDbPolyline
90
4
70
1
43
0.0
10
-2.0313228515414821
20
1.7500000000000007
10
-2.0313228515414821
20
1.2400000000000004
10
-2.5413228515414827
20
1.24
10
-2.5413228515414827
20
1.7500000000000007
0
CIRCLE
5
113
100
AcDbEntity
8
0
100
AcDbCircle
10
2.3136771484585319
20
0.75000000000000189
30
0
40
0.11000000000000031
210
7.3468396926392969e-40
220
1.3049063499543907e-55
230
1
0
CIRCLE
5
114
100
AcDbEntity
8
0
100
AcDbCircle
10
-4.3113228515414921
20
2.3394020626410903
30
0
40
0.11000000000000031
210
7.3468396926392969e-40
220
1.3049063499543907e-55
230
1
0
CIRCLE
5
115
100
AcDbEntity
8
0
100
AcDbCircle
10
1.1761771484585151
20
-0.0039145156183307888
30
0
40
0.099999999999999811
210
1.0047883832398326e-39
220
-1.6543612251060557e-24
230
1
0
CIRCLE
5
116
100
AcDbEntity
8
0
100
AcDbCircle
10
-4.3113228515414859
20
3.9288041252821833
30
0
40
0.11000000000000031
210
7.3468396926392969e-40
220
1.3049063499543907e-55
230
1
0
CIRCLE
5
117
100
AcDbEntity
8
0
100
AcDbCircle
10
0.67617714845851529
20
-0.0039145156183309302
30
0
40
0.10000000000000017
210
1.0047883832398324e-39
220
-1.6543612251060553e-24
230
1
0
CIRCLE
5
118
100
AcDbEntity
8
0
100
AcDbCircle
10
1.6761771484585148
20
-0.0039145156183306457
30
0
40
0.099999999999999811
210
1.0047883832398326e-39
220
-1.6543612251060557e-24
230
1
0
CIRCLE
5
119
100
AcDbEntity
8
0
100
AcDbCircle
10
-2.2838228515414825
20
2.3394020626410921
30
0
40
0.11000000000000031
210
7.3468396926392969e-40
220
1.3049063499543907e-55
230
1
0
CIRCLE
5
120
100
AcDbEntity
8
0
100
AcDbCircle
10
0.286177148458514
20
2.339402062641093
30
0
40
0.11000000000000031
210
7.3468396926392969e-40
220
1.3049063499543907e-55
230
1
0
LWPOLYLINE
5
121
100
AcDbEntity
8
0
100
AcDbPolyline
90
4
70
1
43
0.0
10
0.033677148458514501
20
1.2400000000000007
10
0.033677148458514071
20
1.7500000000000013
10
0.543677148458514
20
1.7500000000000018
10
0.54367714845851445
20
1.2400000000000011
0
CIRCLE
5
122
100
AcDbEntity
8
0
100
AcDbCircle
10
-2.2813228515414834
20
3.9288041252821833
30
0
40
0.10999999999999995
210
7.3468396926392969e-40
220
1.3049063499543909e-55
230
1
0
CIRCLE
5
123
100
AcDbEntity
8
0
100
AcDbCircle
10
-3.6738228515414821
20
-0.0039145156183319632
30
0
40
0.099999999999999811
210
1.0047883832398326e-39
220
-1.6543612251060557e-24
230
1
0
CIRCLE
5
124
100
AcDbEntity
8
0
100
AcDbCircle
10
0.28367714845851427
20
3.9288041252821841
30
0
40
0.10999999999999995
210
7.3468396926392969e-40
220
1.3049063499543909e-55
230
1
0
LWPOLYLINE
5
125
100
AcDbEntity
8
0
100
AcDbPolyline
90
54
70
1
43
0.0
10
0.033677148458514224
20
2.9288041252821833
10
0.03367714845851652
20
2.8091975990942175
42
-0.14000246332563385
10
0.013417039197176382
20
2.7382595717415783
42
0.009101174463186
10
-0.4119134651326728
20
2.0257822237980387
42
-0.26891646550227583
10
-0.62886953490304776
20
1.900000031659038
10
-1.36877616817992
20
1.9000000316590377
42
-0.26891646550225307
10
-1.5857322379502794
20
2.0257822237980241
42
0.0091011744631760861
10
-2.0110627422801466
20
2.7382595717415734
42
-0.14000246332563951
10
-2.0313228515414847
20
2.809197599094218
10
-2.0313228515414821
20
2.9288041252821819
10
-2.531322851541483
20
2.9288041252821828
10
-2.531322851541483
20
3.4288041252821824
10
-2.0313228515414825
20
3.4288041252821815
10
-2.0313228515414838
20
4.4288041252821824
10
-2.5313228515414838
20
4.4288041252821824
10
-2.5313228515414843
20
5.6768041252821817
10
-4.061322851541485
20
5.6768041250269174
10
-4.061322851541485
20
4.4288041252821815
10
-4.5613228515414832
20
4.4288041252821815
10
-4.5613228515414939
20
3.4288041252821837
10
-4.0613228515414814
20
3.4288041252821824
10
-4.0613228515414814
20
2.9288041252821824
10
-4.5613228515414939
20
2.9288041252821824
10
-4.5613228515415081
20
1.7499999999999971
10
-4.0613228515414841
20
1.7499999999999971
10
-4.0613228515414841
20
1.2499999999999991
10
-4.5613228515415072
20
1.2499999999999987
10
-4.5613228515415241
20
0.25000000000000061
10
-4.0613228515414841
20
0.25000000000000061
10
-4.0613228515414841
20
-0.25782903123662082
10
-4.5613228515415249
20
-0.25782903098135918
10
-4.5613228515415276
20
-1.8750000319142972
10
2.5636771484585599
20
-1.8750000319142959
10
2.5636771484585577
20
-0.25782903098135768
10
2.0636771484585159
20
-0.2578290312366191
10
2.0636771484585159
20
0.25000000000000233
10
2.5636771484585563
20
0.25000000000000244
10
2.5636771484585403
20
1.2500000000000004
10
2.0636771484585155
20
1.2500000000000004
10
2.0636771484585155
20
1.7499999999999987
10
2.5636771484585399
20
1.7499999999999987
10
2.5636771484585248
20
2.9288041252821841
10
2.0636771484585137
20
2.9288041252821841
10
2.0636771484585137
20
3.428804125282185
10
2.5636771484585257
20
3.4288041252821841
10
2.5636771484585137
20
4.4288041252821833
10
2.0636771484585146
20
4.4288041252821833
10
2.0636771484585141
20
5.6768041250269201
10
0.53367714845851411
20
5.6768041252821826
10
0.53367714845851444
20
4.4288041252821833
10
0.033677148458514709
20
4.4288041252821833
10
0.033677148458514147
20
3.4288041252821828
10
0.53367714845851433
20
3.4288041252821815
10
0.53367714845851444
20
2.9288041252821833
0
ENDSEC
0
SECTION
2
OBJECTS
0
DICTIONARY
5
C
100
AcDbDictionary
3
ACAD_GROUP
350
D
3
ACAD_MLINESTYLE
350
17
0
DICTIONARY
5
D
100
AcDbDictionary
0
DICTIONARY
5
1A
330
C
100
AcDbDictionary
0
DICTIONARY
5
17
100
AcDbDictionary
0
ENDSEC
0
EOF
