  0
SECTION
  2
HEADER
  9
$ACADVER
  1
AC1015
  9
$ACADMAINTVER
 70
     6
  9
$DWGCODEPAGE
  3
ANSI_1252
  9
$INSBASE
 10
0.0
 20
0.0
 30
0.0
  9
$EXTMIN
 10
-0.75
 20
0.375
 30
0.0
  9
$EXTMAX
 10
7.6410864624
 20
2.5
 30
0.0
  9
$LIMMIN
 10
0.0
 20
0.0
  9
$LIMMAX
 10
12.0
 20
9.0
  9
$ORTHOMODE
 70
     0
  9
$REGENMODE
 70
     1
  9
$FILLMODE
 70
     1
  9
$QTEXTMODE
 70
     0
  9
$MIRRTEXT
 70
     1
  9
$LTSCALE
 40
1.0
  9
$ATTMODE
 70
     1
  9
$TEXTSIZE
 40
0.125
  9
$TRACEWID
 40
0.05
  9
$TEXTSTYLE
  7
Standard
  9
$CLAYER
  8
0
  9
$CELTYPE
  6
ByLayer
  9
$CECOLOR
 62
   256
  9
$CELTSCALE
 40
1.0
  9
$DISPSILH
 70
     0
  9
$DIMSCALE
 40
1.0
  9
$DIMASZ
 40
0.13
  9
$DIMEXO
 40
0.0
  9
$DIMDLI
 40
0.38
  9
$DIMRND
 40
0.0
  9
$DIMDLE
 40
0.0
  9
$DIMEXE
 40
0.125
  9
$DIMTP
 40
0.0
  9
$DIMTM
 40
0.0
  9
$DIMTXT
 40
0.125
  9
$DIMCEN
 40
0.09
  9
$DIMTSZ
 40
0.0
  9
$DIMTOL
 70
     0
  9
$DIMLIM
 70
     0
  9
$DIMTIH
 70
     1
  9
$DIMTOH
 70
     1
  9
$DIMSE1
 70
     0
  9
$DIMSE2
 70
     0
  9
$DIMTAD
 70
     0
  9
$DIMZIN
 70
     0
  9
$DIMBLK
  1

  9
$DIMASO
 70
     1
  9
$DIMSHO
 70
     1
  9
$DIMPOST
  1

  9
$DIMAPOST
  1

  9
$DIMALT
 70
     0
  9
$DIMALTD
 70
     2
  9
$DIMALTF
 40
25.4
  9
$DIMLFAC
 40
1.0
  9
$DIMTOFL
 70
     0
  9
$DIMTVP
 40
0.0
  9
$DIMTIX
 70
     0
  9
$DIMSOXD
 70
     0
  9
$DIMSAH
 70
     0
  9
$DIMBLK1
  1

  9
$DIMBLK2
  1

  9
$DIMSTYLE
  2
Standard
  9
$DIMCLRD
 70
     0
  9
$DIMCLRE
 70
     0
  9
$DIMCLRT
 70
     0
  9
$DIMTFAC
 40
1.0
  9
$DIMGAP
 40
0.06
  9
$DIMJUST
 70
     0
  9
$DIMSD1
 70
     0
  9
$DIMSD2
 70
     0
  9
$DIMTOLJ
 70
     1
  9
$DIMTZIN
 70
     0
  9
$DIMALTZ
 70
     0
  9
$DIMALTTZ
 70
     0
  9
$DIMUPT
 70
     0
  9
$DIMDEC
 70
     3
  9
$DIMTDEC
 70
     3
  9
$DIMALTU
 70
     2
  9
$DIMALTTD
 70
     2
  9
$DIMTXSTY
  7
Standard
  9
$DIMAUNIT
 70
     0
  9
$DIMADEC
 70
     2
  9
$DIMALTRND
 40
0.0
  9
$DIMAZIN
 70
     0
  9
$DIMDSEP
 70
    46
  9
$DIMATFIT
 70
     3
  9
$DIMFRAC
 70
     0
  9
$DIMLDRBLK
  1

  9
$DIMLUNIT
 70
     2
  9
$DIMLWD
 70
    -2
  9
$DIMLWE
 70
    -2
  9
$DIMTMOVE
 70
     0
  9
$LUNITS
 70
     2
  9
$LUPREC
 70
     6
  9
$SKETCHINC
 40
0.1
  9
$FILLETRAD
 40
0.0
  9
$AUNITS
 70
     0
  9
$AUPREC
 70
     2
  9
$MENU
  1
.
  9
$ELEVATION
 40
0.0
  9
$PELEVATION
 40
0.0
  9
$THICKNESS
 40
0.0
  9
$LIMCHECK
 70
     0
  9
$CHAMFERA
 40
0.0
  9
$CHAMFERB
 40
0.0
  9
$CHAMFERC
 40
0.0
  9
$CHAMFERD
 40
0.0
  9
$SKPOLY
 70
     0
  9
$TDCREATE
 40
2460186.862651389
  9
$TDUCREATE
 40
2460187.029318056
  9
$TDUPDATE
 40
2460186.862681331
  9
$TDUUPDATE
 40
2460187.029347998
  9
$TDINDWG
 40
0.0000000116
  9
$TDUSRTIMER
 40
0.0000000116
  9
$USRTIMER
 70
     1
  9
$ANGBASE
 50
0.0
  9
$ANGDIR
 70
     0
  9
$PDMODE
 70
     0
  9
$PDSIZE
 40
-1.0
  9
$PLINEWID
 40
0.0
  9
$SPLFRAME
 70
     0
  9
$SPLINETYPE
 70
     6
  9
$SPLINESEGS
 70
     8
  9
$HANDSEED
  5
3C2
  9
$SURFTAB1
 70
     6
  9
$SURFTAB2
 70
     6
  9
$SURFTYPE
 70
     6
  9
$SURFU
 70
     6
  9
$SURFV
 70
     6
  9
$UCSBASE
  2

  9
$UCSNAME
  2

  9
$UCSORG
 10
0.0
 20
0.0
 30
0.0
  9
$UCSXDIR
 10
1.0
 20
0.0
 30
0.0
  9
$UCSYDIR
 10
0.0
 20
1.0
 30
0.0
  9
$UCSORTHOREF
  2

  9
$UCSORTHOVIEW
 70
     0
  9
$UCSORGTOP
 10
0.0
 20
0.0
 30
0.0
  9
$UCSORGBOTTOM
 10
0.0
 20
0.0
 30
0.0
  9
$UCSORGLEFT
 10
0.0
 20
0.0
 30
0.0
  9
$UCSORGRIGHT
 10
0.0
 20
0.0
 30
0.0
  9
$UCSORGFRONT
 10
0.0
 20
0.0
 30
0.0
  9
$UCSORGBACK
 10
0.0
 20
0.0
 30
0.0
  9
$PUCSBASE
  2

  9
$PUCSNAME
  2

  9
$PUCSORG
 10
0.0
 20
0.0
 30
0.0
  9
$PUCSXDIR
 10
1.0
 20
0.0
 30
0.0
  9
$PUCSYDIR
 10
0.0
 20
1.0
 30
0.0
  9
$PUCSORTHOREF
  2

  9
$PUCSORTHOVIEW
 70
     0
  9
$PUCSORGTOP
 10
0.0
 20
0.0
 30
0.0
  9
$PUCSORGBOTTOM
 10
0.0
 20
0.0
 30
0.0
  9
$PUCSORGLEFT
 10
0.0
 20
0.0
 30
0.0
  9
$PUCSORGRIGHT
 10
0.0
 20
0.0
 30
0.0
  9
$PUCSORGFRONT
 10
0.0
 20
0.0
 30
0.0
  9
$PUCSORGBACK
 10
0.0
 20
0.0
 30
0.0
  9
$USERI1
 70
     0
  9
$USERI2
 70
     0
  9
$USERI3
 70
     0
  9
$USERI4
 70
     0
  9
$USERI5
 70
     0
  9
$USERR1
 40
0.0
  9
$USERR2
 40
0.0
  9
$USERR3
 40
0.0
  9
$USERR4
 40
0.0
  9
$USERR5
 40
0.0
  9
$WORLDVIEW
 70
     1
  9
$SHADEDGE
 70
     3
  9
$SHADEDIF
 70
    70
  9
$TILEMODE
 70
     1
  9
$MAXACTVP
 70
    64
  9
$PINSBASE
 10
0.0
 20
0.0
 30
0.0
  9
$PLIMCHECK
 70
     0
  9
$PEXTMIN
 10
1.0000000000E+20
 20
1.0000000000E+20
 30
1.0000000000E+20
  9
$PEXTMAX
 10
-1.0000000000E+20
 20
-1.0000000000E+20
 30
-1.0000000000E+20
  9
$PLIMMIN
 10
0.0
 20
0.0
  9
$PLIMMAX
 10
12.0
 20
9.0
  9
$UNITMODE
 70
     0
  9
$VISRETAIN
 70
     1
  9
$PLINEGEN
 70
     0
  9
$PSLTSCALE
 70
     1
  9
$TREEDEPTH
 70
  3020
  9
$CMLSTYLE
  2
Standard
  9
$CMLJUST
 70
     0
  9
$CMLSCALE
 40
1.0
  9
$PROXYGRAPHICS
 70
     1
  9
$MEASUREMENT
 70
     0
  9
$CELWEIGHT
370
    -1
  9
$ENDCAPS
280
     0
  9
$JOINSTYLE
280
     0
  9
$LWDISPLAY
290
     1
  9
$INSUNITS
 70
     1
  9
$HYPERLINKBASE
  1

  9
$STYLESHEET
  1

  9
$XEDIT
290
     1
  9
$CEPSNTYPE
380
     0
  9
$PSTYLEMODE
290
     1
  9
$FINGERPRINTGUID
  2
{2309db4a-b68b-43c8-99ee-429419fe0d93}
  9
$VERSIONGUID
  2
{FAEB1C32-E019-11D5-929B-00C0DF256EC4}
  9
$EXTNAMES
290
     1
  9
$PSVPSCALE
 40
0.0
  9
$OLESTARTUP
290
     0
  0
ENDSEC
  0
SECTION
  2
CLASSES
  0
CLASS
  1
ACDBDICTIONARYWDFLT
  2
AcDbDictionaryWithDefault
  3
ObjectDBX Classes
 90
        0
280
     0
281
     0
  0
CLASS
  1
VISUALSTYLE
  2
AcDbVisualStyle
  3
ObjectDBX Classes
 90
     4095
280
     0
281
     0
  0
CLASS
  1
MATERIAL
  2
AcDbMaterial
  3
ObjectDBX Classes
 90
     1153
280
     0
281
     0
  0
CLASS
  1
SCALE
  2
AcDbScale
  3
ObjectDBX Classes
 90
     1153
280
     0
281
     0
  0
CLASS
  1
TABLESTYLE
  2
AcDbTableStyle
  3
ObjectDBX Classes
 90
     4095
280
     0
281
     0
  0
CLASS
  1
MLEADERSTYLE
  2
AcDbMLeaderStyle
  3
ACDB_MLEADERSTYLE_CLASS
 90
     4095
280
     0
281
     0
  0
CLASS
  1
SUN
  2
AcDbSun
  3
SCENEOE
 90
     1153
280
     0
281
     0
  0
CLASS
  1
ACDBPLACEHOLDER
  2
AcDbPlaceHolder
  3
ObjectDBX Classes
 90
        0
280
     0
281
     0
  0
CLASS
  1
LAYOUT
  2
AcDbLayout
  3
ObjectDBX Classes
 90
        0
280
     0
281
     0
  0
ENDSEC
  0
SECTION
  2
TABLES
  0
TABLE
  2
VPORT
  5
8
330
0
100
AcDbSymbolTable
 70
     1
  0
VPORT
  5
29
330
8
100
AcDbSymbolTableRecord
100
AcDbViewportTableRecord
  2
*Active
 70
     0
 10
0.0
 20
0.0
 11
1.0
 21
1.0
 12
3.4455432312
 22
1.4375
 13
0.0
 23
0.0
 14
0.5
 24
0.5
 15
0.5
 25
0.5
 16
0.0
 26
0.0
 36
1.0
 17
0.0
 27
0.0
 37
0.0
 40
2.1675
 41
3.9487465706
 42
50.0
 43
0.0
 44
0.0
 50
0.0
 51
0.0
 71
     0
 72
   100
 73
     1
 74
     3
 75
     0
 76
     0
 77
     0
 78
     0
281
     0
 65
     1
110
0.0
120
0.0
130
0.0
111
1.0
121
0.0
131
0.0
112
0.0
122
1.0
132
0.0
 79
     0
146
0.0
  0
ENDTAB
  0
TABLE
  2
LTYPE
  5
5
330
0
100
AcDbSymbolTable
 70
     6
  0
LTYPE
  5
14
330
5
100
AcDbSymbolTableRecord
100
AcDbLinetypeTableRecord
  2
ByBlock
 70
     0
  3

 72
    65
 73
     0
 40
0.0
  0
LTYPE
  5
15
330
5
100
AcDbSymbolTableRecord
100
AcDbLinetypeTableRecord
  2
ByLayer
 70
     0
  3

 72
    65
 73
     0
 40
0.0
  0
LTYPE
  5
16
330
5
100
AcDbSymbolTableRecord
100
AcDbLinetypeTableRecord
  2
Continuous
 70
     0
  3
Solid line
 72
    65
 73
     0
 40
0.0
  0
LTYPE
  5
5E
330
5
100
AcDbSymbolTableRecord
100
AcDbLinetypeTableRecord
  2
HIDDEN
 70
     0
  3
Hidden __ __ __ __ __ __ __ __ __ __ __ __ __ __
 72
    65
 73
     2
 40
0.075
 49
0.05
 74
     0
 49
-0.025
 74
     0
  0
LTYPE
  5
5F
330
5
100
AcDbSymbolTableRecord
100
AcDbLinetypeTableRecord
  2
PHANTOM
 70
     0
  3
Phantom ______  __  __  ______  __  __  ______
 72
    65
 73
     6
 40
0.5
 49
0.25
 74
     0
 49
-0.05
 74
     0
 49
0.05
 74
     0
 49
-0.05
 74
     0
 49
0.05
 74
     0
 49
-0.05
 74
     0
  0
LTYPE
  5
60
330
5
100
AcDbSymbolTableRecord
100
AcDbLinetypeTableRecord
  2
CENTER
 70
     0
  3
Center ____ _ ____ _ ____ _ ____ _ ____ _ ____
 72
    65
 73
     4
 40
0.4
 49
0.25
 74
     0
 49
-0.05
 74
     0
 49
0.05
 74
     0
 49
-0.05
 74
     0
  0
LTYPE
  5
61
330
5
100
AcDbSymbolTableRecord
100
AcDbLinetypeTableRecord
  2
CENTERX2
 70
     0
  3
Center (2x) ________  __  ________  __  _____
 72
    65
 73
     4
 40
0.8
 49
0.5
 74
     0
 49
-0.1
 74
     0
 49
0.1
 74
     0
 49
-0.1
 74
     0
  0
LTYPE
  5
62
330
5
100
AcDbSymbolTableRecord
100
AcDbLinetypeTableRecord
  2
DOT2
 70
     0
  3
Dot (.5x) ........................................
 72
    65
 73
     2
 40
0.025
 49
0.0
 74
     0
 49
-0.025
 74
     0
  0
ENDTAB
  0
TABLE
  2
LAYER
  5
2
330
0
100
AcDbSymbolTable
 70
     1
  0
LAYER
  5
10
330
2
100
AcDbSymbolTableRecord
100
AcDbLayerTableRecord
  2
0
 70
     0
 62
     7
  6
Continuous
370
    -3
390
F
  0
ENDTAB
  0
TABLE
  2
STYLE
  5
3
330
0
100
AcDbSymbolTable
 70
     2
  0
STYLE
  5
11
330
3
100
AcDbSymbolTableRecord
100
AcDbTextStyleTableRecord
  2
Standard
 70
     0
 40
0.0
 41
1.0
 50
0.0
 71
     0
 42
0.125
  3
txt
  4

  0
STYLE
  5
3BE
330
3
100
AcDbSymbolTableRecord
100
AcDbTextStyleTableRecord
  2
SLDTEXTSTYLE0
 70
     0
 40
0.0
 41
0.7
 50
0.0
 71
     0
 42
0.125
  3
TXT
  4

  0
ENDTAB
  0
TABLE
  2
VIEW
  5
6
330
0
100
AcDbSymbolTable
 70
     0
  0
ENDTAB
  0
TABLE
  2
UCS
  5
7
330
0
100
AcDbSymbolTable
 70
     0
  0
ENDTAB
  0
TABLE
  2
APPID
  5
9
330
0
100
AcDbSymbolTable
 70
     1
  0
APPID
  5
12
330
9
100
AcDbSymbolTableRecord
100
AcDbRegAppTableRecord
  2
ACAD
 70
     0
  0
ENDTAB
  0
TABLE
  2
DIMSTYLE
  5
A
330
0
100
AcDbSymbolTable
 70
     1
100
AcDbDimStyleTable
  0
DIMSTYLE
105
27
330
A
100
AcDbSymbolTableRecord
100
AcDbDimStyleTableRecord
  2
Standard
 70
     0
178
     0
340
11
  0
ENDTAB
  0
TABLE
  2
BLOCK_RECORD
  5
1
330
0
100
AcDbSymbolTable
 70
     1
  0
BLOCK_RECORD
  5
1F
330
1
100
AcDbSymbolTableRecord
100
AcDbBlockTableRecord
  2
*Model_Space
340
22
  0
BLOCK_RECORD
  5
1B
330
1
100
AcDbSymbolTableRecord
100
AcDbBlockTableRecord
  2
*Paper_Space
340
1E
  0
BLOCK_RECORD
  5
23
330
1
100
AcDbSymbolTableRecord
100
AcDbBlockTableRecord
  2
*Paper_Space0
340
26
  0
ENDTAB
  0
ENDSEC
  0
SECTION
  2
BLOCKS
  0
BLOCK
  5
20
330
1F
100
AcDbEntity
  8
0
100
AcDbBlockBegin
  2
*Model_Space
 70
     0
 10
0.0
 20
0.0
 30
0.0
  3
*Model_Space
  1

  0
ENDBLK
  5
21
330
1F
100
AcDbEntity
  8
0
100
AcDbBlockEnd
  0
BLOCK
  5
1C
330
1B
100
AcDbEntity
 67
     1
  8
0
100
AcDbBlockBegin
  2
*Paper_Space
 70
     0
 10
0.0
 20
0.0
 30
0.0
  3
*Paper_Space
  1

  0
ENDBLK
  5
1D
330
1B
100
AcDbEntity
 67
     1
  8
0
100
AcDbBlockEnd
  0
BLOCK
  5
24
330
23
100
AcDbEntity
  8
0
100
AcDbBlockBegin
  2
*Paper_Space0
 70
     0
 10
0.0
 20
0.0
 30
0.0
  3
*Paper_Space0
  1

  0
ENDBLK
  5
25
330
23
100
AcDbEntity
  8
0
100
AcDbBlockEnd
  0
ENDSEC
  0
SECTION
  2
ENTITIES
  0
CIRCLE
  5
19B
330
1F
100
AcDbEntity
  8
0
  6
Continuous
 62
     7
370
    25
100
AcDbCircle
 10
5.675
 20
2.3125
 30
0.0
 40
0.0979999999999999
  0
CIRCLE
  5
19C
330
1F
100
AcDbEntity
  8
0
  6
Continuous
 62
     7
370
    25
100
AcDbCircle
 10
4.125
 20
2.3125
 30
0.0
 40
0.0980000000000008
  0
CIRCLE
  5
19D
330
1F
100
AcDbEntity
  8
0
  6
Continuous
 62
     7
370
    25
100
AcDbCircle
 10
5.4853059167
 20
1.0
 30
0.0
 40
0.1284999999999981
  0
CIRCLE
  5
1E3
330
1F
100
AcDbEntity
  8
0
  6
Continuous
 62
     7
370
    25
100
AcDbCircle
 10
5.8853059167
 20
1.0
 30
0.0
 40
0.0745000000000013
  0
CIRCLE
  5
1E4
330
1F
100
AcDbEntity
  8
0
  6
Continuous
 62
     7
370
    25
100
AcDbCircle
 10
5.0853059167
 20
1.0
 30
0.0
 40
0.0744999999999996
  0
CIRCLE
  5
1E5
330
1F
100
AcDbEntity
  8
0
  6
Continuous
 62
     7
370
    25
100
AcDbCircle
 10
6.3
 20
1.0
 30
0.0
 40
0.0979999999999999
  0
CIRCLE
  5
1E6
330
1F
100
AcDbEntity
  8
0
  6
Continuous
 62
     7
370
    25
100
AcDbCircle
 10
0.6
 20
0.65
 30
0.0
 40
0.0749999999999997
  0
CIRCLE
  5
1E7
330
1F
100
AcDbEntity
  8
0
  6
Continuous
 62
     7
370
    25
100
AcDbCircle
 10
-0.6
 20
0.65
 30
0.0
 40
0.0750000000000001
  0
CIRCLE
  5
1E8
330
1F
100
AcDbEntity
  8
0
  6
Continuous
 62
     7
370
    25
100
AcDbCircle
 10
-0.6
 20
1.85
 30
0.0
 40
0.075
  0
CIRCLE
  5
1E9
330
1F
100
AcDbEntity
  8
0
  6
Continuous
 62
     7
370
    25
100
AcDbCircle
 10
0.6
 20
1.85
 30
0.0
 40
0.0749999999999998
  0
CIRCLE
  5
1EA
330
1F
100
AcDbEntity
  8
0
  6
Continuous
 62
     7
370
    25
100
AcDbCircle
 10
2.4404016506
 20
1.75
 30
0.0
 40
0.1004999999999998
  0
CIRCLE
  5
1EB
330
1F
100
AcDbEntity
  8
0
  6
Continuous
 62
     7
370
    25
100
AcDbCircle
 10
2.4404016506
 20
0.75
 30
0.0
 40
0.1005000000000003
  0
CIRCLE
  5
1EC
330
1F
100
AcDbEntity
  8
0
  6
Continuous
 62
     7
370
    25
100
AcDbCircle
 10
3.7461113072
 20
1.0792660718
 30
0.0
 40
0.1004999999999998
  0
CIRCLE
  5
1ED
330
1F
100
AcDbEntity
  8
0
  6
Continuous
 62
     7
370
    25
100
AcDbCircle
 10
1.7481852767
 20
1.1703241668
 30
0.0
 40
0.1004999999999998
  0
CIRCLE
  5
1EE
330
1F
100
AcDbEntity
  8
0
  6
Continuous
 62
     7
370
    25
100
AcDbCircle
 10
7.175410102
 20
0.7064717697
 30
0.0
 40
0.1004999999999967
  0
CIRCLE
  5
1EF
330
1F
100
AcDbEntity
  8
0
  6
Continuous
 62
     7
370
    25
100
AcDbCircle
 10
6.8138420716
 20
1.1373717689
 30
0.0
 40
0.1004999999999994
  0
CIRCLE
  5
20F
330
1F
100
AcDbEntity
  8
0
  6
Continuous
 62
     7
370
    25
100
AcDbCircle
 10
0.0
 20
1.25
 30
0.0
 40
0.4380708661417325
  0
LINE
  5
219
330
1F
100
AcDbEntity
  8
0
  6
Continuous
 62
     7
370
    25
100
AcDbLine
 10
5.6
 20
2.0294228634
 30
0.0
 11
5.525
 21
1.9861215932
 31
0.0
  0
LINE
  5
21A
330
1F
100
AcDbEntity
  8
0
  6
Continuous
 62
     7
370
    25
100
AcDbLine
 10
5.5
 20
1.942820323
 30
0.0
 11
5.5
 21
1.8562177826
 31
0.0
  0
LINE
  5
21B
330
1F
100
AcDbEntity
  8
0
  6
Continuous
 62
     7
370
    25
100
AcDbLine
 10
5.525
 20
1.8129165125
 30
0.0
 11
5.6
 21
1.7696152423
 31
0.0
  0
LINE
  5
21C
330
1F
100
AcDbEntity
  8
0
  6
Continuous
 62
     7
370
    25
100
AcDbLine
 10
5.65
 20
1.7696152423
 30
0.0
 11
5.725
 21
1.8129165125
 31
0.0
  0
LINE
  5
21D
330
1F
100
AcDbEntity
  8
0
  6
Continuous
 62
     7
370
    25
100
AcDbLine
 10
5.75
 20
1.8562177826
 30
0.0
 11
5.75
 21
1.942820323
 31
0.0
  0
LINE
  5
21E
330
1F
100
AcDbEntity
  8
0
  6
Continuous
 62
     7
370
    25
100
AcDbLine
 10
5.725
 20
1.9861215932
 30
0.0
 11
5.65
 21
2.0294228634
 31
0.0
  0
LINE
  5
21F
330
1F
100
AcDbEntity
  8
0
  6
Continuous
 62
     7
370
    25
100
AcDbLine
 10
5.4125
 20
1.704663337
 30
0.0
 11
5.3375
 21
1.6613620668
 31
0.0
  0
LINE
  5
220
330
1F
100
AcDbEntity
  8
0
  6
Continuous
 62
     7
370
    25
100
AcDbLine
 10
5.3125
 20
1.6180607966
 30
0.0
 11
5.3125
 21
1.5314582562
 31
0.0
  0
LINE
  5
221
330
1F
100
AcDbEntity
  8
0
  6
Continuous
 62
     7
370
    25
100
AcDbLine
 10
5.3375
 20
1.488156986
 30
0.0
 11
5.4125
 21
1.4448557159
 31
0.0
  0
LINE
  5
222
330
1F
100
AcDbEntity
  8
0
  6
Continuous
 62
     7
370
    25
100
AcDbLine
 10
5.4625
 20
1.4448557159
 30
0.0
 11
5.5375
 21
1.488156986
 31
0.0
  0
LINE
  5
223
330
1F
100
AcDbEntity
  8
0
  6
Continuous
 62
     7
370
    25
100
AcDbLine
 10
5.5625
 20
1.5314582562
 30
0.0
 11
5.5625
 21
1.6180607966
 31
0.0
  0
LINE
  5
224
330
1F
100
AcDbEntity
  8
0
  6
Continuous
 62
     7
370
    25
100
AcDbLine
 10
5.5375
 20
1.6613620668
 30
0.0
 11
5.4625
 21
1.704663337
 31
0.0
  0
LINE
  5
225
330
1F
100
AcDbEntity
  8
0
  6
Continuous
 62
     7
370
    25
100
AcDbLine
 10
5.225
 20
2.0294228634
 30
0.0
 11
5.15
 21
1.9861215932
 31
0.0
  0
LINE
  5
226
330
1F
100
AcDbEntity
  8
0
  6
Continuous
 62
     7
370
    25
100
AcDbLine
 10
5.125
 20
1.942820323
 30
0.0
 11
5.125
 21
1.8562177826
 31
0.0
  0
LINE
  5
227
330
1F
100
AcDbEntity
  8
0
  6
Continuous
 62
     7
370
    25
100
AcDbLine
 10
5.15
 20
1.8129165125
 30
0.0
 11
5.225
 21
1.7696152423
 31
0.0
  0
LINE
  5
228
330
1F
100
AcDbEntity
  8
0
  6
Continuous
 62
     7
370
    25
100
AcDbLine
 10
5.275
 20
1.7696152423
 30
0.0
 11
5.35
 21
1.8129165125
 31
0.0
  0
LINE
  5
229
330
1F
100
AcDbEntity
  8
0
  6
Continuous
 62
     7
370
    25
100
AcDbLine
 10
5.375
 20
1.8562177826
 30
0.0
 11
5.375
 21
1.942820323
 31
0.0
  0
LINE
  5
22A
330
1F
100
AcDbEntity
  8
0
  6
Continuous
 62
     7
370
    25
100
AcDbLine
 10
5.35
 20
1.9861215932
 30
0.0
 11
5.275
 21
2.0294228634
 31
0.0
  0
LINE
  5
22B
330
1F
100
AcDbEntity
  8
0
  6
Continuous
 62
     7
370
    25
100
AcDbLine
 10
5.0375
 20
1.704663337
 30
0.0
 11
4.9625
 21
1.6613620668
 31
0.0
  0
LINE
  5
22C
330
1F
100
AcDbEntity
  8
0
  6
Continuous
 62
     7
370
    25
100
AcDbLine
 10
4.9375
 20
1.6180607966
 30
0.0
 11
4.9375
 21
1.5314582562
 31
0.0
  0
LINE
  5
22D
330
1F
100
AcDbEntity
  8
0
  6
Continuous
 62
     7
370
    25
100
AcDbLine
 10
4.9625
 20
1.488156986
 30
0.0
 11
5.0375
 21
1.4448557159
 31
0.0
  0
LINE
  5
22E
330
1F
100
AcDbEntity
  8
0
  6
Continuous
 62
     7
370
    25
100
AcDbLine
 10
5.0875
 20
1.4448557159
 30
0.0
 11
5.1625
 21
1.488156986
 31
0.0
  0
LINE
  5
22F
330
1F
100
AcDbEntity
  8
0
  6
Continuous
 62
     7
370
    25
100
AcDbLine
 10
5.1875
 20
1.5314582562
 30
0.0
 11
5.1875
 21
1.6180607966
 31
0.0
  0
LINE
  5
230
330
1F
100
AcDbEntity
  8
0
  6
Continuous
 62
     7
370
    25
100
AcDbLine
 10
5.1625
 20
1.6613620668
 30
0.0
 11
5.0875
 21
1.704663337
 31
0.0
  0
LINE
  5
231
330
1F
100
AcDbEntity
  8
0
  6
Continuous
 62
     7
370
    25
100
AcDbLine
 10
4.85
 20
1.3799038106
 30
0.0
 11
4.775
 21
1.3366025404
 31
0.0
  0
LINE
  5
232
330
1F
100
AcDbEntity
  8
0
  6
Continuous
 62
     7
370
    25
100
AcDbLine
 10
4.75
 20
1.2933012702
 30
0.0
 11
4.75
 21
1.2066987298
 31
0.0
  0
LINE
  5
233
330
1F
100
AcDbEntity
  8
0
  6
Continuous
 62
     7
370
    25
100
AcDbLine
 10
4.775
 20
1.1633974596
 30
0.0
 11
4.85
 21
1.1200961894
 31
0.0
  0
LINE
  5
234
330
1F
100
AcDbEntity
  8
0
  6
Continuous
 62
     7
370
    25
100
AcDbLine
 10
4.9
 20
1.1200961894
 30
0.0
 11
4.975
 21
1.1633974596
 31
0.0
  0
LINE
  5
235
330
1F
100
AcDbEntity
  8
0
  6
Continuous
 62
     7
370
    25
100
AcDbLine
 10
5.0
 20
1.2066987298
 30
0.0
 11
5.0
 21
1.2933012702
 31
0.0
  0
LINE
  5
236
330
1F
100
AcDbEntity
  8
0
  6
Continuous
 62
     7
370
    25
100
AcDbLine
 10
4.975
 20
1.3366025404
 30
0.0
 11
4.9
 21
1.3799038106
 31
0.0
  0
LINE
  5
237
330
1F
100
AcDbEntity
  8
0
  6
Continuous
 62
     7
370
    25
100
AcDbLine
 10
4.6625
 20
1.0551442841
 30
0.0
 11
4.5875
 21
1.011843014
 31
0.0
  0
LINE
  5
238
330
1F
100
AcDbEntity
  8
0
  6
Continuous
 62
     7
370
    25
100
AcDbLine
 10
4.5625
 20
0.9685417438
 30
0.0
 11
4.5625
 21
0.8819392034
 31
0.0
  0
LINE
  5
239
330
1F
100
AcDbEntity
  8
0
  6
Continuous
 62
     7
370
    25
100
AcDbLine
 10
4.5875
 20
0.8386379332
 30
0.0
 11
4.6625
 21
0.795336663
 31
0.0
  0
LINE
  5
23A
330
1F
100
AcDbEntity
  8
0
  6
Continuous
 62
     7
370
    25
100
AcDbLine
 10
4.7125
 20
0.795336663
 30
0.0
 11
4.7875
 21
0.8386379332
 31
0.0
  0
LINE
  5
23B
330
1F
100
AcDbEntity
  8
0
  6
Continuous
 62
     7
370
    25
100
AcDbLine
 10
4.8125
 20
0.8819392034
 30
0.0
 11
4.8125
 21
0.9685417438
 31
0.0
  0
LINE
  5
23C
330
1F
100
AcDbEntity
  8
0
  6
Continuous
 62
     7
370
    25
100
AcDbLine
 10
4.7875
 20
1.011843014
 30
0.0
 11
4.7125
 21
1.0551442841
 31
0.0
  0
LINE
  5
23D
330
1F
100
AcDbEntity
  8
0
  6
Continuous
 62
     7
370
    25
100
AcDbLine
 10
5.0375
 20
2.3541823898
 30
0.0
 11
4.9625
 21
2.3108811196
 31
0.0
  0
LINE
  5
23E
330
1F
100
AcDbEntity
  8
0
  6
Continuous
 62
     7
370
    25
100
AcDbLine
 10
4.9375
 20
2.2675798494
 30
0.0
 11
4.9375
 21
2.1809773091
 31
0.0
  0
LINE
  5
23F
330
1F
100
AcDbEntity
  8
0
  6
Continuous
 62
     7
370
    25
100
AcDbLine
 10
4.9625
 20
2.1376760389
 30
0.0
 11
5.0375
 21
2.0943747687
 31
0.0
  0
LINE
  5
240
330
1F
100
AcDbEntity
  8
0
  6
Continuous
 62
     7
370
    25
100
AcDbLine
 10
5.0875
 20
2.0943747687
 30
0.0
 11
5.1625
 21
2.1376760389
 31
0.0
  0
LINE
  5
241
330
1F
100
AcDbEntity
  8
0
  6
Continuous
 62
     7
370
    25
100
AcDbLine
 10
5.1875
 20
2.1809773091
 30
0.0
 11
5.1875
 21
2.2675798494
 31
0.0
  0
LINE
  5
242
330
1F
100
AcDbEntity
  8
0
  6
Continuous
 62
     7
370
    25
100
AcDbLine
 10
5.1625
 20
2.3108811196
 30
0.0
 11
5.0875
 21
2.3541823898
 31
0.0
  0
LINE
  5
243
330
1F
100
AcDbEntity
  8
0
  6
Continuous
 62
     7
370
    25
100
AcDbLine
 10
4.85
 20
2.0294228634
 30
0.0
 11
4.775
 21
1.9861215932
 31
0.0
  0
LINE
  5
244
330
1F
100
AcDbEntity
  8
0
  6
Continuous
 62
     7
370
    25
100
AcDbLine
 10
4.75
 20
1.942820323
 30
0.0
 11
4.75
 21
1.8562177826
 31
0.0
  0
LINE
  5
245
330
1F
100
AcDbEntity
  8
0
  6
Continuous
 62
     7
370
    25
100
AcDbLine
 10
4.775
 20
1.8129165125
 30
0.0
 11
4.85
 21
1.7696152423
 31
0.0
  0
LINE
  5
246
330
1F
100
AcDbEntity
  8
0
  6
Continuous
 62
     7
370
    25
100
AcDbLine
 10
4.9
 20
1.7696152423
 30
0.0
 11
4.975
 21
1.8129165125
 31
0.0
  0
LINE
  5
247
330
1F
100
AcDbEntity
  8
0
  6
Continuous
 62
     7
370
    25
100
AcDbLine
 10
5.0
 20
1.8562177826
 30
0.0
 11
5.0
 21
1.942820323
 31
0.0
  0
LINE
  5
248
330
1F
100
AcDbEntity
  8
0
  6
Continuous
 62
     7
370
    25
100
AcDbLine
 10
4.975
 20
1.9861215932
 30
0.0
 11
4.9
 21
2.0294228634
 31
0.0
  0
LINE
  5
249
330
1F
100
AcDbEntity
  8
0
  6
Continuous
 62
     7
370
    25
100
AcDbLine
 10
4.6625
 20
1.704663337
 30
0.0
 11
4.5875
 21
1.6613620668
 31
0.0
  0
LINE
  5
24A
330
1F
100
AcDbEntity
  8
0
  6
Continuous
 62
     7
370
    25
100
AcDbLine
 10
4.5625
 20
1.6180607966
 30
0.0
 11
4.5625
 21
1.5314582562
 31
0.0
  0
LINE
  5
24B
330
1F
100
AcDbEntity
  8
0
  6
Continuous
 62
     7
370
    25
100
AcDbLine
 10
4.5875
 20
1.488156986
 30
0.0
 11
4.6625
 21
1.4448557159
 31
0.0
  0
LINE
  5
24C
330
1F
100
AcDbEntity
  8
0
  6
Continuous
 62
     7
370
    25
100
AcDbLine
 10
4.7125
 20
1.4448557159
 30
0.0
 11
4.7875
 21
1.488156986
 31
0.0
  0
LINE
  5
24D
330
1F
100
AcDbEntity
  8
0
  6
Continuous
 62
     7
370
    25
100
AcDbLine
 10
4.8125
 20
1.5314582562
 30
0.0
 11
4.8125
 21
1.6180607966
 31
0.0
  0
LINE
  5
24E
330
1F
100
AcDbEntity
  8
0
  6
Continuous
 62
     7
370
    25
100
AcDbLine
 10
4.7875
 20
1.6613620668
 30
0.0
 11
4.7125
 21
1.704663337
 31
0.0
  0
LINE
  5
24F
330
1F
100
AcDbEntity
  8
0
  6
Continuous
 62
     7
370
    25
100
AcDbLine
 10
4.475
 20
1.3799038106
 30
0.0
 11
4.4
 21
1.3366025404
 31
0.0
  0
LINE
  5
250
330
1F
100
AcDbEntity
  8
0
  6
Continuous
 62
     7
370
    25
100
AcDbLine
 10
4.375
 20
1.2933012702
 30
0.0
 11
4.375
 21
1.2066987298
 31
0.0
  0
LINE
  5
251
330
1F
100
AcDbEntity
  8
0
  6
Continuous
 62
     7
370
    25
100
AcDbLine
 10
4.4
 20
1.1633974596
 30
0.0
 11
4.475
 21
1.1200961894
 31
0.0
  0
LINE
  5
252
330
1F
100
AcDbEntity
  8
0
  6
Continuous
 62
     7
370
    25
100
AcDbLine
 10
4.525
 20
1.1200961894
 30
0.0
 11
4.6
 21
1.1633974596
 31
0.0
  0
LINE
  5
253
330
1F
100
AcDbEntity
  8
0
  6
Continuous
 62
     7
370
    25
100
AcDbLine
 10
4.625
 20
1.2066987298
 30
0.0
 11
4.625
 21
1.2933012702
 31
0.0
  0
LINE
  5
254
330
1F
100
AcDbEntity
  8
0
  6
Continuous
 62
     7
370
    25
100
AcDbLine
 10
4.6
 20
1.3366025404
 30
0.0
 11
4.525
 21
1.3799038106
 31
0.0
  0
LINE
  5
255
330
1F
100
AcDbEntity
  8
0
  6
Continuous
 62
     7
370
    25
100
AcDbLine
 10
4.2875
 20
1.0551442841
 30
0.0
 11
4.2125
 21
1.011843014
 31
0.0
  0
LINE
  5
256
330
1F
100
AcDbEntity
  8
0
  6
Continuous
 62
     7
370
    25
100
AcDbLine
 10
4.1875
 20
0.9685417438
 30
0.0
 11
4.1875
 21
0.8819392034
 31
0.0
  0
LINE
  5
257
330
1F
100
AcDbEntity
  8
0
  6
Continuous
 62
     7
370
    25
100
AcDbLine
 10
4.2125
 20
0.8386379332
 30
0.0
 11
4.2875
 21
0.795336663
 31
0.0
  0
LINE
  5
258
330
1F
100
AcDbEntity
  8
0
  6
Continuous
 62
     7
370
    25
100
AcDbLine
 10
4.3375
 20
0.795336663
 30
0.0
 11
4.4125
 21
0.8386379332
 31
0.0
  0
LINE
  5
259
330
1F
100
AcDbEntity
  8
0
  6
Continuous
 62
     7
370
    25
100
AcDbLine
 10
4.4375
 20
0.8819392034
 30
0.0
 11
4.4375
 21
0.9685417438
 31
0.0
  0
LINE
  5
25A
330
1F
100
AcDbEntity
  8
0
  6
Continuous
 62
     7
370
    25
100
AcDbLine
 10
4.4125
 20
1.011843014
 30
0.0
 11
4.3375
 21
1.0551442841
 31
0.0
  0
LINE
  5
25B
330
1F
100
AcDbEntity
  8
0
  6
Continuous
 62
     7
370
    25
100
AcDbLine
 10
4.6625
 20
2.3541823898
 30
0.0
 11
4.5875
 21
2.3108811196
 31
0.0
  0
LINE
  5
25C
330
1F
100
AcDbEntity
  8
0
  6
Continuous
 62
     7
370
    25
100
AcDbLine
 10
4.5625
 20
2.2675798494
 30
0.0
 11
4.5625
 21
2.1809773091
 31
0.0
  0
LINE
  5
25D
330
1F
100
AcDbEntity
  8
0
  6
Continuous
 62
     7
370
    25
100
AcDbLine
 10
4.5875
 20
2.1376760389
 30
0.0
 11
4.6625
 21
2.0943747687
 31
0.0
  0
LINE
  5
25E
330
1F
100
AcDbEntity
  8
0
  6
Continuous
 62
     7
370
    25
100
AcDbLine
 10
4.7125
 20
2.0943747687
 30
0.0
 11
4.7875
 21
2.1376760389
 31
0.0
  0
LINE
  5
25F
330
1F
100
AcDbEntity
  8
0
  6
Continuous
 62
     7
370
    25
100
AcDbLine
 10
4.8125
 20
2.1809773091
 30
0.0
 11
4.8125
 21
2.2675798494
 31
0.0
  0
LINE
  5
260
330
1F
100
AcDbEntity
  8
0
  6
Continuous
 62
     7
370
    25
100
AcDbLine
 10
4.7875
 20
2.3108811196
 30
0.0
 11
4.7125
 21
2.3541823898
 31
0.0
  0
LINE
  5
261
330
1F
100
AcDbEntity
  8
0
  6
Continuous
 62
     7
370
    25
100
AcDbLine
 10
4.475
 20
2.0294228634
 30
0.0
 11
4.4
 21
1.9861215932
 31
0.0
  0
LINE
  5
262
330
1F
100
AcDbEntity
  8
0
  6
Continuous
 62
     7
370
    25
100
AcDbLine
 10
4.375
 20
1.942820323
 30
0.0
 11
4.375
 21
1.8562177826
 31
0.0
  0
LINE
  5
263
330
1F
100
AcDbEntity
  8
0
  6
Continuous
 62
     7
370
    25
100
AcDbLine
 10
4.4
 20
1.8129165125
 30
0.0
 11
4.475
 21
1.7696152423
 31
0.0
  0
LINE
  5
264
330
1F
100
AcDbEntity
  8
0
  6
Continuous
 62
     7
370
    25
100
AcDbLine
 10
4.525
 20
1.7696152423
 30
0.0
 11
4.6
 21
1.8129165125
 31
0.0
  0
LINE
  5
265
330
1F
100
AcDbEntity
  8
0
  6
Continuous
 62
     7
370
    25
100
AcDbLine
 10
4.625
 20
1.8562177826
 30
0.0
 11
4.625
 21
1.942820323
 31
0.0
  0
LINE
  5
266
330
1F
100
AcDbEntity
  8
0
  6
Continuous
 62
     7
370
    25
100
AcDbLine
 10
4.6
 20
1.9861215932
 30
0.0
 11
4.525
 21
2.0294228634
 31
0.0
  0
LINE
  5
267
330
1F
100
AcDbEntity
  8
0
  6
Continuous
 62
     7
370
    25
100
AcDbLine
 10
4.2875
 20
1.704663337
 30
0.0
 11
4.2125
 21
1.6613620668
 31
0.0
  0
LINE
  5
268
330
1F
100
AcDbEntity
  8
0
  6
Continuous
 62
     7
370
    25
100
AcDbLine
 10
4.1875
 20
1.6180607966
 30
0.0
 11
4.1875
 21
1.5314582562
 31
0.0
  0
LINE
  5
269
330
1F
100
AcDbEntity
  8
0
  6
Continuous
 62
     7
370
    25
100
AcDbLine
 10
4.2125
 20
1.488156986
 30
0.0
 11
4.2875
 21
1.4448557159
 31
0.0
  0
LINE
  5
26A
330
1F
100
AcDbEntity
  8
0
  6
Continuous
 62
     7
370
    25
100
AcDbLine
 10
4.3375
 20
1.4448557159
 30
0.0
 11
4.4125
 21
1.488156986
 31
0.0
  0
LINE
  5
26B
330
1F
100
AcDbEntity
  8
0
  6
Continuous
 62
     7
370
    25
100
AcDbLine
 10
4.4375
 20
1.5314582562
 30
0.0
 11
4.4375
 21
1.6180607966
 31
0.0
  0
LINE
  5
26C
330
1F
100
AcDbEntity
  8
0
  6
Continuous
 62
     7
370
    25
100
AcDbLine
 10
4.4125
 20
1.6613620668
 30
0.0
 11
4.3375
 21
1.704663337
 31
0.0
  0
LINE
  5
26D
330
1F
100
AcDbEntity
  8
0
  6
Continuous
 62
     7
370
    25
100
AcDbLine
 10
4.1
 20
1.3799038106
 30
0.0
 11
4.025
 21
1.3366025404
 31
0.0
  0
LINE
  5
26E
330
1F
100
AcDbEntity
  8
0
  6
Continuous
 62
     7
370
    25
100
AcDbLine
 10
4.0
 20
1.2933012702
 30
0.0
 11
4.0
 21
1.2066987298
 31
0.0
  0
LINE
  5
26F
330
1F
100
AcDbEntity
  8
0
  6
Continuous
 62
     7
370
    25
100
AcDbLine
 10
4.025
 20
1.1633974596
 30
0.0
 11
4.1
 21
1.1200961894
 31
0.0
  0
LINE
  5
270
330
1F
100
AcDbEntity
  8
0
  6
Continuous
 62
     7
370
    25
100
AcDbLine
 10
4.15
 20
1.1200961894
 30
0.0
 11
4.225
 21
1.1633974596
 31
0.0
  0
LINE
  5
271
330
1F
100
AcDbEntity
  8
0
  6
Continuous
 62
     7
370
    25
100
AcDbLine
 10
4.25
 20
1.2066987298
 30
0.0
 11
4.25
 21
1.2933012702
 31
0.0
  0
LINE
  5
272
330
1F
100
AcDbEntity
  8
0
  6
Continuous
 62
     7
370
    25
100
AcDbLine
 10
4.225
 20
1.3366025404
 30
0.0
 11
4.15
 21
1.3799038106
 31
0.0
  0
LINE
  5
273
330
1F
100
AcDbEntity
  8
0
  6
Continuous
 62
     7
370
    25
100
AcDbLine
 10
4.1
 20
2.0294228634
 30
0.0
 11
4.025
 21
1.9861215932
 31
0.0
  0
LINE
  5
274
330
1F
100
AcDbEntity
  8
0
  6
Continuous
 62
     7
370
    25
100
AcDbLine
 10
4.0
 20
1.942820323
 30
0.0
 11
4.0
 21
1.8562177826
 31
0.0
  0
LINE
  5
275
330
1F
100
AcDbEntity
  8
0
  6
Continuous
 62
     7
370
    25
100
AcDbLine
 10
4.025
 20
1.8129165125
 30
0.0
 11
4.1
 21
1.7696152423
 31
0.0
  0
LINE
  5
276
330
1F
100
AcDbEntity
  8
0
  6
Continuous
 62
     7
370
    25
100
AcDbLine
 10
4.15
 20
1.7696152423
 30
0.0
 11
4.225
 21
1.8129165125
 31
0.0
  0
LINE
  5
277
330
1F
100
AcDbEntity
  8
0
  6
Continuous
 62
     7
370
    25
100
AcDbLine
 10
4.25
 20
1.8562177826
 30
0.0
 11
4.25
 21
1.942820323
 31
0.0
  0
LINE
  5
278
330
1F
100
AcDbEntity
  8
0
  6
Continuous
 62
     7
370
    25
100
AcDbLine
 10
4.225
 20
1.9861215932
 30
0.0
 11
4.15
 21
2.0294228634
 31
0.0
  0
LINE
  5
279
330
1F
100
AcDbEntity
  8
0
  6
Continuous
 62
     7
370
    25
100
AcDbLine
 10
3.35
 20
1.3799038106
 30
0.0
 11
3.275
 21
1.3366025404
 31
0.0
  0
LINE
  5
27A
330
1F
100
AcDbEntity
  8
0
  6
Continuous
 62
     7
370
    25
100
AcDbLine
 10
3.25
 20
1.2933012702
 30
0.0
 11
3.25
 21
1.2066987298
 31
0.0
  0
LINE
  5
27B
330
1F
100
AcDbEntity
  8
0
  6
Continuous
 62
     7
370
    25
100
AcDbLine
 10
3.275
 20
1.1633974596
 30
0.0
 11
3.35
 21
1.1200961894
 31
0.0
  0
LINE
  5
27C
330
1F
100
AcDbEntity
  8
0
  6
Continuous
 62
     7
370
    25
100
AcDbLine
 10
3.4
 20
1.1200961894
 30
0.0
 11
3.475
 21
1.1633974596
 31
0.0
  0
LINE
  5
27D
330
1F
100
AcDbEntity
  8
0
  6
Continuous
 62
     7
370
    25
100
AcDbLine
 10
3.5
 20
1.2066987298
 30
0.0
 11
3.5
 21
1.2933012702
 31
0.0
  0
LINE
  5
27E
330
1F
100
AcDbEntity
  8
0
  6
Continuous
 62
     7
370
    25
100
AcDbLine
 10
3.475
 20
1.3366025404
 30
0.0
 11
3.4
 21
1.3799038106
 31
0.0
  0
LINE
  5
27F
330
1F
100
AcDbEntity
  8
0
  6
Continuous
 62
     7
370
    25
100
AcDbLine
 10
3.1625
 20
1.0551442841
 30
0.0
 11
3.0875
 21
1.011843014
 31
0.0
  0
LINE
  5
280
330
1F
100
AcDbEntity
  8
0
  6
Continuous
 62
     7
370
    25
100
AcDbLine
 10
3.0625
 20
0.9685417438
 30
0.0
 11
3.0625
 21
0.8819392034
 31
0.0
  0
LINE
  5
281
330
1F
100
AcDbEntity
  8
0
  6
Continuous
 62
     7
370
    25
100
AcDbLine
 10
3.0875
 20
0.8386379332
 30
0.0
 11
3.1625
 21
0.795336663
 31
0.0
  0
LINE
  5
282
330
1F
100
AcDbEntity
  8
0
  6
Continuous
 62
     7
370
    25
100
AcDbLine
 10
3.2125
 20
0.795336663
 30
0.0
 11
3.2875
 21
0.8386379332
 31
0.0
  0
LINE
  5
283
330
1F
100
AcDbEntity
  8
0
  6
Continuous
 62
     7
370
    25
100
AcDbLine
 10
3.3125
 20
0.8819392034
 30
0.0
 11
3.3125
 21
0.9685417438
 31
0.0
  0
LINE
  5
284
330
1F
100
AcDbEntity
  8
0
  6
Continuous
 62
     7
370
    25
100
AcDbLine
 10
3.2875
 20
1.011843014
 30
0.0
 11
3.2125
 21
1.0551442841
 31
0.0
  0
LINE
  5
285
330
1F
100
AcDbEntity
  8
0
  6
Continuous
 62
     7
370
    25
100
AcDbLine
 10
3.35
 20
2.0294228634
 30
0.0
 11
3.275
 21
1.9861215932
 31
0.0
  0
LINE
  5
286
330
1F
100
AcDbEntity
  8
0
  6
Continuous
 62
     7
370
    25
100
AcDbLine
 10
3.25
 20
1.942820323
 30
0.0
 11
3.25
 21
1.8562177826
 31
0.0
  0
LINE
  5
287
330
1F
100
AcDbEntity
  8
0
  6
Continuous
 62
     7
370
    25
100
AcDbLine
 10
3.275
 20
1.8129165125
 30
0.0
 11
3.35
 21
1.7696152423
 31
0.0
  0
LINE
  5
288
330
1F
100
AcDbEntity
  8
0
  6
Continuous
 62
     7
370
    25
100
AcDbLine
 10
3.4
 20
1.7696152423
 30
0.0
 11
3.475
 21
1.8129165125
 31
0.0
  0
LINE
  5
289
330
1F
100
AcDbEntity
  8
0
  6
Continuous
 62
     7
370
    25
100
AcDbLine
 10
3.5
 20
1.8562177826
 30
0.0
 11
3.5
 21
1.942820323
 31
0.0
  0
LINE
  5
28A
330
1F
100
AcDbEntity
  8
0
  6
Continuous
 62
     7
370
    25
100
AcDbLine
 10
3.475
 20
1.9861215932
 30
0.0
 11
3.4
 21
2.0294228634
 31
0.0
  0
LINE
  5
28B
330
1F
100
AcDbEntity
  8
0
  6
Continuous
 62
     7
370
    25
100
AcDbLine
 10
3.1625
 20
1.704663337
 30
0.0
 11
3.0875
 21
1.6613620668
 31
0.0
  0
LINE
  5
28C
330
1F
100
AcDbEntity
  8
0
  6
Continuous
 62
     7
370
    25
100
AcDbLine
 10
3.0625
 20
1.6180607966
 30
0.0
 11
3.0625
 21
1.5314582562
 31
0.0
  0
LINE
  5
28D
330
1F
100
AcDbEntity
  8
0
  6
Continuous
 62
     7
370
    25
100
AcDbLine
 10
3.0875
 20
1.488156986
 30
0.0
 11
3.1625
 21
1.4448557159
 31
0.0
  0
LINE
  5
28E
330
1F
100
AcDbEntity
  8
0
  6
Continuous
 62
     7
370
    25
100
AcDbLine
 10
3.2125
 20
1.4448557159
 30
0.0
 11
3.2875
 21
1.488156986
 31
0.0
  0
LINE
  5
28F
330
1F
100
AcDbEntity
  8
0
  6
Continuous
 62
     7
370
    25
100
AcDbLine
 10
3.3125
 20
1.5314582562
 30
0.0
 11
3.3125
 21
1.6180607966
 31
0.0
  0
LINE
  5
290
330
1F
100
AcDbEntity
  8
0
  6
Continuous
 62
     7
370
    25
100
AcDbLine
 10
3.2875
 20
1.6613620668
 30
0.0
 11
3.2125
 21
1.704663337
 31
0.0
  0
LINE
  5
291
330
1F
100
AcDbEntity
  8
0
  6
Continuous
 62
     7
370
    25
100
AcDbLine
 10
2.975
 20
1.3799038106
 30
0.0
 11
2.9
 21
1.3366025404
 31
0.0
  0
LINE
  5
292
330
1F
100
AcDbEntity
  8
0
  6
Continuous
 62
     7
370
    25
100
AcDbLine
 10
2.875
 20
1.2933012702
 30
0.0
 11
2.875
 21
1.2066987298
 31
0.0
  0
LINE
  5
293
330
1F
100
AcDbEntity
  8
0
  6
Continuous
 62
     7
370
    25
100
AcDbLine
 10
2.9
 20
1.1633974596
 30
0.0
 11
2.975
 21
1.1200961894
 31
0.0
  0
LINE
  5
294
330
1F
100
AcDbEntity
  8
0
  6
Continuous
 62
     7
370
    25
100
AcDbLine
 10
3.025
 20
1.1200961894
 30
0.0
 11
3.1
 21
1.1633974596
 31
0.0
  0
LINE
  5
295
330
1F
100
AcDbEntity
  8
0
  6
Continuous
 62
     7
370
    25
100
AcDbLine
 10
3.125
 20
1.2066987298
 30
0.0
 11
3.125
 21
1.2933012702
 31
0.0
  0
LINE
  5
296
330
1F
100
AcDbEntity
  8
0
  6
Continuous
 62
     7
370
    25
100
AcDbLine
 10
3.1
 20
1.3366025404
 30
0.0
 11
3.025
 21
1.3799038106
 31
0.0
  0
LINE
  5
297
330
1F
100
AcDbEntity
  8
0
  6
Continuous
 62
     7
370
    25
100
AcDbLine
 10
2.975
 20
2.0294228634
 30
0.0
 11
2.9
 21
1.9861215932
 31
0.0
  0
LINE
  5
298
330
1F
100
AcDbEntity
  8
0
  6
Continuous
 62
     7
370
    25
100
AcDbLine
 10
2.875
 20
1.942820323
 30
0.0
 11
2.875
 21
1.8562177826
 31
0.0
  0
LINE
  5
299
330
1F
100
AcDbEntity
  8
0
  6
Continuous
 62
     7
370
    25
100
AcDbLine
 10
2.9
 20
1.8129165125
 30
0.0
 11
2.975
 21
1.7696152423
 31
0.0
  0
LINE
  5
29A
330
1F
100
AcDbEntity
  8
0
  6
Continuous
 62
     7
370
    25
100
AcDbLine
 10
3.025
 20
1.7696152423
 30
0.0
 11
3.1
 21
1.8129165125
 31
0.0
  0
LINE
  5
29B
330
1F
100
AcDbEntity
  8
0
  6
Continuous
 62
     7
370
    25
100
AcDbLine
 10
3.125
 20
1.8562177826
 30
0.0
 11
3.125
 21
1.942820323
 31
0.0
  0
LINE
  5
29C
330
1F
100
AcDbEntity
  8
0
  6
Continuous
 62
     7
370
    25
100
AcDbLine
 10
3.1
 20
1.9861215932
 30
0.0
 11
3.025
 21
2.0294228634
 31
0.0
  0
LINE
  5
29D
330
1F
100
AcDbEntity
  8
0
  6
Continuous
 62
     7
370
    25
100
AcDbLine
 10
1.2875
 20
1.0551442841
 30
0.0
 11
1.2125
 21
1.011843014
 31
0.0
  0
LINE
  5
29E
330
1F
100
AcDbEntity
  8
0
  6
Continuous
 62
     7
370
    25
100
AcDbLine
 10
1.1875
 20
0.9685417438
 30
0.0
 11
1.1875
 21
0.8819392034
 31
0.0
  0
LINE
  5
29F
330
1F
100
AcDbEntity
  8
0
  6
Continuous
 62
     7
370
    25
100
AcDbLine
 10
1.2125
 20
0.8386379332
 30
0.0
 11
1.2875
 21
0.795336663
 31
0.0
  0
LINE
  5
2A0
330
1F
100
AcDbEntity
  8
0
  6
Continuous
 62
     7
370
    25
100
AcDbLine
 10
1.3375
 20
0.795336663
 30
0.0
 11
1.4125
 21
0.8386379332
 31
0.0
  0
LINE
  5
2A1
330
1F
100
AcDbEntity
  8
0
  6
Continuous
 62
     7
370
    25
100
AcDbLine
 10
1.4375
 20
0.8819392034
 30
0.0
 11
1.4375
 21
0.9685417438
 31
0.0
  0
LINE
  5
2A2
330
1F
100
AcDbEntity
  8
0
  6
Continuous
 62
     7
370
    25
100
AcDbLine
 10
1.4125
 20
1.011843014
 30
0.0
 11
1.3375
 21
1.0551442841
 31
0.0
  0
LINE
  5
2A3
330
1F
100
AcDbEntity
  8
0
  6
Continuous
 62
     7
370
    25
100
AcDbLine
 10
1.2875
 20
1.704663337
 30
0.0
 11
1.2125
 21
1.6613620668
 31
0.0
  0
LINE
  5
2A4
330
1F
100
AcDbEntity
  8
0
  6
Continuous
 62
     7
370
    25
100
AcDbLine
 10
1.1875
 20
1.6180607966
 30
0.0
 11
1.1875
 21
1.5314582562
 31
0.0
  0
LINE
  5
2A5
330
1F
100
AcDbEntity
  8
0
  6
Continuous
 62
     7
370
    25
100
AcDbLine
 10
1.2125
 20
1.488156986
 30
0.0
 11
1.2875
 21
1.4448557159
 31
0.0
  0
LINE
  5
2A6
330
1F
100
AcDbEntity
  8
0
  6
Continuous
 62
     7
370
    25
100
AcDbLine
 10
1.3375
 20
1.4448557159
 30
0.0
 11
1.4125
 21
1.488156986
 31
0.0
  0
LINE
  5
2A7
330
1F
100
AcDbEntity
  8
0
  6
Continuous
 62
     7
370
    25
100
AcDbLine
 10
1.4375
 20
1.5314582562
 30
0.0
 11
1.4375
 21
1.6180607966
 31
0.0
  0
LINE
  5
2A8
330
1F
100
AcDbEntity
  8
0
  6
Continuous
 62
     7
370
    25
100
AcDbLine
 10
1.4125
 20
1.6613620668
 30
0.0
 11
1.3375
 21
1.704663337
 31
0.0
  0
LINE
  5
2A9
330
1F
100
AcDbEntity
  8
0
  6
Continuous
 62
     7
370
    25
100
AcDbLine
 10
1.1
 20
1.3799038106
 30
0.0
 11
1.025
 21
1.3366025404
 31
0.0
  0
LINE
  5
2AA
330
1F
100
AcDbEntity
  8
0
  6
Continuous
 62
     7
370
    25
100
AcDbLine
 10
1.0
 20
1.2933012702
 30
0.0
 11
1.0
 21
1.2066987298
 31
0.0
  0
LINE
  5
2AB
330
1F
100
AcDbEntity
  8
0
  6
Continuous
 62
     7
370
    25
100
AcDbLine
 10
1.025
 20
1.1633974596
 30
0.0
 11
1.1
 21
1.1200961894
 31
0.0
  0
LINE
  5
2AC
330
1F
100
AcDbEntity
  8
0
  6
Continuous
 62
     7
370
    25
100
AcDbLine
 10
1.15
 20
1.1200961894
 30
0.0
 11
1.225
 21
1.1633974596
 31
0.0
  0
LINE
  5
2AD
330
1F
100
AcDbEntity
  8
0
  6
Continuous
 62
     7
370
    25
100
AcDbLine
 10
1.25
 20
1.2066987298
 30
0.0
 11
1.25
 21
1.2933012702
 31
0.0
  0
LINE
  5
2AE
330
1F
100
AcDbEntity
  8
0
  6
Continuous
 62
     7
370
    25
100
AcDbLine
 10
1.225
 20
1.3366025404
 30
0.0
 11
1.15
 21
1.3799038106
 31
0.0
  0
LINE
  5
2AF
330
1F
100
AcDbEntity
  8
0
  6
Continuous
 62
     7
370
    25
100
AcDbLine
 10
0.9125
 20
1.0551442841
 30
0.0
 11
0.8375
 21
1.011843014
 31
0.0
  0
LINE
  5
2B0
330
1F
100
AcDbEntity
  8
0
  6
Continuous
 62
     7
370
    25
100
AcDbLine
 10
0.8125
 20
0.9685417438
 30
0.0
 11
0.8125
 21
0.8819392034
 31
0.0
  0
LINE
  5
2B1
330
1F
100
AcDbEntity
  8
0
  6
Continuous
 62
     7
370
    25
100
AcDbLine
 10
0.8375
 20
0.8386379332
 30
0.0
 11
0.9125
 21
0.795336663
 31
0.0
  0
LINE
  5
2B2
330
1F
100
AcDbEntity
  8
0
  6
Continuous
 62
     7
370
    25
100
AcDbLine
 10
0.9625
 20
0.795336663
 30
0.0
 11
1.0375
 21
0.8386379332
 31
0.0
  0
LINE
  5
2B3
330
1F
100
AcDbEntity
  8
0
  6
Continuous
 62
     7
370
    25
100
AcDbLine
 10
1.0625
 20
0.8819392034
 30
0.0
 11
1.0625
 21
0.9685417438
 31
0.0
  0
LINE
  5
2B4
330
1F
100
AcDbEntity
  8
0
  6
Continuous
 62
     7
370
    25
100
AcDbLine
 10
1.0375
 20
1.011843014
 30
0.0
 11
0.9625
 21
1.0551442841
 31
0.0
  0
LINE
  5
2B5
330
1F
100
AcDbEntity
  8
0
  6
Continuous
 62
     7
370
    25
100
AcDbLine
 10
6.7322815178
 20
0.375
 30
0.0
 11
6.425
 21
0.375
 31
0.0
  0
LINE
  5
2B6
330
1F
100
AcDbEntity
  8
0
  6
Continuous
 62
     7
370
    25
100
AcDbLine
 10
6.375
 20
0.425
 30
0.0
 11
6.375
 21
0.4656306823
 31
0.0
  0
LINE
  5
2B7
330
1F
100
AcDbEntity
  8
0
  6
Continuous
 62
     7
370
    25
100
AcDbLine
 10
6.3406306823
 20
0.5
 30
0.0
 11
5.9093693177
 21
0.5
 31
0.0
  0
LINE
  5
2B8
330
1F
100
AcDbEntity
  8
0
  6
Continuous
 62
     7
370
    25
100
AcDbLine
 10
5.875
 20
0.425
 30
0.0
 11
5.875
 21
0.4656306823
 31
0.0
  0
LINE
  5
2B9
330
1F
100
AcDbEntity
  8
0
  6
Continuous
 62
     7
370
    25
100
AcDbLine
 10
5.825
 20
0.375
 30
0.0
 11
3.175
 21
0.375
 31
0.0
  0
LINE
  5
2BA
330
1F
100
AcDbEntity
  8
0
  6
Continuous
 62
     7
370
    25
100
AcDbLine
 10
3.125
 20
0.425
 30
0.0
 11
3.125
 21
0.4656306823
 31
0.0
  0
LINE
  5
2BB
330
1F
100
AcDbEntity
  8
0
  6
Continuous
 62
     7
370
    25
100
AcDbLine
 10
3.0906306823
 20
0.5
 30
0.0
 11
1.1593693177
 21
0.5
 31
0.0
  0
LINE
  5
2BC
330
1F
100
AcDbEntity
  8
0
  6
Continuous
 62
     7
370
    25
100
AcDbLine
 10
1.125
 20
0.425
 30
0.0
 11
1.125
 21
0.4656306823
 31
0.0
  0
LINE
  5
2BD
330
1F
100
AcDbEntity
  8
0
  6
Continuous
 62
     7
370
    25
100
AcDbLine
 10
1.075
 20
0.375
 30
0.0
 11
-0.075
 21
0.375
 31
0.0
  0
LINE
  5
2BE
330
1F
100
AcDbEntity
  8
0
  6
Continuous
 62
     7
370
    25
100
AcDbLine
 10
-0.125
 20
0.425
 30
0.0
 11
-0.125
 21
0.4656306823
 31
0.0
  0
LINE
  5
2BF
330
1F
100
AcDbEntity
  8
0
  6
Continuous
 62
     7
370
    25
100
AcDbLine
 10
-0.1593693177
 20
0.5
 30
0.0
 11
-0.7
 21
0.5
 31
0.0
  0
LINE
  5
2C0
330
1F
100
AcDbEntity
  8
0
  6
Continuous
 62
     7
370
    25
100
AcDbLine
 10
-0.75
 20
0.55
 30
0.0
 11
-0.75
 21
1.95
 31
0.0
  0
LINE
  5
2C1
330
1F
100
AcDbEntity
  8
0
  6
Continuous
 62
     7
370
    25
100
AcDbLine
 10
-0.7
 20
2.0
 30
0.0
 11
-0.1593693177
 21
2.0
 31
0.0
  0
LINE
  5
2C2
330
1F
100
AcDbEntity
  8
0
  6
Continuous
 62
     7
370
    25
100
AcDbLine
 10
-0.125
 20
2.075
 30
0.0
 11
-0.125
 21
2.0343693177
 31
0.0
  0
LINE
  5
2C3
330
1F
100
AcDbEntity
  8
0
  6
Continuous
 62
     7
370
    25
100
AcDbLine
 10
1.075
 20
2.125
 30
0.0
 11
-0.075
 21
2.125
 31
0.0
  0
LINE
  5
2C4
330
1F
100
AcDbEntity
  8
0
  6
Continuous
 62
     7
370
    25
100
AcDbLine
 10
1.125
 20
2.075
 30
0.0
 11
1.125
 21
2.0343693177
 31
0.0
  0
LINE
  5
2C5
330
1F
100
AcDbEntity
  8
0
  6
Continuous
 62
     7
370
    25
100
AcDbLine
 10
1.1593693177
 20
2.0
 30
0.0
 11
2.0906306823
 21
2.0
 31
0.0
  0
LINE
  5
2C6
330
1F
100
AcDbEntity
  8
0
  6
Continuous
 62
     7
370
    25
100
AcDbLine
 10
2.125
 20
2.075
 30
0.0
 11
2.125
 21
2.0343693177
 31
0.0
  0
LINE
  5
2C7
330
1F
100
AcDbEntity
  8
0
  6
Continuous
 62
     7
370
    25
100
AcDbLine
 10
2.5906306823
 20
2.125
 30
0.0
 11
2.175
 21
2.125
 31
0.0
  0
LINE
  5
2C8
330
1F
100
AcDbEntity
  8
0
  6
Continuous
 62
     7
370
    25
100
AcDbLine
 10
2.625
 20
2.2141387394
 30
0.0
 11
2.625
 21
2.1593693177
 31
0.0
  0
LINE
  5
2C9
330
1F
100
AcDbEntity
  8
0
  6
Continuous
 62
     7
370
    25
100
AcDbLine
 10
6.0122518645
 20
2.5
 30
0.0
 11
4.125
 21
2.5
 31
0.0
  0
LINE
  5
2CA
330
1F
100
AcDbEntity
  8
0
  6
Continuous
 62
     7
370
    25
100
AcDbLine
 10
6.3326579775
 20
2.0036012531
 30
0.0
 11
6.0553561784
 21
2.4753380766
 31
0.0
  0
LINE
  5
2CB
330
1F
100
AcDbEntity
  8
0
  6
Continuous
 62
     7
370
    25
100
AcDbLine
 10
6.3374600692
 20
1.9967999492
 30
0.0
 11
7.6293886846
 21
0.4571393805
 31
0.0
  0
LINE
  5
2CC
330
1F
100
AcDbEntity
  8
0
  6
Continuous
 62
     7
370
    25
100
AcDbLine
 10
7.5910864624
 20
0.375
 30
0.0
 11
7.1631237163
 21
0.375
 31
0.0
  0
LINE
  5
2CD
330
1F
100
AcDbEntity
  8
0
  6
Continuous
 62
     7
370
    25
100
AcDbLine
 10
0.625
 20
1.2933012702
 30
0.0
 11
0.625
 21
1.2066987298
 31
0.0
  0
LINE
  5
2CE
330
1F
100
AcDbEntity
  8
0
  6
Continuous
 62
     7
370
    25
100
AcDbLine
 10
0.65
 20
1.1633974596
 30
0.0
 11
0.725
 21
1.1200961894
 31
0.0
  0
LINE
  5
2CF
330
1F
100
AcDbEntity
  8
0
  6
Continuous
 62
     7
370
    25
100
AcDbLine
 10
0.775
 20
1.1200961894
 30
0.0
 11
0.85
 21
1.1633974596
 31
0.0
  0
LINE
  5
2D0
330
1F
100
AcDbEntity
  8
0
  6
Continuous
 62
     7
370
    25
100
AcDbLine
 10
0.875
 20
1.2066987298
 30
0.0
 11
0.875
 21
1.2933012702
 31
0.0
  0
LINE
  5
2D1
330
1F
100
AcDbEntity
  8
0
  6
Continuous
 62
     7
370
    25
100
AcDbLine
 10
0.85
 20
1.3366025404
 30
0.0
 11
0.775
 21
1.3799038106
 31
0.0
  0
LINE
  5
2D2
330
1F
100
AcDbEntity
  8
0
  6
Continuous
 62
     7
370
    25
100
AcDbLine
 10
0.725
 20
1.3799038106
 30
0.0
 11
0.65
 21
1.3366025404
 31
0.0
  0
LINE
  5
2D3
330
1F
100
AcDbEntity
  8
0
  6
Continuous
 62
     7
370
    25
100
AcDbLine
 10
0.9125
 20
1.704663337
 30
0.0
 11
0.8375
 21
1.6613620668
 31
0.0
  0
LINE
  5
2D4
330
1F
100
AcDbEntity
  8
0
  6
Continuous
 62
     7
370
    25
100
AcDbLine
 10
0.8125
 20
1.6180607966
 30
0.0
 11
0.8125
 21
1.5314582562
 31
0.0
  0
LINE
  5
2D5
330
1F
100
AcDbEntity
  8
0
  6
Continuous
 62
     7
370
    25
100
AcDbLine
 10
0.8375
 20
1.488156986
 30
0.0
 11
0.9125
 21
1.4448557159
 31
0.0
  0
LINE
  5
2D6
330
1F
100
AcDbEntity
  8
0
  6
Continuous
 62
     7
370
    25
100
AcDbLine
 10
0.9625
 20
1.4448557159
 30
0.0
 11
1.0375
 21
1.488156986
 31
0.0
  0
LINE
  5
2D7
330
1F
100
AcDbEntity
  8
0
  6
Continuous
 62
     7
370
    25
100
AcDbLine
 10
1.0625
 20
1.5314582562
 30
0.0
 11
1.0625
 21
1.6180607966
 31
0.0
  0
LINE
  5
2D8
330
1F
100
AcDbEntity
  8
0
  6
Continuous
 62
     7
370
    25
100
AcDbLine
 10
1.0375
 20
1.6613620668
 30
0.0
 11
0.9625
 21
1.704663337
 31
0.0
  0
LINE
  5
2D9
330
1F
100
AcDbEntity
  8
0
  6
Continuous
 62
     7
370
    25
100
AcDbLine
 10
2.24
 20
1.4756306823
 30
0.0
 11
2.24
 21
1.0243693177
 31
0.0
  0
LINE
  5
2DA
330
1F
100
AcDbEntity
  8
0
  6
Continuous
 62
     7
370
    25
100
AcDbLine
 10
2.2743693177
 20
0.99
 30
0.0
 11
2.6006306823
 21
0.99
 31
0.0
  0
LINE
  5
2DB
330
1F
100
AcDbEntity
  8
0
  6
Continuous
 62
     7
370
    25
100
AcDbLine
 10
2.635
 20
1.0243693177
 30
0.0
 11
2.635
 21
1.4756306823
 31
0.0
  0
LINE
  5
2DC
330
1F
100
AcDbEntity
  8
0
  6
Continuous
 62
     7
370
    25
100
AcDbLine
 10
2.6006306823
 20
1.51
 30
0.0
 11
2.2743693177
 21
1.51
 31
0.0
  0
ARC
  5
2DD
330
1F
100
AcDbEntity
  8
0
  6
Continuous
 62
     7
370
    25
100
AcDbCircle
 10
5.625
 20
1.9861215932
 30
0.0
 40
0.0500000000000002
100
AcDbArc
 50
60.0
 51
120.0
  0
ARC
  5
2DE
330
1F
100
AcDbEntity
  8
0
  6
Continuous
 62
     7
370
    25
100
AcDbCircle
 10
5.55
 20
1.942820323
 30
0.0
 40
0.0499999999999998
100
AcDbArc
 50
120.0
 51
180.0
  0
ARC
  5
2DF
330
1F
100
AcDbEntity
  8
0
  6
Continuous
 62
     7
370
    25
100
AcDbCircle
 10
5.55
 20
1.8562177826
 30
0.0
 40
0.050000000000002
100
AcDbArc
 50
180.0
 51
240.0
  0
ARC
  5
2E0
330
1F
100
AcDbEntity
  8
0
  6
Continuous
 62
     7
370
    25
100
AcDbCircle
 10
5.625
 20
1.8129165125
 30
0.0
 40
0.0500000000000009
100
AcDbArc
 50
240.0
 51
300.0
  0
ARC
  5
2E1
330
1F
100
AcDbEntity
  8
0
  6
Continuous
 62
     7
370
    25
100
AcDbCircle
 10
5.7
 20
1.8562177826
 30
0.0
 40
0.05
100
AcDbArc
 50
300.0
 51
0.0
  0
ARC
  5
2E2
330
1F
100
AcDbEntity
  8
0
  6
Continuous
 62
     7
370
    25
100
AcDbCircle
 10
5.7
 20
1.942820323
 30
0.0
 40
0.0500000000000018
100
AcDbArc
 50
0.0
 51
60.0
  0
ARC
  5
2E3
330
1F
100
AcDbEntity
  8
0
  6
Continuous
 62
     7
370
    25
100
AcDbCircle
 10
5.4375
 20
1.6613620668
 30
0.0
 40
0.0500000000000015
100
AcDbArc
 50
60.0
 51
120.0
  0
ARC
  5
2E4
330
1F
100
AcDbEntity
  8
0
  6
Continuous
 62
     7
370
    25
100
AcDbCircle
 10
5.3625
 20
1.6180607966
 30
0.0
 40
0.0499999999999998
100
AcDbArc
 50
120.0
 51
180.0
  0
ARC
  5
2E5
330
1F
100
AcDbEntity
  8
0
  6
Continuous
 62
     7
370
    25
100
AcDbCircle
 10
5.3625
 20
1.5314582562
 30
0.0
 40
0.0500000000000027
100
AcDbArc
 50
180.0
 51
240.0
  0
ARC
  5
2E6
330
1F
100
AcDbEntity
  8
0
  6
Continuous
 62
     7
370
    25
100
AcDbCircle
 10
5.4375
 20
1.488156986
 30
0.0
 40
0.0499999999999984
100
AcDbArc
 50
240.0
 51
300.0
  0
ARC
  5
2E7
330
1F
100
AcDbEntity
  8
0
  6
Continuous
 62
     7
370
    25
100
AcDbCircle
 10
5.5125
 20
1.5314582562
 30
0.0
 40
0.0499999999999989
100
AcDbArc
 50
300.0
 51
0.0
  0
ARC
  5
2E8
330
1F
100
AcDbEntity
  8
0
  6
Continuous
 62
     7
370
    25
100
AcDbCircle
 10
5.5125
 20
1.6180607966
 30
0.0
 40
0.0500000000000018
100
AcDbArc
 50
0.0
 51
60.0
  0
ARC
  5
2E9
330
1F
100
AcDbEntity
  8
0
  6
Continuous
 62
     7
370
    25
100
AcDbCircle
 10
5.25
 20
1.9861215932
 30
0.0
 40
0.0500000000000013
100
AcDbArc
 50
60.0
 51
120.0
  0
ARC
  5
2EA
330
1F
100
AcDbEntity
  8
0
  6
Continuous
 62
     7
370
    25
100
AcDbCircle
 10
5.175
 20
1.942820323
 30
0.0
 40
0.049999999999998
100
AcDbArc
 50
120.0
 51
180.0
  0
ARC
  5
2EB
330
1F
100
AcDbEntity
  8
0
  6
Continuous
 62
     7
370
    25
100
AcDbCircle
 10
5.175
 20
1.8562177826
 30
0.0
 40
0.0500000000000007
100
AcDbArc
 50
180.0
 51
240.0
  0
ARC
  5
2EC
330
1F
100
AcDbEntity
  8
0
  6
Continuous
 62
     7
370
    25
100
AcDbCircle
 10
5.25
 20
1.8129165125
 30
0.0
 40
0.0499999999999979
100
AcDbArc
 50
240.0
 51
300.0
  0
ARC
  5
2ED
330
1F
100
AcDbEntity
  8
0
  6
Continuous
 62
     7
370
    25
100
AcDbCircle
 10
5.325
 20
1.8562177826
 30
0.0
 40
0.0499999999999991
100
AcDbArc
 50
300.0
 51
0.0
  0
ARC
  5
2EE
330
1F
100
AcDbEntity
  8
0
  6
Continuous
 62
     7
370
    25
100
AcDbCircle
 10
5.325
 20
1.942820323
 30
0.0
 40
0.0500000000000016
100
AcDbArc
 50
0.0
 51
60.0
  0
ARC
  5
2EF
330
1F
100
AcDbEntity
  8
0
  6
Continuous
 62
     7
370
    25
100
AcDbCircle
 10
5.0625
 20
1.6613620668
 30
0.0
 40
0.0500000000000043
100
AcDbArc
 50
60.0
 51
120.0
  0
ARC
  5
2F0
330
1F
100
AcDbEntity
  8
0
  6
Continuous
 62
     7
370
    25
100
AcDbCircle
 10
4.9875
 20
1.6180607966
 30
0.0
 40
0.0499999999999972
100
AcDbArc
 50
120.0
 51
180.0
  0
ARC
  5
2F1
330
1F
100
AcDbEntity
  8
0
  6
Continuous
 62
     7
370
    25
100
AcDbCircle
 10
4.9875
 20
1.5314582562
 30
0.0
 40
0.0499999999999998
100
AcDbArc
 50
180.0
 51
240.0
  0
ARC
  5
2F2
330
1F
100
AcDbEntity
  8
0
  6
Continuous
 62
     7
370
    25
100
AcDbCircle
 10
5.0625
 20
1.488156986
 30
0.0
 40
0.0499999999999998
100
AcDbArc
 50
240.0
 51
300.0
  0
ARC
  5
2F3
330
1F
100
AcDbEntity
  8
0
  6
Continuous
 62
     7
370
    25
100
AcDbCircle
 10
5.1375
 20
1.5314582562
 30
0.0
 40
0.0499999999999955
100
AcDbArc
 50
300.0
 51
0.0
  0
ARC
  5
2F4
330
1F
100
AcDbEntity
  8
0
  6
Continuous
 62
     7
370
    25
100
AcDbCircle
 10
5.1375
 20
1.6180607966
 30
0.0
 40
0.0499999999999983
100
AcDbArc
 50
0.0
 51
60.0
  0
ARC
  5
2F5
330
1F
100
AcDbEntity
  8
0
  6
Continuous
 62
     7
370
    25
100
AcDbCircle
 10
4.875
 20
1.3366025404
 30
0.0
 40
0.0500000000000013
100
AcDbArc
 50
60.0
 51
120.0
  0
ARC
  5
2F6
330
1F
100
AcDbEntity
  8
0
  6
Continuous
 62
     7
370
    25
100
AcDbCircle
 10
4.8
 20
1.2933012702
 30
0.0
 40
0.0499999999999999
100
AcDbArc
 50
120.0
 51
180.0
  0
ARC
  5
2F7
330
1F
100
AcDbEntity
  8
0
  6
Continuous
 62
     7
370
    25
100
AcDbCircle
 10
4.8
 20
1.2066987298
 30
0.0
 40
0.0500000000000016
100
AcDbArc
 50
180.0
 51
240.0
  0
ARC
  5
2F8
330
1F
100
AcDbEntity
  8
0
  6
Continuous
 62
     7
370
    25
100
AcDbCircle
 10
4.875
 20
1.1633974596
 30
0.0
 40
0.050000000000002
100
AcDbArc
 50
240.0
 51
300.0
  0
ARC
  5
2F9
330
1F
100
AcDbEntity
  8
0
  6
Continuous
 62
     7
370
    25
100
AcDbCircle
 10
4.95
 20
1.2066987298
 30
0.0
 40
0.0499999999999974
100
AcDbArc
 50
300.0
 51
0.0
  0
ARC
  5
2FA
330
1F
100
AcDbEntity
  8
0
  6
Continuous
 62
     7
370
    25
100
AcDbCircle
 10
4.95
 20
1.2933012702
 30
0.0
 40
0.0499999999999998
100
AcDbArc
 50
0.0
 51
60.0
  0
ARC
  5
2FB
330
1F
100
AcDbEntity
  8
0
  6
Continuous
 62
     7
370
    25
100
AcDbCircle
 10
4.6875
 20
1.011843014
 30
0.0
 40
0.0499999999999996
100
AcDbArc
 50
60.0
 51
120.0
  0
ARC
  5
2FC
330
1F
100
AcDbEntity
  8
0
  6
Continuous
 62
     7
370
    25
100
AcDbCircle
 10
4.6125
 20
0.9685417438
 30
0.0
 40
0.0499999999999998
100
AcDbArc
 50
120.0
 51
180.0
  0
ARC
  5
2FD
330
1F
100
AcDbEntity
  8
0
  6
Continuous
 62
     7
370
    25
100
AcDbCircle
 10
4.6125
 20
0.8819392034
 30
0.0
 40
0.050000000000001
100
AcDbArc
 50
180.0
 51
240.0
  0
ARC
  5
2FE
330
1F
100
AcDbEntity
  8
0
  6
Continuous
 62
     7
370
    25
100
AcDbCircle
 10
4.6875
 20
0.8386379332
 30
0.0
 40
0.0500000000000024
100
AcDbArc
 50
240.0
 51
300.0
  0
ARC
  5
2FF
330
1F
100
AcDbEntity
  8
0
  6
Continuous
 62
     7
370
    25
100
AcDbCircle
 10
4.7625
 20
0.8819392034
 30
0.0
 40
0.0500000000000011
100
AcDbArc
 50
300.0
 51
0.0
  0
ARC
  5
300
330
1F
100
AcDbEntity
  8
0
  6
Continuous
 62
     7
370
    25
100
AcDbCircle
 10
4.7625
 20
0.9685417438
 30
0.0
 40
0.0500000000000018
100
AcDbArc
 50
0.0
 51
60.0
  0
ARC
  5
301
330
1F
100
AcDbEntity
  8
0
  6
Continuous
 62
     7
370
    25
100
AcDbCircle
 10
5.0625
 20
2.3108811196
 30
0.0
 40
0.0500000000000043
100
AcDbArc
 50
60.0
 51
120.0
  0
ARC
  5
302
330
1F
100
AcDbEntity
  8
0
  6
Continuous
 62
     7
370
    25
100
AcDbCircle
 10
4.9875
 20
2.2675798494
 30
0.0
 40
0.0499999999999972
100
AcDbArc
 50
120.0
 51
180.0
  0
ARC
  5
303
330
1F
100
AcDbEntity
  8
0
  6
Continuous
 62
     7
370
    25
100
AcDbCircle
 10
4.9875
 20
2.1809773091
 30
0.0
 40
0.0499999999999998
100
AcDbArc
 50
180.0
 51
240.0
  0
ARC
  5
304
330
1F
100
AcDbEntity
  8
0
  6
Continuous
 62
     7
370
    25
100
AcDbCircle
 10
5.0625
 20
2.1376760389
 30
0.0
 40
0.0499999999999989
100
AcDbArc
 50
240.0
 51
300.0
  0
ARC
  5
305
330
1F
100
AcDbEntity
  8
0
  6
Continuous
 62
     7
370
    25
100
AcDbCircle
 10
5.1375
 20
2.1809773091
 30
0.0
 40
0.0499999999999954
100
AcDbArc
 50
300.0
 51
0.0
  0
ARC
  5
306
330
1F
100
AcDbEntity
  8
0
  6
Continuous
 62
     7
370
    25
100
AcDbCircle
 10
5.1375
 20
2.2675798494
 30
0.0
 40
0.0499999999999998
100
AcDbArc
 50
0.0
 51
60.0
  0
ARC
  5
307
330
1F
100
AcDbEntity
  8
0
  6
Continuous
 62
     7
370
    25
100
AcDbCircle
 10
4.875
 20
1.9861215932
 30
0.0
 40
0.049999999999999
100
AcDbArc
 50
60.0
 51
120.0
  0
ARC
  5
308
330
1F
100
AcDbEntity
  8
0
  6
Continuous
 62
     7
370
    25
100
AcDbCircle
 10
4.8
 20
1.942820323
 30
0.0
 40
0.0500000000000007
100
AcDbArc
 50
120.0
 51
180.0
  0
ARC
  5
309
330
1F
100
AcDbEntity
  8
0
  6
Continuous
 62
     7
370
    25
100
AcDbCircle
 10
4.8
 20
1.8562177826
 30
0.0
 40
0.0500000000000017
100
AcDbArc
 50
180.0
 51
240.0
  0
ARC
  5
30A
330
1F
100
AcDbEntity
  8
0
  6
Continuous
 62
     7
370
    25
100
AcDbCircle
 10
4.875
 20
1.8129165125
 30
0.0
 40
0.0500000000000025
100
AcDbArc
 50
240.0
 51
300.0
  0
ARC
  5
30B
330
1F
100
AcDbEntity
  8
0
  6
Continuous
 62
     7
370
    25
100
AcDbCircle
 10
4.95
 20
1.8562177826
 30
0.0
 40
0.0499999999999972
100
AcDbArc
 50
300.0
 51
0.0
  0
ARC
  5
30C
330
1F
100
AcDbEntity
  8
0
  6
Continuous
 62
     7
370
    25
100
AcDbCircle
 10
4.95
 20
1.942820323
 30
0.0
 40
0.0499999999999998
100
AcDbArc
 50
0.0
 51
60.0
  0
ARC
  5
30D
330
1F
100
AcDbEntity
  8
0
  6
Continuous
 62
     7
370
    25
100
AcDbCircle
 10
4.6875
 20
1.6613620668
 30
0.0
 40
0.0500000000000004
100
AcDbArc
 50
60.0
 51
120.0
  0
ARC
  5
30E
330
1F
100
AcDbEntity
  8
0
  6
Continuous
 62
     7
370
    25
100
AcDbCircle
 10
4.6125
 20
1.6180607966
 30
0.0
 40
0.0499999999999993
100
AcDbArc
 50
120.0
 51
180.0
  0
ARC
  5
30F
330
1F
100
AcDbEntity
  8
0
  6
Continuous
 62
     7
370
    25
100
AcDbCircle
 10
4.6125
 20
1.5314582562
 30
0.0
 40
0.0500000000000017
100
AcDbArc
 50
180.0
 51
240.0
  0
ARC
  5
310
330
1F
100
AcDbEntity
  8
0
  6
Continuous
 62
     7
370
    25
100
AcDbCircle
 10
4.6875
 20
1.488156986
 30
0.0
 40
0.0500000000000013
100
AcDbArc
 50
240.0
 51
300.0
  0
ARC
  5
311
330
1F
100
AcDbEntity
  8
0
  6
Continuous
 62
     7
370
    25
100
AcDbCircle
 10
4.7625
 20
1.5314582562
 30
0.0
 40
0.05
100
AcDbArc
 50
300.0
 51
0.0
  0
ARC
  5
312
330
1F
100
AcDbEntity
  8
0
  6
Continuous
 62
     7
370
    25
100
AcDbCircle
 10
4.7625
 20
1.6180607966
 30
0.0
 40
0.0500000000000018
100
AcDbArc
 50
0.0
 51
60.0
  0
ARC
  5
313
330
1F
100
AcDbEntity
  8
0
  6
Continuous
 62
     7
370
    25
100
AcDbCircle
 10
4.5
 20
1.3366025404
 30
0.0
 40
0.0500000000000013
100
AcDbArc
 50
60.0
 51
120.0
  0
ARC
  5
314
330
1F
100
AcDbEntity
  8
0
  6
Continuous
 62
     7
370
    25
100
AcDbCircle
 10
4.425
 20
1.2933012702
 30
0.0
 40
0.0499999999999999
100
AcDbArc
 50
120.0
 51
180.0
  0
ARC
  5
315
330
1F
100
AcDbEntity
  8
0
  6
Continuous
 62
     7
370
    25
100
AcDbCircle
 10
4.425
 20
1.2066987298
 30
0.0
 40
0.0500000000000016
100
AcDbArc
 50
180.0
 51
240.0
  0
ARC
  5
316
330
1F
100
AcDbEntity
  8
0
  6
Continuous
 62
     7
370
    25
100
AcDbCircle
 10
4.5
 20
1.1633974596
 30
0.0
 40
0.050000000000002
100
AcDbArc
 50
240.0
 51
300.0
  0
ARC
  5
317
330
1F
100
AcDbEntity
  8
0
  6
Continuous
 62
     7
370
    25
100
AcDbCircle
 10
4.575
 20
1.2066987298
 30
0.0
 40
0.0500000000000011
100
AcDbArc
 50
300.0
 51
0.0
  0
ARC
  5
318
330
1F
100
AcDbEntity
  8
0
  6
Continuous
 62
     7
370
    25
100
AcDbCircle
 10
4.575
 20
1.2933012702
 30
0.0
 40
0.0500000000000018
100
AcDbArc
 50
0.0
 51
60.0
  0
ARC
  5
319
330
1F
100
AcDbEntity
  8
0
  6
Continuous
 62
     7
370
    25
100
AcDbCircle
 10
4.3125
 20
1.011843014
 30
0.0
 40
0.049999999999998
100
AcDbArc
 50
60.0
 51
120.0
  0
ARC
  5
31A
330
1F
100
AcDbEntity
  8
0
  6
Continuous
 62
     7
370
    25
100
AcDbCircle
 10
4.2375
 20
0.9685417438
 30
0.0
 40
0.0499999999999998
100
AcDbArc
 50
120.0
 51
180.0
  0
ARC
  5
31B
330
1F
100
AcDbEntity
  8
0
  6
Continuous
 62
     7
370
    25
100
AcDbCircle
 10
4.2375
 20
0.8819392034
 30
0.0
 40
0.0499999999999998
100
AcDbArc
 50
180.0
 51
240.0
  0
ARC
  5
31C
330
1F
100
AcDbEntity
  8
0
  6
Continuous
 62
     7
370
    25
100
AcDbCircle
 10
4.3125
 20
0.8386379332
 30
0.0
 40
0.0500000000000002
100
AcDbArc
 50
240.0
 51
300.0
  0
ARC
  5
31D
330
1F
100
AcDbEntity
  8
0
  6
Continuous
 62
     7
370
    25
100
AcDbCircle
 10
4.3875
 20
0.8819392034
 30
0.0
 40
0.0499999999999991
100
AcDbArc
 50
300.0
 51
0.0
  0
ARC
  5
31E
330
1F
100
AcDbEntity
  8
0
  6
Continuous
 62
     7
370
    25
100
AcDbCircle
 10
4.3875
 20
0.9685417438
 30
0.0
 40
0.0500000000000016
100
AcDbArc
 50
0.0
 51
60.0
  0
ARC
  5
31F
330
1F
100
AcDbEntity
  8
0
  6
Continuous
 62
     7
370
    25
100
AcDbCircle
 10
4.6875
 20
2.3108811196
 30
0.0
 40
0.0499999999999988
100
AcDbArc
 50
60.0
 51
120.0
  0
ARC
  5
320
330
1F
100
AcDbEntity
  8
0
  6
Continuous
 62
     7
370
    25
100
AcDbCircle
 10
4.6125
 20
2.2675798494
 30
0.0
 40
0.0499999999999998
100
AcDbArc
 50
120.0
 51
180.0
  0
ARC
  5
321
330
1F
100
AcDbEntity
  8
0
  6
Continuous
 62
     7
370
    25
100
AcDbCircle
 10
4.6125
 20
2.1809773091
 30
0.0
 40
0.0500000000000007
100
AcDbArc
 50
180.0
 51
240.0
  0
ARC
  5
322
330
1F
100
AcDbEntity
  8
0
  6
Continuous
 62
     7
370
    25
100
AcDbCircle
 10
4.6875
 20
2.1376760389
 30
0.0
 40
0.0500000000000027
100
AcDbArc
 50
240.0
 51
300.0
  0
ARC
  5
323
330
1F
100
AcDbEntity
  8
0
  6
Continuous
 62
     7
370
    25
100
AcDbCircle
 10
4.7625
 20
2.1809773091
 30
0.0
 40
0.0500000000000009
100
AcDbArc
 50
300.0
 51
0.0
  0
ARC
  5
324
330
1F
100
AcDbEntity
  8
0
  6
Continuous
 62
     7
370
    25
100
AcDbCircle
 10
4.7625
 20
2.2675798494
 30
0.0
 40
0.0500000000000016
100
AcDbArc
 50
0.0
 51
60.0
  0
ARC
  5
325
330
1F
100
AcDbEntity
  8
0
  6
Continuous
 62
     7
370
    25
100
AcDbCircle
 10
4.5
 20
1.9861215932
 30
0.0
 40
0.0500000000000013
100
AcDbArc
 50
60.0
 51
120.0
  0
ARC
  5
326
330
1F
100
AcDbEntity
  8
0
  6
Continuous
 62
     7
370
    25
100
AcDbCircle
 10
4.425
 20
1.942820323
 30
0.0
 40
0.0499999999999993
100
AcDbArc
 50
120.0
 51
180.0
  0
ARC
  5
327
330
1F
100
AcDbEntity
  8
0
  6
Continuous
 62
     7
370
    25
100
AcDbCircle
 10
4.425
 20
1.8562177826
 30
0.0
 40
0.0500000000000017
100
AcDbArc
 50
180.0
 51
240.0
  0
ARC
  5
328
330
1F
100
AcDbEntity
  8
0
  6
Continuous
 62
     7
370
    25
100
AcDbCircle
 10
4.5
 20
1.8129165125
 30
0.0
 40
0.0500000000000014
100
AcDbArc
 50
240.0
 51
300.0
  0
ARC
  5
329
330
1F
100
AcDbEntity
  8
0
  6
Continuous
 62
     7
370
    25
100
AcDbCircle
 10
4.575
 20
1.8562177826
 30
0.0
 40
0.05
100
AcDbArc
 50
300.0
 51
0.0
  0
ARC
  5
32A
330
1F
100
AcDbEntity
  8
0
  6
Continuous
 62
     7
370
    25
100
AcDbCircle
 10
4.575
 20
1.942820323
 30
0.0
 40
0.0500000000000016
100
AcDbArc
 50
0.0
 51
60.0
  0
ARC
  5
32B
330
1F
100
AcDbEntity
  8
0
  6
Continuous
 62
     7
370
    25
100
AcDbCircle
 10
4.3125
 20
1.6613620668
 30
0.0
 40
0.049999999999999
100
AcDbArc
 50
60.0
 51
120.0
  0
ARC
  5
32C
330
1F
100
AcDbEntity
  8
0
  6
Continuous
 62
     7
370
    25
100
AcDbCircle
 10
4.2375
 20
1.6180607966
 30
0.0
 40
0.0499999999999993
100
AcDbArc
 50
120.0
 51
180.0
  0
ARC
  5
32D
330
1F
100
AcDbEntity
  8
0
  6
Continuous
 62
     7
370
    25
100
AcDbCircle
 10
4.2375
 20
1.5314582562
 30
0.0
 40
0.0500000000000007
100
AcDbArc
 50
180.0
 51
240.0
  0
ARC
  5
32E
330
1F
100
AcDbEntity
  8
0
  6
Continuous
 62
     7
370
    25
100
AcDbCircle
 10
4.3125
 20
1.488156986
 30
0.0
 40
0.0499999999999995
100
AcDbArc
 50
240.0
 51
300.0
  0
ARC
  5
32F
330
1F
100
AcDbEntity
  8
0
  6
Continuous
 62
     7
370
    25
100
AcDbCircle
 10
4.3875
 20
1.5314582562
 30
0.0
 40
0.0499999999999981
100
AcDbArc
 50
300.0
 51
0.0
  0
ARC
  5
330
330
1F
100
AcDbEntity
  8
0
  6
Continuous
 62
     7
370
    25
100
AcDbCircle
 10
4.3875
 20
1.6180607966
 30
0.0
 40
0.0500000000000016
100
AcDbArc
 50
0.0
 51
60.0
  0
ARC
  5
331
330
1F
100
AcDbEntity
  8
0
  6
Continuous
 62
     7
370
    25
100
AcDbCircle
 10
4.125
 20
1.3366025404
 30
0.0
 40
0.0500000000000019
100
AcDbArc
 50
60.0
 51
120.0
  0
ARC
  5
332
330
1F
100
AcDbEntity
  8
0
  6
Continuous
 62
     7
370
    25
100
AcDbCircle
 10
4.05
 20
1.2933012702
 30
0.0
 40
0.0499999999999956
100
AcDbArc
 50
120.0
 51
180.0
  0
ARC
  5
333
330
1F
100
AcDbEntity
  8
0
  6
Continuous
 62
     7
370
    25
100
AcDbCircle
 10
4.05
 20
1.2066987298
 30
0.0
 40
0.0499999999999998
100
AcDbArc
 50
180.0
 51
240.0
  0
ARC
  5
334
330
1F
100
AcDbEntity
  8
0
  6
Continuous
 62
     7
370
    25
100
AcDbCircle
 10
4.125
 20
1.1633974596
 30
0.0
 40
0.0500000000000001
100
AcDbArc
 50
240.0
 51
300.0
  0
ARC
  5
335
330
1F
100
AcDbEntity
  8
0
  6
Continuous
 62
     7
370
    25
100
AcDbCircle
 10
4.2
 20
1.2066987298
 30
0.0
 40
0.0499999999999975
100
AcDbArc
 50
300.0
 51
0.0
  0
ARC
  5
336
330
1F
100
AcDbEntity
  8
0
  6
Continuous
 62
     7
370
    25
100
AcDbCircle
 10
4.2
 20
1.2933012702
 30
0.0
 40
0.0500000000000016
100
AcDbArc
 50
0.0
 51
60.0
  0
ARC
  5
337
330
1F
100
AcDbEntity
  8
0
  6
Continuous
 62
     7
370
    25
100
AcDbCircle
 10
4.125
 20
1.9861215932
 30
0.0
 40
0.0499999999999998
100
AcDbArc
 50
60.0
 51
120.0
  0
ARC
  5
338
330
1F
100
AcDbEntity
  8
0
  6
Continuous
 62
     7
370
    25
100
AcDbCircle
 10
4.05
 20
1.942820323
 30
0.0
 40
0.0500000000000012
100
AcDbArc
 50
120.0
 51
180.0
  0
ARC
  5
339
330
1F
100
AcDbEntity
  8
0
  6
Continuous
 62
     7
370
    25
100
AcDbCircle
 10
4.05
 20
1.8562177826
 30
0.0
 40
0.050000000000002
100
AcDbArc
 50
180.0
 51
240.0
  0
ARC
  5
33A
330
1F
100
AcDbEntity
  8
0
  6
Continuous
 62
     7
370
    25
100
AcDbCircle
 10
4.125
 20
1.8129165125
 30
0.0
 40
0.0499999999999994
100
AcDbArc
 50
240.0
 51
300.0
  0
ARC
  5
33B
330
1F
100
AcDbEntity
  8
0
  6
Continuous
 62
     7
370
    25
100
AcDbCircle
 10
4.2
 20
1.8562177826
 30
0.0
 40
0.049999999999998
100
AcDbArc
 50
300.0
 51
0.0
  0
ARC
  5
33C
330
1F
100
AcDbEntity
  8
0
  6
Continuous
 62
     7
370
    25
100
AcDbCircle
 10
4.2
 20
1.942820323
 30
0.0
 40
0.0500000000000009
100
AcDbArc
 50
0.0
 51
60.0
  0
ARC
  5
33D
330
1F
100
AcDbEntity
  8
0
  6
Continuous
 62
     7
370
    25
100
AcDbCircle
 10
3.375
 20
1.3366025404
 30
0.0
 40
0.0500000000000017
100
AcDbArc
 50
60.0
 51
120.0
  0
ARC
  5
33E
330
1F
100
AcDbEntity
  8
0
  6
Continuous
 62
     7
370
    25
100
AcDbCircle
 10
3.3
 20
1.2933012702
 30
0.0
 40
0.0500000000000008
100
AcDbArc
 50
120.0
 51
180.0
  0
ARC
  5
33F
330
1F
100
AcDbEntity
  8
0
  6
Continuous
 62
     7
370
    25
100
AcDbCircle
 10
3.3
 20
1.2066987298
 30
0.0
 40
0.0500000000000028
100
AcDbArc
 50
180.0
 51
240.0
  0
ARC
  5
340
330
1F
100
AcDbEntity
  8
0
  6
Continuous
 62
     7
370
    25
100
AcDbCircle
 10
3.375
 20
1.1633974596
 30
0.0
 40
0.0499999999999997
100
AcDbArc
 50
240.0
 51
300.0
  0
ARC
  5
341
330
1F
100
AcDbEntity
  8
0
  6
Continuous
 62
     7
370
    25
100
AcDbCircle
 10
3.45
 20
1.2066987298
 30
0.0
 40
0.0499999999999985
100
AcDbArc
 50
300.0
 51
0.0
  0
ARC
  5
342
330
1F
100
AcDbEntity
  8
0
  6
Continuous
 62
     7
370
    25
100
AcDbCircle
 10
3.45
 20
1.2933012702
 30
0.0
 40
0.0500000000000012
100
AcDbArc
 50
0.0
 51
60.0
  0
ARC
  5
343
330
1F
100
AcDbEntity
  8
0
  6
Continuous
 62
     7
370
    25
100
AcDbCircle
 10
3.1875
 20
1.011843014
 30
0.0
 40
0.0499999999999999
100
AcDbArc
 50
60.0
 51
120.0
  0
ARC
  5
344
330
1F
100
AcDbEntity
  8
0
  6
Continuous
 62
     7
370
    25
100
AcDbCircle
 10
3.1125
 20
0.9685417438
 30
0.0
 40
0.0500000000000016
100
AcDbArc
 50
120.0
 51
180.0
  0
ARC
  5
345
330
1F
100
AcDbEntity
  8
0
  6
Continuous
 62
     7
370
    25
100
AcDbCircle
 10
3.1125
 20
0.8819392034
 30
0.0
 40
0.0500000000000003
100
AcDbArc
 50
180.0
 51
240.0
  0
ARC
  5
346
330
1F
100
AcDbEntity
  8
0
  6
Continuous
 62
     7
370
    25
100
AcDbCircle
 10
3.1875
 20
0.8386379332
 30
0.0
 40
0.0499999999999994
100
AcDbArc
 50
240.0
 51
300.0
  0
ARC
  5
347
330
1F
100
AcDbEntity
  8
0
  6
Continuous
 62
     7
370
    25
100
AcDbCircle
 10
3.2625
 20
0.8819392034
 30
0.0
 40
0.0499999999999985
100
AcDbArc
 50
300.0
 51
0.0
  0
ARC
  5
348
330
1F
100
AcDbEntity
  8
0
  6
Continuous
 62
     7
370
    25
100
AcDbCircle
 10
3.2625
 20
0.9685417438
 30
0.0
 40
0.0499999999999955
100
AcDbArc
 50
360.0
 51
60.0
  0
ARC
  5
349
330
1F
100
AcDbEntity
  8
0
  6
Continuous
 62
     7
370
    25
100
AcDbCircle
 10
3.375
 20
1.9861215932
 30
0.0
 40
0.0499999999999971
100
AcDbArc
 50
60.0
 51
120.0
  0
ARC
  5
34A
330
1F
100
AcDbEntity
  8
0
  6
Continuous
 62
     7
370
    25
100
AcDbCircle
 10
3.3
 20
1.942820323
 30
0.0
 40
0.0500000000000006
100
AcDbArc
 50
120.0
 51
180.0
  0
ARC
  5
34B
330
1F
100
AcDbEntity
  8
0
  6
Continuous
 62
     7
370
    25
100
AcDbCircle
 10
3.3
 20
1.8562177826
 30
0.0
 40
0.0500000000000018
100
AcDbArc
 50
180.0
 51
240.0
  0
ARC
  5
34C
330
1F
100
AcDbEntity
  8
0
  6
Continuous
 62
     7
370
    25
100
AcDbCircle
 10
3.375
 20
1.8129165125
 30
0.0
 40
0.0500000000000003
100
AcDbArc
 50
240.0
 51
300.0
  0
ARC
  5
34D
330
1F
100
AcDbEntity
  8
0
  6
Continuous
 62
     7
370
    25
100
AcDbCircle
 10
3.45
 20
1.8562177826
 30
0.0
 40
0.0499999999999998
100
AcDbArc
 50
300.0
 51
0.0
  0
ARC
  5
34E
330
1F
100
AcDbEntity
  8
0
  6
Continuous
 62
     7
370
    25
100
AcDbCircle
 10
3.45
 20
1.942820323
 30
0.0
 40
0.0500000000000016
100
AcDbArc
 50
0.0
 51
60.0
  0
ARC
  5
34F
330
1F
100
AcDbEntity
  8
0
  6
Continuous
 62
     7
370
    25
100
AcDbCircle
 10
3.1875
 20
1.6613620668
 30
0.0
 40
0.0500000000000003
100
AcDbArc
 50
60.0
 51
120.0
  0
ARC
  5
350
330
1F
100
AcDbEntity
  8
0
  6
Continuous
 62
     7
370
    25
100
AcDbCircle
 10
3.1125
 20
1.6180607966
 30
0.0
 40
0.0500000000000022
100
AcDbArc
 50
120.0
 51
180.0
  0
ARC
  5
351
330
1F
100
AcDbEntity
  8
0
  6
Continuous
 62
     7
370
    25
100
AcDbCircle
 10
3.1125
 20
1.5314582562
 30
0.0
 40
0.0500000000000009
100
AcDbArc
 50
180.0
 51
240.0
  0
ARC
  5
352
330
1F
100
AcDbEntity
  8
0
  6
Continuous
 62
     7
370
    25
100
AcDbCircle
 10
3.1875
 20
1.488156986
 30
0.0
 40
0.0500000000000009
100
AcDbArc
 50
240.0
 51
300.0
  0
ARC
  5
353
330
1F
100
AcDbEntity
  8
0
  6
Continuous
 62
     7
370
    25
100
AcDbCircle
 10
3.2625
 20
1.5314582562
 30
0.0
 40
0.0499999999999985
100
AcDbArc
 50
300.0
 51
0.0
  0
ARC
  5
354
330
1F
100
AcDbEntity
  8
0
  6
Continuous
 62
     7
370
    25
100
AcDbCircle
 10
3.2625
 20
1.6180607966
 30
0.0
 40
0.0499999999999967
100
AcDbArc
 50
360.0
 51
60.0
  0
ARC
  5
355
330
1F
100
AcDbEntity
  8
0
  6
Continuous
 62
     7
370
    25
100
AcDbCircle
 10
3.0
 20
1.3366025404
 30
0.0
 40
0.0500000000000007
100
AcDbArc
 50
60.0
 51
120.0
  0
ARC
  5
356
330
1F
100
AcDbEntity
  8
0
  6
Continuous
 62
     7
370
    25
100
AcDbCircle
 10
2.925
 20
1.2933012702
 30
0.0
 40
0.0499999999999989
100
AcDbArc
 50
120.0
 51
180.0
  0
ARC
  5
357
330
1F
100
AcDbEntity
  8
0
  6
Continuous
 62
     7
370
    25
100
AcDbCircle
 10
2.925
 20
1.2066987298
 30
0.0
 40
0.0500000000000003
100
AcDbArc
 50
180.0
 51
240.0
  0
ARC
  5
358
330
1F
100
AcDbEntity
  8
0
  6
Continuous
 62
     7
370
    25
100
AcDbCircle
 10
3.0
 20
1.1633974596
 30
0.0
 40
0.0500000000000014
100
AcDbArc
 50
240.0
 51
300.0
  0
ARC
  5
359
330
1F
100
AcDbEntity
  8
0
  6
Continuous
 62
     7
370
    25
100
AcDbCircle
 10
3.075
 20
1.2066987298
 30
0.0
 40
0.0499999999999976
100
AcDbArc
 50
300.0
 51
0.0
  0
ARC
  5
35A
330
1F
100
AcDbEntity
  8
0
  6
Continuous
 62
     7
370
    25
100
AcDbCircle
 10
3.075
 20
1.2933012702
 30
0.0
 40
0.0499999999999985
100
AcDbArc
 50
0.0
 51
60.0
  0
ARC
  5
35B
330
1F
100
AcDbEntity
  8
0
  6
Continuous
 62
     7
370
    25
100
AcDbCircle
 10
3.0
 20
1.9861215932
 30
0.0
 40
0.0499999999999998
100
AcDbArc
 50
60.0
 51
120.0
  0
ARC
  5
35C
330
1F
100
AcDbEntity
  8
0
  6
Continuous
 62
     7
370
    25
100
AcDbCircle
 10
2.925
 20
1.942820323
 30
0.0
 40
0.0500000000000008
100
AcDbArc
 50
120.0
 51
180.0
  0
ARC
  5
35D
330
1F
100
AcDbEntity
  8
0
  6
Continuous
 62
     7
370
    25
100
AcDbCircle
 10
2.925
 20
1.8562177826
 30
0.0
 40
0.049999999999998
100
AcDbArc
 50
180.0
 51
240.0
  0
ARC
  5
35E
330
1F
100
AcDbEntity
  8
0
  6
Continuous
 62
     7
370
    25
100
AcDbCircle
 10
3.0
 20
1.8129165125
 30
0.0
 40
0.0500000000000009
100
AcDbArc
 50
240.0
 51
300.0
  0
ARC
  5
35F
330
1F
100
AcDbEntity
  8
0
  6
Continuous
 62
     7
370
    25
100
AcDbCircle
 10
3.075
 20
1.8562177826
 30
0.0
 40
0.050000000000002
100
AcDbArc
 50
300.0
 51
0.0
  0
ARC
  5
360
330
1F
100
AcDbEntity
  8
0
  6
Continuous
 62
     7
370
    25
100
AcDbCircle
 10
3.075
 20
1.942820323
 30
0.0
 40
0.0499999999999976
100
AcDbArc
 50
0.0
 51
60.0
  0
ARC
  5
361
330
1F
100
AcDbEntity
  8
0
  6
Continuous
 62
     7
370
    25
100
AcDbCircle
 10
1.3125
 20
1.011843014
 30
0.0
 40
0.0499999999999991
100
AcDbArc
 50
60.0
 51
120.0
  0
ARC
  5
362
330
1F
100
AcDbEntity
  8
0
  6
Continuous
 62
     7
370
    25
100
AcDbCircle
 10
1.2375
 20
0.9685417438
 30
0.0
 40
0.0500000000000002
100
AcDbArc
 50
120.0
 51
180.0
  0
ARC
  5
363
330
1F
100
AcDbEntity
  8
0
  6
Continuous
 62
     7
370
    25
100
AcDbCircle
 10
1.2375
 20
0.8819392034
 30
0.0
 40
0.0499999999999994
100
AcDbArc
 50
180.0
 51
240.0
  0
ARC
  5
364
330
1F
100
AcDbEntity
  8
0
  6
Continuous
 62
     7
370
    25
100
AcDbCircle
 10
1.3125
 20
0.8386379332
 30
0.0
 40
0.0499999999999997
100
AcDbArc
 50
240.0
 51
300.0
  0
ARC
  5
365
330
1F
100
AcDbEntity
  8
0
  6
Continuous
 62
     7
370
    25
100
AcDbCircle
 10
1.3875
 20
0.8819392034
 30
0.0
 40
0.0499999999999996
100
AcDbArc
 50
300.0
 51
0.0
  0
ARC
  5
366
330
1F
100
AcDbEntity
  8
0
  6
Continuous
 62
     7
370
    25
100
AcDbCircle
 10
1.3875
 20
0.9685417438
 30
0.0
 40
0.0500000000000001
100
AcDbArc
 50
0.0
 51
60.0
  0
ARC
  5
367
330
1F
100
AcDbEntity
  8
0
  6
Continuous
 62
     7
370
    25
100
AcDbCircle
 10
1.3125
 20
1.6613620668
 30
0.0
 40
0.0500000000000002
100
AcDbArc
 50
60.0
 51
120.0
  0
ARC
  5
368
330
1F
100
AcDbEntity
  8
0
  6
Continuous
 62
     7
370
    25
100
AcDbCircle
 10
1.2375
 20
1.6180607966
 30
0.0
 40
0.0499999999999998
100
AcDbArc
 50
120.0
 51
180.0
  0
ARC
  5
369
330
1F
100
AcDbEntity
  8
0
  6
Continuous
 62
     7
370
    25
100
AcDbCircle
 10
1.2375
 20
1.5314582562
 30
0.0
 40
0.0499999999999999
100
AcDbArc
 50
180.0
 51
240.0
  0
ARC
  5
36A
330
1F
100
AcDbEntity
  8
0
  6
Continuous
 62
     7
370
    25
100
AcDbCircle
 10
1.3125
 20
1.488156986
 30
0.0
 40
0.0499999999999996
100
AcDbArc
 50
240.0
 51
300.0
  0
ARC
  5
36B
330
1F
100
AcDbEntity
  8
0
  6
Continuous
 62
     7
370
    25
100
AcDbCircle
 10
1.3875
 20
1.5314582562
 30
0.0
 40
0.0499999999999992
100
AcDbArc
 50
300.0
 51
0.0
  0
ARC
  5
36C
330
1F
100
AcDbEntity
  8
0
  6
Continuous
 62
     7
370
    25
100
AcDbCircle
 10
1.3875
 20
1.6180607966
 30
0.0
 40
0.0500000000000002
100
AcDbArc
 50
0.0
 51
60.0
  0
ARC
  5
36D
330
1F
100
AcDbEntity
  8
0
  6
Continuous
 62
     7
370
    25
100
AcDbCircle
 10
1.125
 20
1.3366025404
 30
0.0
 40
0.0500000000000019
100
AcDbArc
 50
60.0
 51
120.0
  0
ARC
  5
36E
330
1F
100
AcDbEntity
  8
0
  6
Continuous
 62
     7
370
    25
100
AcDbCircle
 10
1.05
 20
1.2933012702
 30
0.0
 40
0.0500000000000005
100
AcDbArc
 50
120.0
 51
180.0
  0
ARC
  5
36F
330
1F
100
AcDbEntity
  8
0
  6
Continuous
 62
     7
370
    25
100
AcDbCircle
 10
1.05
 20
1.2066987298
 30
0.0
 40
0.0500000000000005
100
AcDbArc
 50
180.0
 51
240.0
  0
ARC
  5
370
330
1F
100
AcDbEntity
  8
0
  6
Continuous
 62
     7
370
    25
100
AcDbCircle
 10
1.125
 20
1.1633974596
 30
0.0
 40
0.050000000000001
100
AcDbArc
 50
240.0
 51
300.0
  0
ARC
  5
371
330
1F
100
AcDbEntity
  8
0
  6
Continuous
 62
     7
370
    25
100
AcDbCircle
 10
1.2
 20
1.2066987298
 30
0.0
 40
0.0499999999999988
100
AcDbArc
 50
300.0
 51
0.0
  0
ARC
  5
372
330
1F
100
AcDbEntity
  8
0
  6
Continuous
 62
     7
370
    25
100
AcDbCircle
 10
1.2
 20
1.2933012702
 30
0.0
 40
0.0499999999999985
100
AcDbArc
 50
0.0
 51
60.0
  0
ARC
  5
373
330
1F
100
AcDbEntity
  8
0
  6
Continuous
 62
     7
370
    25
100
AcDbCircle
 10
0.9375
 20
1.011843014
 30
0.0
 40
0.0499999999999988
100
AcDbArc
 50
60.0
 51
120.0
  0
ARC
  5
374
330
1F
100
AcDbEntity
  8
0
  6
Continuous
 62
     7
370
    25
100
AcDbCircle
 10
0.8625
 20
0.9685417438
 30
0.0
 40
0.0500000000000025
100
AcDbArc
 50
120.0
 51
180.0
  0
ARC
  5
375
330
1F
100
AcDbEntity
  8
0
  6
Continuous
 62
     7
370
    25
100
AcDbCircle
 10
0.8625
 20
0.8819392034
 30
0.0
 40
0.0499999999999995
100
AcDbArc
 50
180.0
 51
240.0
  0
ARC
  5
376
330
1F
100
AcDbEntity
  8
0
  6
Continuous
 62
     7
370
    25
100
AcDbCircle
 10
0.9375
 20
0.8386379332
 30
0.0
 40
0.0499999999999995
100
AcDbArc
 50
240.0
 51
300.0
  0
ARC
  5
377
330
1F
100
AcDbEntity
  8
0
  6
Continuous
 62
     7
370
    25
100
AcDbCircle
 10
1.0125
 20
0.8819392034
 30
0.0
 40
0.0500000000000009
100
AcDbArc
 50
300.0
 51
0.0
  0
ARC
  5
378
330
1F
100
AcDbEntity
  8
0
  6
Continuous
 62
     7
370
    25
100
AcDbCircle
 10
1.0125
 20
0.9685417438
 30
0.0
 40
0.0500000000000003
100
AcDbArc
 50
0.0
 51
60.0
  0
ARC
  5
379
330
1F
100
AcDbEntity
  8
0
  6
Continuous
 62
     7
370
    25
100
AcDbCircle
 10
6.7322815178
 20
0.475
 30
0.0
 40
0.0999999999999957
100
AcDbArc
 50
270.0
 51
335.0989376296
  0
ARC
  5
37A
330
1F
100
AcDbEntity
  8
0
  6
Continuous
 62
     7
370
    25
100
AcDbCircle
 10
6.425
 20
0.425
 30
0.0
 40
0.0499999999999999
100
AcDbArc
 50
180.0
 51
270.0
  0
ARC
  5
37B
330
1F
100
AcDbEntity
  8
0
  6
Continuous
 62
     7
370
    25
100
AcDbCircle
 10
6.4
 20
0.4656306823
 30
0.0
 40
0.0250000000000012
100
AcDbArc
 50
126.0318790725
 51
180.0
  0
ARC
  5
37C
330
1F
100
AcDbEntity
  8
0
  6
Continuous
 62
     7
370
    25
100
AcDbCircle
 10
6.375
 20
0.5
 30
0.0
 40
0.0174999999999995
100
AcDbArc
 50
306.0318790725
 51
143.9681209275
  0
ARC
  5
37D
330
1F
100
AcDbEntity
  8
0
  6
Continuous
 62
     7
370
    25
100
AcDbCircle
 10
6.3406306823
 20
0.525
 30
0.0
 40
0.0250000000000039
100
AcDbArc
 50
270.0
 51
323.9681209275
  0
ARC
  5
37E
330
1F
100
AcDbEntity
  8
0
  6
Continuous
 62
     7
370
    25
100
AcDbCircle
 10
5.9093693177
 20
0.525
 30
0.0
 40
0.0249999999999976
100
AcDbArc
 50
216.0318790725
 51
270.0
  0
ARC
  5
37F
330
1F
100
AcDbEntity
  8
0
  6
Continuous
 62
     7
370
    25
100
AcDbCircle
 10
5.875
 20
0.5
 30
0.0
 40
0.0174999999999999
100
AcDbArc
 50
36.0318790725
 51
233.9681209275
  0
ARC
  5
380
330
1F
100
AcDbEntity
  8
0
  6
Continuous
 62
     7
370
    25
100
AcDbCircle
 10
5.85
 20
0.4656306823
 30
0.0
 40
0.0249999999999959
100
AcDbArc
 50
360.0
 51
53.9681209275
  0
ARC
  5
381
330
1F
100
AcDbEntity
  8
0
  6
Continuous
 62
     7
370
    25
100
AcDbCircle
 10
5.825
 20
0.425
 30
0.0
 40
0.0500000000000007
100
AcDbArc
 50
270.0
 51
0.0
  0
ARC
  5
382
330
1F
100
AcDbEntity
  8
0
  6
Continuous
 62
     7
370
    25
100
AcDbCircle
 10
3.175
 20
0.425
 30
0.0
 40
0.0499999999999998
100
AcDbArc
 50
180.0
 51
270.0
  0
ARC
  5
383
330
1F
100
AcDbEntity
  8
0
  6
Continuous
 62
     7
370
    25
100
AcDbCircle
 10
3.15
 20
0.4656306823
 30
0.0
 40
0.024999999999999
100
AcDbArc
 50
126.0318790725
 51
180.0
  0
ARC
  5
384
330
1F
100
AcDbEntity
  8
0
  6
Continuous
 62
     7
370
    25
100
AcDbCircle
 10
3.125
 20
0.5
 30
0.0
 40
0.0174999999999997
100
AcDbArc
 50
306.0318790725
 51
143.9681209275
  0
ARC
  5
385
330
1F
100
AcDbEntity
  8
0
  6
Continuous
 62
     7
370
    25
100
AcDbCircle
 10
3.0906306823
 20
0.525
 30
0.0
 40
0.0250000000000004
100
AcDbArc
 50
270.0
 51
323.9681209275
  0
ARC
  5
386
330
1F
100
AcDbEntity
  8
0
  6
Continuous
 62
     7
370
    25
100
AcDbCircle
 10
1.1593693177
 20
0.525
 30
0.0
 40
0.025
100
AcDbArc
 50
216.0318790725
 51
270.0
  0
ARC
  5
387
330
1F
100
AcDbEntity
  8
0
  6
Continuous
 62
     7
370
    25
100
AcDbCircle
 10
1.125
 20
0.5
 30
0.0
 40
0.0175000000000001
100
AcDbArc
 50
36.0318790725
 51
233.9681209275
  0
ARC
  5
388
330
1F
100
AcDbEntity
  8
0
  6
Continuous
 62
     7
370
    25
100
AcDbCircle
 10
1.1
 20
0.4656306823
 30
0.0
 40
0.0250000000000002
100
AcDbArc
 50
0.0
 51
53.9681209275
  0
ARC
  5
389
330
1F
100
AcDbEntity
  8
0
  6
Continuous
 62
     7
370
    25
100
AcDbCircle
 10
1.075
 20
0.425
 30
0.0
 40
0.05
100
AcDbArc
 50
270.0
 51
0.0
  0
ARC
  5
38A
330
1F
100
AcDbEntity
  8
0
  6
Continuous
 62
     7
370
    25
100
AcDbCircle
 10
-0.075
 20
0.425
 30
0.0
 40
0.0499999999999997
100
AcDbArc
 50
180.0
 51
270.0
  0
ARC
  5
38B
330
1F
100
AcDbEntity
  8
0
  6
Continuous
 62
     7
370
    25
100
AcDbCircle
 10
-0.1
 20
0.4656306823
 30
0.0
 40
0.0250000000000025
100
AcDbArc
 50
126.0318790725
 51
180.0
  0
ARC
  5
38C
330
1F
100
AcDbEntity
  8
0
  6
Continuous
 62
     7
370
    25
100
AcDbCircle
 10
-0.125
 20
0.5
 30
0.0
 40
0.0174999999999999
100
AcDbArc
 50
306.0318790725
 51
143.9681209275
  0
ARC
  5
38D
330
1F
100
AcDbEntity
  8
0
  6
Continuous
 62
     7
370
    25
100
AcDbCircle
 10
-0.1593693177
 20
0.525
 30
0.0
 40
0.0250000000000015
100
AcDbArc
 50
270.0
 51
323.9681209275
  0
ARC
  5
38E
330
1F
100
AcDbEntity
  8
0
  6
Continuous
 62
     7
370
    25
100
AcDbCircle
 10
-0.7
 20
0.55
 30
0.0
 40
0.0500000000000009
100
AcDbArc
 50
180.0
 51
270.0
  0
ARC
  5
38F
330
1F
100
AcDbEntity
  8
0
  6
Continuous
 62
     7
370
    25
100
AcDbCircle
 10
-0.7
 20
1.95
 30
0.0
 40
0.0499999999999989
100
AcDbArc
 50
90.0
 51
180.0
  0
ARC
  5
390
330
1F
100
AcDbEntity
  8
0
  6
Continuous
 62
     7
370
    25
100
AcDbCircle
 10
-0.1593693177
 20
1.975
 30
0.0
 40
0.0250000000000002
100
AcDbArc
 50
36.0318790725
 51
90.0
  0
ARC
  5
391
330
1F
100
AcDbEntity
  8
0
  6
Continuous
 62
     7
370
    25
100
AcDbCircle
 10
-0.125
 20
2.0
 30
0.0
 40
0.0175
100
AcDbArc
 50
216.0318790725
 51
53.9681209275
  0
ARC
  5
392
330
1F
100
AcDbEntity
  8
0
  6
Continuous
 62
     7
370
    25
100
AcDbCircle
 10
-0.1
 20
2.0343693177
 30
0.0
 40
0.0249999999999994
100
AcDbArc
 50
180.0
 51
233.9681209275
  0
ARC
  5
393
330
1F
100
AcDbEntity
  8
0
  6
Continuous
 62
     7
370
    25
100
AcDbCircle
 10
-0.075
 20
2.075
 30
0.0
 40
0.0499999999999998
100
AcDbArc
 50
90.0
 51
180.0
  0
ARC
  5
394
330
1F
100
AcDbEntity
  8
0
  6
Continuous
 62
     7
370
    25
100
AcDbCircle
 10
1.075
 20
2.075
 30
0.0
 40
0.0499999999999998
100
AcDbArc
 50
0.0
 51
90.0
  0
ARC
  5
395
330
1F
100
AcDbEntity
  8
0
  6
Continuous
 62
     7
370
    25
100
AcDbCircle
 10
1.1
 20
2.0343693177
 30
0.0
 40
0.0249999999999996
100
AcDbArc
 50
306.0318790725
 51
0.0
  0
ARC
  5
396
330
1F
100
AcDbEntity
  8
0
  6
Continuous
 62
     7
370
    25
100
AcDbCircle
 10
1.125
 20
2.0
 30
0.0
 40
0.0175
100
AcDbArc
 50
126.0318790725
 51
323.9681209275
  0
ARC
  5
397
330
1F
100
AcDbEntity
  8
0
  6
Continuous
 62
     7
370
    25
100
AcDbCircle
 10
1.1593693177
 20
1.975
 30
0.0
 40
0.0250000000000009
100
AcDbArc
 50
90.0
 51
143.9681209275
  0
ARC
  5
398
330
1F
100
AcDbEntity
  8
0
  6
Continuous
 62
     7
370
    25
100
AcDbCircle
 10
2.0906306823
 20
1.975
 30
0.0
 40
0.0249999999999984
100
AcDbArc
 50
36.0318790725
 51
90.0
  0
ARC
  5
399
330
1F
100
AcDbEntity
  8
0
  6
Continuous
 62
     7
370
    25
100
AcDbCircle
 10
2.125
 20
2.0
 30
0.0
 40
0.0175000000000002
100
AcDbArc
 50
216.0318790725
 51
53.9681209275
  0
ARC
  5
39A
330
1F
100
AcDbEntity
  8
0
  6
Continuous
 62
     7
370
    25
100
AcDbCircle
 10
2.15
 20
2.0343693177
 30
0.0
 40
0.0249999999999999
100
AcDbArc
 50
180.0
 51
233.9681209275
  0
ARC
  5
39B
330
1F
100
AcDbEntity
  8
0
  6
Continuous
 62
     7
370
    25
100
AcDbCircle
 10
2.175
 20
2.075
 30
0.0
 40
0.0499999999999998
100
AcDbArc
 50
90.0
 51
180.0
  0
ARC
  5
39C
330
1F
100
AcDbEntity
  8
0
  6
Continuous
 62
     7
370
    25
100
AcDbCircle
 10
2.5906306823
 20
2.1
 30
0.0
 40
0.0249999999999955
100
AcDbArc
 50
36.0318790725
 51
90.0
  0
ARC
  5
39D
330
1F
100
AcDbEntity
  8
0
  6
Continuous
 62
     7
370
    25
100
AcDbCircle
 10
2.625
 20
2.125
 30
0.0
 40
0.0175000000000001
100
AcDbArc
 50
216.0318790725
 51
53.9681209275
  0
ARC
  5
39E
330
1F
100
AcDbEntity
  8
0
  6
Continuous
 62
     7
370
    25
100
AcDbCircle
 10
2.65
 20
2.1593693177
 30
0.0
 40
0.0250000000000012
100
AcDbArc
 50
180.0
 51
233.9681209275
  0
ARC
  5
39F
330
1F
100
AcDbEntity
  8
0
  6
Continuous
 62
     7
370
    25
100
AcDbCircle
 10
2.675
 20
2.2141387394
 30
0.0
 40
0.0500000000000003
100
AcDbArc
 50
108.4779630187
 51
180.0
  0
ARC
  5
3A0
330
1F
100
AcDbEntity
  8
0
  6
Continuous
 62
     7
370
    25
100
AcDbCircle
 10
4.125
 20
-2.125
 30
0.0
 40
4.62499999999995
100
AcDbArc
 50
90.0
 51
108.4779630187
  0
ARC
  5
3A1
330
1F
100
AcDbEntity
  8
0
  6
Continuous
 62
     7
370
    25
100
AcDbCircle
 10
6.0122518645
 20
2.45
 30
0.0
 40
0.0499999999999918
100
AcDbArc
 50
30.4483567863
 51
90.0
  0
ARC
  5
3A2
330
1F
100
AcDbEntity
  8
0
  6
Continuous
 62
     7
370
    25
100
AcDbCircle
 10
6.3757622914
 20
2.0289393297
 30
0.0
 40
0.0500000000001322
100
AcDbArc
 50
210.4483567863
 51
220.0
  0
ARC
  5
3A3
330
1F
100
AcDbEntity
  8
0
  6
Continuous
 62
     7
370
    25
100
AcDbCircle
 10
7.5910864624
 20
0.425
 30
0.0
 40
0.0499999999999997
100
AcDbArc
 50
270.0
 51
40.0
  0
ARC
  5
3A4
330
1F
100
AcDbEntity
  8
0
  6
Continuous
 62
     7
370
    25
100
AcDbCircle
 10
7.1631237163
 20
0.475
 30
0.0
 40
0.0999999999999993
100
AcDbArc
 50
204.9010623704
 51
270.0
  0
ARC
  5
3A5
330
1F
100
AcDbEntity
  8
0
  6
Continuous
 62
     7
370
    25
100
AcDbCircle
 10
6.9477026171
 20
0.375
 30
0.0
 40
0.1375000000000008
100
AcDbArc
 50
24.9010623704
 51
155.0989376296
  0
ARC
  5
3A6
330
1F
100
AcDbEntity
  8
0
  6
Continuous
 62
     7
370
    25
100
AcDbCircle
 10
0.675
 20
1.2933012702
 30
0.0
 40
0.0499999999999984
100
AcDbArc
 50
120.0
 51
180.0
  0
ARC
  5
3A7
330
1F
100
AcDbEntity
  8
0
  6
Continuous
 62
     7
370
    25
100
AcDbCircle
 10
0.675
 20
1.2066987298
 30
0.0
 40
0.0499999999999983
100
AcDbArc
 50
180.0
 51
240.0
  0
ARC
  5
3A8
330
1F
100
AcDbEntity
  8
0
  6
Continuous
 62
     7
370
    25
100
AcDbCircle
 10
0.75
 20
1.1633974596
 30
0.0
 40
0.0499999999999985
100
AcDbArc
 50
240.0
 51
300.0
  0
ARC
  5
3A9
330
1F
100
AcDbEntity
  8
0
  6
Continuous
 62
     7
370
    25
100
AcDbCircle
 10
0.825
 20
1.2066987298
 30
0.0
 40
0.0500000000000002
100
AcDbArc
 50
300.0
 51
0.0
  0
ARC
  5
3AA
330
1F
100
AcDbEntity
  8
0
  6
Continuous
 62
     7
370
    25
100
AcDbCircle
 10
0.825
 20
1.2933012702
 30
0.0
 40
0.0500000000000007
100
AcDbArc
 50
0.0
 51
60.0
  0
ARC
  5
3AB
330
1F
100
AcDbEntity
  8
0
  6
Continuous
 62
     7
370
    25
100
AcDbCircle
 10
0.75
 20
1.3366025404
 30
0.0
 40
0.0499999999999998
100
AcDbArc
 50
60.0
 51
120.0
  0
ARC
  5
3AC
330
1F
100
AcDbEntity
  8
0
  6
Continuous
 62
     7
370
    25
100
AcDbCircle
 10
0.8625
 20
1.6180607966
 30
0.0
 40
0.050000000000002
100
AcDbArc
 50
120.0
 51
180.0
  0
ARC
  5
3AD
330
1F
100
AcDbEntity
  8
0
  6
Continuous
 62
     7
370
    25
100
AcDbCircle
 10
0.8625
 20
1.5314582562
 30
0.0
 40
0.05
100
AcDbArc
 50
180.0
 51
240.0
  0
ARC
  5
3AE
330
1F
100
AcDbEntity
  8
0
  6
Continuous
 62
     7
370
    25
100
AcDbCircle
 10
0.9375
 20
1.488156986
 30
0.0
 40
0.0499999999999988
100
AcDbArc
 50
240.0
 51
300.0
  0
ARC
  5
3AF
330
1F
100
AcDbEntity
  8
0
  6
Continuous
 62
     7
370
    25
100
AcDbCircle
 10
1.0125
 20
1.5314582562
 30
0.0
 40
0.0500000000000003
100
AcDbArc
 50
300.0
 51
0.0
  0
ARC
  5
3B0
330
1F
100
AcDbEntity
  8
0
  6
Continuous
 62
     7
370
    25
100
AcDbCircle
 10
1.0125
 20
1.6180607966
 30
0.0
 40
0.0500000000000004
100
AcDbArc
 50
0.0
 51
60.0
  0
ARC
  5
3B1
330
1F
100
AcDbEntity
  8
0
  6
Continuous
 62
     7
370
    25
100
AcDbCircle
 10
0.9375
 20
1.6613620668
 30
0.0
 40
0.0499999999999988
100
AcDbArc
 50
60.0
 51
120.0
  0
ARC
  5
3B2
330
1F
100
AcDbEntity
  8
0
  6
Continuous
 62
     7
370
    25
100
AcDbCircle
 10
2.2743693177
 20
0.965
 30
0.0
 40
0.0250000000000004
100
AcDbArc
 50
90.0
 51
143.9681209275
  0
ARC
  5
3B3
330
1F
100
AcDbEntity
  8
0
  6
Continuous
 62
     7
370
    25
100
AcDbCircle
 10
2.635
 20
0.99
 30
0.0
 40
0.0174999999999998
100
AcDbArc
 50
216.0318790725
 51
53.9681209275
  0
ARC
  5
3B4
330
1F
100
AcDbEntity
  8
0
  6
Continuous
 62
     7
370
    25
100
AcDbCircle
 10
2.635
 20
1.51
 30
0.0
 40
0.0175000000000001
100
AcDbArc
 50
306.0318790725
 51
143.9681209275
  0
ARC
  5
3B5
330
1F
100
AcDbEntity
  8
0
  6
Continuous
 62
     7
370
    25
100
AcDbCircle
 10
2.215
 20
1.0243693177
 30
0.0
 40
0.0249999999999977
100
AcDbArc
 50
306.0318790725
 51
0.0
  0
ARC
  5
3B6
330
1F
100
AcDbEntity
  8
0
  6
Continuous
 62
     7
370
    25
100
AcDbCircle
 10
2.6006306823
 20
0.965
 30
0.0
 40
0.024999999999998
100
AcDbArc
 50
36.0318790725
 51
90.0
  0
ARC
  5
3B7
330
1F
100
AcDbEntity
  8
0
  6
Continuous
 62
     7
370
    25
100
AcDbCircle
 10
2.66
 20
1.0243693177
 30
0.0
 40
0.0250000000000008
100
AcDbArc
 50
180.0
 51
233.9681209275
  0
ARC
  5
3B8
330
1F
100
AcDbEntity
  8
0
  6
Continuous
 62
     7
370
    25
100
AcDbCircle
 10
2.6006306823
 20
1.535
 30
0.0
 40
0.0249999999999995
100
AcDbArc
 50
270.0
 51
323.9681209275
  0
ARC
  5
3B9
330
1F
100
AcDbEntity
  8
0
  6
Continuous
 62
     7
370
    25
100
AcDbCircle
 10
2.66
 20
1.4756306823
 30
0.0
 40
0.0250000000000011
100
AcDbArc
 50
126.0318790725
 51
180.0
  0
ARC
  5
3BA
330
1F
100
AcDbEntity
  8
0
  6
Continuous
 62
     7
370
    25
100
AcDbCircle
 10
2.215
 20
1.4756306823
 30
0.0
 40
0.024999999999999
100
AcDbArc
 50
0.0
 51
53.9681209275
  0
ARC
  5
3BB
330
1F
100
AcDbEntity
  8
0
  6
Continuous
 62
     7
370
    25
100
AcDbCircle
 10
2.2743693177
 20
1.535
 30
0.0
 40
0.0249999999999972
100
AcDbArc
 50
216.0318790725
 51
270.0
  0
ARC
  5
3BC
330
1F
100
AcDbEntity
  8
0
  6
Continuous
 62
     7
370
    25
100
AcDbCircle
 10
2.24
 20
0.99
 30
0.0
 40
0.0175000000000003
100
AcDbArc
 50
126.0318790725
 51
323.9681209275
  0
ARC
  5
3BD
330
1F
100
AcDbEntity
  8
0
  6
Continuous
 62
     7
370
    25
100
AcDbCircle
 10
2.24
 20
1.51
 30
0.0
 40
0.0175000000000002
100
AcDbArc
 50
36.0318790725
 51
233.9681209275
  0
MTEXT
  5
3BF
330
1F
100
AcDbEntity
  8
0
  6
Continuous
 62
     7
100
AcDbMText
 10
-0.75
 20
0.3348595909
 30
0.0
 40
0.1903
 41
0.0
 71
     1
 72
     1
  1
SOLIDWORKS Educational Product.
  7
SLDTEXTSTYLE0
 73
     1
 44
1.0
  0
MTEXT
  5
3C0
330
1F
100
AcDbEntity
  8
0
  6
Continuous
 62
     7
100
AcDbMText
 10
-0.75
 20
0.0494095909
 30
0.0
 40
0.1903
 41
0.0
 71
     1
 72
     1
  1
For Instructional Use Only.
  7
SLDTEXTSTYLE0
 73
     1
 44
1.0
  0
ENDSEC
  0
SECTION
  2
OBJECTS
  0
DICTIONARY
  5
C
330
0
100
AcDbDictionary
281
     1
  3
ACAD_GROUP
350
D
  3
ACAD_LAYOUT
350
1A
  3
ACAD_MLINESTYLE
350
17
  3
ACAD_PLOTSETTINGS
350
19
  3
ACAD_PLOTSTYLENAME
350
E
  3
ACAD_SCALELIST
350
47
  3
DWGPROPS
350
3C1
  0
DICTIONARY
  5
D
102
{ACAD_REACTORS
330
C
102
}
330
C
100
AcDbDictionary
281
     1
  0
DICTIONARY
  5
1A
102
{ACAD_REACTORS
330
C
102
}
330
C
100
AcDbDictionary
281
     1
  3
Layout1
350
1E
  3
Layout2
350
26
  3
Model
350
22
  0
DICTIONARY
  5
17
102
{ACAD_REACTORS
330
C
102
}
330
C
100
AcDbDictionary
281
     1
  3
Standard
350
18
  0
DICTIONARY
  5
19
102
{ACAD_REACTORS
330
C
102
}
330
C
100
AcDbDictionary
281
     1
  0
ACDBDICTIONARYWDFLT
  5
E
102
{ACAD_REACTORS
330
C
102
}
330
C
100
AcDbDictionary
281
     1
  3
Normal
350
F
100
AcDbDictionaryWithDefault
340
F
  0
DICTIONARY
  5
47
102
{ACAD_REACTORS
330
C
102
}
330
C
100
AcDbDictionary
281
     1
  3
A0
350
48
  3
A1
350
49
  3
A2
350
4A
  3
A3
350
4B
  3
A4
350
4C
  3
A5
350
4D
  3
A6
350
4E
  3
A7
350
4F
  3
A8
350
50
  3
A9
350
51
  3
B1
350
52
  3
B2
350
53
  3
B3
350
54
  3
B4
350
55
  3
B5
350
56
  3
B6
350
57
  3
B7
350
58
  0
XRECORD
  5
3C1
102
{ACAD_REACTORS
330
C
102
}
330
C
100
AcDbXrecord
280
     1
  1
DWGPROPS COOKIE
  2

  3

  4

  6

  7

  8
lzk91
  9

300
=
301
=
302
=
303
=
304
=
305
=
306
=
307
=
308
=
309
=
 40
0.0
 41
2460187.029318056
 42
2460187.029347998
  1

 90
        0
  0
LAYOUT
  5
1E
102
{ACAD_REACTORS
330
1A
102
}
330
1A
100
AcDbPlotSettings
  1

  2
none_device
  4

  6

 40
0.0
 41
0.0
 42
0.0
 43
0.0
 44
0.0
 45
0.0
 46
0.0
 47
0.0
 48
0.0
 49
0.0
140
0.0
141
0.0
142
1.0
143
1.0
 70
   688
 72
     0
 73
     0
 74
     5
  7

 75
    16
147
1.0
148
0.0
149
0.0
100
AcDbLayout
  1
Layout1
 70
     1
 71
     1
 10
0.0
 20
0.0
 11
12.0
 21
9.0
 12
0.0
 22
0.0
 32
0.0
 14
1.0000000000E+20
 24
1.0000000000E+20
 34
1.0000000000E+20
 15
-1.0000000000E+20
 25
-1.0000000000E+20
 35
-1.0000000000E+20
146
0.0
 13
0.0
 23
0.0
 33
0.0
 16
1.0
 26
0.0
 36
0.0
 17
0.0
 27
1.0
 37
0.0
 76
     0
330
1B
  0
LAYOUT
  5
26
102
{ACAD_REACTORS
330
1A
102
}
330
1A
100
AcDbPlotSettings
  1

  2
none_device
  4

  6

 40
0.0
 41
0.0
 42
0.0
 43
0.0
 44
0.0
 45
0.0
 46
0.0
 47
0.0
 48
0.0
 49
0.0
140
0.0
141
0.0
142
1.0
143
1.0
 70
   688
 72
     0
 73
     0
 74
     5
  7

 75
    16
147
1.0
148
0.0
149
0.0
100
AcDbLayout
  1
Layout2
 70
     1
 71
     2
 10
0.0
 20
0.0
 11
0.0
 21
0.0
 12
0.0
 22
0.0
 32
0.0
 14
0.0
 24
0.0
 34
0.0
 15
0.0
 25
0.0
 35
0.0
146
0.0
 13
0.0
 23
0.0
 33
0.0
 16
1.0
 26
0.0
 36
0.0
 17
0.0
 27
1.0
 37
0.0
 76
     0
330
23
  0
LAYOUT
  5
22
102
{ACAD_REACTORS
330
1A
102
}
330
1A
100
AcDbPlotSettings
  1

  2
none_device
  4
ANSI_A_(11.00_x_8.50_Inches)
  6

 40
6.35
 41
19.05
 42
6.35000508
 43
19.05000254
 44
279.4
 45
215.9
 46
19.7701964079
 47
41.5138674131
 48
0.0
 49
0.0
140
0.0
141
0.0
142
1.2978057191
143
1.0
 70
  1696
 72
     0
 73
     0
 74
     0
  7

 75
     0
147
0.5913241897
148
-39.4088153714
149
0.0
100
AcDbLayout
  1
Model
 70
     1
 71
     0
 10
0.0
 20
0.0
 11
12.0
 21
9.0
 12
0.0
 22
0.0
 32
0.0
 14
-0.75
 24
0.375
 34
0.0
 15
7.6410864624
 25
2.5
 35
0.0
146
0.0
 13
0.0
 23
0.0
 33
0.0
 16
1.0
 26
0.0
 36
0.0
 17
0.0
 27
1.0
 37
0.0
 76
     0
330
1F
331
29
  0
MLINESTYLE
  5
18
102
{ACAD_REACTORS
330
17
102
}
330
17
100
AcDbMlineStyle
  2
Standard
 70
     0
  3

 62
   256
 51
90.0
 52
90.0
 71
     2
 49
0.5
 62
   256
  6
BYLAYER
 49
-0.5
 62
   256
  6
BYLAYER
  0
ACDBPLACEHOLDER
  5
F
102
{ACAD_REACTORS
330
E
102
}
330
E
  0
SCALE
  5
48
102
{ACAD_REACTORS
330
47
102
}
330
47
100
AcDbScale
 70
     0
300
1:1
140
1.0
141
1.0
290
     1
  0
SCALE
  5
49
102
{ACAD_REACTORS
330
47
102
}
330
47
100
AcDbScale
 70
     0
300
1/128" = 1'-0"
140
0.0078125
141
12.0
290
     0
  0
SCALE
  5
4A
102
{ACAD_REACTORS
330
47
102
}
330
47
100
AcDbScale
 70
     0
300
1/64" = 1'-0"
140
0.015625
141
12.0
290
     0
  0
SCALE
  5
4B
102
{ACAD_REACTORS
330
47
102
}
330
47
100
AcDbScale
 70
     0
300
1/32" = 1'-0"
140
0.03125
141
12.0
290
     0
  0
SCALE
  5
4C
102
{ACAD_REACTORS
330
47
102
}
330
47
100
AcDbScale
 70
     0
300
1/16" = 1'-0"
140
0.0625
141
12.0
290
     0
  0
SCALE
  5
4D
102
{ACAD_REACTORS
330
47
102
}
330
47
100
AcDbScale
 70
     0
300
3/32" = 1'-0"
140
0.09375
141
12.0
290
     0
  0
SCALE
  5
4E
102
{ACAD_REACTORS
330
47
102
}
330
47
100
AcDbScale
 70
     0
300
1/8" = 1'-0"
140
0.125
141
12.0
290
     0
  0
SCALE
  5
4F
102
{ACAD_REACTORS
330
47
102
}
330
47
100
AcDbScale
 70
     0
300
3/16" = 1'-0"
140
0.1875
141
12.0
290
     0
  0
SCALE
  5
50
102
{ACAD_REACTORS
330
47
102
}
330
47
100
AcDbScale
 70
     0
300
1/4" = 1'-0"
140
0.25
141
12.0
290
     0
  0
SCALE
  5
51
102
{ACAD_REACTORS
330
47
102
}
330
47
100
AcDbScale
 70
     0
300
3/8" = 1'-0"
140
0.375
141
12.0
290
     0
  0
SCALE
  5
52
102
{ACAD_REACTORS
330
47
102
}
330
47
100
AcDbScale
 70
     0
300
1/2" = 1'-0"
140
0.5
141
12.0
290
     0
  0
SCALE
  5
53
102
{ACAD_REACTORS
330
47
102
}
330
47
100
AcDbScale
 70
     0
300
3/4" = 1'-0"
140
0.75
141
12.0
290
     0
  0
SCALE
  5
54
102
{ACAD_REACTORS
330
47
102
}
330
47
100
AcDbScale
 70
     0
300
1" = 1'-0"
140
1.0
141
12.0
290
     0
  0
SCALE
  5
55
102
{ACAD_REACTORS
330
47
102
}
330
47
100
AcDbScale
 70
     0
300
1-1/2" = 1'-0"
140
1.5
141
12.0
290
     0
  0
SCALE
  5
56
102
{ACAD_REACTORS
330
47
102
}
330
47
100
AcDbScale
 70
     0
300
3" = 1'-0"
140
3.0
141
12.0
290
     0
  0
SCALE
  5
57
102
{ACAD_REACTORS
330
47
102
}
330
47
100
AcDbScale
 70
     0
300
6" = 1'-0"
140
6.0
141
12.0
290
     0
  0
SCALE
  5
58
102
{ACAD_REACTORS
330
47
102
}
330
47
100
AcDbScale
 70
     0
300
1'-0" = 1'-0"
140
12.0
141
12.0
290
     0
  0
ENDSEC
  0
EOF
