0
SECTION
2
HEADER
9
$INSUNITS
70
1
9
$ACADVER
1
AC1014
9
$HANDSEED
5
FFFF
0
ENDSEC
0
SECTION
2
TABLES
0
TABLE
2
VPORT
5
8
100
AcDbSymbolTable
0
ENDTAB
0
TABLE
2
LTYPE
5
5
100
AcDbSymbolTable
0
LTYPE
5
14
100
AcDbSymbolTableRecord
100
AcDbLinetypeTableRecord
2
BYBLOCK
70
0
0
LTYPE
5
15
100
AcDbSymbolTableRecord
100
AcDbLinetypeTableRecord
2
BYLAYER
70
0
0
ENDTAB
0
TABLE
2
LAYER
5
2
100
AcDbSymbolTable
70
2
0
LAYER
5
50
100
AcDbSymbolTableRecord
100
AcDbLayerTableRecord
2
0
70
0
6
CONTINUOUS
0
ENDTAB
0
TABLE
2
STYLE
5
3
100
AcDbSymbolTable
70
1
0
STYLE
5
11
100
AcDbSymbolTableRecord
100
AcDbTextStyleTableRecord
2
STANDARD
70
0
0
ENDTAB
0
TABLE
2
VIEW
5
6
100
AcDbSymbolTable
70
0
0
ENDTAB
0
TABLE
2
UCS
5
7
100
AcDbSymbolTable
70
0
0
ENDTAB
0
TABLE
2
APPID
5
9
100
AcDbSymbolTable
70
2
0
APPID
5
12
100
AcDbSymbolTableRecord
100
AcDbRegAppTableRecord
2
ACAD
70
0
0
ENDTAB
0
TABLE
2
DIMSTYLE
5
A
100
AcDbSymbolTable
70
1
0
ENDTAB
0
TABLE
2
BLOCK_RECORD
5
1
100
AcDbSymbolTable
70
1
0
BLOCK_RECORD
5
1F
100
AcDbSymbolTableRecord
100
AcDbBlockTableRecord
2
*MODEL_SPACE
0
BLOCK_RECORD
5
1B
100
AcDbSymbolTableRecord
100
AcDbBlockTableRecord
2
*PAPER_SPACE
0
ENDTAB
0
ENDSEC
0
SECTION
2
BLOCKS
0
BLOCK
5
20
100
AcDbEntity
100
AcDbBlockBegin
2
*MODEL_SPACE
0
ENDBLK
5
21
100
AcDbEntity
100
AcDbBlockEnd
0
BLOCK
5
1C
100
AcDbEntity
100
AcDbBlockBegin
2
*PAPER_SPACE
0
ENDBLK
5
1D
100
AcDbEntity
100
AcDbBlockEnd
0
ENDSEC
0
SECTION
2
ENTITIES
0
CIRCLE
5
100
100
AcDbEntity
8
0
100
AcDbCircle
10
-0.34798562066266964
20
3.0620143793373291
30
0
40
0.062992125984252023
210
8.4249402674763305e-132
220
3.6854215182673014e-234
230
1
0
CIRCLE
5
101
100
AcDbEntity
8
0
100
AcDbCircle
10
-1
20
7.0850693805393457e-13
30
0
40
0.084750000000000006
210
5.5710070277263505e-96
220
1.6114651546867477e-162
230
1
0
CIRCLE
5
102
100
AcDbEntity
8
0
100
AcDbCircle
10
2.1549065447706749e-50
20
2.0973880949437693e-17
30
0
40
0.62499999999999978
210
3.9272803432452099e-90
220
1.1360020538889609e-156
230
1
0
CIRCLE
5
103
100
AcDbEntity
8
0
100
AcDbCircle
10
1
20
-7.0842370262001658e-13
30
0
40
0.084750000000000006
210
5.5710070277263505e-96
220
1.6114651546867477e-162
230
1
0
CIRCLE
5
104
100
AcDbEntity
8
0
100
AcDbCircle
10
-0.70710678118704851
20
-0.70710678118604675
30
0
40
0.084750000000000006
210
8.4249402674763292e-132
220
3.6854215182673009e-234
230
1
0
CIRCLE
5
105
100
AcDbEntity
8
0
100
AcDbCircle
10
-0.3479856206626688
20
3.7579856206626716
30
0
40
0.062992125984252023
210
8.4249402674763305e-132
220
3.6854215182673014e-234
230
1
0
CIRCLE
5
106
100
AcDbEntity
8
0
100
AcDbCircle
10
0.34798562066267275
20
3.0620143793373282
30
0
40
0.062992125984252023
210
8.4249402674763305e-132
220
3.6854215182673014e-234
230
1
0
CIRCLE
5
107
100
AcDbEntity
8
0
100
AcDbCircle
10
-0.70710678118604664
20
0.70710678118704862
30
0
40
0.084750000000000006
210
8.4249402674763292e-132
220
3.6854215182673009e-234
230
1
0
CIRCLE
5
108
100
AcDbEntity
8
0
100
AcDbCircle
10
0.70710678118604653
20
-0.70710678118704873
30
0
40
0.084749999999999923
210
3.9272747722381812e-90
220
-2.8025969286496341e-45
230
1
0
CIRCLE
5
109
100
AcDbEntity
8
0
100
AcDbCircle
10
0.70710678118704851
20
0.70710678118604675
30
0
40
0.084750000000000006
210
8.4249402674763292e-132
220
3.6854215182673009e-234
230
1
0
CIRCLE
5
110
100
AcDbEntity
8
0
100
AcDbCircle
10
1.9704608075149299e-15
20
3.4099999999999997
30
0
40
0.375
210
8.4249402674763292e-132
220
2.8025969286496341e-45
230
1
0
CIRCLE
5
111
100
AcDbEntity
8
0
100
AcDbCircle
10
0.3479856206626738
20
3.7579856206626707
30
0
40
0.062992125984252023
210
8.4249402674763305e-132
220
3.6854215182673014e-234
230
1
0
CIRCLE
5
112
100
AcDbEntity
8
0
100
AcDbCircle
10
-2.0499999999999101
20
-3.0221943016148938
30
0
40
0.099999999999999811
210
-0
220
0
230
1
0
CIRCLE
5
113
100
AcDbEntity
8
0
100
AcDbCircle
10
2.0500000000018148
20
3.022194301613621
30
0
40
0.099999999999999811
210
-0
220
0
230
1
0
CIRCLE
5
114
100
AcDbEntity
8
0
100
AcDbCircle
10
2.5454703961436669e-12
20
-4.0499999999999998
30
0
40
0.099999999999999978
210
3.3051257778310008e-90
220
-2.8025969286496341e-45
230
1
0
CIRCLE
5
115
100
AcDbEntity
8
0
100
AcDbCircle
10
-2.0500000000018082
20
3.0221943016136068
30
0
40
0.099999999999999811
210
-0
220
0
230
1
0
CIRCLE
5
116
100
AcDbEntity
8
0
100
AcDbCircle
10
2.0500000000037129
20
-3.0221943016123345
30
0
40
0.099999999999999811
210
-0
220
0
230
1
0
CIRCLE
5
117
100
AcDbEntity
8
0
100
AcDbCircle
10
-1.795000000000001
20
1.4469461216932276e-13
30
0
40
0.10000000000000017
210
0
220
-0
230
1
0
CIRCLE
5
118
100
AcDbEntity
8
0
100
AcDbCircle
10
-1.7949999999992949
20
-2.2499999999998548
30
0
40
0.10000000000000017
210
0
220
-0
230
1
0
CIRCLE
5
119
100
AcDbEntity
8
0
100
AcDbCircle
10
-1.7950000000007071
20
2.2500000000001443
30
0
40
0.10000000000000017
210
0
220
-0
230
1
0
CIRCLE
5
120
100
AcDbEntity
8
0
100
AcDbCircle
10
1.795000000000001
20
1.413213409484628e-13
30
0
40
0.10000000000000017
210
0
220
-0
230
1
0
CIRCLE
5
121
100
AcDbEntity
8
0
100
AcDbCircle
10
1.7949999999992909
20
-2.2499999999998583
30
0
40
0.10000000000000017
210
0
220
-0
230
1
0
CIRCLE
5
122
100
AcDbEntity
8
0
100
AcDbCircle
10
1.7950000000007111
20
2.2500000000001412
30
0
40
0.10000000000000017
210
0
220
-0
230
1
0
LWPOLYLINE
5
123
100
AcDbEntity
8
0
100
AcDbPolyline
90
8
70
1
43
0.0
10
2.2500000000017741
20
3.2572933549179925
42
0.28250219167644569
10
1.9228204594694405
20
3.7901532265392288
42
0.23915221579640092
10
-1.9228204594694374
20
3.7901532265392297
42
0.28250219167644658
10
-2.2500000000017701
20
3.2572933549179943
10
-2.2499999999997251
20
-3.2572933549194056
42
0.28250219167644736
10
-1.9228204594670582
20
-3.7901532265404381
42
0.23915221579606855
10
1.9228204594670535
20
-3.7901532265404403
42
0.28250219167644658
10
2.249999999999722
20
-3.2572933549194101
0
ENDSEC
0
SECTION
2
OBJECTS
0
DICTIONARY
5
C
100
AcDbDictionary
3
ACAD_GROUP
350
D
3
ACAD_MLINESTYLE
350
17
0
DICTIONARY
5
D
100
AcDbDictionary
0
DICTIONARY
5
1A
330
C
100
AcDbDictionary
0
DICTIONARY
5
17
100
AcDbDictionary
0
ENDSEC
0
EOF
